<?xml version="1.0" encoding="UTF-8"?>
<!DOCTYPE svg PUBLIC "-//W3C//DTD SVG 1.1//EN" "http://www.w3.org/Graphics/SVG/1.1/DTD/svg11.dtd">
<svg xmlns="http://www.w3.org/2000/svg" width="1060" height="350" fill="black" stroke="gray" stroke-width="1">
<text x= "0" y="30" text-anchor="start" stroke="brown">Linux 3.10.0-693.el7.ppc64le (centos-wildfly-jmeter-iv2-daytrader) 	05/12/2018 	_ppc64le_	(4 CPU)
</text>
<g id="7" transform="translate(0,50)">
<rect x="0" y="0" height="300" width="1050"/>
<text x="0" y="20" style="fill: yellow; stroke: none">I/O and transfer rate statistics (2)
<tspan x="795" y="25" style="fill: yellow; stroke: none; font-size: 12px">(Min, Max, Average values)</tspan></text>
<polyline points="70,50 70,250 790,250" stroke="white" stroke-width="2"/>
<text x="795" y="50" style="fill: #ff0000; stroke: none; font-size: 12px">bread/s (0.00, 70192.00, 32.052)</text><text x="795" y="65" style="fill: #e85f00; stroke: none; font-size: 12px">bwrtn/s (0.00, 12592.00, 366.252)</text><g transform="translate(70,250)">
<text x="0" y="10" style="fill: white; stroke: none; font-size: 12px; text-anchor: start" transform="rotate(45,0,0)">14:36:30</text>
<polyline points="366,0 366,-200" style="vector-effect: non-scaling-stroke; stroke: #202020" transform="scale(0.196614,1)"/>
<text x="71" y="10" style="fill: white; stroke: none; font-size: 12px; text-anchor: start" transform="rotate(45,71,0)">14:42:36</text>
<polyline points="732,0 732,-200" style="vector-effect: non-scaling-stroke; stroke: #202020" transform="scale(0.196614,1)"/>
<text x="143" y="10" style="fill: white; stroke: none; font-size: 12px; text-anchor: start" transform="rotate(45,143,0)">14:48:42</text>
<polyline points="1098,0 1098,-200" style="vector-effect: non-scaling-stroke; stroke: #202020" transform="scale(0.196614,1)"/>
<text x="215" y="10" style="fill: white; stroke: none; font-size: 12px; text-anchor: start" transform="rotate(45,215,0)">14:54:48</text>
<polyline points="1464,0 1464,-200" style="vector-effect: non-scaling-stroke; stroke: #202020" transform="scale(0.196614,1)"/>
<text x="287" y="10" style="fill: white; stroke: none; font-size: 12px; text-anchor: start" transform="rotate(45,287,0)">15:00:54</text>
<polyline points="1830,0 1830,-200" style="vector-effect: non-scaling-stroke; stroke: #202020" transform="scale(0.196614,1)"/>
<text x="359" y="10" style="fill: white; stroke: none; font-size: 12px; text-anchor: start" transform="rotate(45,359,0)">15:07:00</text>
<polyline points="2196,0 2196,-200" style="vector-effect: non-scaling-stroke; stroke: #202020" transform="scale(0.196614,1)"/>
<text x="431" y="10" style="fill: white; stroke: none; font-size: 12px; text-anchor: start" transform="rotate(45,431,0)">15:13:06</text>
<polyline points="2562,0 2562,-200" style="vector-effect: non-scaling-stroke; stroke: #202020" transform="scale(0.196614,1)"/>
<text x="503" y="10" style="fill: white; stroke: none; font-size: 12px; text-anchor: start" transform="rotate(45,503,0)">15:19:12</text>
<polyline points="2928,0 2928,-200" style="vector-effect: non-scaling-stroke; stroke: #202020" transform="scale(0.196614,1)"/>
<text x="575" y="10" style="fill: white; stroke: none; font-size: 12px; text-anchor: start" transform="rotate(45,575,0)">15:25:18</text>
<polyline points="3294,0 3294,-200" style="vector-effect: non-scaling-stroke; stroke: #202020" transform="scale(0.196614,1)"/>
<text x="647" y="10" style="fill: white; stroke: none; font-size: 12px; text-anchor: start" transform="rotate(45,647,0)">15:31:24</text>
<polyline points="3660,0 3660,-200" style="vector-effect: non-scaling-stroke; stroke: #202020" transform="scale(0.196614,1)"/>
<text x="719" y="10" style="fill: white; stroke: none; font-size: 12px; text-anchor: start" transform="rotate(45,719,0)">15:37:30</text>
<text x="-10" y="30" style="fill: yellow; stroke: none; font-size: 12px; text-anchor: end">UTC</text>
<path id="g5p4" d="M1,0.0 L2,0.0 L3,0.0 L4,0.0 L5,0.0 L6,0.0 L7,4.10009471501499 L8,0.0 L9,0.0 L10,0.0 L11,0.0 L12,0.0 L13,0.0 L14,0.0 L15,2.663700925389648 L16,0.0 L17,0.0 L18,0.0 L19,0.0 L20,0.0 L21,0.0 L22,3.4940153747571436 L23,1.505149978319906 L24,0.0 L25,0.0 L26,0.0 L27,0.0 L28,0.0 L29,0.0 L30,0.0 L31,0.0 L32,0.0 L33,0.0 L34,0.0 L35,0.0 L36,0.0 L37,0.0 L38,2.7481880270062002 L39,0.0 L40,0.0 L41,0.0 L42,0.0 L43,0.0 L44,0.0 L45,0.0 L46,0.0 L47,0.0 L48,2.9965116721541785 L49,0.0 L50,0.0 L51,0.0 L52,2.884228769632604 L53,3.7909181952145783 L54,0.0 L55,0.0 L56,0.0 L57,0.0 L58,0.0 L59,0.0 L60,0.0 L61,0.0 L62,0.0 L63,3.6489451821656727 L64,0.0 L65,0.0 L66,0.0 L67,0.0 L68,0.0 L69,0.0 L70,0.0 L71,0.0 L72,0.0 L73,0.0 L74,0.0 L75,0.0 L76,0.0 L77,0.0 L78,0.0 L79,0.0 L80,0.0 L81,0.0 L82,2.437750562820388 L83,0.47712125471966244 L84,0.0 L85,0.0 L86,0.0 L87,0.0 L88,3.9188687433809846 L89,0.0 L90,0.0 L91,0.0 L92,0.0 L93,0.0 L94,0.0 L95,0.0 L96,0.0 L97,0.0 L98,0.0 L99,0.0 L100,0.0 L101,0.0 L102,0.0 L103,0.0 L104,0.0 L105,0.0 L106,0.0 L107,0.0 L108,3.8903092168999485 L109,0.0 L110,0.0 L111,0.0 L112,2.2355284469075487 L113,0.0 L114,0.0 L115,0.0 L116,0.0 L117,0.0 L118,0.0 L119,0.0 L120,0.0 L121,0.0 L122,0.0 L123,3.722633922533812 L124,0.0 L125,0.0 L126,0.0 L127,0.0 L128,0.0 L129,0.0 L130,0.0 L131,0.0 L132,0.0 L133,0.0 L134,0.0 L135,0.0 L136,0.0 L137,0.0 L138,0.0 L139,0.0 L140,0.0 L141,0.0 L142,1.414973347970818 L143,3.889413764042709 L144,0.0 L145,0.0 L146,0.0 L147,0.0 L148,0.0 L149,0.0 L150,0.0 L151,0.0 L152,0.0 L153,2.1072099696478683 L154,0.0 L155,0.0 L156,0.0 L157,0.0 L158,0.0 L159,0.0 L160,0.0 L161,0.0 L162,0.0 L163,0.0 L164,0.0 L165,0.0 L166,0.0 L167,0.0 L168,0.0 L169,0.0 L170,0.0 L171,0.0 L172,1.3979400086720377 L173,4.006551609086649 L174,0.0 L175,0.0 L176,0.0 L177,0.0 L178,2.754348335711019 L179,0.0 L180,0.0 L181,0.0 L182,0.0 L183,2.1072099696478683 L184,0.0 L185,0.0 L186,0.0 L187,0.0 L188,0.0 L189,0.0 L190,0.0 L191,0.0 L192,0.0 L193,0.0 L194,0.0 L195,0.0 L196,0.0 L197,0.0 L198,0.0 L199,0.0 L200,0.0 L201,0.0 L202,0.0 L203,4.005909446494559 L204,0.0 L205,0.0 L206,0.0 L207,0.0 L208,0.0 L209,0.0 L210,0.0 L211,0.0 L212,0.0 L213,2.842609239610562 L214,0.0 L215,0.0 L216,0.0 L217,0.0 L218,3.7628285531890904 L219,0.0 L220,0.0 L221,0.0 L222,0.0 L223,0.0 L224,0.0 L225,0.0 L226,0.0 L227,0.0 L228,3.5834255004065065 L229,0.0 L230,0.0 L231,0.0 L232,0.0 L233,0.9542425094393249 L234,0.0 L235,0.0 L236,0.0 L237,0.0 L238,0.0 L239,0.0 L240,0.0 L241,0.0 L242,0.0 L243,3.729812507160936 L244,0.0 L245,0.0 L246,0.0 L247,0.0 L248,0.0 L249,0.0 L250,0.0 L251,0.0 L252,0.0 L253,0.0 L254,0.0 L255,0.0 L256,0.0 L257,0.0 L258,3.7616271845615827 L259,0.0 L260,0.0 L261,0.0 L262,0.0 L263,2.130333768495006 L264,0.0 L265,0.0 L266,0.0 L267,0.0 L268,0.0 L269,0.0 L270,0.0 L271,0.0 L272,0.0 L273,0.0 L274,0.0 L275,0.0 L276,0.0 L277,0.0 L278,3.848558572123763 L279,0.0 L280,0.0 L281,0.0 L282,0.0 L283,0.0 L284,0.0 L285,0.0 L286,0.0 L287,0.0 L288,3.652826302561005 L289,0.0 L290,0.0 L291,0.0 L292,0.0 L293,3.3634239329171765 L294,0.0 L295,0.0 L296,0.0 L297,0.0 L298,3.3344537511509307 L299,0.0 L300,0.0 L301,0.0 L302,0.0 L303,0.0 L304,0.0 L305,0.0 L306,0.0 L307,0.0 L308,0.0 L309,0.0 L310,0.0 L311,0.0 L312,0.0 L313,3.7456992266025058 L314,0.0 L315,0.0 L316,0.0 L317,0.0 L318,0.0 L319,0.0 L320,0.0 L321,0.0 L322,0.0 L323,3.630529571426824 L324,0.0 L325,0.0 L326,0.0 L327,0.0 L328,0.0 L329,0.0 L330,0.0 L331,0.0 L332,0.0 L333,0.0 L334,0.0 L335,0.0 L336,0.0 L337,0.0 L338,3.75373622217501 L339,0.0 L340,0.0 L341,0.0 L342,0.0 L343,0.0 L344,0.0 L345,0.0 L346,0.0 L347,0.0 L348,0.0 L349,0.0 L350,0.0 L351,0.0 L352,0.0 L353,0.8450980400142568 L354,0.0 L355,0.0 L356,0.0 L357,0.0 L358,3.866877814337499 L359,0.0 L360,0.0 L361,0.0 L362,0.0 L363,0.0 L364,0.0 L365,0.0 L366,0.0 L367,0.0 L368,3.6338722626583326 L369,0.0 L370,0.0 L371,0.0 L372,0.0 L373,0.0 L374,0.0 L375,0.0 L376,0.0 L377,0.0 L378,0.0 L379,0.0 L380,0.0 L381,0.0 L382,0.0 L383,3.7227161674884948 L384,0.0 L385,0.0 L386,0.0 L387,0.0 L388,0.0 L389,0.0 L390,0.0 L391,0.0 L392,0.0 L393,3.5994463757252757 L394,0.0 L395,0.0 L396,0.0 L397,0.0 L398,0.0 L399,0.0 L400,0.0 L401,0.0 L402,0.0 L403,3.646599751720373 L404,0.0 L405,0.0 L406,0.0 L407,0.0 L408,0.0 L409,0.0 L410,0.0 L411,0.0 L412,0.0 L413,1.380211241711606 L414,0.0 L415,0.0 L416,0.0 L417,0.0 L418,0.0 L419,0.0 L420,0.0 L421,0.0 L422,0.0 L423,0.0 L424,0.0 L425,0.0 L426,0.0 L427,0.0 L428,3.938519725176492 L429,0.0 L430,0.0 L431,0.0 L432,0.0 L433,0.0 L434,0.0 L435,0.0 L436,0.0 L437,0.0 L438,3.616580530085886 L439,0.0 L440,0.0 L441,0.0 L442,0.0 L443,0.9030899869919435 L444,0.0 L445,0.0 L446,0.0 L447,0.0 L448,0.0 L449,0.0 L450,0.0 L451,0.0 L452,0.0 L453,3.751279103983342 L454,0.0 L455,0.0 L456,0.0 L457,0.0 L458,0.0 L459,0.0 L460,0.0 L461,0.0 L462,0.0 L463,3.508395033133053 L464,0.0 L465,0.0 L466,0.0 L467,0.0 L468,0.0 L469,0.0 L470,0.0 L471,0.0 L472,0.0 L473,3.5913985512812485 L474,0.0 L475,0.0 L476,0.0 L477,0.0 L478,0.0 L479,0.0 L480,0.0 L481,0.0 L482,0.0 L483,0.0 L484,0.0 L485,0.0 L486,0.0 L487,0.0 L488,3.77757180469141 L489,0.0 L490,0.0 L491,0.0 L492,0.0 L493,0.0 L494,0.0 L495,0.0 L496,0.0 L497,0.0 L498,0.0 L499,3.575187844927661 L500,0.0 L501,0.0 L502,0.0 L503,0.9030899869919435 L504,0.0 L505,0.0 L506,0.0 L507,0.0 L508,0.0 L509,3.575187844927661 L510,0.0 L511,0.0 L512,0.0 L513,0.0 L514,0.0 L515,0.0 L516,0.0 L517,0.0 L518,0.0 L519,3.6314437690131722 L520,0.0 L521,0.0 L522,0.0 L523,0.0 L524,0.0 L525,0.0 L526,0.0 L527,0.0 L528,0.0 L529,3.5779511277297553 L530,0.0 L531,0.0 L532,0.0 L533,1.3979400086720377 L534,0.0 L535,0.0 L536,0.0 L537,0.0 L538,0.0 L539,0.0 L540,0.0 L541,0.0 L542,0.0 L543,0.0 L544,3.72916478969277 L545,0.0 L546,0.0 L547,0.0 L548,0.0 L549,0.0 L550,0.0 L551,0.0 L552,0.0 L553,0.0 L554,0.0 L555,0.0 L556,0.0 L557,0.0 L558,0.0 L559,0.0 L560,0.0 L561,0.0 L562,0.0 L563,0.8450980400142568 L564,3.9022205282793148 L565,0.0 L566,0.0 L567,0.0 L568,0.0 L569,0.0 L570,0.0 L571,0.0 L572,0.0 L573,0.0 L574,3.5733358400660675 L575,0.0 L576,0.0 L577,0.0 L578,0.0 L579,0.0 L580,0.0 L581,0.0 L582,0.0 L583,0.0 L584,0.0 L585,0.0 L586,0.0 L587,0.0 L588,0.0 L589,3.756179516843809 L590,0.0 L591,0.0 L592,0.0 L593,0.0 L594,1.041392685158225 L595,0.0 L596,0.0 L597,0.0 L598,0.0 L599,0.0 L600,0.0 L601,0.0 L602,0.0 L603,0.0 L604,0.0 L605,0.0 L606,0.0 L607,0.0 L608,0.0 L609,0.0 L610,0.0 L611,0.0 L612,0.0 L613,0.0 L614,0.0 L615,0.0 L616,0.0 L617,0.0 L618,0.0 L619,3.994053063587675 L620,0.0 L621,0.0 L622,0.0 L623,0.0 L624,2.7730546933642626 L625,0.0 L626,0.0 L627,0.0 L628,0.0 L629,0.0 L630,0.0 L631,0.0 L632,0.0 L633,0.0 L634,0.0 L635,0.0 L636,0.0 L637,0.0 L638,0.0 L639,0.0 L640,0.0 L641,0.0 L642,0.0 L643,0.0 L644,0.0 L645,0.0 L646,0.0 L647,0.0 L648,0.0 L649,4.0340666785975605 L650,0.0 L651,0.0 L652,0.0 L653,0.0 L654,0.8450980400142568 L655,0.0 L656,0.0 L657,0.0 L658,0.0 L659,2.760422483423212 L660,0.0 L661,0.0 L662,0.0 L663,0.0 L664,0.0 L665,0.0 L666,0.0 L667,0.0 L668,0.0 L669,0.0 L670,0.0 L671,0.0 L672,0.0 L673,0.0 L674,0.0 L675,0.0 L676,0.0 L677,0.0 L678,0.0 L679,3.2723058444020863 L680,0.0 L681,0.0 L682,0.0 L683,0.0 L684,4.023293623036605 L685,0.0 L686,0.0 L687,0.0 L688,0.0 L689,0.0 L690,0.0 L691,0.0 L692,0.0 L693,0.0 L694,2.760422483423212 L695,0.0 L696,0.0 L697,0.0 L698,0.0 L699,0.0 L700,0.0 L701,0.0 L702,0.0 L703,0.0 L704,0.0 L705,0.0 L706,0.0 L707,0.0 L708,0.0 L709,3.2335037603411343 L710,0.0 L711,0.0 L712,0.0 L713,0.0 L714,3.946452265013073 L715,0.0 L716,0.0 L717,0.0 L718,0.0 L719,0.0 L720,0.0 L721,0.0 L722,0.0 L723,0.0 L724,0.0 L725,0.0 L726,0.0 L727,0.0 L728,0.0 L729,2.760422483423212 L730,0.0 L731,0.0 L732,0.0 L733,0.0 L734,0.0 L735,0.0 L736,0.0 L737,0.0 L738,0.0 L739,3.1583624920952498 L740,0.0 L741,0.0 L742,0.0 L743,0.0 L744,3.9518715571283645 L745,0.0 L746,0.0 L747,0.0 L748,0.0 L749,0.0 L750,0.0 L751,0.0 L752,0.0 L753,0.0 L754,0.0 L755,0.0 L756,0.0 L757,0.0 L758,0.0 L759,0.0 L760,0.0 L761,0.0 L762,0.0 L763,0.0 L764,2.760422483423212 L765,0.0 L766,0.0 L767,0.0 L768,0.0 L769,3.188647295999717 L770,0.0 L771,0.0 L772,0.0 L773,0.0 L774,3.9255183581774302 L775,0.0 L776,0.0 L777,0.0 L778,0.0 L779,0.0 L780,0.0 L781,0.0 L782,0.0 L783,0.0 L784,0.0 L785,0.0 L786,0.0 L787,0.0 L788,0.0 L789,0.0 L790,0.0 L791,0.0 L792,0.0 L793,0.0 L794,0.0 L795,0.0 L796,0.0 L797,0.0 L798,0.0 L799,3.3684728384403617 L800,0.0 L801,0.0 L802,0.0 L803,0.0 L804,3.9603756314101584 L805,0.0 L806,0.0 L807,0.0 L808,0.0 L809,0.0 L810,0.0 L811,0.0 L812,0.0 L813,0.0 L814,0.0 L815,0.0 L816,0.0 L817,0.0 L818,0.0 L819,0.0 L820,0.0 L821,0.0 L822,0.0 L823,0.0 L824,0.0 L825,0.0 L826,0.0 L827,0.0 L828,0.0 L829,3.255272505103306 L830,0.0 L831,0.0 L832,0.0 L833,0.0 L834,2.767897616018091 L835,0.0 L836,0.0 L837,0.0 L838,0.0 L839,4.014352500651009 L840,0.0 L841,0.0 L842,0.0 L843,0.0 L844,0.0 L845,0.0 L846,0.0 L847,0.0 L848,0.0 L849,2.1072099696478683 L850,0.0 L851,0.0 L852,0.0 L853,0.0 L854,0.0 L855,0.0 L856,0.0 L857,0.0 L858,0.0 L859,3.1931245983544616 L860,0.0 L861,0.0 L862,0.0 L863,0.0 L864,1.9294189257142929 L865,0.0 L866,0.0 L867,0.0 L868,0.0 L869,3.986592606822211 L870,0.0 L871,0.0 L872,0.0 L873,0.0 L874,0.0 L875,0.0 L876,0.0 L877,0.0 L878,0.0 L879,0.0 L880,0.0 L881,0.0 L882,0.0 L883,0.0 L884,0.0 L885,0.0 L886,0.0 L887,0.0 L888,0.0 L889,3.165541076722373 L890,0.0 L891,0.0 L892,0.0 L893,0.0 L894,1.806179973983887 L895,0.0 L896,0.0 L897,0.0 L898,0.0 L899,3.956552591917399 L900,0.0 L901,0.0 L902,0.0 L903,0.0 L904,2.760422483423212 L905,0.0 L906,0.0 L907,0.0 L908,0.0 L909,0.0 L910,0.0 L911,0.0 L912,0.0 L913,0.0 L914,0.0 L915,0.0 L916,0.0 L917,0.0 L918,0.0 L919,3.2062860444124324 L920,0.0 L921,0.0 L922,0.0 L923,0.0 L924,1.8388490907372552 L925,0.0 L926,0.0 L927,0.0 L928,0.0 L929,3.9091279419892606 L930,0.0 L931,0.0 L932,0.0 L933,0.0 L934,0.0 L935,0.0 L936,0.0 L937,0.0 L938,0.0 L939,2.760422483423212 L940,0.0 L941,0.0 L942,0.0 L943,0.0 L944,0.0 L945,0.0 L946,0.0 L947,0.0 L948,0.0 L949,3.2610248339923973 L950,0.0 L951,0.0 L952,0.0 L953,0.0 L954,1.9444826721501687 L955,0.0 L956,0.0 L957,0.0 L958,0.0 L959,3.9561684304753633 L960,0.0 L961,0.0 L962,0.0 L963,0.0 L964,0.0 L965,0.0 L966,0.0 L967,0.0 L968,0.0 L969,0.0 L970,0.0 L971,0.0 L972,0.0 L973,0.0 L974,2.760422483423212 L975,0.0 L976,0.0 L977,0.0 L978,0.0 L979,3.2335037603411343 L980,0.0 L981,0.0 L982,0.0 L983,0.0 L984,0.0 L985,1.0 L986,0.0 L987,0.0 L988,0.0 L989,0.0 L990,3.9607560909017727 L991,0.0 L992,0.0 L993,0.0 L994,0.0 L995,0.0 L996,0.0 L997,0.0 L998,0.0 L999,0.0 L1000,0.0 L1001,0.0 L1002,0.0 L1003,0.0 L1004,0.0 L1005,2.716003343634799 L1006,0.0 L1007,0.0 L1008,0.0 L1009,0.0 L1010,3.17260293120986 L1011,0.0 L1012,0.0 L1013,0.0 L1014,0.0 L1015,1.3979400086720377 L1016,0.0 L1017,0.0 L1018,0.0 L1019,0.0 L1020,3.9476297473843545 L1021,0.0 L1022,0.0 L1023,0.0 L1024,0.0 L1025,0.0 L1026,0.0 L1027,0.0 L1028,0.0 L1029,0.0 L1030,0.0 L1031,0.0 L1032,0.0 L1033,0.0 L1034,0.0 L1035,0.0 L1036,0.0 L1037,0.0 L1038,0.0 L1039,0.0 L1040,3.326335860928751 L1041,0.0 L1042,0.0 L1043,0.0 L1044,0.0 L1045,0.9030899869919435 L1046,0.0 L1047,0.0 L1048,0.0 L1049,0.0 L1050,3.9436923271060165 L1051,0.0 L1052,0.0 L1053,0.0 L1054,0.0 L1055,0.0 L1056,0.0 L1057,0.0 L1058,0.0 L1059,0.0 L1060,0.0 L1061,0.0 L1062,0.0 L1063,0.0 L1064,0.0 L1065,0.0 L1066,0.0 L1067,0.0 L1068,0.0 L1069,0.0 L1070,2.1072099696478683 L1071,0.0 L1072,0.0 L1073,0.0 L1074,0.0 L1075,3.3694014136966244 L1076,0.0 L1077,0.0 L1078,0.0 L1079,0.0 L1080,3.932473764677153 L1081,0.0 L1082,0.0 L1083,0.0 L1084,0.0 L1085,0.0 L1086,0.0 L1087,0.0 L1088,0.0 L1089,0.0 L1090,0.0 L1091,0.0 L1092,0.0 L1093,0.0 L1094,0.0 L1095,0.0 L1096,0.0 L1097,0.0 L1098,0.0 L1099,0.0 L1100,2.1072099696478683 L1101,0.0 L1102,0.0 L1103,0.0 L1104,0.0 L1105,3.2016701796465816 L1106,0.0 L1107,0.0 L1108,0.0 L1109,0.0 L1110,3.9797304306622854 L1111,0.0 L1112,0.0 L1113,0.0 L1114,0.0 L1115,0.0 L1116,0.0 L1117,0.0 L1118,0.0 L1119,0.0 L1120,0.0 L1121,0.0 L1122,0.0 L1123,0.0 L1124,0.0 L1125,0.0 L1126,0.0 L1127,0.0 L1128,0.0 L1129,0.0 L1130,2.1072099696478683 L1131,0.0 L1132,0.0 L1133,0.0 L1134,0.0 L1135,3.203304916138483 L1136,0.0 L1137,0.0 L1138,0.0 L1139,0.0 L1140,3.9429005411402938 L1141,0.0 L1142,0.0 L1143,0.0 L1144,0.0 L1145,2.716003343634799 L1146,0.0 L1147,0.0 L1148,0.0 L1149,0.0 L1150,0.0 L1151,0.0 L1152,0.0 L1153,0.0 L1154,0.0 L1155,0.0 L1156,0.0 L1157,0.0 L1158,0.0 L1159,0.0 L1160,2.1072099696478683 L1161,0.0 L1162,0.0 L1163,0.0 L1164,0.0 L1165,3.139249217571607 L1166,0.0 L1167,0.0 L1168,0.0 L1169,0.0 L1170,3.9444826721501687 L1171,0.0 L1172,0.0 L1173,0.0 L1174,0.0 L1175,0.0 L1176,0.0 L1177,0.0 L1178,0.0 L1179,0.0 L1180,2.722633922533812 L1181,0.0 L1182,0.0 L1183,0.0 L1184,0.0 L1185,0.0 L1186,0.0 L1187,0.0 L1188,0.0 L1189,0.0 L1190,2.1072099696478683 L1191,0.0 L1192,0.0 L1193,0.0 L1194,0.0 L1195,3.15896526038341 L1196,0.0 L1197,0.0 L1198,0.0 L1199,0.0 L1200,3.9507541815935037 L1201,0.0 L1202,0.0 L1203,0.0 L1204,0.0 L1205,0.0 L1206,0.0 L1207,0.0 L1208,0.0 L1209,0.0 L1210,0.0 L1211,0.0 L1212,0.0 L1213,0.0 L1214,0.0 L1215,2.722633922533812 L1216,0.0 L1217,0.0 L1218,0.0 L1219,0.0 L1220,2.1072099696478683 L1221,0.0 L1222,0.0 L1223,0.0 L1224,0.0 L1225,3.219060332448861 L1226,0.0 L1227,0.0 L1228,0.0 L1229,0.0 L1230,3.954628377507271 L1231,0.0 L1232,0.0 L1233,0.0 L1234,0.0 L1235,0.0 L1236,0.0 L1237,0.0 L1238,0.0 L1239,0.0 L1240,0.0 L1241,0.0 L1242,0.0 L1243,0.0 L1244,0.0 L1245,0.0 L1246,0.0 L1247,0.0 L1248,0.0 L1249,0.0 L1250,2.8169038393756605 L1251,0.0 L1252,0.0 L1253,0.0 L1254,0.0 L1255,3.2060158767633444 L1256,0.0 L1257,0.0 L1258,0.0 L1259,0.0 L1260,3.925105726809664 L1261,0.0 L1262,0.0 L1263,0.0 L1264,0.0 L1265,0.0 L1266,0.0 L1267,0.0 L1268,0.0 L1269,0.0 L1270,0.0 L1271,0.0 L1272,0.0 L1273,0.0 L1274,0.0 L1275,0.0 L1276,0.0 L1277,0.0 L1278,0.0 L1279,0.0 L1280,2.1072099696478683 L1281,0.0 L1282,0.0 L1283,0.0 L1284,0.0 L1285,3.3197304943302246 L1286,0.0 L1287,0.0 L1288,0.0 L1289,0.0 L1290,0.0 L1291,0.0 L1292,0.0 L1293,0.0 L1294,0.0 L1295,4.023663918197793 L1296,0.0 L1297,0.0 L1298,0.0 L1299,0.0 L1300,0.0 L1301,0.0 L1302,0.0 L1303,0.0 L1304,0.0 L1305,0.0 L1306,0.0 L1307,0.0 L1308,0.0 L1309,0.0 L1310,2.1072099696478683 L1311,0.0 L1312,0.0 L1313,0.0 L1314,0.0 L1315,3.1248301494138593 L1316,0.0 L1317,0.0 L1318,0.0 L1319,0.0 L1320,2.722633922533812 L1321,0.0 L1322,0.0 L1323,0.0 L1324,0.0 L1325,0.0 L1326,0.0 L1327,0.0 L1328,0.0 L1329,0.0 L1330,4.015694988526518 L1331,0.0 L1332,0.0 L1333,0.0 L1334,0.0 L1335,0.0 L1336,0.0 L1337,0.0 L1338,0.0 L1339,0.0 L1340,2.1072099696478683 L1341,0.0 L1342,0.0 L1343,0.0 L1344,0.0 L1345,3.1772478362556233 L1346,0.8450980400142568 L1347,0.0 L1348,0.0 L1349,0.0 L1350,0.0 L1351,0.0 L1352,0.0 L1353,0.0 L1354,0.0 L1355,2.722633922533812 L1356,0.0 L1357,0.0 L1358,0.0 L1359,0.0 L1360,0.0 L1361,0.0 L1362,0.0 L1363,0.0 L1364,0.0 L1365,4.008940661377087 L1366,0.0 L1367,0.0 L1368,0.0 L1369,0.0 L1370,2.1072099696478683 L1371,0.0 L1372,0.0 L1373,0.0 L1374,0.0 L1375,3.2211533219547053 L1376,0.7781512503836436 L1377,0.0 L1378,0.0 L1379,0.0 L1380,0.0 L1381,0.0 L1382,0.0 L1383,0.0 L1384,0.0 L1385,0.0 L1386,0.0 L1387,0.0 L1388,0.0 L1389,0.0 L1390,2.722633922533812 L1391,0.0 L1392,0.0 L1393,0.0 L1394,0.0 L1395,3.94527158150771 L1396,0.0 L1397,0.0 L1398,0.0 L1399,0.0 L1400,2.1072099696478683 L1401,0.0 L1402,0.0 L1403,0.0 L1404,0.0 L1405,3.2062860444124324 L1406,1.3424226808222062 L1407,0.0 L1408,0.0 L1409,0.0 L1410,0.0 L1411,0.0 L1412,0.0 L1413,0.0 L1414,0.0 L1415,0.0 L1416,0.0 L1417,0.0 L1418,0.0 L1419,0.0 L1420,0.0 L1421,0.0 L1422,0.0 L1423,0.0 L1424,0.0 L1425,2.722633922533812 L1426,0.0 L1427,0.0 L1428,0.0 L1429,0.0 L1430,4.015694988526518 L1431,0.0 L1432,0.0 L1433,0.0 L1434,0.0 L1435,3.1749315935284423 L1436,0.9542425094393249 L1437,0.0 L1438,0.0 L1439,0.0 L1440,0.0 L1441,0.0 L1442,0.0 L1443,0.0 L1444,0.0 L1445,0.0 L1446,0.0 L1447,0.0 L1448,0.0 L1449,0.0 L1450,2.1335389083702174 L1451,0.0 L1452,0.0 L1453,0.0 L1454,0.0 L1455,0.0 L1456,0.0 L1457,0.0 L1458,0.0 L1459,0.0 L1460,3.9742352774430265 L1461,0.0 L1462,0.0 L1463,0.0 L1464,0.0 L1465,3.1583624920952498 L1466,1.041392685158225 L1467,0.0 L1468,0.0 L1469,0.0 L1470,0.0 L1471,0.0 L1472,0.0 L1473,0.0 L1474,0.0 L1475,0.0 L1476,0.0 L1477,0.0 L1478,0.0 L1479,0.0 L1480,0.0 L1481,0.0 L1482,0.0 L1483,0.0 L1484,0.0 L1485,0.0 L1486,0.0 L1487,0.0 L1488,0.0 L1489,0.0 L1490,0.0 L1491,3.9671734229555398 L1492,0.0 L1493,0.0 L1494,0.0 L1495,0.0 L1496,3.1920095926536702 L1497,0.0 L1498,0.0 L1499,0.0 L1500,0.0 L1501,0.0 L1502,0.0 L1503,0.0 L1504,0.0 L1505,0.0 L1506,2.1072099696478683 L1507,0.0 L1508,0.0 L1509,0.0 L1510,0.0 L1511,0.0 L1512,0.0 L1513,0.0 L1514,0.0 L1515,0.0 L1516,0.0 L1517,0.0 L1518,0.0 L1519,0.0 L1520,0.0 L1521,3.961516011448949 L1522,0.0 L1523,0.0 L1524,0.0 L1525,0.0 L1526,3.433609843323718 L1527,0.0 L1528,0.0 L1529,0.0 L1530,0.0 L1531,0.0 L1532,0.0 L1533,0.0 L1534,0.0 L1535,0.0 L1536,0.0 L1537,0.0 L1538,0.0 L1539,0.0 L1540,0.0 L1541,0.0 L1542,0.0 L1543,0.0 L1544,0.0 L1545,0.0 L1546,0.0 L1547,0.0 L1548,0.0 L1549,0.0 L1550,0.0 L1551,3.9507541815935037 L1552,0.0 L1553,0.0 L1554,0.0 L1555,0.0 L1556,3.2397998184470986 L1557,0.0 L1558,0.0 L1559,0.0 L1560,0.0 L1561,2.7781512503836434 L1562,0.0 L1563,0.0 L1564,0.0 L1565,0.0 L1566,0.0 L1567,0.0 L1568,0.0 L1569,0.0 L1570,0.0 L1571,0.0 L1572,0.0 L1573,0.0 L1574,0.0 L1575,0.0 L1576,0.0 L1577,0.0 L1578,0.0 L1579,0.0 L1580,0.0 L1581,3.9275756546911107 L1582,0.0 L1583,0.0 L1584,0.0 L1585,0.0 L1586,3.081707270097349 L1587,0.0 L1588,0.0 L1589,0.0 L1590,0.0 L1591,0.0 L1592,0.0 L1593,0.0 L1594,0.0 L1595,0.0 L1596,2.7781512503836434 L1597,0.0 L1598,0.0 L1599,0.0 L1600,0.0 L1601,0.0 L1602,0.0 L1603,0.0 L1604,0.0 L1605,0.0 L1606,0.0 L1607,0.0 L1608,0.0 L1609,0.0 L1610,0.0 L1611,3.949194774237982 L1612,0.0 L1613,0.0 L1614,0.0 L1615,0.0 L1616,3.1832698436828046 L1617,0.0 L1618,0.0 L1619,0.0 L1620,0.0 L1621,0.0 L1622,0.0 L1623,0.0 L1624,0.0 L1625,0.0 L1626,0.0 L1627,0.0 L1628,0.0 L1629,0.0 L1630,0.0 L1631,2.7781512503836434 L1632,0.0 L1633,0.0 L1634,0.0 L1635,0.0 L1636,0.0 L1637,0.0 L1638,0.0 L1639,0.0 L1640,0.0 L1641,3.959232249050996 L1642,0.0 L1643,0.0 L1644,0.0 L1645,0.0 L1646,3.2271150825891253 L1647,0.0 L1648,0.0 L1649,0.0 L1650,0.0 L1651,0.0 L1652,0.0 L1653,0.0 L1654,0.0 L1655,0.0 L1656,0.0 L1657,0.0 L1658,0.0 L1659,0.0 L1660,0.0 L1661,0.0 L1662,0.0 L1663,0.0 L1664,0.0 L1665,0.0 L1666,2.7781512503836434 L1667,0.0 L1668,0.0 L1669,0.0 L1670,0.0 L1671,2.1072099696478683 L1672,0.0 L1673,0.0 L1674,0.0 L1675,0.0 L1676,4.073828284401109 L1677,0.0 L1678,0.0 L1679,0.0 L1680,0.0 L1681,0.0 L1682,0.0 L1683,0.0 L1684,0.0 L1685,0.0 L1686,0.0 L1687,0.0 L1688,0.0 L1689,0.0 L1690,0.0 L1691,0.0 L1692,0.0 L1693,0.0 L1694,0.0 L1695,0.0 L1696,0.0 L1697,0.0 L1698,0.0 L1699,0.0 L1700,0.0 L1701,2.866877814337499 L1702,0.0 L1703,0.0 L1704,0.0 L1705,0.0 L1706,4.007961033336183 L1707,0.0 L1708,0.0 L1709,0.0 L1710,0.0 L1711,0.0 L1712,0.0 L1713,0.0 L1714,0.0 L1715,0.0 L1716,0.0 L1717,0.0 L1718,0.0 L1719,0.0 L1720,0.0 L1721,0.0 L1722,0.0 L1723,0.0 L1724,0.0 L1725,0.0 L1726,0.0 L1727,0.0 L1728,0.0 L1729,0.0 L1730,0.0 L1731,2.1072099696478683 L1732,0.0 L1733,0.0 L1734,0.0 L1735,0.0 L1736,4.013721778051063 L1737,0.9030899869919435 L1738,0.0 L1739,0.0 L1740,0.0 L1741,0.0 L1742,0.0 L1743,0.0 L1744,0.0 L1745,0.0 L1746,0.0 L1747,0.0 L1748,0.0 L1749,0.0 L1750,0.0 L1751,0.0 L1752,0.0 L1753,0.0 L1754,0.0 L1755,0.0 L1756,0.0 L1757,0.0 L1758,0.0 L1759,0.0 L1760,0.0 L1761,2.1072099696478683 L1762,0.0 L1763,0.0 L1764,0.0 L1765,0.0 L1766,4.024977972095625 L1767,0.6989700043360189 L1768,0.0 L1769,0.0 L1770,0.0 L1771,2.783903579272735 L1772,0.0 L1773,0.0 L1774,0.0 L1775,0.0 L1776,0.0 L1777,0.0 L1778,0.0 L1779,0.0 L1780,0.0 L1781,0.0 L1782,0.0 L1783,0.0 L1784,0.0 L1785,0.0 L1786,0.0 L1787,0.0 L1788,0.0 L1789,0.0 L1790,0.0 L1791,2.1072099696478683 L1792,0.0 L1793,0.0 L1794,0.0 L1795,0.0 L1796,4.025633511060698 L1797,0.8450980400142568 L1798,0.0 L1799,0.0 L1800,0.0 L1801,0.0 L1802,0.0 L1803,0.0 L1804,0.0 L1805,0.0 L1806,2.783903579272735 L1807,0.0 L1808,0.0 L1809,0.0 L1810,0.0 L1811,0.0 L1812,0.0 L1813,0.0 L1814,0.0 L1815,0.0 L1816,0.0 L1817,0.0 L1818,0.0 L1819,0.0 L1820,0.0 L1821,2.1072099696478683 L1822,0.0 L1823,0.0 L1824,0.0 L1825,0.0 L1826,4.00552369267328 L1827,0.8450980400142568 L1828,0.0 L1829,0.0 L1830,0.0 L1831,0.0 L1832,0.0 L1833,0.0 L1834,0.0 L1835,0.0 L1836,0.0 L1837,0.0 L1838,0.0 L1839,0.0 L1840,0.0 L1841,2.783903579272735 L1842,0.0 L1843,0.0 L1844,0.0 L1845,0.0 L1846,0.0 L1847,0.0 L1848,0.0 L1849,0.0 L1850,0.0 L1851,2.1072099696478683 L1852,0.0 L1853,0.0 L1854,0.0 L1855,0.0 L1856,4.009960531470598 L1857,0.8450980400142568 L1858,0.0 L1859,0.0 L1860,0.0 L1861,0.0 L1862,0.0 L1863,0.0 L1864,0.0 L1865,0.0 L1866,0.0 L1867,0.0 L1868,0.0 L1869,0.0 L1870,0.0 L1871,0.0 L1872,0.0 L1873,0.0 L1874,0.0 L1875,0.0 L1876,2.783903579272735 L1877,0.0 L1878,0.0 L1879,0.0 L1880,0.0 L1881,2.1072099696478683 L1882,0.0 L1883,0.0 L1884,0.0 L1885,0.0 L1886,3.984077033902831 L1887,1.3424226808222062 L1888,0.0 L1889,0.0 L1890,0.0 L1891,0.0 L1892,0.0 L1893,0.0 L1894,0.0 L1895,0.0 L1896,0.0 L1897,0.0 L1898,0.0 L1899,0.0 L1900,0.0 L1901,0.0 L1902,0.0 L1903,0.0 L1904,0.0 L1905,0.0 L1906,0.0 L1907,0.0 L1908,0.0 L1909,0.0 L1910,0.0 L1911,2.866877814337499 L1912,0.0 L1913,0.0 L1914,0.0 L1915,0.0 L1916,4.0210238220315855 L1917,0.6989700043360189 L1918,0.0 L1919,0.0 L1920,0.0 L1921,0.0 L1922,0.0 L1923,0.0 L1924,0.0 L1925,0.0 L1926,0.0 L1927,0.0 L1928,0.0 L1929,0.0 L1930,0.0 L1931,0.0 L1932,0.0 L1933,0.0 L1934,0.0 L1935,0.0 L1936,0.0 L1937,0.0 L1938,0.0 L1939,0.0 L1940,0.0 L1941,2.1072099696478683 L1942,0.0 L1943,0.0 L1944,0.0 L1945,0.0 L1946,4.044539760392411 L1947,0.6989700043360189 L1948,0.0 L1949,0.0 L1950,0.0 L1951,0.0 L1952,0.0 L1953,0.0 L1954,0.0 L1955,0.0 L1956,0.0 L1957,0.0 L1958,0.0 L1959,0.0 L1960,0.0 L1961,0.0 L1962,0.0 L1963,0.0 L1964,0.0 L1965,0.0 L1966,0.0 L1967,0.0 L1968,0.0 L1969,0.0 L1970,0.0 L1971,0.0 L1972,2.1072099696478683 L1973,0.0 L1974,0.0 L1975,0.0 L1976,0.0 L1977,4.025592568851674 L1978,0.0 L1979,0.0 L1980,0.0 L1981,0.0 L1982,0.0 L1983,0.0 L1984,0.0 L1985,0.0 L1986,0.0 L1987,0.0 L1988,0.0 L1989,0.0 L1990,0.0 L1991,0.0 L1992,0.0 L1993,0.0 L1994,0.0 L1995,0.0 L1996,0.0 L1997,0.0 L1998,0.0 L1999,0.0 L2000,0.0 L2001,0.0 L2002,2.1072099696478683 L2003,0.0 L2004,0.0 L2005,0.0 L2006,0.0 L2007,4.017659274283765 L2008,0.0 L2009,0.0 L2010,0.0 L2011,0.0 L2012,2.741939077729199 L2013,0.0 L2014,0.0 L2015,0.0 L2016,0.0 L2017,0.0 L2018,0.0 L2019,0.0 L2020,0.0 L2021,0.0 L2022,0.0 L2023,0.0 L2024,0.0 L2025,0.0 L2026,0.0 L2027,0.0 L2028,0.0 L2029,0.0 L2030,0.0 L2031,0.0 L2032,2.1072099696478683 L2033,0.0 L2034,0.0 L2035,0.0 L2036,0.0 L2037,4.016406500871118 L2038,0.0 L2039,0.0 L2040,0.0 L2041,0.0 L2042,0.0 L2043,0.0 L2044,0.0 L2045,0.0 L2046,0.0 L2047,2.741939077729199 L2048,0.0 L2049,0.0 L2050,0.0 L2051,0.0 L2052,2.1335389083702174 L2053,0.0 L2054,0.0 L2055,0.0 L2056,0.0 L2057,0.0 L2058,0.0 L2059,0.0 L2060,0.0 L2061,0.0 L2062,2.1072099696478683 L2063,0.0 L2064,0.0 L2065,0.0 L2066,0.0 L2067,3.977128900580682 L2068,0.0 L2069,0.0 L2070,0.0 L2071,0.0 L2072,0.0 L2073,0.0 L2074,0.0 L2075,0.0 L2076,0.0 L2077,0.0 L2078,0.0 L2079,0.0 L2080,0.0 L2081,0.0 L2082,2.741939077729199 L2083,0.0 L2084,0.0 L2085,0.0 L2086,0.0 L2087,0.0 L2088,0.0 L2089,0.0 L2090,0.0 L2091,0.0 L2092,2.1072099696478683 L2093,0.0 L2094,0.0 L2095,0.0 L2096,0.0 L2097,4.007107382974057 L2098,0.0 L2099,0.0 L2100,0.0 L2101,0.0 L2102,0.0 L2103,0.0 L2104,0.0 L2105,0.0 L2106,0.0 L2107,0.0 L2108,0.0 L2109,0.0 L2110,0.0 L2111,0.0 L2112,0.0 L2113,0.0 L2114,0.0 L2115,0.0 L2116,0.0 L2117,2.741939077729199 L2118,0.0 L2119,0.0 L2120,0.0 L2121,0.0 L2122,2.1072099696478683 L2123,0.0 L2124,0.0 L2125,0.0 L2126,0.0 L2127,3.9986080293150943 L2128,0.9030899869919435 L2129,0.0 L2130,0.0 L2131,0.0 L2132,0.0 L2133,0.0 L2134,0.0 L2135,0.0 L2136,0.0 L2137,0.0 L2138,0.0 L2139,0.0 L2140,0.0 L2141,0.0 L2142,0.0 L2143,0.0 L2144,0.0 L2145,0.0 L2146,0.0 L2147,0.0 L2148,0.0 L2149,0.0 L2150,0.0 L2151,0.0 L2152,2.832508912706236 L2153,0.0 L2154,0.0 L2155,0.0 L2156,0.0 L2157,4.023663918197793 L2158,0.6989700043360189 L2159,0.0 L2160,0.0 L2161,0.0 L2162,0.0 L2163,0.0 L2164,0.0 L2165,0.0 L2166,0.0 L2167,0.0 L2168,0.0 L2169,0.0 L2170,0.0 L2171,0.0 L2172,0.0 L2173,0.0 L2174,0.0 L2175,0.0 L2176,0.0 L2177,0.0 L2178,0.0 L2179,0.0 L2180,0.0 L2181,0.0 L2182,2.1072099696478683 L2183,0.0 L2184,0.0 L2185,0.0 L2186,0.0 L2187,4.038858501559766 L2188,0.8450980400142568 L2189,0.0 L2190,0.0 L2191,0.0 L2192,0.0 L2193,0.0 L2194,0.0 L2195,0.0 L2196,0.0 L2197,3.5667909123815917 L2198,0.0 L2199,0.0 L2200,0.0 L2201,0.0 L2202,0.0 L2203,0.0 L2204,0.0 L2205,0.0 L2206,0.0 L2207,0.0 L2208,0.0 L2209,0.0 L2210,0.0 L2211,0.0 L2212,3.6989700043360187 L2213,0.0 L2214,0.0 L2215,0.0 L2216,0.0 L2217,0.0 L2218,0.8450980400142568 L2219,0.0 L2220,0.0 L2221,0.0 L2222,3.5816083660320577 L2223,0.0 L2224,0.0 L2225,0.0 L2226,0.0 L2227,0.0 L2228,0.0 L2229,0.0 L2230,0.0 L2231,0.0 L2232,3.5543680009900878 L2233,0.0 L2234,0.0 L2235,0.0 L2236,0.0 L2237,0.0 L2238,0.0 L2239,0.0 L2240,0.0 L2241,0.0 L2242,3.5591881890047756 L2243,0.0 L2244,0.0 L2245,0.0 L2246,0.0 L2247,0.0 L2248,0.6989700043360189 L2249,0.0 L2250,0.0 L2251,0.0 L2252,0.0 L2253,0.0 L2254,0.0 L2255,0.0 L2256,0.0 L2257,0.0 L2258,0.0 L2259,0.0 L2260,0.0 L2261,0.0 L2262,0.0 L2263,0.0 L2264,0.0 L2265,0.0 L2266,0.0 L2267,0.0 L2268,0.0 L2269,0.0 L2270,0.0 L2271,0.0 L2272,4.013005850015737 L2273,0.0 L2274,0.0 L2275,0.0 L2276,0.0 L2277,2.77232170672292 L2278,0.8450980400142568 L2279,0.0 L2280,0.0 L2281,0.0 L2282,0.0 L2283,0.0 L2284,0.0 L2285,0.0 L2286,0.0 L2287,3.7193312869837265 L2288,0.0 L2289,0.0 L2290,0.0 L2291,0.0 L2292,0.0 L2293,0.0 L2294,0.0 L2295,0.0 L2296,0.0 L2297,3.612359947967774 L2298,0.0 L2299,0.0 L2300,0.0 L2301,0.0 L2302,0.0 L2303,0.0 L2304,0.0 L2305,0.0 L2306,0.0 L2307,0.0 L2308,0.8450980400142568 L2309,0.0 L2310,0.0 L2311,0.0 L2312,3.742568034366142 L2313,0.0 L2314,0.0 L2315,0.0 L2316,0.0 L2317,0.0 L2318,0.0 L2319,0.0 L2320,0.0 L2321,0.0 L2322,0.0 L2323,0.0 L2324,0.0 L2325,0.0 L2326,0.0 L2327,0.0 L2328,0.0 L2329,0.0 L2330,0.0 L2331,0.0 L2332,0.0 L2333,0.0 L2334,0.0 L2335,0.0 L2336,0.0 L2337,3.9671734229555398 L2338,0.6989700043360189 L2339,0.0 L2340,0.0 L2341,0.0 L2342,0.0 L2343,0.0 L2344,0.0 L2345,0.0 L2346,0.0 L2347,0.0 L2348,0.0 L2349,0.0 L2350,0.0 L2351,0.0 L2352,0.0 L2353,0.0 L2354,0.0 L2355,0.0 L2356,0.0 L2357,3.8602181846687564 L2358,0.0 L2359,0.0 L2360,0.0 L2361,0.0 L2362,0.0 L2363,0.0 L2364,0.0 L2365,0.0 L2366,0.0 L2367,0.0 L2368,0.9030899869919435 L2369,0.0 L2370,0.0 L2371,0.0 L2372,3.7687860469080143 L2373,0.0 L2374,0.0 L2375,0.0 L2376,0.0 L2377,0.0 L2378,0.0 L2379,0.0 L2380,0.0 L2381,0.0 L2382,3.5514499979728753 L2383,0.0 L2384,0.0 L2385,0.0 L2386,0.0 L2387,0.0 L2388,0.0 L2389,0.0 L2390,0.0 L2391,0.0 L2392,0.0 L2393,0.0 L2394,0.0 L2395,0.0 L2396,0.0 L2397,3.7469454096151047 L2398,0.6989700043360189 L2399,0.0 L2400,0.0 L2401,0.0 L2402,0.0 L2403,0.0 L2404,0.0 L2405,0.0 L2406,0.0 L2407,0.0 L2408,3.584331224367531 L2409,0.0 L2410,0.0 L2411,0.0 L2412,0.0 L2413,0.0 L2414,0.0 L2415,0.0 L2416,0.0 L2417,0.0 L2418,3.6072405038317426 L2419,0.0 L2420,0.0 L2421,0.0 L2422,0.0 L2423,0.0 L2424,0.0 L2425,0.0 L2426,0.0 L2427,0.0 L2428,3.5833121519830775 L2429,0.0 L2430,0.0 L2431,0.0 L2432,0.0 L2433,0.0 L2434,0.0 L2435,0.0 L2436,0.0 L2437,0.0 L2438,0.0 L2439,0.0 L2440,0.0 L2441,0.0 L2442,0.0 L2443,3.7349597612724454 L2444,0.0 L2445,0.0 L2446,0.0 L2447,0.0 L2448,0.0 L2449,0.0 L2450,0.0 L2451,0.0 L2452,0.0 L2453,3.611510887126656 L2454,0.0 L2455,0.0 L2456,0.0 L2457,0.0 L2458,0.6989700043360189 L2459,0.0 L2460,0.0 L2461,0.0 L2462,0.0 L2463,3.5825178836040625 L2464,0.0 L2465,0.0 L2466,0.0 L2467,0.0 L2468,0.0 L2469,0.0 L2470,0.0 L2471,0.0 L2472,0.0 L2473,0.0 L2474,0.0 L2475,0.0 L2476,0.0 L2477,0.0 L2478,3.7506626461340558 L2479,0.0 L2480,0.0 L2481,0.0 L2482,0.0 L2483,3.3328422669943514 L2484,0.0 L2485,0.0 L2486,0.0 L2487,0.0 L2488,3.329397879361043 L2489,0.0 L2490,0.0 L2491,0.0 L2492,0.0 L2493,3.336059277866349 L2494,0.0 L2495,0.0 L2496,0.0 L2497,0.0 L2498,3.3096301674258988 L2499,0.0 L2500,0.0 L2501,0.0 L2502,0.0 L2503,3.321391278311689 L2504,0.0 L2505,0.0 L2506,0.0 L2507,0.0 L2508,0.0 L2509,0.0 L2510,0.0 L2511,0.0 L2512,0.0 L2513,0.0 L2514,0.0 L2515,0.0 L2516,0.0 L2517,0.0 L2518,3.7500453120117676 L2519,0.9030899869919435 L2520,0.0 L2521,0.0 L2522,0.0 L2523,0.0 L2524,0.0 L2525,0.0 L2526,0.0 L2527,0.0 L2528,3.6098077693287025 L2529,0.0 L2530,0.0 L2531,0.0 L2532,0.0 L2533,3.3180633349627615 L2534,0.0 L2535,0.0 L2536,0.0 L2537,0.0 L2538,0.0 L2539,0.0 L2540,0.0 L2541,0.0 L2542,0.0 L2543,3.5335178620169674 L2544,0.0 L2545,0.0 L2546,0.0 L2547,0.0 L2548,0.0 L2549,0.6989700043360189 L2550,0.0 L2551,0.0 L2552,0.0 L2553,3.5667909123815917 L2554,0.0 L2555,0.0 L2556,0.0 L2557,0.0 L2558,0.0 L2559,0.0 L2560,0.0 L2561,0.0 L2562,0.0 L2563,0.0 L2564,0.0 L2565,0.0 L2566,0.0 L2567,0.0 L2568,3.7573960287930244 L2569,0.0 L2570,0.0 L2571,0.0 L2572,0.0 L2573,0.0 L2574,0.0 L2575,0.0 L2576,0.0 L2577,0.0 L2578,3.591509808994654 L2579,0.6989700043360189 L2580,0.0 L2581,0.0 L2582,0.0 L2583,0.0 L2584,0.0 L2585,0.0 L2586,0.0 L2587,0.0 L2588,0.0 L2589,0.0 L2590,0.0 L2591,0.0 L2592,0.0 L2593,3.7259116322950483 L2594,0.0 L2595,0.0 L2596,0.0 L2597,0.0 L2598,0.0 L2599,0.0 L2600,0.0 L2601,0.0 L2602,0.0 L2603,0.0 L2604,0.0 L2605,0.0 L2606,0.0 L2607,0.0 L2608,0.0 L2609,0.9030899869919435 L2610,0.0 L2611,0.0 L2612,0.0 L2613,0.0 L2614,0.0 L2615,0.0 L2616,0.0 L2617,0.0 L2618,0.0 L2619,0.0 L2620,0.0 L2621,0.0 L2622,0.0 L2623,4.02530586526477 L2624,0.0 L2625,0.0 L2626,0.0 L2627,0.0 L2628,2.7895807121644256 L2629,0.0 L2630,0.0 L2631,0.0 L2632,0.0 L2633,0.0 L2634,0.0 L2635,0.0 L2636,0.0 L2637,0.0 L2638,3.73814608871206 L2639,1.041392685158225 L2640,0.0 L2641,0.0 L2642,0.0 L2643,0.0 L2644,0.0 L2645,0.0 L2646,0.0 L2647,0.0 L2648,3.603793704136963 L2649,0.0 L2650,0.0 L2651,0.0 L2652,0.0 L2653,0.0 L2654,0.0 L2655,0.0 L2656,0.0 L2657,0.0 L2658,3.57978359661681 L2659,0.0 L2660,0.0 L2661,0.0 L2662,0.0 L2663,0.0 L2664,0.0 L2665,0.0 L2666,0.0 L2667,0.0 L2668,0.0 L2669,2.08278537031645 L2670,0.0 L2671,0.0 L2672,0.0 L2673,0.0 L2674,0.0 L2675,0.0 L2676,0.0 L2677,0.0 L2678,0.0 L2679,0.0 L2680,0.0 L2681,0.0 L2682,0.0 L2683,0.0 L2684,0.0 L2685,0.0 L2686,0.0 L2687,0.0 L2688,4.010299956639812 L2689,0.0 L2690,0.0 L2691,0.0 L2692,0.0 L2693,2.73559889969818 L2694,0.0 L2695,0.0 L2696,0.0 L2697,0.0 L2698,0.0 L2699,0.6989700043360189 L2700,0.0 L2701,0.0 L2702,0.0 L2703,3.6797911709803546 L2704,0.0 L2705,0.0 L2706,0.0 L2707,0.0 L2708,0.0 L2709,0.0 L2710,0.0 L2711,0.0 L2712,0.0 L2713,0.0 L2714,0.0 L2715,0.0 L2716,0.0 L2717,0.0 L2718,0.0 L2719,0.0 L2720,0.0 L2721,0.0 L2722,0.0 L2723,0.0 L2724,0.0 L2725,0.0 L2726,0.0 L2727,0.0 L2728,3.9771746760201876 L2729,0.9030899869919435 L2730,0.0 L2731,0.0 L2732,0.0 L2733,0.0 L2734,0.0 L2735,0.0 L2736,0.0 L2737,0.0 L2738,3.5742628297070267 L2739,0.0 L2740,0.0 L2741,0.0 L2742,0.0 L2743,0.0 L2744,0.0 L2745,0.0 L2746,0.0 L2747,0.0 L2748,0.0 L2749,0.0 L2750,0.0 L2751,0.0 L2752,0.0 L2753,0.0 L2754,0.0 L2755,0.0 L2756,0.0 L2757,0.0 L2758,3.8573324964312685 L2759,0.7781512503836436 L2760,0.0 L2761,0.0 L2762,0.0 L2763,0.0 L2764,0.0 L2765,0.0 L2766,0.0 L2767,0.0 L2768,0.0 L2769,0.0 L2770,0.0 L2771,0.0 L2772,0.0 L2773,0.0 L2774,0.0 L2775,0.0 L2776,0.0 L2777,0.0 L2778,0.0 L2779,0.0 L2780,0.0 L2781,0.0 L2782,0.0 L2783,3.967547976218862 L2784,0.0 L2785,0.0 L2786,0.0 L2787,0.0 L2788,0.0 L2789,1.380211241711606 L2790,0.0 L2791,0.0 L2792,0.0 L2793,0.0 L2794,0.0 L2795,0.0 L2796,0.0 L2797,0.0 L2798,3.749427099121749 L2799,0.0 L2800,0.0 L2801,0.0 L2802,0.0 L2803,0.0 L2804,0.0 L2805,0.0 L2806,0.0 L2807,0.0 L2808,3.6055205234374688 L2809,0.0 L2810,0.0 L2811,0.0 L2812,0.0 L2813,0.0 L2814,0.0 L2815,0.0 L2816,0.0 L2817,0.0 L2818,3.5770319856260313 L2819,1.0 L2820,0.0 L2821,0.0 L2822,0.0 L2823,0.0 L2824,0.0 L2825,0.0 L2826,0.0 L2827,0.0 L2828,3.5724068675580556 L2829,0.0 L2830,0.0 L2831,0.0 L2832,0.0 L2833,0.0 L2834,0.0 L2835,0.0 L2836,0.0 L2837,0.0 L2838,0.0 L2839,0.0 L2840,0.0 L2841,0.0 L2842,0.0 L2843,3.7616271845615827 L2844,0.0 L2845,0.0 L2846,0.0 L2847,0.0 L2848,0.0 L2849,1.3979400086720377 L2850,0.0 L2851,0.0 L2852,0.0 L2853,0.0 L2854,0.0 L2855,0.0 L2856,0.0 L2857,0.0 L2858,0.0 L2859,0.0 L2860,0.0 L2861,0.0 L2862,0.0 L2863,3.8158432906632664 L2864,0.0 L2865,0.0 L2866,0.0 L2867,0.0 L2868,0.0 L2869,0.0 L2870,0.0 L2871,0.0 L2872,0.0 L2873,3.5733358400660675 L2874,0.0 L2875,0.0 L2876,0.0 L2877,0.0 L2878,3.3230457354817013 L2879,0.0 L2880,0.8450980400142568 L2881,0.0 L2882,0.0 L2883,3.3279716236230104 L2884,0.0 L2885,0.0 L2886,0.0 L2887,0.0 L2888,3.3163897510731952 L2889,0.0 L2890,0.0 L2891,0.0 L2892,0.0 L2893,3.2940250940953226 L2894,0.0 L2895,0.0 L2896,0.0 L2897,0.0 L2898,0.0 L2899,0.0 L2900,0.0 L2901,0.0 L2902,0.0 L2903,3.580696939712437 L2904,0.0 L2905,0.0 L2906,0.0 L2907,0.0 L2908,0.0 L2909,0.0 L2910,1.2041199826559248 L2911,0.0 L2912,0.0 L2913,0.0 L2914,0.0 L2915,0.0 L2916,0.0 L2917,0.0 L2918,0.0 L2919,3.746322765089953 L2920,0.0 L2921,0.0 L2922,0.0 L2923,0.0 L2924,3.2796669440484556 L2925,0.0 L2926,0.0 L2927,0.0 L2928,0.0 L2929,3.321391278311689 L2930,0.0 L2931,0.0 L2932,0.0 L2933,0.0 L2934,3.3079237036118814 L2935,0.0 L2936,0.0 L2937,0.0 L2938,0.0 L2939,3.285107029566812 L2940,2.294466226161593 L2941,0.0 L2942,0.0 L2943,0.0 L2944,3.268577971882843 L2945,0.0 L2946,0.0 L2947,0.0 L2948,0.0 L2949,3.3408405498123317 L2950,0.0 L2951,0.0 L2952,0.0 L2953,0.0 L2954,3.3279716236230104 L2955,0.0 L2956,0.0 L2957,0.0 L2958,0.0 L2959,3.3163897510731952 L2960,0.0 L2961,0.0 L2962,0.0 L2963,0.0 L2964,3.3392526340327 L2965,0.0 L2966,0.0 L2967,0.0 L2968,0.0 L2969,3.342422680822206 L2970,1.6020599913279625 L2971,0.0 L2972,0.0 L2973,0.0 L2974,3.3197304943302246 L2975,0.0 L2976,0.0 L2977,0.0 L2978,0.0 L2979,3.288696260590256 L2980,0.0 L2981,0.0 L2982,0.0 L2983,0.0 L2984,3.3062105081677613 L2985,0.0 L2986,0.0 L2987,0.0 L2988,0.0 L2989,0.0 L2990,0.0 L2991,0.0 L2992,0.0 L2993,0.0 L2994,3.589726256254237 L2995,0.0 L2996,0.0 L2997,0.0 L2998,0.0 L2999,0.0 L3000,1.041392685158225 L3001,0.0 L3002,0.0 L3003,0.0 L3004,0.0 L3005,0.0 L3006,0.0 L3007,0.0 L3008,0.0 L3009,3.7573960287930244 L3010,0.0 L3011,0.0 L3012,0.0 L3013,0.0 L3014,0.0 L3015,0.0 L3016,0.0 L3017,0.0 L3018,0.0 L3019,3.5770319856260313 L3020,0.0 L3021,0.0 L3022,0.0 L3023,0.0 L3024,3.2940250940953226 L3025,0.0 L3026,0.0 L3027,0.0 L3028,0.0 L3029,3.2127201544178425 L3030,2.0253058652647704 L3031,0.0 L3032,0.0 L3033,0.0 L3034,0.0 L3035,0.0 L3036,0.0 L3037,0.0 L3038,0.0 L3039,3.5852350633657752 L3040,0.0 L3041,0.0 L3042,0.0 L3043,0.0 L3044,3.3439990690571615 L3045,0.0 L3046,0.0 L3047,0.0 L3048,0.0 L3049,3.29928933408768 L3050,0.0 L3051,0.0 L3052,0.0 L3053,0.0 L3054,3.336059277866349 L3055,0.0 L3056,0.0 L3057,0.0 L3058,0.0 L3059,3.2796669440484556 L3060,0.6989700043360189 L3061,0.0 L3062,0.0 L3063,0.0 L3064,3.29928933408768 L3065,0.0 L3066,0.0 L3067,0.0 L3068,0.0 L3069,3.321391278311689 L3070,0.0 L3071,0.0 L3072,0.0 L3073,0.0 L3074,3.314709692955174 L3075,0.0 L3076,0.0 L3077,0.0 L3078,0.0 L3079,3.3062105081677613 L3080,0.0 L3081,0.0 L3082,0.0 L3083,0.0 L3084,3.3376588910261424 L3085,0.0 L3086,0.0 L3087,0.0 L3088,0.0 L3089,3.3197304943302246 L3090,0.8450980400142568 L3091,0.0 L3092,0.0 L3093,0.0 L3094,3.3279716236230104 L3095,0.0 L3096,0.0 L3097,0.0 L3098,0.0 L3099,3.2741578492636796 L3100,0.0 L3101,0.0 L3102,0.0 L3103,0.0 L3104,0.0 L3105,0.0 L3106,0.0 L3107,0.0 L3108,0.0 L3109,0.0 L3110,0.0 L3111,0.0 L3112,0.0 L3113,0.0 L3114,3.7506626461340558 L3115,0.0 L3116,0.0 L3117,0.0 L3118,0.0 L3119,0.0 L3120,0.9030899869919435 L3121,0.0 L3122,0.0 L3123,0.0 L3124,3.5816083660320577 L3125,0.0 L3126,0.0 L3127,0.0 L3128,0.0 L3129,3.3197304943302246 L3130,0.0 L3131,0.0 L3132,0.0 L3133,0.0 L3134,0.0 L3135,0.0 L3136,0.0 L3137,0.0 L3138,0.0 L3139,3.57611089412084 L3140,0.0 L3141,0.0 L3142,0.0 L3143,0.0 L3144,0.0 L3145,0.0 L3146,0.0 L3147,0.0 L3148,0.0 L3149,3.5834255004065065 L3150,0.9030899869919435 L3151,0.0 L3152,0.0 L3153,0.0 L3154,0.0 L3155,0.0 L3156,0.0 L3157,0.0 L3158,0.0 L3159,3.57611089412084 L3160,0.0 L3161,0.0 L3162,0.0 L3163,0.0 L3164,0.0 L3165,0.0 L3166,0.0 L3167,0.0 L3168,0.0 L3169,3.586137025230793 L3170,0.0 L3171,0.0 L3172,0.0 L3173,0.0 L3174,0.0 L3175,0.0 L3176,0.0 L3177,0.0 L3178,0.0 L3179,3.5667909123815917 L3180,0.8450980400142568 L3181,0.0 L3182,0.0 L3183,0.0 L3184,0.0 L3185,0.0 L3186,0.0 L3187,0.0 L3188,0.0 L3189,0.0 L3190,0.0 L3191,0.0 L3192,0.0 L3193,0.0 L3194,0.0 L3195,0.0 L3196,0.0 L3197,0.0 L3198,0.0 L3199,0.0 L3200,0.0 L3201,0.0 L3202,0.0 L3203,0.0 L3204,3.9401178667477184 L3205,0.0 L3206,0.0 L3207,0.0 L3208,0.0 L3209,0.0 L3210,0.8450980400142568 L3211,0.0 L3212,0.0 L3213,0.0 L3214,0.0 L3215,0.0 L3216,0.0 L3217,0.0 L3218,0.0 L3219,0.0 L3220,0.0 L3221,0.0 L3222,0.0 L3223,0.0 L3224,0.0 L3225,0.0 L3226,0.0 L3227,0.0 L3228,0.0 L3229,0.0 L3230,0.0 L3231,0.0 L3232,0.0 L3233,0.0 L3234,4.006551609086649 L3235,0.0 L3236,0.0 L3237,0.0 L3238,0.0 L3239,2.783903579272735 L3240,0.9542425094393249 L3241,0.0 L3242,0.0 L3243,0.0 L3244,0.0 L3245,0.0 L3246,0.0 L3247,0.0 L3248,0.0 L3249,2.204119982655925 L3250,0.0 L3251,0.0 L3252,0.0 L3253,0.0 L3254,0.0 L3255,0.0 L3256,0.0 L3257,0.0 L3258,0.0 L3259,0.0 L3260,0.0 L3261,0.0 L3262,0.0 L3263,0.0 L3264,4.015024263324626 L3265,0.0 L3266,0.0 L3267,0.0 L3268,0.0 L3269,0.0 L3270,0.0 L3271,1.041392685158225 L3272,0.0 L3273,0.0 L3274,2.783903579272735 L3275,0.0 L3276,0.0 L3277,0.0 L3278,0.0 L3279,0.0 L3280,0.0 L3281,0.0 L3282,0.0 L3283,0.0 L3284,0.0 L3285,0.0 L3286,0.0 L3287,0.0 L3288,0.0 L3289,0.0 L3290,0.0 L3291,0.0 L3292,0.0 L3293,0.0 L3294,4.011655010724778 L3295,0.0 L3296,0.0 L3297,0.0 L3298,0.0 L3299,0.0 L3300,0.0 L3301,2.012837224705172 L3302,0.0 L3303,0.0 L3304,0.0 L3305,0.0 L3306,0.0 L3307,0.0 L3308,0.0 L3309,2.783903579272735 L3310,0.0 L3311,0.0 L3312,0.0 L3313,0.0 L3314,0.0 L3315,0.0 L3316,0.0 L3317,0.0 L3318,0.0 L3319,0.0 L3320,0.0 L3321,0.0 L3322,0.0 L3323,0.0 L3324,4.00552369267328 L3325,0.0 L3326,0.0 L3327,0.0 L3328,0.0 L3329,0.0 L3330,0.0 L3331,0.6989700043360189 L3332,0.0 L3333,0.0 L3334,0.0 L3335,0.0 L3336,0.0 L3337,0.0 L3338,0.0 L3339,0.0 L3340,0.0 L3341,0.0 L3342,0.0 L3343,0.0 L3344,0.0 L3345,2.783903579272735 L3346,0.0 L3347,0.0 L3348,0.0 L3349,0.0 L3350,0.0 L3351,0.0 L3352,0.0 L3353,0.0 L3354,0.0 L3355,3.9797304306622854 L3356,0.0 L3357,0.0 L3358,0.0 L3359,0.0 L3360,0.0 L3361,0.9030899869919435 L3362,0.0 L3363,0.0 L3364,0.0 L3365,0.0 L3366,0.0 L3367,0.0 L3368,0.0 L3369,0.0 L3370,0.0 L3371,0.0 L3372,0.0 L3373,0.0 L3374,0.0 L3375,2.741939077729199 L3376,0.0 L3377,0.0 L3378,0.0 L3379,0.0 L3380,0.0 L3381,0.0 L3382,0.0 L3383,0.0 L3384,0.0 L3385,4.014688511872338 L3386,0.0 L3387,0.0 L3388,0.0 L3389,0.0 L3390,0.0 L3391,0.9030899869919435 L3392,0.0 L3393,0.0 L3394,0.0 L3395,0.0 L3396,0.0 L3397,0.0 L3398,0.0 L3399,0.0 L3400,0.0 L3401,0.0 L3402,0.0 L3403,0.0 L3404,0.0 L3405,0.0 L3406,0.0 L3407,0.0 L3408,0.0 L3409,0.0 L3410,2.741939077729199 L3411,0.0 L3412,0.0 L3413,0.0 L3414,0.0 L3415,4.014016229258364 L3416,0.0 L3417,0.0 L3418,0.0 L3419,0.0 L3420,0.0 L3421,0.9030899869919435 L3422,0.0 L3423,0.0 L3424,0.0 L3425,0.0 L3426,0.0 L3427,0.0 L3428,0.0 L3429,0.0 L3430,0.0 L3431,0.0 L3432,0.0 L3433,0.0 L3434,0.0 L3435,0.0 L3436,0.0 L3437,0.0 L3438,0.0 L3439,0.0 L3440,0.0 L3441,0.0 L3442,0.0 L3443,0.0 L3444,0.0 L3445,4.037585842826617 L3446,0.0 L3447,0.0 L3448,0.0 L3449,0.0 L3450,0.0 L3451,0.6989700043360189 L3452,0.0 L3453,0.0 L3454,0.0 L3455,0.0 L3456,0.0 L3457,0.0 L3458,0.0 L3459,0.0 L3460,0.0 L3461,0.0 L3462,0.0 L3463,0.0 L3464,0.0 L3465,0.0 L3466,0.0 L3467,0.0 L3468,0.0 L3469,0.0 L3470,0.0 L3471,0.0 L3472,0.0 L3473,0.0 L3474,0.0 L3475,4.00483706093831 L3476,0.0 L3477,0.0 L3478,0.0 L3479,0.0 L3480,2.741939077729199 L3481,0.6989700043360189 L3482,0.0 L3483,0.0 L3484,0.0 L3485,0.0 L3486,0.0 L3487,0.0 L3488,0.0 L3489,0.0 L3490,0.0 L3491,0.0 L3492,0.0 L3493,0.0 L3494,0.0 L3495,0.0 L3496,0.0 L3497,0.0 L3498,0.0 L3499,0.0 L3500,0.0 L3501,0.0 L3502,0.0 L3503,0.0 L3504,0.0 L3505,2.1072099696478683 L3506,0.0 L3507,0.0 L3508,0.0 L3509,0.0 L3510,4.069223957297052 L3511,0.9030899869919435 L3512,0.0 L3513,0.0 L3514,0.0 L3515,2.741939077729199 L3516,0.0 L3517,0.0 L3518,0.0 L3519,0.0 L3520,0.0 L3521,0.0 L3522,0.0 L3523,0.0 L3524,0.0 L3525,0.0 L3526,0.0 L3527,0.0 L3528,0.0 L3529,0.0 L3530,0.0 L3531,0.0 L3532,0.0 L3533,0.0 L3534,0.0 L3535,2.1072099696478683 L3536,0.0 L3537,0.0 L3538,0.0 L3539,0.0 L3540,3.1386184338994925 L3541,0.9030899869919435 L3542,0.0 L3543,0.0 L3544,0.0 L3545,3.9764416893788446 L3546,0.0 L3547,0.0 L3548,0.0 L3549,0.0 L3550,2.741939077729199 L3551,0.0 L3552,0.0 L3553,0.0 L3554,0.0 L3555,0.0 L3556,0.0 L3557,0.0 L3558,0.0 L3559,0.0 L3560,0.0 L3561,0.0 L3562,0.0 L3563,0.0 L3564,0.0 L3565,2.1072099696478683 L3566,0.0 L3567,0.0 L3568,0.0 L3569,0.0 L3570,3.2062860444124324 L3571,0.6989700043360189 L3572,0.0 L3573,0.0 L3574,0.0 L3575,0.0 L3576,0.0 L3577,0.0 L3578,0.0 L3579,0.0 L3580,4.00483706093831 L3581,0.0 L3582,0.0 L3583,0.0 L3584,0.0 L3585,2.741939077729199 L3586,0.0 L3587,0.0 L3588,0.0 L3589,0.0 L3590,0.0 L3591,0.0 L3592,0.0 L3593,0.0 L3594,0.0 L3595,2.1072099696478683 L3596,0.0 L3597,0.0 L3598,0.0 L3599,0.0 L3600,3.1818435879447726 L3601,0.6989700043360189 L3602,0.0 L3603,0.0 L3604,0.0 L3605,0.0 L3606,0.0 L3607,0.0 L3608,0.0 L3609,0.0 L3610,3.929214503737394 L3611,0.0 L3612,0.0 L3613,0.0 L3614,0.0 L3615,0.0 L3616,0.0 L3617,0.0 L3618,0.0 L3619,0.0 L3620,2.741939077729199 L3621,0.0 L3622,0.0 L3623,2.1072099696478683 L3624,0.0 L3625,0.0 L3626,0.0 L3627,0.0 L3628,0.0 L3629,0.0 L3630,3.0429690733931802 L3631,2.369215857410143 L3632,0.0 L3633,0.0 L3634,0.0 L3635,0.0 L3636,0.0 L3637,0.0 L3638,0.0 L3639,0.0 L3640,0.0 L3641,0.0 L3642,0.0 L3643,0.0 L3644,0.0 L3645,0.0 L3646,0.0 L3647,0.0 L3648,0.0 L3649,0.0 L3650,0.0 L3651,0.0 L3652,0.0 L3653,0.0 L3654,0.0 L3655,2.8715729355458786 L3656,0.0 L3657,0.0 L3658,0.0 L3659,0.0 L3660,0.0 L3661,1.505149978319906 L3662,1.1139433523068367 " style="vector-effect: non-scaling-stroke; stroke: #e85f00; stroke-width: 1; fill-opacity: 0" transform="scale(0.196614,-40.0)"/><path id="g5p3" d="M1,0.0 L2,0.0 L3,0.0 L4,0.0 L5,0.0 L6,0.0 L7,0.0 L8,0.0 L9,0.0 L10,0.0 L11,0.0 L12,0.0 L13,0.0 L14,0.0 L15,2.0170333392987803 L16,4.84628761706087 L17,4.445915413951123 L18,4.15642799231805 L19,2.959994838328416 L20,3.130976691605617 L21,0.0 L22,0.0 L23,0.0 L24,0.0 L25,0.0 L26,0.0 L27,0.0 L28,0.0 L29,0.0 L30,0.0 L31,0.0 L32,0.0 L33,0.0 L34,0.0 L35,0.0 L36,0.0 L37,0.0 L38,0.0 L39,0.0 L40,0.0 L41,0.0 L42,0.0 L43,0.0 L44,0.0 L45,0.0 L46,0.0 L47,3.2833012287035497 L48,0.0 L49,0.0 L50,0.0 L51,0.0 L52,0.0 L53,0.0 L54,0.0 L55,0.0 L56,0.0 L57,0.0 L58,0.0 L59,0.0 L60,0.0 L61,0.0 L62,0.0 L63,0.0 L64,0.0 L65,0.0 L66,0.0 L67,0.0 L68,0.0 L69,0.0 L70,0.0 L71,0.0 L72,0.0 L73,0.0 L74,0.0 L75,0.0 L76,0.0 L77,0.0 L78,0.0 L79,0.0 L80,0.0 L81,0.0 L82,0.0 L83,0.0 L84,0.0 L85,0.0 L86,0.0 L87,0.0 L88,0.0 L89,0.0 L90,0.0 L91,0.0 L92,0.0 L93,0.0 L94,0.0 L95,0.0 L96,0.0 L97,0.0 L98,0.0 L99,0.0 L100,0.0 L101,0.0 L102,0.0 L103,0.0 L104,0.0 L105,0.0 L106,0.0 L107,0.0 L108,0.0 L109,0.0 L110,0.0 L111,0.0 L112,0.0 L113,0.0 L114,0.0 L115,0.0 L116,0.0 L117,0.0 L118,0.0 L119,0.0 L120,0.0 L121,0.0 L122,0.0 L123,0.0 L124,0.0 L125,0.0 L126,0.0 L127,0.0 L128,0.0 L129,0.0 L130,0.0 L131,0.0 L132,0.0 L133,0.0 L134,0.0 L135,0.0 L136,0.0 L137,0.0 L138,0.0 L139,0.0 L140,0.0 L141,0.0 L142,0.0 L143,0.0 L144,0.0 L145,0.0 L146,0.0 L147,0.0 L148,0.0 L149,0.0 L150,0.0 L151,0.0 L152,0.0 L153,0.0 L154,0.0 L155,0.0 L156,0.0 L157,0.0 L158,0.0 L159,0.0 L160,0.0 L161,0.0 L162,0.0 L163,0.0 L164,0.0 L165,0.0 L166,0.0 L167,0.0 L168,0.0 L169,0.0 L170,0.0 L171,0.0 L172,0.0 L173,0.0 L174,0.0 L175,0.0 L176,0.0 L177,0.0 L178,0.0 L179,0.0 L180,0.0 L181,0.0 L182,0.0 L183,0.0 L184,0.0 L185,0.0 L186,0.0 L187,0.0 L188,0.0 L189,0.0 L190,0.0 L191,0.0 L192,0.0 L193,0.0 L194,0.0 L195,0.0 L196,0.0 L197,0.0 L198,0.0 L199,0.0 L200,0.0 L201,0.0 L202,0.0 L203,0.0 L204,0.0 L205,0.0 L206,0.0 L207,0.0 L208,0.0 L209,0.0 L210,0.0 L211,0.0 L212,0.0 L213,0.0 L214,0.0 L215,0.0 L216,0.0 L217,0.0 L218,0.0 L219,0.0 L220,0.0 L221,0.0 L222,0.0 L223,0.0 L224,0.0 L225,0.0 L226,0.0 L227,0.0 L228,0.0 L229,0.0 L230,0.0 L231,0.0 L232,0.0 L233,0.0 L234,0.0 L235,0.0 L236,0.0 L237,0.0 L238,0.0 L239,0.0 L240,0.0 L241,0.0 L242,0.0 L243,0.0 L244,0.0 L245,0.0 L246,0.0 L247,0.0 L248,0.0 L249,0.0 L250,0.0 L251,0.0 L252,0.0 L253,0.0 L254,0.0 L255,0.0 L256,0.0 L257,0.0 L258,0.0 L259,0.0 L260,0.0 L261,0.0 L262,0.0 L263,0.0 L264,0.0 L265,0.0 L266,0.0 L267,0.0 L268,0.0 L269,0.0 L270,0.0 L271,0.0 L272,0.0 L273,0.0 L274,0.0 L275,0.0 L276,0.0 L277,0.0 L278,0.0 L279,0.0 L280,0.0 L281,0.0 L282,0.0 L283,0.0 L284,0.0 L285,0.0 L286,0.0 L287,0.0 L288,0.0 L289,0.0 L290,0.0 L291,0.0 L292,0.0 L293,0.0 L294,0.0 L295,0.0 L296,0.0 L297,0.0 L298,0.0 L299,0.0 L300,0.0 L301,0.0 L302,0.0 L303,0.0 L304,0.0 L305,0.0 L306,0.0 L307,0.0 L308,0.0 L309,0.0 L310,0.0 L311,0.0 L312,0.0 L313,0.0 L314,0.0 L315,0.0 L316,0.0 L317,0.0 L318,0.0 L319,0.0 L320,0.0 L321,0.0 L322,0.0 L323,0.0 L324,0.0 L325,0.0 L326,0.0 L327,0.0 L328,0.0 L329,0.0 L330,0.0 L331,0.0 L332,0.0 L333,0.0 L334,0.0 L335,0.0 L336,0.0 L337,0.0 L338,0.0 L339,0.0 L340,0.0 L341,0.0 L342,0.0 L343,0.0 L344,0.0 L345,0.0 L346,0.0 L347,0.0 L348,0.0 L349,0.0 L350,0.0 L351,0.0 L352,0.0 L353,0.0 L354,0.0 L355,0.0 L356,0.0 L357,0.0 L358,0.0 L359,0.0 L360,0.0 L361,0.0 L362,0.0 L363,0.0 L364,0.0 L365,0.0 L366,0.0 L367,0.0 L368,0.0 L369,0.0 L370,0.0 L371,0.0 L372,0.0 L373,0.0 L374,0.0 L375,0.0 L376,0.0 L377,0.0 L378,0.0 L379,0.0 L380,0.0 L381,0.0 L382,0.0 L383,0.0 L384,0.0 L385,0.0 L386,0.0 L387,0.0 L388,0.0 L389,0.0 L390,0.0 L391,0.0 L392,0.0 L393,0.0 L394,0.0 L395,0.0 L396,0.0 L397,0.0 L398,0.0 L399,0.0 L400,0.0 L401,0.0 L402,0.0 L403,0.0 L404,0.0 L405,0.0 L406,0.0 L407,0.0 L408,0.0 L409,0.0 L410,0.0 L411,0.0 L412,0.0 L413,0.0 L414,0.0 L415,0.0 L416,0.0 L417,0.0 L418,0.0 L419,0.0 L420,0.0 L421,0.0 L422,0.0 L423,0.0 L424,0.0 L425,0.0 L426,0.0 L427,0.0 L428,0.0 L429,0.0 L430,0.0 L431,0.0 L432,0.0 L433,0.0 L434,0.0 L435,0.0 L436,0.0 L437,0.0 L438,0.0 L439,0.0 L440,0.0 L441,0.0 L442,0.0 L443,0.0 L444,0.0 L445,0.0 L446,0.0 L447,0.0 L448,0.0 L449,0.0 L450,0.0 L451,0.0 L452,0.0 L453,0.0 L454,0.0 L455,0.0 L456,0.0 L457,0.0 L458,0.0 L459,0.0 L460,0.0 L461,0.0 L462,0.0 L463,0.0 L464,0.0 L465,0.0 L466,0.0 L467,0.0 L468,0.0 L469,0.0 L470,0.0 L471,0.0 L472,0.0 L473,0.0 L474,0.0 L475,0.0 L476,0.0 L477,0.0 L478,0.0 L479,0.0 L480,0.0 L481,0.0 L482,0.0 L483,0.0 L484,0.0 L485,0.0 L486,0.0 L487,0.0 L488,0.0 L489,0.0 L490,0.0 L491,0.0 L492,0.0 L493,0.0 L494,0.0 L495,0.0 L496,0.0 L497,0.0 L498,0.0 L499,0.0 L500,0.0 L501,0.0 L502,0.0 L503,0.0 L504,0.0 L505,0.0 L506,0.0 L507,0.0 L508,0.0 L509,0.0 L510,0.0 L511,0.0 L512,0.0 L513,0.0 L514,0.0 L515,0.0 L516,0.0 L517,0.0 L518,0.0 L519,0.0 L520,0.0 L521,0.0 L522,0.0 L523,0.0 L524,0.0 L525,0.0 L526,0.0 L527,0.0 L528,0.0 L529,0.0 L530,0.0 L531,0.0 L532,0.0 L533,0.0 L534,0.0 L535,0.0 L536,0.0 L537,0.0 L538,0.0 L539,0.0 L540,0.0 L541,0.0 L542,0.0 L543,0.0 L544,0.0 L545,0.0 L546,0.0 L547,0.0 L548,0.0 L549,0.0 L550,0.0 L551,0.0 L552,0.0 L553,0.0 L554,0.0 L555,0.0 L556,0.0 L557,0.0 L558,0.0 L559,0.0 L560,0.0 L561,0.0 L562,0.0 L563,0.0 L564,0.0 L565,0.0 L566,0.0 L567,0.0 L568,0.0 L569,0.0 L570,0.0 L571,0.0 L572,0.0 L573,0.0 L574,0.0 L575,0.0 L576,0.0 L577,0.0 L578,0.0 L579,0.0 L580,0.0 L581,0.0 L582,0.0 L583,0.0 L584,0.0 L585,0.0 L586,0.0 L587,0.0 L588,0.0 L589,0.0 L590,0.0 L591,0.0 L592,0.0 L593,0.0 L594,0.0 L595,0.0 L596,0.0 L597,0.0 L598,0.0 L599,0.0 L600,0.0 L601,0.0 L602,0.0 L603,0.0 L604,0.0 L605,0.0 L606,0.0 L607,0.0 L608,0.0 L609,0.0 L610,0.0 L611,0.0 L612,0.0 L613,0.0 L614,0.0 L615,0.0 L616,0.0 L617,0.0 L618,0.0 L619,0.0 L620,0.0 L621,0.0 L622,0.0 L623,0.0 L624,0.0 L625,0.0 L626,0.0 L627,0.0 L628,0.0 L629,0.0 L630,0.0 L631,0.0 L632,0.0 L633,0.0 L634,0.0 L635,0.0 L636,0.0 L637,0.0 L638,0.0 L639,0.0 L640,0.0 L641,0.0 L642,0.0 L643,0.0 L644,0.0 L645,0.0 L646,0.0 L647,0.0 L648,0.0 L649,0.0 L650,0.0 L651,0.0 L652,0.0 L653,0.0 L654,0.0 L655,0.0 L656,0.0 L657,0.0 L658,0.0 L659,0.0 L660,0.0 L661,0.0 L662,0.0 L663,0.0 L664,0.0 L665,0.0 L666,0.0 L667,0.0 L668,0.0 L669,0.0 L670,0.0 L671,0.0 L672,0.0 L673,0.0 L674,0.0 L675,0.0 L676,0.0 L677,0.0 L678,0.0 L679,0.0 L680,0.0 L681,0.0 L682,0.0 L683,0.0 L684,0.0 L685,0.0 L686,0.0 L687,0.0 L688,0.0 L689,0.0 L690,0.0 L691,0.0 L692,0.0 L693,0.0 L694,0.0 L695,0.0 L696,0.0 L697,0.0 L698,0.0 L699,0.0 L700,0.0 L701,0.0 L702,0.0 L703,0.0 L704,0.0 L705,0.0 L706,0.0 L707,0.0 L708,0.0 L709,0.0 L710,0.0 L711,0.0 L712,0.0 L713,0.0 L714,0.0 L715,0.0 L716,0.0 L717,0.0 L718,0.0 L719,0.0 L720,0.0 L721,0.0 L722,0.0 L723,0.0 L724,0.0 L725,0.0 L726,0.0 L727,0.0 L728,0.0 L729,0.0 L730,0.0 L731,0.0 L732,0.0 L733,0.0 L734,0.0 L735,0.0 L736,0.0 L737,0.0 L738,0.0 L739,0.0 L740,0.0 L741,0.0 L742,0.0 L743,0.0 L744,0.0 L745,0.0 L746,0.0 L747,0.0 L748,0.0 L749,0.0 L750,0.0 L751,0.0 L752,0.0 L753,0.0 L754,0.0 L755,0.0 L756,0.0 L757,0.0 L758,0.0 L759,0.0 L760,0.0 L761,0.0 L762,0.0 L763,0.0 L764,0.0 L765,0.0 L766,0.0 L767,0.0 L768,0.0 L769,0.0 L770,0.0 L771,0.0 L772,0.0 L773,0.0 L774,0.0 L775,0.0 L776,0.0 L777,0.0 L778,0.0 L779,0.0 L780,0.0 L781,0.0 L782,0.0 L783,0.0 L784,0.0 L785,0.0 L786,0.0 L787,0.0 L788,0.0 L789,0.0 L790,0.0 L791,0.0 L792,0.0 L793,0.0 L794,0.0 L795,0.0 L796,0.0 L797,0.0 L798,0.0 L799,0.0 L800,0.0 L801,0.0 L802,0.0 L803,0.0 L804,0.0 L805,0.0 L806,0.0 L807,0.0 L808,0.0 L809,0.0 L810,0.0 L811,0.0 L812,0.0 L813,0.0 L814,0.0 L815,0.0 L816,0.0 L817,0.0 L818,0.0 L819,0.0 L820,0.0 L821,0.0 L822,0.0 L823,0.0 L824,0.0 L825,0.0 L826,0.0 L827,0.0 L828,0.0 L829,0.0 L830,0.0 L831,0.0 L832,0.0 L833,0.0 L834,0.0 L835,0.0 L836,0.0 L837,0.0 L838,0.0 L839,0.0 L840,0.0 L841,0.0 L842,0.0 L843,0.0 L844,0.0 L845,0.0 L846,0.0 L847,0.0 L848,0.0 L849,0.0 L850,0.0 L851,0.0 L852,0.0 L853,0.0 L854,0.0 L855,0.0 L856,0.0 L857,0.0 L858,0.0 L859,0.0 L860,0.0 L861,0.0 L862,0.0 L863,0.0 L864,0.0 L865,0.0 L866,0.0 L867,0.0 L868,0.0 L869,0.0 L870,0.0 L871,0.0 L872,0.0 L873,0.0 L874,0.0 L875,0.0 L876,0.0 L877,0.0 L878,0.0 L879,0.0 L880,0.0 L881,0.0 L882,0.0 L883,0.0 L884,0.0 L885,0.0 L886,0.0 L887,0.0 L888,0.0 L889,0.0 L890,0.0 L891,0.0 L892,0.0 L893,0.0 L894,0.0 L895,0.0 L896,0.0 L897,0.0 L898,0.0 L899,0.0 L900,0.0 L901,0.0 L902,0.0 L903,0.0 L904,0.0 L905,0.0 L906,0.0 L907,0.0 L908,0.0 L909,0.0 L910,0.0 L911,0.0 L912,0.0 L913,0.0 L914,0.0 L915,0.0 L916,0.0 L917,0.0 L918,0.0 L919,0.0 L920,0.0 L921,0.0 L922,0.0 L923,0.0 L924,0.0 L925,0.0 L926,0.0 L927,0.0 L928,0.0 L929,0.0 L930,0.0 L931,0.0 L932,0.0 L933,0.0 L934,0.0 L935,0.0 L936,0.0 L937,0.0 L938,0.0 L939,0.0 L940,0.0 L941,0.0 L942,0.0 L943,0.0 L944,0.0 L945,0.0 L946,0.0 L947,0.0 L948,0.0 L949,0.0 L950,0.0 L951,0.0 L952,0.0 L953,0.0 L954,0.0 L955,0.0 L956,0.0 L957,0.0 L958,0.0 L959,0.0 L960,0.0 L961,0.0 L962,0.0 L963,0.0 L964,0.0 L965,0.0 L966,0.0 L967,0.0 L968,0.0 L969,0.0 L970,0.0 L971,0.0 L972,0.0 L973,0.0 L974,0.0 L975,0.0 L976,0.0 L977,0.0 L978,0.0 L979,0.0 L980,0.0 L981,0.0 L982,0.0 L983,0.0 L984,0.0 L985,0.0 L986,0.0 L987,0.0 L988,0.0 L989,0.0 L990,0.0 L991,0.0 L992,0.0 L993,0.0 L994,0.0 L995,0.0 L996,0.0 L997,0.0 L998,0.0 L999,0.0 L1000,0.0 L1001,0.0 L1002,0.0 L1003,0.0 L1004,0.0 L1005,0.0 L1006,0.0 L1007,0.0 L1008,0.0 L1009,0.0 L1010,0.0 L1011,0.0 L1012,0.0 L1013,0.0 L1014,0.0 L1015,0.0 L1016,0.0 L1017,0.0 L1018,0.0 L1019,0.0 L1020,0.0 L1021,0.0 L1022,0.0 L1023,0.0 L1024,0.0 L1025,0.0 L1026,0.0 L1027,0.0 L1028,0.0 L1029,0.0 L1030,0.0 L1031,0.0 L1032,0.0 L1033,0.0 L1034,0.0 L1035,0.0 L1036,0.0 L1037,0.0 L1038,0.0 L1039,0.0 L1040,0.0 L1041,0.0 L1042,0.0 L1043,0.0 L1044,0.0 L1045,0.0 L1046,0.0 L1047,0.0 L1048,0.0 L1049,0.0 L1050,0.0 L1051,0.0 L1052,0.0 L1053,0.0 L1054,0.0 L1055,0.0 L1056,0.0 L1057,0.0 L1058,0.0 L1059,0.0 L1060,0.0 L1061,0.0 L1062,0.0 L1063,0.0 L1064,0.0 L1065,0.0 L1066,0.0 L1067,0.0 L1068,0.0 L1069,0.0 L1070,0.0 L1071,0.0 L1072,0.0 L1073,0.0 L1074,0.0 L1075,0.0 L1076,0.0 L1077,0.0 L1078,0.0 L1079,0.0 L1080,0.0 L1081,0.0 L1082,0.0 L1083,0.0 L1084,0.0 L1085,0.0 L1086,0.0 L1087,0.0 L1088,0.0 L1089,0.0 L1090,0.0 L1091,0.0 L1092,0.0 L1093,0.0 L1094,0.0 L1095,0.0 L1096,0.0 L1097,0.0 L1098,0.0 L1099,0.0 L1100,0.0 L1101,0.0 L1102,0.0 L1103,0.0 L1104,0.0 L1105,0.0 L1106,0.0 L1107,0.0 L1108,0.0 L1109,0.0 L1110,0.0 L1111,0.0 L1112,0.0 L1113,0.0 L1114,0.0 L1115,0.0 L1116,0.0 L1117,0.0 L1118,0.0 L1119,0.0 L1120,0.0 L1121,0.0 L1122,0.0 L1123,0.0 L1124,0.0 L1125,0.0 L1126,0.0 L1127,0.0 L1128,0.0 L1129,0.0 L1130,0.0 L1131,0.0 L1132,0.0 L1133,0.0 L1134,0.0 L1135,0.0 L1136,0.0 L1137,0.0 L1138,0.0 L1139,0.0 L1140,0.0 L1141,0.0 L1142,0.0 L1143,0.0 L1144,0.0 L1145,0.0 L1146,0.0 L1147,0.0 L1148,0.0 L1149,0.0 L1150,0.0 L1151,0.0 L1152,0.0 L1153,0.0 L1154,0.0 L1155,0.0 L1156,0.0 L1157,0.0 L1158,0.0 L1159,0.0 L1160,0.0 L1161,0.0 L1162,0.0 L1163,0.0 L1164,0.0 L1165,0.0 L1166,0.0 L1167,0.0 L1168,0.0 L1169,0.0 L1170,0.0 L1171,0.0 L1172,0.0 L1173,0.0 L1174,0.0 L1175,0.0 L1176,0.0 L1177,0.0 L1178,0.0 L1179,0.0 L1180,0.0 L1181,0.0 L1182,0.0 L1183,0.0 L1184,0.0 L1185,0.0 L1186,0.0 L1187,0.0 L1188,0.0 L1189,0.0 L1190,0.0 L1191,0.0 L1192,0.0 L1193,0.0 L1194,0.0 L1195,0.0 L1196,0.0 L1197,0.0 L1198,0.0 L1199,0.0 L1200,0.0 L1201,0.0 L1202,0.0 L1203,0.0 L1204,0.0 L1205,0.0 L1206,0.0 L1207,0.0 L1208,0.0 L1209,0.0 L1210,0.0 L1211,0.0 L1212,0.0 L1213,0.0 L1214,0.0 L1215,0.0 L1216,0.0 L1217,0.0 L1218,0.0 L1219,0.0 L1220,0.0 L1221,0.0 L1222,0.0 L1223,0.0 L1224,0.0 L1225,0.0 L1226,0.0 L1227,0.0 L1228,0.0 L1229,0.0 L1230,0.0 L1231,0.0 L1232,0.0 L1233,0.0 L1234,0.0 L1235,0.0 L1236,0.0 L1237,0.0 L1238,0.0 L1239,0.0 L1240,0.0 L1241,0.0 L1242,0.0 L1243,0.0 L1244,0.0 L1245,0.0 L1246,0.0 L1247,0.0 L1248,0.0 L1249,0.0 L1250,0.0 L1251,0.0 L1252,0.0 L1253,0.0 L1254,0.0 L1255,0.0 L1256,0.0 L1257,0.0 L1258,0.0 L1259,0.0 L1260,0.0 L1261,0.0 L1262,0.0 L1263,0.0 L1264,0.0 L1265,0.0 L1266,0.0 L1267,0.0 L1268,0.0 L1269,0.0 L1270,0.0 L1271,0.0 L1272,0.0 L1273,0.0 L1274,0.0 L1275,0.0 L1276,0.0 L1277,0.0 L1278,0.0 L1279,0.0 L1280,0.0 L1281,0.0 L1282,0.0 L1283,0.0 L1284,0.0 L1285,0.0 L1286,0.0 L1287,0.0 L1288,0.0 L1289,0.0 L1290,0.0 L1291,0.0 L1292,0.0 L1293,0.0 L1294,0.0 L1295,0.0 L1296,0.0 L1297,0.0 L1298,0.0 L1299,0.0 L1300,0.0 L1301,0.0 L1302,0.0 L1303,0.0 L1304,0.0 L1305,0.0 L1306,0.0 L1307,0.0 L1308,0.0 L1309,0.0 L1310,0.0 L1311,0.0 L1312,0.0 L1313,0.0 L1314,0.0 L1315,0.0 L1316,0.0 L1317,0.0 L1318,0.0 L1319,0.0 L1320,0.0 L1321,0.0 L1322,0.0 L1323,0.0 L1324,0.0 L1325,0.0 L1326,0.0 L1327,0.0 L1328,0.0 L1329,0.0 L1330,0.0 L1331,0.0 L1332,0.0 L1333,0.0 L1334,0.0 L1335,0.0 L1336,0.0 L1337,0.0 L1338,0.0 L1339,0.0 L1340,0.0 L1341,0.0 L1342,0.0 L1343,0.0 L1344,0.0 L1345,0.0 L1346,0.0 L1347,0.0 L1348,0.0 L1349,0.0 L1350,0.0 L1351,0.0 L1352,0.0 L1353,0.0 L1354,0.0 L1355,0.0 L1356,0.0 L1357,0.0 L1358,0.0 L1359,0.0 L1360,0.0 L1361,0.0 L1362,0.0 L1363,0.0 L1364,0.0 L1365,0.0 L1366,0.0 L1367,0.0 L1368,0.0 L1369,0.0 L1370,0.0 L1371,0.0 L1372,0.0 L1373,0.0 L1374,0.0 L1375,0.0 L1376,0.0 L1377,0.0 L1378,0.0 L1379,0.0 L1380,0.0 L1381,0.0 L1382,0.0 L1383,0.0 L1384,0.0 L1385,0.0 L1386,0.0 L1387,0.0 L1388,0.0 L1389,0.0 L1390,0.0 L1391,0.0 L1392,0.0 L1393,0.0 L1394,0.0 L1395,0.0 L1396,0.0 L1397,0.0 L1398,0.0 L1399,0.0 L1400,0.0 L1401,0.0 L1402,0.0 L1403,0.0 L1404,0.0 L1405,0.0 L1406,0.0 L1407,0.0 L1408,0.0 L1409,0.0 L1410,0.0 L1411,0.0 L1412,0.0 L1413,0.0 L1414,0.0 L1415,0.0 L1416,0.0 L1417,0.0 L1418,0.0 L1419,0.0 L1420,0.0 L1421,0.0 L1422,0.0 L1423,0.0 L1424,0.0 L1425,0.0 L1426,0.0 L1427,0.0 L1428,0.0 L1429,0.0 L1430,0.0 L1431,0.0 L1432,0.0 L1433,0.0 L1434,0.0 L1435,0.0 L1436,0.0 L1437,0.0 L1438,0.0 L1439,0.0 L1440,0.0 L1441,0.0 L1442,0.0 L1443,0.0 L1444,0.0 L1445,0.0 L1446,0.0 L1447,0.0 L1448,0.0 L1449,0.0 L1450,0.0 L1451,0.0 L1452,0.0 L1453,0.0 L1454,0.0 L1455,0.0 L1456,0.0 L1457,0.0 L1458,0.0 L1459,0.0 L1460,0.0 L1461,0.0 L1462,0.0 L1463,0.0 L1464,0.0 L1465,0.0 L1466,0.0 L1467,0.0 L1468,0.0 L1469,0.0 L1470,0.0 L1471,0.0 L1472,2.806179973983887 L1473,0.0 L1474,0.0 L1475,0.0 L1476,0.0 L1477,0.0 L1478,0.0 L1479,0.0 L1480,0.0 L1481,0.0 L1482,0.0 L1483,0.0 L1484,0.0 L1485,0.0 L1486,0.0 L1487,0.0 L1488,0.0 L1489,0.0 L1490,0.0 L1491,0.0 L1492,0.0 L1493,0.0 L1494,0.0 L1495,0.0 L1496,0.0 L1497,0.0 L1498,0.0 L1499,0.0 L1500,0.0 L1501,0.0 L1502,0.0 L1503,0.0 L1504,0.0 L1505,0.0 L1506,0.0 L1507,0.0 L1508,0.0 L1509,0.0 L1510,0.0 L1511,0.0 L1512,0.0 L1513,0.0 L1514,0.0 L1515,0.0 L1516,0.0 L1517,0.0 L1518,0.0 L1519,0.0 L1520,0.0 L1521,0.0 L1522,0.0 L1523,0.0 L1524,0.0 L1525,0.0 L1526,0.0 L1527,0.0 L1528,0.0 L1529,0.0 L1530,0.0 L1531,0.0 L1532,0.0 L1533,0.0 L1534,0.0 L1535,0.0 L1536,0.0 L1537,0.0 L1538,0.0 L1539,0.0 L1540,0.0 L1541,0.0 L1542,0.0 L1543,0.0 L1544,0.0 L1545,0.0 L1546,0.0 L1547,0.0 L1548,0.0 L1549,0.0 L1550,0.0 L1551,0.0 L1552,0.0 L1553,0.0 L1554,0.0 L1555,0.0 L1556,0.0 L1557,0.0 L1558,0.0 L1559,0.0 L1560,0.0 L1561,0.0 L1562,0.0 L1563,0.0 L1564,0.0 L1565,0.0 L1566,0.0 L1567,0.0 L1568,0.0 L1569,0.0 L1570,0.0 L1571,0.0 L1572,0.0 L1573,0.0 L1574,0.0 L1575,0.0 L1576,0.0 L1577,0.0 L1578,0.0 L1579,0.0 L1580,0.0 L1581,0.0 L1582,0.0 L1583,0.0 L1584,0.0 L1585,0.0 L1586,0.0 L1587,0.0 L1588,0.0 L1589,0.0 L1590,0.0 L1591,0.0 L1592,0.0 L1593,0.0 L1594,0.0 L1595,0.0 L1596,0.0 L1597,0.0 L1598,0.0 L1599,0.0 L1600,0.0 L1601,0.0 L1602,0.0 L1603,0.0 L1604,0.0 L1605,0.0 L1606,0.0 L1607,0.0 L1608,0.0 L1609,0.0 L1610,0.0 L1611,0.0 L1612,0.0 L1613,0.0 L1614,0.0 L1615,0.0 L1616,0.0 L1617,0.0 L1618,0.0 L1619,0.0 L1620,0.0 L1621,0.0 L1622,0.0 L1623,0.0 L1624,0.0 L1625,0.0 L1626,0.0 L1627,0.0 L1628,0.0 L1629,0.0 L1630,0.0 L1631,0.0 L1632,0.0 L1633,0.0 L1634,0.0 L1635,0.0 L1636,0.0 L1637,0.0 L1638,0.0 L1639,0.0 L1640,0.0 L1641,0.0 L1642,0.0 L1643,0.0 L1644,0.0 L1645,0.0 L1646,0.0 L1647,0.0 L1648,0.0 L1649,0.0 L1650,0.0 L1651,0.0 L1652,0.0 L1653,0.0 L1654,0.0 L1655,0.0 L1656,0.0 L1657,0.0 L1658,0.0 L1659,0.0 L1660,0.0 L1661,0.0 L1662,0.0 L1663,0.0 L1664,0.0 L1665,0.0 L1666,0.0 L1667,0.0 L1668,0.0 L1669,0.0 L1670,0.0 L1671,0.0 L1672,0.0 L1673,0.0 L1674,0.0 L1675,0.0 L1676,0.0 L1677,0.0 L1678,0.0 L1679,0.0 L1680,0.0 L1681,0.0 L1682,0.0 L1683,0.0 L1684,0.0 L1685,0.0 L1686,0.0 L1687,0.0 L1688,0.0 L1689,0.0 L1690,0.0 L1691,0.0 L1692,0.0 L1693,0.0 L1694,0.0 L1695,0.0 L1696,0.0 L1697,0.0 L1698,0.0 L1699,0.0 L1700,0.0 L1701,0.0 L1702,0.0 L1703,0.0 L1704,0.0 L1705,0.0 L1706,0.0 L1707,0.0 L1708,0.0 L1709,0.0 L1710,0.0 L1711,0.0 L1712,0.0 L1713,0.0 L1714,0.0 L1715,0.0 L1716,0.0 L1717,0.0 L1718,0.0 L1719,0.0 L1720,0.0 L1721,0.0 L1722,0.0 L1723,0.0 L1724,0.0 L1725,0.0 L1726,0.0 L1727,0.0 L1728,0.0 L1729,0.0 L1730,0.0 L1731,0.0 L1732,0.0 L1733,0.0 L1734,0.0 L1735,0.0 L1736,0.0 L1737,0.0 L1738,0.0 L1739,0.0 L1740,0.0 L1741,0.0 L1742,0.0 L1743,0.0 L1744,0.0 L1745,0.0 L1746,0.0 L1747,0.0 L1748,0.0 L1749,0.0 L1750,0.0 L1751,0.0 L1752,0.0 L1753,0.0 L1754,0.0 L1755,0.0 L1756,0.0 L1757,0.0 L1758,0.0 L1759,0.0 L1760,0.0 L1761,0.0 L1762,0.0 L1763,0.0 L1764,0.0 L1765,0.0 L1766,0.0 L1767,0.0 L1768,0.0 L1769,0.0 L1770,0.0 L1771,0.0 L1772,0.0 L1773,0.0 L1774,0.0 L1775,0.0 L1776,0.0 L1777,0.0 L1778,0.0 L1779,0.0 L1780,0.0 L1781,0.0 L1782,0.0 L1783,0.0 L1784,0.0 L1785,0.0 L1786,0.0 L1787,0.0 L1788,0.0 L1789,0.0 L1790,0.0 L1791,0.0 L1792,0.0 L1793,0.0 L1794,0.0 L1795,0.0 L1796,0.0 L1797,0.0 L1798,0.0 L1799,0.0 L1800,0.0 L1801,0.0 L1802,0.0 L1803,0.0 L1804,0.0 L1805,0.0 L1806,0.0 L1807,0.0 L1808,0.0 L1809,0.0 L1810,0.0 L1811,0.0 L1812,0.0 L1813,0.0 L1814,0.0 L1815,0.0 L1816,0.0 L1817,0.0 L1818,0.0 L1819,0.0 L1820,0.0 L1821,0.0 L1822,0.0 L1823,0.0 L1824,0.0 L1825,0.0 L1826,0.0 L1827,0.0 L1828,0.0 L1829,0.0 L1830,0.0 L1831,0.0 L1832,0.0 L1833,0.0 L1834,0.0 L1835,0.0 L1836,0.0 L1837,0.0 L1838,0.0 L1839,0.0 L1840,0.0 L1841,0.0 L1842,0.0 L1843,0.0 L1844,0.0 L1845,0.0 L1846,0.0 L1847,0.0 L1848,0.0 L1849,0.0 L1850,0.0 L1851,0.0 L1852,0.0 L1853,0.0 L1854,0.0 L1855,0.0 L1856,0.0 L1857,0.0 L1858,0.0 L1859,0.0 L1860,0.0 L1861,0.0 L1862,0.0 L1863,0.0 L1864,0.0 L1865,0.0 L1866,0.0 L1867,0.0 L1868,0.0 L1869,0.0 L1870,0.0 L1871,0.0 L1872,0.0 L1873,0.0 L1874,0.0 L1875,0.0 L1876,0.0 L1877,0.0 L1878,0.0 L1879,0.0 L1880,0.0 L1881,0.0 L1882,0.0 L1883,0.0 L1884,0.0 L1885,0.0 L1886,0.0 L1887,0.0 L1888,0.0 L1889,0.0 L1890,0.0 L1891,0.0 L1892,0.0 L1893,0.0 L1894,0.0 L1895,0.0 L1896,0.0 L1897,0.0 L1898,0.0 L1899,0.0 L1900,0.0 L1901,0.0 L1902,0.0 L1903,0.0 L1904,0.0 L1905,0.0 L1906,0.0 L1907,0.0 L1908,0.0 L1909,0.0 L1910,0.0 L1911,0.0 L1912,0.0 L1913,0.0 L1914,0.0 L1915,0.0 L1916,0.0 L1917,0.0 L1918,0.0 L1919,0.0 L1920,0.0 L1921,0.0 L1922,0.0 L1923,0.0 L1924,0.0 L1925,0.0 L1926,0.0 L1927,0.0 L1928,0.0 L1929,0.0 L1930,0.0 L1931,0.0 L1932,0.0 L1933,0.0 L1934,0.0 L1935,0.0 L1936,0.0 L1937,0.0 L1938,0.0 L1939,0.0 L1940,0.0 L1941,0.0 L1942,0.0 L1943,0.0 L1944,0.0 L1945,0.0 L1946,0.0 L1947,0.0 L1948,0.0 L1949,0.0 L1950,0.0 L1951,0.0 L1952,0.0 L1953,0.0 L1954,0.0 L1955,0.0 L1956,0.0 L1957,0.0 L1958,0.0 L1959,0.0 L1960,0.0 L1961,0.0 L1962,0.0 L1963,0.0 L1964,0.0 L1965,0.0 L1966,0.0 L1967,0.0 L1968,0.0 L1969,0.0 L1970,0.0 L1971,0.0 L1972,0.0 L1973,0.0 L1974,0.0 L1975,0.0 L1976,0.0 L1977,0.0 L1978,0.0 L1979,0.0 L1980,0.0 L1981,0.0 L1982,0.0 L1983,0.0 L1984,0.0 L1985,0.0 L1986,0.0 L1987,0.0 L1988,0.0 L1989,0.0 L1990,0.0 L1991,0.0 L1992,0.0 L1993,0.0 L1994,0.0 L1995,0.0 L1996,0.0 L1997,0.0 L1998,0.0 L1999,0.0 L2000,0.0 L2001,0.0 L2002,0.0 L2003,0.0 L2004,0.0 L2005,0.0 L2006,0.0 L2007,0.0 L2008,0.0 L2009,0.0 L2010,0.0 L2011,0.0 L2012,0.0 L2013,0.0 L2014,0.0 L2015,0.0 L2016,0.0 L2017,0.0 L2018,0.0 L2019,0.0 L2020,0.0 L2021,0.0 L2022,0.0 L2023,0.0 L2024,0.0 L2025,0.0 L2026,0.0 L2027,0.0 L2028,0.0 L2029,0.0 L2030,0.0 L2031,0.0 L2032,0.0 L2033,0.0 L2034,0.0 L2035,0.0 L2036,0.0 L2037,0.0 L2038,0.0 L2039,0.0 L2040,0.0 L2041,0.0 L2042,0.0 L2043,0.0 L2044,0.0 L2045,0.0 L2046,0.0 L2047,0.0 L2048,0.0 L2049,0.0 L2050,0.0 L2051,0.0 L2052,0.0 L2053,0.0 L2054,0.0 L2055,0.0 L2056,0.0 L2057,0.0 L2058,0.0 L2059,0.0 L2060,0.0 L2061,0.0 L2062,0.0 L2063,0.0 L2064,0.0 L2065,0.0 L2066,0.0 L2067,0.0 L2068,0.0 L2069,0.0 L2070,0.0 L2071,0.0 L2072,0.0 L2073,0.0 L2074,0.0 L2075,0.0 L2076,0.0 L2077,0.0 L2078,0.0 L2079,0.0 L2080,0.0 L2081,0.0 L2082,0.0 L2083,0.0 L2084,0.0 L2085,0.0 L2086,0.0 L2087,0.0 L2088,0.0 L2089,0.0 L2090,0.0 L2091,0.0 L2092,0.0 L2093,0.0 L2094,0.0 L2095,0.0 L2096,0.0 L2097,0.0 L2098,0.0 L2099,0.0 L2100,0.0 L2101,0.0 L2102,0.0 L2103,0.0 L2104,0.0 L2105,0.0 L2106,0.0 L2107,0.0 L2108,0.0 L2109,0.0 L2110,0.0 L2111,0.0 L2112,0.0 L2113,0.0 L2114,0.0 L2115,0.0 L2116,0.0 L2117,0.0 L2118,0.0 L2119,0.0 L2120,0.0 L2121,0.0 L2122,0.0 L2123,0.0 L2124,0.0 L2125,0.0 L2126,0.0 L2127,0.0 L2128,0.0 L2129,0.0 L2130,0.0 L2131,0.0 L2132,0.0 L2133,0.0 L2134,0.0 L2135,0.0 L2136,0.0 L2137,0.0 L2138,0.0 L2139,0.0 L2140,0.0 L2141,0.0 L2142,0.0 L2143,0.0 L2144,0.0 L2145,0.0 L2146,0.0 L2147,0.0 L2148,0.0 L2149,0.0 L2150,0.0 L2151,0.0 L2152,0.0 L2153,0.0 L2154,0.0 L2155,0.0 L2156,0.0 L2157,0.0 L2158,0.0 L2159,0.0 L2160,0.0 L2161,0.0 L2162,0.0 L2163,0.0 L2164,0.0 L2165,0.0 L2166,0.0 L2167,0.0 L2168,0.0 L2169,0.0 L2170,0.0 L2171,0.0 L2172,0.0 L2173,0.0 L2174,0.0 L2175,0.0 L2176,0.0 L2177,0.0 L2178,0.0 L2179,0.0 L2180,0.0 L2181,0.0 L2182,0.0 L2183,0.0 L2184,0.0 L2185,0.0 L2186,0.0 L2187,0.0 L2188,0.0 L2189,0.0 L2190,0.0 L2191,0.0 L2192,0.0 L2193,0.0 L2194,0.0 L2195,0.0 L2196,0.0 L2197,0.0 L2198,0.0 L2199,0.0 L2200,0.0 L2201,0.0 L2202,0.0 L2203,0.0 L2204,0.0 L2205,0.0 L2206,0.0 L2207,0.0 L2208,0.0 L2209,0.0 L2210,0.0 L2211,0.0 L2212,0.0 L2213,0.0 L2214,0.0 L2215,0.0 L2216,0.0 L2217,0.0 L2218,0.0 L2219,0.0 L2220,0.0 L2221,0.0 L2222,0.0 L2223,0.0 L2224,0.0 L2225,0.0 L2226,0.0 L2227,0.0 L2228,0.0 L2229,0.0 L2230,0.0 L2231,0.0 L2232,0.0 L2233,0.0 L2234,0.0 L2235,0.0 L2236,0.0 L2237,0.0 L2238,0.0 L2239,0.0 L2240,0.0 L2241,0.0 L2242,0.0 L2243,0.0 L2244,0.0 L2245,0.0 L2246,0.0 L2247,0.0 L2248,0.0 L2249,0.0 L2250,0.0 L2251,0.0 L2252,0.0 L2253,0.0 L2254,0.0 L2255,0.0 L2256,0.0 L2257,0.0 L2258,0.0 L2259,0.0 L2260,0.0 L2261,0.0 L2262,0.0 L2263,0.0 L2264,0.0 L2265,0.0 L2266,0.0 L2267,0.0 L2268,0.0 L2269,0.0 L2270,0.0 L2271,0.0 L2272,0.0 L2273,0.0 L2274,0.0 L2275,0.0 L2276,0.0 L2277,0.0 L2278,0.0 L2279,0.0 L2280,0.0 L2281,0.0 L2282,0.0 L2283,0.0 L2284,0.0 L2285,0.0 L2286,0.0 L2287,0.0 L2288,0.0 L2289,0.0 L2290,0.0 L2291,0.0 L2292,0.0 L2293,0.0 L2294,0.0 L2295,0.0 L2296,0.0 L2297,0.0 L2298,0.0 L2299,0.0 L2300,0.0 L2301,0.0 L2302,0.0 L2303,0.0 L2304,0.0 L2305,0.0 L2306,0.0 L2307,0.0 L2308,0.0 L2309,0.0 L2310,0.0 L2311,0.0 L2312,0.0 L2313,0.0 L2314,0.0 L2315,0.0 L2316,0.0 L2317,0.0 L2318,0.0 L2319,0.0 L2320,0.0 L2321,0.0 L2322,0.0 L2323,0.0 L2324,0.0 L2325,0.0 L2326,0.0 L2327,0.0 L2328,0.0 L2329,0.0 L2330,0.0 L2331,0.0 L2332,0.0 L2333,0.0 L2334,0.0 L2335,0.0 L2336,0.0 L2337,0.0 L2338,0.0 L2339,0.0 L2340,0.0 L2341,0.0 L2342,0.0 L2343,0.0 L2344,0.0 L2345,0.0 L2346,0.0 L2347,0.0 L2348,0.0 L2349,0.0 L2350,0.0 L2351,0.0 L2352,0.0 L2353,0.0 L2354,0.0 L2355,0.0 L2356,0.0 L2357,0.0 L2358,0.0 L2359,0.0 L2360,0.0 L2361,0.0 L2362,0.0 L2363,0.0 L2364,0.0 L2365,0.0 L2366,0.0 L2367,0.0 L2368,0.0 L2369,0.0 L2370,0.0 L2371,0.0 L2372,0.0 L2373,0.0 L2374,0.0 L2375,0.0 L2376,0.0 L2377,0.0 L2378,0.0 L2379,0.0 L2380,0.0 L2381,0.0 L2382,0.0 L2383,0.0 L2384,0.0 L2385,0.0 L2386,0.0 L2387,0.0 L2388,0.0 L2389,0.0 L2390,0.0 L2391,0.0 L2392,0.0 L2393,0.0 L2394,0.0 L2395,0.0 L2396,0.0 L2397,0.0 L2398,0.0 L2399,0.0 L2400,0.0 L2401,0.0 L2402,0.0 L2403,0.0 L2404,0.0 L2405,0.0 L2406,0.0 L2407,0.0 L2408,0.0 L2409,0.0 L2410,0.0 L2411,0.0 L2412,0.0 L2413,0.0 L2414,0.0 L2415,0.0 L2416,0.0 L2417,0.0 L2418,0.0 L2419,0.0 L2420,0.0 L2421,0.0 L2422,0.0 L2423,0.0 L2424,0.0 L2425,0.0 L2426,0.0 L2427,0.0 L2428,0.0 L2429,0.0 L2430,0.0 L2431,0.0 L2432,0.0 L2433,0.0 L2434,0.0 L2435,0.0 L2436,0.0 L2437,0.0 L2438,0.0 L2439,0.0 L2440,0.0 L2441,0.0 L2442,0.0 L2443,0.0 L2444,0.0 L2445,0.0 L2446,0.0 L2447,0.0 L2448,0.0 L2449,0.0 L2450,0.0 L2451,0.0 L2452,0.0 L2453,0.0 L2454,0.0 L2455,0.0 L2456,0.0 L2457,0.0 L2458,0.0 L2459,0.0 L2460,0.0 L2461,0.0 L2462,0.0 L2463,0.0 L2464,0.0 L2465,0.0 L2466,0.0 L2467,0.0 L2468,0.0 L2469,0.0 L2470,0.0 L2471,0.0 L2472,0.0 L2473,0.0 L2474,0.0 L2475,0.0 L2476,0.0 L2477,0.0 L2478,0.0 L2479,0.0 L2480,0.0 L2481,0.0 L2482,0.0 L2483,0.0 L2484,0.0 L2485,0.0 L2486,0.0 L2487,0.0 L2488,0.0 L2489,0.0 L2490,0.0 L2491,0.0 L2492,0.0 L2493,0.0 L2494,0.0 L2495,0.0 L2496,0.0 L2497,0.0 L2498,0.0 L2499,0.0 L2500,0.0 L2501,0.0 L2502,0.0 L2503,0.0 L2504,0.0 L2505,0.0 L2506,0.0 L2507,0.0 L2508,0.0 L2509,0.0 L2510,0.0 L2511,0.0 L2512,0.0 L2513,0.0 L2514,0.0 L2515,0.0 L2516,0.0 L2517,0.0 L2518,0.0 L2519,0.0 L2520,0.0 L2521,0.0 L2522,0.0 L2523,0.0 L2524,0.0 L2525,0.0 L2526,0.0 L2527,0.0 L2528,0.0 L2529,0.0 L2530,0.0 L2531,0.0 L2532,0.0 L2533,0.0 L2534,0.0 L2535,0.0 L2536,0.0 L2537,0.0 L2538,0.0 L2539,0.0 L2540,0.0 L2541,0.0 L2542,0.0 L2543,0.0 L2544,0.0 L2545,0.0 L2546,0.0 L2547,0.0 L2548,0.0 L2549,0.0 L2550,0.0 L2551,0.0 L2552,0.0 L2553,0.0 L2554,0.0 L2555,0.0 L2556,0.0 L2557,0.0 L2558,0.0 L2559,0.0 L2560,0.0 L2561,0.0 L2562,0.0 L2563,0.0 L2564,0.0 L2565,0.0 L2566,0.0 L2567,0.0 L2568,0.0 L2569,0.0 L2570,0.0 L2571,0.0 L2572,0.0 L2573,0.0 L2574,0.0 L2575,0.0 L2576,0.0 L2577,0.0 L2578,0.0 L2579,0.0 L2580,0.0 L2581,0.0 L2582,0.0 L2583,0.0 L2584,0.0 L2585,0.0 L2586,0.0 L2587,0.0 L2588,0.0 L2589,0.0 L2590,0.0 L2591,0.0 L2592,0.0 L2593,0.0 L2594,0.0 L2595,0.0 L2596,0.0 L2597,0.0 L2598,0.0 L2599,0.0 L2600,0.0 L2601,0.0 L2602,0.0 L2603,0.0 L2604,0.0 L2605,0.0 L2606,0.0 L2607,0.0 L2608,0.0 L2609,0.0 L2610,0.0 L2611,0.0 L2612,0.0 L2613,0.0 L2614,0.0 L2615,0.0 L2616,0.0 L2617,0.0 L2618,0.0 L2619,0.0 L2620,0.0 L2621,0.0 L2622,0.0 L2623,0.0 L2624,0.0 L2625,0.0 L2626,0.0 L2627,0.0 L2628,0.0 L2629,0.0 L2630,0.0 L2631,0.0 L2632,0.0 L2633,0.0 L2634,0.0 L2635,0.0 L2636,0.0 L2637,0.0 L2638,0.0 L2639,0.0 L2640,0.0 L2641,0.0 L2642,0.0 L2643,0.0 L2644,0.0 L2645,0.0 L2646,0.0 L2647,0.0 L2648,0.0 L2649,0.0 L2650,0.0 L2651,0.0 L2652,0.0 L2653,0.0 L2654,0.0 L2655,0.0 L2656,0.0 L2657,0.0 L2658,0.0 L2659,0.0 L2660,0.0 L2661,0.0 L2662,0.0 L2663,0.0 L2664,0.0 L2665,0.0 L2666,0.0 L2667,0.0 L2668,0.0 L2669,0.0 L2670,0.0 L2671,0.0 L2672,0.0 L2673,0.0 L2674,0.0 L2675,0.0 L2676,0.0 L2677,0.0 L2678,0.0 L2679,0.0 L2680,0.0 L2681,0.0 L2682,0.0 L2683,0.0 L2684,0.0 L2685,0.0 L2686,0.0 L2687,0.0 L2688,0.0 L2689,0.0 L2690,0.0 L2691,0.0 L2692,0.0 L2693,0.0 L2694,0.0 L2695,0.0 L2696,0.0 L2697,0.0 L2698,0.0 L2699,0.0 L2700,0.0 L2701,0.0 L2702,0.0 L2703,0.0 L2704,0.0 L2705,0.0 L2706,0.0 L2707,0.0 L2708,0.0 L2709,0.0 L2710,0.0 L2711,0.0 L2712,0.0 L2713,0.0 L2714,0.0 L2715,0.0 L2716,0.0 L2717,0.0 L2718,0.0 L2719,0.0 L2720,0.0 L2721,0.0 L2722,0.0 L2723,0.0 L2724,0.0 L2725,0.0 L2726,0.0 L2727,0.0 L2728,0.0 L2729,0.0 L2730,0.0 L2731,0.0 L2732,0.0 L2733,0.0 L2734,0.0 L2735,0.0 L2736,0.0 L2737,0.0 L2738,0.0 L2739,0.0 L2740,0.0 L2741,0.0 L2742,0.0 L2743,0.0 L2744,0.0 L2745,0.0 L2746,0.0 L2747,0.0 L2748,0.0 L2749,0.0 L2750,0.0 L2751,0.0 L2752,0.0 L2753,0.0 L2754,0.0 L2755,0.0 L2756,0.0 L2757,0.0 L2758,0.0 L2759,0.0 L2760,0.0 L2761,0.0 L2762,0.0 L2763,0.0 L2764,0.0 L2765,0.0 L2766,0.0 L2767,0.0 L2768,0.0 L2769,0.0 L2770,0.0 L2771,0.0 L2772,0.0 L2773,0.0 L2774,0.0 L2775,0.0 L2776,0.0 L2777,0.0 L2778,0.0 L2779,0.0 L2780,0.0 L2781,0.0 L2782,0.0 L2783,0.0 L2784,0.0 L2785,0.0 L2786,0.0 L2787,0.0 L2788,0.0 L2789,0.0 L2790,0.0 L2791,0.0 L2792,0.0 L2793,0.0 L2794,0.0 L2795,0.0 L2796,0.0 L2797,0.0 L2798,0.0 L2799,0.0 L2800,0.0 L2801,0.0 L2802,0.0 L2803,0.0 L2804,0.0 L2805,0.0 L2806,0.0 L2807,0.0 L2808,0.0 L2809,0.0 L2810,0.0 L2811,0.0 L2812,0.0 L2813,0.0 L2814,0.0 L2815,0.0 L2816,0.0 L2817,0.0 L2818,0.0 L2819,0.0 L2820,0.0 L2821,0.0 L2822,0.0 L2823,0.0 L2824,0.0 L2825,0.0 L2826,0.0 L2827,0.0 L2828,0.0 L2829,0.0 L2830,0.0 L2831,0.0 L2832,0.0 L2833,0.0 L2834,0.0 L2835,0.0 L2836,0.0 L2837,0.0 L2838,0.0 L2839,0.0 L2840,0.0 L2841,0.0 L2842,0.0 L2843,0.0 L2844,0.0 L2845,0.0 L2846,0.0 L2847,0.0 L2848,0.0 L2849,0.0 L2850,0.0 L2851,0.0 L2852,0.0 L2853,0.0 L2854,0.0 L2855,0.0 L2856,0.0 L2857,0.0 L2858,0.0 L2859,0.0 L2860,0.0 L2861,0.0 L2862,0.0 L2863,0.0 L2864,0.0 L2865,0.0 L2866,0.0 L2867,0.0 L2868,0.0 L2869,0.0 L2870,0.0 L2871,0.0 L2872,0.0 L2873,0.0 L2874,0.0 L2875,0.0 L2876,0.0 L2877,0.0 L2878,0.0 L2879,0.0 L2880,0.0 L2881,0.0 L2882,0.0 L2883,0.0 L2884,0.0 L2885,0.0 L2886,0.0 L2887,0.0 L2888,0.0 L2889,0.0 L2890,0.0 L2891,0.0 L2892,0.0 L2893,0.0 L2894,0.0 L2895,0.0 L2896,0.0 L2897,0.0 L2898,0.0 L2899,0.0 L2900,0.0 L2901,0.0 L2902,0.0 L2903,0.0 L2904,0.0 L2905,0.0 L2906,0.0 L2907,0.0 L2908,0.0 L2909,0.0 L2910,0.0 L2911,0.0 L2912,0.0 L2913,0.0 L2914,0.0 L2915,0.0 L2916,0.0 L2917,0.0 L2918,0.0 L2919,0.0 L2920,0.0 L2921,0.0 L2922,0.0 L2923,0.0 L2924,0.0 L2925,0.0 L2926,0.0 L2927,0.0 L2928,0.0 L2929,0.0 L2930,0.0 L2931,0.0 L2932,0.0 L2933,0.0 L2934,0.0 L2935,0.0 L2936,0.0 L2937,0.0 L2938,0.0 L2939,0.0 L2940,0.0 L2941,0.0 L2942,0.0 L2943,0.0 L2944,0.0 L2945,0.0 L2946,0.0 L2947,0.0 L2948,0.0 L2949,0.0 L2950,0.0 L2951,0.0 L2952,0.0 L2953,0.0 L2954,0.0 L2955,0.0 L2956,0.0 L2957,0.0 L2958,0.0 L2959,0.0 L2960,0.0 L2961,0.0 L2962,0.0 L2963,0.0 L2964,0.0 L2965,0.0 L2966,0.0 L2967,0.0 L2968,0.0 L2969,0.0 L2970,0.0 L2971,0.0 L2972,0.0 L2973,0.0 L2974,0.0 L2975,0.0 L2976,0.0 L2977,0.0 L2978,0.0 L2979,0.0 L2980,0.0 L2981,0.0 L2982,0.0 L2983,0.0 L2984,0.0 L2985,0.0 L2986,0.0 L2987,0.0 L2988,0.0 L2989,0.0 L2990,0.0 L2991,0.0 L2992,0.0 L2993,0.0 L2994,0.0 L2995,0.0 L2996,0.0 L2997,0.0 L2998,0.0 L2999,0.0 L3000,0.0 L3001,0.0 L3002,0.0 L3003,0.0 L3004,0.0 L3005,0.0 L3006,0.0 L3007,0.0 L3008,0.0 L3009,0.0 L3010,0.0 L3011,0.0 L3012,0.0 L3013,0.0 L3014,0.0 L3015,0.0 L3016,0.0 L3017,0.0 L3018,0.0 L3019,0.0 L3020,0.0 L3021,0.0 L3022,0.0 L3023,0.0 L3024,0.0 L3025,0.0 L3026,0.0 L3027,0.0 L3028,0.0 L3029,0.0 L3030,0.0 L3031,0.0 L3032,0.0 L3033,0.0 L3034,0.0 L3035,0.0 L3036,0.0 L3037,0.0 L3038,0.0 L3039,0.0 L3040,0.0 L3041,0.0 L3042,0.0 L3043,0.0 L3044,0.0 L3045,0.0 L3046,0.0 L3047,0.0 L3048,0.0 L3049,0.0 L3050,0.0 L3051,0.0 L3052,0.0 L3053,0.0 L3054,0.0 L3055,0.0 L3056,0.0 L3057,0.0 L3058,0.0 L3059,0.0 L3060,0.0 L3061,0.0 L3062,0.0 L3063,0.0 L3064,0.0 L3065,0.0 L3066,0.0 L3067,0.0 L3068,0.0 L3069,0.0 L3070,0.0 L3071,0.0 L3072,0.0 L3073,0.0 L3074,0.0 L3075,0.0 L3076,0.0 L3077,0.0 L3078,0.0 L3079,0.0 L3080,0.0 L3081,0.0 L3082,0.0 L3083,0.0 L3084,0.0 L3085,0.0 L3086,0.0 L3087,0.0 L3088,0.0 L3089,0.0 L3090,0.0 L3091,0.0 L3092,0.0 L3093,0.0 L3094,0.0 L3095,0.0 L3096,0.0 L3097,0.0 L3098,0.0 L3099,0.0 L3100,0.0 L3101,0.0 L3102,0.0 L3103,0.0 L3104,0.0 L3105,0.0 L3106,0.0 L3107,0.0 L3108,0.0 L3109,0.0 L3110,0.0 L3111,0.0 L3112,0.0 L3113,0.0 L3114,0.0 L3115,0.0 L3116,0.0 L3117,0.0 L3118,0.0 L3119,0.0 L3120,0.0 L3121,0.0 L3122,0.0 L3123,0.0 L3124,0.0 L3125,0.0 L3126,0.0 L3127,0.0 L3128,0.0 L3129,0.0 L3130,0.0 L3131,0.0 L3132,0.0 L3133,0.0 L3134,0.0 L3135,0.0 L3136,0.0 L3137,0.0 L3138,0.0 L3139,0.0 L3140,0.0 L3141,0.0 L3142,0.0 L3143,0.0 L3144,0.0 L3145,0.0 L3146,0.0 L3147,0.0 L3148,0.0 L3149,0.0 L3150,0.0 L3151,0.0 L3152,0.0 L3153,0.0 L3154,0.0 L3155,0.0 L3156,0.0 L3157,0.0 L3158,0.0 L3159,0.0 L3160,0.0 L3161,0.0 L3162,0.0 L3163,0.0 L3164,0.0 L3165,0.0 L3166,0.0 L3167,0.0 L3168,0.0 L3169,0.0 L3170,0.0 L3171,0.0 L3172,0.0 L3173,0.0 L3174,0.0 L3175,0.0 L3176,0.0 L3177,0.0 L3178,0.0 L3179,0.0 L3180,0.0 L3181,0.0 L3182,0.0 L3183,0.0 L3184,0.0 L3185,0.0 L3186,0.0 L3187,0.0 L3188,0.0 L3189,0.0 L3190,0.0 L3191,0.0 L3192,0.0 L3193,0.0 L3194,0.0 L3195,0.0 L3196,0.0 L3197,0.0 L3198,0.0 L3199,0.0 L3200,0.0 L3201,0.0 L3202,0.0 L3203,0.0 L3204,0.0 L3205,0.0 L3206,0.0 L3207,0.0 L3208,0.0 L3209,0.0 L3210,0.0 L3211,0.0 L3212,0.0 L3213,0.0 L3214,0.0 L3215,0.0 L3216,0.0 L3217,0.0 L3218,0.0 L3219,0.0 L3220,0.0 L3221,0.0 L3222,0.0 L3223,0.0 L3224,0.0 L3225,0.0 L3226,0.0 L3227,0.0 L3228,0.0 L3229,0.0 L3230,0.0 L3231,0.0 L3232,0.0 L3233,0.0 L3234,0.0 L3235,0.0 L3236,0.0 L3237,0.0 L3238,0.0 L3239,0.0 L3240,0.0 L3241,0.0 L3242,0.0 L3243,0.0 L3244,0.0 L3245,0.0 L3246,0.0 L3247,0.0 L3248,0.0 L3249,0.0 L3250,0.0 L3251,0.0 L3252,0.0 L3253,0.0 L3254,0.0 L3255,0.0 L3256,0.0 L3257,0.0 L3258,0.0 L3259,0.0 L3260,0.0 L3261,0.0 L3262,0.0 L3263,0.0 L3264,0.0 L3265,0.0 L3266,0.0 L3267,0.0 L3268,0.0 L3269,0.0 L3270,0.0 L3271,0.0 L3272,0.0 L3273,0.0 L3274,0.0 L3275,0.0 L3276,0.0 L3277,0.0 L3278,0.0 L3279,0.0 L3280,0.0 L3281,0.0 L3282,0.0 L3283,0.0 L3284,0.0 L3285,0.0 L3286,0.0 L3287,0.0 L3288,0.0 L3289,0.0 L3290,0.0 L3291,0.0 L3292,0.0 L3293,0.0 L3294,0.0 L3295,0.0 L3296,0.0 L3297,0.0 L3298,0.0 L3299,0.0 L3300,0.0 L3301,0.0 L3302,0.0 L3303,0.0 L3304,0.0 L3305,0.0 L3306,0.0 L3307,0.0 L3308,0.0 L3309,0.0 L3310,0.0 L3311,0.0 L3312,0.0 L3313,0.0 L3314,0.0 L3315,0.0 L3316,0.0 L3317,0.0 L3318,0.0 L3319,0.0 L3320,0.0 L3321,0.0 L3322,0.0 L3323,0.0 L3324,0.0 L3325,0.0 L3326,0.0 L3327,0.0 L3328,0.0 L3329,0.0 L3330,0.0 L3331,0.0 L3332,0.0 L3333,0.0 L3334,0.0 L3335,0.0 L3336,0.0 L3337,0.0 L3338,0.0 L3339,0.0 L3340,0.0 L3341,0.0 L3342,0.0 L3343,0.0 L3344,0.0 L3345,0.0 L3346,0.0 L3347,0.0 L3348,0.0 L3349,0.0 L3350,0.0 L3351,0.0 L3352,0.0 L3353,0.0 L3354,0.0 L3355,0.0 L3356,0.0 L3357,0.0 L3358,0.0 L3359,0.0 L3360,0.0 L3361,0.0 L3362,0.0 L3363,0.0 L3364,0.0 L3365,0.0 L3366,0.0 L3367,0.0 L3368,0.0 L3369,0.0 L3370,0.0 L3371,0.0 L3372,0.0 L3373,0.0 L3374,0.0 L3375,0.0 L3376,0.0 L3377,0.0 L3378,0.0 L3379,0.0 L3380,0.0 L3381,0.0 L3382,0.0 L3383,0.0 L3384,0.0 L3385,0.0 L3386,0.0 L3387,0.0 L3388,0.0 L3389,0.0 L3390,0.0 L3391,0.0 L3392,0.0 L3393,0.0 L3394,0.0 L3395,0.0 L3396,0.0 L3397,0.0 L3398,0.0 L3399,0.0 L3400,0.0 L3401,0.0 L3402,0.0 L3403,0.0 L3404,0.0 L3405,0.0 L3406,0.0 L3407,0.0 L3408,0.0 L3409,0.0 L3410,0.0 L3411,0.0 L3412,0.0 L3413,0.0 L3414,0.0 L3415,0.0 L3416,0.0 L3417,0.0 L3418,0.0 L3419,0.0 L3420,0.0 L3421,0.0 L3422,0.0 L3423,0.0 L3424,0.0 L3425,0.0 L3426,0.0 L3427,0.0 L3428,0.0 L3429,0.0 L3430,0.0 L3431,0.0 L3432,0.0 L3433,0.0 L3434,0.0 L3435,0.0 L3436,0.0 L3437,0.0 L3438,0.0 L3439,0.0 L3440,0.0 L3441,0.0 L3442,0.0 L3443,0.0 L3444,0.0 L3445,0.0 L3446,0.0 L3447,0.0 L3448,0.0 L3449,0.0 L3450,0.0 L3451,0.0 L3452,0.0 L3453,0.0 L3454,0.0 L3455,0.0 L3456,0.0 L3457,0.0 L3458,0.0 L3459,0.0 L3460,0.0 L3461,0.0 L3462,0.0 L3463,0.0 L3464,0.0 L3465,0.0 L3466,0.0 L3467,0.0 L3468,0.0 L3469,0.0 L3470,0.0 L3471,0.0 L3472,0.0 L3473,0.0 L3474,0.0 L3475,0.0 L3476,0.0 L3477,0.0 L3478,0.0 L3479,0.0 L3480,0.0 L3481,0.0 L3482,0.0 L3483,0.0 L3484,0.0 L3485,0.0 L3486,0.0 L3487,0.0 L3488,0.0 L3489,0.0 L3490,0.0 L3491,0.0 L3492,0.0 L3493,0.0 L3494,0.0 L3495,0.0 L3496,0.0 L3497,0.0 L3498,0.0 L3499,0.0 L3500,0.0 L3501,0.0 L3502,0.0 L3503,0.0 L3504,0.0 L3505,0.0 L3506,0.0 L3507,0.0 L3508,0.0 L3509,0.0 L3510,0.0 L3511,0.0 L3512,0.0 L3513,0.0 L3514,0.0 L3515,0.0 L3516,0.0 L3517,0.0 L3518,0.0 L3519,0.0 L3520,0.0 L3521,0.0 L3522,0.0 L3523,0.0 L3524,0.0 L3525,0.0 L3526,0.0 L3527,0.0 L3528,0.0 L3529,0.0 L3530,0.0 L3531,0.0 L3532,0.0 L3533,0.0 L3534,0.0 L3535,0.0 L3536,0.0 L3537,0.0 L3538,0.0 L3539,0.0 L3540,0.0 L3541,0.0 L3542,0.0 L3543,0.0 L3544,0.0 L3545,0.0 L3546,0.0 L3547,0.0 L3548,0.0 L3549,0.0 L3550,0.0 L3551,0.0 L3552,0.0 L3553,0.0 L3554,0.0 L3555,0.0 L3556,0.0 L3557,0.0 L3558,0.0 L3559,0.0 L3560,0.0 L3561,0.0 L3562,0.0 L3563,0.0 L3564,0.0 L3565,0.0 L3566,0.0 L3567,0.0 L3568,0.0 L3569,0.0 L3570,0.0 L3571,0.0 L3572,0.0 L3573,0.0 L3574,0.0 L3575,0.0 L3576,0.0 L3577,0.0 L3578,0.0 L3579,0.0 L3580,0.0 L3581,0.0 L3582,0.0 L3583,0.0 L3584,0.0 L3585,0.0 L3586,0.0 L3587,0.0 L3588,0.0 L3589,0.0 L3590,0.0 L3591,0.0 L3592,0.0 L3593,0.0 L3594,0.0 L3595,0.0 L3596,0.0 L3597,0.0 L3598,0.0 L3599,0.0 L3600,0.0 L3601,0.0 L3602,0.0 L3603,0.0 L3604,0.0 L3605,0.0 L3606,0.0 L3607,0.0 L3608,0.0 L3609,0.0 L3610,0.0 L3611,0.0 L3612,0.0 L3613,0.0 L3614,0.0 L3615,0.0 L3616,0.0 L3617,0.0 L3618,0.0 L3619,0.0 L3620,0.0 L3621,0.0 L3622,0.0 L3623,0.0 L3624,0.0 L3625,0.0 L3626,0.0 L3627,0.0 L3628,0.0 L3629,0.0 L3630,0.0 L3631,0.0 L3632,0.0 L3633,0.0 L3634,0.0 L3635,0.0 L3636,0.0 L3637,0.0 L3638,0.0 L3639,0.0 L3640,0.0 L3641,0.0 L3642,0.0 L3643,0.0 L3644,0.0 L3645,0.0 L3646,0.0 L3647,0.0 L3648,0.0 L3649,0.0 L3650,0.0 L3651,0.0 L3652,0.0 L3653,0.0 L3654,0.0 L3655,0.0 L3656,0.0 L3657,0.0 L3658,0.0 L3659,0.0 L3660,0.0 L3661,0.0 L3662,0.0 " style="vector-effect: non-scaling-stroke; stroke: #ff0000; stroke-width: 1; fill-opacity: 0" transform="scale(0.196614,-40.0)"/><polyline points="0,0.0 720,0.0" style="vector-effect: non-scaling-stroke; stroke: #202020" transform="scale(1,-1)"/><text x="0" y="-0.0" style="fill: white; stroke: none; font-size: 12px; text-anchor: end">10^0&#160;</text><polyline points="0,41.666666666666664 720,41.666666666666664" style="vector-effect: non-scaling-stroke; stroke: #202020" transform="scale(1,-1)"/><text x="0" y="-41.666666666666664" style="fill: white; stroke: none; font-size: 12px; text-anchor: end">10^1&#160;</text><polyline points="0,83.33333333333333 720,83.33333333333333" style="vector-effect: non-scaling-stroke; stroke: #202020" transform="scale(1,-1)"/><text x="0" y="-83.33333333333333" style="fill: white; stroke: none; font-size: 12px; text-anchor: end">10^2&#160;</text><polyline points="0,125.0 720,125.0" style="vector-effect: non-scaling-stroke; stroke: #202020" transform="scale(1,-1)"/><text x="0" y="-125.0" style="fill: white; stroke: none; font-size: 12px; text-anchor: end">10^3&#160;</text><polyline points="0,166.66666666666666 720,166.66666666666666" style="vector-effect: non-scaling-stroke; stroke: #202020" transform="scale(1,-1)"/><text x="0" y="-166.66666666666666" style="fill: white; stroke: none; font-size: 12px; text-anchor: end">10^4&#160;</text></g>
</g>
</svg>
