<?xml version="1.0" encoding="UTF-8"?>
<!DOCTYPE svg PUBLIC "-//W3C//DTD SVG 1.1//EN" "http://www.w3.org/Graphics/SVG/1.1/DTD/svg11.dtd">
<svg xmlns="http://www.w3.org/2000/svg" width="1060" height="350" fill="black" stroke="gray" stroke-width="1">
<text x= "0" y="30" text-anchor="start" stroke="brown">Linux 3.10.0-693.el7.ppc64le (centos-npb-iv1-main) 	06/19/2018 	_ppc64le_	(10 CPU)
</text>
<g id="12" transform="translate(0,50)">
<rect x="0" y="0" height="300" width="1050"/>
<text x="0" y="20" style="fill: yellow; stroke: none">I/O and transfer rate statistics (1)
<tspan x="795" y="25" style="fill: yellow; stroke: none; font-size: 12px">(Min, Max, Average values)</tspan></text>
<polyline points="70,50 70,250 790,250" stroke="white" stroke-width="2"/>
<text x="795" y="50" style="fill: #00cc00; stroke: none; font-size: 12px">tps (0.00, 4152.00, 27.748)</text><text x="795" y="65" style="fill: #ff00bf; stroke: none; font-size: 12px">rtps (0.00, 11.00, 0.046)</text><text x="795" y="80" style="fill: #00ffff; stroke: none; font-size: 12px">wtps (0.00, 4152.00, 27.702)</text><g transform="translate(70,250)">
<text x="0" y="0" style="fill: white; stroke: none; font-size: 12px; text-anchor: end">0.</text>
<polyline points="0,1000.00 720,1000.00" style="vector-effect: non-scaling-stroke; stroke: #202020" transform="scale(1,-0.048170)"/>
<text x="0" y="-48" style="fill: white; stroke: none; font-size: 12px; text-anchor: end">1000.</text>
<polyline points="0,2000.00 720,2000.00" style="vector-effect: non-scaling-stroke; stroke: #202020" transform="scale(1,-0.048170)"/>
<text x="0" y="-96" style="fill: white; stroke: none; font-size: 12px; text-anchor: end">2000.</text>
<polyline points="0,3000.00 720,3000.00" style="vector-effect: non-scaling-stroke; stroke: #202020" transform="scale(1,-0.048170)"/>
<text x="0" y="-144" style="fill: white; stroke: none; font-size: 12px; text-anchor: end">3000.</text>
<polyline points="0,4000.00 720,4000.00" style="vector-effect: non-scaling-stroke; stroke: #202020" transform="scale(1,-0.048170)"/>
<text x="0" y="-192" style="fill: white; stroke: none; font-size: 12px; text-anchor: end">4000.</text>
<polyline points="0,0 0,-200" style="vector-effect: non-scaling-stroke; stroke: #202020" transform="scale(0.672897,1)"/>
<text x="0" y="10" style="fill: white; stroke: none; font-size: 12px; text-anchor: start" transform="rotate(45,0,0)">09:56:49</text>
<polyline points="107,0 107,-200" style="vector-effect: non-scaling-stroke; stroke: #202020" transform="scale(0.672897,1)"/>
<text x="72" y="10" style="fill: white; stroke: none; font-size: 12px; text-anchor: start" transform="rotate(45,72,0)">09:58:36</text>
<polyline points="214,0 214,-200" style="vector-effect: non-scaling-stroke; stroke: #202020" transform="scale(0.672897,1)"/>
<text x="144" y="10" style="fill: white; stroke: none; font-size: 12px; text-anchor: start" transform="rotate(45,144,0)">10:00:23</text>
<polyline points="321,0 321,-200" style="vector-effect: non-scaling-stroke; stroke: #202020" transform="scale(0.672897,1)"/>
<text x="216" y="10" style="fill: white; stroke: none; font-size: 12px; text-anchor: start" transform="rotate(45,216,0)">10:02:10</text>
<polyline points="428,0 428,-200" style="vector-effect: non-scaling-stroke; stroke: #202020" transform="scale(0.672897,1)"/>
<text x="288" y="10" style="fill: white; stroke: none; font-size: 12px; text-anchor: start" transform="rotate(45,288,0)">10:03:57</text>
<polyline points="535,0 535,-200" style="vector-effect: non-scaling-stroke; stroke: #202020" transform="scale(0.672897,1)"/>
<text x="360" y="10" style="fill: white; stroke: none; font-size: 12px; text-anchor: start" transform="rotate(45,360,0)">10:05:44</text>
<polyline points="642,0 642,-200" style="vector-effect: non-scaling-stroke; stroke: #202020" transform="scale(0.672897,1)"/>
<text x="432" y="10" style="fill: white; stroke: none; font-size: 12px; text-anchor: start" transform="rotate(45,432,0)">10:07:31</text>
<polyline points="749,0 749,-200" style="vector-effect: non-scaling-stroke; stroke: #202020" transform="scale(0.672897,1)"/>
<text x="504" y="10" style="fill: white; stroke: none; font-size: 12px; text-anchor: start" transform="rotate(45,504,0)">10:09:18</text>
<polyline points="856,0 856,-200" style="vector-effect: non-scaling-stroke; stroke: #202020" transform="scale(0.672897,1)"/>
<text x="576" y="10" style="fill: white; stroke: none; font-size: 12px; text-anchor: start" transform="rotate(45,576,0)">10:11:05</text>
<polyline points="963,0 963,-200" style="vector-effect: non-scaling-stroke; stroke: #202020" transform="scale(0.672897,1)"/>
<text x="648" y="10" style="fill: white; stroke: none; font-size: 12px; text-anchor: start" transform="rotate(45,648,0)">10:12:52</text>
<polyline points="1070,0 1070,-200" style="vector-effect: non-scaling-stroke; stroke: #202020" transform="scale(0.672897,1)"/>
<text x="720" y="10" style="fill: white; stroke: none; font-size: 12px; text-anchor: start" transform="rotate(45,720,0)">10:14:39</text>
<text x="-10" y="30" style="fill: yellow; stroke: none; font-size: 12px; text-anchor: end">UTC</text>
<path id="g11p0" d=" M1,0.00 L2,0.00 L3,156.00 L4,16.00 L5,0.00 L6,0.00 L7,0.00 L8,0.00 L9,203.00 L10,1.00 L11,0.00 L12,0.00 L13,0.00 L14,0.00 L15,0.00 L16,0.00 L17,0.00 L18,0.00 L19,0.00 L20,0.00 L21,0.00 L22,0.00 L23,0.00 L24,0.00 L25,0.00 L26,0.00 L27,0.00 L28,0.00 L29,0.00 L30,0.00 L31,0.00 L32,0.00 L33,0.00 L34,2.00 L35,0.00 L36,0.00 L37,0.00 L38,0.00 L39,3.00 L40,4.00 L41,0.00 L42,0.00 L43,0.00 L44,1.00 L45,0.00 L46,0.00 L47,0.00 L48,0.00 L49,0.00 L50,0.00 L51,0.00 L52,0.00 L53,0.00 L54,0.00 L55,0.00 L56,0.00 L57,0.00 L58,0.00 L59,0.00 L60,0.00 L61,0.00 L62,0.00 L63,0.00 L64,0.00 L65,0.00 L66,0.00 L67,0.00 L68,0.00 L69,19.00 L70,2.00 L71,0.00 L72,0.00 L73,0.00 L74,0.00 L75,0.00 L76,0.00 L77,0.00 L78,0.00 L79,0.00 L80,0.00 L81,0.00 L82,0.00 L83,0.00 L84,0.00 L85,0.00 L86,0.00 L87,0.00 L88,0.00 L89,0.00 L90,0.00 L91,0.00 L92,0.00 L93,0.00 L94,0.00 L95,0.00 L96,0.00 L97,0.00 L98,0.00 L99,0.00 L100,9.00 L101,0.00 L102,0.00 L103,0.00 L104,0.00 L105,5.00 L106,0.00 L107,0.00 L108,0.00 L109,0.00 L110,0.00 L111,0.00 L112,0.00 L113,0.00 L114,0.00 L115,0.00 L116,0.00 L117,0.00 L118,0.00 L119,0.00 L120,0.00 L121,0.00 L122,0.00 L123,0.00 L124,0.00 L125,0.00 L126,0.00 L127,0.00 L128,0.00 L129,0.00 L130,2.00 L131,0.00 L132,0.00 L133,0.00 L134,0.00 L135,0.00 L136,2.00 L137,0.00 L138,0.00 L139,0.00 L140,0.00 L141,0.00 L142,0.00 L143,0.00 L144,0.00 L145,4.00 L146,1.00 L147,0.00 L148,0.00 L149,0.00 L150,0.00 L151,0.00 L152,0.00 L153,0.00 L154,0.00 L155,0.00 L156,0.00 L157,0.00 L158,0.00 L159,0.00 L160,5.00 L161,0.00 L162,0.00 L163,0.00 L164,0.00 L165,0.00 L166,0.00 L167,0.00 L168,0.00 L169,0.00 L170,0.00 L171,0.00 L172,0.00 L173,0.00 L174,0.00 L175,0.00 L176,1.00 L177,0.00 L178,0.00 L179,0.00 L180,0.00 L181,0.00 L182,0.00 L183,0.00 L184,0.00 L185,0.00 L186,0.00 L187,0.00 L188,0.00 L189,0.00 L190,3.00 L191,0.00 L192,0.00 L193,0.00 L194,0.00 L195,0.00 L196,0.00 L197,0.00 L198,0.00 L199,0.00 L200,0.00 L201,0.00 L202,0.00 L203,0.00 L204,0.00 L205,0.00 L206,0.00 L207,1.00 L208,0.00 L209,0.00 L210,0.00 L211,0.00 L212,0.00 L213,0.00 L214,0.00 L215,0.00 L216,0.00 L217,0.00 L218,0.00 L219,0.00 L220,2.00 L221,0.00 L222,0.00 L223,0.00 L224,0.00 L225,0.00 L226,0.00 L227,0.00 L228,0.00 L229,0.00 L230,0.00 L231,0.00 L232,0.00 L233,0.00 L234,0.00 L235,0.00 L236,0.00 L237,3.00 L238,0.00 L239,0.00 L240,0.00 L241,0.00 L242,1.00 L243,0.00 L244,0.00 L245,0.00 L246,0.00 L247,0.00 L248,0.00 L249,0.00 L250,2.00 L251,0.00 L252,10.00 L253,0.00 L254,0.00 L255,0.00 L256,0.00 L257,0.00 L258,0.00 L259,0.00 L260,0.00 L261,0.00 L262,0.00 L263,0.00 L264,0.00 L265,0.00 L266,0.00 L267,0.00 L268,0.00 L269,0.00 L270,0.00 L271,0.00 L272,0.00 L273,2.00 L274,0.00 L275,0.00 L276,0.00 L277,0.00 L278,0.00 L279,0.00 L280,3.00 L281,0.00 L282,0.00 L283,4.00 L284,0.00 L285,0.00 L286,0.00 L287,0.00 L288,0.00 L289,0.00 L290,0.00 L291,0.00 L292,0.00 L293,0.00 L294,0.00 L295,0.00 L296,0.00 L297,0.00 L298,0.00 L299,0.00 L300,0.00 L301,0.00 L302,0.00 L303,0.00 L304,0.00 L305,0.00 L306,0.00 L307,0.00 L308,1.00 L309,0.00 L310,16.00 L311,0.00 L312,0.00 L313,0.00 L314,0.00 L315,0.00 L316,0.00 L317,0.00 L318,0.00 L319,0.00 L320,0.00 L321,0.00 L322,0.00 L323,0.00 L324,0.00 L325,0.00 L326,0.00 L327,0.00 L328,0.00 L329,0.00 L330,0.00 L331,0.00 L332,0.00 L333,0.00 L334,0.00 L335,0.00 L336,0.00 L337,0.00 L338,0.00 L339,1.00 L340,9.00 L341,0.00 L342,0.00 L343,0.00 L344,0.00 L345,0.00 L346,0.00 L347,0.00 L348,0.00 L349,0.00 L350,0.00 L351,0.00 L352,0.00 L353,0.00 L354,0.00 L355,0.00 L356,0.00 L357,0.00 L358,0.00 L359,0.00 L360,0.00 L361,0.00 L362,0.00 L363,0.00 L364,0.00 L365,0.00 L366,0.00 L367,0.00 L368,0.00 L369,0.00 L370,3.00 L371,0.00 L372,0.00 L373,0.00 L374,0.00 L375,0.00 L376,0.00 L377,0.00 L378,0.00 L379,0.00 L380,0.00 L381,0.00 L382,0.00 L383,0.00 L384,0.00 L385,0.00 L386,0.00 L387,0.00 L388,0.00 L389,0.00 L390,0.00 L391,0.00 L392,0.00 L393,0.00 L394,0.00 L395,0.00 L396,0.00 L397,0.00 L398,0.00 L399,0.00 L400,2.00 L401,1.00 L402,0.00 L403,0.00 L404,0.00 L405,0.00 L406,0.00 L407,0.00 L408,0.00 L409,0.00 L410,0.00 L411,0.00 L412,0.00 L413,0.00 L414,0.00 L415,0.00 L416,0.00 L417,0.00 L418,0.00 L419,0.00 L420,0.00 L421,0.00 L422,0.00 L423,0.00 L424,0.00 L425,0.00 L426,0.00 L427,0.00 L428,0.00 L429,0.00 L430,2.00 L431,0.00 L432,1.00 L433,0.00 L434,0.00 L435,0.00 L436,0.00 L437,0.00 L438,0.00 L439,0.00 L440,0.00 L441,0.00 L442,0.00 L443,0.00 L444,0.00 L445,0.00 L446,0.00 L447,0.00 L448,0.00 L449,0.00 L450,0.00 L451,0.00 L452,0.00 L453,0.00 L454,0.00 L455,0.00 L456,0.00 L457,0.00 L458,0.00 L459,0.00 L460,2.00 L461,2.00 L462,0.00 L463,1.00 L464,0.00 L465,0.00 L466,0.00 L467,0.00 L468,0.00 L469,0.00 L470,0.00 L471,0.00 L472,0.00 L473,0.00 L474,0.00 L475,0.00 L476,0.00 L477,0.00 L478,0.00 L479,0.00 L480,0.00 L481,0.00 L482,0.00 L483,0.00 L484,0.00 L485,0.00 L486,0.00 L487,0.00 L488,0.00 L489,0.00 L490,0.00 L491,2.00 L492,0.00 L493,0.00 L494,1.00 L495,0.00 L496,0.00 L497,0.00 L498,0.00 L499,0.00 L500,0.00 L501,0.00 L502,0.00 L503,0.00 L504,0.00 L505,0.00 L506,0.00 L507,0.00 L508,0.00 L509,0.00 L510,0.00 L511,0.00 L512,0.00 L513,0.00 L514,0.00 L515,0.00 L516,0.00 L517,0.00 L518,0.00 L519,0.00 L520,0.00 L521,2.00 L522,0.00 L523,0.00 L524,0.00 L525,2.00 L526,0.00 L527,0.00 L528,0.00 L529,0.00 L530,0.00 L531,0.00 L532,0.00 L533,0.00 L534,0.00 L535,0.00 L536,0.00 L537,0.00 L538,0.00 L539,0.00 L540,0.00 L541,0.00 L542,0.00 L543,0.00 L544,0.00 L545,0.00 L546,0.00 L547,0.00 L548,0.00 L549,0.00 L550,0.00 L551,2.00 L552,0.00 L553,0.00 L554,0.00 L555,0.00 L556,1.00 L557,0.00 L558,0.00 L559,0.00 L560,0.00 L561,0.00 L562,0.00 L563,0.00 L564,0.00 L565,0.00 L566,0.00 L567,0.00 L568,0.00 L569,0.00 L570,0.00 L571,0.00 L572,0.00 L573,0.00 L574,0.00 L575,0.00 L576,0.00 L577,0.00 L578,0.00 L579,0.00 L580,0.00 L581,4.00 L582,0.00 L583,0.00 L584,0.00 L585,0.00 L586,0.00 L587,1.00 L588,0.00 L589,0.00 L590,0.00 L591,0.00 L592,0.00 L593,0.00 L594,0.00 L595,0.00 L596,0.00 L597,5.00 L598,1.00 L599,2.00 L600,0.00 L601,0.00 L602,0.00 L603,0.00 L604,0.00 L605,0.00 L606,0.00 L607,0.00 L608,0.00 L609,0.00 L610,0.00 L611,8.00 L612,0.00 L613,0.00 L614,0.00 L615,0.00 L616,0.00 L617,0.00 L618,0.00 L619,5.00 L620,0.00 L621,0.00 L622,0.00 L623,5.00 L624,0.00 L625,0.00 L626,0.00 L627,0.00 L628,0.00 L629,0.00 L630,0.00 L631,0.00 L632,0.00 L633,0.00 L634,0.00 L635,0.00 L636,0.00 L637,0.00 L638,0.00 L639,0.00 L640,0.00 L641,4.00 L642,0.00 L643,0.00 L644,0.00 L645,0.00 L646,0.00 L647,0.00 L648,0.00 L649,0.00 L650,0.00 L651,0.00 L652,0.00 L653,0.00 L654,1.00 L655,0.00 L656,0.00 L657,0.00 L658,0.00 L659,0.00 L660,0.00 L661,0.00 L662,0.00 L663,0.00 L664,0.00 L665,0.00 L666,0.00 L667,0.00 L668,0.00 L669,0.00 L670,0.00 L671,3.00 L672,0.00 L673,0.00 L674,0.00 L675,0.00 L676,0.00 L677,0.00 L678,0.00 L679,0.00 L680,0.00 L681,0.00 L682,0.00 L683,0.00 L684,0.00 L685,1.00 L686,0.00 L687,0.00 L688,0.00 L689,0.00 L690,0.00 L691,0.00 L692,0.00 L693,0.00 L694,5.00 L695,0.00 L696,0.00 L697,0.00 L698,0.00 L699,0.00 L700,0.00 L701,2.00 L702,0.00 L703,0.00 L704,0.00 L705,5.00 L706,0.00 L707,0.00 L708,0.00 L709,0.00 L710,0.00 L711,0.00 L712,0.00 L713,0.00 L714,0.00 L715,0.00 L716,0.00 L717,0.00 L718,0.00 L719,0.00 L720,0.00 L721,0.00 L722,0.00 L723,0.00 L724,0.00 L725,0.00 L726,0.00 L727,0.00 L728,0.00 L729,0.00 L730,0.00 L731,2.97 L732,0.00 L733,0.00 L734,0.00 L735,0.00 L736,1.00 L737,0.00 L738,0.00 L739,0.00 L740,0.00 L741,0.00 L742,0.00 L743,0.00 L744,0.00 L745,0.00 L746,0.00 L747,0.00 L748,0.00 L749,0.00 L750,0.00 L751,0.00 L752,0.00 L753,0.00 L754,0.00 L755,0.00 L756,0.00 L757,0.00 L758,0.00 L759,0.00 L760,0.00 L761,3.00 L762,0.00 L763,0.00 L764,0.00 L765,0.00 L766,0.00 L767,1.00 L768,0.00 L769,0.00 L770,0.00 L771,0.00 L772,0.00 L773,0.00 L774,0.00 L775,0.00 L776,0.00 L777,0.00 L778,0.00 L779,0.00 L780,0.00 L781,0.00 L782,0.00 L783,0.00 L784,0.00 L785,0.00 L786,0.00 L787,0.00 L788,0.00 L789,0.00 L790,0.00 L791,2.00 L792,7.00 L793,0.00 L794,0.00 L795,0.00 L796,0.00 L797,0.00 L798,0.00 L799,0.00 L800,0.00 L801,0.00 L802,0.00 L803,0.00 L804,0.00 L805,0.00 L806,0.00 L807,0.00 L808,0.00 L809,0.00 L810,0.00 L811,0.00 L812,0.00 L813,0.00 L814,0.00 L815,0.00 L816,0.00 L817,0.00 L818,0.00 L819,0.00 L820,0.00 L821,2.00 L822,0.00 L823,1.00 L824,0.00 L825,0.00 L826,0.00 L827,0.00 L828,0.00 L829,0.00 L830,0.00 L831,0.00 L832,0.00 L833,0.00 L834,0.00 L835,0.00 L836,0.00 L837,0.00 L838,4.00 L839,0.00 L840,0.00 L841,0.00 L842,0.00 L843,0.00 L844,0.00 L845,0.00 L846,0.00 L847,0.00 L848,0.00 L849,0.00 L850,0.00 L851,1.00 L852,4.00 L853,0.00 L854,0.00 L855,0.00 L856,0.00 L857,0.00 L858,1.00 L859,0.00 L860,0.00 L861,0.00 L862,0.00 L863,0.00 L864,0.00 L865,0.00 L866,0.00 L867,0.00 L868,0.00 L869,0.00 L870,0.00 L871,0.00 L872,0.00 L873,0.00 L874,0.00 L875,0.00 L876,0.00 L877,0.00 L878,0.00 L879,0.00 L880,0.00 L881,0.00 L882,7.00 L883,0.00 L884,0.00 L885,0.00 L886,0.00 L887,0.00 L888,0.00 L889,1.00 L890,0.00 L891,0.00 L892,0.00 L893,0.00 L894,0.00 L895,0.00 L896,0.00 L897,0.00 L898,0.00 L899,0.00 L900,0.00 L901,0.00 L902,0.00 L903,0.00 L904,0.00 L905,0.00 L906,0.00 L907,0.00 L908,0.00 L909,0.00 L910,0.00 L911,0.00 L912,2.00 L913,0.00 L914,0.00 L915,0.00 L916,0.00 L917,0.00 L918,0.00 L919,4.00 L920,0.00 L921,0.00 L922,0.00 L923,0.00 L924,1.00 L925,0.00 L926,0.00 L927,0.00 L928,0.00 L929,0.00 L930,0.00 L931,0.00 L932,5.00 L933,0.00 L934,0.00 L935,0.00 L936,0.00 L937,0.00 L938,0.00 L939,0.00 L940,0.00 L941,0.00 L942,13.00 L943,0.00 L944,0.00 L945,0.00 L946,0.00 L947,0.00 L948,0.00 L949,0.00 L950,0.00 L951,0.00 L952,0.00 L953,0.00 L954,0.00 L955,0.00 L956,0.00 L957,0.00 L958,0.00 L959,0.00 L960,0.00 L961,0.00 L962,403.00 L963,175.00 L964,828.00 L965,0.00 L966,274.00 L967,0.00 L968,0.00 L969,0.00 L970,0.00 L971,0.00 L972,5.00 L973,0.00 L974,0.00 L975,0.00 L976,0.00 L977,0.00 L978,0.00 L979,0.00 L980,0.00 L981,11.00 L982,0.00 L983,0.00 L984,0.00 L985,0.00 L986,149.00 L987,308.00 L988,211.00 L989,2303.00 L990,0.00 L991,0.00 L992,0.00 L993,0.00 L994,0.00 L995,1061.00 L996,2984.00 L997,0.00 L998,0.00 L999,0.00 L1000,0.00 L1001,0.00 L1002,0.00 L1003,0.00 L1004,0.00 L1005,0.00 L1006,0.00 L1007,76.00 L1008,271.00 L1009,714.00 L1010,0.00 L1011,476.00 L1012,2.00 L1013,2585.00 L1014,1.00 L1015,0.00 L1016,0.00 L1017,0.00 L1018,0.00 L1019,0.00 L1020,0.00 L1021,4152.00 L1022,0.00 L1023,0.00 L1024,0.00 L1025,0.00 L1026,0.00 L1027,0.00 L1028,0.00 L1029,0.00 L1030,0.00 L1031,0.00 L1032,0.00 L1033,1853.00 L1034,0.00 L1035,0.00 L1036,0.00 L1037,0.00 L1038,226.00 L1039,235.00 L1040,632.00 L1041,0.00 L1042,291.00 L1043,215.00 L1044,620.00 L1045,0.00 L1046,1257.00 L1047,0.00 L1048,0.00 L1049,140.00 L1050,153.00 L1051,2502.00 L1052,0.00 L1053,0.00 L1054,0.00 L1055,0.00 L1056,0.00 L1057,0.00 L1058,122.00 L1059,2249.00 L1060,1342.00 L1061,0.00 L1062,0.00 L1063,0.00 L1064,0.00 L1065,0.00 L1066,0.00 L1067,0.00 L1068,0.00 L1069,0.00 L1070,231.00" style="vector-effect: non-scaling-stroke; stroke: #00cc00; stroke-width: 1; fill-opacity: 0" transform="scale(0.672897,-0.048170)"/>
<path id="g11p1" d=" M1,0.00 L2,0.00 L3,3.00 L4,11.00 L5,0.00 L6,0.00 L7,0.00 L8,0.00 L9,2.00 L10,0.00 L11,0.00 L12,0.00 L13,0.00 L14,0.00 L15,0.00 L16,0.00 L17,0.00 L18,0.00 L19,0.00 L20,0.00 L21,0.00 L22,0.00 L23,0.00 L24,0.00 L25,0.00 L26,0.00 L27,0.00 L28,0.00 L29,0.00 L30,0.00 L31,0.00 L32,0.00 L33,0.00 L34,0.00 L35,0.00 L36,0.00 L37,0.00 L38,0.00 L39,0.00 L40,0.00 L41,0.00 L42,0.00 L43,0.00 L44,0.00 L45,0.00 L46,0.00 L47,0.00 L48,0.00 L49,0.00 L50,0.00 L51,0.00 L52,0.00 L53,0.00 L54,0.00 L55,0.00 L56,0.00 L57,0.00 L58,0.00 L59,0.00 L60,0.00 L61,0.00 L62,0.00 L63,0.00 L64,0.00 L65,0.00 L66,0.00 L67,0.00 L68,0.00 L69,0.00 L70,0.00 L71,0.00 L72,0.00 L73,0.00 L74,0.00 L75,0.00 L76,0.00 L77,0.00 L78,0.00 L79,0.00 L80,0.00 L81,0.00 L82,0.00 L83,0.00 L84,0.00 L85,0.00 L86,0.00 L87,0.00 L88,0.00 L89,0.00 L90,0.00 L91,0.00 L92,0.00 L93,0.00 L94,0.00 L95,0.00 L96,0.00 L97,0.00 L98,0.00 L99,0.00 L100,0.00 L101,0.00 L102,0.00 L103,0.00 L104,0.00 L105,2.00 L106,0.00 L107,0.00 L108,0.00 L109,0.00 L110,0.00 L111,0.00 L112,0.00 L113,0.00 L114,0.00 L115,0.00 L116,0.00 L117,0.00 L118,0.00 L119,0.00 L120,0.00 L121,0.00 L122,0.00 L123,0.00 L124,0.00 L125,0.00 L126,0.00 L127,0.00 L128,0.00 L129,0.00 L130,0.00 L131,0.00 L132,0.00 L133,0.00 L134,0.00 L135,0.00 L136,0.00 L137,0.00 L138,0.00 L139,0.00 L140,0.00 L141,0.00 L142,0.00 L143,0.00 L144,0.00 L145,1.00 L146,1.00 L147,0.00 L148,0.00 L149,0.00 L150,0.00 L151,0.00 L152,0.00 L153,0.00 L154,0.00 L155,0.00 L156,0.00 L157,0.00 L158,0.00 L159,0.00 L160,0.00 L161,0.00 L162,0.00 L163,0.00 L164,0.00 L165,0.00 L166,0.00 L167,0.00 L168,0.00 L169,0.00 L170,0.00 L171,0.00 L172,0.00 L173,0.00 L174,0.00 L175,0.00 L176,0.00 L177,0.00 L178,0.00 L179,0.00 L180,0.00 L181,0.00 L182,0.00 L183,0.00 L184,0.00 L185,0.00 L186,0.00 L187,0.00 L188,0.00 L189,0.00 L190,0.00 L191,0.00 L192,0.00 L193,0.00 L194,0.00 L195,0.00 L196,0.00 L197,0.00 L198,0.00 L199,0.00 L200,0.00 L201,0.00 L202,0.00 L203,0.00 L204,0.00 L205,0.00 L206,0.00 L207,0.00 L208,0.00 L209,0.00 L210,0.00 L211,0.00 L212,0.00 L213,0.00 L214,0.00 L215,0.00 L216,0.00 L217,0.00 L218,0.00 L219,0.00 L220,0.00 L221,0.00 L222,0.00 L223,0.00 L224,0.00 L225,0.00 L226,0.00 L227,0.00 L228,0.00 L229,0.00 L230,0.00 L231,0.00 L232,0.00 L233,0.00 L234,0.00 L235,0.00 L236,0.00 L237,0.00 L238,0.00 L239,0.00 L240,0.00 L241,0.00 L242,0.00 L243,0.00 L244,0.00 L245,0.00 L246,0.00 L247,0.00 L248,0.00 L249,0.00 L250,0.00 L251,0.00 L252,10.00 L253,0.00 L254,0.00 L255,0.00 L256,0.00 L257,0.00 L258,0.00 L259,0.00 L260,0.00 L261,0.00 L262,0.00 L263,0.00 L264,0.00 L265,0.00 L266,0.00 L267,0.00 L268,0.00 L269,0.00 L270,0.00 L271,0.00 L272,0.00 L273,0.00 L274,0.00 L275,0.00 L276,0.00 L277,0.00 L278,0.00 L279,0.00 L280,0.00 L281,0.00 L282,0.00 L283,0.00 L284,0.00 L285,0.00 L286,0.00 L287,0.00 L288,0.00 L289,0.00 L290,0.00 L291,0.00 L292,0.00 L293,0.00 L294,0.00 L295,0.00 L296,0.00 L297,0.00 L298,0.00 L299,0.00 L300,0.00 L301,0.00 L302,0.00 L303,0.00 L304,0.00 L305,0.00 L306,0.00 L307,0.00 L308,0.00 L309,0.00 L310,0.00 L311,0.00 L312,0.00 L313,0.00 L314,0.00 L315,0.00 L316,0.00 L317,0.00 L318,0.00 L319,0.00 L320,0.00 L321,0.00 L322,0.00 L323,0.00 L324,0.00 L325,0.00 L326,0.00 L327,0.00 L328,0.00 L329,0.00 L330,0.00 L331,0.00 L332,0.00 L333,0.00 L334,0.00 L335,0.00 L336,0.00 L337,0.00 L338,0.00 L339,0.00 L340,0.00 L341,0.00 L342,0.00 L343,0.00 L344,0.00 L345,0.00 L346,0.00 L347,0.00 L348,0.00 L349,0.00 L350,0.00 L351,0.00 L352,0.00 L353,0.00 L354,0.00 L355,0.00 L356,0.00 L357,0.00 L358,0.00 L359,0.00 L360,0.00 L361,0.00 L362,0.00 L363,0.00 L364,0.00 L365,0.00 L366,0.00 L367,0.00 L368,0.00 L369,0.00 L370,0.00 L371,0.00 L372,0.00 L373,0.00 L374,0.00 L375,0.00 L376,0.00 L377,0.00 L378,0.00 L379,0.00 L380,0.00 L381,0.00 L382,0.00 L383,0.00 L384,0.00 L385,0.00 L386,0.00 L387,0.00 L388,0.00 L389,0.00 L390,0.00 L391,0.00 L392,0.00 L393,0.00 L394,0.00 L395,0.00 L396,0.00 L397,0.00 L398,0.00 L399,0.00 L400,0.00 L401,0.00 L402,0.00 L403,0.00 L404,0.00 L405,0.00 L406,0.00 L407,0.00 L408,0.00 L409,0.00 L410,0.00 L411,0.00 L412,0.00 L413,0.00 L414,0.00 L415,0.00 L416,0.00 L417,0.00 L418,0.00 L419,0.00 L420,0.00 L421,0.00 L422,0.00 L423,0.00 L424,0.00 L425,0.00 L426,0.00 L427,0.00 L428,0.00 L429,0.00 L430,0.00 L431,0.00 L432,0.00 L433,0.00 L434,0.00 L435,0.00 L436,0.00 L437,0.00 L438,0.00 L439,0.00 L440,0.00 L441,0.00 L442,0.00 L443,0.00 L444,0.00 L445,0.00 L446,0.00 L447,0.00 L448,0.00 L449,0.00 L450,0.00 L451,0.00 L452,0.00 L453,0.00 L454,0.00 L455,0.00 L456,0.00 L457,0.00 L458,0.00 L459,0.00 L460,0.00 L461,0.00 L462,0.00 L463,0.00 L464,0.00 L465,0.00 L466,0.00 L467,0.00 L468,0.00 L469,0.00 L470,0.00 L471,0.00 L472,0.00 L473,0.00 L474,0.00 L475,0.00 L476,0.00 L477,0.00 L478,0.00 L479,0.00 L480,0.00 L481,0.00 L482,0.00 L483,0.00 L484,0.00 L485,0.00 L486,0.00 L487,0.00 L488,0.00 L489,0.00 L490,0.00 L491,0.00 L492,0.00 L493,0.00 L494,0.00 L495,0.00 L496,0.00 L497,0.00 L498,0.00 L499,0.00 L500,0.00 L501,0.00 L502,0.00 L503,0.00 L504,0.00 L505,0.00 L506,0.00 L507,0.00 L508,0.00 L509,0.00 L510,0.00 L511,0.00 L512,0.00 L513,0.00 L514,0.00 L515,0.00 L516,0.00 L517,0.00 L518,0.00 L519,0.00 L520,0.00 L521,0.00 L522,0.00 L523,0.00 L524,0.00 L525,0.00 L526,0.00 L527,0.00 L528,0.00 L529,0.00 L530,0.00 L531,0.00 L532,0.00 L533,0.00 L534,0.00 L535,0.00 L536,0.00 L537,0.00 L538,0.00 L539,0.00 L540,0.00 L541,0.00 L542,0.00 L543,0.00 L544,0.00 L545,0.00 L546,0.00 L547,0.00 L548,0.00 L549,0.00 L550,0.00 L551,0.00 L552,0.00 L553,0.00 L554,0.00 L555,0.00 L556,0.00 L557,0.00 L558,0.00 L559,0.00 L560,0.00 L561,0.00 L562,0.00 L563,0.00 L564,0.00 L565,0.00 L566,0.00 L567,0.00 L568,0.00 L569,0.00 L570,0.00 L571,0.00 L572,0.00 L573,0.00 L574,0.00 L575,0.00 L576,0.00 L577,0.00 L578,0.00 L579,0.00 L580,0.00 L581,0.00 L582,0.00 L583,0.00 L584,0.00 L585,0.00 L586,0.00 L587,0.00 L588,0.00 L589,0.00 L590,0.00 L591,0.00 L592,0.00 L593,0.00 L594,0.00 L595,0.00 L596,0.00 L597,2.00 L598,1.00 L599,2.00 L600,0.00 L601,0.00 L602,0.00 L603,0.00 L604,0.00 L605,0.00 L606,0.00 L607,0.00 L608,0.00 L609,0.00 L610,0.00 L611,0.00 L612,0.00 L613,0.00 L614,0.00 L615,0.00 L616,0.00 L617,0.00 L618,0.00 L619,2.00 L620,0.00 L621,0.00 L622,0.00 L623,2.00 L624,0.00 L625,0.00 L626,0.00 L627,0.00 L628,0.00 L629,0.00 L630,0.00 L631,0.00 L632,0.00 L633,0.00 L634,0.00 L635,0.00 L636,0.00 L637,0.00 L638,0.00 L639,0.00 L640,0.00 L641,0.00 L642,0.00 L643,0.00 L644,0.00 L645,0.00 L646,0.00 L647,0.00 L648,0.00 L649,0.00 L650,0.00 L651,0.00 L652,0.00 L653,0.00 L654,0.00 L655,0.00 L656,0.00 L657,0.00 L658,0.00 L659,0.00 L660,0.00 L661,0.00 L662,0.00 L663,0.00 L664,0.00 L665,0.00 L666,0.00 L667,0.00 L668,0.00 L669,0.00 L670,0.00 L671,0.00 L672,0.00 L673,0.00 L674,0.00 L675,0.00 L676,0.00 L677,0.00 L678,0.00 L679,0.00 L680,0.00 L681,0.00 L682,0.00 L683,0.00 L684,0.00 L685,0.00 L686,0.00 L687,0.00 L688,0.00 L689,0.00 L690,0.00 L691,0.00 L692,0.00 L693,0.00 L694,2.00 L695,0.00 L696,0.00 L697,0.00 L698,0.00 L699,0.00 L700,0.00 L701,0.00 L702,0.00 L703,0.00 L704,0.00 L705,2.00 L706,0.00 L707,0.00 L708,0.00 L709,0.00 L710,0.00 L711,0.00 L712,0.00 L713,0.00 L714,0.00 L715,0.00 L716,0.00 L717,0.00 L718,0.00 L719,0.00 L720,0.00 L721,0.00 L722,0.00 L723,0.00 L724,0.00 L725,0.00 L726,0.00 L727,0.00 L728,0.00 L729,0.00 L730,0.00 L731,0.00 L732,0.00 L733,0.00 L734,0.00 L735,0.00 L736,0.00 L737,0.00 L738,0.00 L739,0.00 L740,0.00 L741,0.00 L742,0.00 L743,0.00 L744,0.00 L745,0.00 L746,0.00 L747,0.00 L748,0.00 L749,0.00 L750,0.00 L751,0.00 L752,0.00 L753,0.00 L754,0.00 L755,0.00 L756,0.00 L757,0.00 L758,0.00 L759,0.00 L760,0.00 L761,0.00 L762,0.00 L763,0.00 L764,0.00 L765,0.00 L766,0.00 L767,0.00 L768,0.00 L769,0.00 L770,0.00 L771,0.00 L772,0.00 L773,0.00 L774,0.00 L775,0.00 L776,0.00 L777,0.00 L778,0.00 L779,0.00 L780,0.00 L781,0.00 L782,0.00 L783,0.00 L784,0.00 L785,0.00 L786,0.00 L787,0.00 L788,0.00 L789,0.00 L790,0.00 L791,0.00 L792,4.00 L793,0.00 L794,0.00 L795,0.00 L796,0.00 L797,0.00 L798,0.00 L799,0.00 L800,0.00 L801,0.00 L802,0.00 L803,0.00 L804,0.00 L805,0.00 L806,0.00 L807,0.00 L808,0.00 L809,0.00 L810,0.00 L811,0.00 L812,0.00 L813,0.00 L814,0.00 L815,0.00 L816,0.00 L817,0.00 L818,0.00 L819,0.00 L820,0.00 L821,0.00 L822,0.00 L823,0.00 L824,0.00 L825,0.00 L826,0.00 L827,0.00 L828,0.00 L829,0.00 L830,0.00 L831,0.00 L832,0.00 L833,0.00 L834,0.00 L835,0.00 L836,0.00 L837,0.00 L838,0.00 L839,0.00 L840,0.00 L841,0.00 L842,0.00 L843,0.00 L844,0.00 L845,0.00 L846,0.00 L847,0.00 L848,0.00 L849,0.00 L850,0.00 L851,0.00 L852,0.00 L853,0.00 L854,0.00 L855,0.00 L856,0.00 L857,0.00 L858,0.00 L859,0.00 L860,0.00 L861,0.00 L862,0.00 L863,0.00 L864,0.00 L865,0.00 L866,0.00 L867,0.00 L868,0.00 L869,0.00 L870,0.00 L871,0.00 L872,0.00 L873,0.00 L874,0.00 L875,0.00 L876,0.00 L877,0.00 L878,0.00 L879,0.00 L880,0.00 L881,0.00 L882,0.00 L883,0.00 L884,0.00 L885,0.00 L886,0.00 L887,0.00 L888,0.00 L889,0.00 L890,0.00 L891,0.00 L892,0.00 L893,0.00 L894,0.00 L895,0.00 L896,0.00 L897,0.00 L898,0.00 L899,0.00 L900,0.00 L901,0.00 L902,0.00 L903,0.00 L904,0.00 L905,0.00 L906,0.00 L907,0.00 L908,0.00 L909,0.00 L910,0.00 L911,0.00 L912,0.00 L913,0.00 L914,0.00 L915,0.00 L916,0.00 L917,0.00 L918,0.00 L919,0.00 L920,0.00 L921,0.00 L922,0.00 L923,0.00 L924,0.00 L925,0.00 L926,0.00 L927,0.00 L928,0.00 L929,0.00 L930,0.00 L931,0.00 L932,2.00 L933,0.00 L934,0.00 L935,0.00 L936,0.00 L937,0.00 L938,0.00 L939,0.00 L940,0.00 L941,0.00 L942,0.00 L943,0.00 L944,0.00 L945,0.00 L946,0.00 L947,0.00 L948,0.00 L949,0.00 L950,0.00 L951,0.00 L952,0.00 L953,0.00 L954,0.00 L955,0.00 L956,0.00 L957,0.00 L958,0.00 L959,0.00 L960,0.00 L961,0.00 L962,0.00 L963,0.00 L964,0.00 L965,0.00 L966,0.00 L967,0.00 L968,0.00 L969,0.00 L970,0.00 L971,0.00 L972,0.00 L973,0.00 L974,0.00 L975,0.00 L976,0.00 L977,0.00 L978,0.00 L979,0.00 L980,0.00 L981,0.00 L982,0.00 L983,0.00 L984,0.00 L985,0.00 L986,0.00 L987,0.00 L988,0.00 L989,0.00 L990,0.00 L991,0.00 L992,0.00 L993,0.00 L994,0.00 L995,0.00 L996,0.00 L997,0.00 L998,0.00 L999,0.00 L1000,0.00 L1001,0.00 L1002,0.00 L1003,0.00 L1004,0.00 L1005,0.00 L1006,0.00 L1007,0.00 L1008,0.00 L1009,0.00 L1010,0.00 L1011,0.00 L1012,0.00 L1013,0.00 L1014,0.00 L1015,0.00 L1016,0.00 L1017,0.00 L1018,0.00 L1019,0.00 L1020,0.00 L1021,0.00 L1022,0.00 L1023,0.00 L1024,0.00 L1025,0.00 L1026,0.00 L1027,0.00 L1028,0.00 L1029,0.00 L1030,0.00 L1031,0.00 L1032,0.00 L1033,0.00 L1034,0.00 L1035,0.00 L1036,0.00 L1037,0.00 L1038,0.00 L1039,0.00 L1040,0.00 L1041,0.00 L1042,0.00 L1043,0.00 L1044,0.00 L1045,0.00 L1046,0.00 L1047,0.00 L1048,0.00 L1049,0.00 L1050,0.00 L1051,0.00 L1052,0.00 L1053,0.00 L1054,0.00 L1055,0.00 L1056,0.00 L1057,0.00 L1058,0.00 L1059,0.00 L1060,0.00 L1061,0.00 L1062,0.00 L1063,0.00 L1064,0.00 L1065,0.00 L1066,0.00 L1067,0.00 L1068,0.00 L1069,0.00 L1070,0.00" style="vector-effect: non-scaling-stroke; stroke: #ff00bf; stroke-width: 1; fill-opacity: 0" transform="scale(0.672897,-0.048170)"/>
<path id="g11p2" d=" M1,0.00 L2,0.00 L3,153.00 L4,5.00 L5,0.00 L6,0.00 L7,0.00 L8,0.00 L9,201.00 L10,1.00 L11,0.00 L12,0.00 L13,0.00 L14,0.00 L15,0.00 L16,0.00 L17,0.00 L18,0.00 L19,0.00 L20,0.00 L21,0.00 L22,0.00 L23,0.00 L24,0.00 L25,0.00 L26,0.00 L27,0.00 L28,0.00 L29,0.00 L30,0.00 L31,0.00 L32,0.00 L33,0.00 L34,2.00 L35,0.00 L36,0.00 L37,0.00 L38,0.00 L39,3.00 L40,4.00 L41,0.00 L42,0.00 L43,0.00 L44,1.00 L45,0.00 L46,0.00 L47,0.00 L48,0.00 L49,0.00 L50,0.00 L51,0.00 L52,0.00 L53,0.00 L54,0.00 L55,0.00 L56,0.00 L57,0.00 L58,0.00 L59,0.00 L60,0.00 L61,0.00 L62,0.00 L63,0.00 L64,0.00 L65,0.00 L66,0.00 L67,0.00 L68,0.00 L69,19.00 L70,2.00 L71,0.00 L72,0.00 L73,0.00 L74,0.00 L75,0.00 L76,0.00 L77,0.00 L78,0.00 L79,0.00 L80,0.00 L81,0.00 L82,0.00 L83,0.00 L84,0.00 L85,0.00 L86,0.00 L87,0.00 L88,0.00 L89,0.00 L90,0.00 L91,0.00 L92,0.00 L93,0.00 L94,0.00 L95,0.00 L96,0.00 L97,0.00 L98,0.00 L99,0.00 L100,9.00 L101,0.00 L102,0.00 L103,0.00 L104,0.00 L105,3.00 L106,0.00 L107,0.00 L108,0.00 L109,0.00 L110,0.00 L111,0.00 L112,0.00 L113,0.00 L114,0.00 L115,0.00 L116,0.00 L117,0.00 L118,0.00 L119,0.00 L120,0.00 L121,0.00 L122,0.00 L123,0.00 L124,0.00 L125,0.00 L126,0.00 L127,0.00 L128,0.00 L129,0.00 L130,2.00 L131,0.00 L132,0.00 L133,0.00 L134,0.00 L135,0.00 L136,2.00 L137,0.00 L138,0.00 L139,0.00 L140,0.00 L141,0.00 L142,0.00 L143,0.00 L144,0.00 L145,3.00 L146,0.00 L147,0.00 L148,0.00 L149,0.00 L150,0.00 L151,0.00 L152,0.00 L153,0.00 L154,0.00 L155,0.00 L156,0.00 L157,0.00 L158,0.00 L159,0.00 L160,5.00 L161,0.00 L162,0.00 L163,0.00 L164,0.00 L165,0.00 L166,0.00 L167,0.00 L168,0.00 L169,0.00 L170,0.00 L171,0.00 L172,0.00 L173,0.00 L174,0.00 L175,0.00 L176,1.00 L177,0.00 L178,0.00 L179,0.00 L180,0.00 L181,0.00 L182,0.00 L183,0.00 L184,0.00 L185,0.00 L186,0.00 L187,0.00 L188,0.00 L189,0.00 L190,3.00 L191,0.00 L192,0.00 L193,0.00 L194,0.00 L195,0.00 L196,0.00 L197,0.00 L198,0.00 L199,0.00 L200,0.00 L201,0.00 L202,0.00 L203,0.00 L204,0.00 L205,0.00 L206,0.00 L207,1.00 L208,0.00 L209,0.00 L210,0.00 L211,0.00 L212,0.00 L213,0.00 L214,0.00 L215,0.00 L216,0.00 L217,0.00 L218,0.00 L219,0.00 L220,2.00 L221,0.00 L222,0.00 L223,0.00 L224,0.00 L225,0.00 L226,0.00 L227,0.00 L228,0.00 L229,0.00 L230,0.00 L231,0.00 L232,0.00 L233,0.00 L234,0.00 L235,0.00 L236,0.00 L237,3.00 L238,0.00 L239,0.00 L240,0.00 L241,0.00 L242,1.00 L243,0.00 L244,0.00 L245,0.00 L246,0.00 L247,0.00 L248,0.00 L249,0.00 L250,2.00 L251,0.00 L252,0.00 L253,0.00 L254,0.00 L255,0.00 L256,0.00 L257,0.00 L258,0.00 L259,0.00 L260,0.00 L261,0.00 L262,0.00 L263,0.00 L264,0.00 L265,0.00 L266,0.00 L267,0.00 L268,0.00 L269,0.00 L270,0.00 L271,0.00 L272,0.00 L273,2.00 L274,0.00 L275,0.00 L276,0.00 L277,0.00 L278,0.00 L279,0.00 L280,3.00 L281,0.00 L282,0.00 L283,4.00 L284,0.00 L285,0.00 L286,0.00 L287,0.00 L288,0.00 L289,0.00 L290,0.00 L291,0.00 L292,0.00 L293,0.00 L294,0.00 L295,0.00 L296,0.00 L297,0.00 L298,0.00 L299,0.00 L300,0.00 L301,0.00 L302,0.00 L303,0.00 L304,0.00 L305,0.00 L306,0.00 L307,0.00 L308,1.00 L309,0.00 L310,16.00 L311,0.00 L312,0.00 L313,0.00 L314,0.00 L315,0.00 L316,0.00 L317,0.00 L318,0.00 L319,0.00 L320,0.00 L321,0.00 L322,0.00 L323,0.00 L324,0.00 L325,0.00 L326,0.00 L327,0.00 L328,0.00 L329,0.00 L330,0.00 L331,0.00 L332,0.00 L333,0.00 L334,0.00 L335,0.00 L336,0.00 L337,0.00 L338,0.00 L339,1.00 L340,9.00 L341,0.00 L342,0.00 L343,0.00 L344,0.00 L345,0.00 L346,0.00 L347,0.00 L348,0.00 L349,0.00 L350,0.00 L351,0.00 L352,0.00 L353,0.00 L354,0.00 L355,0.00 L356,0.00 L357,0.00 L358,0.00 L359,0.00 L360,0.00 L361,0.00 L362,0.00 L363,0.00 L364,0.00 L365,0.00 L366,0.00 L367,0.00 L368,0.00 L369,0.00 L370,3.00 L371,0.00 L372,0.00 L373,0.00 L374,0.00 L375,0.00 L376,0.00 L377,0.00 L378,0.00 L379,0.00 L380,0.00 L381,0.00 L382,0.00 L383,0.00 L384,0.00 L385,0.00 L386,0.00 L387,0.00 L388,0.00 L389,0.00 L390,0.00 L391,0.00 L392,0.00 L393,0.00 L394,0.00 L395,0.00 L396,0.00 L397,0.00 L398,0.00 L399,0.00 L400,2.00 L401,1.00 L402,0.00 L403,0.00 L404,0.00 L405,0.00 L406,0.00 L407,0.00 L408,0.00 L409,0.00 L410,0.00 L411,0.00 L412,0.00 L413,0.00 L414,0.00 L415,0.00 L416,0.00 L417,0.00 L418,0.00 L419,0.00 L420,0.00 L421,0.00 L422,0.00 L423,0.00 L424,0.00 L425,0.00 L426,0.00 L427,0.00 L428,0.00 L429,0.00 L430,2.00 L431,0.00 L432,1.00 L433,0.00 L434,0.00 L435,0.00 L436,0.00 L437,0.00 L438,0.00 L439,0.00 L440,0.00 L441,0.00 L442,0.00 L443,0.00 L444,0.00 L445,0.00 L446,0.00 L447,0.00 L448,0.00 L449,0.00 L450,0.00 L451,0.00 L452,0.00 L453,0.00 L454,0.00 L455,0.00 L456,0.00 L457,0.00 L458,0.00 L459,0.00 L460,2.00 L461,2.00 L462,0.00 L463,1.00 L464,0.00 L465,0.00 L466,0.00 L467,0.00 L468,0.00 L469,0.00 L470,0.00 L471,0.00 L472,0.00 L473,0.00 L474,0.00 L475,0.00 L476,0.00 L477,0.00 L478,0.00 L479,0.00 L480,0.00 L481,0.00 L482,0.00 L483,0.00 L484,0.00 L485,0.00 L486,0.00 L487,0.00 L488,0.00 L489,0.00 L490,0.00 L491,2.00 L492,0.00 L493,0.00 L494,1.00 L495,0.00 L496,0.00 L497,0.00 L498,0.00 L499,0.00 L500,0.00 L501,0.00 L502,0.00 L503,0.00 L504,0.00 L505,0.00 L506,0.00 L507,0.00 L508,0.00 L509,0.00 L510,0.00 L511,0.00 L512,0.00 L513,0.00 L514,0.00 L515,0.00 L516,0.00 L517,0.00 L518,0.00 L519,0.00 L520,0.00 L521,2.00 L522,0.00 L523,0.00 L524,0.00 L525,2.00 L526,0.00 L527,0.00 L528,0.00 L529,0.00 L530,0.00 L531,0.00 L532,0.00 L533,0.00 L534,0.00 L535,0.00 L536,0.00 L537,0.00 L538,0.00 L539,0.00 L540,0.00 L541,0.00 L542,0.00 L543,0.00 L544,0.00 L545,0.00 L546,0.00 L547,0.00 L548,0.00 L549,0.00 L550,0.00 L551,2.00 L552,0.00 L553,0.00 L554,0.00 L555,0.00 L556,1.00 L557,0.00 L558,0.00 L559,0.00 L560,0.00 L561,0.00 L562,0.00 L563,0.00 L564,0.00 L565,0.00 L566,0.00 L567,0.00 L568,0.00 L569,0.00 L570,0.00 L571,0.00 L572,0.00 L573,0.00 L574,0.00 L575,0.00 L576,0.00 L577,0.00 L578,0.00 L579,0.00 L580,0.00 L581,4.00 L582,0.00 L583,0.00 L584,0.00 L585,0.00 L586,0.00 L587,1.00 L588,0.00 L589,0.00 L590,0.00 L591,0.00 L592,0.00 L593,0.00 L594,0.00 L595,0.00 L596,0.00 L597,3.00 L598,0.00 L599,0.00 L600,0.00 L601,0.00 L602,0.00 L603,0.00 L604,0.00 L605,0.00 L606,0.00 L607,0.00 L608,0.00 L609,0.00 L610,0.00 L611,8.00 L612,0.00 L613,0.00 L614,0.00 L615,0.00 L616,0.00 L617,0.00 L618,0.00 L619,3.00 L620,0.00 L621,0.00 L622,0.00 L623,3.00 L624,0.00 L625,0.00 L626,0.00 L627,0.00 L628,0.00 L629,0.00 L630,0.00 L631,0.00 L632,0.00 L633,0.00 L634,0.00 L635,0.00 L636,0.00 L637,0.00 L638,0.00 L639,0.00 L640,0.00 L641,4.00 L642,0.00 L643,0.00 L644,0.00 L645,0.00 L646,0.00 L647,0.00 L648,0.00 L649,0.00 L650,0.00 L651,0.00 L652,0.00 L653,0.00 L654,1.00 L655,0.00 L656,0.00 L657,0.00 L658,0.00 L659,0.00 L660,0.00 L661,0.00 L662,0.00 L663,0.00 L664,0.00 L665,0.00 L666,0.00 L667,0.00 L668,0.00 L669,0.00 L670,0.00 L671,3.00 L672,0.00 L673,0.00 L674,0.00 L675,0.00 L676,0.00 L677,0.00 L678,0.00 L679,0.00 L680,0.00 L681,0.00 L682,0.00 L683,0.00 L684,0.00 L685,1.00 L686,0.00 L687,0.00 L688,0.00 L689,0.00 L690,0.00 L691,0.00 L692,0.00 L693,0.00 L694,3.00 L695,0.00 L696,0.00 L697,0.00 L698,0.00 L699,0.00 L700,0.00 L701,2.00 L702,0.00 L703,0.00 L704,0.00 L705,3.00 L706,0.00 L707,0.00 L708,0.00 L709,0.00 L710,0.00 L711,0.00 L712,0.00 L713,0.00 L714,0.00 L715,0.00 L716,0.00 L717,0.00 L718,0.00 L719,0.00 L720,0.00 L721,0.00 L722,0.00 L723,0.00 L724,0.00 L725,0.00 L726,0.00 L727,0.00 L728,0.00 L729,0.00 L730,0.00 L731,2.97 L732,0.00 L733,0.00 L734,0.00 L735,0.00 L736,1.00 L737,0.00 L738,0.00 L739,0.00 L740,0.00 L741,0.00 L742,0.00 L743,0.00 L744,0.00 L745,0.00 L746,0.00 L747,0.00 L748,0.00 L749,0.00 L750,0.00 L751,0.00 L752,0.00 L753,0.00 L754,0.00 L755,0.00 L756,0.00 L757,0.00 L758,0.00 L759,0.00 L760,0.00 L761,3.00 L762,0.00 L763,0.00 L764,0.00 L765,0.00 L766,0.00 L767,1.00 L768,0.00 L769,0.00 L770,0.00 L771,0.00 L772,0.00 L773,0.00 L774,0.00 L775,0.00 L776,0.00 L777,0.00 L778,0.00 L779,0.00 L780,0.00 L781,0.00 L782,0.00 L783,0.00 L784,0.00 L785,0.00 L786,0.00 L787,0.00 L788,0.00 L789,0.00 L790,0.00 L791,2.00 L792,3.00 L793,0.00 L794,0.00 L795,0.00 L796,0.00 L797,0.00 L798,0.00 L799,0.00 L800,0.00 L801,0.00 L802,0.00 L803,0.00 L804,0.00 L805,0.00 L806,0.00 L807,0.00 L808,0.00 L809,0.00 L810,0.00 L811,0.00 L812,0.00 L813,0.00 L814,0.00 L815,0.00 L816,0.00 L817,0.00 L818,0.00 L819,0.00 L820,0.00 L821,2.00 L822,0.00 L823,1.00 L824,0.00 L825,0.00 L826,0.00 L827,0.00 L828,0.00 L829,0.00 L830,0.00 L831,0.00 L832,0.00 L833,0.00 L834,0.00 L835,0.00 L836,0.00 L837,0.00 L838,4.00 L839,0.00 L840,0.00 L841,0.00 L842,0.00 L843,0.00 L844,0.00 L845,0.00 L846,0.00 L847,0.00 L848,0.00 L849,0.00 L850,0.00 L851,1.00 L852,4.00 L853,0.00 L854,0.00 L855,0.00 L856,0.00 L857,0.00 L858,1.00 L859,0.00 L860,0.00 L861,0.00 L862,0.00 L863,0.00 L864,0.00 L865,0.00 L866,0.00 L867,0.00 L868,0.00 L869,0.00 L870,0.00 L871,0.00 L872,0.00 L873,0.00 L874,0.00 L875,0.00 L876,0.00 L877,0.00 L878,0.00 L879,0.00 L880,0.00 L881,0.00 L882,7.00 L883,0.00 L884,0.00 L885,0.00 L886,0.00 L887,0.00 L888,0.00 L889,1.00 L890,0.00 L891,0.00 L892,0.00 L893,0.00 L894,0.00 L895,0.00 L896,0.00 L897,0.00 L898,0.00 L899,0.00 L900,0.00 L901,0.00 L902,0.00 L903,0.00 L904,0.00 L905,0.00 L906,0.00 L907,0.00 L908,0.00 L909,0.00 L910,0.00 L911,0.00 L912,2.00 L913,0.00 L914,0.00 L915,0.00 L916,0.00 L917,0.00 L918,0.00 L919,4.00 L920,0.00 L921,0.00 L922,0.00 L923,0.00 L924,1.00 L925,0.00 L926,0.00 L927,0.00 L928,0.00 L929,0.00 L930,0.00 L931,0.00 L932,3.00 L933,0.00 L934,0.00 L935,0.00 L936,0.00 L937,0.00 L938,0.00 L939,0.00 L940,0.00 L941,0.00 L942,13.00 L943,0.00 L944,0.00 L945,0.00 L946,0.00 L947,0.00 L948,0.00 L949,0.00 L950,0.00 L951,0.00 L952,0.00 L953,0.00 L954,0.00 L955,0.00 L956,0.00 L957,0.00 L958,0.00 L959,0.00 L960,0.00 L961,0.00 L962,403.00 L963,175.00 L964,828.00 L965,0.00 L966,274.00 L967,0.00 L968,0.00 L969,0.00 L970,0.00 L971,0.00 L972,5.00 L973,0.00 L974,0.00 L975,0.00 L976,0.00 L977,0.00 L978,0.00 L979,0.00 L980,0.00 L981,11.00 L982,0.00 L983,0.00 L984,0.00 L985,0.00 L986,149.00 L987,308.00 L988,211.00 L989,2303.00 L990,0.00 L991,0.00 L992,0.00 L993,0.00 L994,0.00 L995,1061.00 L996,2984.00 L997,0.00 L998,0.00 L999,0.00 L1000,0.00 L1001,0.00 L1002,0.00 L1003,0.00 L1004,0.00 L1005,0.00 L1006,0.00 L1007,76.00 L1008,271.00 L1009,714.00 L1010,0.00 L1011,476.00 L1012,2.00 L1013,2585.00 L1014,1.00 L1015,0.00 L1016,0.00 L1017,0.00 L1018,0.00 L1019,0.00 L1020,0.00 L1021,4152.00 L1022,0.00 L1023,0.00 L1024,0.00 L1025,0.00 L1026,0.00 L1027,0.00 L1028,0.00 L1029,0.00 L1030,0.00 L1031,0.00 L1032,0.00 L1033,1853.00 L1034,0.00 L1035,0.00 L1036,0.00 L1037,0.00 L1038,226.00 L1039,235.00 L1040,632.00 L1041,0.00 L1042,291.00 L1043,215.00 L1044,620.00 L1045,0.00 L1046,1257.00 L1047,0.00 L1048,0.00 L1049,140.00 L1050,153.00 L1051,2502.00 L1052,0.00 L1053,0.00 L1054,0.00 L1055,0.00 L1056,0.00 L1057,0.00 L1058,122.00 L1059,2249.00 L1060,1342.00 L1061,0.00 L1062,0.00 L1063,0.00 L1064,0.00 L1065,0.00 L1066,0.00 L1067,0.00 L1068,0.00 L1069,0.00 L1070,231.00" style="vector-effect: non-scaling-stroke; stroke: #00ffff; stroke-width: 1; fill-opacity: 0" transform="scale(0.672897,-0.048170)"/>
</g>
</g>
</svg>
