<?xml version="1.0" encoding="UTF-8"?>
<!DOCTYPE svg PUBLIC "-//W3C//DTD SVG 1.1//EN" "http://www.w3.org/Graphics/SVG/1.1/DTD/svg11.dtd">
<svg xmlns="http://www.w3.org/2000/svg" width="1060" height="350" fill="black" stroke="gray" stroke-width="1">
<text x= "0" y="30" text-anchor="start" stroke="brown">Linux 3.10.0-693.el7.ppc64le (centos-npb-iv1-main) 	06/19/2018 	_ppc64le_	(10 CPU)
</text>
<g id="13" transform="translate(0,50)">
<rect x="0" y="0" height="300" width="1050"/>
<text x="0" y="20" style="fill: yellow; stroke: none">I/O and transfer rate statistics (2)
<tspan x="795" y="25" style="fill: yellow; stroke: none; font-size: 12px">(Min, Max, Average values)</tspan></text>
<polyline points="70,50 70,250 790,250" stroke="white" stroke-width="2"/>
<text x="795" y="50" style="fill: #ff0000; stroke: none; font-size: 12px">bread/s (0.00, 1880.00, 4.531)</text><text x="795" y="65" style="fill: #e85f00; stroke: none; font-size: 12px">bwrtn/s (0.00, 4248832.00, 27781.260)</text><g transform="translate(70,250)">
<text x="0" y="10" style="fill: white; stroke: none; font-size: 12px; text-anchor: start" transform="rotate(45,0,0)">09:56:49</text>
<polyline points="107,0 107,-200" style="vector-effect: non-scaling-stroke; stroke: #202020" transform="scale(0.672897,1)"/>
<text x="72" y="10" style="fill: white; stroke: none; font-size: 12px; text-anchor: start" transform="rotate(45,72,0)">09:58:36</text>
<polyline points="214,0 214,-200" style="vector-effect: non-scaling-stroke; stroke: #202020" transform="scale(0.672897,1)"/>
<text x="144" y="10" style="fill: white; stroke: none; font-size: 12px; text-anchor: start" transform="rotate(45,144,0)">10:00:23</text>
<polyline points="321,0 321,-200" style="vector-effect: non-scaling-stroke; stroke: #202020" transform="scale(0.672897,1)"/>
<text x="216" y="10" style="fill: white; stroke: none; font-size: 12px; text-anchor: start" transform="rotate(45,216,0)">10:02:10</text>
<polyline points="428,0 428,-200" style="vector-effect: non-scaling-stroke; stroke: #202020" transform="scale(0.672897,1)"/>
<text x="288" y="10" style="fill: white; stroke: none; font-size: 12px; text-anchor: start" transform="rotate(45,288,0)">10:03:57</text>
<polyline points="535,0 535,-200" style="vector-effect: non-scaling-stroke; stroke: #202020" transform="scale(0.672897,1)"/>
<text x="360" y="10" style="fill: white; stroke: none; font-size: 12px; text-anchor: start" transform="rotate(45,360,0)">10:05:44</text>
<polyline points="642,0 642,-200" style="vector-effect: non-scaling-stroke; stroke: #202020" transform="scale(0.672897,1)"/>
<text x="432" y="10" style="fill: white; stroke: none; font-size: 12px; text-anchor: start" transform="rotate(45,432,0)">10:07:31</text>
<polyline points="749,0 749,-200" style="vector-effect: non-scaling-stroke; stroke: #202020" transform="scale(0.672897,1)"/>
<text x="504" y="10" style="fill: white; stroke: none; font-size: 12px; text-anchor: start" transform="rotate(45,504,0)">10:09:18</text>
<polyline points="856,0 856,-200" style="vector-effect: non-scaling-stroke; stroke: #202020" transform="scale(0.672897,1)"/>
<text x="576" y="10" style="fill: white; stroke: none; font-size: 12px; text-anchor: start" transform="rotate(45,576,0)">10:11:05</text>
<polyline points="963,0 963,-200" style="vector-effect: non-scaling-stroke; stroke: #202020" transform="scale(0.672897,1)"/>
<text x="648" y="10" style="fill: white; stroke: none; font-size: 12px; text-anchor: start" transform="rotate(45,648,0)">10:12:52</text>
<polyline points="1070,0 1070,-200" style="vector-effect: non-scaling-stroke; stroke: #202020" transform="scale(0.672897,1)"/>
<text x="720" y="10" style="fill: white; stroke: none; font-size: 12px; text-anchor: start" transform="rotate(45,720,0)">10:14:39</text>
<text x="-10" y="30" style="fill: yellow; stroke: none; font-size: 12px; text-anchor: end">UTC</text>
<path id="g11p4" d="M1,0.0 L2,0.0 L3,4.076931574555656 L4,2.041392685158225 L5,0.0 L6,0.0 L7,0.0 L8,0.0 L9,4.040285798932492 L10,1.505149978319906 L11,0.0 L12,0.0 L13,0.0 L14,0.0 L15,0.0 L16,0.0 L17,0.0 L18,0.0 L19,0.0 L20,0.0 L21,0.0 L22,0.0 L23,0.0 L24,0.0 L25,0.0 L26,0.0 L27,0.0 L28,0.0 L29,0.0 L30,0.0 L31,0.0 L32,0.0 L33,0.0 L34,2.741939077729199 L35,0.0 L36,0.0 L37,0.0 L38,0.0 L39,1.9822712330395684 L40,1.1760912590556813 L41,0.0 L42,0.0 L43,0.0 L44,1.9030899869919435 L45,0.0 L46,0.0 L47,0.0 L48,0.0 L49,0.0 L50,0.0 L51,0.0 L52,0.0 L53,0.0 L54,0.0 L55,0.0 L56,0.0 L57,0.0 L58,0.0 L59,0.0 L60,0.0 L61,0.0 L62,0.0 L63,0.0 L64,0.0 L65,0.0 L66,0.0 L67,0.0 L68,0.0 L69,2.932980821923198 L70,0.47712125471966244 L71,0.0 L72,0.0 L73,0.0 L74,0.0 L75,0.0 L76,0.0 L77,0.0 L78,0.0 L79,0.0 L80,0.0 L81,0.0 L82,0.0 L83,0.0 L84,0.0 L85,0.0 L86,0.0 L87,0.0 L88,0.0 L89,0.0 L90,0.0 L91,0.0 L92,0.0 L93,0.0 L94,0.0 L95,0.0 L96,0.0 L97,0.0 L98,0.0 L99,0.0 L100,2.82020145948564 L101,0.0 L102,0.0 L103,0.0 L104,0.0 L105,2.164352855784437 L106,0.0 L107,0.0 L108,0.0 L109,0.0 L110,0.0 L111,0.0 L112,0.0 L113,0.0 L114,0.0 L115,0.0 L116,0.0 L117,0.0 L118,0.0 L119,0.0 L120,0.0 L121,0.0 L122,0.0 L123,0.0 L124,0.0 L125,0.0 L126,0.0 L127,0.0 L128,0.0 L129,0.0 L130,0.47712125471966244 L131,0.0 L132,0.0 L133,0.0 L134,0.0 L135,0.0 L136,2.7024305364455254 L137,0.0 L138,0.0 L139,0.0 L140,0.0 L141,0.0 L142,0.0 L143,0.0 L144,0.0 L145,2.428134794028789 L146,0.0 L147,0.0 L148,0.0 L149,0.0 L150,0.0 L151,0.0 L152,0.0 L153,0.0 L154,0.0 L155,0.0 L156,0.0 L157,0.0 L158,0.0 L159,0.0 L160,1.7160033436347992 L161,0.0 L162,0.0 L163,0.0 L164,0.0 L165,0.0 L166,0.0 L167,0.0 L168,0.0 L169,0.0 L170,0.0 L171,0.0 L172,0.0 L173,0.0 L174,0.0 L175,0.0 L176,2.7024305364455254 L177,0.0 L178,0.0 L179,0.0 L180,0.0 L181,0.0 L182,0.0 L183,0.0 L184,0.0 L185,0.0 L186,0.0 L187,0.0 L188,0.0 L189,0.0 L190,1.5314789170422551 L191,0.0 L192,0.0 L193,0.0 L194,0.0 L195,0.0 L196,0.0 L197,0.0 L198,0.0 L199,0.0 L200,0.0 L201,0.0 L202,0.0 L203,0.0 L204,0.0 L205,0.0 L206,0.0 L207,2.7895807121644256 L208,0.0 L209,0.0 L210,0.0 L211,0.0 L212,0.0 L213,0.0 L214,0.0 L215,0.0 L216,0.0 L217,0.0 L218,0.0 L219,0.0 L220,0.6020599913279624 L221,0.0 L222,0.0 L223,0.0 L224,0.0 L225,0.0 L226,0.0 L227,0.0 L228,0.0 L229,0.0 L230,0.0 L231,0.0 L232,0.0 L233,0.0 L234,0.0 L235,0.0 L236,0.0 L237,2.3180633349627615 L238,0.0 L239,0.0 L240,0.0 L241,0.0 L242,2.8169038393756605 L243,0.0 L244,0.0 L245,0.0 L246,0.0 L247,0.0 L248,0.0 L249,0.0 L250,0.6020599913279624 L251,0.0 L252,0.0 L253,0.0 L254,0.0 L255,0.0 L256,0.0 L257,0.0 L258,0.0 L259,0.0 L260,0.0 L261,0.0 L262,0.0 L263,0.0 L264,0.0 L265,0.0 L266,0.0 L267,0.0 L268,0.0 L269,0.0 L270,0.0 L271,0.0 L272,0.0 L273,2.709269960975831 L274,0.0 L275,0.0 L276,0.0 L277,0.0 L278,0.0 L279,0.0 L280,1.6720978579357175 L281,0.0 L282,0.0 L283,2.3344537511509307 L284,0.0 L285,0.0 L286,0.0 L287,0.0 L288,0.0 L289,0.0 L290,0.0 L291,0.0 L292,0.0 L293,0.0 L294,0.0 L295,0.0 L296,0.0 L297,0.0 L298,0.0 L299,0.0 L300,0.0 L301,0.0 L302,0.0 L303,0.0 L304,0.0 L305,0.0 L306,0.0 L307,0.0 L308,2.837588438235511 L309,0.0 L310,2.584331224367531 L311,0.0 L312,0.0 L313,0.0 L314,0.0 L315,0.0 L316,0.0 L317,0.0 L318,0.0 L319,0.0 L320,0.0 L321,0.0 L322,0.0 L323,0.0 L324,0.0 L325,0.0 L326,0.0 L327,0.0 L328,0.0 L329,0.0 L330,0.0 L331,0.0 L332,0.0 L333,0.0 L334,0.0 L335,0.0 L336,0.0 L337,0.0 L338,0.0 L339,2.72916478969277 L340,2.2528530309798933 L341,0.0 L342,0.0 L343,0.0 L344,0.0 L345,0.0 L346,0.0 L347,0.0 L348,0.0 L349,0.0 L350,0.0 L351,0.0 L352,0.0 L353,0.0 L354,0.0 L355,0.0 L356,0.0 L357,0.0 L358,0.0 L359,0.0 L360,0.0 L361,0.0 L362,0.0 L363,0.0 L364,0.0 L365,0.0 L366,0.0 L367,0.0 L368,0.0 L369,0.0 L370,2.717670503002262 L371,0.0 L372,0.0 L373,0.0 L374,0.0 L375,0.0 L376,0.0 L377,0.0 L378,0.0 L379,0.0 L380,0.0 L381,0.0 L382,0.0 L383,0.0 L384,0.0 L385,0.0 L386,0.0 L387,0.0 L388,0.0 L389,0.0 L390,0.0 L391,0.0 L392,0.0 L393,0.0 L394,0.0 L395,0.0 L396,0.0 L397,0.0 L398,0.0 L399,0.0 L400,0.3010299956639812 L401,2.7024305364455254 L402,0.0 L403,0.0 L404,0.0 L405,0.0 L406,0.0 L407,0.0 L408,0.0 L409,0.0 L410,0.0 L411,0.0 L412,0.0 L413,0.0 L414,0.0 L415,0.0 L416,0.0 L417,0.0 L418,0.0 L419,0.0 L420,0.0 L421,0.0 L422,0.0 L423,0.0 L424,0.0 L425,0.0 L426,0.0 L427,0.0 L428,0.0 L429,0.0 L430,0.3010299956639812 L431,0.0 L432,2.783903579272735 L433,0.0 L434,0.0 L435,0.0 L436,0.0 L437,0.0 L438,0.0 L439,0.0 L440,0.0 L441,0.0 L442,0.0 L443,0.0 L444,0.0 L445,0.0 L446,0.0 L447,0.0 L448,0.0 L449,0.0 L450,0.0 L451,0.0 L452,0.0 L453,0.0 L454,0.0 L455,0.0 L456,0.0 L457,0.0 L458,0.0 L459,0.0 L460,0.3010299956639812 L461,0.3010299956639812 L462,0.0 L463,2.77232170672292 L464,0.0 L465,0.0 L466,0.0 L467,0.0 L468,0.0 L469,0.0 L470,0.0 L471,0.0 L472,0.0 L473,0.0 L474,0.0 L475,0.0 L476,0.0 L477,0.0 L478,0.0 L479,0.0 L480,0.0 L481,0.0 L482,0.0 L483,0.0 L484,0.0 L485,0.0 L486,0.0 L487,0.0 L488,0.0 L489,0.0 L490,0.0 L491,0.3010299956639812 L492,0.0 L493,0.0 L494,2.760422483423212 L495,0.0 L496,0.0 L497,0.0 L498,0.0 L499,0.0 L500,0.0 L501,0.0 L502,0.0 L503,0.0 L504,0.0 L505,0.0 L506,0.0 L507,0.0 L508,0.0 L509,0.0 L510,0.0 L511,0.0 L512,0.0 L513,0.0 L514,0.0 L515,0.0 L516,0.0 L517,0.0 L518,0.0 L519,0.0 L520,0.0 L521,0.3010299956639812 L522,0.0 L523,0.0 L524,0.0 L525,2.741939077729199 L526,0.0 L527,0.0 L528,0.0 L529,0.0 L530,0.0 L531,0.0 L532,0.0 L533,0.0 L534,0.0 L535,0.0 L536,0.0 L537,0.0 L538,0.0 L539,0.0 L540,0.0 L541,0.0 L542,0.0 L543,0.0 L544,0.0 L545,0.0 L546,0.0 L547,0.0 L548,0.0 L549,0.0 L550,0.0 L551,0.6020599913279624 L552,0.0 L553,0.0 L554,0.0 L555,0.0 L556,2.72916478969277 L557,0.0 L558,0.0 L559,0.0 L560,0.0 L561,0.0 L562,0.0 L563,0.0 L564,0.0 L565,0.0 L566,0.0 L567,0.0 L568,0.0 L569,0.0 L570,0.0 L571,0.0 L572,0.0 L573,0.0 L574,0.0 L575,0.0 L576,0.0 L577,0.0 L578,0.0 L579,0.0 L580,0.0 L581,1.2787536009528289 L582,0.0 L583,0.0 L584,0.0 L585,0.0 L586,0.0 L587,2.716003343634799 L588,0.0 L589,0.0 L590,0.0 L591,0.0 L592,0.0 L593,0.0 L594,0.0 L595,0.0 L596,0.0 L597,2.220108088040055 L598,0.0 L599,0.0 L600,0.0 L601,0.0 L602,0.0 L603,0.0 L604,0.0 L605,0.0 L606,0.0 L607,0.0 L608,0.0 L609,0.0 L610,0.0 L611,2.0043213737826426 L612,0.0 L613,0.0 L614,0.0 L615,0.0 L616,0.0 L617,0.0 L618,0.0 L619,2.586587304671755 L620,0.0 L621,0.0 L622,0.0 L623,2.290034611362518 L624,0.0 L625,0.0 L626,0.0 L627,0.0 L628,0.0 L629,0.0 L630,0.0 L631,0.0 L632,0.0 L633,0.0 L634,0.0 L635,0.0 L636,0.0 L637,0.0 L638,0.0 L639,0.0 L640,0.0 L641,1.8260748027008264 L642,0.0 L643,0.0 L644,0.0 L645,0.0 L646,0.0 L647,0.0 L648,0.0 L649,0.0 L650,0.0 L651,0.0 L652,0.0 L653,0.0 L654,2.7481880270062002 L655,0.0 L656,0.0 L657,0.0 L658,0.0 L659,0.0 L660,0.0 L661,0.0 L662,0.0 L663,0.0 L664,0.0 L665,0.0 L666,0.0 L667,0.0 L668,0.0 L669,0.0 L670,0.0 L671,1.5314789170422551 L672,0.0 L673,0.0 L674,0.0 L675,0.0 L676,0.0 L677,0.0 L678,0.0 L679,0.0 L680,0.0 L681,0.0 L682,0.0 L683,0.0 L684,0.0 L685,2.73559889969818 L686,0.0 L687,0.0 L688,0.0 L689,0.0 L690,0.0 L691,0.0 L692,0.0 L693,0.0 L694,2.230448921378274 L695,0.0 L696,0.0 L697,0.0 L698,0.0 L699,0.0 L700,0.0 L701,0.47712125471966244 L702,0.0 L703,0.0 L704,0.0 L705,2.3384564936046046 L706,0.0 L707,0.0 L708,0.0 L709,0.0 L710,0.0 L711,0.0 L712,0.0 L713,0.0 L714,0.0 L715,0.0 L716,0.0 L717,0.0 L718,0.0 L719,0.0 L720,0.0 L721,0.0 L722,0.0 L723,0.0 L724,0.0 L725,0.0 L726,0.0 L727,0.0 L728,0.0 L729,0.0 L730,0.0 L731,1.5397032389478256 L732,0.0 L733,0.0 L734,0.0 L735,0.0 L736,2.7664128471123997 L737,0.0 L738,0.0 L739,0.0 L740,0.0 L741,0.0 L742,0.0 L743,0.0 L744,0.0 L745,0.0 L746,0.0 L747,0.0 L748,0.0 L749,0.0 L750,0.0 L751,0.0 L752,0.0 L753,0.0 L754,0.0 L755,0.0 L756,0.0 L757,0.0 L758,0.0 L759,0.0 L760,0.0 L761,1.5314789170422551 L762,0.0 L763,0.0 L764,0.0 L765,0.0 L766,0.0 L767,2.754348335711019 L768,0.0 L769,0.0 L770,0.0 L771,0.0 L772,0.0 L773,0.0 L774,0.0 L775,0.0 L776,0.0 L777,0.0 L778,0.0 L779,0.0 L780,0.0 L781,0.0 L782,0.0 L783,0.0 L784,0.0 L785,0.0 L786,0.0 L787,0.0 L788,0.0 L789,0.0 L790,0.0 L791,0.3010299956639812 L792,2.6532125137753435 L793,0.0 L794,0.0 L795,0.0 L796,0.0 L797,0.0 L798,0.0 L799,0.0 L800,0.0 L801,0.0 L802,0.0 L803,0.0 L804,0.0 L805,0.0 L806,0.0 L807,0.0 L808,0.0 L809,0.0 L810,0.0 L811,0.0 L812,0.0 L813,0.0 L814,0.0 L815,0.0 L816,0.0 L817,0.0 L818,0.0 L819,0.0 L820,0.0 L821,0.6020599913279624 L822,0.0 L823,2.7481880270062002 L824,0.0 L825,0.0 L826,0.0 L827,0.0 L828,0.0 L829,0.0 L830,0.0 L831,0.0 L832,0.0 L833,0.0 L834,0.0 L835,0.0 L836,0.0 L837,0.0 L838,2.3344537511509307 L839,0.0 L840,0.0 L841,0.0 L842,0.0 L843,0.0 L844,0.0 L845,0.0 L846,0.0 L847,0.0 L848,0.0 L849,0.0 L850,0.0 L851,1.505149978319906 L852,0.8450980400142568 L853,0.0 L854,0.0 L855,0.0 L856,0.0 L857,0.0 L858,2.783903579272735 L859,0.0 L860,0.0 L861,0.0 L862,0.0 L863,0.0 L864,0.0 L865,0.0 L866,0.0 L867,0.0 L868,0.0 L869,0.0 L870,0.0 L871,0.0 L872,0.0 L873,0.0 L874,0.0 L875,0.0 L876,0.0 L877,0.0 L878,0.0 L879,0.0 L880,0.0 L881,0.0 L882,2.060697840353612 L883,0.0 L884,0.0 L885,0.0 L886,0.0 L887,0.0 L888,0.0 L889,2.7664128471123997 L890,0.0 L891,0.0 L892,0.0 L893,0.0 L894,0.0 L895,0.0 L896,0.0 L897,0.0 L898,0.0 L899,0.0 L900,0.0 L901,0.0 L902,0.0 L903,0.0 L904,0.0 L905,0.0 L906,0.0 L907,0.0 L908,0.0 L909,0.0 L910,0.0 L911,0.0 L912,1.0791812460476249 L913,0.0 L914,0.0 L915,0.0 L916,0.0 L917,0.0 L918,0.0 L919,2.3344537511509307 L920,0.0 L921,0.0 L922,0.0 L923,0.0 L924,2.800717078282385 L925,0.0 L926,0.0 L927,0.0 L928,0.0 L929,0.0 L930,0.0 L931,0.0 L932,2.406540180433955 L933,0.0 L934,0.0 L935,0.0 L936,0.0 L937,0.0 L938,0.0 L939,0.0 L940,0.0 L941,0.0 L942,2.322219294733919 L943,0.0 L944,0.0 L945,0.0 L946,0.0 L947,0.0 L948,0.0 L949,0.0 L950,0.0 L951,0.0 L952,0.0 L953,0.0 L954,0.0 L955,0.0 L956,0.0 L957,0.0 L958,0.0 L959,0.0 L960,0.0 L961,0.0 L962,5.615605002780922 L963,5.253338005326106 L964,5.928129457916857 L965,0.0 L966,5.4472076621613015 L967,0.0 L968,0.0 L969,0.0 L970,0.0 L971,0.0 L972,1.9084850188786497 L973,0.0 L974,0.0 L975,0.0 L976,0.0 L977,0.0 L978,0.0 L979,0.0 L980,0.0 L981,1.9444826721501687 L982,0.0 L983,0.0 L984,0.0 L985,0.0 L986,5.183486225052086 L987,5.498850673140256 L988,5.33348757837891 L989,6.3724288577478285 L990,0.0 L991,0.0 L992,0.0 L993,0.0 L994,0.0 L995,6.0360153405411525 L996,6.484987331279334 L997,0.0 L998,0.0 L999,0.0 L1000,0.0 L1001,0.0 L1002,0.0 L1003,0.0 L1004,0.0 L1005,0.0 L1006,0.0 L1007,4.891113548920603 L1008,5.424036716594249 L1009,5.86297052225827 L1010,0.0 L1011,5.687079273823139 L1012,3.3113299523037933 L1013,6.422613474282219 L1014,3.010299956639812 L1015,0.0 L1016,0.0 L1017,0.0 L1018,0.0 L1019,0.0 L1020,0.0 L1021,6.628269559304295 L1022,0.0 L1023,0.0 L1024,0.0 L1025,0.0 L1026,0.0 L1027,0.0 L1028,0.0 L1029,0.0 L1030,0.0 L1031,0.0 L1032,0.0 L1033,6.277545039401907 L1034,0.0 L1035,0.0 L1036,0.0 L1037,0.0 L1038,5.3587265219395475 L1039,5.377683180393753 L1040,5.809640506093394 L1041,0.0 L1042,5.4741929456257195 L1043,5.3427384165554175 L1044,5.802691646138066 L1045,0.0 L1046,6.109035592628476 L1047,0.0 L1048,0.0 L1049,5.153314756893907 L1050,5.1917862475822 L1051,6.406891561310223 L1052,0.0 L1053,0.0 L1054,0.0 L1055,0.0 L1056,0.0 L1057,0.0 L1058,5.09665978731456 L1059,6.360983989326748 L1060,6.137764155089413 L1061,0.0 L1062,0.0 L1063,0.0 L1064,0.0 L1065,0.0 L1066,0.0 L1067,0.0 L1068,0.0 L1069,0.0 L1070,5.37032800777951 " style="vector-effect: non-scaling-stroke; stroke: #e85f00; stroke-width: 1; fill-opacity: 0" transform="scale(0.672897,-28.571428571428573)"/><path id="g11p3" d="M1,0.0 L2,0.0 L3,2.3180633349627615 L4,3.2741578492636796 L5,0.0 L6,0.0 L7,0.0 L8,0.0 L9,1.806179973983887 L10,0.0 L11,0.0 L12,0.0 L13,0.0 L14,0.0 L15,0.0 L16,0.0 L17,0.0 L18,0.0 L19,0.0 L20,0.0 L21,0.0 L22,0.0 L23,0.0 L24,0.0 L25,0.0 L26,0.0 L27,0.0 L28,0.0 L29,0.0 L30,0.0 L31,0.0 L32,0.0 L33,0.0 L34,0.0 L35,0.0 L36,0.0 L37,0.0 L38,0.0 L39,0.0 L40,0.0 L41,0.0 L42,0.0 L43,0.0 L44,0.0 L45,0.0 L46,0.0 L47,0.0 L48,0.0 L49,0.0 L50,0.0 L51,0.0 L52,0.0 L53,0.0 L54,0.0 L55,0.0 L56,0.0 L57,0.0 L58,0.0 L59,0.0 L60,0.0 L61,0.0 L62,0.0 L63,0.0 L64,0.0 L65,0.0 L66,0.0 L67,0.0 L68,0.0 L69,0.0 L70,0.0 L71,0.0 L72,0.0 L73,0.0 L74,0.0 L75,0.0 L76,0.0 L77,0.0 L78,0.0 L79,0.0 L80,0.0 L81,0.0 L82,0.0 L83,0.0 L84,0.0 L85,0.0 L86,0.0 L87,0.0 L88,0.0 L89,0.0 L90,0.0 L91,0.0 L92,0.0 L93,0.0 L94,0.0 L95,0.0 L96,0.0 L97,0.0 L98,0.0 L99,0.0 L100,0.0 L101,0.0 L102,0.0 L103,0.0 L104,0.0 L105,1.9444826721501687 L106,0.0 L107,0.0 L108,0.0 L109,0.0 L110,0.0 L111,0.0 L112,0.0 L113,0.0 L114,0.0 L115,0.0 L116,0.0 L117,0.0 L118,0.0 L119,0.0 L120,0.0 L121,0.0 L122,0.0 L123,0.0 L124,0.0 L125,0.0 L126,0.0 L127,0.0 L128,0.0 L129,0.0 L130,0.0 L131,0.0 L132,0.0 L133,0.0 L134,0.0 L135,0.0 L136,0.0 L137,0.0 L138,0.0 L139,0.0 L140,0.0 L141,0.0 L142,0.0 L143,0.0 L144,0.0 L145,1.7481880270062005 L146,2.1072099696478683 L147,0.0 L148,0.0 L149,0.0 L150,0.0 L151,0.0 L152,0.0 L153,0.0 L154,0.0 L155,0.0 L156,0.0 L157,0.0 L158,0.0 L159,0.0 L160,0.0 L161,0.0 L162,0.0 L163,0.0 L164,0.0 L165,0.0 L166,0.0 L167,0.0 L168,0.0 L169,0.0 L170,0.0 L171,0.0 L172,0.0 L173,0.0 L174,0.0 L175,0.0 L176,0.0 L177,0.0 L178,0.0 L179,0.0 L180,0.0 L181,0.0 L182,0.0 L183,0.0 L184,0.0 L185,0.0 L186,0.0 L187,0.0 L188,0.0 L189,0.0 L190,0.0 L191,0.0 L192,0.0 L193,0.0 L194,0.0 L195,0.0 L196,0.0 L197,0.0 L198,0.0 L199,0.0 L200,0.0 L201,0.0 L202,0.0 L203,0.0 L204,0.0 L205,0.0 L206,0.0 L207,0.0 L208,0.0 L209,0.0 L210,0.0 L211,0.0 L212,0.0 L213,0.0 L214,0.0 L215,0.0 L216,0.0 L217,0.0 L218,0.0 L219,0.0 L220,0.0 L221,0.0 L222,0.0 L223,0.0 L224,0.0 L225,0.0 L226,0.0 L227,0.0 L228,0.0 L229,0.0 L230,0.0 L231,0.0 L232,0.0 L233,0.0 L234,0.0 L235,0.0 L236,0.0 L237,0.0 L238,0.0 L239,0.0 L240,0.0 L241,0.0 L242,0.0 L243,0.0 L244,0.0 L245,0.0 L246,0.0 L247,0.0 L248,0.0 L249,0.0 L250,0.0 L251,0.0 L252,2.806179973983887 L253,0.0 L254,0.0 L255,0.0 L256,0.0 L257,0.0 L258,0.0 L259,0.0 L260,0.0 L261,0.0 L262,0.0 L263,0.0 L264,0.0 L265,0.0 L266,0.0 L267,0.0 L268,0.0 L269,0.0 L270,0.0 L271,0.0 L272,0.0 L273,0.0 L274,0.0 L275,0.0 L276,0.0 L277,0.0 L278,0.0 L279,0.0 L280,0.0 L281,0.0 L282,0.0 L283,0.0 L284,0.0 L285,0.0 L286,0.0 L287,0.0 L288,0.0 L289,0.0 L290,0.0 L291,0.0 L292,0.0 L293,0.0 L294,0.0 L295,0.0 L296,0.0 L297,0.0 L298,0.0 L299,0.0 L300,0.0 L301,0.0 L302,0.0 L303,0.0 L304,0.0 L305,0.0 L306,0.0 L307,0.0 L308,0.0 L309,0.0 L310,0.0 L311,0.0 L312,0.0 L313,0.0 L314,0.0 L315,0.0 L316,0.0 L317,0.0 L318,0.0 L319,0.0 L320,0.0 L321,0.0 L322,0.0 L323,0.0 L324,0.0 L325,0.0 L326,0.0 L327,0.0 L328,0.0 L329,0.0 L330,0.0 L331,0.0 L332,0.0 L333,0.0 L334,0.0 L335,0.0 L336,0.0 L337,0.0 L338,0.0 L339,0.0 L340,0.0 L341,0.0 L342,0.0 L343,0.0 L344,0.0 L345,0.0 L346,0.0 L347,0.0 L348,0.0 L349,0.0 L350,0.0 L351,0.0 L352,0.0 L353,0.0 L354,0.0 L355,0.0 L356,0.0 L357,0.0 L358,0.0 L359,0.0 L360,0.0 L361,0.0 L362,0.0 L363,0.0 L364,0.0 L365,0.0 L366,0.0 L367,0.0 L368,0.0 L369,0.0 L370,0.0 L371,0.0 L372,0.0 L373,0.0 L374,0.0 L375,0.0 L376,0.0 L377,0.0 L378,0.0 L379,0.0 L380,0.0 L381,0.0 L382,0.0 L383,0.0 L384,0.0 L385,0.0 L386,0.0 L387,0.0 L388,0.0 L389,0.0 L390,0.0 L391,0.0 L392,0.0 L393,0.0 L394,0.0 L395,0.0 L396,0.0 L397,0.0 L398,0.0 L399,0.0 L400,0.0 L401,0.0 L402,0.0 L403,0.0 L404,0.0 L405,0.0 L406,0.0 L407,0.0 L408,0.0 L409,0.0 L410,0.0 L411,0.0 L412,0.0 L413,0.0 L414,0.0 L415,0.0 L416,0.0 L417,0.0 L418,0.0 L419,0.0 L420,0.0 L421,0.0 L422,0.0 L423,0.0 L424,0.0 L425,0.0 L426,0.0 L427,0.0 L428,0.0 L429,0.0 L430,0.0 L431,0.0 L432,0.0 L433,0.0 L434,0.0 L435,0.0 L436,0.0 L437,0.0 L438,0.0 L439,0.0 L440,0.0 L441,0.0 L442,0.0 L443,0.0 L444,0.0 L445,0.0 L446,0.0 L447,0.0 L448,0.0 L449,0.0 L450,0.0 L451,0.0 L452,0.0 L453,0.0 L454,0.0 L455,0.0 L456,0.0 L457,0.0 L458,0.0 L459,0.0 L460,0.0 L461,0.0 L462,0.0 L463,0.0 L464,0.0 L465,0.0 L466,0.0 L467,0.0 L468,0.0 L469,0.0 L470,0.0 L471,0.0 L472,0.0 L473,0.0 L474,0.0 L475,0.0 L476,0.0 L477,0.0 L478,0.0 L479,0.0 L480,0.0 L481,0.0 L482,0.0 L483,0.0 L484,0.0 L485,0.0 L486,0.0 L487,0.0 L488,0.0 L489,0.0 L490,0.0 L491,0.0 L492,0.0 L493,0.0 L494,0.0 L495,0.0 L496,0.0 L497,0.0 L498,0.0 L499,0.0 L500,0.0 L501,0.0 L502,0.0 L503,0.0 L504,0.0 L505,0.0 L506,0.0 L507,0.0 L508,0.0 L509,0.0 L510,0.0 L511,0.0 L512,0.0 L513,0.0 L514,0.0 L515,0.0 L516,0.0 L517,0.0 L518,0.0 L519,0.0 L520,0.0 L521,0.0 L522,0.0 L523,0.0 L524,0.0 L525,0.0 L526,0.0 L527,0.0 L528,0.0 L529,0.0 L530,0.0 L531,0.0 L532,0.0 L533,0.0 L534,0.0 L535,0.0 L536,0.0 L537,0.0 L538,0.0 L539,0.0 L540,0.0 L541,0.0 L542,0.0 L543,0.0 L544,0.0 L545,0.0 L546,0.0 L547,0.0 L548,0.0 L549,0.0 L550,0.0 L551,0.0 L552,0.0 L553,0.0 L554,0.0 L555,0.0 L556,0.0 L557,0.0 L558,0.0 L559,0.0 L560,0.0 L561,0.0 L562,0.0 L563,0.0 L564,0.0 L565,0.0 L566,0.0 L567,0.0 L568,0.0 L569,0.0 L570,0.0 L571,0.0 L572,0.0 L573,0.0 L574,0.0 L575,0.0 L576,0.0 L577,0.0 L578,0.0 L579,0.0 L580,0.0 L581,0.0 L582,0.0 L583,0.0 L584,0.0 L585,0.0 L586,0.0 L587,0.0 L588,0.0 L589,0.0 L590,0.0 L591,0.0 L592,0.0 L593,0.0 L594,0.0 L595,0.0 L596,0.0 L597,1.9822712330395684 L598,2.4082399653118496 L599,2.4082399653118496 L600,0.0 L601,0.0 L602,0.0 L603,0.0 L604,0.0 L605,0.0 L606,0.0 L607,0.0 L608,0.0 L609,0.0 L610,0.0 L611,0.0 L612,0.0 L613,0.0 L614,0.0 L615,0.0 L616,0.0 L617,0.0 L618,0.0 L619,1.7481880270062005 L620,0.0 L621,0.0 L622,0.0 L623,2.3010299956639813 L624,0.0 L625,0.0 L626,0.0 L627,0.0 L628,0.0 L629,0.0 L630,0.0 L631,0.0 L632,0.0 L633,0.0 L634,0.0 L635,0.0 L636,0.0 L637,0.0 L638,0.0 L639,0.0 L640,0.0 L641,0.0 L642,0.0 L643,0.0 L644,0.0 L645,0.0 L646,0.0 L647,0.0 L648,0.0 L649,0.0 L650,0.0 L651,0.0 L652,0.0 L653,0.0 L654,0.0 L655,0.0 L656,0.0 L657,0.0 L658,0.0 L659,0.0 L660,0.0 L661,0.0 L662,0.0 L663,0.0 L664,0.0 L665,0.0 L666,0.0 L667,0.0 L668,0.0 L669,0.0 L670,0.0 L671,0.0 L672,0.0 L673,0.0 L674,0.0 L675,0.0 L676,0.0 L677,0.0 L678,0.0 L679,0.0 L680,0.0 L681,0.0 L682,0.0 L683,0.0 L684,0.0 L685,0.0 L686,0.0 L687,0.0 L688,0.0 L689,0.0 L690,0.0 L691,0.0 L692,0.0 L693,0.0 L694,2.1072099696478683 L695,0.0 L696,0.0 L697,0.0 L698,0.0 L699,0.0 L700,0.0 L701,0.0 L702,0.0 L703,0.0 L704,0.0 L705,2.2648178230095364 L706,0.0 L707,0.0 L708,0.0 L709,0.0 L710,0.0 L711,0.0 L712,0.0 L713,0.0 L714,0.0 L715,0.0 L716,0.0 L717,0.0 L718,0.0 L719,0.0 L720,0.0 L721,0.0 L722,0.0 L723,0.0 L724,0.0 L725,0.0 L726,0.0 L727,0.0 L728,0.0 L729,0.0 L730,0.0 L731,0.0 L732,0.0 L733,0.0 L734,0.0 L735,0.0 L736,0.0 L737,0.0 L738,0.0 L739,0.0 L740,0.0 L741,0.0 L742,0.0 L743,0.0 L744,0.0 L745,0.0 L746,0.0 L747,0.0 L748,0.0 L749,0.0 L750,0.0 L751,0.0 L752,0.0 L753,0.0 L754,0.0 L755,0.0 L756,0.0 L757,0.0 L758,0.0 L759,0.0 L760,0.0 L761,0.0 L762,0.0 L763,0.0 L764,0.0 L765,0.0 L766,0.0 L767,0.0 L768,0.0 L769,0.0 L770,0.0 L771,0.0 L772,0.0 L773,0.0 L774,0.0 L775,0.0 L776,0.0 L777,0.0 L778,0.0 L779,0.0 L780,0.0 L781,0.0 L782,0.0 L783,0.0 L784,0.0 L785,0.0 L786,0.0 L787,0.0 L788,0.0 L789,0.0 L790,0.0 L791,0.0 L792,2.6434526764861874 L793,0.0 L794,0.0 L795,0.0 L796,0.0 L797,0.0 L798,0.0 L799,0.0 L800,0.0 L801,0.0 L802,0.0 L803,0.0 L804,0.0 L805,0.0 L806,0.0 L807,0.0 L808,0.0 L809,0.0 L810,0.0 L811,0.0 L812,0.0 L813,0.0 L814,0.0 L815,0.0 L816,0.0 L817,0.0 L818,0.0 L819,0.0 L820,0.0 L821,0.0 L822,0.0 L823,0.0 L824,0.0 L825,0.0 L826,0.0 L827,0.0 L828,0.0 L829,0.0 L830,0.0 L831,0.0 L832,0.0 L833,0.0 L834,0.0 L835,0.0 L836,0.0 L837,0.0 L838,0.0 L839,0.0 L840,0.0 L841,0.0 L842,0.0 L843,0.0 L844,0.0 L845,0.0 L846,0.0 L847,0.0 L848,0.0 L849,0.0 L850,0.0 L851,0.0 L852,0.0 L853,0.0 L854,0.0 L855,0.0 L856,0.0 L857,0.0 L858,0.0 L859,0.0 L860,0.0 L861,0.0 L862,0.0 L863,0.0 L864,0.0 L865,0.0 L866,0.0 L867,0.0 L868,0.0 L869,0.0 L870,0.0 L871,0.0 L872,0.0 L873,0.0 L874,0.0 L875,0.0 L876,0.0 L877,0.0 L878,0.0 L879,0.0 L880,0.0 L881,0.0 L882,0.0 L883,0.0 L884,0.0 L885,0.0 L886,0.0 L887,0.0 L888,0.0 L889,0.0 L890,0.0 L891,0.0 L892,0.0 L893,0.0 L894,0.0 L895,0.0 L896,0.0 L897,0.0 L898,0.0 L899,0.0 L900,0.0 L901,0.0 L902,0.0 L903,0.0 L904,0.0 L905,0.0 L906,0.0 L907,0.0 L908,0.0 L909,0.0 L910,0.0 L911,0.0 L912,0.0 L913,0.0 L914,0.0 L915,0.0 L916,0.0 L917,0.0 L918,0.0 L919,0.0 L920,0.0 L921,0.0 L922,0.0 L923,0.0 L924,0.0 L925,0.0 L926,0.0 L927,0.0 L928,0.0 L929,0.0 L930,0.0 L931,0.0 L932,2.225309281725863 L933,0.0 L934,0.0 L935,0.0 L936,0.0 L937,0.0 L938,0.0 L939,0.0 L940,0.0 L941,0.0 L942,0.0 L943,0.0 L944,0.0 L945,0.0 L946,0.0 L947,0.0 L948,0.0 L949,0.0 L950,0.0 L951,0.0 L952,0.0 L953,0.0 L954,0.0 L955,0.0 L956,0.0 L957,0.0 L958,0.0 L959,0.0 L960,0.0 L961,0.0 L962,0.0 L963,0.0 L964,0.0 L965,0.0 L966,0.0 L967,0.0 L968,0.0 L969,0.0 L970,0.0 L971,0.0 L972,0.0 L973,0.0 L974,0.0 L975,0.0 L976,0.0 L977,0.0 L978,0.0 L979,0.0 L980,0.0 L981,0.0 L982,0.0 L983,0.0 L984,0.0 L985,0.0 L986,0.0 L987,0.0 L988,0.0 L989,0.0 L990,0.0 L991,0.0 L992,0.0 L993,0.0 L994,0.0 L995,0.0 L996,0.0 L997,0.0 L998,0.0 L999,0.0 L1000,0.0 L1001,0.0 L1002,0.0 L1003,0.0 L1004,0.0 L1005,0.0 L1006,0.0 L1007,0.0 L1008,0.0 L1009,0.0 L1010,0.0 L1011,0.0 L1012,0.0 L1013,0.0 L1014,0.0 L1015,0.0 L1016,0.0 L1017,0.0 L1018,0.0 L1019,0.0 L1020,0.0 L1021,0.0 L1022,0.0 L1023,0.0 L1024,0.0 L1025,0.0 L1026,0.0 L1027,0.0 L1028,0.0 L1029,0.0 L1030,0.0 L1031,0.0 L1032,0.0 L1033,0.0 L1034,0.0 L1035,0.0 L1036,0.0 L1037,0.0 L1038,0.0 L1039,0.0 L1040,0.0 L1041,0.0 L1042,0.0 L1043,0.0 L1044,0.0 L1045,0.0 L1046,0.0 L1047,0.0 L1048,0.0 L1049,0.0 L1050,0.0 L1051,0.0 L1052,0.0 L1053,0.0 L1054,0.0 L1055,0.0 L1056,0.0 L1057,0.0 L1058,0.0 L1059,0.0 L1060,0.0 L1061,0.0 L1062,0.0 L1063,0.0 L1064,0.0 L1065,0.0 L1066,0.0 L1067,0.0 L1068,0.0 L1069,0.0 L1070,0.0 " style="vector-effect: non-scaling-stroke; stroke: #ff0000; stroke-width: 1; fill-opacity: 0" transform="scale(0.672897,-28.571428571428573)"/><polyline points="0,0.0 720,0.0" style="vector-effect: non-scaling-stroke; stroke: #202020" transform="scale(1,-1)"/><text x="0" y="-0.0" style="fill: white; stroke: none; font-size: 12px; text-anchor: end">10^0&#160;</text><polyline points="0,31.25 720,31.25" style="vector-effect: non-scaling-stroke; stroke: #202020" transform="scale(1,-1)"/><text x="0" y="-31.25" style="fill: white; stroke: none; font-size: 12px; text-anchor: end">10^1&#160;</text><polyline points="0,62.5 720,62.5" style="vector-effect: non-scaling-stroke; stroke: #202020" transform="scale(1,-1)"/><text x="0" y="-62.5" style="fill: white; stroke: none; font-size: 12px; text-anchor: end">10^2&#160;</text><polyline points="0,93.75 720,93.75" style="vector-effect: non-scaling-stroke; stroke: #202020" transform="scale(1,-1)"/><text x="0" y="-93.75" style="fill: white; stroke: none; font-size: 12px; text-anchor: end">10^3&#160;</text><polyline points="0,125.0 720,125.0" style="vector-effect: non-scaling-stroke; stroke: #202020" transform="scale(1,-1)"/><text x="0" y="-125.0" style="fill: white; stroke: none; font-size: 12px; text-anchor: end">10^4&#160;</text><polyline points="0,156.25 720,156.25" style="vector-effect: non-scaling-stroke; stroke: #202020" transform="scale(1,-1)"/><text x="0" y="-156.25" style="fill: white; stroke: none; font-size: 12px; text-anchor: end">10^5&#160;</text><polyline points="0,187.5 720,187.5" style="vector-effect: non-scaling-stroke; stroke: #202020" transform="scale(1,-1)"/><text x="0" y="-187.5" style="fill: white; stroke: none; font-size: 12px; text-anchor: end">10^6&#160;</text></g>
</g>
</svg>
