<?xml version="1.0" encoding="UTF-8"?>
<!DOCTYPE svg PUBLIC "-//W3C//DTD SVG 1.1//EN" "http://www.w3.org/Graphics/SVG/1.1/DTD/svg11.dtd">
<svg xmlns="http://www.w3.org/2000/svg" width="1060" height="350" fill="black" stroke="gray" stroke-width="1">
<text x= "0" y="30" text-anchor="start" stroke="brown">Linux 3.10.0-693.el7.ppc64le (centos-npb-iv1-main) 	06/19/2018 	_ppc64le_	(10 CPU)
</text>
<g id="14" transform="translate(0,50)">
<rect x="0" y="0" height="300" width="1050"/>
<text x="0" y="20" style="fill: yellow; stroke: none">Memory utilization (1)
<tspan x="795" y="25" style="fill: yellow; stroke: none; font-size: 12px">(Min, Max, Average values)</tspan></text>
<polyline points="70,50 70,250 790,250" stroke="white" stroke-width="2"/>
<text x="795" y="50" style="fill: #00cc00; stroke: none; font-size: 12px">MBmemfree (62778.56, 98948.88, 95692.432)</text><text x="795" y="65" style="fill: #ff00bf; stroke: none; font-size: 12px">MBavail (89409.44, 99123.50, 97800.330)</text><text x="795" y="80" style="fill: #00ffff; stroke: none; font-size: 12px">MBmemused (1294.50, 37464.81, 4550.943)</text><g transform="translate(70,250)">
<text x="0" y="0" style="fill: white; stroke: none; font-size: 12px; text-anchor: end">0.</text>
<polyline points="0,30000.00 720,30000.00" style="vector-effect: non-scaling-stroke; stroke: #202020" transform="scale(1,-0.002018)"/>
<text x="0" y="-60" style="fill: white; stroke: none; font-size: 12px; text-anchor: end">30000.</text>
<polyline points="0,60000.00 720,60000.00" style="vector-effect: non-scaling-stroke; stroke: #202020" transform="scale(1,-0.002018)"/>
<text x="0" y="-121" style="fill: white; stroke: none; font-size: 12px; text-anchor: end">60000.</text>
<polyline points="0,90000.00 720,90000.00" style="vector-effect: non-scaling-stroke; stroke: #202020" transform="scale(1,-0.002018)"/>
<text x="0" y="-181" style="fill: white; stroke: none; font-size: 12px; text-anchor: end">90000.</text>
<polyline points="0,0 0,-200" style="vector-effect: non-scaling-stroke; stroke: #202020" transform="scale(0.672897,1)"/>
<text x="0" y="10" style="fill: white; stroke: none; font-size: 12px; text-anchor: start" transform="rotate(45,0,0)">09:56:49</text>
<polyline points="107,0 107,-200" style="vector-effect: non-scaling-stroke; stroke: #202020" transform="scale(0.672897,1)"/>
<text x="72" y="10" style="fill: white; stroke: none; font-size: 12px; text-anchor: start" transform="rotate(45,72,0)">09:58:36</text>
<polyline points="214,0 214,-200" style="vector-effect: non-scaling-stroke; stroke: #202020" transform="scale(0.672897,1)"/>
<text x="144" y="10" style="fill: white; stroke: none; font-size: 12px; text-anchor: start" transform="rotate(45,144,0)">10:00:23</text>
<polyline points="321,0 321,-200" style="vector-effect: non-scaling-stroke; stroke: #202020" transform="scale(0.672897,1)"/>
<text x="216" y="10" style="fill: white; stroke: none; font-size: 12px; text-anchor: start" transform="rotate(45,216,0)">10:02:10</text>
<polyline points="428,0 428,-200" style="vector-effect: non-scaling-stroke; stroke: #202020" transform="scale(0.672897,1)"/>
<text x="288" y="10" style="fill: white; stroke: none; font-size: 12px; text-anchor: start" transform="rotate(45,288,0)">10:03:57</text>
<polyline points="535,0 535,-200" style="vector-effect: non-scaling-stroke; stroke: #202020" transform="scale(0.672897,1)"/>
<text x="360" y="10" style="fill: white; stroke: none; font-size: 12px; text-anchor: start" transform="rotate(45,360,0)">10:05:44</text>
<polyline points="642,0 642,-200" style="vector-effect: non-scaling-stroke; stroke: #202020" transform="scale(0.672897,1)"/>
<text x="432" y="10" style="fill: white; stroke: none; font-size: 12px; text-anchor: start" transform="rotate(45,432,0)">10:07:31</text>
<polyline points="749,0 749,-200" style="vector-effect: non-scaling-stroke; stroke: #202020" transform="scale(0.672897,1)"/>
<text x="504" y="10" style="fill: white; stroke: none; font-size: 12px; text-anchor: start" transform="rotate(45,504,0)">10:09:18</text>
<polyline points="856,0 856,-200" style="vector-effect: non-scaling-stroke; stroke: #202020" transform="scale(0.672897,1)"/>
<text x="576" y="10" style="fill: white; stroke: none; font-size: 12px; text-anchor: start" transform="rotate(45,576,0)">10:11:05</text>
<polyline points="963,0 963,-200" style="vector-effect: non-scaling-stroke; stroke: #202020" transform="scale(0.672897,1)"/>
<text x="648" y="10" style="fill: white; stroke: none; font-size: 12px; text-anchor: start" transform="rotate(45,648,0)">10:12:52</text>
<polyline points="1070,0 1070,-200" style="vector-effect: non-scaling-stroke; stroke: #202020" transform="scale(0.672897,1)"/>
<text x="720" y="10" style="fill: white; stroke: none; font-size: 12px; text-anchor: start" transform="rotate(45,720,0)">10:14:39</text>
<text x="-10" y="30" style="fill: yellow; stroke: none; font-size: 12px; text-anchor: end">UTC</text>
<path id="g13p0" d=" M1,98948.88 L2,98948.06 L3,98937.88 L4,98239.31 L5,98239.31 L6,98239.31 L7,98239.31 L8,98239.25 L9,98239.25 L10,98239.12 L11,98239.19 L12,98239.19 L13,98241.31 L14,98241.31 L15,98241.38 L16,98242.50 L17,98242.56 L18,98242.56 L19,98242.56 L20,98242.50 L21,98242.56 L22,98242.50 L23,98242.50 L24,98242.44 L25,98242.44 L26,98242.44 L27,98242.44 L28,98242.44 L29,98242.44 L30,98242.44 L31,98242.44 L32,98242.38 L33,98242.38 L34,98242.38 L35,98242.38 L36,98242.38 L37,98242.38 L38,98242.38 L39,98242.38 L40,98242.38 L41,98242.31 L42,98242.31 L43,98242.31 L44,98242.31 L45,98242.31 L46,98242.31 L47,98242.31 L48,98242.31 L49,98242.25 L50,98242.25 L51,98242.25 L52,98242.25 L53,98242.25 L54,98242.25 L55,98242.25 L56,98242.25 L57,98242.19 L58,98242.19 L59,98242.19 L60,98242.19 L61,98242.19 L62,98242.19 L63,98242.19 L64,98242.19 L65,98242.12 L66,98242.06 L67,98242.12 L68,98242.12 L69,98242.12 L70,98242.12 L71,98242.12 L72,98242.12 L73,98242.06 L74,98242.06 L75,98242.06 L76,98242.06 L77,98242.12 L78,98242.06 L79,98242.06 L80,98242.06 L81,98242.00 L82,98242.00 L83,98242.00 L84,98242.00 L85,98242.00 L86,98242.06 L87,98242.00 L88,98242.00 L89,98241.94 L90,98241.94 L91,98241.94 L92,98241.94 L93,98241.94 L94,98241.94 L95,98241.94 L96,98241.94 L97,98241.88 L98,98241.88 L99,98241.88 L100,98241.88 L101,98241.88 L102,98241.88 L103,98241.88 L104,98241.88 L105,98931.56 L106,98464.56 L107,98464.56 L108,98045.31 L109,98045.31 L110,98045.19 L111,98045.19 L112,98045.19 L113,98045.06 L114,98045.00 L115,98045.00 L116,98045.00 L117,98045.00 L118,98045.00 L119,98045.00 L120,98044.94 L121,98044.88 L122,98044.88 L123,98044.88 L124,98044.88 L125,98044.88 L126,98044.88 L127,98044.88 L128,98044.88 L129,98044.81 L130,98044.81 L131,98044.81 L132,98044.81 L133,98044.81 L134,98044.81 L135,98044.81 L136,98044.81 L137,98044.75 L138,98044.75 L139,98044.75 L140,98044.75 L141,98044.75 L142,98044.75 L143,98044.75 L144,98044.75 L145,98921.12 L146,98921.06 L147,98921.06 L148,98921.06 L149,98921.00 L150,98921.00 L151,98921.00 L152,98920.94 L153,98920.94 L154,98920.88 L155,98920.88 L156,98920.81 L157,98920.81 L158,98920.75 L159,98920.75 L160,98920.75 L161,98920.69 L162,98920.69 L163,98920.62 L164,98920.62 L165,98920.56 L166,98920.56 L167,98920.50 L168,98920.50 L169,98920.50 L170,98920.44 L171,98920.44 L172,98920.38 L173,98920.38 L174,98920.31 L175,98920.31 L176,98920.25 L177,98920.25 L178,98920.19 L179,98920.19 L180,98920.19 L181,98920.12 L182,98920.12 L183,98920.06 L184,98920.06 L185,98920.00 L186,98920.00 L187,98919.94 L188,98919.94 L189,98919.94 L190,98919.88 L191,98919.88 L192,98919.81 L193,98919.81 L194,98919.75 L195,98919.75 L196,98919.69 L197,98919.69 L198,98919.69 L199,98919.62 L200,98919.62 L201,98919.56 L202,98919.56 L203,98919.50 L204,98919.50 L205,98919.75 L206,98919.75 L207,98919.75 L208,98919.69 L209,98919.69 L210,98919.62 L211,98919.62 L212,98919.56 L213,98919.56 L214,98919.50 L215,98919.50 L216,98919.50 L217,98919.44 L218,98919.44 L219,98919.38 L220,98919.38 L221,98919.31 L222,98919.31 L223,98919.25 L224,98919.25 L225,98919.25 L226,98919.19 L227,98919.19 L228,98919.12 L229,98919.12 L230,98919.06 L231,98919.06 L232,98919.00 L233,98919.00 L234,98918.94 L235,98918.94 L236,98918.94 L237,98918.88 L238,98918.88 L239,98918.81 L240,98918.81 L241,98918.75 L242,98918.75 L243,98918.69 L244,98918.69 L245,98918.69 L246,98918.62 L247,98918.62 L248,98918.56 L249,98918.56 L250,98918.50 L251,98918.50 L252,98910.94 L253,98911.56 L254,98915.75 L255,98915.69 L256,98915.69 L257,98915.62 L258,98915.62 L259,98915.56 L260,98915.50 L261,98915.44 L262,98915.44 L263,98915.44 L264,98915.38 L265,98915.38 L266,98915.31 L267,98915.31 L268,98915.25 L269,98915.25 L270,98915.19 L271,98915.19 L272,98915.19 L273,98915.12 L274,98915.12 L275,98915.06 L276,98915.06 L277,98915.00 L278,98915.00 L279,98914.94 L280,98914.94 L281,98914.94 L282,98914.88 L283,98914.88 L284,98914.81 L285,98914.81 L286,98914.75 L287,98914.75 L288,98914.69 L289,98914.69 L290,98914.62 L291,98914.62 L292,98914.62 L293,98914.56 L294,98914.56 L295,98914.50 L296,98914.50 L297,98914.44 L298,98914.44 L299,98914.38 L300,98914.38 L301,98914.38 L302,98914.31 L303,98914.31 L304,98914.25 L305,98914.25 L306,98914.19 L307,98914.19 L308,98914.12 L309,98914.12 L310,98914.12 L311,98914.06 L312,98914.06 L313,98914.00 L314,98914.00 L315,98913.94 L316,98913.94 L317,98913.88 L318,98913.88 L319,98913.88 L320,98913.81 L321,98913.81 L322,98913.75 L323,98913.75 L324,98913.69 L325,98913.69 L326,98913.62 L327,98913.62 L328,98913.62 L329,98913.56 L330,98913.56 L331,98913.50 L332,98913.50 L333,98913.44 L334,98913.44 L335,98913.38 L336,98913.38 L337,98913.38 L338,98913.31 L339,98913.31 L340,98913.25 L341,98913.25 L342,98913.19 L343,98913.19 L344,98913.12 L345,98913.12 L346,98913.06 L347,98913.06 L348,98913.06 L349,98913.00 L350,98913.00 L351,98912.94 L352,98912.94 L353,98912.88 L354,98912.88 L355,98912.81 L356,98912.81 L357,98912.81 L358,98912.75 L359,98912.75 L360,98912.69 L361,98912.69 L362,98912.62 L363,98912.62 L364,98912.56 L365,98912.56 L366,98912.56 L367,98912.50 L368,98912.50 L369,98912.44 L370,98912.44 L371,98912.38 L372,98912.38 L373,98912.31 L374,98912.31 L375,98912.31 L376,98912.25 L377,98912.25 L378,98912.19 L379,98912.19 L380,98912.12 L381,98912.12 L382,98912.06 L383,98912.06 L384,98912.06 L385,98912.00 L386,98912.00 L387,98911.94 L388,98911.94 L389,98911.88 L390,98911.88 L391,98911.81 L392,98911.81 L393,98911.81 L394,98911.75 L395,98911.75 L396,98911.69 L397,98911.69 L398,98911.62 L399,98911.62 L400,98911.56 L401,98911.56 L402,98911.50 L403,98911.50 L404,98911.50 L405,98911.44 L406,98911.44 L407,98911.38 L408,98911.38 L409,98911.31 L410,98911.31 L411,98911.25 L412,98911.25 L413,98911.25 L414,98911.19 L415,98911.19 L416,98911.12 L417,98911.12 L418,98916.62 L419,98916.62 L420,98916.56 L421,98916.56 L422,98916.56 L423,98916.50 L424,98916.50 L425,98916.44 L426,98916.44 L427,98916.38 L428,98916.38 L429,98916.31 L430,98916.31 L431,98916.31 L432,98916.25 L433,98916.25 L434,98916.19 L435,98916.19 L436,98916.12 L437,98916.12 L438,98916.06 L439,98916.06 L440,98916.06 L441,98916.00 L442,98916.00 L443,98915.94 L444,98915.94 L445,98915.88 L446,98915.88 L447,98915.81 L448,98915.81 L449,98915.81 L450,98915.75 L451,98915.75 L452,98915.69 L453,98915.69 L454,98915.62 L455,98915.62 L456,98915.56 L457,98915.56 L458,98915.50 L459,98915.50 L460,98915.50 L461,98915.44 L462,98915.44 L463,98915.38 L464,98915.38 L465,98915.31 L466,98915.31 L467,98915.25 L468,98915.25 L469,98915.25 L470,98915.19 L471,98915.19 L472,98915.12 L473,98915.12 L474,98915.06 L475,98915.06 L476,98915.00 L477,98915.00 L478,98915.00 L479,98914.94 L480,98914.94 L481,98914.88 L482,98914.88 L483,98914.81 L484,98914.81 L485,98914.75 L486,98914.75 L487,98914.75 L488,98914.69 L489,98914.69 L490,98914.62 L491,98914.62 L492,98914.56 L493,98914.56 L494,98914.50 L495,98914.50 L496,98914.50 L497,98914.44 L498,98914.44 L499,98914.38 L500,98914.38 L501,98914.31 L502,98914.31 L503,98914.25 L504,98914.25 L505,98914.25 L506,98914.19 L507,98914.19 L508,98914.12 L509,98914.12 L510,98914.06 L511,98914.06 L512,98914.00 L513,98914.00 L514,98913.94 L515,98913.94 L516,98913.94 L517,98913.88 L518,98913.88 L519,98913.81 L520,98913.81 L521,98913.75 L522,98913.75 L523,98913.69 L524,98913.69 L525,98913.69 L526,98913.62 L527,98913.62 L528,98913.56 L529,98913.56 L530,98913.50 L531,98913.50 L532,98913.44 L533,98913.44 L534,98913.44 L535,98913.38 L536,98913.38 L537,98913.31 L538,98913.31 L539,98913.25 L540,98913.25 L541,98913.19 L542,98913.19 L543,98913.19 L544,98913.12 L545,98913.12 L546,98913.06 L547,98913.06 L548,98913.00 L549,98913.00 L550,98912.94 L551,98912.94 L552,98912.94 L553,98912.88 L554,98912.88 L555,98912.81 L556,98912.81 L557,98912.75 L558,98912.75 L559,98912.69 L560,98912.69 L561,98912.69 L562,98912.62 L563,98912.62 L564,98912.56 L565,98912.56 L566,98912.50 L567,98912.50 L568,98912.44 L569,98912.44 L570,98912.38 L571,98912.38 L572,98912.38 L573,98912.31 L574,98912.31 L575,98912.25 L576,98912.25 L577,98912.19 L578,98912.19 L579,98912.12 L580,98912.12 L581,98912.12 L582,98912.06 L583,98912.06 L584,98912.00 L585,98912.00 L586,98911.94 L587,98911.94 L588,98911.88 L589,98911.88 L590,98911.88 L591,98911.81 L592,98911.81 L593,98911.75 L594,98911.75 L595,98911.69 L596,98912.19 L597,94888.38 L598,93795.94 L599,93790.75 L600,93790.56 L601,93790.56 L602,93790.56 L603,93790.56 L604,93790.50 L605,93790.50 L606,93790.50 L607,93790.50 L608,93790.56 L609,93790.50 L610,93790.50 L611,93790.50 L612,93790.44 L613,93790.44 L614,93790.44 L615,93790.44 L616,93790.44 L617,93790.44 L618,93790.44 L619,98822.88 L620,98664.12 L621,98494.38 L622,97869.94 L623,98353.88 L624,98326.44 L625,98326.44 L626,98326.44 L627,98326.44 L628,98326.38 L629,98326.38 L630,98326.25 L631,98326.25 L632,98326.25 L633,98326.25 L634,98326.25 L635,98326.25 L636,98326.19 L637,98326.19 L638,98326.19 L639,98326.19 L640,98326.19 L641,98326.19 L642,98326.19 L643,98326.19 L644,98326.12 L645,98326.12 L646,98326.12 L647,98326.12 L648,98326.12 L649,98326.12 L650,98326.12 L651,98326.12 L652,98326.06 L653,98326.06 L654,98326.06 L655,98326.06 L656,98326.06 L657,98326.06 L658,98326.06 L659,98326.06 L660,98326.00 L661,98326.00 L662,98326.00 L663,98326.00 L664,98326.00 L665,98326.00 L666,98326.00 L667,98326.00 L668,98325.94 L669,98325.94 L670,98325.94 L671,98325.94 L672,98325.94 L673,98326.00 L674,98325.94 L675,98325.94 L676,98325.88 L677,98325.88 L678,98325.88 L679,98325.88 L680,98325.88 L681,98325.88 L682,98325.81 L683,98325.88 L684,98325.81 L685,98325.81 L686,98325.81 L687,98325.81 L688,98325.81 L689,98325.81 L690,98325.81 L691,98325.81 L692,98325.75 L693,98325.75 L694,96896.19 L695,95516.12 L696,95515.94 L697,95515.94 L698,95515.88 L699,95515.88 L700,95515.81 L701,95515.75 L702,95515.75 L703,95515.75 L704,95515.75 L705,98182.31 L706,98171.88 L707,98171.94 L708,98171.94 L709,98171.88 L710,98171.69 L711,98171.69 L712,98171.69 L713,98171.69 L714,98171.69 L715,98171.69 L716,98171.69 L717,98171.62 L718,98171.62 L719,98171.62 L720,98171.62 L721,98171.62 L722,98171.62 L723,98171.62 L724,98171.62 L725,98171.56 L726,98171.56 L727,98171.56 L728,98171.56 L729,98171.56 L730,98171.56 L731,98171.56 L732,98171.56 L733,98171.50 L734,98171.50 L735,98171.50 L736,98171.50 L737,98171.50 L738,98171.44 L739,98171.50 L740,98171.50 L741,98171.44 L742,98171.44 L743,98171.44 L744,98171.44 L745,98171.44 L746,98171.44 L747,98171.44 L748,98171.44 L749,98171.38 L750,98171.38 L751,98171.38 L752,98171.38 L753,98171.38 L754,98171.38 L755,98171.38 L756,98171.38 L757,98171.31 L758,98171.31 L759,98171.31 L760,98171.31 L761,98171.31 L762,98171.31 L763,98171.31 L764,98171.31 L765,98171.25 L766,98171.25 L767,98171.25 L768,98171.25 L769,98171.25 L770,98171.25 L771,98171.25 L772,98171.25 L773,98171.19 L774,98171.19 L775,98171.19 L776,98171.19 L777,98171.19 L778,98171.19 L779,98171.19 L780,98171.19 L781,98171.12 L782,98171.12 L783,98171.12 L784,98171.12 L785,98171.12 L786,98171.12 L787,98171.12 L788,98171.12 L789,98171.12 L790,98171.06 L791,98171.06 L792,98447.31 L793,98447.25 L794,98447.19 L795,98447.25 L796,98444.69 L797,98443.75 L798,98443.69 L799,98443.69 L800,98443.44 L801,98443.44 L802,98443.44 L803,98443.44 L804,98443.44 L805,98443.38 L806,98443.31 L807,98443.31 L808,98443.31 L809,98443.31 L810,98443.31 L811,98443.31 L812,98443.31 L813,98443.31 L814,98443.25 L815,98443.25 L816,98443.25 L817,98442.31 L818,98442.31 L819,98442.31 L820,98442.31 L821,98441.94 L822,98441.88 L823,98441.88 L824,98441.88 L825,98441.88 L826,98441.88 L827,98441.88 L828,98441.88 L829,98441.88 L830,98441.81 L831,98441.81 L832,98441.81 L833,98441.81 L834,98441.81 L835,98441.81 L836,98441.81 L837,98441.81 L838,98441.75 L839,98441.75 L840,98441.75 L841,98441.75 L842,98441.75 L843,98441.75 L844,98441.75 L845,98441.75 L846,98441.69 L847,98441.69 L848,98441.69 L849,98441.69 L850,98441.62 L851,98441.69 L852,98441.69 L853,98441.69 L854,98441.62 L855,98441.62 L856,98441.62 L857,98441.62 L858,98441.62 L859,98441.62 L860,98441.62 L861,98441.62 L862,98441.56 L863,98441.56 L864,98441.56 L865,98441.56 L866,98441.56 L867,98441.56 L868,98441.56 L869,98441.56 L870,98441.50 L871,98441.50 L872,98441.50 L873,98441.50 L874,98441.50 L875,98441.50 L876,98441.50 L877,98441.50 L878,98441.44 L879,98441.44 L880,98441.44 L881,98441.44 L882,98441.44 L883,98441.44 L884,98441.44 L885,98441.44 L886,98441.38 L887,98441.38 L888,98441.38 L889,98441.38 L890,98441.19 L891,98440.69 L892,98440.62 L893,98440.56 L894,98440.50 L895,98440.50 L896,98440.50 L897,98440.50 L898,98440.50 L899,98440.50 L900,98440.50 L901,98440.50 L902,98440.44 L903,98440.44 L904,98440.44 L905,98440.44 L906,98440.38 L907,98440.44 L908,98440.44 L909,98440.44 L910,98440.38 L911,98440.38 L912,98440.38 L913,98440.38 L914,98440.38 L915,98440.38 L916,98440.38 L917,98440.38 L918,98440.31 L919,98440.31 L920,98440.31 L921,98440.31 L922,98440.31 L923,98440.31 L924,98440.31 L925,98440.31 L926,98440.25 L927,98440.25 L928,98440.25 L929,98440.25 L930,98440.25 L931,98440.25 L932,98890.00 L933,98833.38 L934,98776.75 L935,98719.25 L936,98661.56 L937,98603.94 L938,98546.25 L939,98488.81 L940,98431.06 L941,98373.44 L942,98315.62 L943,98258.12 L944,98200.50 L945,98142.88 L946,98085.25 L947,98019.88 L948,97401.62 L949,96590.62 L950,95902.62 L951,95285.06 L952,94687.62 L953,94101.88 L954,93545.19 L955,93032.75 L956,92513.75 L957,92009.00 L958,91509.00 L959,91014.38 L960,90523.12 L961,90026.00 L962,89543.94 L963,89015.75 L964,88245.12 L965,87337.19 L966,86295.94 L967,85075.56 L968,83893.38 L969,83099.56 L970,82456.75 L971,81946.06 L972,81750.31 L973,81745.94 L974,81745.94 L975,81745.88 L976,81745.88 L977,81745.88 L978,81745.88 L979,81745.88 L980,81745.88 L981,81745.88 L982,81465.00 L983,80918.00 L984,80232.06 L985,79543.06 L986,78914.31 L987,78481.31 L988,78079.75 L989,77563.06 L990,76950.38 L991,76478.44 L992,76049.06 L993,75480.25 L994,75376.00 L995,75371.31 L996,75370.06 L997,75370.06 L998,75353.38 L999,75132.62 L1000,74803.25 L1001,74304.56 L1002,73892.06 L1003,73599.06 L1004,73413.94 L1005,73318.38 L1006,73196.00 L1007,72966.50 L1008,72415.56 L1009,71812.00 L1010,71209.06 L1011,70671.62 L1012,70438.69 L1013,70324.38 L1014,70200.62 L1015,69813.50 L1016,69433.75 L1017,68878.12 L1018,68579.19 L1019,68341.88 L1020,68158.44 L1021,68101.81 L1022,68002.50 L1023,67885.69 L1024,67763.31 L1025,67640.94 L1026,67618.69 L1027,67496.31 L1028,67284.94 L1029,66840.88 L1030,66169.31 L1031,65480.62 L1032,64814.25 L1033,64320.75 L1034,64092.25 L1035,63862.69 L1036,63725.06 L1037,63603.50 L1038,63551.56 L1039,63533.88 L1040,63428.12 L1041,63322.44 L1042,63194.50 L1043,63069.50 L1044,62974.94 L1045,62778.56 L1046,63349.69 L1047,63677.19 L1048,64148.12 L1049,63766.19 L1050,63560.12 L1051,64287.81 L1052,64023.25 L1053,64832.56 L1054,65648.88 L1055,65495.12 L1056,65271.06 L1057,66135.19 L1058,66022.06 L1059,66869.25 L1060,66869.25 L1061,66870.44 L1062,66870.44 L1063,66869.19 L1064,66846.88 L1065,66706.38 L1066,66512.06 L1067,67205.56 L1068,67083.19 L1069,66958.38 L1070,67900.94" style="vector-effect: non-scaling-stroke; stroke: #00cc00; stroke-width: 1; fill-opacity: 0" transform="scale(0.672897,-0.002018)"/>
<path id="g13p1" d=" M1,99123.50 L2,99122.75 L3,99112.75 L4,98415.25 L5,98415.25 L6,98415.25 L7,98415.25 L8,98415.19 L9,98415.25 L10,98415.12 L11,98415.19 L12,98415.19 L13,98417.25 L14,98417.25 L15,98417.31 L16,98418.50 L17,98418.56 L18,98418.56 L19,98418.56 L20,98418.50 L21,98418.56 L22,98418.50 L23,98418.50 L24,98418.44 L25,98418.50 L26,98418.50 L27,98418.50 L28,98418.50 L29,98418.50 L30,98418.50 L31,98418.50 L32,98418.44 L33,98418.50 L34,98418.50 L35,98418.50 L36,98418.50 L37,98418.50 L38,98418.50 L39,98418.50 L40,98418.50 L41,98418.44 L42,98418.50 L43,98418.50 L44,98418.50 L45,98418.50 L46,98418.50 L47,98418.50 L48,98418.50 L49,98418.44 L50,98418.50 L51,98418.50 L52,98418.50 L53,98418.50 L54,98418.50 L55,98418.50 L56,98418.50 L57,98418.44 L58,98418.50 L59,98418.50 L60,98418.50 L61,98418.50 L62,98418.50 L63,98418.50 L64,98418.50 L65,98418.44 L66,98418.44 L67,98418.50 L68,98418.50 L69,98418.50 L70,98418.50 L71,98418.50 L72,98418.50 L73,98418.44 L74,98418.50 L75,98418.50 L76,98418.50 L77,98418.56 L78,98418.50 L79,98418.50 L80,98418.50 L81,98418.44 L82,98418.50 L83,98418.50 L84,98418.50 L85,98418.50 L86,98418.56 L87,98418.50 L88,98418.50 L89,98418.44 L90,98418.50 L91,98418.50 L92,98418.50 L93,98418.50 L94,98418.50 L95,98418.50 L96,98418.50 L97,98418.44 L98,98418.50 L99,98418.50 L100,98418.50 L101,98418.50 L102,98418.50 L103,98418.50 L104,98418.50 L105,99108.19 L106,98641.38 L107,98641.38 L108,98222.12 L109,98222.12 L110,98222.00 L111,98222.00 L112,98222.00 L113,98221.94 L114,98221.94 L115,98221.94 L116,98221.94 L117,98221.94 L118,98221.94 L119,98221.94 L120,98221.88 L121,98221.81 L122,98221.88 L123,98221.88 L124,98221.88 L125,98221.88 L126,98221.88 L127,98221.88 L128,98221.88 L129,98221.81 L130,98221.88 L131,98221.88 L132,98221.88 L133,98221.88 L134,98221.88 L135,98221.88 L136,98221.88 L137,98221.81 L138,98221.88 L139,98221.88 L140,98221.88 L141,98221.88 L142,98221.88 L143,98221.88 L144,98221.88 L145,99098.38 L146,99098.31 L147,99098.31 L148,99098.31 L149,99098.25 L150,99098.25 L151,99098.25 L152,99098.19 L153,99098.19 L154,99098.12 L155,99098.12 L156,99098.06 L157,99098.06 L158,99098.00 L159,99098.00 L160,99098.00 L161,99097.94 L162,99097.94 L163,99097.88 L164,99097.88 L165,99097.81 L166,99097.81 L167,99097.75 L168,99097.75 L169,99097.75 L170,99097.69 L171,99097.69 L172,99097.62 L173,99097.62 L174,99097.56 L175,99097.56 L176,99097.50 L177,99097.50 L178,99097.44 L179,99097.44 L180,99097.44 L181,99097.38 L182,99097.38 L183,99097.31 L184,99097.31 L185,99097.25 L186,99097.25 L187,99097.19 L188,99097.19 L189,99097.19 L190,99097.12 L191,99097.12 L192,99097.06 L193,99097.06 L194,99097.00 L195,99097.00 L196,99096.94 L197,99096.94 L198,99096.94 L199,99096.88 L200,99096.88 L201,99096.81 L202,99096.81 L203,99096.75 L204,99096.75 L205,99097.00 L206,99097.00 L207,99097.00 L208,99096.94 L209,99096.94 L210,99096.88 L211,99096.88 L212,99096.81 L213,99096.81 L214,99096.75 L215,99096.75 L216,99096.75 L217,99096.69 L218,99096.69 L219,99096.62 L220,99096.62 L221,99096.56 L222,99096.56 L223,99096.50 L224,99096.50 L225,99096.50 L226,99096.44 L227,99096.44 L228,99096.38 L229,99096.38 L230,99096.31 L231,99096.31 L232,99096.25 L233,99096.25 L234,99096.19 L235,99096.19 L236,99096.19 L237,99096.12 L238,99096.12 L239,99096.06 L240,99096.06 L241,99096.00 L242,99096.00 L243,99095.94 L244,99095.94 L245,99095.94 L246,99095.88 L247,99095.88 L248,99095.81 L249,99095.81 L250,99095.75 L251,99095.75 L252,99088.81 L253,99089.50 L254,99093.69 L255,99093.62 L256,99093.62 L257,99093.56 L258,99093.56 L259,99093.50 L260,99093.44 L261,99093.38 L262,99093.38 L263,99093.38 L264,99093.31 L265,99093.31 L266,99093.25 L267,99093.25 L268,99093.19 L269,99093.19 L270,99093.12 L271,99093.12 L272,99093.12 L273,99093.06 L274,99093.06 L275,99093.00 L276,99093.00 L277,99092.94 L278,99092.94 L279,99092.88 L280,99092.88 L281,99092.88 L282,99092.81 L283,99092.81 L284,99092.75 L285,99092.75 L286,99092.69 L287,99092.69 L288,99092.62 L289,99092.62 L290,99092.56 L291,99092.56 L292,99092.56 L293,99092.50 L294,99092.50 L295,99092.44 L296,99092.44 L297,99092.38 L298,99092.38 L299,99092.31 L300,99092.31 L301,99092.31 L302,99092.25 L303,99092.25 L304,99092.19 L305,99092.19 L306,99092.12 L307,99092.12 L308,99092.06 L309,99092.06 L310,99092.06 L311,99092.00 L312,99092.00 L313,99091.94 L314,99091.94 L315,99091.88 L316,99091.88 L317,99091.81 L318,99091.81 L319,99091.81 L320,99091.75 L321,99091.75 L322,99091.69 L323,99091.69 L324,99091.62 L325,99091.62 L326,99091.56 L327,99091.56 L328,99091.56 L329,99091.50 L330,99091.50 L331,99091.44 L332,99091.44 L333,99091.38 L334,99091.38 L335,99091.31 L336,99091.31 L337,99091.31 L338,99091.25 L339,99091.25 L340,99091.19 L341,99091.19 L342,99091.12 L343,99091.12 L344,99091.06 L345,99091.06 L346,99091.00 L347,99091.00 L348,99091.00 L349,99090.94 L350,99090.94 L351,99090.88 L352,99090.88 L353,99090.81 L354,99090.81 L355,99090.75 L356,99090.75 L357,99090.75 L358,99090.69 L359,99090.69 L360,99090.62 L361,99090.62 L362,99090.56 L363,99090.56 L364,99090.50 L365,99090.50 L366,99090.50 L367,99090.44 L368,99090.44 L369,99090.38 L370,99090.38 L371,99090.31 L372,99090.31 L373,99090.25 L374,99090.25 L375,99090.25 L376,99090.19 L377,99090.19 L378,99090.12 L379,99090.12 L380,99090.06 L381,99090.06 L382,99090.00 L383,99090.00 L384,99090.00 L385,99089.94 L386,99089.94 L387,99089.88 L388,99089.88 L389,99089.81 L390,99089.81 L391,99089.75 L392,99089.75 L393,99089.75 L394,99089.69 L395,99089.69 L396,99089.62 L397,99089.62 L398,99089.56 L399,99089.56 L400,99089.50 L401,99089.50 L402,99089.44 L403,99089.44 L404,99089.44 L405,99089.38 L406,99089.38 L407,99089.31 L408,99089.31 L409,99089.25 L410,99089.25 L411,99089.19 L412,99089.19 L413,99089.19 L414,99089.12 L415,99089.12 L416,99089.06 L417,99089.06 L418,99094.56 L419,99094.56 L420,99094.50 L421,99094.50 L422,99094.50 L423,99094.44 L424,99094.44 L425,99094.38 L426,99094.38 L427,99094.31 L428,99094.31 L429,99094.25 L430,99094.25 L431,99094.25 L432,99094.19 L433,99094.19 L434,99094.12 L435,99094.12 L436,99094.06 L437,99094.06 L438,99094.00 L439,99094.00 L440,99094.00 L441,99093.94 L442,99093.94 L443,99093.88 L444,99093.88 L445,99093.81 L446,99093.81 L447,99093.75 L448,99093.75 L449,99093.75 L450,99093.69 L451,99093.69 L452,99093.62 L453,99093.62 L454,99093.56 L455,99093.56 L456,99093.50 L457,99093.50 L458,99093.44 L459,99093.44 L460,99093.44 L461,99093.38 L462,99093.38 L463,99093.31 L464,99093.31 L465,99093.25 L466,99093.25 L467,99093.19 L468,99093.19 L469,99093.19 L470,99093.12 L471,99093.12 L472,99093.06 L473,99093.06 L474,99093.00 L475,99093.00 L476,99092.94 L477,99092.94 L478,99092.94 L479,99092.88 L480,99092.88 L481,99092.81 L482,99092.81 L483,99092.75 L484,99092.75 L485,99092.69 L486,99092.69 L487,99092.69 L488,99092.62 L489,99092.62 L490,99092.56 L491,99092.56 L492,99092.50 L493,99092.50 L494,99092.44 L495,99092.44 L496,99092.44 L497,99092.38 L498,99092.38 L499,99092.31 L500,99092.31 L501,99092.25 L502,99092.25 L503,99092.19 L504,99092.19 L505,99092.19 L506,99092.12 L507,99092.12 L508,99092.06 L509,99092.06 L510,99092.00 L511,99092.00 L512,99091.94 L513,99091.94 L514,99091.88 L515,99091.88 L516,99091.88 L517,99091.81 L518,99091.81 L519,99091.75 L520,99091.75 L521,99091.69 L522,99091.69 L523,99091.62 L524,99091.62 L525,99091.62 L526,99091.56 L527,99091.56 L528,99091.50 L529,99091.50 L530,99091.44 L531,99091.44 L532,99091.38 L533,99091.38 L534,99091.38 L535,99091.31 L536,99091.31 L537,99091.25 L538,99091.25 L539,99091.19 L540,99091.19 L541,99091.12 L542,99091.12 L543,99091.12 L544,99091.06 L545,99091.06 L546,99091.00 L547,99091.00 L548,99090.94 L549,99090.94 L550,99090.88 L551,99090.88 L552,99090.88 L553,99090.81 L554,99090.81 L555,99090.75 L556,99090.75 L557,99090.69 L558,99090.69 L559,99090.62 L560,99090.62 L561,99090.62 L562,99090.56 L563,99090.56 L564,99090.50 L565,99090.50 L566,99090.44 L567,99090.44 L568,99090.38 L569,99090.38 L570,99090.31 L571,99090.31 L572,99090.31 L573,99090.25 L574,99090.25 L575,99090.19 L576,99090.19 L577,99090.12 L578,99090.12 L579,99090.06 L580,99090.06 L581,99090.06 L582,99090.00 L583,99090.00 L584,99089.94 L585,99089.94 L586,99089.88 L587,99089.88 L588,99089.81 L589,99089.81 L590,99089.81 L591,99089.75 L592,99089.75 L593,99089.69 L594,99089.69 L595,99089.62 L596,99090.38 L597,95070.31 L598,93978.06 L599,93972.94 L600,93972.75 L601,93972.75 L602,93972.75 L603,93972.75 L604,93972.69 L605,93972.75 L606,93972.75 L607,93972.75 L608,93972.81 L609,93972.75 L610,93972.75 L611,93972.75 L612,93972.69 L613,93972.75 L614,93972.75 L615,93972.75 L616,93972.75 L617,93972.75 L618,93972.75 L619,99005.44 L620,98846.69 L621,98676.94 L622,98052.56 L623,98536.50 L624,98509.25 L625,98509.25 L626,98509.25 L627,98509.25 L628,98509.19 L629,98509.25 L630,98509.12 L631,98509.12 L632,98509.12 L633,98509.12 L634,98509.12 L635,98509.12 L636,98509.06 L637,98509.12 L638,98509.12 L639,98509.12 L640,98509.12 L641,98509.12 L642,98509.12 L643,98509.12 L644,98509.06 L645,98509.12 L646,98509.12 L647,98509.12 L648,98509.12 L649,98509.12 L650,98509.12 L651,98509.12 L652,98509.06 L653,98509.12 L654,98509.12 L655,98509.12 L656,98509.12 L657,98509.12 L658,98509.12 L659,98509.12 L660,98509.06 L661,98509.12 L662,98509.12 L663,98509.12 L664,98509.12 L665,98509.12 L666,98509.12 L667,98509.12 L668,98509.06 L669,98509.12 L670,98509.12 L671,98509.12 L672,98509.12 L673,98509.19 L674,98509.12 L675,98509.12 L676,98509.06 L677,98509.12 L678,98509.12 L679,98509.12 L680,98509.12 L681,98509.12 L682,98509.06 L683,98509.12 L684,98509.06 L685,98509.12 L686,98509.12 L687,98509.12 L688,98509.12 L689,98509.12 L690,98509.12 L691,98509.12 L692,98509.06 L693,98509.12 L694,97079.56 L695,95699.62 L696,95699.44 L697,95699.44 L698,95699.38 L699,95699.38 L700,95699.31 L701,95699.31 L702,95699.31 L703,95699.31 L704,95699.31 L705,98366.06 L706,98355.62 L707,98355.69 L708,98355.69 L709,98355.69 L710,98355.50 L711,98355.50 L712,98355.50 L713,98355.50 L714,98355.50 L715,98355.50 L716,98355.50 L717,98355.50 L718,98355.50 L719,98355.50 L720,98355.50 L721,98355.50 L722,98355.50 L723,98355.50 L724,98355.50 L725,98355.50 L726,98355.50 L727,98355.50 L728,98355.50 L729,98355.50 L730,98355.50 L731,98355.50 L732,98355.50 L733,98355.50 L734,98355.50 L735,98355.50 L736,98355.50 L737,98355.50 L738,98355.44 L739,98355.50 L740,98355.50 L741,98355.50 L742,98355.50 L743,98355.50 L744,98355.50 L745,98355.50 L746,98355.50 L747,98355.50 L748,98355.50 L749,98355.50 L750,98355.50 L751,98355.50 L752,98355.50 L753,98355.50 L754,98355.50 L755,98355.50 L756,98355.50 L757,98355.50 L758,98355.50 L759,98355.50 L760,98355.50 L761,98355.50 L762,98355.50 L763,98355.50 L764,98355.50 L765,98355.50 L766,98355.50 L767,98355.50 L768,98355.50 L769,98355.50 L770,98355.50 L771,98355.50 L772,98355.50 L773,98355.50 L774,98355.50 L775,98355.50 L776,98355.50 L777,98355.50 L778,98355.50 L779,98355.50 L780,98355.50 L781,98355.50 L782,98355.50 L783,98355.50 L784,98355.50 L785,98355.50 L786,98355.50 L787,98355.50 L788,98355.50 L789,98355.50 L790,98355.50 L791,98355.50 L792,98632.06 L793,98632.00 L794,98631.94 L795,98632.00 L796,98629.44 L797,98628.50 L798,98628.50 L799,98628.50 L800,98628.25 L801,98628.25 L802,98628.25 L803,98628.25 L804,98628.25 L805,98628.19 L806,98628.19 L807,98628.19 L808,98628.19 L809,98628.19 L810,98628.19 L811,98628.19 L812,98628.19 L813,98628.19 L814,98628.19 L815,98628.19 L816,98628.19 L817,98627.25 L818,98627.25 L819,98627.25 L820,98627.25 L821,98626.88 L822,98626.88 L823,98626.88 L824,98626.88 L825,98626.88 L826,98626.88 L827,98626.88 L828,98626.88 L829,98626.88 L830,98626.88 L831,98626.88 L832,98626.88 L833,98626.88 L834,98626.88 L835,98626.88 L836,98626.88 L837,98626.88 L838,98626.88 L839,98626.88 L840,98626.88 L841,98626.88 L842,98626.88 L843,98626.88 L844,98626.88 L845,98626.88 L846,98626.88 L847,98626.88 L848,98626.88 L849,98626.88 L850,98626.81 L851,98626.88 L852,98626.88 L853,98626.88 L854,98626.88 L855,98626.88 L856,98626.88 L857,98626.88 L858,98626.88 L859,98626.88 L860,98626.88 L861,98626.88 L862,98626.88 L863,98626.88 L864,98626.88 L865,98626.88 L866,98626.88 L867,98626.88 L868,98626.88 L869,98626.88 L870,98626.88 L871,98626.88 L872,98626.88 L873,98626.88 L874,98626.88 L875,98626.88 L876,98626.88 L877,98626.88 L878,98626.88 L879,98626.88 L880,98626.88 L881,98626.88 L882,98626.88 L883,98626.88 L884,98626.88 L885,98626.88 L886,98626.88 L887,98626.88 L888,98626.88 L889,98626.88 L890,98626.69 L891,98626.19 L892,98626.12 L893,98626.06 L894,98626.06 L895,98626.06 L896,98626.06 L897,98626.06 L898,98626.06 L899,98626.06 L900,98626.06 L901,98626.06 L902,98626.06 L903,98626.06 L904,98626.06 L905,98626.06 L906,98626.00 L907,98626.06 L908,98626.06 L909,98626.06 L910,98626.06 L911,98626.06 L912,98626.06 L913,98626.06 L914,98626.06 L915,98626.06 L916,98626.06 L917,98626.06 L918,98626.06 L919,98626.06 L920,98626.06 L921,98626.06 L922,98626.06 L923,98626.06 L924,98626.06 L925,98626.06 L926,98626.06 L927,98626.06 L928,98626.06 L929,98626.06 L930,98626.06 L931,98626.06 L932,99106.94 L933,99107.00 L934,99106.25 L935,99105.50 L936,99104.50 L937,99103.62 L938,99102.62 L939,99102.75 L940,99101.75 L941,99100.81 L942,99099.81 L943,99099.88 L944,99099.00 L945,99098.06 L946,99097.12 L947,99055.94 L948,98437.75 L949,97627.44 L950,96939.44 L951,96321.88 L952,95724.44 L953,95138.69 L954,94582.00 L955,94069.56 L956,93550.56 L957,93045.88 L958,92545.88 L959,92051.25 L960,91560.00 L961,91062.88 L962,90580.81 L963,90124.94 L964,89823.62 L965,89599.62 L966,89456.44 L967,89409.44 L968,89430.94 L969,89430.69 L970,89432.38 L971,89425.75 L972,89437.19 L973,89437.81 L974,89437.81 L975,89437.81 L976,89437.81 L977,89437.81 L978,89437.81 L979,89437.81 L980,89437.81 L981,89437.81 L982,89426.12 L983,89437.06 L984,89437.44 L985,89442.62 L986,89431.56 L987,89437.44 L988,89425.75 L989,89426.75 L990,89420.31 L991,89425.56 L992,89425.81 L993,89432.31 L994,89432.44 L995,89431.88 L996,89430.62 L997,89430.62 L998,89430.62 L999,89430.25 L1000,89430.31 L1001,89424.62 L1002,89424.62 L1003,89430.44 L1004,89424.44 L1005,89430.25 L1006,89430.25 L1007,89430.06 L1008,89435.69 L1009,89419.44 L1010,89424.75 L1011,89430.75 L1012,89431.31 L1013,89425.94 L1014,89437.25 L1015,89426.25 L1016,89425.56 L1017,89425.31 L1018,89431.25 L1019,89425.88 L1020,89425.69 L1021,89431.50 L1022,89431.56 L1023,89431.56 L1024,89431.56 L1025,89431.56 L1026,89431.56 L1027,89426.00 L1028,89431.56 L1029,89426.00 L1030,89419.62 L1031,89431.38 L1032,89419.75 L1033,89426.12 L1034,89430.88 L1035,89424.62 L1036,89419.25 L1037,89425.25 L1038,89424.88 L1039,89430.81 L1040,89430.88 L1041,89430.88 L1042,89425.31 L1043,89424.88 L1044,89430.44 L1045,89430.75 L1046,90381.69 L1047,91300.44 L1048,92333.56 L1049,92322.62 L1050,92326.88 L1051,93347.31 L1052,93353.00 L1053,94365.25 L1054,95299.75 L1055,95301.62 L1056,95310.19 L1057,96323.06 L1058,96323.19 L1059,97191.12 L1060,97191.12 L1061,97192.88 L1062,97192.88 L1063,97191.69 L1064,97191.62 L1065,97191.31 L1066,97185.94 L1067,98131.69 L1068,98131.69 L1069,98126.12 L1070,99084.62" style="vector-effect: non-scaling-stroke; stroke: #ff00bf; stroke-width: 1; fill-opacity: 0" transform="scale(0.672897,-0.002018)"/>
<path id="g13p2" d=" M1,1294.50 L2,1295.31 L3,1305.50 L4,2004.06 L5,2004.06 L6,2004.06 L7,2004.06 L8,2004.12 L9,2004.12 L10,2004.25 L11,2004.19 L12,2004.19 L13,2002.06 L14,2002.06 L15,2002.00 L16,2000.88 L17,2000.81 L18,2000.81 L19,2000.81 L20,2000.88 L21,2000.81 L22,2000.88 L23,2000.88 L24,2000.94 L25,2000.94 L26,2000.94 L27,2000.94 L28,2000.94 L29,2000.94 L30,2000.94 L31,2000.94 L32,2001.00 L33,2001.00 L34,2001.00 L35,2001.00 L36,2001.00 L37,2001.00 L38,2001.00 L39,2001.00 L40,2001.00 L41,2001.06 L42,2001.06 L43,2001.06 L44,2001.06 L45,2001.06 L46,2001.06 L47,2001.06 L48,2001.06 L49,2001.12 L50,2001.12 L51,2001.12 L52,2001.12 L53,2001.12 L54,2001.12 L55,2001.12 L56,2001.12 L57,2001.19 L58,2001.19 L59,2001.19 L60,2001.19 L61,2001.19 L62,2001.19 L63,2001.19 L64,2001.19 L65,2001.25 L66,2001.31 L67,2001.25 L68,2001.25 L69,2001.25 L70,2001.25 L71,2001.25 L72,2001.25 L73,2001.31 L74,2001.31 L75,2001.31 L76,2001.31 L77,2001.25 L78,2001.31 L79,2001.31 L80,2001.31 L81,2001.38 L82,2001.38 L83,2001.38 L84,2001.38 L85,2001.38 L86,2001.31 L87,2001.38 L88,2001.38 L89,2001.44 L90,2001.44 L91,2001.44 L92,2001.44 L93,2001.44 L94,2001.44 L95,2001.44 L96,2001.44 L97,2001.50 L98,2001.50 L99,2001.50 L100,2001.50 L101,2001.50 L102,2001.50 L103,2001.50 L104,2001.50 L105,1311.81 L106,1778.81 L107,1778.81 L108,2198.06 L109,2198.06 L110,2198.19 L111,2198.19 L112,2198.19 L113,2198.31 L114,2198.38 L115,2198.38 L116,2198.38 L117,2198.38 L118,2198.38 L119,2198.38 L120,2198.44 L121,2198.50 L122,2198.50 L123,2198.50 L124,2198.50 L125,2198.50 L126,2198.50 L127,2198.50 L128,2198.50 L129,2198.56 L130,2198.56 L131,2198.56 L132,2198.56 L133,2198.56 L134,2198.56 L135,2198.56 L136,2198.56 L137,2198.62 L138,2198.62 L139,2198.62 L140,2198.62 L141,2198.62 L142,2198.62 L143,2198.62 L144,2198.62 L145,1322.25 L146,1322.31 L147,1322.31 L148,1322.31 L149,1322.38 L150,1322.38 L151,1322.38 L152,1322.44 L153,1322.44 L154,1322.50 L155,1322.50 L156,1322.56 L157,1322.56 L158,1322.62 L159,1322.62 L160,1322.62 L161,1322.69 L162,1322.69 L163,1322.75 L164,1322.75 L165,1322.81 L166,1322.81 L167,1322.88 L168,1322.88 L169,1322.88 L170,1322.94 L171,1322.94 L172,1323.00 L173,1323.00 L174,1323.06 L175,1323.06 L176,1323.12 L177,1323.12 L178,1323.19 L179,1323.19 L180,1323.19 L181,1323.25 L182,1323.25 L183,1323.31 L184,1323.31 L185,1323.38 L186,1323.38 L187,1323.44 L188,1323.44 L189,1323.44 L190,1323.50 L191,1323.50 L192,1323.56 L193,1323.56 L194,1323.62 L195,1323.62 L196,1323.69 L197,1323.69 L198,1323.69 L199,1323.75 L200,1323.75 L201,1323.81 L202,1323.81 L203,1323.88 L204,1323.88 L205,1323.62 L206,1323.62 L207,1323.62 L208,1323.69 L209,1323.69 L210,1323.75 L211,1323.75 L212,1323.81 L213,1323.81 L214,1323.88 L215,1323.88 L216,1323.88 L217,1323.94 L218,1323.94 L219,1324.00 L220,1324.00 L221,1324.06 L222,1324.06 L223,1324.12 L224,1324.12 L225,1324.12 L226,1324.19 L227,1324.19 L228,1324.25 L229,1324.25 L230,1324.31 L231,1324.31 L232,1324.38 L233,1324.38 L234,1324.44 L235,1324.44 L236,1324.44 L237,1324.50 L238,1324.50 L239,1324.56 L240,1324.56 L241,1324.62 L242,1324.62 L243,1324.69 L244,1324.69 L245,1324.69 L246,1324.75 L247,1324.75 L248,1324.81 L249,1324.81 L250,1324.88 L251,1324.88 L252,1332.44 L253,1331.81 L254,1327.62 L255,1327.69 L256,1327.69 L257,1327.75 L258,1327.75 L259,1327.81 L260,1327.88 L261,1327.94 L262,1327.94 L263,1327.94 L264,1328.00 L265,1328.00 L266,1328.06 L267,1328.06 L268,1328.12 L269,1328.12 L270,1328.19 L271,1328.19 L272,1328.19 L273,1328.25 L274,1328.25 L275,1328.31 L276,1328.31 L277,1328.38 L278,1328.38 L279,1328.44 L280,1328.44 L281,1328.44 L282,1328.50 L283,1328.50 L284,1328.56 L285,1328.56 L286,1328.62 L287,1328.62 L288,1328.69 L289,1328.69 L290,1328.75 L291,1328.75 L292,1328.75 L293,1328.81 L294,1328.81 L295,1328.88 L296,1328.88 L297,1328.94 L298,1328.94 L299,1329.00 L300,1329.00 L301,1329.00 L302,1329.06 L303,1329.06 L304,1329.12 L305,1329.12 L306,1329.19 L307,1329.19 L308,1329.25 L309,1329.25 L310,1329.25 L311,1329.31 L312,1329.31 L313,1329.38 L314,1329.38 L315,1329.44 L316,1329.44 L317,1329.50 L318,1329.50 L319,1329.50 L320,1329.56 L321,1329.56 L322,1329.62 L323,1329.62 L324,1329.69 L325,1329.69 L326,1329.75 L327,1329.75 L328,1329.75 L329,1329.81 L330,1329.81 L331,1329.88 L332,1329.88 L333,1329.94 L334,1329.94 L335,1330.00 L336,1330.00 L337,1330.00 L338,1330.06 L339,1330.06 L340,1330.12 L341,1330.12 L342,1330.19 L343,1330.19 L344,1330.25 L345,1330.25 L346,1330.31 L347,1330.31 L348,1330.31 L349,1330.38 L350,1330.38 L351,1330.44 L352,1330.44 L353,1330.50 L354,1330.50 L355,1330.56 L356,1330.56 L357,1330.56 L358,1330.62 L359,1330.62 L360,1330.69 L361,1330.69 L362,1330.75 L363,1330.75 L364,1330.81 L365,1330.81 L366,1330.81 L367,1330.88 L368,1330.88 L369,1330.94 L370,1330.94 L371,1331.00 L372,1331.00 L373,1331.06 L374,1331.06 L375,1331.06 L376,1331.12 L377,1331.12 L378,1331.19 L379,1331.19 L380,1331.25 L381,1331.25 L382,1331.31 L383,1331.31 L384,1331.31 L385,1331.38 L386,1331.38 L387,1331.44 L388,1331.44 L389,1331.50 L390,1331.50 L391,1331.56 L392,1331.56 L393,1331.56 L394,1331.62 L395,1331.62 L396,1331.69 L397,1331.69 L398,1331.75 L399,1331.75 L400,1331.81 L401,1331.81 L402,1331.88 L403,1331.88 L404,1331.88 L405,1331.94 L406,1331.94 L407,1332.00 L408,1332.00 L409,1332.06 L410,1332.06 L411,1332.12 L412,1332.12 L413,1332.12 L414,1332.19 L415,1332.19 L416,1332.25 L417,1332.25 L418,1326.75 L419,1326.75 L420,1326.81 L421,1326.81 L422,1326.81 L423,1326.88 L424,1326.88 L425,1326.94 L426,1326.94 L427,1327.00 L428,1327.00 L429,1327.06 L430,1327.06 L431,1327.06 L432,1327.12 L433,1327.12 L434,1327.19 L435,1327.19 L436,1327.25 L437,1327.25 L438,1327.31 L439,1327.31 L440,1327.31 L441,1327.38 L442,1327.38 L443,1327.44 L444,1327.44 L445,1327.50 L446,1327.50 L447,1327.56 L448,1327.56 L449,1327.56 L450,1327.62 L451,1327.62 L452,1327.69 L453,1327.69 L454,1327.75 L455,1327.75 L456,1327.81 L457,1327.81 L458,1327.88 L459,1327.88 L460,1327.88 L461,1327.94 L462,1327.94 L463,1328.00 L464,1328.00 L465,1328.06 L466,1328.06 L467,1328.12 L468,1328.12 L469,1328.12 L470,1328.19 L471,1328.19 L472,1328.25 L473,1328.25 L474,1328.31 L475,1328.31 L476,1328.38 L477,1328.38 L478,1328.38 L479,1328.44 L480,1328.44 L481,1328.50 L482,1328.50 L483,1328.56 L484,1328.56 L485,1328.62 L486,1328.62 L487,1328.62 L488,1328.69 L489,1328.69 L490,1328.75 L491,1328.75 L492,1328.81 L493,1328.81 L494,1328.88 L495,1328.88 L496,1328.88 L497,1328.94 L498,1328.94 L499,1329.00 L500,1329.00 L501,1329.06 L502,1329.06 L503,1329.12 L504,1329.12 L505,1329.12 L506,1329.19 L507,1329.19 L508,1329.25 L509,1329.25 L510,1329.31 L511,1329.31 L512,1329.38 L513,1329.38 L514,1329.44 L515,1329.44 L516,1329.44 L517,1329.50 L518,1329.50 L519,1329.56 L520,1329.56 L521,1329.62 L522,1329.62 L523,1329.69 L524,1329.69 L525,1329.69 L526,1329.75 L527,1329.75 L528,1329.81 L529,1329.81 L530,1329.88 L531,1329.88 L532,1329.94 L533,1329.94 L534,1329.94 L535,1330.00 L536,1330.00 L537,1330.06 L538,1330.06 L539,1330.12 L540,1330.12 L541,1330.19 L542,1330.19 L543,1330.19 L544,1330.25 L545,1330.25 L546,1330.31 L547,1330.31 L548,1330.38 L549,1330.38 L550,1330.44 L551,1330.44 L552,1330.44 L553,1330.50 L554,1330.50 L555,1330.56 L556,1330.56 L557,1330.62 L558,1330.62 L559,1330.69 L560,1330.69 L561,1330.69 L562,1330.75 L563,1330.75 L564,1330.81 L565,1330.81 L566,1330.88 L567,1330.88 L568,1330.94 L569,1330.94 L570,1331.00 L571,1331.00 L572,1331.00 L573,1331.06 L574,1331.06 L575,1331.12 L576,1331.12 L577,1331.19 L578,1331.19 L579,1331.25 L580,1331.25 L581,1331.25 L582,1331.31 L583,1331.31 L584,1331.38 L585,1331.38 L586,1331.44 L587,1331.44 L588,1331.50 L589,1331.50 L590,1331.50 L591,1331.56 L592,1331.56 L593,1331.62 L594,1331.62 L595,1331.69 L596,1331.19 L597,5355.00 L598,6447.44 L599,6452.62 L600,6452.81 L601,6452.81 L602,6452.81 L603,6452.81 L604,6452.88 L605,6452.88 L606,6452.88 L607,6452.88 L608,6452.81 L609,6452.88 L610,6452.88 L611,6452.88 L612,6452.94 L613,6452.94 L614,6452.94 L615,6452.94 L616,6452.94 L617,6452.94 L618,6452.94 L619,1420.50 L620,1579.25 L621,1749.00 L622,2373.44 L623,1889.50 L624,1916.94 L625,1916.94 L626,1916.94 L627,1916.94 L628,1917.00 L629,1917.00 L630,1917.12 L631,1917.12 L632,1917.12 L633,1917.12 L634,1917.12 L635,1917.12 L636,1917.19 L637,1917.19 L638,1917.19 L639,1917.19 L640,1917.19 L641,1917.19 L642,1917.19 L643,1917.19 L644,1917.25 L645,1917.25 L646,1917.25 L647,1917.25 L648,1917.25 L649,1917.25 L650,1917.25 L651,1917.25 L652,1917.31 L653,1917.31 L654,1917.31 L655,1917.31 L656,1917.31 L657,1917.31 L658,1917.31 L659,1917.31 L660,1917.38 L661,1917.38 L662,1917.38 L663,1917.38 L664,1917.38 L665,1917.38 L666,1917.38 L667,1917.38 L668,1917.44 L669,1917.44 L670,1917.44 L671,1917.44 L672,1917.44 L673,1917.38 L674,1917.44 L675,1917.44 L676,1917.50 L677,1917.50 L678,1917.50 L679,1917.50 L680,1917.50 L681,1917.50 L682,1917.56 L683,1917.50 L684,1917.56 L685,1917.56 L686,1917.56 L687,1917.56 L688,1917.56 L689,1917.56 L690,1917.56 L691,1917.56 L692,1917.62 L693,1917.62 L694,3347.19 L695,4727.25 L696,4727.44 L697,4727.44 L698,4727.50 L699,4727.50 L700,4727.56 L701,4727.62 L702,4727.62 L703,4727.62 L704,4727.62 L705,2061.06 L706,2071.50 L707,2071.44 L708,2071.44 L709,2071.50 L710,2071.69 L711,2071.69 L712,2071.69 L713,2071.69 L714,2071.69 L715,2071.69 L716,2071.69 L717,2071.75 L718,2071.75 L719,2071.75 L720,2071.75 L721,2071.75 L722,2071.75 L723,2071.75 L724,2071.75 L725,2071.81 L726,2071.81 L727,2071.81 L728,2071.81 L729,2071.81 L730,2071.81 L731,2071.81 L732,2071.81 L733,2071.88 L734,2071.88 L735,2071.88 L736,2071.88 L737,2071.88 L738,2071.94 L739,2071.88 L740,2071.88 L741,2071.94 L742,2071.94 L743,2071.94 L744,2071.94 L745,2071.94 L746,2071.94 L747,2071.94 L748,2071.94 L749,2072.00 L750,2072.00 L751,2072.00 L752,2072.00 L753,2072.00 L754,2072.00 L755,2072.00 L756,2072.00 L757,2072.06 L758,2072.06 L759,2072.06 L760,2072.06 L761,2072.06 L762,2072.06 L763,2072.06 L764,2072.06 L765,2072.12 L766,2072.12 L767,2072.12 L768,2072.12 L769,2072.12 L770,2072.12 L771,2072.12 L772,2072.12 L773,2072.19 L774,2072.19 L775,2072.19 L776,2072.19 L777,2072.19 L778,2072.19 L779,2072.19 L780,2072.19 L781,2072.25 L782,2072.25 L783,2072.25 L784,2072.25 L785,2072.25 L786,2072.25 L787,2072.25 L788,2072.25 L789,2072.25 L790,2072.31 L791,2072.31 L792,1796.06 L793,1796.12 L794,1796.19 L795,1796.12 L796,1798.69 L797,1799.62 L798,1799.69 L799,1799.69 L800,1799.94 L801,1799.94 L802,1799.94 L803,1799.94 L804,1799.94 L805,1800.00 L806,1800.06 L807,1800.06 L808,1800.06 L809,1800.06 L810,1800.06 L811,1800.06 L812,1800.06 L813,1800.06 L814,1800.12 L815,1800.12 L816,1800.12 L817,1801.06 L818,1801.06 L819,1801.06 L820,1801.06 L821,1801.44 L822,1801.50 L823,1801.50 L824,1801.50 L825,1801.50 L826,1801.50 L827,1801.50 L828,1801.50 L829,1801.50 L830,1801.56 L831,1801.56 L832,1801.56 L833,1801.56 L834,1801.56 L835,1801.56 L836,1801.56 L837,1801.56 L838,1801.62 L839,1801.62 L840,1801.62 L841,1801.62 L842,1801.62 L843,1801.62 L844,1801.62 L845,1801.62 L846,1801.69 L847,1801.69 L848,1801.69 L849,1801.69 L850,1801.75 L851,1801.69 L852,1801.69 L853,1801.69 L854,1801.75 L855,1801.75 L856,1801.75 L857,1801.75 L858,1801.75 L859,1801.75 L860,1801.75 L861,1801.75 L862,1801.81 L863,1801.81 L864,1801.81 L865,1801.81 L866,1801.81 L867,1801.81 L868,1801.81 L869,1801.81 L870,1801.88 L871,1801.88 L872,1801.88 L873,1801.88 L874,1801.88 L875,1801.88 L876,1801.88 L877,1801.88 L878,1801.94 L879,1801.94 L880,1801.94 L881,1801.94 L882,1801.94 L883,1801.94 L884,1801.94 L885,1801.94 L886,1802.00 L887,1802.00 L888,1802.00 L889,1802.00 L890,1802.19 L891,1802.69 L892,1802.75 L893,1802.81 L894,1802.88 L895,1802.88 L896,1802.88 L897,1802.88 L898,1802.88 L899,1802.88 L900,1802.88 L901,1802.88 L902,1802.94 L903,1802.94 L904,1802.94 L905,1802.94 L906,1803.00 L907,1802.94 L908,1802.94 L909,1802.94 L910,1803.00 L911,1803.00 L912,1803.00 L913,1803.00 L914,1803.00 L915,1803.00 L916,1803.00 L917,1803.00 L918,1803.06 L919,1803.06 L920,1803.06 L921,1803.06 L922,1803.06 L923,1803.06 L924,1803.06 L925,1803.06 L926,1803.12 L927,1803.12 L928,1803.12 L929,1803.12 L930,1803.12 L931,1803.12 L932,1353.38 L933,1410.00 L934,1466.62 L935,1524.12 L936,1581.81 L937,1639.44 L938,1697.12 L939,1754.56 L940,1812.31 L941,1869.94 L942,1927.75 L943,1985.25 L944,2042.88 L945,2100.50 L946,2158.12 L947,2223.50 L948,2841.75 L949,3652.75 L950,4340.75 L951,4958.31 L952,5555.75 L953,6141.50 L954,6698.19 L955,7210.62 L956,7729.62 L957,8234.38 L958,8734.38 L959,9229.00 L960,9720.25 L961,10217.38 L962,10699.44 L963,11227.62 L964,11998.25 L965,12906.19 L966,13947.44 L967,15167.81 L968,16350.00 L969,17143.81 L970,17786.62 L971,18297.31 L972,18493.06 L973,18497.44 L974,18497.44 L975,18497.50 L976,18497.50 L977,18497.50 L978,18497.50 L979,18497.50 L980,18497.50 L981,18497.50 L982,18778.38 L983,19325.38 L984,20011.31 L985,20700.31 L986,21329.06 L987,21762.06 L988,22163.62 L989,22680.31 L990,23293.00 L991,23764.94 L992,24194.31 L993,24763.12 L994,24867.38 L995,24872.06 L996,24873.31 L997,24873.31 L998,24890.00 L999,25110.75 L1000,25440.12 L1001,25938.81 L1002,26351.31 L1003,26644.31 L1004,26829.44 L1005,26925.00 L1006,27047.38 L1007,27276.88 L1008,27827.81 L1009,28431.38 L1010,29034.31 L1011,29571.75 L1012,29804.69 L1013,29919.00 L1014,30042.75 L1015,30429.88 L1016,30809.62 L1017,31365.25 L1018,31664.19 L1019,31901.50 L1020,32084.94 L1021,32141.56 L1022,32240.88 L1023,32357.69 L1024,32480.06 L1025,32602.44 L1026,32624.69 L1027,32747.06 L1028,32958.44 L1029,33402.50 L1030,34074.06 L1031,34762.75 L1032,35429.12 L1033,35922.62 L1034,36151.12 L1035,36380.69 L1036,36518.31 L1037,36639.88 L1038,36691.81 L1039,36709.50 L1040,36815.25 L1041,36920.94 L1042,37048.88 L1043,37173.88 L1044,37268.44 L1045,37464.81 L1046,36893.69 L1047,36566.19 L1048,36095.25 L1049,36477.19 L1050,36683.25 L1051,35955.56 L1052,36220.12 L1053,35410.81 L1054,34594.50 L1055,34748.25 L1056,34972.31 L1057,34108.19 L1058,34221.31 L1059,33374.12 L1060,33374.12 L1061,33372.94 L1062,33372.94 L1063,33374.19 L1064,33396.50 L1065,33537.00 L1066,33731.31 L1067,33037.81 L1068,33160.19 L1069,33285.00 L1070,32342.44" style="vector-effect: non-scaling-stroke; stroke: #00ffff; stroke-width: 1; fill-opacity: 0" transform="scale(0.672897,-0.002018)"/>
</g>
</g>
</svg>
