<?xml version="1.0" encoding="UTF-8"?>
<!DOCTYPE svg PUBLIC "-//W3C//DTD SVG 1.1//EN" "http://www.w3.org/Graphics/SVG/1.1/DTD/svg11.dtd">
<svg xmlns="http://www.w3.org/2000/svg" width="1060" height="350" fill="black" stroke="gray" stroke-width="1">
<text x= "0" y="30" text-anchor="start" stroke="brown">Linux 3.10.0-693.el7.ppc64le (centos-npb-iv1-main) 	06/19/2018 	_ppc64le_	(10 CPU)
</text>
<g id="16" transform="translate(0,50)">
<rect x="0" y="0" height="300" width="1050"/>
<text x="0" y="20" style="fill: yellow; stroke: none">Memory utilization (3)
<tspan x="795" y="25" style="fill: yellow; stroke: none; font-size: 12px">(Min, Max, Average values)</tspan></text>
<polyline points="70,50 70,250 790,250" stroke="white" stroke-width="2"/>
<text x="795" y="50" style="fill: #e85f00; stroke: none; font-size: 12px">MBbuffers (2.56, 2.56, 2.560)</text><text x="795" y="65" style="fill: #0000ff; stroke: none; font-size: 12px">MBcached (272.94, 30539.62, 2164.275)</text><text x="795" y="80" style="fill: #006020; stroke: none; font-size: 12px">MBcommit (343.81, 15007.12, 2307.839)</text><g transform="translate(70,250)">
<text x="0" y="0" style="fill: white; stroke: none; font-size: 12px; text-anchor: end">0.</text>
<polyline points="0,10000.00 720,10000.00" style="vector-effect: non-scaling-stroke; stroke: #202020" transform="scale(1,-0.006549)"/>
<text x="0" y="-65" style="fill: white; stroke: none; font-size: 12px; text-anchor: end">10000.</text>
<polyline points="0,20000.00 720,20000.00" style="vector-effect: non-scaling-stroke; stroke: #202020" transform="scale(1,-0.006549)"/>
<text x="0" y="-130" style="fill: white; stroke: none; font-size: 12px; text-anchor: end">20000.</text>
<polyline points="0,30000.00 720,30000.00" style="vector-effect: non-scaling-stroke; stroke: #202020" transform="scale(1,-0.006549)"/>
<text x="0" y="-196" style="fill: white; stroke: none; font-size: 12px; text-anchor: end">30000.</text>
<polyline points="0,0 0,-200" style="vector-effect: non-scaling-stroke; stroke: #202020" transform="scale(0.672897,1)"/>
<text x="0" y="10" style="fill: white; stroke: none; font-size: 12px; text-anchor: start" transform="rotate(45,0,0)">09:56:49</text>
<polyline points="107,0 107,-200" style="vector-effect: non-scaling-stroke; stroke: #202020" transform="scale(0.672897,1)"/>
<text x="72" y="10" style="fill: white; stroke: none; font-size: 12px; text-anchor: start" transform="rotate(45,72,0)">09:58:36</text>
<polyline points="214,0 214,-200" style="vector-effect: non-scaling-stroke; stroke: #202020" transform="scale(0.672897,1)"/>
<text x="144" y="10" style="fill: white; stroke: none; font-size: 12px; text-anchor: start" transform="rotate(45,144,0)">10:00:23</text>
<polyline points="321,0 321,-200" style="vector-effect: non-scaling-stroke; stroke: #202020" transform="scale(0.672897,1)"/>
<text x="216" y="10" style="fill: white; stroke: none; font-size: 12px; text-anchor: start" transform="rotate(45,216,0)">10:02:10</text>
<polyline points="428,0 428,-200" style="vector-effect: non-scaling-stroke; stroke: #202020" transform="scale(0.672897,1)"/>
<text x="288" y="10" style="fill: white; stroke: none; font-size: 12px; text-anchor: start" transform="rotate(45,288,0)">10:03:57</text>
<polyline points="535,0 535,-200" style="vector-effect: non-scaling-stroke; stroke: #202020" transform="scale(0.672897,1)"/>
<text x="360" y="10" style="fill: white; stroke: none; font-size: 12px; text-anchor: start" transform="rotate(45,360,0)">10:05:44</text>
<polyline points="642,0 642,-200" style="vector-effect: non-scaling-stroke; stroke: #202020" transform="scale(0.672897,1)"/>
<text x="432" y="10" style="fill: white; stroke: none; font-size: 12px; text-anchor: start" transform="rotate(45,432,0)">10:07:31</text>
<polyline points="749,0 749,-200" style="vector-effect: non-scaling-stroke; stroke: #202020" transform="scale(0.672897,1)"/>
<text x="504" y="10" style="fill: white; stroke: none; font-size: 12px; text-anchor: start" transform="rotate(45,504,0)">10:09:18</text>
<polyline points="856,0 856,-200" style="vector-effect: non-scaling-stroke; stroke: #202020" transform="scale(0.672897,1)"/>
<text x="576" y="10" style="fill: white; stroke: none; font-size: 12px; text-anchor: start" transform="rotate(45,576,0)">10:11:05</text>
<polyline points="963,0 963,-200" style="vector-effect: non-scaling-stroke; stroke: #202020" transform="scale(0.672897,1)"/>
<text x="648" y="10" style="fill: white; stroke: none; font-size: 12px; text-anchor: start" transform="rotate(45,648,0)">10:12:52</text>
<polyline points="1070,0 1070,-200" style="vector-effect: non-scaling-stroke; stroke: #202020" transform="scale(0.672897,1)"/>
<text x="720" y="10" style="fill: white; stroke: none; font-size: 12px; text-anchor: start" transform="rotate(45,720,0)">10:14:39</text>
<text x="-10" y="30" style="fill: yellow; stroke: none; font-size: 12px; text-anchor: end">UTC</text>
<path id="g13p4" d=" M1,2.56 L2,2.56 L3,2.56 L4,2.56 L5,2.56 L6,2.56 L7,2.56 L8,2.56 L9,2.56 L10,2.56 L11,2.56 L12,2.56 L13,2.56 L14,2.56 L15,2.56 L16,2.56 L17,2.56 L18,2.56 L19,2.56 L20,2.56 L21,2.56 L22,2.56 L23,2.56 L24,2.56 L25,2.56 L26,2.56 L27,2.56 L28,2.56 L29,2.56 L30,2.56 L31,2.56 L32,2.56 L33,2.56 L34,2.56 L35,2.56 L36,2.56 L37,2.56 L38,2.56 L39,2.56 L40,2.56 L41,2.56 L42,2.56 L43,2.56 L44,2.56 L45,2.56 L46,2.56 L47,2.56 L48,2.56 L49,2.56 L50,2.56 L51,2.56 L52,2.56 L53,2.56 L54,2.56 L55,2.56 L56,2.56 L57,2.56 L58,2.56 L59,2.56 L60,2.56 L61,2.56 L62,2.56 L63,2.56 L64,2.56 L65,2.56 L66,2.56 L67,2.56 L68,2.56 L69,2.56 L70,2.56 L71,2.56 L72,2.56 L73,2.56 L74,2.56 L75,2.56 L76,2.56 L77,2.56 L78,2.56 L79,2.56 L80,2.56 L81,2.56 L82,2.56 L83,2.56 L84,2.56 L85,2.56 L86,2.56 L87,2.56 L88,2.56 L89,2.56 L90,2.56 L91,2.56 L92,2.56 L93,2.56 L94,2.56 L95,2.56 L96,2.56 L97,2.56 L98,2.56 L99,2.56 L100,2.56 L101,2.56 L102,2.56 L103,2.56 L104,2.56 L105,2.56 L106,2.56 L107,2.56 L108,2.56 L109,2.56 L110,2.56 L111,2.56 L112,2.56 L113,2.56 L114,2.56 L115,2.56 L116,2.56 L117,2.56 L118,2.56 L119,2.56 L120,2.56 L121,2.56 L122,2.56 L123,2.56 L124,2.56 L125,2.56 L126,2.56 L127,2.56 L128,2.56 L129,2.56 L130,2.56 L131,2.56 L132,2.56 L133,2.56 L134,2.56 L135,2.56 L136,2.56 L137,2.56 L138,2.56 L139,2.56 L140,2.56 L141,2.56 L142,2.56 L143,2.56 L144,2.56 L145,2.56 L146,2.56 L147,2.56 L148,2.56 L149,2.56 L150,2.56 L151,2.56 L152,2.56 L153,2.56 L154,2.56 L155,2.56 L156,2.56 L157,2.56 L158,2.56 L159,2.56 L160,2.56 L161,2.56 L162,2.56 L163,2.56 L164,2.56 L165,2.56 L166,2.56 L167,2.56 L168,2.56 L169,2.56 L170,2.56 L171,2.56 L172,2.56 L173,2.56 L174,2.56 L175,2.56 L176,2.56 L177,2.56 L178,2.56 L179,2.56 L180,2.56 L181,2.56 L182,2.56 L183,2.56 L184,2.56 L185,2.56 L186,2.56 L187,2.56 L188,2.56 L189,2.56 L190,2.56 L191,2.56 L192,2.56 L193,2.56 L194,2.56 L195,2.56 L196,2.56 L197,2.56 L198,2.56 L199,2.56 L200,2.56 L201,2.56 L202,2.56 L203,2.56 L204,2.56 L205,2.56 L206,2.56 L207,2.56 L208,2.56 L209,2.56 L210,2.56 L211,2.56 L212,2.56 L213,2.56 L214,2.56 L215,2.56 L216,2.56 L217,2.56 L218,2.56 L219,2.56 L220,2.56 L221,2.56 L222,2.56 L223,2.56 L224,2.56 L225,2.56 L226,2.56 L227,2.56 L228,2.56 L229,2.56 L230,2.56 L231,2.56 L232,2.56 L233,2.56 L234,2.56 L235,2.56 L236,2.56 L237,2.56 L238,2.56 L239,2.56 L240,2.56 L241,2.56 L242,2.56 L243,2.56 L244,2.56 L245,2.56 L246,2.56 L247,2.56 L248,2.56 L249,2.56 L250,2.56 L251,2.56 L252,2.56 L253,2.56 L254,2.56 L255,2.56 L256,2.56 L257,2.56 L258,2.56 L259,2.56 L260,2.56 L261,2.56 L262,2.56 L263,2.56 L264,2.56 L265,2.56 L266,2.56 L267,2.56 L268,2.56 L269,2.56 L270,2.56 L271,2.56 L272,2.56 L273,2.56 L274,2.56 L275,2.56 L276,2.56 L277,2.56 L278,2.56 L279,2.56 L280,2.56 L281,2.56 L282,2.56 L283,2.56 L284,2.56 L285,2.56 L286,2.56 L287,2.56 L288,2.56 L289,2.56 L290,2.56 L291,2.56 L292,2.56 L293,2.56 L294,2.56 L295,2.56 L296,2.56 L297,2.56 L298,2.56 L299,2.56 L300,2.56 L301,2.56 L302,2.56 L303,2.56 L304,2.56 L305,2.56 L306,2.56 L307,2.56 L308,2.56 L309,2.56 L310,2.56 L311,2.56 L312,2.56 L313,2.56 L314,2.56 L315,2.56 L316,2.56 L317,2.56 L318,2.56 L319,2.56 L320,2.56 L321,2.56 L322,2.56 L323,2.56 L324,2.56 L325,2.56 L326,2.56 L327,2.56 L328,2.56 L329,2.56 L330,2.56 L331,2.56 L332,2.56 L333,2.56 L334,2.56 L335,2.56 L336,2.56 L337,2.56 L338,2.56 L339,2.56 L340,2.56 L341,2.56 L342,2.56 L343,2.56 L344,2.56 L345,2.56 L346,2.56 L347,2.56 L348,2.56 L349,2.56 L350,2.56 L351,2.56 L352,2.56 L353,2.56 L354,2.56 L355,2.56 L356,2.56 L357,2.56 L358,2.56 L359,2.56 L360,2.56 L361,2.56 L362,2.56 L363,2.56 L364,2.56 L365,2.56 L366,2.56 L367,2.56 L368,2.56 L369,2.56 L370,2.56 L371,2.56 L372,2.56 L373,2.56 L374,2.56 L375,2.56 L376,2.56 L377,2.56 L378,2.56 L379,2.56 L380,2.56 L381,2.56 L382,2.56 L383,2.56 L384,2.56 L385,2.56 L386,2.56 L387,2.56 L388,2.56 L389,2.56 L390,2.56 L391,2.56 L392,2.56 L393,2.56 L394,2.56 L395,2.56 L396,2.56 L397,2.56 L398,2.56 L399,2.56 L400,2.56 L401,2.56 L402,2.56 L403,2.56 L404,2.56 L405,2.56 L406,2.56 L407,2.56 L408,2.56 L409,2.56 L410,2.56 L411,2.56 L412,2.56 L413,2.56 L414,2.56 L415,2.56 L416,2.56 L417,2.56 L418,2.56 L419,2.56 L420,2.56 L421,2.56 L422,2.56 L423,2.56 L424,2.56 L425,2.56 L426,2.56 L427,2.56 L428,2.56 L429,2.56 L430,2.56 L431,2.56 L432,2.56 L433,2.56 L434,2.56 L435,2.56 L436,2.56 L437,2.56 L438,2.56 L439,2.56 L440,2.56 L441,2.56 L442,2.56 L443,2.56 L444,2.56 L445,2.56 L446,2.56 L447,2.56 L448,2.56 L449,2.56 L450,2.56 L451,2.56 L452,2.56 L453,2.56 L454,2.56 L455,2.56 L456,2.56 L457,2.56 L458,2.56 L459,2.56 L460,2.56 L461,2.56 L462,2.56 L463,2.56 L464,2.56 L465,2.56 L466,2.56 L467,2.56 L468,2.56 L469,2.56 L470,2.56 L471,2.56 L472,2.56 L473,2.56 L474,2.56 L475,2.56 L476,2.56 L477,2.56 L478,2.56 L479,2.56 L480,2.56 L481,2.56 L482,2.56 L483,2.56 L484,2.56 L485,2.56 L486,2.56 L487,2.56 L488,2.56 L489,2.56 L490,2.56 L491,2.56 L492,2.56 L493,2.56 L494,2.56 L495,2.56 L496,2.56 L497,2.56 L498,2.56 L499,2.56 L500,2.56 L501,2.56 L502,2.56 L503,2.56 L504,2.56 L505,2.56 L506,2.56 L507,2.56 L508,2.56 L509,2.56 L510,2.56 L511,2.56 L512,2.56 L513,2.56 L514,2.56 L515,2.56 L516,2.56 L517,2.56 L518,2.56 L519,2.56 L520,2.56 L521,2.56 L522,2.56 L523,2.56 L524,2.56 L525,2.56 L526,2.56 L527,2.56 L528,2.56 L529,2.56 L530,2.56 L531,2.56 L532,2.56 L533,2.56 L534,2.56 L535,2.56 L536,2.56 L537,2.56 L538,2.56 L539,2.56 L540,2.56 L541,2.56 L542,2.56 L543,2.56 L544,2.56 L545,2.56 L546,2.56 L547,2.56 L548,2.56 L549,2.56 L550,2.56 L551,2.56 L552,2.56 L553,2.56 L554,2.56 L555,2.56 L556,2.56 L557,2.56 L558,2.56 L559,2.56 L560,2.56 L561,2.56 L562,2.56 L563,2.56 L564,2.56 L565,2.56 L566,2.56 L567,2.56 L568,2.56 L569,2.56 L570,2.56 L571,2.56 L572,2.56 L573,2.56 L574,2.56 L575,2.56 L576,2.56 L577,2.56 L578,2.56 L579,2.56 L580,2.56 L581,2.56 L582,2.56 L583,2.56 L584,2.56 L585,2.56 L586,2.56 L587,2.56 L588,2.56 L589,2.56 L590,2.56 L591,2.56 L592,2.56 L593,2.56 L594,2.56 L595,2.56 L596,2.56 L597,2.56 L598,2.56 L599,2.56 L600,2.56 L601,2.56 L602,2.56 L603,2.56 L604,2.56 L605,2.56 L606,2.56 L607,2.56 L608,2.56 L609,2.56 L610,2.56 L611,2.56 L612,2.56 L613,2.56 L614,2.56 L615,2.56 L616,2.56 L617,2.56 L618,2.56 L619,2.56 L620,2.56 L621,2.56 L622,2.56 L623,2.56 L624,2.56 L625,2.56 L626,2.56 L627,2.56 L628,2.56 L629,2.56 L630,2.56 L631,2.56 L632,2.56 L633,2.56 L634,2.56 L635,2.56 L636,2.56 L637,2.56 L638,2.56 L639,2.56 L640,2.56 L641,2.56 L642,2.56 L643,2.56 L644,2.56 L645,2.56 L646,2.56 L647,2.56 L648,2.56 L649,2.56 L650,2.56 L651,2.56 L652,2.56 L653,2.56 L654,2.56 L655,2.56 L656,2.56 L657,2.56 L658,2.56 L659,2.56 L660,2.56 L661,2.56 L662,2.56 L663,2.56 L664,2.56 L665,2.56 L666,2.56 L667,2.56 L668,2.56 L669,2.56 L670,2.56 L671,2.56 L672,2.56 L673,2.56 L674,2.56 L675,2.56 L676,2.56 L677,2.56 L678,2.56 L679,2.56 L680,2.56 L681,2.56 L682,2.56 L683,2.56 L684,2.56 L685,2.56 L686,2.56 L687,2.56 L688,2.56 L689,2.56 L690,2.56 L691,2.56 L692,2.56 L693,2.56 L694,2.56 L695,2.56 L696,2.56 L697,2.56 L698,2.56 L699,2.56 L700,2.56 L701,2.56 L702,2.56 L703,2.56 L704,2.56 L705,2.56 L706,2.56 L707,2.56 L708,2.56 L709,2.56 L710,2.56 L711,2.56 L712,2.56 L713,2.56 L714,2.56 L715,2.56 L716,2.56 L717,2.56 L718,2.56 L719,2.56 L720,2.56 L721,2.56 L722,2.56 L723,2.56 L724,2.56 L725,2.56 L726,2.56 L727,2.56 L728,2.56 L729,2.56 L730,2.56 L731,2.56 L732,2.56 L733,2.56 L734,2.56 L735,2.56 L736,2.56 L737,2.56 L738,2.56 L739,2.56 L740,2.56 L741,2.56 L742,2.56 L743,2.56 L744,2.56 L745,2.56 L746,2.56 L747,2.56 L748,2.56 L749,2.56 L750,2.56 L751,2.56 L752,2.56 L753,2.56 L754,2.56 L755,2.56 L756,2.56 L757,2.56 L758,2.56 L759,2.56 L760,2.56 L761,2.56 L762,2.56 L763,2.56 L764,2.56 L765,2.56 L766,2.56 L767,2.56 L768,2.56 L769,2.56 L770,2.56 L771,2.56 L772,2.56 L773,2.56 L774,2.56 L775,2.56 L776,2.56 L777,2.56 L778,2.56 L779,2.56 L780,2.56 L781,2.56 L782,2.56 L783,2.56 L784,2.56 L785,2.56 L786,2.56 L787,2.56 L788,2.56 L789,2.56 L790,2.56 L791,2.56 L792,2.56 L793,2.56 L794,2.56 L795,2.56 L796,2.56 L797,2.56 L798,2.56 L799,2.56 L800,2.56 L801,2.56 L802,2.56 L803,2.56 L804,2.56 L805,2.56 L806,2.56 L807,2.56 L808,2.56 L809,2.56 L810,2.56 L811,2.56 L812,2.56 L813,2.56 L814,2.56 L815,2.56 L816,2.56 L817,2.56 L818,2.56 L819,2.56 L820,2.56 L821,2.56 L822,2.56 L823,2.56 L824,2.56 L825,2.56 L826,2.56 L827,2.56 L828,2.56 L829,2.56 L830,2.56 L831,2.56 L832,2.56 L833,2.56 L834,2.56 L835,2.56 L836,2.56 L837,2.56 L838,2.56 L839,2.56 L840,2.56 L841,2.56 L842,2.56 L843,2.56 L844,2.56 L845,2.56 L846,2.56 L847,2.56 L848,2.56 L849,2.56 L850,2.56 L851,2.56 L852,2.56 L853,2.56 L854,2.56 L855,2.56 L856,2.56 L857,2.56 L858,2.56 L859,2.56 L860,2.56 L861,2.56 L862,2.56 L863,2.56 L864,2.56 L865,2.56 L866,2.56 L867,2.56 L868,2.56 L869,2.56 L870,2.56 L871,2.56 L872,2.56 L873,2.56 L874,2.56 L875,2.56 L876,2.56 L877,2.56 L878,2.56 L879,2.56 L880,2.56 L881,2.56 L882,2.56 L883,2.56 L884,2.56 L885,2.56 L886,2.56 L887,2.56 L888,2.56 L889,2.56 L890,2.56 L891,2.56 L892,2.56 L893,2.56 L894,2.56 L895,2.56 L896,2.56 L897,2.56 L898,2.56 L899,2.56 L900,2.56 L901,2.56 L902,2.56 L903,2.56 L904,2.56 L905,2.56 L906,2.56 L907,2.56 L908,2.56 L909,2.56 L910,2.56 L911,2.56 L912,2.56 L913,2.56 L914,2.56 L915,2.56 L916,2.56 L917,2.56 L918,2.56 L919,2.56 L920,2.56 L921,2.56 L922,2.56 L923,2.56 L924,2.56 L925,2.56 L926,2.56 L927,2.56 L928,2.56 L929,2.56 L930,2.56 L931,2.56 L932,2.56 L933,2.56 L934,2.56 L935,2.56 L936,2.56 L937,2.56 L938,2.56 L939,2.56 L940,2.56 L941,2.56 L942,2.56 L943,2.56 L944,2.56 L945,2.56 L946,2.56 L947,2.56 L948,2.56 L949,2.56 L950,2.56 L951,2.56 L952,2.56 L953,2.56 L954,2.56 L955,2.56 L956,2.56 L957,2.56 L958,2.56 L959,2.56 L960,2.56 L961,2.56 L962,2.56 L963,2.56 L964,2.56 L965,2.56 L966,2.56 L967,2.56 L968,2.56 L969,2.56 L970,2.56 L971,2.56 L972,2.56 L973,2.56 L974,2.56 L975,2.56 L976,2.56 L977,2.56 L978,2.56 L979,2.56 L980,2.56 L981,2.56 L982,2.56 L983,2.56 L984,2.56 L985,2.56 L986,2.56 L987,2.56 L988,2.56 L989,2.56 L990,2.56 L991,2.56 L992,2.56 L993,2.56 L994,2.56 L995,2.56 L996,2.56 L997,2.56 L998,2.56 L999,2.56 L1000,2.56 L1001,2.56 L1002,2.56 L1003,2.56 L1004,2.56 L1005,2.56 L1006,2.56 L1007,2.56 L1008,2.56 L1009,2.56 L1010,2.56 L1011,2.56 L1012,2.56 L1013,2.56 L1014,2.56 L1015,2.56 L1016,2.56 L1017,2.56 L1018,2.56 L1019,2.56 L1020,2.56 L1021,2.56 L1022,2.56 L1023,2.56 L1024,2.56 L1025,2.56 L1026,2.56 L1027,2.56 L1028,2.56 L1029,2.56 L1030,2.56 L1031,2.56 L1032,2.56 L1033,2.56 L1034,2.56 L1035,2.56 L1036,2.56 L1037,2.56 L1038,2.56 L1039,2.56 L1040,2.56 L1041,2.56 L1042,2.56 L1043,2.56 L1044,2.56 L1045,2.56 L1046,2.56 L1047,2.56 L1048,2.56 L1049,2.56 L1050,2.56 L1051,2.56 L1052,2.56 L1053,2.56 L1054,2.56 L1055,2.56 L1056,2.56 L1057,2.56 L1058,2.56 L1059,2.56 L1060,2.56 L1061,2.56 L1062,2.56 L1063,2.56 L1064,2.56 L1065,2.56 L1066,2.56 L1067,2.56 L1068,2.56 L1069,2.56 L1070,2.56" style="vector-effect: non-scaling-stroke; stroke: #e85f00; stroke-width: 1; fill-opacity: 0" transform="scale(0.672897,-0.006549)"/>
<path id="g13p5" d=" M1,272.94 L2,273.75 L3,273.50 L4,275.06 L5,275.06 L6,275.06 L7,275.06 L8,275.12 L9,275.12 L10,275.12 L11,275.12 L12,275.12 L13,275.12 L14,275.12 L15,275.12 L16,275.19 L17,275.19 L18,275.19 L19,275.19 L20,275.19 L21,275.19 L22,275.19 L23,275.19 L24,275.25 L25,275.25 L26,275.25 L27,275.25 L28,275.25 L29,275.25 L30,275.25 L31,275.25 L32,275.31 L33,275.31 L34,275.31 L35,275.31 L36,275.31 L37,275.31 L38,275.31 L39,275.31 L40,275.31 L41,275.38 L42,275.38 L43,275.38 L44,275.38 L45,275.38 L46,275.38 L47,275.38 L48,275.38 L49,275.44 L50,275.44 L51,275.44 L52,275.44 L53,275.44 L54,275.44 L55,275.44 L56,275.44 L57,275.50 L58,275.50 L59,275.50 L60,275.50 L61,275.50 L62,275.50 L63,275.50 L64,275.50 L65,275.56 L66,275.56 L67,275.56 L68,275.56 L69,275.56 L70,275.56 L71,275.56 L72,275.56 L73,275.62 L74,275.62 L75,275.62 L76,275.62 L77,275.62 L78,275.62 L79,275.62 L80,275.62 L81,275.69 L82,275.69 L83,275.69 L84,275.69 L85,275.69 L86,275.69 L87,275.69 L88,275.69 L89,275.75 L90,275.75 L91,275.75 L92,275.75 L93,275.75 L94,275.75 L95,275.75 L96,275.75 L97,275.81 L98,275.81 L99,275.81 L100,275.81 L101,275.81 L102,275.81 L103,275.81 L104,275.81 L105,275.88 L106,276.00 L107,276.00 L108,276.00 L109,276.00 L110,276.00 L111,276.00 L112,276.00 L113,276.06 L114,276.06 L115,276.06 L116,276.06 L117,276.06 L118,276.06 L119,276.06 L120,276.06 L121,276.12 L122,276.12 L123,276.12 L124,276.12 L125,276.12 L126,276.12 L127,276.12 L128,276.12 L129,276.19 L130,276.19 L131,276.19 L132,276.19 L133,276.19 L134,276.19 L135,276.19 L136,276.19 L137,276.25 L138,276.25 L139,276.25 L140,276.25 L141,276.25 L142,276.25 L143,276.25 L144,276.25 L145,276.44 L146,276.50 L147,276.50 L148,276.50 L149,276.50 L150,276.50 L151,276.50 L152,276.50 L153,276.50 L154,276.50 L155,276.50 L156,276.50 L157,276.50 L158,276.50 L159,276.50 L160,276.50 L161,276.50 L162,276.50 L163,276.50 L164,276.50 L165,276.50 L166,276.50 L167,276.50 L168,276.50 L169,276.50 L170,276.50 L171,276.50 L172,276.50 L173,276.50 L174,276.50 L175,276.50 L176,276.50 L177,276.50 L178,276.50 L179,276.50 L180,276.50 L181,276.50 L182,276.50 L183,276.50 L184,276.50 L185,276.50 L186,276.50 L187,276.50 L188,276.50 L189,276.50 L190,276.50 L191,276.50 L192,276.50 L193,276.50 L194,276.50 L195,276.50 L196,276.50 L197,276.50 L198,276.50 L199,276.50 L200,276.50 L201,276.50 L202,276.50 L203,276.50 L204,276.50 L205,276.50 L206,276.50 L207,276.50 L208,276.50 L209,276.50 L210,276.50 L211,276.50 L212,276.50 L213,276.50 L214,276.50 L215,276.50 L216,276.50 L217,276.50 L218,276.50 L219,276.50 L220,276.50 L221,276.50 L222,276.50 L223,276.50 L224,276.50 L225,276.50 L226,276.50 L227,276.50 L228,276.50 L229,276.50 L230,276.50 L231,276.50 L232,276.50 L233,276.50 L234,276.50 L235,276.50 L236,276.50 L237,276.50 L238,276.50 L239,276.50 L240,276.50 L241,276.50 L242,276.50 L243,276.50 L244,276.50 L245,276.50 L246,276.50 L247,276.50 L248,276.50 L249,276.50 L250,276.50 L251,276.50 L252,277.62 L253,277.75 L254,277.75 L255,277.75 L256,277.75 L257,277.75 L258,277.75 L259,277.75 L260,277.75 L261,277.75 L262,277.75 L263,277.75 L264,277.75 L265,277.75 L266,277.75 L267,277.75 L268,277.75 L269,277.75 L270,277.75 L271,277.75 L272,277.75 L273,277.75 L274,277.75 L275,277.75 L276,277.75 L277,277.75 L278,277.75 L279,277.75 L280,277.75 L281,277.75 L282,277.75 L283,277.75 L284,277.75 L285,277.75 L286,277.75 L287,277.75 L288,277.75 L289,277.75 L290,277.75 L291,277.75 L292,277.75 L293,277.75 L294,277.75 L295,277.75 L296,277.75 L297,277.75 L298,277.75 L299,277.75 L300,277.75 L301,277.75 L302,277.75 L303,277.75 L304,277.75 L305,277.75 L306,277.75 L307,277.75 L308,277.75 L309,277.75 L310,277.75 L311,277.75 L312,277.75 L313,277.75 L314,277.75 L315,277.75 L316,277.75 L317,277.75 L318,277.75 L319,277.75 L320,277.75 L321,277.75 L322,277.75 L323,277.75 L324,277.75 L325,277.75 L326,277.75 L327,277.75 L328,277.75 L329,277.75 L330,277.75 L331,277.75 L332,277.75 L333,277.75 L334,277.75 L335,277.75 L336,277.75 L337,277.75 L338,277.75 L339,277.75 L340,277.75 L341,277.75 L342,277.75 L343,277.75 L344,277.75 L345,277.75 L346,277.75 L347,277.75 L348,277.75 L349,277.75 L350,277.75 L351,277.75 L352,277.75 L353,277.75 L354,277.75 L355,277.75 L356,277.75 L357,277.75 L358,277.75 L359,277.75 L360,277.75 L361,277.75 L362,277.75 L363,277.75 L364,277.75 L365,277.75 L366,277.75 L367,277.75 L368,277.75 L369,277.75 L370,277.75 L371,277.75 L372,277.75 L373,277.75 L374,277.75 L375,277.75 L376,277.75 L377,277.75 L378,277.75 L379,277.75 L380,277.75 L381,277.75 L382,277.75 L383,277.75 L384,277.75 L385,277.75 L386,277.75 L387,277.75 L388,277.75 L389,277.75 L390,277.75 L391,277.75 L392,277.75 L393,277.75 L394,277.75 L395,277.75 L396,277.75 L397,277.75 L398,277.75 L399,277.75 L400,277.75 L401,277.75 L402,277.75 L403,277.75 L404,277.75 L405,277.75 L406,277.75 L407,277.75 L408,277.75 L409,277.75 L410,277.75 L411,277.75 L412,277.75 L413,277.75 L414,277.75 L415,277.75 L416,277.75 L417,277.75 L418,277.75 L419,277.75 L420,277.75 L421,277.75 L422,277.75 L423,277.75 L424,277.75 L425,277.75 L426,277.75 L427,277.75 L428,277.75 L429,277.75 L430,277.75 L431,277.75 L432,277.75 L433,277.75 L434,277.75 L435,277.75 L436,277.75 L437,277.75 L438,277.75 L439,277.75 L440,277.75 L441,277.75 L442,277.75 L443,277.75 L444,277.75 L445,277.75 L446,277.75 L447,277.75 L448,277.75 L449,277.75 L450,277.75 L451,277.75 L452,277.75 L453,277.75 L454,277.75 L455,277.75 L456,277.75 L457,277.75 L458,277.75 L459,277.75 L460,277.75 L461,277.75 L462,277.75 L463,277.75 L464,277.75 L465,277.75 L466,277.75 L467,277.75 L468,277.75 L469,277.75 L470,277.75 L471,277.75 L472,277.75 L473,277.75 L474,277.75 L475,277.75 L476,277.75 L477,277.75 L478,277.75 L479,277.75 L480,277.75 L481,277.75 L482,277.75 L483,277.75 L484,277.75 L485,277.75 L486,277.75 L487,277.75 L488,277.75 L489,277.75 L490,277.75 L491,277.75 L492,277.75 L493,277.75 L494,277.75 L495,277.75 L496,277.75 L497,277.75 L498,277.75 L499,277.75 L500,277.75 L501,277.75 L502,277.75 L503,277.75 L504,277.75 L505,277.75 L506,277.75 L507,277.75 L508,277.75 L509,277.75 L510,277.75 L511,277.75 L512,277.75 L513,277.75 L514,277.75 L515,277.75 L516,277.75 L517,277.75 L518,277.75 L519,277.75 L520,277.75 L521,277.75 L522,277.75 L523,277.75 L524,277.75 L525,277.75 L526,277.75 L527,277.75 L528,277.75 L529,277.75 L530,277.75 L531,277.75 L532,277.75 L533,277.75 L534,277.75 L535,277.75 L536,277.75 L537,277.75 L538,277.75 L539,277.75 L540,277.75 L541,277.75 L542,277.75 L543,277.75 L544,277.75 L545,277.75 L546,277.75 L547,277.75 L548,277.75 L549,277.75 L550,277.75 L551,277.75 L552,277.75 L553,277.75 L554,277.75 L555,277.75 L556,277.75 L557,277.75 L558,277.75 L559,277.75 L560,277.75 L561,277.75 L562,277.75 L563,277.75 L564,277.75 L565,277.75 L566,277.75 L567,277.75 L568,277.75 L569,277.75 L570,277.75 L571,277.75 L572,277.75 L573,277.75 L574,277.75 L575,277.75 L576,277.75 L577,277.75 L578,277.75 L579,277.75 L580,277.75 L581,277.75 L582,277.75 L583,277.75 L584,277.75 L585,277.75 L586,277.75 L587,277.75 L588,277.75 L589,277.75 L590,277.75 L591,277.75 L592,277.75 L593,277.75 L594,277.75 L595,277.75 L596,278.00 L597,281.50 L598,281.75 L599,281.88 L600,281.88 L601,281.88 L602,281.88 L603,281.88 L604,281.94 L605,281.94 L606,281.94 L607,281.94 L608,281.94 L609,281.94 L610,281.94 L611,281.94 L612,282.00 L613,282.00 L614,282.00 L615,282.00 L616,282.00 L617,282.00 L618,282.00 L619,282.12 L620,282.12 L621,282.12 L622,282.19 L623,282.19 L624,282.38 L625,282.38 L626,282.38 L627,282.38 L628,282.44 L629,282.44 L630,282.44 L631,282.44 L632,282.44 L633,282.44 L634,282.44 L635,282.44 L636,282.50 L637,282.50 L638,282.50 L639,282.50 L640,282.50 L641,282.50 L642,282.50 L643,282.50 L644,282.56 L645,282.56 L646,282.56 L647,282.56 L648,282.56 L649,282.56 L650,282.56 L651,282.56 L652,282.62 L653,282.62 L654,282.62 L655,282.62 L656,282.62 L657,282.62 L658,282.62 L659,282.62 L660,282.69 L661,282.69 L662,282.69 L663,282.69 L664,282.69 L665,282.69 L666,282.69 L667,282.69 L668,282.75 L669,282.75 L670,282.75 L671,282.75 L672,282.75 L673,282.75 L674,282.75 L675,282.75 L676,282.81 L677,282.81 L678,282.81 L679,282.81 L680,282.81 L681,282.81 L682,282.81 L683,282.81 L684,282.88 L685,282.88 L686,282.88 L687,282.88 L688,282.88 L689,282.88 L690,282.88 L691,282.88 L692,282.94 L693,282.94 L694,282.94 L695,283.06 L696,283.06 L697,283.06 L698,283.06 L699,283.06 L700,283.12 L701,283.12 L702,283.12 L703,283.12 L704,283.12 L705,283.31 L706,283.31 L707,283.31 L708,283.38 L709,283.38 L710,283.38 L711,283.38 L712,283.38 L713,283.38 L714,283.38 L715,283.38 L716,283.44 L717,283.44 L718,283.44 L719,283.44 L720,283.44 L721,283.44 L722,283.44 L723,283.44 L724,283.50 L725,283.50 L726,283.50 L727,283.50 L728,283.50 L729,283.50 L730,283.50 L731,283.50 L732,283.56 L733,283.56 L734,283.56 L735,283.56 L736,283.56 L737,283.56 L738,283.56 L739,283.56 L740,283.62 L741,283.62 L742,283.62 L743,283.62 L744,283.62 L745,283.62 L746,283.62 L747,283.62 L748,283.69 L749,283.69 L750,283.69 L751,283.69 L752,283.69 L753,283.69 L754,283.69 L755,283.69 L756,283.75 L757,283.75 L758,283.75 L759,283.75 L760,283.75 L761,283.75 L762,283.75 L763,283.75 L764,283.81 L765,283.81 L766,283.81 L767,283.81 L768,283.81 L769,283.81 L770,283.81 L771,283.81 L772,283.88 L773,283.88 L774,283.88 L775,283.88 L776,283.88 L777,283.88 L778,283.88 L779,283.88 L780,283.94 L781,283.94 L782,283.94 L783,283.94 L784,283.94 L785,283.94 L786,283.94 L787,283.94 L788,283.94 L789,284.00 L790,284.00 L791,284.00 L792,284.31 L793,284.31 L794,284.31 L795,284.31 L796,284.31 L797,284.38 L798,284.38 L799,284.38 L800,284.38 L801,284.38 L802,284.38 L803,284.38 L804,284.38 L805,284.44 L806,284.44 L807,284.44 L808,284.44 L809,284.44 L810,284.44 L811,284.44 L812,284.44 L813,284.50 L814,284.50 L815,284.50 L816,284.50 L817,284.50 L818,284.50 L819,284.50 L820,284.50 L821,284.56 L822,284.56 L823,284.56 L824,284.56 L825,284.56 L826,284.56 L827,284.56 L828,284.56 L829,284.62 L830,284.62 L831,284.62 L832,284.62 L833,284.62 L834,284.62 L835,284.62 L836,284.62 L837,284.69 L838,284.69 L839,284.69 L840,284.69 L841,284.69 L842,284.69 L843,284.69 L844,284.69 L845,284.75 L846,284.75 L847,284.75 L848,284.75 L849,284.75 L850,284.75 L851,284.75 L852,284.75 L853,284.81 L854,284.81 L855,284.81 L856,284.81 L857,284.81 L858,284.81 L859,284.81 L860,284.81 L861,284.88 L862,284.88 L863,284.88 L864,284.88 L865,284.88 L866,284.88 L867,284.88 L868,284.88 L869,284.94 L870,284.94 L871,284.94 L872,284.94 L873,284.94 L874,284.94 L875,284.94 L876,284.94 L877,285.00 L878,285.00 L879,285.00 L880,285.00 L881,285.00 L882,285.00 L883,285.00 L884,285.00 L885,285.06 L886,285.06 L887,285.06 L888,285.06 L889,285.06 L890,285.06 L891,285.06 L892,285.06 L893,285.12 L894,285.12 L895,285.12 L896,285.12 L897,285.12 L898,285.12 L899,285.12 L900,285.12 L901,285.19 L902,285.19 L903,285.19 L904,285.19 L905,285.19 L906,285.19 L907,285.19 L908,285.19 L909,285.25 L910,285.25 L911,285.25 L912,285.25 L913,285.25 L914,285.25 L915,285.25 L916,285.25 L917,285.31 L918,285.31 L919,285.31 L920,285.31 L921,285.31 L922,285.31 L923,285.31 L924,285.31 L925,285.38 L926,285.38 L927,285.38 L928,285.38 L929,285.38 L930,285.38 L931,285.38 L932,319.88 L933,375.06 L934,430.38 L935,486.50 L936,542.69 L937,598.88 L938,655.06 L939,711.25 L940,767.44 L941,823.62 L942,879.94 L943,936.12 L944,992.31 L945,1048.50 L946,1104.75 L947,1124.94 L948,1125.00 L949,1125.69 L950,1125.69 L951,1125.69 L952,1125.69 L953,1125.69 L954,1125.69 L955,1125.69 L956,1125.69 L957,1125.75 L958,1125.75 L959,1125.75 L960,1125.75 L961,1125.75 L962,1125.75 L963,1200.56 L964,1671.00 L965,2358.06 L966,3246.00 L967,4405.00 L968,5559.62 L969,6337.44 L970,6969.75 L971,7454.25 L972,7643.69 L973,7646.50 L974,7646.56 L975,7646.56 L976,7646.56 L977,7646.56 L978,7646.56 L979,7646.56 L980,7646.56 L981,7646.56 L982,7911.00 L983,8467.69 L984,9129.19 L985,9803.75 L986,10415.31 L987,10826.44 L988,11204.69 L989,11725.12 L990,12318.50 L991,12770.31 L992,13190.06 L993,13744.75 L994,13852.25 L995,13851.06 L996,13851.06 L997,13851.06 L998,13867.69 L999,14082.88 L1000,14425.00 L1001,14900.25 L1002,15303.19 L1003,15581.19 L1004,15754.44 L1005,15857.00 L1006,15981.69 L1007,16198.88 L1008,16729.94 L1009,17329.12 L1010,17911.62 L1011,18445.38 L1012,18663.12 L1013,18768.75 L1014,18896.31 L1015,19266.75 L1016,19644.12 L1017,20193.94 L1018,20487.94 L1019,20713.12 L1020,20887.62 L1021,20946.88 L1022,21042.62 L1023,21159.00 L1024,21275.38 L1025,21391.75 L1026,21425.00 L1027,21541.38 L1028,21757.50 L1029,22190.62 L1030,22831.44 L1031,23528.19 L1032,24155.62 L1033,24646.56 L1034,24864.38 L1035,25079.50 L1036,25220.19 L1037,25338.75 L1038,25385.06 L1039,25405.25 L1040,25513.31 L1041,25613.06 L1042,25737.75 L1043,25856.31 L1044,25956.06 L1045,26147.81 L1046,26514.75 L1047,27091.88 L1048,27631.94 L1049,27998.81 L1050,28194.44 L1051,28481.50 L1052,28743.12 L1053,28939.69 L1054,29056.06 L1055,29205.94 L1056,29432.94 L1057,29570.31 L1058,29683.50 L1059,29700.25 L1060,29700.25 L1061,29700.25 L1062,29700.25 L1063,29700.31 L1064,29725.25 L1065,29862.94 L1066,30043.00 L1067,30288.94 L1068,30413.62 L1069,30531.31 L1070,30539.62" style="vector-effect: non-scaling-stroke; stroke: #0000ff; stroke-width: 1; fill-opacity: 0" transform="scale(0.672897,-0.006549)"/>
<path id="g13p6" d=" M1,343.81 L2,343.81 L3,356.50 L4,1116.56 L5,1116.56 L6,1116.56 L7,1116.56 L8,1116.56 L9,1116.56 L10,1116.56 L11,1116.56 L12,1138.56 L13,1138.56 L14,1138.56 L15,1138.56 L16,1131.06 L17,1131.06 L18,1131.06 L19,1131.06 L20,1131.06 L21,1131.06 L22,1131.06 L23,1131.06 L24,1131.06 L25,1131.06 L26,1131.06 L27,1131.06 L28,1131.06 L29,1131.06 L30,1131.06 L31,1131.06 L32,1131.06 L33,1131.06 L34,1131.06 L35,1131.06 L36,1131.06 L37,1131.06 L38,1131.06 L39,1131.06 L40,1131.06 L41,1131.06 L42,1131.06 L43,1131.06 L44,1131.06 L45,1131.06 L46,1131.06 L47,1131.06 L48,1131.06 L49,1131.06 L50,1131.06 L51,1131.06 L52,1131.06 L53,1131.06 L54,1131.06 L55,1131.06 L56,1131.06 L57,1131.06 L58,1131.06 L59,1131.06 L60,1131.06 L61,1131.06 L62,1131.06 L63,1131.06 L64,1131.06 L65,1131.06 L66,1131.06 L67,1131.06 L68,1131.06 L69,1131.06 L70,1131.06 L71,1131.06 L72,1131.06 L73,1131.06 L74,1131.06 L75,1131.06 L76,1131.06 L77,1131.06 L78,1131.06 L79,1131.06 L80,1131.06 L81,1131.06 L82,1131.06 L83,1131.06 L84,1131.06 L85,1131.06 L86,1131.06 L87,1131.06 L88,1131.06 L89,1131.06 L90,1131.06 L91,1131.06 L92,1131.06 L93,1131.06 L94,1131.06 L95,1131.06 L96,1131.06 L97,1131.06 L98,1131.06 L99,1131.06 L100,1131.06 L101,1131.06 L102,1131.06 L103,1131.06 L104,1131.06 L105,1356.06 L106,1356.06 L107,1356.06 L108,1356.06 L109,1356.06 L110,1356.06 L111,1356.06 L112,1356.06 L113,1356.06 L114,1356.06 L115,1356.06 L116,1356.06 L117,1356.06 L118,1356.06 L119,1356.06 L120,1356.06 L121,1356.06 L122,1356.06 L123,1356.06 L124,1356.06 L125,1356.06 L126,1356.06 L127,1356.06 L128,1356.06 L129,1356.06 L130,1356.06 L131,1356.06 L132,1356.06 L133,1356.06 L134,1356.06 L135,1356.06 L136,1356.06 L137,1356.06 L138,1356.06 L139,1356.06 L140,1356.06 L141,1356.06 L142,1356.06 L143,1356.06 L144,1356.06 L145,442.62 L146,442.62 L147,442.62 L148,442.62 L149,442.62 L150,442.62 L151,442.62 L152,442.62 L153,442.62 L154,442.62 L155,442.62 L156,442.62 L157,442.62 L158,442.62 L159,442.62 L160,442.62 L161,442.62 L162,442.62 L163,442.62 L164,442.62 L165,442.62 L166,442.62 L167,442.62 L168,442.62 L169,442.62 L170,442.62 L171,442.62 L172,442.62 L173,442.62 L174,442.62 L175,442.62 L176,442.62 L177,442.62 L178,442.62 L179,442.62 L180,442.62 L181,442.62 L182,442.62 L183,442.62 L184,442.62 L185,442.62 L186,442.62 L187,442.62 L188,442.62 L189,442.62 L190,442.62 L191,442.62 L192,442.62 L193,442.62 L194,442.62 L195,442.62 L196,442.62 L197,442.62 L198,442.62 L199,442.62 L200,442.62 L201,442.62 L202,442.62 L203,442.62 L204,442.62 L205,445.12 L206,445.12 L207,445.12 L208,445.12 L209,445.12 L210,445.12 L211,445.12 L212,445.12 L213,445.12 L214,445.12 L215,445.12 L216,445.12 L217,445.12 L218,445.12 L219,445.12 L220,445.12 L221,445.12 L222,445.12 L223,445.12 L224,445.12 L225,445.12 L226,445.12 L227,445.12 L228,445.12 L229,445.12 L230,445.12 L231,445.12 L232,445.12 L233,445.12 L234,445.12 L235,445.12 L236,445.12 L237,445.12 L238,445.12 L239,445.12 L240,445.12 L241,445.12 L242,445.12 L243,445.12 L244,445.12 L245,445.12 L246,445.12 L247,445.12 L248,445.12 L249,445.12 L250,445.12 L251,445.12 L252,444.56 L253,444.56 L254,444.56 L255,444.56 L256,444.56 L257,444.56 L258,444.56 L259,444.56 L260,444.56 L261,444.56 L262,444.56 L263,444.56 L264,444.56 L265,444.56 L266,444.56 L267,444.56 L268,444.56 L269,444.56 L270,444.56 L271,444.56 L272,444.56 L273,444.56 L274,444.56 L275,444.56 L276,444.56 L277,444.56 L278,444.56 L279,444.56 L280,444.56 L281,444.56 L282,444.56 L283,444.56 L284,444.56 L285,444.56 L286,444.56 L287,444.56 L288,444.56 L289,444.56 L290,444.56 L291,444.56 L292,444.56 L293,444.56 L294,444.56 L295,444.56 L296,444.56 L297,444.56 L298,444.56 L299,444.56 L300,444.56 L301,444.56 L302,444.56 L303,444.56 L304,444.56 L305,444.56 L306,444.56 L307,444.56 L308,444.56 L309,444.56 L310,444.56 L311,444.56 L312,444.56 L313,444.56 L314,444.56 L315,444.56 L316,444.56 L317,444.56 L318,444.56 L319,444.56 L320,444.56 L321,444.56 L322,444.56 L323,444.56 L324,444.56 L325,444.56 L326,444.56 L327,444.56 L328,444.56 L329,444.56 L330,444.56 L331,444.56 L332,444.56 L333,444.56 L334,444.56 L335,444.56 L336,444.56 L337,444.56 L338,444.56 L339,444.56 L340,444.56 L341,444.56 L342,444.56 L343,444.56 L344,444.56 L345,444.56 L346,444.56 L347,444.56 L348,444.56 L349,444.56 L350,444.56 L351,444.56 L352,444.56 L353,444.56 L354,444.56 L355,444.56 L356,444.56 L357,444.56 L358,444.56 L359,444.56 L360,444.56 L361,444.56 L362,444.56 L363,444.56 L364,444.56 L365,444.56 L366,444.56 L367,444.56 L368,444.56 L369,444.56 L370,444.56 L371,444.56 L372,444.56 L373,444.56 L374,444.56 L375,444.56 L376,444.56 L377,444.56 L378,444.56 L379,444.56 L380,444.56 L381,444.56 L382,444.56 L383,444.56 L384,444.56 L385,444.56 L386,444.56 L387,444.56 L388,444.56 L389,444.56 L390,444.56 L391,444.56 L392,444.56 L393,444.56 L394,444.56 L395,444.56 L396,444.56 L397,444.56 L398,444.56 L399,444.56 L400,444.56 L401,444.56 L402,444.56 L403,444.56 L404,444.56 L405,444.56 L406,444.56 L407,444.56 L408,444.56 L409,444.56 L410,444.56 L411,444.56 L412,444.56 L413,444.56 L414,444.56 L415,444.56 L416,444.56 L417,444.56 L418,444.56 L419,444.56 L420,444.56 L421,444.56 L422,444.56 L423,444.56 L424,444.56 L425,444.56 L426,444.56 L427,444.56 L428,444.56 L429,444.56 L430,444.56 L431,444.56 L432,444.56 L433,444.56 L434,444.56 L435,444.56 L436,444.56 L437,444.56 L438,444.56 L439,444.56 L440,444.56 L441,444.56 L442,444.56 L443,444.56 L444,444.56 L445,444.56 L446,444.56 L447,444.56 L448,444.56 L449,444.56 L450,444.56 L451,444.56 L452,444.56 L453,444.56 L454,444.56 L455,444.56 L456,444.56 L457,444.56 L458,444.56 L459,444.56 L460,444.56 L461,444.56 L462,444.56 L463,444.56 L464,444.56 L465,444.56 L466,444.56 L467,444.56 L468,444.56 L469,444.56 L470,444.56 L471,444.56 L472,444.56 L473,444.56 L474,444.56 L475,444.56 L476,444.56 L477,444.56 L478,444.56 L479,444.56 L480,444.56 L481,444.56 L482,444.56 L483,444.56 L484,444.56 L485,444.56 L486,444.56 L487,444.56 L488,444.56 L489,444.56 L490,444.56 L491,444.56 L492,444.56 L493,444.56 L494,444.56 L495,444.56 L496,444.56 L497,444.56 L498,444.56 L499,444.56 L500,444.56 L501,444.56 L502,444.56 L503,444.56 L504,444.56 L505,444.56 L506,444.56 L507,444.56 L508,444.56 L509,444.56 L510,444.56 L511,444.56 L512,444.56 L513,444.56 L514,444.56 L515,444.56 L516,444.56 L517,444.56 L518,444.56 L519,444.56 L520,444.56 L521,444.56 L522,444.56 L523,444.56 L524,444.56 L525,444.56 L526,444.56 L527,444.56 L528,444.56 L529,444.56 L530,444.56 L531,444.56 L532,444.56 L533,444.56 L534,444.56 L535,444.56 L536,444.56 L537,444.56 L538,444.56 L539,444.56 L540,444.56 L541,444.56 L542,444.56 L543,444.56 L544,444.56 L545,444.56 L546,444.56 L547,444.56 L548,444.56 L549,444.56 L550,444.56 L551,444.56 L552,444.56 L553,444.56 L554,444.56 L555,444.56 L556,444.56 L557,444.56 L558,444.56 L559,444.56 L560,444.56 L561,444.56 L562,444.56 L563,444.56 L564,444.56 L565,444.56 L566,444.56 L567,444.56 L568,444.56 L569,444.56 L570,444.56 L571,444.56 L572,444.56 L573,444.56 L574,444.56 L575,444.56 L576,444.56 L577,444.56 L578,444.56 L579,444.56 L580,444.56 L581,444.56 L582,444.56 L583,444.56 L584,444.56 L585,444.56 L586,444.56 L587,444.56 L588,444.56 L589,444.56 L590,444.56 L591,444.56 L592,444.56 L593,444.56 L594,444.56 L595,444.56 L596,444.56 L597,5572.31 L598,5572.31 L599,5572.31 L600,5572.31 L601,5572.31 L602,5572.31 L603,5572.31 L604,5572.31 L605,5572.31 L606,5572.31 L607,5572.31 L608,5572.31 L609,5572.31 L610,5572.31 L611,5572.31 L612,5572.31 L613,5572.31 L614,5572.31 L615,5572.31 L616,5572.31 L617,5572.31 L618,5572.31 L619,1496.25 L620,1496.25 L621,1496.25 L622,1496.25 L623,1038.94 L624,1038.94 L625,1038.94 L626,1038.94 L627,1038.94 L628,1038.94 L629,1038.94 L630,1038.94 L631,1038.94 L632,1038.94 L633,1038.94 L634,1038.94 L635,1038.94 L636,1038.94 L637,1038.94 L638,1038.94 L639,1038.94 L640,1038.94 L641,1038.94 L642,1038.94 L643,1038.94 L644,1038.94 L645,1038.94 L646,1038.94 L647,1038.94 L648,1038.94 L649,1038.94 L650,1038.94 L651,1038.94 L652,1038.94 L653,1038.94 L654,1038.94 L655,1038.94 L656,1038.94 L657,1038.94 L658,1038.94 L659,1038.94 L660,1038.94 L661,1038.94 L662,1038.94 L663,1038.94 L664,1038.94 L665,1038.94 L666,1038.94 L667,1038.94 L668,1038.94 L669,1038.94 L670,1038.94 L671,1038.94 L672,1038.94 L673,1038.94 L674,1038.94 L675,1038.94 L676,1038.94 L677,1038.94 L678,1038.94 L679,1038.94 L680,1038.94 L681,1038.94 L682,1038.94 L683,1038.94 L684,1038.94 L685,1038.94 L686,1038.94 L687,1038.94 L688,1038.94 L689,1038.94 L690,1038.94 L691,1038.94 L692,1038.94 L693,1038.94 L694,3848.12 L695,3848.12 L696,3848.12 L697,3848.12 L698,3848.12 L699,3848.12 L700,3848.12 L701,3848.12 L702,3848.12 L703,3848.12 L704,3848.12 L705,1165.50 L706,1165.50 L707,1165.50 L708,1165.50 L709,1165.50 L710,1165.50 L711,1165.50 L712,1165.50 L713,1165.50 L714,1165.50 L715,1165.50 L716,1165.50 L717,1165.50 L718,1165.50 L719,1165.50 L720,1165.50 L721,1165.50 L722,1165.50 L723,1165.50 L724,1165.50 L725,1165.50 L726,1165.50 L727,1165.50 L728,1165.50 L729,1165.50 L730,1165.50 L731,1165.50 L732,1165.50 L733,1165.50 L734,1165.50 L735,1165.50 L736,1165.50 L737,1165.50 L738,1165.50 L739,1165.50 L740,1165.50 L741,1165.50 L742,1165.50 L743,1165.50 L744,1165.50 L745,1165.50 L746,1165.50 L747,1165.50 L748,1165.50 L749,1165.50 L750,1165.50 L751,1165.50 L752,1165.50 L753,1165.50 L754,1165.50 L755,1165.50 L756,1165.50 L757,1165.50 L758,1165.50 L759,1165.50 L760,1165.50 L761,1165.50 L762,1165.50 L763,1165.50 L764,1165.50 L765,1165.50 L766,1165.50 L767,1165.50 L768,1165.50 L769,1165.50 L770,1165.50 L771,1165.50 L772,1165.50 L773,1165.50 L774,1165.50 L775,1165.50 L776,1165.50 L777,1165.50 L778,1165.50 L779,1165.50 L780,1165.50 L781,1165.50 L782,1165.50 L783,1165.50 L784,1165.50 L785,1165.50 L786,1165.50 L787,1165.50 L788,1165.50 L789,1165.50 L790,1165.50 L791,1165.50 L792,933.88 L793,933.88 L794,933.88 L795,933.88 L796,933.88 L797,933.88 L798,933.88 L799,933.88 L800,933.88 L801,933.88 L802,933.88 L803,933.88 L804,933.88 L805,936.50 L806,936.50 L807,936.50 L808,936.50 L809,936.50 L810,936.50 L811,936.50 L812,936.50 L813,936.50 L814,936.50 L815,936.50 L816,936.50 L817,936.50 L818,936.50 L819,936.50 L820,936.50 L821,936.50 L822,936.50 L823,936.50 L824,936.50 L825,936.50 L826,936.50 L827,936.50 L828,936.50 L829,936.50 L830,936.50 L831,936.50 L832,936.50 L833,936.50 L834,936.50 L835,936.50 L836,936.50 L837,936.50 L838,936.50 L839,936.50 L840,936.50 L841,936.50 L842,936.50 L843,936.50 L844,936.50 L845,936.50 L846,936.50 L847,936.50 L848,936.50 L849,936.50 L850,936.50 L851,936.50 L852,936.50 L853,936.50 L854,936.50 L855,936.50 L856,936.50 L857,936.50 L858,936.50 L859,936.50 L860,936.50 L861,936.50 L862,936.50 L863,936.50 L864,936.50 L865,936.50 L866,936.50 L867,936.50 L868,936.50 L869,936.50 L870,936.50 L871,936.50 L872,936.50 L873,936.50 L874,936.50 L875,936.50 L876,936.50 L877,936.50 L878,936.50 L879,936.50 L880,936.50 L881,936.50 L882,936.50 L883,936.50 L884,936.50 L885,936.50 L886,936.50 L887,936.50 L888,936.50 L889,937.50 L890,937.50 L891,937.50 L892,937.50 L893,937.50 L894,937.50 L895,937.50 L896,937.50 L897,937.50 L898,937.50 L899,937.50 L900,937.50 L901,937.50 L902,937.50 L903,937.50 L904,937.50 L905,937.50 L906,937.50 L907,937.50 L908,937.50 L909,937.50 L910,937.50 L911,937.50 L912,937.50 L913,937.50 L914,937.50 L915,937.50 L916,937.50 L917,937.50 L918,937.50 L919,937.50 L920,937.50 L921,937.50 L922,937.50 L923,937.50 L924,937.50 L925,937.50 L926,937.50 L927,937.50 L928,937.50 L929,937.50 L930,937.50 L931,937.50 L932,370.00 L933,370.00 L934,370.00 L935,370.00 L936,370.00 L937,370.00 L938,370.00 L939,370.00 L940,370.00 L941,370.00 L942,370.00 L943,370.00 L944,370.00 L945,370.00 L946,370.00 L947,418.69 L948,15007.12 L949,15007.12 L950,15007.12 L951,15007.12 L952,15007.12 L953,15007.12 L954,15007.12 L955,15007.12 L956,15007.12 L957,15007.12 L958,15007.12 L959,15007.12 L960,15007.12 L961,15007.12 L962,15007.12 L963,15007.12 L964,15007.12 L965,15007.12 L966,15007.12 L967,15007.12 L968,15007.12 L969,15007.12 L970,15007.12 L971,15007.12 L972,15007.12 L973,15007.12 L974,15007.12 L975,15007.12 L976,15007.12 L977,15007.12 L978,15007.12 L979,15007.12 L980,15007.12 L981,15007.12 L982,15007.12 L983,15007.12 L984,15007.12 L985,15007.12 L986,15007.12 L987,15007.12 L988,15007.12 L989,15007.12 L990,15007.12 L991,15007.12 L992,15007.12 L993,15007.12 L994,15007.12 L995,15007.12 L996,15007.12 L997,15007.12 L998,15007.12 L999,15007.12 L1000,15007.12 L1001,15007.12 L1002,15007.12 L1003,15007.12 L1004,15007.12 L1005,15007.12 L1006,15007.12 L1007,15007.12 L1008,15007.12 L1009,15007.12 L1010,15007.12 L1011,15007.12 L1012,15007.12 L1013,15007.12 L1014,15007.12 L1015,15007.12 L1016,15007.12 L1017,15007.12 L1018,15007.12 L1019,15007.12 L1020,15007.12 L1021,15007.12 L1022,15007.12 L1023,15007.12 L1024,15007.12 L1025,15007.12 L1026,15007.12 L1027,15007.12 L1028,15007.12 L1029,15007.12 L1030,15007.12 L1031,15007.12 L1032,15007.12 L1033,15007.12 L1034,15007.12 L1035,15007.12 L1036,15007.12 L1037,15007.12 L1038,15007.12 L1039,15007.12 L1040,15007.12 L1041,15007.12 L1042,15007.12 L1043,15007.12 L1044,15007.12 L1045,15007.12 L1046,13552.56 L1047,12098.00 L1048,10643.44 L1049,10643.44 L1050,10643.44 L1051,9188.88 L1052,9188.88 L1053,7734.25 L1054,6279.69 L1055,6279.69 L1056,6279.69 L1057,4824.62 L1058,4824.62 L1059,3370.06 L1060,3370.06 L1061,3370.06 L1062,3370.06 L1063,3370.06 L1064,3370.06 L1065,3370.06 L1066,3370.06 L1067,1915.00 L1068,1915.00 L1069,1915.00 L1070,358.50" style="vector-effect: non-scaling-stroke; stroke: #006020; stroke-width: 1; fill-opacity: 0" transform="scale(0.672897,-0.006549)"/>
</g>
</g>
</svg>
