<?xml version="1.0" encoding="UTF-8"?>
<!DOCTYPE svg PUBLIC "-//W3C//DTD SVG 1.1//EN" "http://www.w3.org/Graphics/SVG/1.1/DTD/svg11.dtd">
<svg xmlns="http://www.w3.org/2000/svg" width="1060" height="350" fill="black" stroke="gray" stroke-width="1">
<text x= "0" y="30" text-anchor="start" stroke="brown">Linux 3.10.0-693.el7.ppc64le (centos-npb-iv1-main) 	06/19/2018 	_ppc64le_	(10 CPU)
</text>
<g id="18" transform="translate(0,50)">
<rect x="0" y="0" height="300" width="1050"/>
<text x="0" y="20" style="fill: yellow; stroke: none">Memory utilization (5)
<tspan x="795" y="25" style="fill: yellow; stroke: none; font-size: 12px">(Min, Max, Average values)</tspan></text>
<polyline points="70,50 70,250 790,250" stroke="white" stroke-width="2"/>
<text x="795" y="50" style="fill: #ffff00; stroke: none; font-size: 12px">MBactive (303.69, 35798.00, 3502.626)</text><text x="795" y="65" style="fill: #666635; stroke: none; font-size: 12px">MBinact (128.19, 131.44, 129.679)</text><text x="795" y="80" style="fill: #d60093; stroke: none; font-size: 12px">MBdirty (0.00, 16746.19, 1202.577)</text><g transform="translate(70,250)">
<text x="0" y="0" style="fill: white; stroke: none; font-size: 12px; text-anchor: end">0.</text>
<polyline points="0,10000.00 720,10000.00" style="vector-effect: non-scaling-stroke; stroke: #202020" transform="scale(1,-0.005587)"/>
<text x="0" y="-55" style="fill: white; stroke: none; font-size: 12px; text-anchor: end">10000.</text>
<polyline points="0,20000.00 720,20000.00" style="vector-effect: non-scaling-stroke; stroke: #202020" transform="scale(1,-0.005587)"/>
<text x="0" y="-111" style="fill: white; stroke: none; font-size: 12px; text-anchor: end">20000.</text>
<polyline points="0,30000.00 720,30000.00" style="vector-effect: non-scaling-stroke; stroke: #202020" transform="scale(1,-0.005587)"/>
<text x="0" y="-167" style="fill: white; stroke: none; font-size: 12px; text-anchor: end">30000.</text>
<polyline points="0,0 0,-200" style="vector-effect: non-scaling-stroke; stroke: #202020" transform="scale(0.672897,1)"/>
<text x="0" y="10" style="fill: white; stroke: none; font-size: 12px; text-anchor: start" transform="rotate(45,0,0)">09:56:49</text>
<polyline points="107,0 107,-200" style="vector-effect: non-scaling-stroke; stroke: #202020" transform="scale(0.672897,1)"/>
<text x="72" y="10" style="fill: white; stroke: none; font-size: 12px; text-anchor: start" transform="rotate(45,72,0)">09:58:36</text>
<polyline points="214,0 214,-200" style="vector-effect: non-scaling-stroke; stroke: #202020" transform="scale(0.672897,1)"/>
<text x="144" y="10" style="fill: white; stroke: none; font-size: 12px; text-anchor: start" transform="rotate(45,144,0)">10:00:23</text>
<polyline points="321,0 321,-200" style="vector-effect: non-scaling-stroke; stroke: #202020" transform="scale(0.672897,1)"/>
<text x="216" y="10" style="fill: white; stroke: none; font-size: 12px; text-anchor: start" transform="rotate(45,216,0)">10:02:10</text>
<polyline points="428,0 428,-200" style="vector-effect: non-scaling-stroke; stroke: #202020" transform="scale(0.672897,1)"/>
<text x="288" y="10" style="fill: white; stroke: none; font-size: 12px; text-anchor: start" transform="rotate(45,288,0)">10:03:57</text>
<polyline points="535,0 535,-200" style="vector-effect: non-scaling-stroke; stroke: #202020" transform="scale(0.672897,1)"/>
<text x="360" y="10" style="fill: white; stroke: none; font-size: 12px; text-anchor: start" transform="rotate(45,360,0)">10:05:44</text>
<polyline points="642,0 642,-200" style="vector-effect: non-scaling-stroke; stroke: #202020" transform="scale(0.672897,1)"/>
<text x="432" y="10" style="fill: white; stroke: none; font-size: 12px; text-anchor: start" transform="rotate(45,432,0)">10:07:31</text>
<polyline points="749,0 749,-200" style="vector-effect: non-scaling-stroke; stroke: #202020" transform="scale(0.672897,1)"/>
<text x="504" y="10" style="fill: white; stroke: none; font-size: 12px; text-anchor: start" transform="rotate(45,504,0)">10:09:18</text>
<polyline points="856,0 856,-200" style="vector-effect: non-scaling-stroke; stroke: #202020" transform="scale(0.672897,1)"/>
<text x="576" y="10" style="fill: white; stroke: none; font-size: 12px; text-anchor: start" transform="rotate(45,576,0)">10:11:05</text>
<polyline points="963,0 963,-200" style="vector-effect: non-scaling-stroke; stroke: #202020" transform="scale(0.672897,1)"/>
<text x="648" y="10" style="fill: white; stroke: none; font-size: 12px; text-anchor: start" transform="rotate(45,648,0)">10:12:52</text>
<polyline points="1070,0 1070,-200" style="vector-effect: non-scaling-stroke; stroke: #202020" transform="scale(0.672897,1)"/>
<text x="720" y="10" style="fill: white; stroke: none; font-size: 12px; text-anchor: start" transform="rotate(45,720,0)">10:14:39</text>
<text x="-10" y="30" style="fill: yellow; stroke: none; font-size: 12px; text-anchor: end">UTC</text>
<path id="g13p8" d=" M1,303.69 L2,304.31 L3,310.19 L4,1001.25 L5,1002.06 L6,1002.06 L7,1002.06 L8,1002.06 L9,1002.12 L10,1002.94 L11,1002.94 L12,1002.94 L13,1005.19 L14,1005.19 L15,1005.19 L16,1004.38 L17,1004.38 L18,1004.38 L19,1004.38 L20,1004.38 L21,1004.38 L22,1004.38 L23,1004.38 L24,1004.38 L25,1004.44 L26,1004.44 L27,1004.44 L28,1004.44 L29,1004.44 L30,1004.44 L31,1004.44 L32,1004.44 L33,1004.50 L34,1004.50 L35,1004.50 L36,1004.50 L37,1004.50 L38,1004.50 L39,1004.50 L40,1004.50 L41,1004.50 L42,1004.56 L43,1004.56 L44,1004.56 L45,1004.56 L46,1004.56 L47,1004.56 L48,1004.56 L49,1004.56 L50,1004.62 L51,1004.62 L52,1004.62 L53,1004.62 L54,1004.62 L55,1004.62 L56,1004.62 L57,1004.62 L58,1004.69 L59,1004.69 L60,1004.69 L61,1004.69 L62,1004.69 L63,1004.69 L64,1004.69 L65,1004.69 L66,1004.75 L67,1004.75 L68,1004.75 L69,1004.75 L70,1004.75 L71,1004.75 L72,1004.75 L73,1004.75 L74,1004.81 L75,1004.81 L76,1004.81 L77,1004.81 L78,1004.81 L79,1004.81 L80,1004.81 L81,1004.81 L82,1004.88 L83,1004.88 L84,1004.88 L85,1004.88 L86,1004.88 L87,1004.88 L88,1004.88 L89,1004.88 L90,1004.94 L91,1004.94 L92,1004.94 L93,1004.94 L94,1004.94 L95,1004.94 L96,1004.94 L97,1004.94 L98,1005.00 L99,1005.00 L100,1005.00 L101,1005.00 L102,1005.00 L103,1005.00 L104,1005.00 L105,315.25 L106,778.31 L107,778.50 L108,1197.62 L109,1198.12 L110,1198.88 L111,1198.88 L112,1198.88 L113,1198.88 L114,1198.94 L115,1198.94 L116,1198.94 L117,1198.94 L118,1198.94 L119,1198.94 L120,1198.94 L121,1198.94 L122,1199.00 L123,1199.00 L124,1199.00 L125,1199.00 L126,1199.00 L127,1199.00 L128,1199.00 L129,1199.00 L130,1199.06 L131,1199.06 L132,1199.06 L133,1199.06 L134,1199.06 L135,1199.06 L136,1199.44 L137,1199.44 L138,1199.50 L139,1199.50 L140,1199.50 L141,1199.50 L142,1199.50 L143,1199.50 L144,1199.50 L145,325.44 L146,325.44 L147,325.44 L148,325.44 L149,325.44 L150,325.44 L151,325.44 L152,325.44 L153,325.44 L154,325.44 L155,325.44 L156,325.44 L157,325.44 L158,325.44 L159,325.44 L160,325.44 L161,325.44 L162,325.44 L163,325.44 L164,325.44 L165,325.44 L166,325.44 L167,325.44 L168,325.44 L169,325.44 L170,325.44 L171,325.44 L172,325.44 L173,325.44 L174,325.44 L175,325.44 L176,325.44 L177,325.44 L178,325.44 L179,325.44 L180,325.44 L181,325.44 L182,325.44 L183,325.44 L184,325.44 L185,325.44 L186,325.44 L187,325.44 L188,325.44 L189,325.44 L190,325.44 L191,325.44 L192,325.44 L193,325.44 L194,325.44 L195,325.44 L196,325.44 L197,325.44 L198,325.44 L199,325.44 L200,325.44 L201,325.44 L202,325.44 L203,325.44 L204,325.44 L205,325.56 L206,325.56 L207,325.56 L208,325.56 L209,325.56 L210,325.56 L211,325.56 L212,325.56 L213,325.56 L214,325.56 L215,325.56 L216,325.56 L217,325.56 L218,325.56 L219,325.56 L220,325.56 L221,325.56 L222,325.56 L223,325.56 L224,325.56 L225,325.56 L226,325.56 L227,325.56 L228,325.56 L229,325.56 L230,325.56 L231,325.56 L232,325.56 L233,325.56 L234,325.56 L235,325.56 L236,325.56 L237,325.56 L238,325.56 L239,325.56 L240,325.56 L241,325.56 L242,325.56 L243,325.56 L244,325.56 L245,325.56 L246,325.56 L247,325.56 L248,325.56 L249,325.56 L250,325.56 L251,325.56 L252,332.06 L253,331.69 L254,327.62 L255,327.62 L256,327.62 L257,327.62 L258,327.62 L259,327.62 L260,327.94 L261,327.94 L262,327.94 L263,327.94 L264,327.94 L265,327.94 L266,327.94 L267,327.94 L268,327.94 L269,327.94 L270,327.94 L271,327.94 L272,327.94 L273,327.94 L274,327.94 L275,327.94 L276,327.94 L277,327.94 L278,327.94 L279,327.94 L280,327.94 L281,327.94 L282,327.94 L283,327.94 L284,327.94 L285,327.94 L286,327.94 L287,327.94 L288,327.94 L289,327.94 L290,327.94 L291,327.94 L292,327.94 L293,327.94 L294,327.94 L295,327.94 L296,327.94 L297,327.94 L298,327.94 L299,327.94 L300,327.94 L301,327.94 L302,327.94 L303,327.94 L304,327.94 L305,327.94 L306,327.94 L307,327.94 L308,327.94 L309,327.94 L310,327.94 L311,327.94 L312,327.94 L313,327.94 L314,327.94 L315,327.94 L316,327.94 L317,327.94 L318,327.94 L319,327.94 L320,327.94 L321,327.94 L322,327.94 L323,327.94 L324,327.94 L325,327.94 L326,327.94 L327,327.94 L328,327.94 L329,327.94 L330,327.94 L331,327.94 L332,327.94 L333,327.94 L334,327.94 L335,327.94 L336,327.94 L337,327.94 L338,327.94 L339,327.94 L340,327.94 L341,327.94 L342,327.94 L343,327.94 L344,327.94 L345,327.94 L346,327.94 L347,327.94 L348,327.94 L349,327.94 L350,327.94 L351,327.94 L352,327.94 L353,327.94 L354,327.94 L355,327.94 L356,327.94 L357,327.94 L358,327.94 L359,327.94 L360,327.94 L361,327.94 L362,327.94 L363,327.94 L364,327.94 L365,327.94 L366,327.94 L367,327.94 L368,327.94 L369,327.94 L370,327.94 L371,327.94 L372,327.94 L373,327.94 L374,327.94 L375,327.94 L376,327.94 L377,327.94 L378,327.94 L379,327.94 L380,327.94 L381,327.94 L382,327.94 L383,327.94 L384,327.94 L385,327.94 L386,327.94 L387,327.94 L388,327.94 L389,327.94 L390,327.94 L391,327.94 L392,327.94 L393,327.94 L394,327.94 L395,327.94 L396,327.94 L397,327.94 L398,327.94 L399,327.94 L400,327.94 L401,327.94 L402,327.94 L403,327.94 L404,327.94 L405,327.94 L406,327.94 L407,327.94 L408,327.94 L409,327.94 L410,327.94 L411,327.94 L412,327.94 L413,327.94 L414,327.94 L415,327.94 L416,327.94 L417,327.94 L418,327.94 L419,327.94 L420,327.94 L421,327.94 L422,327.94 L423,327.94 L424,327.94 L425,327.94 L426,327.94 L427,327.94 L428,327.94 L429,327.94 L430,327.94 L431,327.94 L432,327.94 L433,327.94 L434,327.94 L435,327.94 L436,327.94 L437,327.94 L438,327.94 L439,327.94 L440,327.94 L441,327.94 L442,327.94 L443,327.94 L444,327.94 L445,327.94 L446,327.94 L447,327.94 L448,327.94 L449,327.94 L450,327.94 L451,327.94 L452,327.94 L453,327.94 L454,327.94 L455,327.94 L456,327.94 L457,327.94 L458,327.94 L459,327.94 L460,327.94 L461,327.94 L462,327.94 L463,327.94 L464,327.94 L465,327.94 L466,327.94 L467,327.94 L468,327.94 L469,327.94 L470,327.94 L471,327.94 L472,327.94 L473,327.94 L474,327.94 L475,327.94 L476,327.94 L477,327.94 L478,327.94 L479,327.94 L480,327.94 L481,327.94 L482,327.94 L483,327.94 L484,327.94 L485,327.94 L486,327.94 L487,327.94 L488,327.94 L489,327.94 L490,327.94 L491,327.94 L492,327.94 L493,327.94 L494,327.94 L495,327.94 L496,327.94 L497,327.94 L498,327.94 L499,327.94 L500,327.94 L501,327.94 L502,327.94 L503,327.94 L504,327.94 L505,327.94 L506,327.94 L507,327.94 L508,327.94 L509,327.94 L510,327.94 L511,327.94 L512,327.94 L513,327.94 L514,327.94 L515,327.94 L516,327.94 L517,327.94 L518,327.94 L519,327.94 L520,327.94 L521,327.94 L522,327.94 L523,327.94 L524,327.94 L525,327.94 L526,327.94 L527,327.94 L528,327.94 L529,327.94 L530,327.94 L531,327.94 L532,327.94 L533,327.94 L534,327.94 L535,327.94 L536,327.94 L537,327.94 L538,327.94 L539,327.94 L540,327.94 L541,327.94 L542,327.94 L543,327.94 L544,327.94 L545,327.94 L546,327.94 L547,327.94 L548,327.94 L549,327.94 L550,327.94 L551,327.94 L552,327.94 L553,327.94 L554,327.94 L555,327.94 L556,327.94 L557,327.94 L558,327.94 L559,327.94 L560,327.94 L561,327.94 L562,327.94 L563,327.94 L564,327.94 L565,327.94 L566,327.94 L567,327.94 L568,327.94 L569,327.94 L570,327.94 L571,327.94 L572,327.94 L573,327.94 L574,327.94 L575,327.94 L576,327.94 L577,327.94 L578,327.94 L579,327.94 L580,327.94 L581,327.94 L582,327.94 L583,327.94 L584,327.94 L585,327.94 L586,327.94 L587,327.94 L588,327.94 L589,327.94 L590,327.94 L591,327.94 L592,327.94 L593,327.94 L594,327.94 L595,327.94 L596,327.81 L597,4347.31 L598,5448.19 L599,5452.62 L600,5453.12 L601,5453.12 L602,5453.12 L603,5453.12 L604,5453.12 L605,5453.19 L606,5453.19 L607,5453.19 L608,5453.19 L609,5453.19 L610,5453.19 L611,5453.19 L612,5453.19 L613,5453.25 L614,5453.25 L615,5453.25 L616,5453.25 L617,5453.25 L618,5453.25 L619,420.38 L620,580.75 L621,755.50 L622,1374.19 L623,890.31 L624,918.75 L625,918.88 L626,918.88 L627,918.88 L628,918.88 L629,918.94 L630,919.25 L631,919.25 L632,919.25 L633,919.25 L634,919.25 L635,919.25 L636,919.25 L637,919.31 L638,919.31 L639,919.31 L640,919.31 L641,919.31 L642,919.31 L643,919.31 L644,919.31 L645,919.38 L646,919.38 L647,919.38 L648,919.38 L649,919.38 L650,919.38 L651,919.38 L652,919.38 L653,919.44 L654,919.44 L655,919.44 L656,919.44 L657,919.44 L658,919.44 L659,919.44 L660,919.44 L661,919.50 L662,919.50 L663,919.50 L664,919.50 L665,919.50 L666,919.50 L667,919.50 L668,919.50 L669,919.56 L670,919.56 L671,919.56 L672,919.56 L673,919.56 L674,919.56 L675,919.56 L676,919.56 L677,919.62 L678,919.62 L679,919.62 L680,919.62 L681,919.62 L682,919.62 L683,919.62 L684,919.62 L685,919.69 L686,919.69 L687,919.69 L688,919.69 L689,919.69 L690,919.69 L691,919.69 L692,919.69 L693,919.75 L694,2349.31 L695,3727.50 L696,3728.62 L697,3728.62 L698,3728.62 L699,3728.62 L700,3728.62 L701,3728.69 L702,3728.69 L703,3728.69 L704,3728.69 L705,1050.38 L706,1072.75 L707,1072.75 L708,1072.75 L709,1072.81 L710,1073.25 L711,1073.25 L712,1073.25 L713,1073.25 L714,1073.25 L715,1073.25 L716,1073.25 L717,1073.31 L718,1073.31 L719,1073.31 L720,1073.31 L721,1073.31 L722,1073.31 L723,1073.31 L724,1073.31 L725,1073.38 L726,1073.38 L727,1073.38 L728,1073.38 L729,1073.38 L730,1073.38 L731,1073.38 L732,1073.38 L733,1073.44 L734,1073.44 L735,1073.44 L736,1073.50 L737,1073.50 L738,1073.50 L739,1073.50 L740,1073.50 L741,1073.56 L742,1073.56 L743,1073.56 L744,1073.56 L745,1073.56 L746,1073.56 L747,1073.56 L748,1073.56 L749,1073.62 L750,1073.62 L751,1073.62 L752,1073.62 L753,1073.62 L754,1073.62 L755,1073.62 L756,1073.62 L757,1073.69 L758,1073.69 L759,1073.69 L760,1073.69 L761,1073.69 L762,1073.69 L763,1073.69 L764,1073.69 L765,1073.75 L766,1073.75 L767,1073.75 L768,1073.75 L769,1073.75 L770,1073.75 L771,1073.75 L772,1073.75 L773,1073.81 L774,1073.81 L775,1073.81 L776,1073.81 L777,1073.81 L778,1073.81 L779,1073.81 L780,1073.81 L781,1073.88 L782,1073.88 L783,1073.88 L784,1073.88 L785,1073.88 L786,1073.88 L787,1073.88 L788,1073.88 L789,1073.88 L790,1073.94 L791,1073.94 L792,796.25 L793,796.69 L794,796.69 L795,796.69 L796,798.44 L797,799.50 L798,799.56 L799,799.56 L800,800.56 L801,800.56 L802,800.56 L803,800.56 L804,800.56 L805,802.81 L806,802.88 L807,802.88 L808,802.88 L809,802.88 L810,802.88 L811,802.88 L812,802.88 L813,802.88 L814,802.94 L815,802.94 L816,802.94 L817,803.81 L818,803.81 L819,803.81 L820,803.81 L821,803.81 L822,803.88 L823,803.88 L824,803.88 L825,803.88 L826,803.88 L827,803.88 L828,803.88 L829,803.88 L830,803.94 L831,803.94 L832,803.94 L833,803.94 L834,803.94 L835,803.94 L836,803.94 L837,803.94 L838,804.00 L839,804.00 L840,804.00 L841,804.00 L842,804.00 L843,804.00 L844,804.00 L845,804.00 L846,804.06 L847,804.06 L848,804.06 L849,804.06 L850,804.06 L851,804.06 L852,804.06 L853,804.06 L854,804.12 L855,804.12 L856,804.12 L857,804.12 L858,804.12 L859,804.12 L860,804.12 L861,804.12 L862,804.19 L863,804.19 L864,804.19 L865,804.19 L866,804.19 L867,804.19 L868,804.19 L869,804.19 L870,804.25 L871,804.25 L872,804.25 L873,804.25 L874,804.25 L875,804.25 L876,804.25 L877,804.25 L878,804.31 L879,804.31 L880,804.31 L881,804.31 L882,804.31 L883,804.31 L884,804.31 L885,804.31 L886,804.38 L887,804.38 L888,804.38 L889,804.38 L890,804.81 L891,805.25 L892,805.44 L893,805.44 L894,805.50 L895,805.50 L896,805.50 L897,805.50 L898,805.50 L899,805.50 L900,805.50 L901,805.50 L902,805.56 L903,805.56 L904,805.56 L905,805.56 L906,805.56 L907,805.56 L908,805.56 L909,805.56 L910,805.62 L911,805.62 L912,805.62 L913,805.62 L914,805.62 L915,805.62 L916,805.62 L917,805.62 L918,805.69 L919,805.69 L920,805.69 L921,805.69 L922,805.69 L923,805.69 L924,805.69 L925,805.69 L926,805.75 L927,805.75 L928,805.75 L929,805.75 L930,805.75 L931,805.75 L932,354.38 L933,410.38 L934,465.62 L935,521.62 L936,577.62 L937,633.62 L938,689.62 L939,746.44 L940,802.75 L941,858.75 L942,914.81 L943,971.62 L944,1027.62 L945,1083.62 L946,1139.62 L947,1203.88 L948,1816.62 L949,2629.75 L950,3318.44 L951,3929.69 L952,4533.00 L953,5118.69 L954,5675.94 L955,6186.88 L956,6702.44 L957,7216.62 L958,7706.50 L959,8211.75 L960,8700.69 L961,9189.00 L962,9675.56 L963,10197.44 L964,10962.56 L965,11848.81 L966,12864.12 L967,14039.69 L968,15212.44 L969,15985.56 L970,16611.94 L971,17103.81 L972,17301.31 L973,17304.56 L974,17304.56 L975,17304.62 L976,17304.62 L977,17304.62 L978,17304.62 L979,17304.62 L980,17304.62 L981,17304.62 L982,17572.00 L983,18112.88 L984,18784.25 L985,19462.19 L986,20063.50 L987,20489.56 L988,20873.19 L989,21376.12 L990,21966.69 L991,22435.12 L992,22855.38 L993,23416.62 L994,23512.19 L995,23516.12 L996,23516.12 L997,23516.12 L998,23532.81 L999,23750.69 L1000,24071.38 L1001,24553.12 L1002,24953.62 L1003,25243.62 L1004,25419.50 L1005,25519.56 L1006,25636.38 L1007,25865.25 L1008,26405.94 L1009,26982.94 L1010,27574.12 L1011,28105.75 L1012,28326.62 L1013,28432.44 L1014,28560.31 L1015,28929.25 L1016,29304.12 L1017,29848.56 L1018,30140.06 L1019,30368.44 L1020,30542.94 L1021,30602.19 L1022,30701.06 L1023,30812.31 L1024,30934.69 L1025,31051.50 L1026,31073.75 L1027,31190.56 L1028,31401.94 L1029,31830.81 L1030,32483.12 L1031,33164.25 L1032,33805.94 L1033,34292.00 L1034,34514.56 L1035,34734.69 L1036,34864.62 L1037,34989.19 L1038,35037.75 L1039,35061.00 L1040,35161.44 L1041,35267.12 L1042,35389.50 L1043,35507.94 L1044,35602.50 L1045,35798.00 L1046,35224.81 L1047,34871.38 L1048,34396.31 L1049,34761.25 L1050,34960.94 L1051,34226.88 L1052,34491.38 L1053,33672.50 L1054,32848.62 L1055,33006.12 L1056,33225.38 L1057,32359.19 L1058,32469.75 L1059,31619.19 L1060,31619.19 L1061,31619.81 L1062,31619.81 L1063,31619.88 L1064,31642.12 L1065,31779.69 L1066,31965.62 L1067,31268.88 L1068,31391.25 L1069,31505.88 L1070,30569.75" style="vector-effect: non-scaling-stroke; stroke: #ffff00; stroke-width: 1; fill-opacity: 0" transform="scale(0.672897,-0.005587)"/>
<path id="g13p9" d=" M1,128.44 L2,128.50 L3,128.19 L4,129.31 L5,129.31 L6,129.31 L7,129.31 L8,129.31 L9,129.31 L10,129.31 L11,129.31 L12,129.31 L13,129.31 L14,129.31 L15,129.31 L16,129.31 L17,129.31 L18,129.31 L19,129.31 L20,129.31 L21,129.31 L22,129.31 L23,129.31 L24,129.31 L25,129.31 L26,129.31 L27,129.31 L28,129.31 L29,129.31 L30,129.31 L31,129.31 L32,129.31 L33,129.31 L34,129.31 L35,129.31 L36,129.31 L37,129.31 L38,129.31 L39,129.31 L40,129.31 L41,129.31 L42,129.31 L43,129.31 L44,129.31 L45,129.31 L46,129.31 L47,129.31 L48,129.31 L49,129.31 L50,129.31 L51,129.31 L52,129.31 L53,129.31 L54,129.31 L55,129.31 L56,129.31 L57,129.31 L58,129.31 L59,129.31 L60,129.31 L61,129.31 L62,129.31 L63,129.31 L64,129.31 L65,129.31 L66,129.31 L67,129.31 L68,129.31 L69,129.31 L70,129.31 L71,129.31 L72,129.31 L73,129.31 L74,129.31 L75,129.31 L76,129.31 L77,129.31 L78,129.31 L79,129.31 L80,129.31 L81,129.31 L82,129.31 L83,129.31 L84,129.31 L85,129.31 L86,129.31 L87,129.31 L88,129.31 L89,129.31 L90,129.31 L91,129.31 L92,129.31 L93,129.31 L94,129.31 L95,129.31 L96,129.31 L97,129.31 L98,129.31 L99,129.31 L100,129.31 L101,129.31 L102,129.31 L103,129.31 L104,129.31 L105,129.31 L106,129.31 L107,129.31 L108,129.31 L109,129.31 L110,129.31 L111,129.31 L112,129.31 L113,129.31 L114,129.31 L115,129.31 L116,129.31 L117,129.31 L118,129.31 L119,129.31 L120,129.31 L121,129.31 L122,129.31 L123,129.31 L124,129.31 L125,129.31 L126,129.31 L127,129.31 L128,129.31 L129,129.31 L130,129.31 L131,129.31 L132,129.31 L133,129.31 L134,129.31 L135,129.31 L136,129.31 L137,129.31 L138,129.31 L139,129.31 L140,129.31 L141,129.31 L142,129.31 L143,129.31 L144,129.31 L145,128.88 L146,128.88 L147,128.88 L148,128.88 L149,128.88 L150,128.88 L151,128.88 L152,128.88 L153,128.88 L154,128.88 L155,128.88 L156,128.88 L157,128.88 L158,128.88 L159,128.88 L160,128.88 L161,128.88 L162,128.88 L163,128.88 L164,128.88 L165,128.88 L166,128.88 L167,128.88 L168,128.88 L169,128.88 L170,128.88 L171,128.88 L172,128.88 L173,128.88 L174,128.88 L175,128.88 L176,128.88 L177,128.88 L178,128.88 L179,128.88 L180,128.88 L181,128.88 L182,128.88 L183,128.88 L184,128.88 L185,128.88 L186,128.88 L187,128.88 L188,128.88 L189,128.88 L190,128.88 L191,128.88 L192,128.88 L193,128.88 L194,128.88 L195,128.88 L196,128.88 L197,128.88 L198,128.88 L199,128.88 L200,128.88 L201,128.88 L202,128.88 L203,128.88 L204,128.88 L205,128.88 L206,128.88 L207,128.88 L208,128.88 L209,128.88 L210,128.88 L211,128.88 L212,128.88 L213,128.88 L214,128.88 L215,128.88 L216,128.88 L217,128.88 L218,128.88 L219,128.88 L220,128.88 L221,128.88 L222,128.88 L223,128.88 L224,128.88 L225,128.88 L226,128.88 L227,128.88 L228,128.88 L229,128.88 L230,128.88 L231,128.88 L232,128.88 L233,128.88 L234,128.88 L235,128.88 L236,128.88 L237,128.88 L238,128.88 L239,128.88 L240,128.88 L241,128.88 L242,128.88 L243,128.88 L244,128.88 L245,128.88 L246,128.88 L247,128.88 L248,128.88 L249,128.88 L250,128.88 L251,128.88 L252,129.44 L253,129.44 L254,129.31 L255,129.31 L256,129.31 L257,129.31 L258,129.31 L259,129.31 L260,129.31 L261,129.31 L262,129.31 L263,129.31 L264,129.31 L265,129.31 L266,129.31 L267,129.31 L268,129.31 L269,129.31 L270,129.31 L271,129.31 L272,129.31 L273,129.31 L274,129.31 L275,129.31 L276,129.31 L277,129.31 L278,129.31 L279,129.31 L280,129.31 L281,129.31 L282,129.31 L283,129.31 L284,129.31 L285,129.31 L286,129.31 L287,129.31 L288,129.31 L289,129.31 L290,129.31 L291,129.31 L292,129.31 L293,129.31 L294,129.31 L295,129.31 L296,129.31 L297,129.31 L298,129.31 L299,129.31 L300,129.31 L301,129.31 L302,129.31 L303,129.31 L304,129.31 L305,129.31 L306,129.31 L307,129.31 L308,129.31 L309,129.31 L310,129.31 L311,129.31 L312,129.31 L313,129.31 L314,129.31 L315,129.31 L316,129.31 L317,129.31 L318,129.31 L319,129.31 L320,129.31 L321,129.31 L322,129.31 L323,129.31 L324,129.31 L325,129.31 L326,129.31 L327,129.31 L328,129.31 L329,129.31 L330,129.31 L331,129.31 L332,129.31 L333,129.31 L334,129.31 L335,129.31 L336,129.31 L337,129.31 L338,129.31 L339,129.31 L340,129.31 L341,129.31 L342,129.31 L343,129.31 L344,129.31 L345,129.31 L346,129.31 L347,129.31 L348,129.31 L349,129.31 L350,129.31 L351,129.31 L352,129.31 L353,129.31 L354,129.31 L355,129.31 L356,129.31 L357,129.31 L358,129.31 L359,129.31 L360,129.31 L361,129.31 L362,129.31 L363,129.31 L364,129.31 L365,129.31 L366,129.31 L367,129.31 L368,129.31 L369,129.31 L370,129.31 L371,129.31 L372,129.31 L373,129.31 L374,129.31 L375,129.31 L376,129.31 L377,129.31 L378,129.31 L379,129.31 L380,129.31 L381,129.31 L382,129.31 L383,129.31 L384,129.31 L385,129.31 L386,129.31 L387,129.31 L388,129.31 L389,129.31 L390,129.31 L391,129.31 L392,129.31 L393,129.31 L394,129.31 L395,129.31 L396,129.31 L397,129.31 L398,129.31 L399,129.31 L400,129.31 L401,129.31 L402,129.31 L403,129.31 L404,129.31 L405,129.31 L406,129.31 L407,129.31 L408,129.31 L409,129.31 L410,129.31 L411,129.31 L412,129.31 L413,129.31 L414,129.31 L415,129.31 L416,129.31 L417,129.31 L418,129.31 L419,129.31 L420,129.31 L421,129.31 L422,129.31 L423,129.31 L424,129.31 L425,129.31 L426,129.31 L427,129.31 L428,129.31 L429,129.31 L430,129.31 L431,129.31 L432,129.31 L433,129.31 L434,129.31 L435,129.31 L436,129.31 L437,129.31 L438,129.31 L439,129.31 L440,129.31 L441,129.31 L442,129.31 L443,129.31 L444,129.31 L445,129.31 L446,129.31 L447,129.31 L448,129.31 L449,129.31 L450,129.31 L451,129.31 L452,129.31 L453,129.31 L454,129.31 L455,129.31 L456,129.31 L457,129.31 L458,129.31 L459,129.31 L460,129.31 L461,129.31 L462,129.31 L463,129.31 L464,129.31 L465,129.31 L466,129.31 L467,129.31 L468,129.31 L469,129.31 L470,129.31 L471,129.31 L472,129.31 L473,129.31 L474,129.31 L475,129.31 L476,129.31 L477,129.31 L478,129.31 L479,129.31 L480,129.31 L481,129.31 L482,129.31 L483,129.31 L484,129.31 L485,129.31 L486,129.31 L487,129.31 L488,129.31 L489,129.31 L490,129.31 L491,129.31 L492,129.31 L493,129.31 L494,129.31 L495,129.31 L496,129.31 L497,129.31 L498,129.31 L499,129.31 L500,129.31 L501,129.31 L502,129.31 L503,129.31 L504,129.31 L505,129.31 L506,129.31 L507,129.31 L508,129.31 L509,129.31 L510,129.31 L511,129.31 L512,129.31 L513,129.31 L514,129.31 L515,129.31 L516,129.31 L517,129.31 L518,129.31 L519,129.31 L520,129.31 L521,129.31 L522,129.31 L523,129.31 L524,129.31 L525,129.31 L526,129.31 L527,129.31 L528,129.31 L529,129.31 L530,129.31 L531,129.31 L532,129.31 L533,129.31 L534,129.31 L535,129.31 L536,129.31 L537,129.31 L538,129.31 L539,129.31 L540,129.31 L541,129.31 L542,129.31 L543,129.31 L544,129.31 L545,129.31 L546,129.31 L547,129.31 L548,129.31 L549,129.31 L550,129.31 L551,129.31 L552,129.31 L553,129.31 L554,129.31 L555,129.31 L556,129.31 L557,129.31 L558,129.31 L559,129.31 L560,129.31 L561,129.31 L562,129.31 L563,129.31 L564,129.31 L565,129.31 L566,129.31 L567,129.31 L568,129.31 L569,129.31 L570,129.31 L571,129.31 L572,129.31 L573,129.31 L574,129.31 L575,129.31 L576,129.31 L577,129.31 L578,129.31 L579,129.31 L580,129.31 L581,129.31 L582,129.31 L583,129.31 L584,129.31 L585,129.31 L586,129.31 L587,129.31 L588,129.31 L589,129.31 L590,129.31 L591,129.31 L592,129.31 L593,129.31 L594,129.31 L595,129.31 L596,129.50 L597,129.44 L598,129.56 L599,129.62 L600,129.62 L601,129.62 L602,129.62 L603,129.62 L604,129.62 L605,129.62 L606,129.62 L607,129.62 L608,129.62 L609,129.62 L610,129.62 L611,129.62 L612,129.62 L613,129.62 L614,129.62 L615,129.62 L616,129.62 L617,129.62 L618,129.62 L619,129.62 L620,129.62 L621,129.62 L622,129.62 L623,129.62 L624,129.75 L625,129.75 L626,129.75 L627,129.75 L628,129.75 L629,129.75 L630,129.75 L631,129.75 L632,129.75 L633,129.75 L634,129.75 L635,129.75 L636,129.75 L637,129.75 L638,129.75 L639,129.75 L640,129.75 L641,129.75 L642,129.75 L643,129.75 L644,129.75 L645,129.75 L646,129.75 L647,129.75 L648,129.75 L649,129.75 L650,129.75 L651,129.75 L652,129.75 L653,129.75 L654,129.75 L655,129.75 L656,129.75 L657,129.75 L658,129.75 L659,129.75 L660,129.75 L661,129.75 L662,129.75 L663,129.75 L664,129.75 L665,129.75 L666,129.75 L667,129.75 L668,129.75 L669,129.75 L670,129.75 L671,129.75 L672,129.75 L673,129.75 L674,129.75 L675,129.75 L676,129.75 L677,129.75 L678,129.75 L679,129.75 L680,129.75 L681,129.75 L682,129.75 L683,129.75 L684,129.75 L685,129.75 L686,129.75 L687,129.75 L688,129.75 L689,129.75 L690,129.75 L691,129.75 L692,129.75 L693,129.75 L694,129.75 L695,129.81 L696,129.81 L697,129.81 L698,129.81 L699,129.81 L700,129.81 L701,129.81 L702,129.81 L703,129.81 L704,129.81 L705,129.94 L706,129.94 L707,129.94 L708,129.94 L709,129.94 L710,129.94 L711,129.94 L712,129.94 L713,129.94 L714,129.94 L715,129.94 L716,129.94 L717,129.94 L718,129.94 L719,129.94 L720,129.94 L721,129.94 L722,129.94 L723,129.94 L724,129.94 L725,129.94 L726,129.94 L727,129.94 L728,129.94 L729,129.94 L730,129.94 L731,129.94 L732,129.94 L733,129.94 L734,129.94 L735,129.94 L736,129.94 L737,129.94 L738,129.94 L739,129.94 L740,129.94 L741,129.94 L742,129.94 L743,129.94 L744,129.94 L745,129.94 L746,129.94 L747,129.94 L748,129.94 L749,129.94 L750,129.94 L751,129.94 L752,129.94 L753,129.94 L754,129.94 L755,129.94 L756,129.94 L757,129.94 L758,129.94 L759,129.94 L760,129.94 L761,129.94 L762,129.94 L763,129.94 L764,129.94 L765,129.94 L766,129.94 L767,129.94 L768,129.94 L769,129.94 L770,129.94 L771,129.94 L772,129.94 L773,129.94 L774,129.94 L775,129.94 L776,129.94 L777,129.94 L778,129.94 L779,129.94 L780,129.94 L781,129.94 L782,129.94 L783,129.94 L784,129.94 L785,129.94 L786,129.94 L787,129.94 L788,129.94 L789,129.94 L790,129.94 L791,129.94 L792,130.19 L793,130.19 L794,130.19 L795,130.19 L796,130.19 L797,130.19 L798,130.19 L799,130.19 L800,130.19 L801,130.19 L802,130.19 L803,130.19 L804,130.19 L805,130.19 L806,130.19 L807,130.19 L808,130.19 L809,130.19 L810,130.19 L811,130.19 L812,130.19 L813,130.19 L814,130.19 L815,130.19 L816,130.19 L817,130.19 L818,130.19 L819,130.19 L820,130.19 L821,130.19 L822,130.19 L823,130.19 L824,130.19 L825,130.19 L826,130.19 L827,130.19 L828,130.19 L829,130.19 L830,130.19 L831,130.19 L832,130.19 L833,130.19 L834,130.19 L835,130.19 L836,130.19 L837,130.19 L838,130.19 L839,130.19 L840,130.19 L841,130.19 L842,130.19 L843,130.19 L844,130.19 L845,130.19 L846,130.19 L847,130.19 L848,130.19 L849,130.19 L850,130.19 L851,130.19 L852,130.19 L853,130.19 L854,130.19 L855,130.19 L856,130.19 L857,130.19 L858,130.19 L859,130.19 L860,130.19 L861,130.19 L862,130.19 L863,130.19 L864,130.19 L865,130.19 L866,130.19 L867,130.19 L868,130.19 L869,130.19 L870,130.19 L871,130.19 L872,130.19 L873,130.19 L874,130.19 L875,130.19 L876,130.19 L877,130.19 L878,130.19 L879,130.19 L880,130.19 L881,130.19 L882,130.19 L883,130.19 L884,130.19 L885,130.19 L886,130.19 L887,130.19 L888,130.19 L889,130.19 L890,130.19 L891,130.19 L892,130.19 L893,130.19 L894,130.19 L895,130.19 L896,130.19 L897,130.19 L898,130.19 L899,130.19 L900,130.19 L901,130.19 L902,130.19 L903,130.19 L904,130.19 L905,130.19 L906,130.19 L907,130.19 L908,130.19 L909,130.19 L910,130.19 L911,130.19 L912,130.19 L913,130.19 L914,130.19 L915,130.19 L916,130.19 L917,130.19 L918,130.19 L919,130.19 L920,130.19 L921,130.19 L922,130.19 L923,130.19 L924,130.19 L925,130.19 L926,130.19 L927,130.19 L928,130.19 L929,130.19 L930,130.19 L931,130.19 L932,130.44 L933,130.44 L934,130.38 L935,130.38 L936,130.38 L937,130.38 L938,130.38 L939,130.44 L940,130.44 L941,130.44 L942,130.44 L943,130.50 L944,130.50 L945,130.50 L946,130.50 L947,130.31 L948,130.38 L949,130.88 L950,130.81 L951,130.81 L952,130.81 L953,130.81 L954,130.81 L955,130.81 L956,130.81 L957,130.88 L958,130.81 L959,130.81 L960,130.81 L961,130.81 L962,130.81 L963,130.81 L964,131.06 L965,130.88 L966,130.69 L967,131.25 L968,131.19 L969,130.94 L970,130.94 L971,130.94 L972,131.06 L973,131.06 L974,131.06 L975,131.06 L976,131.06 L977,131.06 L978,131.06 L979,131.06 L980,131.06 L981,131.06 L982,131.00 L983,131.25 L984,131.25 L985,131.25 L986,131.12 L987,131.06 L988,131.44 L989,131.06 L990,130.94 L991,131.12 L992,131.06 L993,131.00 L994,131.06 L995,130.88 L996,130.88 L997,130.88 L998,130.88 L999,131.06 L1000,131.06 L1001,130.94 L1002,131.19 L1003,131.12 L1004,131.00 L1005,131.19 L1006,131.19 L1007,131.19 L1008,131.12 L1009,131.12 L1010,131.06 L1011,131.12 L1012,131.12 L1013,131.12 L1014,131.25 L1015,131.25 L1016,131.06 L1017,131.00 L1018,131.12 L1019,131.19 L1020,131.19 L1021,131.19 L1022,131.19 L1023,131.19 L1024,131.19 L1025,131.19 L1026,131.19 L1027,131.19 L1028,131.19 L1029,130.88 L1030,131.12 L1031,131.31 L1032,130.81 L1033,130.75 L1034,130.81 L1035,131.00 L1036,131.00 L1037,131.00 L1038,130.88 L1039,131.00 L1040,130.81 L1041,130.81 L1042,130.81 L1043,130.88 L1044,130.88 L1045,130.75 L1046,130.88 L1047,131.25 L1048,131.06 L1049,130.88 L1050,131.19 L1051,130.50 L1052,130.62 L1053,131.00 L1054,131.00 L1055,131.06 L1056,130.62 L1057,130.75 L1058,130.75 L1059,130.69 L1060,130.69 L1061,130.62 L1062,130.62 L1063,130.62 L1064,130.62 L1065,130.56 L1066,130.69 L1067,130.62 L1068,130.62 L1069,130.69 L1070,130.50" style="vector-effect: non-scaling-stroke; stroke: #666635; stroke-width: 1; fill-opacity: 0" transform="scale(0.672897,-0.005587)"/>
<path id="g13p10" d=" M1,12.38 L2,12.44 L3,4.25 L4,0.06 L5,0.06 L6,0.06 L7,0.06 L8,0.12 L9,0.12 L10,0.12 L11,0.12 L12,0.12 L13,0.19 L14,0.19 L15,0.19 L16,0.25 L17,0.25 L18,0.25 L19,0.25 L20,0.25 L21,0.25 L22,0.25 L23,0.25 L24,0.31 L25,0.31 L26,0.31 L27,0.31 L28,0.31 L29,0.31 L30,0.31 L31,0.31 L32,0.38 L33,0.38 L34,0.06 L35,0.12 L36,0.12 L37,0.12 L38,0.12 L39,0.12 L40,0.12 L41,0.19 L42,0.19 L43,0.19 L44,0.12 L45,0.12 L46,0.12 L47,0.12 L48,0.12 L49,0.19 L50,0.19 L51,0.19 L52,0.19 L53,0.19 L54,0.19 L55,0.19 L56,0.19 L57,0.25 L58,0.25 L59,0.25 L60,0.25 L61,0.25 L62,0.25 L63,0.25 L64,0.25 L65,0.31 L66,0.31 L67,0.31 L68,0.31 L69,0.00 L70,0.06 L71,0.06 L72,0.06 L73,0.12 L74,0.12 L75,0.12 L76,0.12 L77,0.12 L78,0.12 L79,0.12 L80,0.12 L81,0.19 L82,0.19 L83,0.19 L84,0.19 L85,0.19 L86,0.19 L87,0.19 L88,0.19 L89,0.25 L90,0.25 L91,0.25 L92,0.25 L93,0.25 L94,0.25 L95,0.25 L96,0.25 L97,0.31 L98,0.31 L99,0.31 L100,0.00 L101,0.06 L102,0.06 L103,0.06 L104,0.06 L105,0.12 L106,0.06 L107,0.06 L108,0.06 L109,0.06 L110,0.06 L111,0.06 L112,0.06 L113,0.12 L114,0.12 L115,0.12 L116,0.12 L117,0.12 L118,0.12 L119,0.12 L120,0.12 L121,0.19 L122,0.19 L123,0.19 L124,0.19 L125,0.19 L126,0.19 L127,0.19 L128,0.19 L129,0.25 L130,0.25 L131,0.25 L132,0.25 L133,0.25 L134,0.25 L135,0.25 L136,0.00 L137,0.12 L138,0.12 L139,0.12 L140,0.12 L141,0.12 L142,0.12 L143,0.12 L144,0.12 L145,0.00 L146,0.00 L147,0.00 L148,0.00 L149,0.00 L150,0.00 L151,0.00 L152,0.00 L153,0.00 L154,0.00 L155,0.00 L156,0.00 L157,0.00 L158,0.00 L159,0.00 L160,0.00 L161,0.00 L162,0.00 L163,0.00 L164,0.00 L165,0.00 L166,0.00 L167,0.00 L168,0.00 L169,0.00 L170,0.00 L171,0.00 L172,0.00 L173,0.00 L174,0.00 L175,0.00 L176,0.00 L177,0.00 L178,0.00 L179,0.00 L180,0.00 L181,0.00 L182,0.00 L183,0.00 L184,0.00 L185,0.00 L186,0.00 L187,0.00 L188,0.00 L189,0.00 L190,0.00 L191,0.00 L192,0.00 L193,0.00 L194,0.00 L195,0.00 L196,0.00 L197,0.00 L198,0.00 L199,0.00 L200,0.00 L201,0.00 L202,0.00 L203,0.00 L204,0.00 L205,0.00 L206,0.00 L207,0.00 L208,0.00 L209,0.00 L210,0.00 L211,0.00 L212,0.00 L213,0.00 L214,0.00 L215,0.00 L216,0.00 L217,0.00 L218,0.00 L219,0.00 L220,0.00 L221,0.00 L222,0.00 L223,0.00 L224,0.00 L225,0.00 L226,0.00 L227,0.00 L228,0.00 L229,0.00 L230,0.00 L231,0.00 L232,0.00 L233,0.00 L234,0.00 L235,0.00 L236,0.00 L237,0.00 L238,0.00 L239,0.00 L240,0.00 L241,0.00 L242,0.00 L243,0.00 L244,0.00 L245,0.00 L246,0.00 L247,0.00 L248,0.00 L249,0.00 L250,0.00 L251,0.00 L252,0.00 L253,0.00 L254,0.00 L255,0.00 L256,0.00 L257,0.00 L258,0.00 L259,0.00 L260,0.00 L261,0.00 L262,0.00 L263,0.00 L264,0.00 L265,0.00 L266,0.00 L267,0.00 L268,0.00 L269,0.00 L270,0.00 L271,0.00 L272,0.00 L273,0.00 L274,0.00 L275,0.00 L276,0.00 L277,0.00 L278,0.00 L279,0.00 L280,0.00 L281,0.00 L282,0.00 L283,0.00 L284,0.00 L285,0.00 L286,0.00 L287,0.00 L288,0.00 L289,0.00 L290,0.00 L291,0.00 L292,0.00 L293,0.00 L294,0.00 L295,0.00 L296,0.00 L297,0.00 L298,0.00 L299,0.00 L300,0.00 L301,0.00 L302,0.00 L303,0.00 L304,0.00 L305,0.00 L306,0.00 L307,0.00 L308,0.00 L309,0.00 L310,0.00 L311,0.00 L312,0.00 L313,0.00 L314,0.00 L315,0.00 L316,0.00 L317,0.00 L318,0.00 L319,0.00 L320,0.00 L321,0.00 L322,0.00 L323,0.00 L324,0.00 L325,0.00 L326,0.00 L327,0.00 L328,0.00 L329,0.00 L330,0.00 L331,0.00 L332,0.00 L333,0.00 L334,0.00 L335,0.00 L336,0.00 L337,0.00 L338,0.00 L339,0.00 L340,0.00 L341,0.00 L342,0.00 L343,0.00 L344,0.00 L345,0.00 L346,0.00 L347,0.00 L348,0.00 L349,0.00 L350,0.00 L351,0.00 L352,0.00 L353,0.00 L354,0.00 L355,0.00 L356,0.00 L357,0.00 L358,0.00 L359,0.00 L360,0.00 L361,0.00 L362,0.00 L363,0.00 L364,0.00 L365,0.00 L366,0.00 L367,0.00 L368,0.00 L369,0.00 L370,0.00 L371,0.00 L372,0.00 L373,0.00 L374,0.00 L375,0.00 L376,0.00 L377,0.00 L378,0.00 L379,0.00 L380,0.00 L381,0.00 L382,0.00 L383,0.00 L384,0.00 L385,0.00 L386,0.00 L387,0.00 L388,0.00 L389,0.00 L390,0.00 L391,0.00 L392,0.00 L393,0.00 L394,0.00 L395,0.00 L396,0.00 L397,0.00 L398,0.00 L399,0.00 L400,0.00 L401,0.00 L402,0.00 L403,0.00 L404,0.00 L405,0.00 L406,0.00 L407,0.00 L408,0.00 L409,0.00 L410,0.00 L411,0.00 L412,0.00 L413,0.00 L414,0.00 L415,0.00 L416,0.00 L417,0.00 L418,0.00 L419,0.00 L420,0.00 L421,0.00 L422,0.00 L423,0.00 L424,0.00 L425,0.00 L426,0.00 L427,0.00 L428,0.00 L429,0.00 L430,0.00 L431,0.00 L432,0.00 L433,0.00 L434,0.00 L435,0.00 L436,0.00 L437,0.00 L438,0.00 L439,0.00 L440,0.00 L441,0.00 L442,0.00 L443,0.00 L444,0.00 L445,0.00 L446,0.00 L447,0.00 L448,0.00 L449,0.00 L450,0.00 L451,0.00 L452,0.00 L453,0.00 L454,0.00 L455,0.00 L456,0.00 L457,0.00 L458,0.00 L459,0.00 L460,0.00 L461,0.00 L462,0.00 L463,0.00 L464,0.00 L465,0.00 L466,0.00 L467,0.00 L468,0.00 L469,0.00 L470,0.00 L471,0.00 L472,0.00 L473,0.00 L474,0.00 L475,0.00 L476,0.00 L477,0.00 L478,0.00 L479,0.00 L480,0.00 L481,0.00 L482,0.00 L483,0.00 L484,0.00 L485,0.00 L486,0.00 L487,0.00 L488,0.00 L489,0.00 L490,0.00 L491,0.00 L492,0.00 L493,0.00 L494,0.00 L495,0.00 L496,0.00 L497,0.00 L498,0.00 L499,0.00 L500,0.00 L501,0.00 L502,0.00 L503,0.00 L504,0.00 L505,0.00 L506,0.00 L507,0.00 L508,0.00 L509,0.00 L510,0.00 L511,0.00 L512,0.00 L513,0.00 L514,0.00 L515,0.00 L516,0.00 L517,0.00 L518,0.00 L519,0.00 L520,0.00 L521,0.00 L522,0.00 L523,0.00 L524,0.00 L525,0.00 L526,0.00 L527,0.00 L528,0.00 L529,0.00 L530,0.00 L531,0.00 L532,0.00 L533,0.00 L534,0.00 L535,0.00 L536,0.00 L537,0.00 L538,0.00 L539,0.00 L540,0.00 L541,0.00 L542,0.00 L543,0.00 L544,0.00 L545,0.00 L546,0.00 L547,0.00 L548,0.00 L549,0.00 L550,0.00 L551,0.00 L552,0.00 L553,0.00 L554,0.00 L555,0.00 L556,0.00 L557,0.00 L558,0.00 L559,0.00 L560,0.00 L561,0.00 L562,0.00 L563,0.00 L564,0.00 L565,0.00 L566,0.00 L567,0.00 L568,0.00 L569,0.00 L570,0.00 L571,0.00 L572,0.00 L573,0.00 L574,0.00 L575,0.00 L576,0.00 L577,0.00 L578,0.00 L579,0.00 L580,0.00 L581,0.00 L582,0.00 L583,0.00 L584,0.00 L585,0.00 L586,0.00 L587,0.00 L588,0.00 L589,0.00 L590,0.00 L591,0.00 L592,0.00 L593,0.00 L594,0.00 L595,0.00 L596,0.00 L597,0.00 L598,0.06 L599,0.06 L600,0.06 L601,0.06 L602,0.06 L603,0.06 L604,0.12 L605,0.12 L606,0.12 L607,0.12 L608,0.12 L609,0.12 L610,0.12 L611,0.12 L612,0.19 L613,0.19 L614,0.19 L615,0.19 L616,0.19 L617,0.19 L618,0.19 L619,0.00 L620,0.00 L621,0.00 L622,0.12 L623,0.12 L624,0.06 L625,0.06 L626,0.06 L627,0.06 L628,0.12 L629,0.12 L630,0.12 L631,0.12 L632,0.12 L633,0.12 L634,0.12 L635,0.12 L636,0.19 L637,0.19 L638,0.19 L639,0.19 L640,0.19 L641,0.19 L642,0.19 L643,0.19 L644,0.25 L645,0.25 L646,0.25 L647,0.25 L648,0.25 L649,0.25 L650,0.25 L651,0.25 L652,0.31 L653,0.31 L654,0.00 L655,0.06 L656,0.06 L657,0.06 L658,0.06 L659,0.06 L660,0.12 L661,0.12 L662,0.12 L663,0.12 L664,0.12 L665,0.12 L666,0.12 L667,0.12 L668,0.19 L669,0.19 L670,0.19 L671,0.19 L672,0.19 L673,0.19 L674,0.19 L675,0.19 L676,0.25 L677,0.25 L678,0.25 L679,0.25 L680,0.25 L681,0.25 L682,0.25 L683,0.25 L684,0.31 L685,0.00 L686,0.06 L687,0.06 L688,0.06 L689,0.06 L690,0.06 L691,0.06 L692,0.12 L693,0.12 L694,0.12 L695,0.06 L696,0.06 L697,0.06 L698,0.06 L699,0.06 L700,0.12 L701,0.12 L702,0.12 L703,0.12 L704,0.12 L705,0.00 L706,0.06 L707,0.06 L708,0.12 L709,0.12 L710,0.12 L711,0.12 L712,0.12 L713,0.12 L714,0.12 L715,0.12 L716,0.19 L717,0.19 L718,0.19 L719,0.19 L720,0.19 L721,0.19 L722,0.19 L723,0.19 L724,0.25 L725,0.25 L726,0.25 L727,0.25 L728,0.25 L729,0.25 L730,0.25 L731,0.25 L732,0.31 L733,0.31 L734,0.31 L735,0.31 L736,0.00 L737,0.06 L738,0.06 L739,0.06 L740,0.12 L741,0.12 L742,0.12 L743,0.12 L744,0.12 L745,0.12 L746,0.12 L747,0.12 L748,0.19 L749,0.19 L750,0.19 L751,0.19 L752,0.19 L753,0.19 L754,0.19 L755,0.19 L756,0.25 L757,0.25 L758,0.25 L759,0.25 L760,0.25 L761,0.25 L762,0.25 L763,0.25 L764,0.31 L765,0.31 L766,0.31 L767,0.00 L768,0.06 L769,0.06 L770,0.06 L771,0.06 L772,0.12 L773,0.12 L774,0.12 L775,0.12 L776,0.12 L777,0.12 L778,0.12 L779,0.12 L780,0.19 L781,0.19 L782,0.19 L783,0.19 L784,0.19 L785,0.19 L786,0.19 L787,0.19 L788,0.19 L789,0.25 L790,0.25 L791,0.25 L792,0.00 L793,0.06 L794,0.06 L795,0.06 L796,0.06 L797,0.12 L798,0.12 L799,0.12 L800,0.12 L801,0.12 L802,0.12 L803,0.12 L804,0.12 L805,0.38 L806,0.38 L807,0.38 L808,0.38 L809,0.38 L810,0.38 L811,0.38 L812,0.38 L813,0.44 L814,0.44 L815,0.44 L816,0.44 L817,0.44 L818,0.44 L819,0.44 L820,0.44 L821,0.50 L822,0.50 L823,0.19 L824,0.25 L825,0.25 L826,0.25 L827,0.25 L828,0.25 L829,0.31 L830,0.31 L831,0.31 L832,0.31 L833,0.31 L834,0.31 L835,0.31 L836,0.31 L837,0.38 L838,0.19 L839,0.19 L840,0.19 L841,0.19 L842,0.19 L843,0.19 L844,0.19 L845,0.25 L846,0.25 L847,0.25 L848,0.25 L849,0.25 L850,0.25 L851,0.25 L852,0.25 L853,0.31 L854,0.31 L855,0.31 L856,0.31 L857,0.31 L858,0.00 L859,0.06 L860,0.06 L861,0.12 L862,0.12 L863,0.12 L864,0.12 L865,0.12 L866,0.12 L867,0.12 L868,0.12 L869,0.19 L870,0.19 L871,0.19 L872,0.19 L873,0.19 L874,0.19 L875,0.19 L876,0.19 L877,0.25 L878,0.25 L879,0.25 L880,0.25 L881,0.25 L882,0.25 L883,0.25 L884,0.25 L885,0.31 L886,0.31 L887,0.31 L888,0.31 L889,0.00 L890,0.25 L891,0.25 L892,0.25 L893,0.31 L894,0.31 L895,0.31 L896,0.31 L897,0.31 L898,0.31 L899,0.31 L900,0.31 L901,0.38 L902,0.38 L903,0.38 L904,0.38 L905,0.38 L906,0.38 L907,0.38 L908,0.38 L909,0.44 L910,0.44 L911,0.44 L912,0.44 L913,0.44 L914,0.44 L915,0.44 L916,0.44 L917,0.50 L918,0.50 L919,0.50 L920,0.31 L921,0.31 L922,0.31 L923,0.31 L924,0.31 L925,0.12 L926,0.12 L927,0.12 L928,0.12 L929,0.12 L930,0.12 L931,0.12 L932,34.31 L933,89.50 L934,144.88 L935,201.00 L936,257.19 L937,313.38 L938,369.56 L939,425.75 L940,481.94 L941,538.12 L942,594.44 L943,650.62 L944,706.81 L945,763.00 L946,819.25 L947,839.44 L948,839.50 L949,840.19 L950,840.19 L951,840.19 L952,840.19 L953,840.19 L954,840.19 L955,840.19 L956,840.19 L957,840.25 L958,840.25 L959,840.25 L960,840.25 L961,840.25 L962,574.25 L963,565.88 L964,622.56 L965,1305.75 L966,2118.88 L967,3280.00 L968,4434.62 L969,5212.44 L970,5844.75 L971,6329.25 L972,6518.69 L973,6521.50 L974,6521.56 L975,6521.56 L976,6521.56 L977,6521.56 L978,6521.56 L979,6521.56 L980,6521.56 L981,6521.56 L982,6785.31 L983,7342.00 L984,8003.50 L985,8678.06 L986,9148.31 L987,9409.31 L988,9688.88 L989,9049.19 L990,9643.56 L991,10095.38 L992,10515.12 L993,11069.81 L994,11177.25 L995,10669.06 L996,9158.19 L997,9158.19 L998,9174.81 L999,9390.00 L1000,9732.12 L1001,10207.38 L1002,10610.31 L1003,10888.31 L1004,11061.56 L1005,11164.12 L1006,11280.50 L1007,11472.75 L1008,11870.06 L1009,12105.12 L1010,12695.94 L1011,12988.62 L1012,13206.38 L1013,12031.88 L1014,12151.12 L1015,12521.56 L1016,12898.94 L1017,13448.75 L1018,13742.75 L1019,13967.94 L1020,14142.44 L1021,12123.56 L1022,12219.31 L1023,12335.69 L1024,12452.06 L1025,12568.44 L1026,12593.38 L1027,12709.75 L1028,12934.19 L1029,13359.00 L1030,14008.12 L1031,14704.81 L1032,15332.31 L1033,14900.56 L1034,15110.06 L1035,15325.19 L1036,15465.88 L1037,15584.44 L1038,15522.69 L1039,15426.50 L1040,15218.69 L1041,15318.44 L1042,15293.50 L1043,15312.31 L1044,15104.50 L1045,15296.25 L1046,15031.50 L1047,15608.62 L1048,16148.75 L1049,16449.12 L1050,16569.38 L1051,15605.94 L1052,15866.62 L1053,16063.19 L1054,16179.69 L1055,16329.56 L1056,16556.62 L1057,16694.00 L1058,16746.19 L1059,15640.88 L1060,14975.88 L1061,14973.81 L1062,14973.81 L1063,14971.31 L1064,14996.25 L1065,15133.94 L1066,15314.00 L1067,15560.00 L1068,15684.69 L1069,15802.38 L1070,15702.81" style="vector-effect: non-scaling-stroke; stroke: #d60093; stroke-width: 1; fill-opacity: 0" transform="scale(0.672897,-0.005587)"/>
</g>
</g>
</svg>
