<?xml version="1.0" encoding="UTF-8"?>
<!DOCTYPE svg PUBLIC "-//W3C//DTD SVG 1.1//EN" "http://www.w3.org/Graphics/SVG/1.1/DTD/svg11.dtd">
<svg xmlns="http://www.w3.org/2000/svg" width="1060" height="350" fill="black" stroke="gray" stroke-width="1">
<text x= "0" y="30" text-anchor="start" stroke="brown">Linux 3.10.0-693.el7.ppc64le (centos-compression-iv1-main) 	04/30/2018 	_ppc64le_	(10 CPU)
</text>
<g id="12" transform="translate(0,50)">
<rect x="0" y="0" height="300" width="1050"/>
<text x="0" y="20" style="fill: yellow; stroke: none">I/O and transfer rate statistics (1)
<tspan x="795" y="25" style="fill: yellow; stroke: none; font-size: 12px">(Min, Max, Average values)</tspan></text>
<polyline points="70,50 70,250 790,250" stroke="white" stroke-width="2"/>
<text x="795" y="50" style="fill: #00cc00; stroke: none; font-size: 12px">tps (0.00, 9139.00, 464.345)</text><text x="795" y="65" style="fill: #ff00bf; stroke: none; font-size: 12px">rtps (0.00, 824.00, 295.512)</text><text x="795" y="80" style="fill: #00ffff; stroke: none; font-size: 12px">wtps (0.00, 9139.00, 168.833)</text><g transform="translate(70,250)">
<text x="0" y="0" style="fill: white; stroke: none; font-size: 12px; text-anchor: end">0.</text>
<polyline points="0,3000.00 720,3000.00" style="vector-effect: non-scaling-stroke; stroke: #202020" transform="scale(1,-0.021884)"/>
<text x="0" y="-65" style="fill: white; stroke: none; font-size: 12px; text-anchor: end">3000.</text>
<polyline points="0,6000.00 720,6000.00" style="vector-effect: non-scaling-stroke; stroke: #202020" transform="scale(1,-0.021884)"/>
<text x="0" y="-131" style="fill: white; stroke: none; font-size: 12px; text-anchor: end">6000.</text>
<polyline points="0,9000.00 720,9000.00" style="vector-effect: non-scaling-stroke; stroke: #202020" transform="scale(1,-0.021884)"/>
<text x="0" y="-196" style="fill: white; stroke: none; font-size: 12px; text-anchor: end">9000.</text>
<polyline points="0,0 0,-200" style="vector-effect: non-scaling-stroke; stroke: #202020" transform="scale(0.440367,1)"/>
<text x="0" y="10" style="fill: white; stroke: none; font-size: 12px; text-anchor: start" transform="rotate(45,0,0)">00:53:14</text>
<polyline points="163,0 163,-200" style="vector-effect: non-scaling-stroke; stroke: #202020" transform="scale(0.440367,1)"/>
<text x="71" y="10" style="fill: white; stroke: none; font-size: 12px; text-anchor: start" transform="rotate(45,71,0)">00:55:57</text>
<polyline points="326,0 326,-200" style="vector-effect: non-scaling-stroke; stroke: #202020" transform="scale(0.440367,1)"/>
<text x="143" y="10" style="fill: white; stroke: none; font-size: 12px; text-anchor: start" transform="rotate(45,143,0)">00:58:40</text>
<polyline points="489,0 489,-200" style="vector-effect: non-scaling-stroke; stroke: #202020" transform="scale(0.440367,1)"/>
<text x="215" y="10" style="fill: white; stroke: none; font-size: 12px; text-anchor: start" transform="rotate(45,215,0)">01:01:23</text>
<polyline points="652,0 652,-200" style="vector-effect: non-scaling-stroke; stroke: #202020" transform="scale(0.440367,1)"/>
<text x="287" y="10" style="fill: white; stroke: none; font-size: 12px; text-anchor: start" transform="rotate(45,287,0)">01:04:06</text>
<polyline points="815,0 815,-200" style="vector-effect: non-scaling-stroke; stroke: #202020" transform="scale(0.440367,1)"/>
<text x="358" y="10" style="fill: white; stroke: none; font-size: 12px; text-anchor: start" transform="rotate(45,358,0)">01:06:49</text>
<polyline points="978,0 978,-200" style="vector-effect: non-scaling-stroke; stroke: #202020" transform="scale(0.440367,1)"/>
<text x="430" y="10" style="fill: white; stroke: none; font-size: 12px; text-anchor: start" transform="rotate(45,430,0)">01:09:32</text>
<polyline points="1141,0 1141,-200" style="vector-effect: non-scaling-stroke; stroke: #202020" transform="scale(0.440367,1)"/>
<text x="502" y="10" style="fill: white; stroke: none; font-size: 12px; text-anchor: start" transform="rotate(45,502,0)">01:12:15</text>
<polyline points="1304,0 1304,-200" style="vector-effect: non-scaling-stroke; stroke: #202020" transform="scale(0.440367,1)"/>
<text x="574" y="10" style="fill: white; stroke: none; font-size: 12px; text-anchor: start" transform="rotate(45,574,0)">01:14:58</text>
<polyline points="1467,0 1467,-200" style="vector-effect: non-scaling-stroke; stroke: #202020" transform="scale(0.440367,1)"/>
<text x="646" y="10" style="fill: white; stroke: none; font-size: 12px; text-anchor: start" transform="rotate(45,646,0)">01:17:41</text>
<polyline points="1630,0 1630,-200" style="vector-effect: non-scaling-stroke; stroke: #202020" transform="scale(0.440367,1)"/>
<text x="717" y="10" style="fill: white; stroke: none; font-size: 12px; text-anchor: start" transform="rotate(45,717,0)">01:20:24</text>
<text x="-10" y="30" style="fill: yellow; stroke: none; font-size: 12px; text-anchor: end">UTC</text>
<path id="g11p0" d=" M1,0.00 L2,0.00 L3,16.00 L4,824.00 L5,749.00 L6,748.00 L7,920.00 L8,754.00 L9,755.00 L10,755.00 L11,742.00 L12,762.00 L13,749.00 L14,741.00 L15,755.00 L16,742.00 L17,696.00 L18,590.00 L19,728.00 L20,659.00 L21,666.00 L22,722.00 L23,652.00 L24,728.00 L25,742.00 L26,755.00 L27,756.00 L28,755.00 L29,748.00 L30,756.00 L31,741.00 L32,879.00 L33,741.00 L34,742.00 L35,755.00 L36,742.00 L37,585.00 L38,955.00 L39,732.00 L40,128.00 L41,151.00 L42,362.00 L43,749.00 L44,749.00 L45,762.00 L46,748.00 L47,742.00 L48,741.00 L49,742.00 L50,755.00 L51,749.00 L52,748.00 L53,734.00 L54,749.00 L55,749.00 L56,741.00 L57,749.00 L58,741.00 L59,728.00 L60,749.00 L61,727.00 L62,728.00 L63,708.00 L64,736.00 L65,749.00 L66,721.00 L67,782.00 L68,744.00 L69,2084.00 L70,728.00 L71,749.00 L72,546.00 L73,449.00 L74,707.00 L75,735.00 L76,755.00 L77,742.00 L78,460.00 L79,184.00 L80,256.00 L81,391.00 L82,728.00 L83,721.00 L84,748.00 L85,728.00 L86,747.00 L87,736.00 L88,742.00 L89,748.00 L90,735.00 L91,735.00 L92,748.00 L93,735.00 L94,734.00 L95,708.00 L96,728.00 L97,728.00 L98,729.00 L99,2053.47 L100,715.15 L101,748.00 L102,513.00 L103,407.00 L104,715.00 L105,734.00 L106,749.00 L107,714.00 L108,584.00 L109,128.00 L110,256.00 L111,405.00 L112,721.00 L113,728.00 L114,734.65 L115,734.34 L116,708.00 L117,741.00 L118,742.00 L119,707.00 L120,700.00 L121,715.00 L122,720.00 L123,756.00 L124,735.00 L125,727.00 L126,735.00 L127,724.75 L128,748.00 L129,2019.00 L130,728.00 L131,721.00 L132,588.00 L133,298.00 L134,737.00 L135,741.00 L136,728.00 L137,728.00 L138,482.00 L139,127.00 L140,192.00 L141,551.00 L142,701.00 L143,735.00 L144,734.00 L145,728.00 L146,735.00 L147,735.00 L148,721.00 L149,734.00 L150,742.00 L151,707.00 L152,735.00 L153,734.00 L154,712.00 L155,737.00 L156,721.00 L157,727.00 L158,735.00 L159,1484.00 L160,1206.00 L161,748.00 L162,641.00 L163,335.00 L164,707.00 L165,735.00 L166,721.00 L167,728.00 L168,583.00 L169,210.00 L170,174.00 L171,462.00 L172,714.00 L173,721.00 L174,727.00 L175,715.00 L176,727.00 L177,721.00 L178,728.00 L179,707.00 L180,708.00 L181,741.00 L182,714.00 L183,721.00 L184,728.00 L185,707.00 L186,734.00 L187,721.00 L188,728.00 L189,707.00 L190,1870.00 L191,721.00 L192,686.00 L193,294.00 L194,729.00 L195,742.00 L196,707.00 L197,735.00 L198,537.00 L199,256.00 L200,193.00 L201,416.00 L202,734.00 L203,715.00 L204,714.00 L205,700.00 L206,707.00 L207,721.00 L208,721.00 L209,714.00 L210,721.00 L211,708.00 L212,741.00 L213,701.00 L214,748.00 L215,693.00 L216,721.00 L217,717.00 L218,723.00 L219,727.00 L220,708.00 L221,741.00 L222,707.00 L223,728.00 L224,721.00 L225,2119.00 L226,728.00 L227,707.00 L228,198.00 L229,804.00 L230,707.00 L231,721.00 L232,715.00 L233,588.00 L234,192.00 L235,129.00 L236,194.00 L237,621.00 L238,749.00 L239,700.00 L240,700.00 L241,708.00 L242,720.00 L243,715.00 L244,721.00 L245,686.00 L246,673.00 L247,495.00 L248,711.00 L249,680.00 L250,700.00 L251,714.00 L252,694.00 L253,734.00 L254,707.00 L255,1759.00 L256,707.00 L257,714.00 L258,215.00 L259,658.00 L260,618.00 L261,720.00 L262,701.00 L263,663.00 L264,128.00 L265,192.00 L266,658.00 L267,704.00 L268,710.00 L269,715.00 L270,681.00 L271,721.00 L272,701.00 L273,707.00 L274,673.00 L275,707.00 L276,690.00 L277,711.00 L278,706.00 L279,735.00 L280,687.00 L281,679.00 L282,687.00 L283,714.00 L284,707.00 L285,1749.00 L286,700.00 L287,701.00 L288,700.00 L289,707.00 L290,650.00 L291,593.00 L292,714.00 L293,694.00 L294,728.00 L295,693.00 L296,322.00 L297,192.00 L298,170.00 L299,724.00 L300,653.00 L301,707.00 L302,687.00 L303,714.00 L304,700.00 L305,728.00 L306,687.00 L307,735.00 L308,718.00 L309,700.00 L310,714.00 L311,714.00 L312,708.00 L313,727.00 L314,680.00 L315,694.00 L316,1743.00 L317,679.00 L318,714.00 L319,680.00 L320,735.00 L321,201.00 L322,747.00 L323,700.00 L324,700.00 L325,701.00 L326,576.00 L327,128.00 L328,192.00 L329,745.00 L330,693.00 L331,729.00 L332,694.00 L333,686.00 L334,680.00 L335,673.00 L336,707.00 L337,666.00 L338,705.00 L339,693.00 L340,721.00 L341,701.00 L342,700.00 L343,728.00 L344,693.00 L345,694.00 L346,1766.00 L347,707.00 L348,687.00 L349,700.00 L350,694.00 L351,378.00 L352,563.00 L353,694.00 L354,687.00 L355,727.00 L356,673.00 L357,296.00 L358,128.00 L359,469.00 L360,673.00 L361,693.00 L362,687.00 L363,687.00 L364,680.00 L365,700.00 L366,715.00 L367,687.00 L368,718.00 L369,686.00 L370,721.00 L371,701.00 L372,714.00 L373,700.00 L374,708.00 L375,714.00 L376,1701.00 L377,680.00 L378,720.00 L379,694.00 L380,687.00 L381,495.00 L382,487.00 L383,686.00 L384,715.00 L385,693.00 L386,694.00 L387,410.00 L388,192.00 L389,407.00 L390,687.00 L391,721.00 L392,707.00 L393,707.00 L394,700.00 L395,715.00 L396,714.00 L397,700.00 L398,683.84 L399,721.00 L400,707.00 L401,715.00 L402,618.00 L403,714.00 L404,687.00 L405,693.00 L406,1708.91 L407,701.01 L408,440.00 L409,514.00 L410,694.00 L411,686.00 L412,721.00 L413,694.00 L414,403.00 L415,128.00 L416,416.00 L417,742.00 L418,707.00 L419,714.00 L420,707.00 L421,680.00 L422,721.00 L423,666.00 L424,694.00 L425,673.00 L426,714.00 L427,707.00 L428,677.00 L429,687.00 L430,707.00 L431,687.00 L432,679.00 L433,714.00 L434,708.00 L435,693.00 L436,1402.00 L437,1074.00 L438,477.00 L439,484.00 L440,625.00 L441,652.00 L442,666.00 L443,701.00 L444,296.00 L445,132.00 L446,478.00 L447,724.00 L448,687.00 L449,672.00 L450,694.00 L451,693.00 L452,673.00 L453,680.20 L454,673.00 L455,666.00 L456,604.00 L457,611.00 L458,636.00 L459,687.00 L460,700.00 L461,680.00 L462,638.00 L463,687.00 L464,700.00 L465,687.00 L466,700.00 L467,1671.00 L468,716.00 L469,680.00 L470,673.00 L471,728.00 L472,218.00 L473,756.00 L474,694.00 L475,680.00 L476,730.00 L477,657.00 L478,192.00 L479,230.00 L480,718.00 L481,679.00 L482,666.00 L483,646.00 L484,666.00 L485,700.00 L486,659.00 L487,673.00 L488,708.00 L489,693.00 L490,687.00 L491,680.00 L492,666.00 L493,707.00 L494,695.00 L495,692.00 L496,680.00 L497,1665.00 L498,603.00 L499,434.00 L500,668.00 L501,657.00 L502,707.00 L503,679.00 L504,445.00 L505,192.00 L506,341.00 L507,719.00 L508,679.00 L509,707.00 L510,694.00 L511,687.00 L512,700.00 L513,694.00 L514,693.00 L515,707.00 L516,653.00 L517,659.00 L518,634.00 L519,650.00 L520,634.00 L521,680.00 L522,700.00 L523,673.00 L524,659.00 L525,632.00 L526,666.00 L527,1655.00 L528,602.00 L529,401.00 L530,687.00 L531,721.00 L532,686.00 L533,701.00 L534,516.00 L535,194.00 L536,340.00 L537,716.00 L538,714.00 L539,694.00 L540,693.00 L541,666.00 L542,701.00 L543,700.00 L544,680.00 L545,693.00 L546,735.00 L547,701.00 L548,684.00 L549,733.00 L550,663.00 L551,704.00 L552,714.00 L553,700.00 L554,714.00 L555,707.00 L556,701.00 L557,1676.00 L558,777.00 L559,687.00 L560,714.00 L561,714.00 L562,520.00 L563,462.00 L564,686.00 L565,687.00 L566,693.00 L567,701.00 L568,451.00 L569,128.00 L570,335.00 L571,694.00 L572,714.00 L573,693.00 L574,735.00 L575,687.00 L576,714.00 L577,721.00 L578,684.00 L579,709.00 L580,707.00 L581,721.00 L582,687.00 L583,700.00 L584,693.00 L585,715.00 L586,700.00 L587,693.00 L588,1742.00 L589,330.00 L590,707.00 L591,721.00 L592,693.00 L593,701.00 L594,528.00 L595,178.00 L596,142.00 L597,772.00 L598,707.00 L599,687.00 L600,694.00 L601,693.00 L602,687.00 L603,694.00 L604,687.00 L605,673.00 L606,707.00 L607,687.00 L608,673.00 L609,711.00 L610,707.00 L611,694.00 L612,721.00 L613,686.00 L614,707.00 L615,708.00 L616,728.00 L617,693.00 L618,1714.00 L619,707.00 L620,714.00 L621,687.00 L622,680.00 L623,282.00 L624,748.00 L625,707.00 L626,721.00 L627,686.00 L628,639.00 L629,242.00 L630,192.00 L631,570.00 L632,713.00 L633,707.00 L634,707.00 L635,707.00 L636,694.00 L637,714.00 L638,708.00 L639,708.00 L640,707.00 L641,673.00 L642,666.00 L643,714.00 L644,687.00 L645,714.00 L646,686.00 L647,714.00 L648,1748.00 L649,666.00 L650,693.00 L651,714.00 L652,694.00 L653,397.00 L654,633.00 L655,687.00 L656,673.00 L657,687.00 L658,714.00 L659,262.00 L660,246.00 L661,460.00 L662,687.00 L663,694.00 L664,686.00 L665,694.00 L666,666.00 L667,686.00 L668,687.00 L669,704.00 L670,701.00 L671,687.00 L672,714.00 L673,693.00 L674,695.00 L675,714.00 L676,700.00 L677,707.00 L678,1723.00 L679,217.00 L680,772.00 L681,686.00 L682,701.00 L683,700.00 L684,661.00 L685,142.00 L686,242.00 L687,603.00 L688,708.00 L689,693.00 L690,645.00 L691,591.00 L692,693.00 L693,721.00 L694,687.00 L695,638.00 L696,687.00 L697,693.00 L698,700.00 L699,705.00 L700,673.00 L701,646.00 L702,721.00 L703,672.00 L704,694.00 L705,680.00 L706,680.00 L707,693.00 L708,1687.00 L709,412.00 L710,624.00 L711,660.00 L712,672.00 L713,673.00 L714,687.00 L715,363.00 L716,268.00 L717,605.00 L718,680.00 L719,654.00 L720,671.00 L721,673.00 L722,687.00 L723,693.00 L724,673.00 L725,687.00 L726,666.00 L727,686.00 L728,673.00 L729,672.00 L730,673.00 L731,598.00 L732,645.00 L733,652.00 L734,687.00 L735,680.00 L736,659.00 L737,680.00 L738,680.00 L739,1386.00 L740,583.00 L741,680.00 L742,652.00 L743,694.00 L744,645.00 L745,307.00 L746,192.00 L747,614.00 L748,660.00 L749,281.00 L750,2.00 L751,0.00 L752,0.00 L753,0.00 L754,0.00 L755,0.00 L756,0.00 L757,0.00 L758,0.00 L759,14.00 L760,0.00 L761,0.00 L762,0.00 L763,0.00 L764,0.00 L765,0.00 L766,0.00 L767,0.00 L768,0.00 L769,0.00 L770,457.00 L771,0.00 L772,0.00 L773,0.00 L774,0.00 L775,4427.00 L776,7629.70 L777,1399.00 L778,0.00 L779,0.00 L780,0.00 L781,0.00 L782,0.00 L783,0.00 L784,0.00 L785,0.00 L786,0.00 L787,0.00 L788,0.00 L789,4.00 L790,0.00 L791,0.00 L792,0.00 L793,0.00 L794,0.00 L795,0.00 L796,0.00 L797,0.00 L798,0.00 L799,0.00 L800,0.00 L801,0.00 L802,1.00 L803,0.00 L804,0.00 L805,0.00 L806,0.00 L807,5935.00 L808,719.00 L809,1027.00 L810,2127.00 L811,5947.00 L812,1012.00 L813,1338.00 L814,229.00 L815,346.00 L816,162.00 L817,105.00 L818,77.00 L819,152.00 L820,133.00 L821,195.00 L822,202.00 L823,367.00 L824,148.00 L825,170.00 L826,182.00 L827,338.00 L828,378.00 L829,0.00 L830,0.00 L831,0.00 L832,0.00 L833,186.00 L834,583.00 L835,643.00 L836,414.00 L837,299.00 L838,323.00 L839,314.00 L840,529.00 L841,261.00 L842,349.00 L843,270.00 L844,347.00 L845,290.00 L846,303.00 L847,322.00 L848,314.00 L849,454.00 L850,476.00 L851,339.00 L852,396.00 L853,251.00 L854,357.00 L855,248.00 L856,353.00 L857,263.00 L858,327.00 L859,329.00 L860,340.00 L861,286.00 L862,371.00 L863,314.00 L864,294.00 L865,327.00 L866,615.00 L867,517.00 L868,281.00 L869,589.00 L870,326.00 L871,205.00 L872,340.00 L873,326.00 L874,116.00 L875,0.00 L876,96.00 L877,351.00 L878,1148.00 L879,289.00 L880,275.00 L881,275.00 L882,246.00 L883,246.00 L884,382.00 L885,269.00 L886,693.00 L887,323.00 L888,720.00 L889,256.00 L890,268.00 L891,208.00 L892,287.00 L893,186.00 L894,215.00 L895,240.00 L896,214.00 L897,242.00 L898,303.00 L899,209.00 L900,278.00 L901,246.00 L902,270.00 L903,306.00 L904,267.00 L905,367.00 L906,395.00 L907,369.00 L908,427.00 L909,391.00 L910,425.00 L911,703.00 L912,1440.00 L913,348.00 L914,404.00 L915,180.00 L916,244.00 L917,306.00 L918,346.00 L919,332.00 L920,350.00 L921,366.00 L922,295.00 L923,361.00 L924,446.00 L925,350.00 L926,312.00 L927,258.00 L928,276.00 L929,343.00 L930,336.00 L931,320.00 L932,300.00 L933,358.00 L934,551.00 L935,469.00 L936,258.00 L937,212.00 L938,292.00 L939,614.00 L940,254.00 L941,459.00 L942,307.00 L943,237.00 L944,239.00 L945,265.00 L946,291.00 L947,239.00 L948,274.00 L949,264.00 L950,239.00 L951,261.00 L952,242.00 L953,922.00 L954,917.00 L955,318.00 L956,155.00 L957,217.00 L958,289.00 L959,242.00 L960,251.00 L961,412.00 L962,444.55 L963,236.00 L964,1136.00 L965,466.00 L966,191.00 L967,211.00 L968,208.00 L969,213.00 L970,259.00 L971,238.00 L972,264.00 L973,216.00 L974,250.00 L975,217.00 L976,263.00 L977,372.00 L978,551.00 L979,1645.00 L980,169.00 L981,214.00 L982,248.00 L983,302.00 L984,321.00 L985,308.00 L986,322.00 L987,355.00 L988,333.00 L989,225.00 L990,232.00 L991,294.00 L992,286.00 L993,256.00 L994,278.00 L995,348.00 L996,248.00 L997,252.00 L998,224.00 L999,379.00 L1000,412.00 L1001,389.00 L1002,357.00 L1003,393.00 L1004,494.00 L1005,988.00 L1006,610.00 L1007,403.00 L1008,433.00 L1009,493.00 L1010,532.00 L1011,377.00 L1012,411.00 L1013,336.00 L1014,378.00 L1015,339.00 L1016,368.00 L1017,378.00 L1018,346.00 L1019,524.00 L1020,293.00 L1021,410.00 L1022,411.00 L1023,365.00 L1024,406.00 L1025,267.00 L1026,363.00 L1027,365.00 L1028,340.00 L1029,319.00 L1030,335.00 L1031,332.00 L1032,311.00 L1033,323.00 L1034,275.00 L1035,279.00 L1036,359.00 L1037,343.00 L1038,376.00 L1039,457.00 L1040,435.00 L1041,547.00 L1042,547.00 L1043,296.00 L1044,340.00 L1045,301.00 L1046,292.00 L1047,329.00 L1048,342.00 L1049,324.00 L1050,323.00 L1051,313.00 L1052,372.00 L1053,323.00 L1054,378.00 L1055,430.00 L1056,315.00 L1057,277.00 L1058,339.00 L1059,375.00 L1060,388.00 L1061,277.00 L1062,337.00 L1063,417.00 L1064,456.00 L1065,451.00 L1066,305.00 L1067,433.00 L1068,455.00 L1069,459.00 L1070,381.00 L1071,0.00 L1072,0.00 L1073,0.00 L1074,0.00 L1075,0.00 L1076,0.00 L1077,0.00 L1078,0.00 L1079,0.00 L1080,0.00 L1081,0.00 L1082,0.00 L1083,0.00 L1084,0.00 L1085,0.00 L1086,0.00 L1087,0.00 L1088,0.00 L1089,0.00 L1090,0.00 L1091,0.00 L1092,5.00 L1093,0.00 L1094,0.00 L1095,0.00 L1096,0.00 L1097,0.00 L1098,0.00 L1099,0.00 L1100,0.00 L1101,1.00 L1102,0.00 L1103,0.00 L1104,0.00 L1105,0.00 L1106,0.00 L1107,0.00 L1108,0.00 L1109,0.00 L1110,0.00 L1111,18.00 L1112,116.00 L1113,0.00 L1114,0.00 L1115,0.00 L1116,0.00 L1117,0.00 L1118,0.00 L1119,0.00 L1120,0.00 L1121,0.00 L1122,0.00 L1123,0.00 L1124,0.00 L1125,0.00 L1126,0.00 L1127,0.00 L1128,0.00 L1129,0.00 L1130,0.00 L1131,0.00 L1132,0.00 L1133,0.00 L1134,0.00 L1135,0.00 L1136,0.00 L1137,210.00 L1138,0.00 L1139,0.00 L1140,0.00 L1141,19.00 L1142,3773.00 L1143,0.00 L1144,0.00 L1145,0.00 L1146,0.00 L1147,0.00 L1148,0.00 L1149,0.00 L1150,0.00 L1151,0.00 L1152,0.00 L1153,0.00 L1154,0.00 L1155,0.00 L1156,0.00 L1157,0.00 L1158,0.00 L1159,0.00 L1160,0.00 L1161,0.00 L1162,0.00 L1163,0.00 L1164,0.00 L1165,0.00 L1166,0.00 L1167,0.00 L1168,0.00 L1169,0.00 L1170,0.00 L1171,6.00 L1172,4130.00 L1173,0.00 L1174,0.00 L1175,0.00 L1176,0.00 L1177,0.00 L1178,0.00 L1179,0.00 L1180,0.00 L1181,0.00 L1182,0.00 L1183,0.00 L1184,0.00 L1185,0.00 L1186,0.00 L1187,0.00 L1188,0.00 L1189,0.00 L1190,0.00 L1191,0.00 L1192,0.00 L1193,0.00 L1194,0.00 L1195,0.00 L1196,0.00 L1197,0.00 L1198,0.00 L1199,0.00 L1200,0.00 L1201,0.00 L1202,337.00 L1203,3816.00 L1204,0.00 L1205,0.00 L1206,0.00 L1207,0.00 L1208,0.00 L1209,0.00 L1210,0.00 L1211,0.00 L1212,0.00 L1213,0.00 L1214,0.00 L1215,0.00 L1216,0.00 L1217,0.00 L1218,0.00 L1219,0.00 L1220,0.00 L1221,0.00 L1222,0.00 L1223,0.00 L1224,0.00 L1225,0.00 L1226,0.00 L1227,0.00 L1228,0.00 L1229,0.00 L1230,0.00 L1231,5.00 L1232,0.00 L1233,4105.00 L1234,0.00 L1235,0.00 L1236,0.00 L1237,0.00 L1238,1.00 L1239,0.00 L1240,0.00 L1241,1.00 L1242,0.00 L1243,0.00 L1244,3.00 L1245,0.00 L1246,0.00 L1247,0.00 L1248,0.00 L1249,0.00 L1250,0.00 L1251,0.00 L1252,0.00 L1253,0.00 L1254,0.00 L1255,0.00 L1256,0.00 L1257,0.00 L1258,0.00 L1259,0.00 L1260,0.00 L1261,4.00 L1262,0.00 L1263,568.00 L1264,3520.00 L1265,0.00 L1266,0.00 L1267,0.00 L1268,0.00 L1269,1.00 L1270,0.00 L1271,0.00 L1272,0.00 L1273,0.00 L1274,0.00 L1275,0.00 L1276,0.00 L1277,0.00 L1278,0.00 L1279,0.00 L1280,0.00 L1281,0.00 L1282,0.00 L1283,0.00 L1284,0.00 L1285,0.00 L1286,0.00 L1287,0.00 L1288,0.00 L1289,0.00 L1290,0.00 L1291,6.00 L1292,0.00 L1293,0.00 L1294,4042.00 L1295,0.00 L1296,0.00 L1297,0.00 L1298,0.00 L1299,0.00 L1300,0.00 L1301,0.00 L1302,0.00 L1303,0.00 L1304,1.00 L1305,0.00 L1306,0.00 L1307,0.00 L1308,0.00 L1309,0.00 L1310,0.00 L1311,0.00 L1312,0.00 L1313,0.00 L1314,0.00 L1315,0.00 L1316,0.00 L1317,0.00 L1318,0.00 L1319,0.00 L1320,0.00 L1321,4.00 L1322,0.00 L1323,0.00 L1324,938.00 L1325,3148.00 L1326,0.00 L1327,0.00 L1328,0.00 L1329,0.00 L1330,0.00 L1331,0.00 L1332,0.00 L1333,0.00 L1334,0.00 L1335,1.00 L1336,0.00 L1337,0.00 L1338,0.00 L1339,0.00 L1340,0.00 L1341,0.00 L1342,0.00 L1343,0.00 L1344,0.00 L1345,0.00 L1346,0.00 L1347,0.00 L1348,0.00 L1349,0.00 L1350,0.00 L1351,2.00 L1352,4.00 L1353,0.00 L1354,0.00 L1355,4097.00 L1356,0.00 L1357,0.00 L1358,0.00 L1359,0.00 L1360,0.00 L1361,0.00 L1362,0.00 L1363,0.00 L1364,0.00 L1365,0.00 L1366,0.00 L1367,0.00 L1368,1069.00 L1369,0.00 L1370,0.00 L1371,0.00 L1372,0.00 L1373,0.00 L1374,0.00 L1375,0.00 L1376,0.00 L1377,0.00 L1378,0.00 L1379,0.00 L1380,0.00 L1381,0.00 L1382,4.00 L1383,0.00 L1384,0.00 L1385,0.00 L1386,0.00 L1387,0.00 L1388,0.00 L1389,0.00 L1390,0.00 L1391,0.00 L1392,0.00 L1393,0.00 L1394,0.00 L1395,0.00 L1396,0.00 L1397,0.00 L1398,0.00 L1399,1.00 L1400,0.00 L1401,0.00 L1402,0.00 L1403,0.00 L1404,0.00 L1405,0.00 L1406,0.00 L1407,0.00 L1408,0.00 L1409,0.00 L1410,0.00 L1411,12.00 L1412,0.00 L1413,0.00 L1414,9139.00 L1415,3270.00 L1416,740.00 L1417,709.00 L1418,615.00 L1419,425.00 L1420,432.00 L1421,481.00 L1422,470.00 L1423,402.00 L1424,471.00 L1425,393.00 L1426,465.00 L1427,405.00 L1428,594.00 L1429,0.00 L1430,0.00 L1431,0.00 L1432,0.00 L1433,339.00 L1434,1798.00 L1435,387.00 L1436,572.00 L1437,415.00 L1438,517.00 L1439,552.00 L1440,504.00 L1441,326.00 L1442,514.00 L1443,303.00 L1444,335.00 L1445,459.00 L1446,224.00 L1447,504.00 L1448,271.00 L1449,274.00 L1450,345.00 L1451,339.00 L1452,261.00 L1453,0.00 L1454,0.00 L1455,0.00 L1456,0.00 L1457,900.00 L1458,327.00 L1459,329.00 L1460,353.00 L1461,325.00 L1462,328.00 L1463,384.00 L1464,432.00 L1465,419.00 L1466,585.00 L1467,446.00 L1468,548.00 L1469,511.00 L1470,350.00 L1471,339.00 L1472,392.00 L1473,325.00 L1474,341.00 L1475,444.00 L1476,338.00 L1477,311.00 L1478,378.00 L1479,307.00 L1480,306.00 L1481,341.00 L1482,166.00 L1483,0.00 L1484,0.00 L1485,0.00 L1486,0.00 L1487,551.00 L1488,379.00 L1489,366.00 L1490,379.00 L1491,415.00 L1492,451.00 L1493,765.00 L1494,559.00 L1495,400.00 L1496,384.00 L1497,490.00 L1498,430.00 L1499,440.00 L1500,449.00 L1501,443.00 L1502,448.00 L1503,695.00 L1504,208.00 L1505,283.00 L1506,362.00 L1507,400.00 L1508,356.00 L1509,355.00 L1510,355.00 L1511,327.00 L1512,319.00 L1513,290.00 L1514,339.00 L1515,357.00 L1516,372.00 L1517,322.00 L1518,383.00 L1519,388.00 L1520,293.00 L1521,325.00 L1522,330.00 L1523,0.00 L1524,0.00 L1525,0.00 L1526,0.00 L1527,232.00 L1528,429.00 L1529,441.00 L1530,404.00 L1531,356.00 L1532,415.00 L1533,412.00 L1534,426.00 L1535,425.00 L1536,505.00 L1537,440.00 L1538,466.00 L1539,336.00 L1540,463.00 L1541,407.00 L1542,614.00 L1543,626.00 L1544,475.00 L1545,380.00 L1546,310.00 L1547,288.00 L1548,431.00 L1549,400.00 L1550,338.00 L1551,346.00 L1552,322.00 L1553,311.00 L1554,372.00 L1555,312.00 L1556,305.00 L1557,333.00 L1558,422.00 L1559,361.00 L1560,319.00 L1561,333.00 L1562,348.00 L1563,339.00 L1564,288.00 L1565,397.00 L1566,386.00 L1567,347.00 L1568,286.00 L1569,250.00 L1570,283.00 L1571,284.00 L1572,282.00 L1573,305.00 L1574,296.00 L1575,347.00 L1576,280.00 L1577,353.00 L1578,360.00 L1579,298.00 L1580,279.00 L1581,286.00 L1582,273.00 L1583,289.00 L1584,291.00 L1585,730.00 L1586,290.00 L1587,265.00 L1588,252.00 L1589,251.00 L1590,288.00 L1591,414.85 L1592,307.00 L1593,1008.00 L1594,293.00 L1595,288.00 L1596,285.00 L1597,277.00 L1598,421.00 L1599,304.00 L1600,373.00 L1601,298.00 L1602,311.00 L1603,277.00 L1604,338.00 L1605,315.00 L1606,345.00 L1607,374.00 L1608,382.00 L1609,454.00 L1610,360.00 L1611,472.00 L1612,455.00 L1613,607.00 L1614,557.00 L1615,453.00 L1616,532.00 L1617,463.00 L1618,581.00 L1619,361.00 L1620,354.00 L1621,412.00 L1622,320.00 L1623,400.00 L1624,360.00 L1625,305.00 L1626,358.00 L1627,310.00 L1628,393.00 L1629,373.00 L1630,355.00 L1631,298.00 L1632,409.00 L1633,399.00 L1634,316.00 L1635,365.00" style="vector-effect: non-scaling-stroke; stroke: #00cc00; stroke-width: 1; fill-opacity: 0" transform="scale(0.440367,-0.021884)"/>
<path id="g11p1" d=" M1,0.00 L2,0.00 L3,3.00 L4,824.00 L5,749.00 L6,748.00 L7,720.00 L8,753.00 L9,755.00 L10,755.00 L11,742.00 L12,762.00 L13,749.00 L14,741.00 L15,755.00 L16,742.00 L17,694.00 L18,590.00 L19,728.00 L20,659.00 L21,666.00 L22,680.00 L23,652.00 L24,728.00 L25,742.00 L26,755.00 L27,742.00 L28,755.00 L29,748.00 L30,756.00 L31,741.00 L32,756.00 L33,741.00 L34,742.00 L35,755.00 L36,742.00 L37,361.00 L38,142.00 L39,190.00 L40,128.00 L41,150.00 L42,360.00 L43,749.00 L44,749.00 L45,762.00 L46,748.00 L47,742.00 L48,741.00 L49,742.00 L50,755.00 L51,749.00 L52,748.00 L53,734.00 L54,749.00 L55,749.00 L56,741.00 L57,749.00 L58,741.00 L59,728.00 L60,749.00 L61,727.00 L62,728.00 L63,708.00 L64,734.00 L65,749.00 L66,721.00 L67,755.00 L68,742.00 L69,734.00 L70,728.00 L71,749.00 L72,546.00 L73,449.00 L74,707.00 L75,735.00 L76,755.00 L77,742.00 L78,460.00 L79,184.00 L80,256.00 L81,391.00 L82,728.00 L83,721.00 L84,748.00 L85,728.00 L86,747.00 L87,736.00 L88,742.00 L89,748.00 L90,735.00 L91,735.00 L92,748.00 L93,735.00 L94,734.00 L95,708.00 L96,728.00 L97,721.00 L98,727.00 L99,748.51 L100,715.15 L101,748.00 L102,513.00 L103,407.00 L104,715.00 L105,734.00 L106,749.00 L107,714.00 L108,584.00 L109,128.00 L110,256.00 L111,405.00 L112,721.00 L113,728.00 L114,734.65 L115,734.34 L116,708.00 L117,741.00 L118,742.00 L119,707.00 L120,700.00 L121,715.00 L122,720.00 L123,756.00 L124,735.00 L125,727.00 L126,735.00 L127,720.79 L128,748.00 L129,728.00 L130,728.00 L131,721.00 L132,588.00 L133,298.00 L134,735.00 L135,741.00 L136,728.00 L137,728.00 L138,482.00 L139,127.00 L140,192.00 L141,551.00 L142,701.00 L143,735.00 L144,734.00 L145,728.00 L146,735.00 L147,735.00 L148,721.00 L149,734.00 L150,742.00 L151,707.00 L152,735.00 L153,734.00 L154,712.00 L155,737.00 L156,721.00 L157,721.00 L158,735.00 L159,714.00 L160,721.00 L161,748.00 L162,641.00 L163,335.00 L164,707.00 L165,734.00 L166,721.00 L167,728.00 L168,583.00 L169,210.00 L170,174.00 L171,462.00 L172,714.00 L173,721.00 L174,727.00 L175,715.00 L176,727.00 L177,721.00 L178,728.00 L179,707.00 L180,708.00 L181,741.00 L182,714.00 L183,721.00 L184,728.00 L185,707.00 L186,734.00 L187,715.00 L188,728.00 L189,707.00 L190,653.00 L191,721.00 L192,686.00 L193,294.00 L194,729.00 L195,742.00 L196,707.00 L197,735.00 L198,537.00 L199,256.00 L200,192.00 L201,416.00 L202,734.00 L203,715.00 L204,714.00 L205,700.00 L206,707.00 L207,721.00 L208,721.00 L209,714.00 L210,721.00 L211,708.00 L212,741.00 L213,701.00 L214,748.00 L215,693.00 L216,721.00 L217,715.00 L218,721.00 L219,727.00 L220,708.00 L221,741.00 L222,707.00 L223,728.00 L224,721.00 L225,701.00 L226,728.00 L227,707.00 L228,198.00 L229,804.00 L230,707.00 L231,721.00 L232,715.00 L233,588.00 L234,192.00 L235,128.00 L236,194.00 L237,621.00 L238,749.00 L239,700.00 L240,700.00 L241,708.00 L242,720.00 L243,715.00 L244,721.00 L245,686.00 L246,673.00 L247,495.00 L248,707.00 L249,680.00 L250,700.00 L251,714.00 L252,694.00 L253,734.00 L254,707.00 L255,687.00 L256,707.00 L257,714.00 L258,215.00 L259,658.00 L260,618.00 L261,720.00 L262,701.00 L263,663.00 L264,128.00 L265,192.00 L266,658.00 L267,704.00 L268,710.00 L269,715.00 L270,679.00 L271,721.00 L272,701.00 L273,707.00 L274,673.00 L275,707.00 L276,690.00 L277,711.00 L278,700.00 L279,735.00 L280,687.00 L281,679.00 L282,687.00 L283,714.00 L284,707.00 L285,694.00 L286,700.00 L287,701.00 L288,700.00 L289,707.00 L290,650.00 L291,593.00 L292,714.00 L293,694.00 L294,728.00 L295,693.00 L296,322.00 L297,192.00 L298,170.00 L299,724.00 L300,652.00 L301,707.00 L302,687.00 L303,714.00 L304,700.00 L305,728.00 L306,687.00 L307,735.00 L308,714.00 L309,700.00 L310,714.00 L311,714.00 L312,708.00 L313,727.00 L314,680.00 L315,694.00 L316,673.00 L317,679.00 L318,714.00 L319,680.00 L320,735.00 L321,201.00 L322,747.00 L323,700.00 L324,700.00 L325,701.00 L326,576.00 L327,128.00 L328,192.00 L329,745.00 L330,693.00 L331,728.00 L332,694.00 L333,686.00 L334,680.00 L335,673.00 L336,707.00 L337,666.00 L338,694.00 L339,693.00 L340,721.00 L341,701.00 L342,700.00 L343,728.00 L344,693.00 L345,694.00 L346,714.00 L347,707.00 L348,687.00 L349,700.00 L350,694.00 L351,378.00 L352,563.00 L353,694.00 L354,687.00 L355,727.00 L356,673.00 L357,296.00 L358,128.00 L359,469.00 L360,673.00 L361,693.00 L362,687.00 L363,687.00 L364,680.00 L365,700.00 L366,714.00 L367,687.00 L368,714.00 L369,686.00 L370,721.00 L371,701.00 L372,714.00 L373,700.00 L374,708.00 L375,714.00 L376,652.00 L377,680.00 L378,720.00 L379,694.00 L380,687.00 L381,495.00 L382,487.00 L383,686.00 L384,715.00 L385,693.00 L386,694.00 L387,410.00 L388,192.00 L389,407.00 L390,687.00 L391,721.00 L392,707.00 L393,707.00 L394,700.00 L395,715.00 L396,714.00 L397,700.00 L398,679.80 L399,721.00 L400,707.00 L401,714.00 L402,618.00 L403,714.00 L404,687.00 L405,693.00 L406,673.27 L407,701.01 L408,440.00 L409,514.00 L410,694.00 L411,686.00 L412,721.00 L413,694.00 L414,403.00 L415,128.00 L416,416.00 L417,742.00 L418,707.00 L419,714.00 L420,707.00 L421,680.00 L422,721.00 L423,666.00 L424,694.00 L425,673.00 L426,714.00 L427,707.00 L428,673.00 L429,687.00 L430,707.00 L431,687.00 L432,679.00 L433,714.00 L434,708.00 L435,693.00 L436,704.00 L437,711.00 L438,477.00 L439,484.00 L440,625.00 L441,652.00 L442,666.00 L443,701.00 L444,296.00 L445,132.00 L446,478.00 L447,721.00 L448,687.00 L449,672.00 L450,694.00 L451,693.00 L452,673.00 L453,680.20 L454,673.00 L455,666.00 L456,604.00 L457,611.00 L458,632.00 L459,687.00 L460,700.00 L461,680.00 L462,638.00 L463,687.00 L464,700.00 L465,687.00 L466,700.00 L467,716.00 L468,716.00 L469,680.00 L470,673.00 L471,728.00 L472,218.00 L473,756.00 L474,694.00 L475,680.00 L476,730.00 L477,657.00 L478,192.00 L479,230.00 L480,718.00 L481,679.00 L482,666.00 L483,646.00 L484,666.00 L485,700.00 L486,659.00 L487,673.00 L488,701.00 L489,693.00 L490,687.00 L491,680.00 L492,666.00 L493,707.00 L494,695.00 L495,692.00 L496,680.00 L497,645.00 L498,603.00 L499,434.00 L500,668.00 L501,657.00 L502,701.00 L503,679.00 L504,445.00 L505,192.00 L506,341.00 L507,719.00 L508,679.00 L509,707.00 L510,694.00 L511,687.00 L512,700.00 L513,694.00 L514,693.00 L515,707.00 L516,653.00 L517,659.00 L518,618.00 L519,650.00 L520,634.00 L521,680.00 L522,700.00 L523,673.00 L524,659.00 L525,632.00 L526,666.00 L527,686.00 L528,602.00 L529,401.00 L530,687.00 L531,721.00 L532,686.00 L533,701.00 L534,516.00 L535,194.00 L536,340.00 L537,714.00 L538,714.00 L539,694.00 L540,693.00 L541,666.00 L542,701.00 L543,700.00 L544,680.00 L545,693.00 L546,735.00 L547,701.00 L548,674.00 L549,733.00 L550,663.00 L551,704.00 L552,714.00 L553,700.00 L554,714.00 L555,707.00 L556,701.00 L557,707.00 L558,680.00 L559,687.00 L560,714.00 L561,714.00 L562,520.00 L563,462.00 L564,686.00 L565,687.00 L566,693.00 L567,701.00 L568,450.00 L569,128.00 L570,335.00 L571,694.00 L572,714.00 L573,693.00 L574,735.00 L575,687.00 L576,714.00 L577,721.00 L578,679.00 L579,708.00 L580,707.00 L581,721.00 L582,687.00 L583,700.00 L584,693.00 L585,715.00 L586,700.00 L587,693.00 L588,694.00 L589,330.00 L590,707.00 L591,721.00 L592,693.00 L593,701.00 L594,528.00 L595,178.00 L596,142.00 L597,772.00 L598,707.00 L599,687.00 L600,694.00 L601,693.00 L602,687.00 L603,693.00 L604,687.00 L605,673.00 L606,707.00 L607,687.00 L608,673.00 L609,707.00 L610,707.00 L611,694.00 L612,721.00 L613,686.00 L614,707.00 L615,708.00 L616,728.00 L617,693.00 L618,680.00 L619,707.00 L620,714.00 L621,687.00 L622,680.00 L623,282.00 L624,748.00 L625,707.00 L626,721.00 L627,686.00 L628,639.00 L629,242.00 L630,192.00 L631,570.00 L632,713.00 L633,707.00 L634,707.00 L635,707.00 L636,694.00 L637,714.00 L638,707.00 L639,701.00 L640,707.00 L641,673.00 L642,666.00 L643,714.00 L644,687.00 L645,714.00 L646,686.00 L647,714.00 L648,701.00 L649,666.00 L650,693.00 L651,714.00 L652,694.00 L653,397.00 L654,633.00 L655,687.00 L656,673.00 L657,687.00 L658,714.00 L659,262.00 L660,246.00 L661,460.00 L662,687.00 L663,694.00 L664,686.00 L665,694.00 L666,666.00 L667,686.00 L668,687.00 L669,700.00 L670,701.00 L671,687.00 L672,714.00 L673,692.00 L674,695.00 L675,714.00 L676,700.00 L677,707.00 L678,701.00 L679,217.00 L680,772.00 L681,686.00 L682,701.00 L683,700.00 L684,661.00 L685,142.00 L686,242.00 L687,603.00 L688,708.00 L689,693.00 L690,645.00 L691,591.00 L692,693.00 L693,721.00 L694,687.00 L695,638.00 L696,687.00 L697,693.00 L698,700.00 L699,701.00 L700,673.00 L701,646.00 L702,721.00 L703,672.00 L704,694.00 L705,680.00 L706,680.00 L707,693.00 L708,694.00 L709,412.00 L710,624.00 L711,660.00 L712,672.00 L713,673.00 L714,687.00 L715,363.00 L716,268.00 L717,605.00 L718,680.00 L719,654.00 L720,671.00 L721,673.00 L722,687.00 L723,693.00 L724,673.00 L725,687.00 L726,666.00 L727,686.00 L728,673.00 L729,666.00 L730,673.00 L731,598.00 L732,645.00 L733,652.00 L734,687.00 L735,680.00 L736,659.00 L737,680.00 L738,680.00 L739,412.00 L740,583.00 L741,680.00 L742,652.00 L743,694.00 L744,645.00 L745,307.00 L746,192.00 L747,614.00 L748,660.00 L749,1.00 L750,0.00 L751,0.00 L752,0.00 L753,0.00 L754,0.00 L755,0.00 L756,0.00 L757,0.00 L758,0.00 L759,0.00 L760,0.00 L761,0.00 L762,0.00 L763,0.00 L764,0.00 L765,0.00 L766,0.00 L767,0.00 L768,0.00 L769,0.00 L770,0.00 L771,0.00 L772,0.00 L773,0.00 L774,0.00 L775,0.00 L776,0.00 L777,0.00 L778,0.00 L779,0.00 L780,0.00 L781,0.00 L782,0.00 L783,0.00 L784,0.00 L785,0.00 L786,0.00 L787,0.00 L788,0.00 L789,0.00 L790,0.00 L791,0.00 L792,0.00 L793,0.00 L794,0.00 L795,0.00 L796,0.00 L797,0.00 L798,0.00 L799,0.00 L800,0.00 L801,0.00 L802,0.00 L803,0.00 L804,0.00 L805,0.00 L806,0.00 L807,0.00 L808,0.00 L809,0.00 L810,0.00 L811,0.00 L812,0.00 L813,0.00 L814,0.00 L815,0.00 L816,0.00 L817,0.00 L818,0.00 L819,0.00 L820,0.00 L821,0.00 L822,0.00 L823,0.00 L824,0.00 L825,0.00 L826,0.00 L827,0.00 L828,0.00 L829,0.00 L830,0.00 L831,0.00 L832,0.00 L833,0.00 L834,0.00 L835,0.00 L836,0.00 L837,0.00 L838,0.00 L839,0.00 L840,0.00 L841,0.00 L842,0.00 L843,0.00 L844,0.00 L845,0.00 L846,0.00 L847,0.00 L848,0.00 L849,0.00 L850,0.00 L851,0.00 L852,0.00 L853,0.00 L854,0.00 L855,0.00 L856,0.00 L857,0.00 L858,0.00 L859,0.00 L860,0.00 L861,0.00 L862,0.00 L863,0.00 L864,0.00 L865,0.00 L866,0.00 L867,0.00 L868,0.00 L869,0.00 L870,0.00 L871,0.00 L872,0.00 L873,0.00 L874,0.00 L875,0.00 L876,0.00 L877,0.00 L878,0.00 L879,0.00 L880,0.00 L881,0.00 L882,0.00 L883,0.00 L884,0.00 L885,0.00 L886,0.00 L887,0.00 L888,0.00 L889,0.00 L890,0.00 L891,0.00 L892,0.00 L893,0.00 L894,0.00 L895,0.00 L896,0.00 L897,0.00 L898,0.00 L899,0.00 L900,0.00 L901,0.00 L902,0.00 L903,0.00 L904,0.00 L905,0.00 L906,0.00 L907,0.00 L908,0.00 L909,0.00 L910,0.00 L911,0.00 L912,0.00 L913,0.00 L914,0.00 L915,0.00 L916,0.00 L917,0.00 L918,0.00 L919,0.00 L920,0.00 L921,0.00 L922,0.00 L923,0.00 L924,0.00 L925,0.00 L926,0.00 L927,0.00 L928,0.00 L929,0.00 L930,0.00 L931,0.00 L932,0.00 L933,0.00 L934,0.00 L935,0.00 L936,0.00 L937,0.00 L938,0.00 L939,0.00 L940,0.00 L941,0.00 L942,0.00 L943,0.00 L944,0.00 L945,0.00 L946,0.00 L947,0.00 L948,0.00 L949,0.00 L950,0.00 L951,0.00 L952,0.00 L953,0.00 L954,0.00 L955,0.00 L956,0.00 L957,0.00 L958,0.00 L959,0.00 L960,0.00 L961,0.00 L962,0.00 L963,0.00 L964,0.00 L965,0.00 L966,0.00 L967,0.00 L968,0.00 L969,0.00 L970,0.00 L971,0.00 L972,0.00 L973,0.00 L974,0.00 L975,0.00 L976,0.00 L977,0.00 L978,0.00 L979,0.00 L980,0.00 L981,0.00 L982,0.00 L983,0.00 L984,0.00 L985,0.00 L986,0.00 L987,0.00 L988,0.00 L989,0.00 L990,0.00 L991,0.00 L992,0.00 L993,0.00 L994,0.00 L995,0.00 L996,0.00 L997,0.00 L998,0.00 L999,0.00 L1000,0.00 L1001,0.00 L1002,0.00 L1003,0.00 L1004,0.00 L1005,0.00 L1006,0.00 L1007,0.00 L1008,0.00 L1009,0.00 L1010,0.00 L1011,0.00 L1012,0.00 L1013,0.00 L1014,0.00 L1015,0.00 L1016,0.00 L1017,0.00 L1018,0.00 L1019,0.00 L1020,0.00 L1021,0.00 L1022,0.00 L1023,0.00 L1024,0.00 L1025,0.00 L1026,0.00 L1027,0.00 L1028,0.00 L1029,0.00 L1030,0.00 L1031,0.00 L1032,0.00 L1033,0.00 L1034,0.00 L1035,0.00 L1036,0.00 L1037,0.00 L1038,0.00 L1039,0.00 L1040,0.00 L1041,0.00 L1042,0.00 L1043,0.00 L1044,0.00 L1045,0.00 L1046,0.00 L1047,0.00 L1048,0.00 L1049,0.00 L1050,0.00 L1051,0.00 L1052,0.00 L1053,0.00 L1054,0.00 L1055,0.00 L1056,0.00 L1057,0.00 L1058,0.00 L1059,0.00 L1060,0.00 L1061,0.00 L1062,0.00 L1063,0.00 L1064,0.00 L1065,0.00 L1066,0.00 L1067,0.00 L1068,0.00 L1069,0.00 L1070,0.00 L1071,0.00 L1072,0.00 L1073,0.00 L1074,0.00 L1075,0.00 L1076,0.00 L1077,0.00 L1078,0.00 L1079,0.00 L1080,0.00 L1081,0.00 L1082,0.00 L1083,0.00 L1084,0.00 L1085,0.00 L1086,0.00 L1087,0.00 L1088,0.00 L1089,0.00 L1090,0.00 L1091,0.00 L1092,0.00 L1093,0.00 L1094,0.00 L1095,0.00 L1096,0.00 L1097,0.00 L1098,0.00 L1099,0.00 L1100,0.00 L1101,0.00 L1102,0.00 L1103,0.00 L1104,0.00 L1105,0.00 L1106,0.00 L1107,0.00 L1108,0.00 L1109,0.00 L1110,0.00 L1111,2.00 L1112,0.00 L1113,0.00 L1114,0.00 L1115,0.00 L1116,0.00 L1117,0.00 L1118,0.00 L1119,0.00 L1120,0.00 L1121,0.00 L1122,0.00 L1123,0.00 L1124,0.00 L1125,0.00 L1126,0.00 L1127,0.00 L1128,0.00 L1129,0.00 L1130,0.00 L1131,0.00 L1132,0.00 L1133,0.00 L1134,0.00 L1135,0.00 L1136,0.00 L1137,0.00 L1138,0.00 L1139,0.00 L1140,0.00 L1141,0.00 L1142,0.00 L1143,0.00 L1144,0.00 L1145,0.00 L1146,0.00 L1147,0.00 L1148,0.00 L1149,0.00 L1150,0.00 L1151,0.00 L1152,0.00 L1153,0.00 L1154,0.00 L1155,0.00 L1156,0.00 L1157,0.00 L1158,0.00 L1159,0.00 L1160,0.00 L1161,0.00 L1162,0.00 L1163,0.00 L1164,0.00 L1165,0.00 L1166,0.00 L1167,0.00 L1168,0.00 L1169,0.00 L1170,0.00 L1171,0.00 L1172,0.00 L1173,0.00 L1174,0.00 L1175,0.00 L1176,0.00 L1177,0.00 L1178,0.00 L1179,0.00 L1180,0.00 L1181,0.00 L1182,0.00 L1183,0.00 L1184,0.00 L1185,0.00 L1186,0.00 L1187,0.00 L1188,0.00 L1189,0.00 L1190,0.00 L1191,0.00 L1192,0.00 L1193,0.00 L1194,0.00 L1195,0.00 L1196,0.00 L1197,0.00 L1198,0.00 L1199,0.00 L1200,0.00 L1201,0.00 L1202,0.00 L1203,0.00 L1204,0.00 L1205,0.00 L1206,0.00 L1207,0.00 L1208,0.00 L1209,0.00 L1210,0.00 L1211,0.00 L1212,0.00 L1213,0.00 L1214,0.00 L1215,0.00 L1216,0.00 L1217,0.00 L1218,0.00 L1219,0.00 L1220,0.00 L1221,0.00 L1222,0.00 L1223,0.00 L1224,0.00 L1225,0.00 L1226,0.00 L1227,0.00 L1228,0.00 L1229,0.00 L1230,0.00 L1231,0.00 L1232,0.00 L1233,0.00 L1234,0.00 L1235,0.00 L1236,0.00 L1237,0.00 L1238,0.00 L1239,0.00 L1240,0.00 L1241,0.00 L1242,0.00 L1243,0.00 L1244,0.00 L1245,0.00 L1246,0.00 L1247,0.00 L1248,0.00 L1249,0.00 L1250,0.00 L1251,0.00 L1252,0.00 L1253,0.00 L1254,0.00 L1255,0.00 L1256,0.00 L1257,0.00 L1258,0.00 L1259,0.00 L1260,0.00 L1261,0.00 L1262,0.00 L1263,0.00 L1264,0.00 L1265,0.00 L1266,0.00 L1267,0.00 L1268,0.00 L1269,0.00 L1270,0.00 L1271,0.00 L1272,0.00 L1273,0.00 L1274,0.00 L1275,0.00 L1276,0.00 L1277,0.00 L1278,0.00 L1279,0.00 L1280,0.00 L1281,0.00 L1282,0.00 L1283,0.00 L1284,0.00 L1285,0.00 L1286,0.00 L1287,0.00 L1288,0.00 L1289,0.00 L1290,0.00 L1291,0.00 L1292,0.00 L1293,0.00 L1294,0.00 L1295,0.00 L1296,0.00 L1297,0.00 L1298,0.00 L1299,0.00 L1300,0.00 L1301,0.00 L1302,0.00 L1303,0.00 L1304,0.00 L1305,0.00 L1306,0.00 L1307,0.00 L1308,0.00 L1309,0.00 L1310,0.00 L1311,0.00 L1312,0.00 L1313,0.00 L1314,0.00 L1315,0.00 L1316,0.00 L1317,0.00 L1318,0.00 L1319,0.00 L1320,0.00 L1321,0.00 L1322,0.00 L1323,0.00 L1324,0.00 L1325,0.00 L1326,0.00 L1327,0.00 L1328,0.00 L1329,0.00 L1330,0.00 L1331,0.00 L1332,0.00 L1333,0.00 L1334,0.00 L1335,0.00 L1336,0.00 L1337,0.00 L1338,0.00 L1339,0.00 L1340,0.00 L1341,0.00 L1342,0.00 L1343,0.00 L1344,0.00 L1345,0.00 L1346,0.00 L1347,0.00 L1348,0.00 L1349,0.00 L1350,0.00 L1351,0.00 L1352,0.00 L1353,0.00 L1354,0.00 L1355,0.00 L1356,0.00 L1357,0.00 L1358,0.00 L1359,0.00 L1360,0.00 L1361,0.00 L1362,0.00 L1363,0.00 L1364,0.00 L1365,0.00 L1366,0.00 L1367,0.00 L1368,0.00 L1369,0.00 L1370,0.00 L1371,0.00 L1372,0.00 L1373,0.00 L1374,0.00 L1375,0.00 L1376,0.00 L1377,0.00 L1378,0.00 L1379,0.00 L1380,0.00 L1381,0.00 L1382,0.00 L1383,0.00 L1384,0.00 L1385,0.00 L1386,0.00 L1387,0.00 L1388,0.00 L1389,0.00 L1390,0.00 L1391,0.00 L1392,0.00 L1393,0.00 L1394,0.00 L1395,0.00 L1396,0.00 L1397,0.00 L1398,0.00 L1399,0.00 L1400,0.00 L1401,0.00 L1402,0.00 L1403,0.00 L1404,0.00 L1405,0.00 L1406,0.00 L1407,0.00 L1408,0.00 L1409,0.00 L1410,0.00 L1411,0.00 L1412,0.00 L1413,0.00 L1414,0.00 L1415,0.00 L1416,0.00 L1417,0.00 L1418,0.00 L1419,0.00 L1420,0.00 L1421,0.00 L1422,0.00 L1423,0.00 L1424,0.00 L1425,0.00 L1426,0.00 L1427,0.00 L1428,0.00 L1429,0.00 L1430,0.00 L1431,0.00 L1432,0.00 L1433,0.00 L1434,0.00 L1435,0.00 L1436,0.00 L1437,0.00 L1438,0.00 L1439,0.00 L1440,0.00 L1441,0.00 L1442,0.00 L1443,0.00 L1444,0.00 L1445,0.00 L1446,0.00 L1447,0.00 L1448,0.00 L1449,0.00 L1450,0.00 L1451,0.00 L1452,0.00 L1453,0.00 L1454,0.00 L1455,0.00 L1456,0.00 L1457,0.00 L1458,0.00 L1459,0.00 L1460,0.00 L1461,0.00 L1462,0.00 L1463,0.00 L1464,0.00 L1465,0.00 L1466,0.00 L1467,0.00 L1468,0.00 L1469,0.00 L1470,0.00 L1471,0.00 L1472,0.00 L1473,0.00 L1474,0.00 L1475,0.00 L1476,0.00 L1477,0.00 L1478,0.00 L1479,0.00 L1480,0.00 L1481,0.00 L1482,0.00 L1483,0.00 L1484,0.00 L1485,0.00 L1486,0.00 L1487,0.00 L1488,0.00 L1489,0.00 L1490,0.00 L1491,0.00 L1492,0.00 L1493,0.00 L1494,0.00 L1495,0.00 L1496,0.00 L1497,0.00 L1498,0.00 L1499,0.00 L1500,0.00 L1501,0.00 L1502,0.00 L1503,0.00 L1504,0.00 L1505,0.00 L1506,0.00 L1507,0.00 L1508,0.00 L1509,0.00 L1510,0.00 L1511,0.00 L1512,0.00 L1513,0.00 L1514,0.00 L1515,0.00 L1516,0.00 L1517,0.00 L1518,0.00 L1519,0.00 L1520,0.00 L1521,0.00 L1522,0.00 L1523,0.00 L1524,0.00 L1525,0.00 L1526,0.00 L1527,0.00 L1528,0.00 L1529,0.00 L1530,0.00 L1531,0.00 L1532,0.00 L1533,0.00 L1534,0.00 L1535,0.00 L1536,0.00 L1537,0.00 L1538,0.00 L1539,0.00 L1540,0.00 L1541,0.00 L1542,0.00 L1543,0.00 L1544,0.00 L1545,0.00 L1546,0.00 L1547,0.00 L1548,0.00 L1549,0.00 L1550,0.00 L1551,0.00 L1552,0.00 L1553,0.00 L1554,0.00 L1555,0.00 L1556,0.00 L1557,0.00 L1558,0.00 L1559,0.00 L1560,0.00 L1561,0.00 L1562,0.00 L1563,0.00 L1564,0.00 L1565,0.00 L1566,0.00 L1567,0.00 L1568,0.00 L1569,0.00 L1570,0.00 L1571,0.00 L1572,0.00 L1573,0.00 L1574,0.00 L1575,0.00 L1576,0.00 L1577,0.00 L1578,0.00 L1579,0.00 L1580,0.00 L1581,0.00 L1582,0.00 L1583,0.00 L1584,0.00 L1585,0.00 L1586,0.00 L1587,0.00 L1588,0.00 L1589,0.00 L1590,0.00 L1591,0.00 L1592,0.00 L1593,0.00 L1594,0.00 L1595,0.00 L1596,0.00 L1597,0.00 L1598,0.00 L1599,0.00 L1600,0.00 L1601,0.00 L1602,0.00 L1603,0.00 L1604,0.00 L1605,0.00 L1606,0.00 L1607,0.00 L1608,0.00 L1609,0.00 L1610,0.00 L1611,0.00 L1612,0.00 L1613,0.00 L1614,0.00 L1615,0.00 L1616,0.00 L1617,0.00 L1618,0.00 L1619,0.00 L1620,0.00 L1621,0.00 L1622,0.00 L1623,0.00 L1624,0.00 L1625,0.00 L1626,0.00 L1627,0.00 L1628,0.00 L1629,0.00 L1630,0.00 L1631,0.00 L1632,0.00 L1633,1.00 L1634,0.00 L1635,0.00" style="vector-effect: non-scaling-stroke; stroke: #ff00bf; stroke-width: 1; fill-opacity: 0" transform="scale(0.440367,-0.021884)"/>
<path id="g11p2" d=" M1,0.00 L2,0.00 L3,13.00 L4,0.00 L5,0.00 L6,0.00 L7,200.00 L8,1.00 L9,0.00 L10,0.00 L11,0.00 L12,0.00 L13,0.00 L14,0.00 L15,0.00 L16,0.00 L17,2.00 L18,0.00 L19,0.00 L20,0.00 L21,0.00 L22,42.00 L23,0.00 L24,0.00 L25,0.00 L26,0.00 L27,14.00 L28,0.00 L29,0.00 L30,0.00 L31,0.00 L32,123.00 L33,0.00 L34,0.00 L35,0.00 L36,0.00 L37,224.00 L38,813.00 L39,542.00 L40,0.00 L41,1.00 L42,2.00 L43,0.00 L44,0.00 L45,0.00 L46,0.00 L47,0.00 L48,0.00 L49,0.00 L50,0.00 L51,0.00 L52,0.00 L53,0.00 L54,0.00 L55,0.00 L56,0.00 L57,0.00 L58,0.00 L59,0.00 L60,0.00 L61,0.00 L62,0.00 L63,0.00 L64,2.00 L65,0.00 L66,0.00 L67,27.00 L68,2.00 L69,1350.00 L70,0.00 L71,0.00 L72,0.00 L73,0.00 L74,0.00 L75,0.00 L76,0.00 L77,0.00 L78,0.00 L79,0.00 L80,0.00 L81,0.00 L82,0.00 L83,0.00 L84,0.00 L85,0.00 L86,0.00 L87,0.00 L88,0.00 L89,0.00 L90,0.00 L91,0.00 L92,0.00 L93,0.00 L94,0.00 L95,0.00 L96,0.00 L97,7.00 L98,2.00 L99,1304.95 L100,0.00 L101,0.00 L102,0.00 L103,0.00 L104,0.00 L105,0.00 L106,0.00 L107,0.00 L108,0.00 L109,0.00 L110,0.00 L111,0.00 L112,0.00 L113,0.00 L114,0.00 L115,0.00 L116,0.00 L117,0.00 L118,0.00 L119,0.00 L120,0.00 L121,0.00 L122,0.00 L123,0.00 L124,0.00 L125,0.00 L126,0.00 L127,3.96 L128,0.00 L129,1291.00 L130,0.00 L131,0.00 L132,0.00 L133,0.00 L134,2.00 L135,0.00 L136,0.00 L137,0.00 L138,0.00 L139,0.00 L140,0.00 L141,0.00 L142,0.00 L143,0.00 L144,0.00 L145,0.00 L146,0.00 L147,0.00 L148,0.00 L149,0.00 L150,0.00 L151,0.00 L152,0.00 L153,0.00 L154,0.00 L155,0.00 L156,0.00 L157,6.00 L158,0.00 L159,770.00 L160,485.00 L161,0.00 L162,0.00 L163,0.00 L164,0.00 L165,1.00 L166,0.00 L167,0.00 L168,0.00 L169,0.00 L170,0.00 L171,0.00 L172,0.00 L173,0.00 L174,0.00 L175,0.00 L176,0.00 L177,0.00 L178,0.00 L179,0.00 L180,0.00 L181,0.00 L182,0.00 L183,0.00 L184,0.00 L185,0.00 L186,0.00 L187,6.00 L188,0.00 L189,0.00 L190,1217.00 L191,0.00 L192,0.00 L193,0.00 L194,0.00 L195,0.00 L196,0.00 L197,0.00 L198,0.00 L199,0.00 L200,1.00 L201,0.00 L202,0.00 L203,0.00 L204,0.00 L205,0.00 L206,0.00 L207,0.00 L208,0.00 L209,0.00 L210,0.00 L211,0.00 L212,0.00 L213,0.00 L214,0.00 L215,0.00 L216,0.00 L217,2.00 L218,2.00 L219,0.00 L220,0.00 L221,0.00 L222,0.00 L223,0.00 L224,0.00 L225,1418.00 L226,0.00 L227,0.00 L228,0.00 L229,0.00 L230,0.00 L231,0.00 L232,0.00 L233,0.00 L234,0.00 L235,1.00 L236,0.00 L237,0.00 L238,0.00 L239,0.00 L240,0.00 L241,0.00 L242,0.00 L243,0.00 L244,0.00 L245,0.00 L246,0.00 L247,0.00 L248,4.00 L249,0.00 L250,0.00 L251,0.00 L252,0.00 L253,0.00 L254,0.00 L255,1072.00 L256,0.00 L257,0.00 L258,0.00 L259,0.00 L260,0.00 L261,0.00 L262,0.00 L263,0.00 L264,0.00 L265,0.00 L266,0.00 L267,0.00 L268,0.00 L269,0.00 L270,2.00 L271,0.00 L272,0.00 L273,0.00 L274,0.00 L275,0.00 L276,0.00 L277,0.00 L278,6.00 L279,0.00 L280,0.00 L281,0.00 L282,0.00 L283,0.00 L284,0.00 L285,1055.00 L286,0.00 L287,0.00 L288,0.00 L289,0.00 L290,0.00 L291,0.00 L292,0.00 L293,0.00 L294,0.00 L295,0.00 L296,0.00 L297,0.00 L298,0.00 L299,0.00 L300,1.00 L301,0.00 L302,0.00 L303,0.00 L304,0.00 L305,0.00 L306,0.00 L307,0.00 L308,4.00 L309,0.00 L310,0.00 L311,0.00 L312,0.00 L313,0.00 L314,0.00 L315,0.00 L316,1070.00 L317,0.00 L318,0.00 L319,0.00 L320,0.00 L321,0.00 L322,0.00 L323,0.00 L324,0.00 L325,0.00 L326,0.00 L327,0.00 L328,0.00 L329,0.00 L330,0.00 L331,1.00 L332,0.00 L333,0.00 L334,0.00 L335,0.00 L336,0.00 L337,0.00 L338,11.00 L339,0.00 L340,0.00 L341,0.00 L342,0.00 L343,0.00 L344,0.00 L345,0.00 L346,1052.00 L347,0.00 L348,0.00 L349,0.00 L350,0.00 L351,0.00 L352,0.00 L353,0.00 L354,0.00 L355,0.00 L356,0.00 L357,0.00 L358,0.00 L359,0.00 L360,0.00 L361,0.00 L362,0.00 L363,0.00 L364,0.00 L365,0.00 L366,1.00 L367,0.00 L368,4.00 L369,0.00 L370,0.00 L371,0.00 L372,0.00 L373,0.00 L374,0.00 L375,0.00 L376,1049.00 L377,0.00 L378,0.00 L379,0.00 L380,0.00 L381,0.00 L382,0.00 L383,0.00 L384,0.00 L385,0.00 L386,0.00 L387,0.00 L388,0.00 L389,0.00 L390,0.00 L391,0.00 L392,0.00 L393,0.00 L394,0.00 L395,0.00 L396,0.00 L397,0.00 L398,4.04 L399,0.00 L400,0.00 L401,1.00 L402,0.00 L403,0.00 L404,0.00 L405,0.00 L406,1035.64 L407,0.00 L408,0.00 L409,0.00 L410,0.00 L411,0.00 L412,0.00 L413,0.00 L414,0.00 L415,0.00 L416,0.00 L417,0.00 L418,0.00 L419,0.00 L420,0.00 L421,0.00 L422,0.00 L423,0.00 L424,0.00 L425,0.00 L426,0.00 L427,0.00 L428,4.00 L429,0.00 L430,0.00 L431,0.00 L432,0.00 L433,0.00 L434,0.00 L435,0.00 L436,698.00 L437,363.00 L438,0.00 L439,0.00 L440,0.00 L441,0.00 L442,0.00 L443,0.00 L444,0.00 L445,0.00 L446,0.00 L447,3.00 L448,0.00 L449,0.00 L450,0.00 L451,0.00 L452,0.00 L453,0.00 L454,0.00 L455,0.00 L456,0.00 L457,0.00 L458,4.00 L459,0.00 L460,0.00 L461,0.00 L462,0.00 L463,0.00 L464,0.00 L465,0.00 L466,0.00 L467,955.00 L468,0.00 L469,0.00 L470,0.00 L471,0.00 L472,0.00 L473,0.00 L474,0.00 L475,0.00 L476,0.00 L477,0.00 L478,0.00 L479,0.00 L480,0.00 L481,0.00 L482,0.00 L483,0.00 L484,0.00 L485,0.00 L486,0.00 L487,0.00 L488,7.00 L489,0.00 L490,0.00 L491,0.00 L492,0.00 L493,0.00 L494,0.00 L495,0.00 L496,0.00 L497,1020.00 L498,0.00 L499,0.00 L500,0.00 L501,0.00 L502,6.00 L503,0.00 L504,0.00 L505,0.00 L506,0.00 L507,0.00 L508,0.00 L509,0.00 L510,0.00 L511,0.00 L512,0.00 L513,0.00 L514,0.00 L515,0.00 L516,0.00 L517,0.00 L518,16.00 L519,0.00 L520,0.00 L521,0.00 L522,0.00 L523,0.00 L524,0.00 L525,0.00 L526,0.00 L527,969.00 L528,0.00 L529,0.00 L530,0.00 L531,0.00 L532,0.00 L533,0.00 L534,0.00 L535,0.00 L536,0.00 L537,2.00 L538,0.00 L539,0.00 L540,0.00 L541,0.00 L542,0.00 L543,0.00 L544,0.00 L545,0.00 L546,0.00 L547,0.00 L548,10.00 L549,0.00 L550,0.00 L551,0.00 L552,0.00 L553,0.00 L554,0.00 L555,0.00 L556,0.00 L557,969.00 L558,97.00 L559,0.00 L560,0.00 L561,0.00 L562,0.00 L563,0.00 L564,0.00 L565,0.00 L566,0.00 L567,0.00 L568,1.00 L569,0.00 L570,0.00 L571,0.00 L572,0.00 L573,0.00 L574,0.00 L575,0.00 L576,0.00 L577,0.00 L578,5.00 L579,1.00 L580,0.00 L581,0.00 L582,0.00 L583,0.00 L584,0.00 L585,0.00 L586,0.00 L587,0.00 L588,1048.00 L589,0.00 L590,0.00 L591,0.00 L592,0.00 L593,0.00 L594,0.00 L595,0.00 L596,0.00 L597,0.00 L598,0.00 L599,0.00 L600,0.00 L601,0.00 L602,0.00 L603,1.00 L604,0.00 L605,0.00 L606,0.00 L607,0.00 L608,0.00 L609,4.00 L610,0.00 L611,0.00 L612,0.00 L613,0.00 L614,0.00 L615,0.00 L616,0.00 L617,0.00 L618,1034.00 L619,0.00 L620,0.00 L621,0.00 L622,0.00 L623,0.00 L624,0.00 L625,0.00 L626,0.00 L627,0.00 L628,0.00 L629,0.00 L630,0.00 L631,0.00 L632,0.00 L633,0.00 L634,0.00 L635,0.00 L636,0.00 L637,0.00 L638,1.00 L639,7.00 L640,0.00 L641,0.00 L642,0.00 L643,0.00 L644,0.00 L645,0.00 L646,0.00 L647,0.00 L648,1047.00 L649,0.00 L650,0.00 L651,0.00 L652,0.00 L653,0.00 L654,0.00 L655,0.00 L656,0.00 L657,0.00 L658,0.00 L659,0.00 L660,0.00 L661,0.00 L662,0.00 L663,0.00 L664,0.00 L665,0.00 L666,0.00 L667,0.00 L668,0.00 L669,4.00 L670,0.00 L671,0.00 L672,0.00 L673,1.00 L674,0.00 L675,0.00 L676,0.00 L677,0.00 L678,1022.00 L679,0.00 L680,0.00 L681,0.00 L682,0.00 L683,0.00 L684,0.00 L685,0.00 L686,0.00 L687,0.00 L688,0.00 L689,0.00 L690,0.00 L691,0.00 L692,0.00 L693,0.00 L694,0.00 L695,0.00 L696,0.00 L697,0.00 L698,0.00 L699,4.00 L700,0.00 L701,0.00 L702,0.00 L703,0.00 L704,0.00 L705,0.00 L706,0.00 L707,0.00 L708,993.00 L709,0.00 L710,0.00 L711,0.00 L712,0.00 L713,0.00 L714,0.00 L715,0.00 L716,0.00 L717,0.00 L718,0.00 L719,0.00 L720,0.00 L721,0.00 L722,0.00 L723,0.00 L724,0.00 L725,0.00 L726,0.00 L727,0.00 L728,0.00 L729,6.00 L730,0.00 L731,0.00 L732,0.00 L733,0.00 L734,0.00 L735,0.00 L736,0.00 L737,0.00 L738,0.00 L739,974.00 L740,0.00 L741,0.00 L742,0.00 L743,0.00 L744,0.00 L745,0.00 L746,0.00 L747,0.00 L748,0.00 L749,280.00 L750,2.00 L751,0.00 L752,0.00 L753,0.00 L754,0.00 L755,0.00 L756,0.00 L757,0.00 L758,0.00 L759,14.00 L760,0.00 L761,0.00 L762,0.00 L763,0.00 L764,0.00 L765,0.00 L766,0.00 L767,0.00 L768,0.00 L769,0.00 L770,457.00 L771,0.00 L772,0.00 L773,0.00 L774,0.00 L775,4427.00 L776,7629.70 L777,1399.00 L778,0.00 L779,0.00 L780,0.00 L781,0.00 L782,0.00 L783,0.00 L784,0.00 L785,0.00 L786,0.00 L787,0.00 L788,0.00 L789,4.00 L790,0.00 L791,0.00 L792,0.00 L793,0.00 L794,0.00 L795,0.00 L796,0.00 L797,0.00 L798,0.00 L799,0.00 L800,0.00 L801,0.00 L802,1.00 L803,0.00 L804,0.00 L805,0.00 L806,0.00 L807,5935.00 L808,719.00 L809,1027.00 L810,2127.00 L811,5947.00 L812,1012.00 L813,1338.00 L814,229.00 L815,346.00 L816,162.00 L817,105.00 L818,77.00 L819,152.00 L820,133.00 L821,195.00 L822,202.00 L823,367.00 L824,148.00 L825,170.00 L826,182.00 L827,338.00 L828,378.00 L829,0.00 L830,0.00 L831,0.00 L832,0.00 L833,186.00 L834,583.00 L835,643.00 L836,414.00 L837,299.00 L838,323.00 L839,314.00 L840,529.00 L841,261.00 L842,349.00 L843,270.00 L844,347.00 L845,290.00 L846,303.00 L847,322.00 L848,314.00 L849,454.00 L850,476.00 L851,339.00 L852,396.00 L853,251.00 L854,357.00 L855,248.00 L856,353.00 L857,263.00 L858,327.00 L859,329.00 L860,340.00 L861,286.00 L862,371.00 L863,314.00 L864,294.00 L865,327.00 L866,615.00 L867,517.00 L868,281.00 L869,589.00 L870,326.00 L871,205.00 L872,340.00 L873,326.00 L874,116.00 L875,0.00 L876,96.00 L877,351.00 L878,1148.00 L879,289.00 L880,275.00 L881,275.00 L882,246.00 L883,246.00 L884,382.00 L885,269.00 L886,693.00 L887,323.00 L888,720.00 L889,256.00 L890,268.00 L891,208.00 L892,287.00 L893,186.00 L894,215.00 L895,240.00 L896,214.00 L897,242.00 L898,303.00 L899,209.00 L900,278.00 L901,246.00 L902,270.00 L903,306.00 L904,267.00 L905,367.00 L906,395.00 L907,369.00 L908,427.00 L909,391.00 L910,425.00 L911,703.00 L912,1440.00 L913,348.00 L914,404.00 L915,180.00 L916,244.00 L917,306.00 L918,346.00 L919,332.00 L920,350.00 L921,366.00 L922,295.00 L923,361.00 L924,446.00 L925,350.00 L926,312.00 L927,258.00 L928,276.00 L929,343.00 L930,336.00 L931,320.00 L932,300.00 L933,358.00 L934,551.00 L935,469.00 L936,258.00 L937,212.00 L938,292.00 L939,614.00 L940,254.00 L941,459.00 L942,307.00 L943,237.00 L944,239.00 L945,265.00 L946,291.00 L947,239.00 L948,274.00 L949,264.00 L950,239.00 L951,261.00 L952,242.00 L953,922.00 L954,917.00 L955,318.00 L956,155.00 L957,217.00 L958,289.00 L959,242.00 L960,251.00 L961,412.00 L962,444.55 L963,236.00 L964,1136.00 L965,466.00 L966,191.00 L967,211.00 L968,208.00 L969,213.00 L970,259.00 L971,238.00 L972,264.00 L973,216.00 L974,250.00 L975,217.00 L976,263.00 L977,372.00 L978,551.00 L979,1645.00 L980,169.00 L981,214.00 L982,248.00 L983,302.00 L984,321.00 L985,308.00 L986,322.00 L987,355.00 L988,333.00 L989,225.00 L990,232.00 L991,294.00 L992,286.00 L993,256.00 L994,278.00 L995,348.00 L996,248.00 L997,252.00 L998,224.00 L999,379.00 L1000,412.00 L1001,389.00 L1002,357.00 L1003,393.00 L1004,494.00 L1005,988.00 L1006,610.00 L1007,403.00 L1008,433.00 L1009,493.00 L1010,532.00 L1011,377.00 L1012,411.00 L1013,336.00 L1014,378.00 L1015,339.00 L1016,368.00 L1017,378.00 L1018,346.00 L1019,524.00 L1020,293.00 L1021,410.00 L1022,411.00 L1023,365.00 L1024,406.00 L1025,267.00 L1026,363.00 L1027,365.00 L1028,340.00 L1029,319.00 L1030,335.00 L1031,332.00 L1032,311.00 L1033,323.00 L1034,275.00 L1035,279.00 L1036,359.00 L1037,343.00 L1038,376.00 L1039,457.00 L1040,435.00 L1041,547.00 L1042,547.00 L1043,296.00 L1044,340.00 L1045,301.00 L1046,292.00 L1047,329.00 L1048,342.00 L1049,324.00 L1050,323.00 L1051,313.00 L1052,372.00 L1053,323.00 L1054,378.00 L1055,430.00 L1056,315.00 L1057,277.00 L1058,339.00 L1059,375.00 L1060,388.00 L1061,277.00 L1062,337.00 L1063,417.00 L1064,456.00 L1065,451.00 L1066,305.00 L1067,433.00 L1068,455.00 L1069,459.00 L1070,381.00 L1071,0.00 L1072,0.00 L1073,0.00 L1074,0.00 L1075,0.00 L1076,0.00 L1077,0.00 L1078,0.00 L1079,0.00 L1080,0.00 L1081,0.00 L1082,0.00 L1083,0.00 L1084,0.00 L1085,0.00 L1086,0.00 L1087,0.00 L1088,0.00 L1089,0.00 L1090,0.00 L1091,0.00 L1092,5.00 L1093,0.00 L1094,0.00 L1095,0.00 L1096,0.00 L1097,0.00 L1098,0.00 L1099,0.00 L1100,0.00 L1101,1.00 L1102,0.00 L1103,0.00 L1104,0.00 L1105,0.00 L1106,0.00 L1107,0.00 L1108,0.00 L1109,0.00 L1110,0.00 L1111,16.00 L1112,116.00 L1113,0.00 L1114,0.00 L1115,0.00 L1116,0.00 L1117,0.00 L1118,0.00 L1119,0.00 L1120,0.00 L1121,0.00 L1122,0.00 L1123,0.00 L1124,0.00 L1125,0.00 L1126,0.00 L1127,0.00 L1128,0.00 L1129,0.00 L1130,0.00 L1131,0.00 L1132,0.00 L1133,0.00 L1134,0.00 L1135,0.00 L1136,0.00 L1137,210.00 L1138,0.00 L1139,0.00 L1140,0.00 L1141,19.00 L1142,3773.00 L1143,0.00 L1144,0.00 L1145,0.00 L1146,0.00 L1147,0.00 L1148,0.00 L1149,0.00 L1150,0.00 L1151,0.00 L1152,0.00 L1153,0.00 L1154,0.00 L1155,0.00 L1156,0.00 L1157,0.00 L1158,0.00 L1159,0.00 L1160,0.00 L1161,0.00 L1162,0.00 L1163,0.00 L1164,0.00 L1165,0.00 L1166,0.00 L1167,0.00 L1168,0.00 L1169,0.00 L1170,0.00 L1171,6.00 L1172,4130.00 L1173,0.00 L1174,0.00 L1175,0.00 L1176,0.00 L1177,0.00 L1178,0.00 L1179,0.00 L1180,0.00 L1181,0.00 L1182,0.00 L1183,0.00 L1184,0.00 L1185,0.00 L1186,0.00 L1187,0.00 L1188,0.00 L1189,0.00 L1190,0.00 L1191,0.00 L1192,0.00 L1193,0.00 L1194,0.00 L1195,0.00 L1196,0.00 L1197,0.00 L1198,0.00 L1199,0.00 L1200,0.00 L1201,0.00 L1202,337.00 L1203,3816.00 L1204,0.00 L1205,0.00 L1206,0.00 L1207,0.00 L1208,0.00 L1209,0.00 L1210,0.00 L1211,0.00 L1212,0.00 L1213,0.00 L1214,0.00 L1215,0.00 L1216,0.00 L1217,0.00 L1218,0.00 L1219,0.00 L1220,0.00 L1221,0.00 L1222,0.00 L1223,0.00 L1224,0.00 L1225,0.00 L1226,0.00 L1227,0.00 L1228,0.00 L1229,0.00 L1230,0.00 L1231,5.00 L1232,0.00 L1233,4105.00 L1234,0.00 L1235,0.00 L1236,0.00 L1237,0.00 L1238,1.00 L1239,0.00 L1240,0.00 L1241,1.00 L1242,0.00 L1243,0.00 L1244,3.00 L1245,0.00 L1246,0.00 L1247,0.00 L1248,0.00 L1249,0.00 L1250,0.00 L1251,0.00 L1252,0.00 L1253,0.00 L1254,0.00 L1255,0.00 L1256,0.00 L1257,0.00 L1258,0.00 L1259,0.00 L1260,0.00 L1261,4.00 L1262,0.00 L1263,568.00 L1264,3520.00 L1265,0.00 L1266,0.00 L1267,0.00 L1268,0.00 L1269,1.00 L1270,0.00 L1271,0.00 L1272,0.00 L1273,0.00 L1274,0.00 L1275,0.00 L1276,0.00 L1277,0.00 L1278,0.00 L1279,0.00 L1280,0.00 L1281,0.00 L1282,0.00 L1283,0.00 L1284,0.00 L1285,0.00 L1286,0.00 L1287,0.00 L1288,0.00 L1289,0.00 L1290,0.00 L1291,6.00 L1292,0.00 L1293,0.00 L1294,4042.00 L1295,0.00 L1296,0.00 L1297,0.00 L1298,0.00 L1299,0.00 L1300,0.00 L1301,0.00 L1302,0.00 L1303,0.00 L1304,1.00 L1305,0.00 L1306,0.00 L1307,0.00 L1308,0.00 L1309,0.00 L1310,0.00 L1311,0.00 L1312,0.00 L1313,0.00 L1314,0.00 L1315,0.00 L1316,0.00 L1317,0.00 L1318,0.00 L1319,0.00 L1320,0.00 L1321,4.00 L1322,0.00 L1323,0.00 L1324,938.00 L1325,3148.00 L1326,0.00 L1327,0.00 L1328,0.00 L1329,0.00 L1330,0.00 L1331,0.00 L1332,0.00 L1333,0.00 L1334,0.00 L1335,1.00 L1336,0.00 L1337,0.00 L1338,0.00 L1339,0.00 L1340,0.00 L1341,0.00 L1342,0.00 L1343,0.00 L1344,0.00 L1345,0.00 L1346,0.00 L1347,0.00 L1348,0.00 L1349,0.00 L1350,0.00 L1351,2.00 L1352,4.00 L1353,0.00 L1354,0.00 L1355,4097.00 L1356,0.00 L1357,0.00 L1358,0.00 L1359,0.00 L1360,0.00 L1361,0.00 L1362,0.00 L1363,0.00 L1364,0.00 L1365,0.00 L1366,0.00 L1367,0.00 L1368,1069.00 L1369,0.00 L1370,0.00 L1371,0.00 L1372,0.00 L1373,0.00 L1374,0.00 L1375,0.00 L1376,0.00 L1377,0.00 L1378,0.00 L1379,0.00 L1380,0.00 L1381,0.00 L1382,4.00 L1383,0.00 L1384,0.00 L1385,0.00 L1386,0.00 L1387,0.00 L1388,0.00 L1389,0.00 L1390,0.00 L1391,0.00 L1392,0.00 L1393,0.00 L1394,0.00 L1395,0.00 L1396,0.00 L1397,0.00 L1398,0.00 L1399,1.00 L1400,0.00 L1401,0.00 L1402,0.00 L1403,0.00 L1404,0.00 L1405,0.00 L1406,0.00 L1407,0.00 L1408,0.00 L1409,0.00 L1410,0.00 L1411,12.00 L1412,0.00 L1413,0.00 L1414,9139.00 L1415,3270.00 L1416,740.00 L1417,709.00 L1418,615.00 L1419,425.00 L1420,432.00 L1421,481.00 L1422,470.00 L1423,402.00 L1424,471.00 L1425,393.00 L1426,465.00 L1427,405.00 L1428,594.00 L1429,0.00 L1430,0.00 L1431,0.00 L1432,0.00 L1433,339.00 L1434,1798.00 L1435,387.00 L1436,572.00 L1437,415.00 L1438,517.00 L1439,552.00 L1440,504.00 L1441,326.00 L1442,514.00 L1443,303.00 L1444,335.00 L1445,459.00 L1446,224.00 L1447,504.00 L1448,271.00 L1449,274.00 L1450,345.00 L1451,339.00 L1452,261.00 L1453,0.00 L1454,0.00 L1455,0.00 L1456,0.00 L1457,900.00 L1458,327.00 L1459,329.00 L1460,353.00 L1461,325.00 L1462,328.00 L1463,384.00 L1464,432.00 L1465,419.00 L1466,585.00 L1467,446.00 L1468,548.00 L1469,511.00 L1470,350.00 L1471,339.00 L1472,392.00 L1473,325.00 L1474,341.00 L1475,444.00 L1476,338.00 L1477,311.00 L1478,378.00 L1479,307.00 L1480,306.00 L1481,341.00 L1482,166.00 L1483,0.00 L1484,0.00 L1485,0.00 L1486,0.00 L1487,551.00 L1488,379.00 L1489,366.00 L1490,379.00 L1491,415.00 L1492,451.00 L1493,765.00 L1494,559.00 L1495,400.00 L1496,384.00 L1497,490.00 L1498,430.00 L1499,440.00 L1500,449.00 L1501,443.00 L1502,448.00 L1503,695.00 L1504,208.00 L1505,283.00 L1506,362.00 L1507,400.00 L1508,356.00 L1509,355.00 L1510,355.00 L1511,327.00 L1512,319.00 L1513,290.00 L1514,339.00 L1515,357.00 L1516,372.00 L1517,322.00 L1518,383.00 L1519,388.00 L1520,293.00 L1521,325.00 L1522,330.00 L1523,0.00 L1524,0.00 L1525,0.00 L1526,0.00 L1527,232.00 L1528,429.00 L1529,441.00 L1530,404.00 L1531,356.00 L1532,415.00 L1533,412.00 L1534,426.00 L1535,425.00 L1536,505.00 L1537,440.00 L1538,466.00 L1539,336.00 L1540,463.00 L1541,407.00 L1542,614.00 L1543,626.00 L1544,475.00 L1545,380.00 L1546,310.00 L1547,288.00 L1548,431.00 L1549,400.00 L1550,338.00 L1551,346.00 L1552,322.00 L1553,311.00 L1554,372.00 L1555,312.00 L1556,305.00 L1557,333.00 L1558,422.00 L1559,361.00 L1560,319.00 L1561,333.00 L1562,348.00 L1563,339.00 L1564,288.00 L1565,397.00 L1566,386.00 L1567,347.00 L1568,286.00 L1569,250.00 L1570,283.00 L1571,284.00 L1572,282.00 L1573,305.00 L1574,296.00 L1575,347.00 L1576,280.00 L1577,353.00 L1578,360.00 L1579,298.00 L1580,279.00 L1581,286.00 L1582,273.00 L1583,289.00 L1584,291.00 L1585,730.00 L1586,290.00 L1587,265.00 L1588,252.00 L1589,251.00 L1590,288.00 L1591,414.85 L1592,307.00 L1593,1008.00 L1594,293.00 L1595,288.00 L1596,285.00 L1597,277.00 L1598,421.00 L1599,304.00 L1600,373.00 L1601,298.00 L1602,311.00 L1603,277.00 L1604,338.00 L1605,315.00 L1606,345.00 L1607,374.00 L1608,382.00 L1609,454.00 L1610,360.00 L1611,472.00 L1612,455.00 L1613,607.00 L1614,557.00 L1615,453.00 L1616,532.00 L1617,463.00 L1618,581.00 L1619,361.00 L1620,354.00 L1621,412.00 L1622,320.00 L1623,400.00 L1624,360.00 L1625,305.00 L1626,358.00 L1627,310.00 L1628,393.00 L1629,373.00 L1630,355.00 L1631,298.00 L1632,409.00 L1633,398.00 L1634,316.00 L1635,365.00" style="vector-effect: non-scaling-stroke; stroke: #00ffff; stroke-width: 1; fill-opacity: 0" transform="scale(0.440367,-0.021884)"/>
</g>
</g>
</svg>
