<?xml version="1.0" encoding="UTF-8"?>
<!DOCTYPE svg PUBLIC "-//W3C//DTD SVG 1.1//EN" "http://www.w3.org/Graphics/SVG/1.1/DTD/svg11.dtd">
<svg xmlns="http://www.w3.org/2000/svg" width="1060" height="350" fill="black" stroke="gray" stroke-width="1">
<text x= "0" y="30" text-anchor="start" stroke="brown">Linux 3.10.0-693.el7.ppc64le (centos-compression-iv1-main) 	04/30/2018 	_ppc64le_	(10 CPU)
</text>
<g id="13" transform="translate(0,50)">
<rect x="0" y="0" height="300" width="1050"/>
<text x="0" y="20" style="fill: yellow; stroke: none">I/O and transfer rate statistics (2)
<tspan x="795" y="25" style="fill: yellow; stroke: none; font-size: 12px">(Min, Max, Average values)</tspan></text>
<polyline points="70,50 70,250 790,250" stroke="white" stroke-width="2"/>
<text x="795" y="50" style="fill: #ff0000; stroke: none; font-size: 12px">bread/s (0.00, 211200.00, 75648.484)</text><text x="795" y="65" style="fill: #e85f00; stroke: none; font-size: 12px">bwrtn/s (0.00, 9358336.00, 172370.112)</text><g transform="translate(70,250)">
<text x="0" y="10" style="fill: white; stroke: none; font-size: 12px; text-anchor: start" transform="rotate(45,0,0)">00:53:14</text>
<polyline points="163,0 163,-200" style="vector-effect: non-scaling-stroke; stroke: #202020" transform="scale(0.440367,1)"/>
<text x="71" y="10" style="fill: white; stroke: none; font-size: 12px; text-anchor: start" transform="rotate(45,71,0)">00:55:57</text>
<polyline points="326,0 326,-200" style="vector-effect: non-scaling-stroke; stroke: #202020" transform="scale(0.440367,1)"/>
<text x="143" y="10" style="fill: white; stroke: none; font-size: 12px; text-anchor: start" transform="rotate(45,143,0)">00:58:40</text>
<polyline points="489,0 489,-200" style="vector-effect: non-scaling-stroke; stroke: #202020" transform="scale(0.440367,1)"/>
<text x="215" y="10" style="fill: white; stroke: none; font-size: 12px; text-anchor: start" transform="rotate(45,215,0)">01:01:23</text>
<polyline points="652,0 652,-200" style="vector-effect: non-scaling-stroke; stroke: #202020" transform="scale(0.440367,1)"/>
<text x="287" y="10" style="fill: white; stroke: none; font-size: 12px; text-anchor: start" transform="rotate(45,287,0)">01:04:06</text>
<polyline points="815,0 815,-200" style="vector-effect: non-scaling-stroke; stroke: #202020" transform="scale(0.440367,1)"/>
<text x="358" y="10" style="fill: white; stroke: none; font-size: 12px; text-anchor: start" transform="rotate(45,358,0)">01:06:49</text>
<polyline points="978,0 978,-200" style="vector-effect: non-scaling-stroke; stroke: #202020" transform="scale(0.440367,1)"/>
<text x="430" y="10" style="fill: white; stroke: none; font-size: 12px; text-anchor: start" transform="rotate(45,430,0)">01:09:32</text>
<polyline points="1141,0 1141,-200" style="vector-effect: non-scaling-stroke; stroke: #202020" transform="scale(0.440367,1)"/>
<text x="502" y="10" style="fill: white; stroke: none; font-size: 12px; text-anchor: start" transform="rotate(45,502,0)">01:12:15</text>
<polyline points="1304,0 1304,-200" style="vector-effect: non-scaling-stroke; stroke: #202020" transform="scale(0.440367,1)"/>
<text x="574" y="10" style="fill: white; stroke: none; font-size: 12px; text-anchor: start" transform="rotate(45,574,0)">01:14:58</text>
<polyline points="1467,0 1467,-200" style="vector-effect: non-scaling-stroke; stroke: #202020" transform="scale(0.440367,1)"/>
<text x="646" y="10" style="fill: white; stroke: none; font-size: 12px; text-anchor: start" transform="rotate(45,646,0)">01:17:41</text>
<polyline points="1630,0 1630,-200" style="vector-effect: non-scaling-stroke; stroke: #202020" transform="scale(0.440367,1)"/>
<text x="717" y="10" style="fill: white; stroke: none; font-size: 12px; text-anchor: start" transform="rotate(45,717,0)">01:20:24</text>
<text x="-10" y="30" style="fill: yellow; stroke: none; font-size: 12px; text-anchor: end">UTC</text>
<path id="g11p4" d="M1,0.0 L2,0.0 L3,2.603144372620182 L4,0.0 L5,0.0 L6,0.0 L7,4.036149629745853 L8,0.47712125471966244 L9,0.0 L10,0.0 L11,0.0 L12,0.0 L13,0.0 L14,0.0 L15,0.0 L16,0.0 L17,1.8573324964312685 L18,0.0 L19,0.0 L20,0.0 L21,0.0 L22,3.4581844355702627 L23,0.0 L24,0.0 L25,0.0 L26,0.0 L27,3.5126843962171637 L28,0.0 L29,0.0 L30,0.0 L31,0.0 L32,3.8314858392486575 L33,0.0 L34,0.0 L35,0.0 L36,0.0 L37,5.3548764225162335 L38,5.919371011534774 L39,5.7417045583412625 L40,0.0 L41,0.0 L42,0.0 L43,0.0 L44,0.0 L45,0.0 L46,0.0 L47,0.0 L48,0.0 L49,0.0 L50,0.0 L51,0.0 L52,0.0 L53,0.0 L54,0.0 L55,0.0 L56,0.0 L57,0.0 L58,0.0 L59,0.0 L60,0.0 L61,0.0 L62,0.0 L63,0.0 L64,2.709269960975831 L65,0.0 L66,0.0 L67,2.8656960599160706 L68,0.47712125471966244 L69,6.139775850516149 L70,0.0 L71,0.0 L72,0.0 L73,0.0 L74,0.0 L75,0.0 L76,0.0 L77,0.0 L78,0.0 L79,0.0 L80,0.0 L81,0.0 L82,0.0 L83,0.0 L84,0.0 L85,0.0 L86,0.0 L87,0.0 L88,0.0 L89,0.0 L90,0.0 L91,0.0 L92,0.0 L93,0.0 L94,0.0 L95,0.0 L96,0.0 L97,1.7403626894942439 L98,0.47712125471966244 L99,6.125536019138228 L100,0.0 L101,0.0 L102,0.0 L103,0.0 L104,0.0 L105,0.0 L106,0.0 L107,0.0 L108,0.0 L109,0.0 L110,0.0 L111,0.0 L112,0.0 L113,0.0 L114,0.0 L115,0.0 L116,0.0 L117,0.0 L118,0.0 L119,0.0 L120,0.0 L121,0.0 L122,0.0 L123,0.0 L124,0.0 L125,0.0 L126,0.0 L127,0.7737864449811935 L128,0.0 L129,6.121018526391052 L130,0.0 L131,0.0 L132,0.0 L133,0.0 L134,2.7781512503836434 L135,0.0 L136,0.0 L137,0.0 L138,0.0 L139,0.0 L140,0.0 L141,0.0 L142,0.0 L143,0.0 L144,0.0 L145,0.0 L146,0.0 L147,0.0 L148,0.0 L149,0.0 L150,0.0 L151,0.0 L152,0.0 L153,0.0 L154,0.0 L155,0.0 L156,0.0 L157,1.3617278360175928 L158,0.0 L159,5.896790681812294 L160,5.695362579416589 L161,0.0 L162,0.0 L163,0.0 L164,0.0 L165,2.7664128471123997 L166,0.0 L167,0.0 L168,0.0 L169,0.0 L170,0.0 L171,0.0 L172,0.0 L173,0.0 L174,0.0 L175,0.0 L176,0.0 L177,0.0 L178,0.0 L179,0.0 L180,0.0 L181,0.0 L182,0.0 L183,0.0 L184,0.0 L185,0.0 L186,0.0 L187,1.3424226808222062 L188,0.0 L189,0.0 L190,6.095545925503919 L191,0.0 L192,0.0 L193,0.0 L194,0.0 L195,0.0 L196,0.0 L197,0.0 L198,0.0 L199,0.0 L200,2.800717078282385 L201,0.0 L202,0.0 L203,0.0 L204,0.0 L205,0.0 L206,0.0 L207,0.0 L208,0.0 L209,0.0 L210,0.0 L211,0.0 L212,0.0 L213,0.0 L214,0.0 L215,0.0 L216,0.0 L217,0.47712125471966244 L218,0.47712125471966244 L219,0.0 L220,0.0 L221,0.0 L222,0.0 L223,0.0 L224,0.0 L225,6.161526116543113 L226,0.0 L227,0.0 L228,0.0 L229,0.0 L230,0.0 L231,0.0 L232,0.0 L233,0.0 L234,0.0 L235,2.8273692730538253 L236,0.0 L237,0.0 L238,0.0 L239,0.0 L240,0.0 L241,0.0 L242,0.0 L243,0.0 L244,0.0 L245,0.0 L246,0.0 L247,0.0 L248,0.7781512503836436 L249,0.0 L250,0.0 L251,0.0 L252,0.0 L253,0.0 L254,0.0 L255,6.040190791571066 L256,0.0 L257,0.0 L258,0.0 L259,0.0 L260,0.0 L261,0.0 L262,0.0 L263,0.0 L264,0.0 L265,0.0 L266,0.0 L267,0.0 L268,0.0 L269,0.0 L270,2.77232170672292 L271,0.0 L272,0.0 L273,0.0 L274,0.0 L275,0.0 L276,0.0 L277,0.0 L278,1.3617278360175928 L279,0.0 L280,0.0 L281,0.0 L282,0.0 L283,0.0 L284,0.0 L285,6.033481657557818 L286,0.0 L287,0.0 L288,0.0 L289,0.0 L290,0.0 L291,0.0 L292,0.0 L293,0.0 L294,0.0 L295,0.0 L296,0.0 L297,0.0 L298,0.0 L299,0.0 L300,2.7481880270062002 L301,0.0 L302,0.0 L303,0.0 L304,0.0 L305,0.0 L306,0.0 L307,0.0 L308,1.0 L309,0.0 L310,0.0 L311,0.0 L312,0.0 L313,0.0 L314,0.0 L315,0.0 L316,6.039369695916121 L317,0.0 L318,0.0 L319,0.0 L320,0.0 L321,0.0 L322,0.0 L323,0.0 L324,0.0 L325,0.0 L326,0.0 L327,0.0 L328,0.0 L329,0.0 L330,0.0 L331,2.72916478969277 L332,0.0 L333,0.0 L334,0.0 L335,0.0 L336,0.0 L337,0.0 L338,2.130333768495006 L339,0.0 L340,0.0 L341,0.0 L342,0.0 L343,0.0 L344,0.0 L345,0.0 L346,6.0321479529134505 L347,0.0 L348,0.0 L349,0.0 L350,0.0 L351,0.0 L352,0.0 L353,0.0 L354,0.0 L355,0.0 L356,0.0 L357,0.0 L358,0.0 L359,0.0 L360,0.0 L361,0.0 L362,0.0 L363,0.0 L364,0.0 L365,0.0 L366,2.7664128471123997 L367,0.0 L368,0.6989700043360189 L369,0.0 L370,0.0 L371,0.0 L372,0.0 L373,0.0 L374,0.0 L375,0.0 L376,6.030709799439552 L377,0.0 L378,0.0 L379,0.0 L380,0.0 L381,0.0 L382,0.0 L383,0.0 L384,0.0 L385,0.0 L386,0.0 L387,0.0 L388,0.0 L389,0.0 L390,0.0 L391,0.0 L392,0.0 L393,0.0 L394,0.0 L395,0.0 L396,0.0 L397,0.0 L398,0.7032913781186614 L399,0.0 L400,0.0 L401,2.800717078282385 L402,0.0 L403,0.0 L404,0.0 L405,0.0 L406,6.025299375381757 L407,0.0 L408,0.0 L409,0.0 L410,0.0 L411,0.0 L412,0.0 L413,0.0 L414,0.0 L415,0.0 L416,0.0 L417,0.0 L418,0.0 L419,0.0 L420,0.0 L421,0.0 L422,0.0 L423,0.0 L424,0.0 L425,0.0 L426,0.0 L427,0.0 L428,0.7781512503836436 L429,0.0 L430,0.0 L431,0.0 L432,0.0 L433,0.0 L434,0.0 L435,0.0 L436,5.853318494345068 L437,5.568577167774754 L438,0.0 L439,0.0 L440,0.0 L441,0.0 L442,0.0 L443,0.0 L444,0.0 L445,0.0 L446,0.0 L447,1.9444826721501687 L448,0.0 L449,0.0 L450,0.0 L451,0.0 L452,0.0 L453,0.0 L454,0.0 L455,0.0 L456,0.0 L457,0.0 L458,0.9030899869919435 L459,0.0 L460,0.0 L461,0.0 L462,0.0 L463,0.0 L464,0.0 L465,0.0 L466,0.0 L467,5.989848331343907 L468,0.0 L469,0.0 L470,0.0 L471,0.0 L472,0.0 L473,0.0 L474,0.0 L475,0.0 L476,0.0 L477,0.0 L478,0.0 L479,0.0 L480,0.0 L481,0.0 L482,0.0 L483,0.0 L484,0.0 L485,0.0 L486,0.0 L487,0.0 L488,1.8195439355418688 L489,0.0 L490,0.0 L491,0.0 L492,0.0 L493,0.0 L494,0.0 L495,0.0 L496,0.0 L497,6.0188701897906505 L498,0.0 L499,0.0 L500,0.0 L501,0.0 L502,2.8273692730538253 L503,0.0 L504,0.0 L505,0.0 L506,0.0 L507,0.0 L508,0.0 L509,0.0 L510,0.0 L511,0.0 L512,0.0 L513,0.0 L514,0.0 L515,0.0 L516,0.0 L517,0.0 L518,2.569373909615046 L519,0.0 L520,0.0 L521,0.0 L522,0.0 L523,0.0 L524,0.0 L525,0.0 L526,0.0 L527,5.996560702634338 L528,0.0 L529,0.0 L530,0.0 L531,0.0 L532,0.0 L533,0.0 L534,0.0 L535,0.0 L536,0.0 L537,2.7895807121644256 L538,0.0 L539,0.0 L540,0.0 L541,0.0 L542,0.0 L543,0.0 L544,0.0 L545,0.0 L546,0.0 L547,0.0 L548,2.1818435879447726 L549,0.0 L550,0.0 L551,0.0 L552,0.0 L553,0.0 L554,0.0 L555,0.0 L556,0.0 L557,5.996301478805604 L558,4.997071690906057 L559,0.0 L560,0.0 L561,0.0 L562,0.0 L563,0.0 L564,0.0 L565,0.0 L566,0.0 L567,0.0 L568,2.7781512503836434 L569,0.0 L570,0.0 L571,0.0 L572,0.0 L573,0.0 L574,0.0 L575,0.0 L576,0.0 L577,0.0 L578,1.3424226808222062 L579,0.0 L580,0.0 L581,0.0 L582,0.0 L583,0.0 L584,0.0 L585,0.0 L586,0.0 L587,0.0 L588,6.030389202049651 L589,0.0 L590,0.0 L591,0.0 L592,0.0 L593,0.0 L594,0.0 L595,0.0 L596,0.0 L597,0.0 L598,0.0 L599,0.0 L600,0.0 L601,0.0 L602,0.0 L603,2.806179973983887 L604,0.0 L605,0.0 L606,0.0 L607,0.0 L608,0.0 L609,0.8450980400142568 L610,0.0 L611,0.0 L612,0.0 L613,0.0 L614,0.0 L615,0.0 L616,0.0 L617,0.0 L618,6.024442975027926 L619,0.0 L620,0.0 L621,0.0 L622,0.0 L623,0.0 L624,0.0 L625,0.0 L626,0.0 L627,0.0 L628,0.0 L629,0.0 L630,0.0 L631,0.0 L632,0.0 L633,0.0 L634,0.0 L635,0.0 L636,0.0 L637,0.0 L638,2.837588438235511 L639,1.7323937598229686 L640,0.0 L641,0.0 L642,0.0 L643,0.0 L644,0.0 L645,0.0 L646,0.0 L647,0.0 L648,6.030194785356751 L649,0.0 L650,0.0 L651,0.0 L652,0.0 L653,0.0 L654,0.0 L655,0.0 L656,0.0 L657,0.0 L658,0.0 L659,0.0 L660,0.0 L661,0.0 L662,0.0 L663,0.0 L664,0.0 L665,0.0 L666,0.0 L667,0.0 L668,0.0 L669,0.6989700043360189 L670,0.0 L671,0.0 L672,0.0 L673,2.783903579272735 L674,0.0 L675,0.0 L676,0.0 L677,0.0 L678,6.0187504147035265 L679,0.0 L680,0.0 L681,0.0 L682,0.0 L683,0.0 L684,0.0 L685,0.0 L686,0.0 L687,0.0 L688,0.0 L689,0.0 L690,0.0 L691,0.0 L692,0.0 L693,0.0 L694,0.0 L695,0.0 L696,0.0 L697,0.0 L698,0.0 L699,0.7781512503836436 L700,0.0 L701,0.0 L702,0.0 L703,0.0 L704,0.0 L705,0.0 L706,0.0 L707,0.0 L708,6.007061238069075 L709,0.0 L710,0.0 L711,0.0 L712,0.0 L713,0.0 L714,0.0 L715,0.0 L716,0.0 L717,0.0 L718,0.0 L719,0.0 L720,0.0 L721,0.0 L722,0.0 L723,0.0 L724,0.0 L725,0.0 L726,0.0 L727,0.0 L728,0.0 L729,1.3424226808222062 L730,0.0 L731,0.0 L732,0.0 L733,0.0 L734,0.0 L735,0.0 L736,0.0 L737,0.0 L738,0.0 L739,5.998475559753602 L740,0.0 L741,0.0 L742,0.0 L743,0.0 L744,0.0 L745,0.0 L746,0.0 L747,0.0 L748,0.0 L749,5.455003310489892 L750,1.0791812460476249 L751,0.0 L752,0.0 L753,0.0 L754,0.0 L755,0.0 L756,0.0 L757,0.0 L758,0.0 L759,2.146128035678238 L760,0.0 L761,0.0 L762,0.0 L763,0.0 L764,0.0 L765,0.0 L766,0.0 L767,0.0 L768,0.0 L769,0.0 L770,5.669599498487384 L771,0.0 L772,0.0 L773,0.0 L774,0.0 L775,6.65640947861866 L776,6.892751225900598 L777,6.156110395318785 L778,0.0 L779,0.0 L780,0.0 L781,0.0 L782,0.0 L783,0.0 L784,0.0 L785,0.0 L786,0.0 L787,0.0 L788,0.0 L789,1.863322860120456 L790,0.0 L791,0.0 L792,0.0 L793,0.0 L794,0.0 L795,0.0 L796,0.0 L797,0.0 L798,0.0 L799,0.0 L800,0.0 L801,0.0 L802,2.783903579272735 L803,0.0 L804,0.0 L805,0.0 L806,0.0 L807,6.783720679930422 L808,5.867028847022695 L809,6.02187040023709 L810,6.338067446542541 L811,6.78459789513909 L812,6.015480469143593 L813,6.136756070071616 L814,5.3701354389797 L815,5.548207553798486 L816,5.219814971182443 L817,5.031198336095051 L818,4.896790681812294 L819,5.192143544584584 L820,5.134151597606897 L821,5.30033456800233 L822,5.315651326086436 L823,5.574966020891901 L824,5.180561672034769 L825,5.240748878018086 L826,5.270371344624887 L827,5.539216656917467 L828,5.587791756477038 L829,0.0 L830,0.0 L831,0.0 L832,0.0 L833,5.278826739127791 L834,5.775968511398826 L835,5.818510929564034 L836,5.627300297760711 L837,5.485971144964242 L838,5.519502478970915 L839,5.507229604713027 L840,5.733755628674998 L841,5.4269404639780925 L842,5.553125383598992 L843,5.4416637207987995 L844,5.550629431430686 L845,5.472697954538768 L846,5.491742585142117 L847,5.518155828335643 L848,5.505844294186261 L849,5.667355809496915 L850,5.687906909360305 L851,5.540499654842894 L852,5.607995142565324 L853,5.40997367812085 L854,5.562968172752005 L855,5.4047516374660285 L856,5.558074662027635 L857,5.43025570512957 L858,5.524847709300098 L859,5.5274958545897865 L860,5.541778873682067 L861,5.466665989768855 L862,5.579673866254858 L863,5.507229604713027 L864,5.478647287051969 L865,5.524266268766978 L866,5.7991750724152284 L867,5.723790499733754 L868,5.4590062765448915 L869,5.780415251426914 L870,5.523517556707751 L871,5.322053817695566 L872,5.541778873682067 L873,5.523517556707751 L874,5.074757945866731 L875,0.0 L876,4.9925711896793805 L877,5.555607073105636 L878,6.0702418447017665 L879,5.47119779939636 L880,5.4496326504700745 L881,5.4496326504700745 L882,5.401235063743191 L883,5.401235063743191 L884,5.592363319551521 L885,5.438434750668601 L886,5.851033191251618 L887,5.519502478970915 L888,5.867632453071081 L889,5.418539921951662 L890,5.438434750668601 L891,5.328363291602574 L892,5.468181853373804 L893,5.279812900857729 L894,5.3427384165554175 L895,5.390511198351418 L896,5.339809065219519 L897,5.39231699921468 L898,5.491742585142117 L899,5.330446242750866 L900,5.454344752557888 L901,5.401235063743191 L902,5.4416637207987995 L903,5.496021383121392 L904,5.4368112180043875 L905,5.574966020891901 L906,5.606897052266272 L907,5.577326322798872 L908,5.640727831664836 L909,5.602476714035679 L910,5.637673815341936 L911,5.856071212687086 L912,6.168662448735062 L913,5.551879200586393 L914,5.616681321750417 L915,5.265572461743118 L916,5.397689782978541 L917,5.496021383121392 L918,5.549376055432589 L919,5.531438040343848 L920,5.554368000990087 L921,5.573781042034223 L922,5.480121972617975 L923,5.56780715854547 L924,5.659634815351954 L925,5.554368000990087 L926,5.504454550658255 L927,5.421919662603042 L928,5.450483133060376 L929,5.545594076682582 L930,5.536639234029656 L931,5.515449934959718 L932,5.487421211359474 L933,5.564182983283686 L934,5.751451555491597 L935,5.6814727993548955 L936,5.421919662603042 L937,5.336635817568563 L938,5.474198775355732 L939,5.79846832778098 L940,5.41513367325975 L941,5.672112642177074 L942,5.497438332116999 L943,5.385048302649916 L944,5.38869785758795 L945,5.4335458305766196 L946,5.470234032187601 L947,5.38869785758795 L948,5.446648988165598 L949,5.431903883509643 L950,5.3871191979324005 L951,5.425338548279633 L952,5.394115322620243 L953,5.97459274119626 L954,5.972236173136699 L955,5.51149833863365 L956,5.2006316548101035 L957,5.345020661542115 L958,5.47119779939636 L959,5.392359232749964 L960,5.408334956840446 L961,5.625197172672946 L962,5.657324754757996 L963,5.383211959609919 L964,6.064990796176272 L965,5.678685873329812 L966,5.289357029096958 L967,5.332600027805082 L968,5.328363291602574 L969,5.336731833151379 L970,5.4235997207210636 L971,5.3851914404785415 L972,5.430436279595259 L973,5.344753707790743 L974,5.408239965311849 L975,5.345036359594995 L976,5.428653045262011 L977,5.579747022909946 L978,5.750724331310199 L979,6.226226535018309 L980,5.2381866612534855 L981,5.338934352976385 L982,5.4047516374660285 L983,5.490306899596963 L984,5.516804989044684 L985,5.498850673140256 L986,5.518155828335643 L987,5.560528309694906 L988,5.532744190146132 L989,5.362482474751174 L990,5.375787941530712 L991,5.478647287051969 L992,5.466665989768855 L993,5.418539921951662 L994,5.454344752557888 L995,5.551879200586393 L996,5.4047516374660285 L997,5.411700497421356 L998,5.360547974973975 L999,5.588939166607885 L1000,5.625197172672946 L1001,5.60024955796552 L1002,5.562968172752005 L1003,5.604692507015239 L1004,5.704026905563459 L1005,6.00505690122744 L1006,5.795629791650579 L1007,5.615605002780922 L1008,5.646787852993177 L1009,5.703146875917042 L1010,5.73621158893486 L1011,5.586641306845605 L1012,5.624141778515881 L1013,5.536639234029656 L1014,5.587791756477038 L1015,5.540499654842894 L1016,5.57614777531333 L1017,5.587791756477038 L1018,5.549376055432589 L1019,5.729631243623539 L1020,5.477167576993922 L1021,5.623083813359547 L1022,5.624141778515881 L1023,5.572592821096286 L1024,5.618825990217006 L1025,5.4368112180043875 L1026,5.570206581675924 L1027,5.572592821096286 L1028,5.541778873682067 L1029,5.514090639696993 L1030,5.535344763676657 L1031,5.530773254190193 L1032,5.502372488311689 L1033,5.519502478970915 L1034,5.4496326504700745 L1035,5.45590415991341 L1036,5.5653944052181314 L1037,5.545594076682582 L1038,5.585487801567473 L1039,5.670216156709662 L1040,5.6487892135944495 L1041,5.7482872829732425 L1042,5.7482872829732425 L1043,5.48159166769875 L1044,5.541778873682067 L1045,5.488866452233656 L1046,5.47568280808823 L1047,5.5274958545897865 L1048,5.544326062695947 L1049,5.520844966846424 L1050,5.519502478970915 L1051,5.505844294186261 L1052,5.58084289652171 L1053,5.519502478970915 L1054,5.587791756477038 L1055,5.643768412219399 L1056,5.5086105104294125 L1057,5.452779725704261 L1058,5.540499654842894 L1059,5.5843312243675305 L1060,5.599131682234019 L1061,5.452779725704261 L1062,5.53792985751115 L1063,5.630436011613569 L1064,5.669264799304247 L1065,5.6644764985177725 L1066,5.4945997959865975 L1067,5.646787852993177 L1068,5.668311353296924 L1069,5.672112642177074 L1070,5.584512142712952 L1071,0.0 L1072,0.0 L1073,0.0 L1074,0.0 L1075,0.0 L1076,0.0 L1077,0.0 L1078,0.0 L1079,0.0 L1080,0.0 L1081,0.0 L1082,0.0 L1083,0.0 L1084,0.0 L1085,0.0 L1086,0.0 L1087,0.0 L1088,0.0 L1089,0.0 L1090,0.0 L1091,0.0 L1092,1.3617278360175928 L1093,0.0 L1094,0.0 L1095,0.0 L1096,0.0 L1097,0.0 L1098,0.0 L1099,0.0 L1100,0.0 L1101,2.7024305364455254 L1102,0.0 L1103,0.0 L1104,0.0 L1105,0.0 L1106,0.0 L1107,0.0 L1108,0.0 L1109,0.0 L1110,0.0 L1111,1.6434526764861874 L1112,5.071145290451083 L1113,0.0 L1114,0.0 L1115,0.0 L1116,0.0 L1117,0.0 L1118,0.0 L1119,0.0 L1120,0.0 L1121,0.0 L1122,0.0 L1123,0.0 L1124,0.0 L1125,0.0 L1126,0.0 L1127,0.0 L1128,0.0 L1129,0.0 L1130,0.0 L1131,0.0 L1132,0.0 L1133,0.0 L1134,0.0 L1135,0.0 L1136,0.0 L1137,5.32925953402727 L1138,0.0 L1139,0.0 L1140,0.0 L1141,2.4771212547196626 L1142,6.58682126561083 L1143,0.0 L1144,0.0 L1145,0.0 L1146,0.0 L1147,0.0 L1148,0.0 L1149,0.0 L1150,0.0 L1151,0.0 L1152,0.0 L1153,0.0 L1154,0.0 L1155,0.0 L1156,0.0 L1157,0.0 L1158,0.0 L1159,0.0 L1160,0.0 L1161,0.0 L1162,0.0 L1163,0.0 L1164,0.0 L1165,0.0 L1166,0.0 L1167,0.0 L1168,0.0 L1169,0.0 L1170,0.0 L1171,1.3424226808222062 L1172,6.625852204852714 L1173,0.0 L1174,0.0 L1175,0.0 L1176,0.0 L1177,0.0 L1178,0.0 L1179,0.0 L1180,0.0 L1181,0.0 L1182,0.0 L1183,0.0 L1184,0.0 L1185,0.0 L1186,0.0 L1187,0.0 L1188,0.0 L1189,0.0 L1190,0.0 L1191,0.0 L1192,0.0 L1193,0.0 L1194,0.0 L1195,0.0 L1196,0.0 L1197,0.0 L1198,0.0 L1199,0.0 L1200,0.0 L1201,0.0 L1202,5.532754378992498 L1203,6.591860306918971 L1204,0.0 L1205,0.0 L1206,0.0 L1207,0.0 L1208,0.0 L1209,0.0 L1210,0.0 L1211,0.0 L1212,0.0 L1213,0.0 L1214,0.0 L1215,0.0 L1216,0.0 L1217,0.0 L1218,0.0 L1219,0.0 L1220,0.0 L1221,0.0 L1222,0.0 L1223,0.0 L1224,0.0 L1225,0.0 L1226,0.0 L1227,0.0 L1228,0.0 L1229,0.0 L1230,0.0 L1231,1.8195439355418688 L1232,0.0 L1233,6.6234023005437 L1234,0.0 L1235,0.0 L1236,0.0 L1237,0.0 L1238,2.806179973983887 L1239,0.0 L1240,0.0 L1241,0.47712125471966244 L1242,0.0 L1243,0.0 L1244,0.3010299956639812 L1245,0.0 L1246,0.0 L1247,0.0 L1248,0.0 L1249,0.0 L1250,0.0 L1251,0.0 L1252,0.0 L1253,0.0 L1254,0.0 L1255,0.0 L1256,0.0 L1257,0.0 L1258,0.0 L1259,0.0 L1260,0.0 L1261,0.7781512503836436 L1262,0.0 L1263,5.764648292350831 L1264,6.556795386482338 L1265,0.0 L1266,0.0 L1267,0.0 L1268,0.0 L1269,2.7895807121644256 L1270,0.0 L1271,0.0 L1272,0.0 L1273,0.0 L1274,0.0 L1275,0.0 L1276,0.0 L1277,0.0 L1278,0.0 L1279,0.0 L1280,0.0 L1281,0.0 L1282,0.0 L1283,0.0 L1284,0.0 L1285,0.0 L1286,0.0 L1287,0.0 L1288,0.0 L1289,0.0 L1290,0.0 L1291,1.3424226808222062 L1292,0.0 L1293,0.0 L1294,6.6167241511255055 L1295,0.0 L1296,0.0 L1297,0.0 L1298,0.0 L1299,0.0 L1300,0.0 L1301,0.0 L1302,0.0 L1303,0.0 L1304,2.8221680793680175 L1305,0.0 L1306,0.0 L1307,0.0 L1308,0.0 L1309,0.0 L1310,0.0 L1311,0.0 L1312,0.0 L1313,0.0 L1314,0.0 L1315,0.0 L1316,0.0 L1317,0.0 L1318,0.0 L1319,0.0 L1320,0.0 L1321,0.7781512503836436 L1322,0.0 L1323,0.0 L1324,5.982502795018877 L1325,6.50832390215739 L1326,0.0 L1327,0.0 L1328,0.0 L1329,0.0 L1330,0.0 L1331,0.0 L1332,0.0 L1333,0.0 L1334,0.0 L1335,2.716003343634799 L1336,0.0 L1337,0.0 L1338,0.0 L1339,0.0 L1340,0.0 L1341,0.0 L1342,0.0 L1343,0.0 L1344,0.0 L1345,0.0 L1346,0.0 L1347,0.0 L1348,0.0 L1349,0.0 L1350,0.0 L1351,1.2304489213782739 L1352,0.6989700043360189 L1353,0.0 L1354,0.0 L1355,6.62275267000999 L1356,0.0 L1357,0.0 L1358,0.0 L1359,0.0 L1360,0.0 L1361,0.0 L1362,0.0 L1363,0.0 L1364,0.0 L1365,0.0 L1366,0.0 L1367,0.0 L1368,6.038868032424063 L1369,0.0 L1370,0.0 L1371,0.0 L1372,0.0 L1373,0.0 L1374,0.0 L1375,0.0 L1376,0.0 L1377,0.0 L1378,0.0 L1379,0.0 L1380,0.0 L1381,0.0 L1382,1.146128035678238 L1383,0.0 L1384,0.0 L1385,0.0 L1386,0.0 L1387,0.0 L1388,0.0 L1389,0.0 L1390,0.0 L1391,0.0 L1392,0.0 L1393,0.0 L1394,0.0 L1395,0.0 L1396,0.0 L1397,0.0 L1398,0.0 L1399,2.709269960975831 L1400,0.0 L1401,0.0 L1402,0.0 L1403,0.0 L1404,0.0 L1405,0.0 L1406,0.0 L1407,0.0 L1408,0.0 L1409,0.0 L1410,0.0 L1411,1.8808135922807914 L1412,0.0 L1413,0.0 L1414,6.971198633966472 L1415,6.524847709300098 L1416,5.879531676370788 L1417,5.860524862751518 L1418,5.7991750724152284 L1419,5.6383694350524 L1420,5.6457837034547245 L1421,5.692445033013644 L1422,5.68239781457553 L1423,5.6143909469081095 L1424,5.683320863768708 L1425,5.603724488345613 L1426,5.677519355083748 L1427,5.616949985218251 L1428,5.784086401621005 L1429,0.0 L1430,0.0 L1431,0.0 L1432,0.0 L1433,5.540499654842894 L1434,6.265008493072748 L1435,5.598010921658723 L1436,5.7676959854328365 L1437,5.628348053351905 L1438,5.723790499733754 L1439,5.752239034369011 L1440,5.7127304930853375 L1441,5.523517556707751 L1442,5.717078560741897 L1443,5.491742585142117 L1444,5.535344763676657 L1445,5.672112642177074 L1446,5.360547974973975 L1447,5.7127304930853375 L1448,5.442366869182611 L1449,5.4480505194602 L1450,5.5475679664631565 L1451,5.540499654842894 L1452,5.4269404639780925 L1453,0.0 L1454,0.0 L1455,0.0 L1456,0.0 L1457,5.964542466079137 L1458,5.524847709300098 L1459,5.5274958545897865 L1460,5.558074662027635 L1461,5.522183317618686 L1462,5.526173800351491 L1463,5.594631181007343 L1464,5.6457837034547245 L1465,5.632513979606108 L1466,5.7771134953392895 L1467,5.659634815351954 L1468,5.749080515124181 L1469,5.7187208567745245 L1470,5.554368000990087 L1471,5.540499654842894 L1472,5.603586023660269 L1473,5.522183317618686 L1474,5.54305433563231 L1475,5.657682926754432 L1476,5.539216656917467 L1477,5.50306034566665 L1478,5.587791756477038 L1479,5.497438332116999 L1480,5.496021383121392 L1481,5.54305433563231 L1482,5.230408044679867 L1483,0.0 L1484,0.0 L1485,0.0 L1486,0.0 L1487,5.751451555491597 L1488,5.588939166607885 L1489,5.573781042034223 L1490,5.588939166607885 L1491,5.628348053351905 L1492,5.663512470415156 L1493,5.89396139179343 L1494,5.757711764526236 L1495,5.612359947967774 L1496,5.594631181007343 L1497,5.700073446513892 L1498,5.643768412219399 L1499,5.6537526331259995 L1500,5.662546297643135 L1501,5.656703682862881 L1502,5.661577970637956 L1503,5.852284761229926 L1504,5.328363291602574 L1505,5.462086392164102 L1506,5.5690085271729775 L1507,5.612359947967774 L1508,5.561749954612687 L1509,5.560528309694906 L1510,5.560528309694906 L1511,5.524847709300098 L1512,5.514090639696993 L1513,5.472697954538768 L1514,5.540499654842894 L1515,5.562131014988019 L1516,5.580477912483165 L1517,5.518155828335643 L1518,5.587926375517172 L1519,5.599131682234019 L1520,5.477167576993922 L1521,5.522183317618686 L1522,5.5288138965177 L1523,0.0 L1524,0.0 L1525,0.0 L1526,0.0 L1527,5.375787941530712 L1528,5.642250782899029 L1529,5.654738546107651 L1530,5.616681321750417 L1531,5.561749954612687 L1532,5.628348053351905 L1533,5.625197172672946 L1534,5.639709555742531 L1535,5.638688886690123 L1536,5.7135913347584735 L1537,5.6534980891222855 L1538,5.677993631074864 L1539,5.536639234029656 L1540,5.675880947657765 L1541,5.619894365865032 L1542,5.79846832778098 L1543,5.806874289850241 L1544,5.686993566264679 L1545,5.590083553256622 L1546,5.501661650474085 L1547,5.469692444399043 L1548,5.644777226800543 L1549,5.612359947967774 L1550,5.539216656917467 L1551,5.549376055432589 L1552,5.518155828335643 L1553,5.50306034566665 L1554,5.58084289652171 L1555,5.504454550658255 L1556,5.4945997959865975 L1557,5.532744190146132 L1558,5.635612407601486 L1559,5.567336969813335 L1560,5.514090639696993 L1561,5.532744190146132 L1562,5.551879200586393 L1563,5.540499654842894 L1564,5.469692444399043 L1565,5.609090463402927 L1566,5.596887261311567 L1567,5.550629431430686 L1568,5.466665989768855 L1569,5.408239965311849 L1570,5.462086392164102 L1571,5.46361829668685 L1572,5.4605490649591735 L1573,5.4945997959865975 L1574,5.48159166769875 L1575,5.550629431430686 L1576,5.457457987982031 L1577,5.556847439587849 L1578,5.566602457407099 L1579,5.484516220716067 L1580,5.45590415991341 L1581,5.466665989768855 L1582,5.446462603680568 L1583,5.470422252346309 L1584,5.471385602418488 L1585,5.873111252820309 L1586,5.471244757766077 L1587,5.4335458305766196 L1588,5.410054776340607 L1589,5.408375661136076 L1590,5.469692444399043 L1591,5.627268487917911 L1592,5.496198754772583 L1593,6.013390071083791 L1594,5.477167576993922 L1595,5.468229138961733 L1596,5.463713861541874 L1597,5.452779725704261 L1598,5.633630023469062 L1599,5.4931735402485655 L1600,5.579929860651839 L1601,5.483261989147563 L1602,5.501705427953271 L1603,5.451282791695256 L1604,5.5380103942720496 L1605,5.507337646229594 L1606,5.54697674095745 L1607,5.582136118196362 L1608,5.591367394013249 L1609,5.666532955968475 L1610,5.565432207758252 L1611,5.683364083600749 L1612,5.667415592617927 L1613,5.792828566069335 L1614,5.75240496098734 L1615,5.665543469355491 L1616,5.735496700737383 L1617,5.675074103989573 L1618,5.7737513490595695 L1619,5.56780715854547 L1620,5.558141938628008 L1621,5.625197172672946 L1622,5.515449934959718 L1623,5.6103705368824786 L1624,5.565536147780308 L1625,5.4945997959865975 L1626,5.563148711095859 L1627,5.501661650474085 L1628,5.603646607392236 L1629,5.580924975675619 L1630,5.559408635763286 L1631,5.484516220716067 L1632,5.621068214201196 L1633,5.609218640668874 L1634,5.509987039258216 L1635,5.567863547000493 " style="vector-effect: non-scaling-stroke; stroke: #e85f00; stroke-width: 1; fill-opacity: 0" transform="scale(0.440367,-28.571428571428573)"/><path id="g11p3" d="M1,0.0 L2,0.0 L3,2.482873583608754 L4,5.324693913861775 L5,5.282721783011316 L6,5.282141563176311 L7,5.263986203066864 L8,5.28503494151255 L9,5.286186916941038 L10,5.286186916941038 L11,5.2786438705908765 L12,5.29019493665145 L13,5.282721783011316 L14,5.2780581732911775 L15,5.286186916941038 L16,5.2786438705908765 L17,5.249599435766704 L18,5.179091976953994 L19,5.270371344624887 L20,5.22712537990586 L21,5.231714194482151 L22,5.240748878018086 L23,5.22248756104377 L24,5.270371344624887 L25,5.2786438705908765 L26,5.286186916941038 L27,5.2786438705908765 L28,5.286186916941038 L29,5.282141563176311 L30,5.286761760813056 L31,5.2780581732911775 L32,5.286761760813056 L33,5.2780581732911775 L34,5.2786438705908765 L35,5.286186916941038 L36,5.2786438705908765 L37,4.965747167217508 L38,4.560528309694906 L39,4.686993566264679 L40,4.515449934959718 L41,4.5843312243675305 L42,4.964542466079137 L43,5.282721783011316 L44,5.282721783011316 L45,5.29019493665145 L46,5.282141563176311 L47,5.2786438705908765 L48,5.2780581732911775 L49,5.2786438705908765 L50,5.286186916941038 L51,5.282721783011316 L52,5.282141563176311 L53,5.27393602522792 L54,5.282721783011316 L55,5.282721783011316 L56,5.2780581732911775 L57,5.282721783011316 L58,5.2780581732911775 L59,5.270371344624887 L60,5.282721783011316 L61,5.269774376170887 L62,5.270371344624887 L63,5.258273223001619 L64,5.27393602522792 L65,5.282721783011316 L66,5.266175230031279 L67,5.286186916941038 L68,5.2786438705908765 L69,5.27393602522792 L70,5.270371344624887 L71,5.282721783011316 L72,5.145432608016587 L73,5.060486306315172 L74,5.257659379108749 L75,5.274527304396044 L76,5.286186916941038 L77,5.2786438705908765 L78,5.0709977969934235 L79,4.673057788321386 L80,4.816479930623699 L81,5.000416722707716 L82,5.270371344624887 L83,5.266175230031279 L84,5.282141563176311 L85,5.270371344624887 L86,5.281560567127248 L87,5.2751177796493485 L88,5.2786438705908765 L89,5.282141563176311 L90,5.274527304396044 L91,5.274527304396044 L92,5.282141563176311 L93,5.274527304396044 L94,5.27393602522792 L95,5.258273223001619 L96,5.270371344624887 L97,5.266175230031279 L98,5.269774376170887 L99,5.282440382542417 L100,5.262024179712153 L101,5.282141563176311 L102,5.118357330423666 L103,5.0178343745370695 L104,5.26254600711293 L105,5.27393602522792 L106,5.282721783011316 L107,5.261938177088024 L108,5.174652812424249 L109,4.515449934959718 L110,4.816479930623699 L111,5.015694988526518 L112,5.266175230031279 L113,5.270371344624887 L114,5.274322503438614 L115,5.2741391834401465 L116,5.258273223001619 L117,5.2780581732911775 L118,5.2786438705908765 L119,5.257659379108749 L120,5.253338005326106 L121,5.26254600711293 L122,5.265572461743118 L123,5.286761760813056 L124,5.274527304396044 L125,5.269774376170887 L126,5.274527304396044 L127,5.26604996548254 L128,5.282141563176311 L129,5.270371344624887 L130,5.270371344624887 L131,5.266175230031279 L132,5.177617291387988 L133,4.882456229388104 L134,5.274527304396044 L135,5.2780581732911775 L136,5.270371344624887 L137,5.270371344624887 L138,5.091287003550699 L139,4.512043686267806 L140,4.691541194015399 L141,5.1493915641636345 L142,5.253957983278508 L143,5.274527304396044 L144,5.27393602522792 L145,5.270371344624887 L146,5.274527304396044 L147,5.274527304396044 L148,5.266175230031279 L149,5.27393602522792 L150,5.2786438705908765 L151,5.257659379108749 L152,5.274527304396044 L153,5.27393602522792 L154,5.260719958948706 L155,5.275707453170901 L156,5.266175230031279 L157,5.266175230031279 L158,5.274527304396044 L159,5.261938177088024 L160,5.266175230031279 L161,5.282141563176311 L162,5.215097994830667 L163,4.933284772348695 L164,5.257659379108749 L165,5.27393602522792 L166,5.266175230031279 L167,5.270371344624887 L168,5.173908520070864 L169,4.730459260045769 L170,4.6487892135944495 L171,5.072881940867975 L172,5.261938177088024 L173,5.266175230031279 L174,5.269774376170887 L175,5.26254600711293 L176,5.269774376170887 L177,5.266175230031279 L178,5.270371344624887 L179,5.257659379108749 L180,5.258273223001619 L181,5.2780581732911775 L182,5.261938177088024 L183,5.266175230031279 L184,5.270371344624887 L185,5.257659379108749 L186,5.27393602522792 L187,5.26254600711293 L188,5.270371344624887 L189,5.257659379108749 L190,5.223153146586924 L191,5.266175230031279 L192,5.244564081018601 L193,4.876587295724007 L194,5.270967493629824 L195,5.2786438705908765 L196,5.257659379108749 L197,5.274527304396044 L198,5.138214251011405 L199,4.816479930623699 L200,4.691541194015399 L201,5.027333295938592 L202,5.27393602522792 L203,5.26254600711293 L204,5.261938177088024 L205,5.253338005326106 L206,5.257659379108749 L207,5.266175230031279 L208,5.266175230031279 L209,5.261938177088024 L210,5.266175230031279 L211,5.258273223001619 L212,5.2780581732911775 L213,5.253957983278508 L214,5.282141563176311 L215,5.248973199923657 L216,5.266175230031279 L217,5.26254600711293 L218,5.266175230031279 L219,5.269774376170887 L220,5.258273223001619 L221,5.2780581732911775 L222,5.257659379108749 L223,5.270371344624887 L224,5.266175230031279 L225,5.253957983278508 L226,5.270371344624887 L227,5.257659379108749 L228,4.704905155573381 L229,5.313496014060301 L230,5.257659379108749 L231,5.266175230031279 L232,5.26254600711293 L233,5.177617291387988 L234,4.691541194015399 L235,4.515449934959718 L236,4.696041695242076 L237,5.20133156548843 L238,5.282721783011316 L239,5.253338005326106 L240,5.253338005326106 L241,5.258273223001619 L242,5.265572461743118 L243,5.26254600711293 L244,5.266175230031279 L245,5.244564081018601 L246,5.236255029535826 L247,5.1028451642454185 L248,5.257659379108749 L249,5.240748878018086 L250,5.253338005326106 L251,5.261938177088024 L252,5.249599435766704 L253,5.27393602522792 L254,5.257659379108749 L255,5.2451967023714 L256,5.257659379108749 L257,5.261938177088024 L258,4.740678425227455 L259,5.226465858925805 L260,5.199228440400665 L261,5.265572461743118 L262,5.253957983278508 L263,5.229753493716623 L264,4.515449934959718 L265,4.691541194015399 L266,5.226465858925805 L267,5.255812624453962 L268,5.259498314030925 L269,5.26254600711293 L270,5.240109739592351 L271,5.266175230031279 L272,5.253957983278508 L273,5.257659379108749 L274,5.236255029535826 L275,5.257659379108749 L276,5.247089056049105 L277,5.260109566041616 L278,5.253338005326106 L279,5.274527304396044 L280,5.2451967023714 L281,5.240109739592351 L282,5.2451967023714 L283,5.261938177088024 L284,5.257659379108749 L285,5.249599435766704 L286,5.253338005326106 L287,5.253957983278508 L288,5.253338005326106 L289,5.257659379108749 L290,5.221153321954705 L291,5.181294658676112 L292,5.261938177088024 L293,5.249599435766704 L294,5.270371344624887 L295,5.248973199923657 L296,4.91609583700768 L297,4.691541194015399 L298,4.638688886690123 L299,5.267978531508996 L300,5.22248756104377 L301,5.257659379108749 L302,5.2451967023714 L303,5.261938177088024 L304,5.253338005326106 L305,5.270371344624887 L306,5.2451967023714 L307,5.274527304396044 L308,5.261938177088024 L309,5.253338005326106 L310,5.261938177088024 L311,5.261938177088024 L312,5.258273223001619 L313,5.269774376170887 L314,5.240748878018086 L315,5.249599435766704 L316,5.236255029535826 L317,5.240109739592351 L318,5.261938177088024 L319,5.240748878018086 L320,5.274527304396044 L321,4.711436022732339 L322,5.281560567127248 L323,5.253338005326106 L324,5.253338005326106 L325,5.253957983278508 L326,5.168662448735062 L327,4.515449934959718 L328,4.691541194015399 L329,5.280396238060143 L330,5.248973199923657 L331,5.270371344624887 L332,5.249599435766704 L333,5.244564081018601 L334,5.240748878018086 L335,5.236255029535826 L336,5.257659379108749 L337,5.231714194482151 L338,5.249599435766704 L339,5.248973199923657 L340,5.266175230031279 L341,5.253957983278508 L342,5.253338005326106 L343,5.270371344624887 L344,5.248973199923657 L345,5.249599435766704 L346,5.261938177088024 L347,5.257659379108749 L348,5.2451967023714 L349,5.253338005326106 L350,5.249599435766704 L351,4.984617313236749 L352,5.158724253450531 L353,5.249599435766704 L354,5.2451967023714 L355,5.269774376170887 L356,5.236255029535826 L357,4.879531676370788 L358,4.515449934959718 L359,5.079412808026933 L360,5.236255029535826 L361,5.248973199923657 L362,5.2451967023714 L363,5.2451967023714 L364,5.240748878018086 L365,5.253338005326106 L366,5.261938177088024 L367,5.2451967023714 L368,5.261938177088024 L369,5.244564081018601 L370,5.266175230031279 L371,5.253957983278508 L372,5.261938177088024 L373,5.253338005326106 L374,5.258273223001619 L375,5.261938177088024 L376,5.22248756104377 L377,5.240748878018086 L378,5.265572461743118 L379,5.249599435766704 L380,5.2451967023714 L381,5.1028451642454185 L382,5.095768926526484 L383,5.244564081018601 L384,5.26254600711293 L385,5.248973199923657 L386,5.249599435766704 L387,5.0210238220315855 L388,4.691541194015399 L389,5.0178343745370695 L390,5.2451967023714 L391,5.266175230031279 L392,5.257659379108749 L393,5.257659379108749 L394,5.253338005326106 L395,5.26254600711293 L396,5.261938177088024 L397,5.253338005326106 L398,5.2406198278801845 L399,5.266175230031279 L400,5.257659379108749 L401,5.261938177088024 L402,5.199228440400665 L403,5.261938177088024 L404,5.2451967023714 L405,5.248973199923657 L406,5.236427515212555 L407,5.253964251191485 L408,5.051692641798037 L409,5.1192030843071255 L410,5.249599435766704 L411,5.244564081018601 L412,5.266175230031279 L413,5.249599435766704 L414,5.013545011452959 L415,4.515449934959718 L416,5.027333295938592 L417,5.2786438705908765 L418,5.257659379108749 L419,5.261938177088024 L420,5.257659379108749 L421,5.240748878018086 L422,5.266175230031279 L423,5.231714194482151 L424,5.249599435766704 L425,5.236255029535826 L426,5.261938177088024 L427,5.257659379108749 L428,5.236255029535826 L429,5.2451967023714 L430,5.257659379108749 L431,5.2451967023714 L432,5.240109739592351 L433,5.261938177088024 L434,5.258273223001619 L435,5.248973199923657 L436,5.255812624453962 L437,5.260109566041616 L438,5.0867583443519635 L439,5.093085326956262 L440,5.204119982655925 L441,5.22248756104377 L442,5.231714194482151 L443,5.253957983278508 L444,4.879531676370788 L445,4.5288138965177 L446,5.087667861923968 L447,5.266175230031279 L448,5.2451967023714 L449,5.235609238365675 L450,5.249599435766704 L451,5.248973199923657 L452,5.236255029535826 L453,5.240875320933685 L454,5.236255029535826 L455,5.231714194482151 L456,5.189276903932981 L457,5.194281175554404 L458,5.208957043594235 L459,5.2451967023714 L460,5.253338005326106 L461,5.240748878018086 L462,5.213060644033012 L463,5.2451967023714 L464,5.253338005326106 L465,5.2451967023714 L466,5.253338005326106 L467,5.26256498810032 L468,5.259173236139237 L469,5.240748878018086 L470,5.236255029535826 L471,5.270371344624887 L472,4.746696458916454 L473,5.286761760813056 L474,5.249599435766704 L475,5.240748878018086 L476,5.271562825432305 L477,5.22580533487163 L478,4.691541194015399 L479,4.769967801329442 L480,5.26436440955415 L481,5.240109739592351 L482,5.231714194482151 L483,5.218472483306933 L484,5.231714194482151 L485,5.253338005326106 L486,5.22712537990586 L487,5.236255029535826 L488,5.253957983278508 L489,5.248973199923657 L490,5.2451967023714 L491,5.240748878018086 L492,5.231714194482151 L493,5.257659379108749 L494,5.250224769901964 L495,5.248346059768608 L496,5.240748878018086 L497,5.217799679947118 L498,5.188557277452001 L499,5.04572969482436 L500,5.233016427787395 L501,5.22580533487163 L502,5.253957983278508 L503,5.240109739592351 L504,5.056599976292781 L505,4.691541194015399 L506,4.940994344304348 L507,5.2649688556947325 L508,5.240109739592351 L509,5.257659379108749 L510,5.249599435766704 L511,5.2451967023714 L512,5.253338005326106 L513,5.249599435766704 L514,5.248973199923657 L515,5.257659379108749 L516,5.223153146586924 L517,5.22712537990586 L518,5.199228440400665 L519,5.221153321954705 L520,5.2103292231935825 L521,5.240748878018086 L522,5.253338005326106 L523,5.236255029535826 L524,5.22712537990586 L525,5.208957043594235 L526,5.231714194482151 L527,5.244564081018601 L528,5.187836456569674 L529,5.011384337932032 L530,5.2451967023714 L531,5.266175230031279 L532,5.244564081018601 L533,5.253957983278508 L534,5.120889666939061 L535,4.696041695242076 L536,4.9397188823541045 L537,5.261938177088024 L538,5.261938177088024 L539,5.249599435766704 L540,5.248973199923657 L541,5.231714194482151 L542,5.253957983278508 L543,5.253338005326106 L544,5.240748878018086 L545,5.248973199923657 L546,5.274527304396044 L547,5.253957983278508 L548,5.236899861847169 L549,5.273343939952977 L550,5.229753493716623 L551,5.255812624453962 L552,5.261938177088024 L553,5.253338005326106 L554,5.261938177088024 L555,5.257659379108749 L556,5.253957983278508 L557,5.257659379108749 L558,5.240748878018086 L559,5.2451967023714 L560,5.261938177088024 L561,5.261938177088024 L562,5.124243308946649 L563,5.072881940867975 L564,5.244564081018601 L565,5.2451967023714 L566,5.248973199923657 L567,5.253957983278508 L568,5.061452479087193 L569,4.515449934959718 L570,4.933284772348695 L571,5.249599435766704 L572,5.261938177088024 L573,5.248973199923657 L574,5.274527304396044 L575,5.2451967023714 L576,5.261938177088024 L577,5.266175230031279 L578,5.240109739592351 L579,5.258273223001619 L580,5.257659379108749 L581,5.266175230031279 L582,5.2451967023714 L583,5.253338005326106 L584,5.248973199923657 L585,5.26254600711293 L586,5.253338005326106 L587,5.248973199923657 L588,5.249599435766704 L589,4.926753905189737 L590,5.257659379108749 L591,5.266175230031279 L592,5.248973199923657 L593,5.253957983278508 L594,5.130873887845662 L595,4.658659967620744 L596,4.560528309694906 L597,5.2958572656475855 L598,5.257659379108749 L599,5.2451967023714 L600,5.249599435766704 L601,5.248973199923657 L602,5.2451967023714 L603,5.248973199923657 L604,5.2451967023714 L605,5.236255029535826 L606,5.257659379108749 L607,5.2451967023714 L608,5.236255029535826 L609,5.257659379108749 L610,5.257659379108749 L611,5.249599435766704 L612,5.266175230031279 L613,5.244564081018601 L614,5.257659379108749 L615,5.258273223001619 L616,5.270371344624887 L617,5.248973199923657 L618,5.240748878018086 L619,5.257659379108749 L620,5.261938177088024 L621,5.2451967023714 L622,5.240748878018086 L623,4.858489073631211 L624,5.282141563176311 L625,5.257659379108749 L626,5.266175230031279 L627,5.244564081018601 L628,5.21374082347025 L629,4.792055331292281 L630,4.691541194015399 L631,5.164114820984341 L632,5.261329495163715 L633,5.257659379108749 L634,5.257659379108749 L635,5.257659379108749 L636,5.249599435766704 L637,5.261938177088024 L638,5.257659379108749 L639,5.253957983278508 L640,5.257659379108749 L641,5.236255029535826 L642,5.231714194482151 L643,5.261938177088024 L644,5.2451967023714 L645,5.261938177088024 L646,5.244564081018601 L647,5.261938177088024 L648,5.253957983278508 L649,5.231714194482151 L650,5.248973199923657 L651,5.261938177088024 L652,5.249599435766704 L653,5.007030472074964 L654,5.209643675329205 L655,5.2451967023714 L656,5.236255029535826 L657,5.244564081018601 L658,5.261938177088024 L659,4.826541256631595 L660,4.7991750724152284 L661,5.0709977969934235 L662,5.2451967023714 L663,5.249599435766704 L664,5.244564081018601 L665,5.249599435766704 L666,5.231714194482151 L667,5.244564081018601 L668,5.2451967023714 L669,5.253338005326106 L670,5.253957983278508 L671,5.2451967023714 L672,5.261938177088024 L673,5.248973199923657 L674,5.249599435766704 L675,5.261938177088024 L676,5.253338005326106 L677,5.257659379108749 L678,5.253957983278508 L679,4.744699699160379 L680,5.2958572656475855 L681,5.244564081018601 L682,5.253957983278508 L683,5.253338005326106 L684,5.22844142479749 L685,4.560528309694906 L686,4.792055331292281 L687,5.188557277452001 L688,5.258273223001619 L689,5.248973199923657 L690,5.217799679947118 L691,5.179827446193105 L692,5.248973199923657 L693,5.266175230031279 L694,5.2451967023714 L695,5.213060644033012 L696,5.2451967023714 L697,5.248973199923657 L698,5.253338005326106 L699,5.253957983278508 L700,5.236255029535826 L701,5.218472483306933 L702,5.266175230031279 L703,5.235609238365675 L704,5.249599435766704 L705,5.240748878018086 L706,5.240748878018086 L707,5.248973199923657 L708,5.249599435766704 L709,5.0231371813449845 L710,5.203424554994274 L711,5.227783900853718 L712,5.235609238365675 L713,5.236255029535826 L714,5.2451967023714 L715,4.9681465903479625 L716,4.8363747593406385 L717,5.189995339964319 L718,5.240748878018086 L719,5.223817713636117 L720,5.234962485480842 L721,5.236255029535826 L722,5.2451967023714 L723,5.248973199923657 L724,5.236255029535826 L725,5.2451967023714 L726,5.231714194482151 L727,5.244564081018601 L728,5.236255029535826 L729,5.231714194482151 L730,5.236255029535826 L731,5.18494114930026 L732,5.217799679947118 L733,5.22248756104377 L734,5.2451967023714 L735,5.240748878018086 L736,5.22712537990586 L737,5.240748878018086 L738,5.240748878018086 L739,5.0231371813449845 L740,5.173908520070864 L741,5.240748878018086 L742,5.22248756104377 L743,5.249599435766704 L744,5.217799679947118 L745,4.895378340789036 L746,4.691541194015399 L747,5.196408336453017 L748,5.22753707249703 L749,2.1583624920952498 L750,0.0 L751,0.0 L752,0.0 L753,0.0 L754,0.0 L755,0.0 L756,0.0 L757,0.0 L758,0.0 L759,0.0 L760,0.0 L761,0.0 L762,0.0 L763,0.0 L764,0.0 L765,0.0 L766,0.0 L767,0.0 L768,0.0 L769,0.0 L770,0.0 L771,0.0 L772,0.0 L773,0.0 L774,0.0 L775,0.0 L776,0.0 L777,0.0 L778,0.0 L779,0.0 L780,0.0 L781,0.0 L782,0.0 L783,0.0 L784,0.0 L785,0.0 L786,0.0 L787,0.0 L788,0.0 L789,0.0 L790,0.0 L791,0.0 L792,0.0 L793,0.0 L794,0.0 L795,0.0 L796,0.0 L797,0.0 L798,0.0 L799,0.0 L800,0.0 L801,0.0 L802,0.0 L803,0.0 L804,0.0 L805,0.0 L806,0.0 L807,0.0 L808,0.0 L809,0.0 L810,0.0 L811,0.0 L812,0.0 L813,0.0 L814,0.0 L815,0.0 L816,0.0 L817,0.0 L818,0.0 L819,0.0 L820,0.0 L821,0.0 L822,0.0 L823,0.0 L824,0.0 L825,0.0 L826,0.0 L827,0.0 L828,0.0 L829,0.0 L830,0.0 L831,0.0 L832,0.0 L833,0.0 L834,0.0 L835,0.0 L836,0.0 L837,0.0 L838,0.0 L839,0.0 L840,0.0 L841,0.0 L842,0.0 L843,0.0 L844,0.0 L845,0.0 L846,0.0 L847,0.0 L848,0.0 L849,0.0 L850,0.0 L851,0.0 L852,0.0 L853,0.0 L854,0.0 L855,0.0 L856,0.0 L857,0.0 L858,0.0 L859,0.0 L860,0.0 L861,0.0 L862,0.0 L863,0.0 L864,0.0 L865,0.0 L866,0.0 L867,0.0 L868,0.0 L869,0.0 L870,0.0 L871,0.0 L872,0.0 L873,0.0 L874,0.0 L875,0.0 L876,0.0 L877,0.0 L878,0.0 L879,0.0 L880,0.0 L881,0.0 L882,0.0 L883,0.0 L884,0.0 L885,0.0 L886,0.0 L887,0.0 L888,0.0 L889,0.0 L890,0.0 L891,0.0 L892,0.0 L893,0.0 L894,0.0 L895,0.0 L896,0.0 L897,0.0 L898,0.0 L899,0.0 L900,0.0 L901,0.0 L902,0.0 L903,0.0 L904,0.0 L905,0.0 L906,0.0 L907,0.0 L908,0.0 L909,0.0 L910,0.0 L911,0.0 L912,0.0 L913,0.0 L914,0.0 L915,0.0 L916,0.0 L917,0.0 L918,0.0 L919,0.0 L920,0.0 L921,0.0 L922,0.0 L923,0.0 L924,0.0 L925,0.0 L926,0.0 L927,0.0 L928,0.0 L929,0.0 L930,0.0 L931,0.0 L932,0.0 L933,0.0 L934,0.0 L935,0.0 L936,0.0 L937,0.0 L938,0.0 L939,0.0 L940,0.0 L941,0.0 L942,0.0 L943,0.0 L944,0.0 L945,0.0 L946,0.0 L947,0.0 L948,0.0 L949,0.0 L950,0.0 L951,0.0 L952,0.0 L953,0.0 L954,0.0 L955,0.0 L956,0.0 L957,0.0 L958,0.0 L959,0.0 L960,0.0 L961,0.0 L962,0.0 L963,0.0 L964,0.0 L965,0.0 L966,0.0 L967,0.0 L968,0.0 L969,0.0 L970,0.0 L971,0.0 L972,0.0 L973,0.0 L974,0.0 L975,0.0 L976,0.0 L977,0.0 L978,0.0 L979,0.0 L980,0.0 L981,0.0 L982,0.0 L983,0.0 L984,0.0 L985,0.0 L986,0.0 L987,0.0 L988,0.0 L989,0.0 L990,0.0 L991,0.0 L992,0.0 L993,0.0 L994,0.0 L995,0.0 L996,0.0 L997,0.0 L998,0.0 L999,0.0 L1000,0.0 L1001,0.0 L1002,0.0 L1003,0.0 L1004,0.0 L1005,0.0 L1006,0.0 L1007,0.0 L1008,0.0 L1009,0.0 L1010,0.0 L1011,0.0 L1012,0.0 L1013,0.0 L1014,0.0 L1015,0.0 L1016,0.0 L1017,0.0 L1018,0.0 L1019,0.0 L1020,0.0 L1021,0.0 L1022,0.0 L1023,0.0 L1024,0.0 L1025,0.0 L1026,0.0 L1027,0.0 L1028,0.0 L1029,0.0 L1030,0.0 L1031,0.0 L1032,0.0 L1033,0.0 L1034,0.0 L1035,0.0 L1036,0.0 L1037,0.0 L1038,0.0 L1039,0.0 L1040,0.0 L1041,0.0 L1042,0.0 L1043,0.0 L1044,0.0 L1045,0.0 L1046,0.0 L1047,0.0 L1048,0.0 L1049,0.0 L1050,0.0 L1051,0.0 L1052,0.0 L1053,0.0 L1054,0.0 L1055,0.0 L1056,0.0 L1057,0.0 L1058,0.0 L1059,0.0 L1060,0.0 L1061,0.0 L1062,0.0 L1063,0.0 L1064,0.0 L1065,0.0 L1066,0.0 L1067,0.0 L1068,0.0 L1069,0.0 L1070,0.0 L1071,0.0 L1072,0.0 L1073,0.0 L1074,0.0 L1075,0.0 L1076,0.0 L1077,0.0 L1078,0.0 L1079,0.0 L1080,0.0 L1081,0.0 L1082,0.0 L1083,0.0 L1084,0.0 L1085,0.0 L1086,0.0 L1087,0.0 L1088,0.0 L1089,0.0 L1090,0.0 L1091,0.0 L1092,0.0 L1093,0.0 L1094,0.0 L1095,0.0 L1096,0.0 L1097,0.0 L1098,0.0 L1099,0.0 L1100,0.0 L1101,0.0 L1102,0.0 L1103,0.0 L1104,0.0 L1105,0.0 L1106,0.0 L1107,0.0 L1108,0.0 L1109,0.0 L1110,0.0 L1111,2.4345689040341987 L1112,0.0 L1113,0.0 L1114,0.0 L1115,0.0 L1116,0.0 L1117,0.0 L1118,0.0 L1119,0.0 L1120,0.0 L1121,0.0 L1122,0.0 L1123,0.0 L1124,0.0 L1125,0.0 L1126,0.0 L1127,0.0 L1128,0.0 L1129,0.0 L1130,0.0 L1131,0.0 L1132,0.0 L1133,0.0 L1134,0.0 L1135,0.0 L1136,0.0 L1137,0.0 L1138,0.0 L1139,0.0 L1140,0.0 L1141,0.0 L1142,0.0 L1143,0.0 L1144,0.0 L1145,0.0 L1146,0.0 L1147,0.0 L1148,0.0 L1149,0.0 L1150,0.0 L1151,0.0 L1152,0.0 L1153,0.0 L1154,0.0 L1155,0.0 L1156,0.0 L1157,0.0 L1158,0.0 L1159,0.0 L1160,0.0 L1161,0.0 L1162,0.0 L1163,0.0 L1164,0.0 L1165,0.0 L1166,0.0 L1167,0.0 L1168,0.0 L1169,0.0 L1170,0.0 L1171,0.0 L1172,0.0 L1173,0.0 L1174,0.0 L1175,0.0 L1176,0.0 L1177,0.0 L1178,0.0 L1179,0.0 L1180,0.0 L1181,0.0 L1182,0.0 L1183,0.0 L1184,0.0 L1185,0.0 L1186,0.0 L1187,0.0 L1188,0.0 L1189,0.0 L1190,0.0 L1191,0.0 L1192,0.0 L1193,0.0 L1194,0.0 L1195,0.0 L1196,0.0 L1197,0.0 L1198,0.0 L1199,0.0 L1200,0.0 L1201,0.0 L1202,0.0 L1203,0.0 L1204,0.0 L1205,0.0 L1206,0.0 L1207,0.0 L1208,0.0 L1209,0.0 L1210,0.0 L1211,0.0 L1212,0.0 L1213,0.0 L1214,0.0 L1215,0.0 L1216,0.0 L1217,0.0 L1218,0.0 L1219,0.0 L1220,0.0 L1221,0.0 L1222,0.0 L1223,0.0 L1224,0.0 L1225,0.0 L1226,0.0 L1227,0.0 L1228,0.0 L1229,0.0 L1230,0.0 L1231,0.0 L1232,0.0 L1233,0.0 L1234,0.0 L1235,0.0 L1236,0.0 L1237,0.0 L1238,0.0 L1239,0.0 L1240,0.0 L1241,0.0 L1242,0.0 L1243,0.0 L1244,0.0 L1245,0.0 L1246,0.0 L1247,0.0 L1248,0.0 L1249,0.0 L1250,0.0 L1251,0.0 L1252,0.0 L1253,0.0 L1254,0.0 L1255,0.0 L1256,0.0 L1257,0.0 L1258,0.0 L1259,0.0 L1260,0.0 L1261,0.0 L1262,0.0 L1263,0.0 L1264,0.0 L1265,0.0 L1266,0.0 L1267,0.0 L1268,0.0 L1269,0.0 L1270,0.0 L1271,0.0 L1272,0.0 L1273,0.0 L1274,0.0 L1275,0.0 L1276,0.0 L1277,0.0 L1278,0.0 L1279,0.0 L1280,0.0 L1281,0.0 L1282,0.0 L1283,0.0 L1284,0.0 L1285,0.0 L1286,0.0 L1287,0.0 L1288,0.0 L1289,0.0 L1290,0.0 L1291,0.0 L1292,0.0 L1293,0.0 L1294,0.0 L1295,0.0 L1296,0.0 L1297,0.0 L1298,0.0 L1299,0.0 L1300,0.0 L1301,0.0 L1302,0.0 L1303,0.0 L1304,0.0 L1305,0.0 L1306,0.0 L1307,0.0 L1308,0.0 L1309,0.0 L1310,0.0 L1311,0.0 L1312,0.0 L1313,0.0 L1314,0.0 L1315,0.0 L1316,0.0 L1317,0.0 L1318,0.0 L1319,0.0 L1320,0.0 L1321,0.0 L1322,0.0 L1323,0.0 L1324,0.0 L1325,0.0 L1326,0.0 L1327,0.0 L1328,0.0 L1329,0.0 L1330,0.0 L1331,0.0 L1332,0.0 L1333,0.0 L1334,0.0 L1335,0.0 L1336,0.0 L1337,0.0 L1338,0.0 L1339,0.0 L1340,0.0 L1341,0.0 L1342,0.0 L1343,0.0 L1344,0.0 L1345,0.0 L1346,0.0 L1347,0.0 L1348,0.0 L1349,0.0 L1350,0.0 L1351,0.0 L1352,0.0 L1353,0.0 L1354,0.0 L1355,0.0 L1356,0.0 L1357,0.0 L1358,0.0 L1359,0.0 L1360,0.0 L1361,0.0 L1362,0.0 L1363,0.0 L1364,0.0 L1365,0.0 L1366,0.0 L1367,0.0 L1368,0.0 L1369,0.0 L1370,0.0 L1371,0.0 L1372,0.0 L1373,0.0 L1374,0.0 L1375,0.0 L1376,0.0 L1377,0.0 L1378,0.0 L1379,0.0 L1380,0.0 L1381,0.0 L1382,0.0 L1383,0.0 L1384,0.0 L1385,0.0 L1386,0.0 L1387,0.0 L1388,0.0 L1389,0.0 L1390,0.0 L1391,0.0 L1392,0.0 L1393,0.0 L1394,0.0 L1395,0.0 L1396,0.0 L1397,0.0 L1398,0.0 L1399,0.0 L1400,0.0 L1401,0.0 L1402,0.0 L1403,0.0 L1404,0.0 L1405,0.0 L1406,0.0 L1407,0.0 L1408,0.0 L1409,0.0 L1410,0.0 L1411,0.0 L1412,0.0 L1413,0.0 L1414,0.0 L1415,0.0 L1416,0.0 L1417,0.0 L1418,0.0 L1419,0.0 L1420,0.0 L1421,0.0 L1422,0.0 L1423,0.0 L1424,0.0 L1425,0.0 L1426,0.0 L1427,0.0 L1428,0.0 L1429,0.0 L1430,0.0 L1431,0.0 L1432,0.0 L1433,0.0 L1434,0.0 L1435,0.0 L1436,0.0 L1437,0.0 L1438,0.0 L1439,0.0 L1440,0.0 L1441,0.0 L1442,0.0 L1443,0.0 L1444,0.0 L1445,0.0 L1446,0.0 L1447,0.0 L1448,0.0 L1449,0.0 L1450,0.0 L1451,0.0 L1452,0.0 L1453,0.0 L1454,0.0 L1455,0.0 L1456,0.0 L1457,0.0 L1458,0.0 L1459,0.0 L1460,0.0 L1461,0.0 L1462,0.0 L1463,0.0 L1464,0.0 L1465,0.0 L1466,0.0 L1467,0.0 L1468,0.0 L1469,0.0 L1470,0.0 L1471,0.0 L1472,0.0 L1473,0.0 L1474,0.0 L1475,0.0 L1476,0.0 L1477,0.0 L1478,0.0 L1479,0.0 L1480,0.0 L1481,0.0 L1482,0.0 L1483,0.0 L1484,0.0 L1485,0.0 L1486,0.0 L1487,0.0 L1488,0.0 L1489,0.0 L1490,0.0 L1491,0.0 L1492,0.0 L1493,0.0 L1494,0.0 L1495,0.0 L1496,0.0 L1497,0.0 L1498,0.0 L1499,0.0 L1500,0.0 L1501,0.0 L1502,0.0 L1503,0.0 L1504,0.0 L1505,0.0 L1506,0.0 L1507,0.0 L1508,0.0 L1509,0.0 L1510,0.0 L1511,0.0 L1512,0.0 L1513,0.0 L1514,0.0 L1515,0.0 L1516,0.0 L1517,0.0 L1518,0.0 L1519,0.0 L1520,0.0 L1521,0.0 L1522,0.0 L1523,0.0 L1524,0.0 L1525,0.0 L1526,0.0 L1527,0.0 L1528,0.0 L1529,0.0 L1530,0.0 L1531,0.0 L1532,0.0 L1533,0.0 L1534,0.0 L1535,0.0 L1536,0.0 L1537,0.0 L1538,0.0 L1539,0.0 L1540,0.0 L1541,0.0 L1542,0.0 L1543,0.0 L1544,0.0 L1545,0.0 L1546,0.0 L1547,0.0 L1548,0.0 L1549,0.0 L1550,0.0 L1551,0.0 L1552,0.0 L1553,0.0 L1554,0.0 L1555,0.0 L1556,0.0 L1557,0.0 L1558,0.0 L1559,0.0 L1560,0.0 L1561,0.0 L1562,0.0 L1563,0.0 L1564,0.0 L1565,0.0 L1566,0.0 L1567,0.0 L1568,0.0 L1569,0.0 L1570,0.0 L1571,0.0 L1572,0.0 L1573,0.0 L1574,0.0 L1575,0.0 L1576,0.0 L1577,0.0 L1578,0.0 L1579,0.0 L1580,0.0 L1581,0.0 L1582,0.0 L1583,0.0 L1584,0.0 L1585,0.0 L1586,0.0 L1587,0.0 L1588,0.0 L1589,0.0 L1590,0.0 L1591,0.0 L1592,0.0 L1593,0.0 L1594,0.0 L1595,0.0 L1596,0.0 L1597,0.0 L1598,0.0 L1599,0.0 L1600,0.0 L1601,0.0 L1602,0.0 L1603,0.0 L1604,0.0 L1605,0.0 L1606,0.0 L1607,0.0 L1608,0.0 L1609,0.0 L1610,0.0 L1611,0.0 L1612,0.0 L1613,0.0 L1614,0.0 L1615,0.0 L1616,0.0 L1617,0.0 L1618,0.0 L1619,0.0 L1620,0.0 L1621,0.0 L1622,0.0 L1623,0.0 L1624,0.0 L1625,0.0 L1626,0.0 L1627,0.0 L1628,0.0 L1629,0.0 L1630,0.0 L1631,0.0 L1632,0.0 L1633,2.1583624920952498 L1634,0.0 L1635,0.0 " style="vector-effect: non-scaling-stroke; stroke: #ff0000; stroke-width: 1; fill-opacity: 0" transform="scale(0.440367,-28.571428571428573)"/><polyline points="0,0.0 720,0.0" style="vector-effect: non-scaling-stroke; stroke: #202020" transform="scale(1,-1)"/><text x="0" y="-0.0" style="fill: white; stroke: none; font-size: 12px; text-anchor: end">10^0&#160;</text><polyline points="0,31.25 720,31.25" style="vector-effect: non-scaling-stroke; stroke: #202020" transform="scale(1,-1)"/><text x="0" y="-31.25" style="fill: white; stroke: none; font-size: 12px; text-anchor: end">10^1&#160;</text><polyline points="0,62.5 720,62.5" style="vector-effect: non-scaling-stroke; stroke: #202020" transform="scale(1,-1)"/><text x="0" y="-62.5" style="fill: white; stroke: none; font-size: 12px; text-anchor: end">10^2&#160;</text><polyline points="0,93.75 720,93.75" style="vector-effect: non-scaling-stroke; stroke: #202020" transform="scale(1,-1)"/><text x="0" y="-93.75" style="fill: white; stroke: none; font-size: 12px; text-anchor: end">10^3&#160;</text><polyline points="0,125.0 720,125.0" style="vector-effect: non-scaling-stroke; stroke: #202020" transform="scale(1,-1)"/><text x="0" y="-125.0" style="fill: white; stroke: none; font-size: 12px; text-anchor: end">10^4&#160;</text><polyline points="0,156.25 720,156.25" style="vector-effect: non-scaling-stroke; stroke: #202020" transform="scale(1,-1)"/><text x="0" y="-156.25" style="fill: white; stroke: none; font-size: 12px; text-anchor: end">10^5&#160;</text><polyline points="0,187.5 720,187.5" style="vector-effect: non-scaling-stroke; stroke: #202020" transform="scale(1,-1)"/><text x="0" y="-187.5" style="fill: white; stroke: none; font-size: 12px; text-anchor: end">10^6&#160;</text></g>
</g>
</svg>
