<?xml version="1.0" encoding="UTF-8"?>
<!DOCTYPE svg PUBLIC "-//W3C//DTD SVG 1.1//EN" "http://www.w3.org/Graphics/SVG/1.1/DTD/svg11.dtd">
<svg xmlns="http://www.w3.org/2000/svg" width="1060" height="350" fill="black" stroke="gray" stroke-width="1">
<text x= "0" y="30" text-anchor="start" stroke="brown">Linux 3.10.0-693.el7.ppc64le (centos-compression-iv1-main) 	04/30/2018 	_ppc64le_	(10 CPU)
</text>
<g id="14" transform="translate(0,50)">
<rect x="0" y="0" height="300" width="1050"/>
<text x="0" y="20" style="fill: yellow; stroke: none">Memory utilization (1)
<tspan x="795" y="25" style="fill: yellow; stroke: none; font-size: 12px">(Min, Max, Average values)</tspan></text>
<polyline points="70,50 70,250 790,250" stroke="white" stroke-width="2"/>
<text x="795" y="50" style="fill: #00cc00; stroke: none; font-size: 12px">MBmemfree (19616.31, 98939.50, 51492.982)</text><text x="795" y="65" style="fill: #ff00bf; stroke: none; font-size: 12px">MBavail (98915.31, 99115.12, 99023.113)</text><text x="795" y="80" style="fill: #00ffff; stroke: none; font-size: 12px">MBmemused (1303.88, 80627.06, 48750.393)</text><g transform="translate(70,250)">
<text x="0" y="0" style="fill: white; stroke: none; font-size: 12px; text-anchor: end">0.</text>
<polyline points="0,30000.00 720,30000.00" style="vector-effect: non-scaling-stroke; stroke: #202020" transform="scale(1,-0.002018)"/>
<text x="0" y="-60" style="fill: white; stroke: none; font-size: 12px; text-anchor: end">30000.</text>
<polyline points="0,60000.00 720,60000.00" style="vector-effect: non-scaling-stroke; stroke: #202020" transform="scale(1,-0.002018)"/>
<text x="0" y="-121" style="fill: white; stroke: none; font-size: 12px; text-anchor: end">60000.</text>
<polyline points="0,90000.00 720,90000.00" style="vector-effect: non-scaling-stroke; stroke: #202020" transform="scale(1,-0.002018)"/>
<text x="0" y="-181" style="fill: white; stroke: none; font-size: 12px; text-anchor: end">90000.</text>
<polyline points="0,0 0,-200" style="vector-effect: non-scaling-stroke; stroke: #202020" transform="scale(0.440098,1)"/>
<text x="0" y="10" style="fill: white; stroke: none; font-size: 12px; text-anchor: start" transform="rotate(45,0,0)">00:53:14</text>
<polyline points="163,0 163,-200" style="vector-effect: non-scaling-stroke; stroke: #202020" transform="scale(0.440098,1)"/>
<text x="71" y="10" style="fill: white; stroke: none; font-size: 12px; text-anchor: start" transform="rotate(45,71,0)">00:55:57</text>
<polyline points="326,0 326,-200" style="vector-effect: non-scaling-stroke; stroke: #202020" transform="scale(0.440098,1)"/>
<text x="143" y="10" style="fill: white; stroke: none; font-size: 12px; text-anchor: start" transform="rotate(45,143,0)">00:58:40</text>
<polyline points="489,0 489,-200" style="vector-effect: non-scaling-stroke; stroke: #202020" transform="scale(0.440098,1)"/>
<text x="215" y="10" style="fill: white; stroke: none; font-size: 12px; text-anchor: start" transform="rotate(45,215,0)">01:01:23</text>
<polyline points="652,0 652,-200" style="vector-effect: non-scaling-stroke; stroke: #202020" transform="scale(0.440098,1)"/>
<text x="286" y="10" style="fill: white; stroke: none; font-size: 12px; text-anchor: start" transform="rotate(45,286,0)">01:04:06</text>
<polyline points="815,0 815,-200" style="vector-effect: non-scaling-stroke; stroke: #202020" transform="scale(0.440098,1)"/>
<text x="358" y="10" style="fill: white; stroke: none; font-size: 12px; text-anchor: start" transform="rotate(45,358,0)">01:06:49</text>
<polyline points="978,0 978,-200" style="vector-effect: non-scaling-stroke; stroke: #202020" transform="scale(0.440098,1)"/>
<text x="430" y="10" style="fill: white; stroke: none; font-size: 12px; text-anchor: start" transform="rotate(45,430,0)">01:09:32</text>
<polyline points="1141,0 1141,-200" style="vector-effect: non-scaling-stroke; stroke: #202020" transform="scale(0.440098,1)"/>
<text x="502" y="10" style="fill: white; stroke: none; font-size: 12px; text-anchor: start" transform="rotate(45,502,0)">01:12:15</text>
<polyline points="1304,0 1304,-200" style="vector-effect: non-scaling-stroke; stroke: #202020" transform="scale(0.440098,1)"/>
<text x="573" y="10" style="fill: white; stroke: none; font-size: 12px; text-anchor: start" transform="rotate(45,573,0)">01:14:58</text>
<polyline points="1467,0 1467,-200" style="vector-effect: non-scaling-stroke; stroke: #202020" transform="scale(0.440098,1)"/>
<text x="645" y="10" style="fill: white; stroke: none; font-size: 12px; text-anchor: start" transform="rotate(45,645,0)">01:17:41</text>
<polyline points="1630,0 1630,-200" style="vector-effect: non-scaling-stroke; stroke: #202020" transform="scale(0.440098,1)"/>
<text x="717" y="10" style="fill: white; stroke: none; font-size: 12px; text-anchor: start" transform="rotate(45,717,0)">01:20:24</text>
<text x="-10" y="30" style="fill: yellow; stroke: none; font-size: 12px; text-anchor: end">UTC</text>
<path id="g13p0" d=" M1,98939.50 L2,98939.50 L3,98934.00 L4,98738.19 L5,98604.69 L6,98486.88 L7,98365.06 L8,98244.69 L9,98117.00 L10,98007.00 L11,97885.00 L12,97770.19 L13,97643.75 L14,97526.75 L15,97412.19 L16,97280.38 L17,97187.94 L18,97092.50 L19,97008.94 L20,96904.62 L21,96796.56 L22,96707.56 L23,96608.00 L24,96489.19 L25,96369.81 L26,96249.81 L27,96138.75 L28,96022.38 L29,95895.12 L30,95772.75 L31,95661.38 L32,95530.38 L33,95418.88 L34,95287.50 L35,95165.50 L36,95043.38 L37,95049.44 L38,95027.38 L39,94970.25 L40,94957.00 L41,94947.19 L42,94844.19 L43,94714.25 L44,94603.19 L45,94487.94 L46,94360.19 L47,94242.56 L48,94127.69 L49,94001.19 L50,93888.00 L51,93759.81 L52,93638.69 L53,93522.19 L54,93405.69 L55,93280.38 L56,93158.94 L57,93043.50 L58,92935.94 L59,92820.44 L60,92710.75 L61,92590.31 L62,92459.69 L63,92358.50 L64,92241.69 L65,92121.38 L66,91997.31 L67,91875.12 L68,91784.81 L69,91656.19 L70,91535.06 L71,91415.75 L72,91379.19 L73,91262.00 L74,91142.19 L75,91029.50 L76,90907.38 L77,90790.31 L78,90772.81 L79,90741.12 L80,90691.19 L81,90575.94 L82,90463.06 L83,90355.00 L84,90250.94 L85,90122.19 L86,89999.50 L87,89885.56 L88,89774.12 L89,89645.25 L90,89526.62 L91,89415.62 L92,89297.50 L93,89179.06 L94,89069.81 L95,88955.69 L96,88837.56 L97,88716.75 L98,88600.88 L99,88477.94 L100,88375.12 L101,88253.12 L102,88221.31 L103,88103.94 L104,87998.12 L105,87884.81 L106,87777.06 L107,87645.12 L108,87609.94 L109,87588.25 L110,87547.69 L111,87428.81 L112,87319.62 L113,87201.19 L114,87088.75 L115,86973.94 L116,86850.69 L117,86747.56 L118,86618.06 L119,86511.94 L120,86405.06 L121,86295.94 L122,86170.31 L123,86053.25 L124,85944.75 L125,85825.06 L126,85717.44 L127,85598.75 L128,85484.75 L129,85378.38 L130,85256.00 L131,85140.56 L132,85084.06 L133,85001.06 L134,84873.12 L135,84762.00 L136,84657.94 L137,84531.25 L138,84471.88 L139,84489.06 L140,84449.62 L141,84325.94 L142,84214.19 L143,84091.00 L144,83977.75 L145,83869.62 L146,83762.94 L147,83633.50 L148,83533.50 L149,83401.94 L150,83300.50 L151,83187.06 L152,83053.12 L153,82954.75 L154,82846.75 L155,82713.06 L156,82601.94 L157,82489.56 L158,82368.31 L159,82263.50 L160,82144.94 L161,82029.75 L162,81927.19 L163,81866.62 L164,81760.50 L165,81647.38 L166,81542.06 L167,81420.81 L168,81384.31 L169,81353.44 L170,81315.06 L171,81204.88 L172,81107.25 L173,80971.62 L174,80876.69 L175,80738.81 L176,80637.50 L177,80524.12 L178,80411.75 L179,80291.75 L180,80196.19 L181,80078.94 L182,79964.69 L183,79850.06 L184,79731.44 L185,79628.25 L186,79514.50 L187,79395.06 L188,79282.44 L189,79167.81 L190,79081.06 L191,78964.38 L192,78854.25 L193,78821.75 L194,78688.50 L195,78577.75 L196,78466.00 L197,78357.31 L198,78313.75 L199,78237.69 L200,78244.50 L201,78132.94 L202,78014.69 L203,77910.12 L204,77799.56 L205,77689.75 L206,77575.19 L207,77461.19 L208,77350.38 L209,77235.56 L210,77134.56 L211,77007.94 L212,76902.81 L213,76786.19 L214,76674.50 L215,76567.69 L216,76454.06 L217,76340.19 L218,76226.88 L219,76124.62 L220,76000.50 L221,75896.50 L222,75780.94 L223,75664.12 L224,75566.25 L225,75455.12 L226,75334.81 L227,75216.44 L228,75241.38 L229,75060.56 L230,74970.06 L231,74847.50 L232,74753.12 L233,74678.00 L234,74664.88 L235,74648.62 L236,74617.44 L237,74464.62 L238,74352.69 L239,74252.38 L240,74137.56 L241,74038.00 L242,73917.94 L243,73809.62 L244,73702.06 L245,73586.56 L246,73483.44 L247,73419.94 L248,73318.56 L249,73206.62 L250,73112.25 L251,73001.00 L252,72881.06 L253,72775.62 L254,72661.19 L255,72548.69 L256,72458.75 L257,72335.88 L258,72349.38 L259,72207.81 L260,72111.12 L261,72000.38 L262,71891.38 L263,71783.69 L264,71819.62 L265,71787.56 L266,71639.25 L267,71537.62 L268,71420.38 L269,71305.94 L270,71200.44 L271,71109.19 L272,70992.75 L273,70879.44 L274,70779.81 L275,70666.06 L276,70568.06 L277,70453.12 L278,70359.75 L279,70241.50 L280,70138.19 L281,70022.06 L282,69924.88 L283,69828.12 L284,69711.06 L285,69600.19 L286,69511.25 L287,69392.38 L288,69285.00 L289,69167.75 L290,69090.50 L291,69002.25 L292,68885.25 L293,68778.44 L294,68674.12 L295,68554.12 L296,68559.31 L297,68484.31 L298,68494.56 L299,68341.25 L300,68241.00 L301,68145.31 L302,68028.00 L303,67919.00 L304,67808.81 L305,67700.00 L306,67595.50 L307,67492.56 L308,67375.94 L309,67256.69 L310,67147.31 L311,67037.75 L312,66934.06 L313,66819.50 L314,66720.62 L315,66607.31 L316,66511.56 L317,66409.94 L318,66303.81 L319,66189.94 L320,66092.56 L321,66100.88 L322,65951.00 L323,65835.38 L324,65734.38 L325,65614.88 L326,65534.81 L327,65563.00 L328,65529.75 L329,65373.56 L330,65257.06 L331,65169.50 L332,65038.38 L333,64941.69 L334,64830.88 L335,64737.12 L336,64627.56 L337,64530.75 L338,64419.00 L339,64306.31 L340,64197.00 L341,64089.94 L342,63993.56 L343,63877.62 L344,63764.62 L345,63660.81 L346,63567.38 L347,63456.44 L348,63352.50 L349,63226.81 L350,63123.31 L351,63127.81 L352,62994.75 L353,62878.00 L354,62767.06 L355,62676.75 L356,62571.06 L357,62566.88 L358,62549.06 L359,62439.31 L360,62325.19 L361,62217.94 L362,62122.81 L363,62008.06 L364,61903.94 L365,61806.44 L366,61704.12 L367,61587.25 L368,61480.88 L369,61367.12 L370,61266.19 L371,61143.44 L372,61042.25 L373,60928.88 L374,60850.56 L375,60712.44 L376,60616.62 L377,60508.12 L378,60417.00 L379,60309.19 L380,60201.56 L381,60141.81 L382,60042.31 L383,59939.25 L384,59828.31 L385,59731.31 L386,59613.12 L387,59611.75 L388,59585.56 L389,59467.69 L390,59355.38 L391,59256.12 L392,59148.75 L393,59050.19 L394,58928.06 L395,58821.50 L396,58707.69 L397,58598.88 L398,58494.50 L399,58381.75 L400,58269.06 L401,58177.62 L402,58072.81 L403,57979.12 L404,57860.88 L405,57762.88 L406,57648.00 L407,57548.56 L408,57501.06 L409,57402.69 L410,57294.19 L411,57198.38 L412,57086.50 L413,56985.56 L414,56923.25 L415,56946.56 L416,56822.69 L417,56728.50 L418,56610.69 L419,56514.38 L420,56394.31 L421,56273.25 L422,56172.31 L423,56078.25 L424,55964.12 L425,55871.62 L426,55751.25 L427,55646.88 L428,55541.44 L429,55445.12 L430,55337.44 L431,55230.50 L432,55122.31 L433,55022.00 L434,54901.25 L435,54803.50 L436,54692.25 L437,54582.81 L438,54538.75 L439,54435.00 L440,54361.19 L441,54264.06 L442,54157.25 L443,54054.56 L444,54052.31 L445,54031.75 L446,53912.88 L447,53807.25 L448,53715.19 L449,53588.56 L450,53481.25 L451,53374.31 L452,53279.69 L453,53182.25 L454,53078.25 L455,52976.88 L456,52878.38 L457,52789.19 L458,52710.44 L459,52595.38 L460,52481.12 L461,52394.25 L462,52292.44 L463,52189.56 L464,52080.81 L465,51978.19 L466,51867.25 L467,51764.19 L468,51656.94 L469,51546.12 L470,51438.75 L471,51347.62 L472,51351.62 L473,51189.75 L474,51072.06 L475,50966.19 L476,50863.25 L477,50754.12 L478,50742.94 L479,50715.31 L480,50584.75 L481,50486.50 L482,50386.81 L483,50297.56 L484,50196.38 L485,50092.31 L486,49977.88 L487,49877.50 L488,49770.81 L489,49667.94 L490,49566.62 L491,49463.56 L492,49362.50 L493,49253.38 L494,49144.94 L495,49035.94 L496,48934.38 L497,48855.19 L498,48740.75 L499,48694.62 L500,48599.69 L501,48497.31 L502,48380.25 L503,48289.19 L504,48263.62 L505,48227.88 L506,48127.94 L507,48018.81 L508,47915.62 L509,47808.06 L510,47700.31 L511,47602.25 L512,47494.62 L513,47386.81 L514,47282.19 L515,47170.06 L516,47087.19 L517,46985.75 L518,46879.81 L519,46789.25 L520,46686.12 L521,46595.38 L522,46474.12 L523,46389.00 L524,46280.00 L525,46184.12 L526,46092.38 L527,45973.25 L528,45912.75 L529,45822.62 L530,45722.06 L531,45611.81 L532,45517.06 L533,45401.44 L534,45379.25 L535,45344.69 L536,45245.88 L537,45136.38 L538,45028.06 L539,44920.00 L540,44805.88 L541,44721.06 L542,44612.62 L543,44493.19 L544,44395.19 L545,44281.69 L546,44184.50 L547,44064.75 L548,43967.38 L549,43858.38 L550,43750.31 L551,43655.12 L552,43547.06 L553,43426.94 L554,43328.00 L555,43220.00 L556,43105.19 L557,42993.62 L558,42899.06 L559,42786.44 L560,42672.44 L561,42573.50 L562,42546.50 L563,42415.25 L564,42322.06 L565,42203.88 L566,42111.06 L567,41992.75 L568,41974.44 L569,41966.69 L570,41854.31 L571,41753.19 L572,41637.88 L573,41544.12 L574,41435.75 L575,41317.06 L576,41212.69 L577,41102.38 L578,40997.50 L579,40881.19 L580,40781.50 L581,40674.94 L582,40565.31 L583,40456.50 L584,40355.31 L585,40252.50 L586,40138.00 L587,40034.56 L588,39942.00 L589,39879.06 L590,39769.94 L591,39668.75 L592,39572.00 L593,39452.19 L594,39425.25 L595,39375.06 L596,39375.25 L597,39217.19 L598,39102.69 L599,38985.38 L600,38884.38 L601,38782.44 L602,38672.12 L603,38573.88 L604,38469.38 L605,38372.12 L606,38269.19 L607,38157.00 L608,38057.50 L609,37940.62 L610,37833.25 L611,37726.38 L612,37618.50 L613,37515.88 L614,37406.81 L615,37296.31 L616,37193.12 L617,37082.12 L618,36981.69 L619,36872.31 L620,36760.56 L621,36675.44 L622,36552.38 L623,36556.38 L624,36394.19 L625,36293.56 L626,36191.75 L627,36078.81 L628,35978.75 L629,35969.19 L630,35960.00 L631,35820.12 L632,35712.81 L633,35599.38 L634,35513.19 L635,35389.00 L636,35282.12 L637,35190.25 L638,35067.06 L639,34954.00 L640,34852.88 L641,34746.31 L642,34650.75 L643,34545.62 L644,34434.44 L645,34346.19 L646,34226.62 L647,34125.12 L648,34010.19 L649,33901.69 L650,33800.31 L651,33691.75 L652,33594.81 L653,33574.75 L654,33433.19 L655,33325.00 L656,33219.50 L657,33123.75 L658,33025.06 L659,33019.25 L660,32975.56 L661,32872.94 L662,32760.75 L663,32664.69 L664,32546.62 L665,32447.62 L666,32342.94 L667,32247.62 L668,32140.62 L669,32037.31 L670,31925.56 L671,31817.19 L672,31714.94 L673,31607.06 L674,31499.00 L675,31389.88 L676,31281.56 L677,31180.19 L678,31091.12 L679,31093.25 L680,30926.94 L681,30810.38 L682,30714.38 L683,30597.31 L684,30510.12 L685,30535.06 L686,30481.88 L687,30356.62 L688,30251.62 L689,30148.06 L690,30045.50 L691,29952.56 L692,29849.75 L693,29750.69 L694,29645.06 L695,29548.62 L696,29443.19 L697,29325.12 L698,29231.69 L699,29120.94 L700,29013.38 L701,28918.88 L702,28810.06 L703,28708.44 L704,28596.94 L705,28512.75 L706,28414.12 L707,28292.81 L708,28189.06 L709,28135.75 L710,28038.12 L711,27940.56 L712,27841.00 L713,27734.00 L714,27633.69 L715,27585.00 L716,27587.88 L717,27431.88 L718,27329.25 L719,27237.81 L720,27137.62 L721,27043.38 L722,26929.94 L723,26817.19 L724,26715.44 L725,26620.62 L726,26513.12 L727,26405.44 L728,26303.50 L729,26206.75 L730,26102.50 L731,26014.94 L732,25924.12 L733,25821.69 L734,25731.44 L735,25621.44 L736,25519.50 L737,25416.06 L738,25326.81 L739,25303.62 L740,25156.31 L741,25051.69 L742,24958.94 L743,24874.38 L744,24762.06 L745,24771.56 L746,24707.31 L747,24590.38 L748,24492.50 L749,84964.38 L750,84806.38 L751,84542.69 L752,84279.69 L753,84017.38 L754,83752.19 L755,83472.31 L756,83128.94 L757,82839.50 L758,82582.75 L759,82320.38 L760,82051.75 L761,81789.69 L762,81529.19 L763,81264.31 L764,80992.81 L765,80728.00 L766,80462.19 L767,80195.50 L768,79921.50 L769,79647.81 L770,79375.88 L771,79113.94 L772,78843.62 L773,78569.56 L774,78305.00 L775,78041.25 L776,77766.62 L777,77506.00 L778,77238.38 L779,76970.75 L780,76703.12 L781,76427.44 L782,76156.88 L783,75886.50 L784,75613.69 L785,75349.94 L786,75073.25 L787,74796.69 L788,74529.56 L789,74255.50 L790,73982.62 L791,73710.50 L792,73433.06 L793,73156.69 L794,72885.81 L795,72602.19 L796,72332.19 L797,72056.69 L798,71781.12 L799,71500.94 L800,71231.00 L801,70952.00 L802,70674.38 L803,70394.94 L804,70115.44 L805,69832.56 L806,69556.44 L807,69281.12 L808,69000.06 L809,68710.69 L810,68439.12 L811,68172.81 L812,67889.94 L813,67613.75 L814,67331.00 L815,67052.62 L816,66773.19 L817,66490.56 L818,66210.12 L819,65924.56 L820,65641.12 L821,65349.19 L822,65066.31 L823,64775.19 L824,64491.75 L825,64182.50 L826,63892.31 L827,63604.50 L828,63316.56 L829,63008.31 L830,62715.25 L831,62422.12 L832,62135.38 L833,61838.44 L834,61543.25 L835,61237.56 L836,60948.00 L837,60646.62 L838,60344.06 L839,60048.25 L840,59742.44 L841,59450.75 L842,59154.69 L843,58862.50 L844,58574.12 L845,58268.62 L846,57975.38 L847,57681.75 L848,57382.00 L849,57091.69 L850,56790.69 L851,56495.62 L852,56201.56 L853,55906.56 L854,55611.88 L855,55317.06 L856,55022.25 L857,54716.31 L858,54421.50 L859,54121.12 L860,53832.00 L861,53537.12 L862,53230.94 L863,52930.56 L864,52630.56 L865,52337.06 L866,52041.81 L867,51749.44 L868,51459.62 L869,51155.50 L870,50854.38 L871,50566.12 L872,50271.06 L873,49976.25 L874,49681.44 L875,49375.50 L876,49075.12 L877,48780.25 L878,48485.44 L879,48179.00 L880,47876.12 L881,47575.88 L882,47274.31 L883,46967.38 L884,46655.75 L885,46344.69 L886,46042.19 L887,45748.38 L888,45453.62 L889,45161.81 L890,44861.00 L891,44552.62 L892,44249.75 L893,43940.69 L894,43642.69 L895,43338.19 L896,43032.50 L897,42728.81 L898,42432.44 L899,42136.31 L900,41824.31 L901,41517.69 L902,41207.12 L903,40906.50 L904,40613.06 L905,40308.00 L906,40014.50 L907,39719.62 L908,39418.94 L909,39122.25 L910,38828.06 L911,38532.69 L912,38241.06 L913,37938.88 L914,37645.00 L915,37347.38 L916,37054.25 L917,36754.62 L918,36452.75 L919,36153.44 L920,35851.38 L921,35555.06 L922,35251.25 L923,34950.81 L924,34645.25 L925,34346.25 L926,34053.56 L927,33753.44 L928,33455.44 L929,33160.94 L930,32862.62 L931,32561.81 L932,32264.06 L933,31964.31 L934,31668.50 L935,31366.31 L936,31071.00 L937,30772.06 L938,30485.06 L939,30197.62 L940,29918.88 L941,29659.25 L942,29405.56 L943,29147.50 L944,28891.38 L945,28733.88 L946,28567.38 L947,28429.44 L948,28264.62 L949,28126.06 L950,28006.19 L951,27879.69 L952,27755.25 L953,27592.06 L954,27345.19 L955,27101.69 L956,26862.12 L957,26616.75 L958,26378.62 L959,26214.62 L960,26068.56 L961,25933.94 L962,25856.06 L963,25631.56 L964,25443.19 L965,25210.94 L966,24981.00 L967,24753.81 L968,24523.50 L969,24296.19 L970,24139.50 L971,24014.88 L972,23874.31 L973,23767.62 L974,23653.00 L975,23541.88 L976,23431.38 L977,23305.75 L978,23159.56 L979,22947.06 L980,32321.19 L981,36971.50 L982,36971.50 L983,36971.50 L984,36971.50 L985,36971.50 L986,36971.50 L987,36971.50 L988,36971.50 L989,36971.50 L990,36971.50 L991,36971.50 L992,36971.50 L993,36971.50 L994,36971.50 L995,36971.50 L996,36971.50 L997,36971.50 L998,36971.50 L999,36971.50 L1000,36970.00 L1001,36972.25 L1002,36972.25 L1003,36972.25 L1004,36972.25 L1005,36972.06 L1006,36974.19 L1007,36974.12 L1008,36974.12 L1009,36974.12 L1010,36974.12 L1011,36974.12 L1012,36974.12 L1013,36971.62 L1014,36971.62 L1015,36971.75 L1016,36971.75 L1017,36971.75 L1018,36971.75 L1019,36971.75 L1020,36971.75 L1021,36971.75 L1022,36971.75 L1023,36971.75 L1024,36971.75 L1025,36971.75 L1026,36971.75 L1027,36971.75 L1028,36971.75 L1029,36971.75 L1030,36971.75 L1031,36971.75 L1032,36971.75 L1033,36971.75 L1034,36971.75 L1035,36971.75 L1036,36971.75 L1037,36971.75 L1038,36971.75 L1039,36971.75 L1040,36971.75 L1041,36971.75 L1042,36971.75 L1043,36971.75 L1044,36971.75 L1045,36971.75 L1046,36971.75 L1047,36971.75 L1048,36971.75 L1049,36971.75 L1050,36972.38 L1051,36972.38 L1052,36972.38 L1053,36972.31 L1054,36972.19 L1055,36972.19 L1056,36972.19 L1057,36972.19 L1058,36972.19 L1059,36972.19 L1060,36972.19 L1061,36972.19 L1062,36972.00 L1063,36972.00 L1064,36972.94 L1065,36972.81 L1066,36973.94 L1067,36973.56 L1068,36973.56 L1069,36973.56 L1070,36973.56 L1071,36973.56 L1072,36973.56 L1073,36973.56 L1074,36973.56 L1075,36973.56 L1076,36973.56 L1077,36973.56 L1078,36973.56 L1079,36973.56 L1080,36973.56 L1081,36973.56 L1082,36973.56 L1083,36973.56 L1084,36973.56 L1085,36973.56 L1086,36973.56 L1087,36973.56 L1088,36973.56 L1089,36973.56 L1090,36973.56 L1091,36973.56 L1092,36973.56 L1093,36973.56 L1094,36973.56 L1095,36973.56 L1096,36973.56 L1097,36973.56 L1098,36973.56 L1099,36974.56 L1100,36974.56 L1101,36974.56 L1102,36974.56 L1103,36974.56 L1104,36974.56 L1105,36974.56 L1106,36974.56 L1107,36974.56 L1108,36974.56 L1109,36974.56 L1110,36974.56 L1111,36909.75 L1112,36842.56 L1113,36781.25 L1114,36714.50 L1115,36647.75 L1116,36581.00 L1117,36514.25 L1118,36452.94 L1119,36391.75 L1120,36324.94 L1121,36258.19 L1122,36191.44 L1123,36124.69 L1124,36057.94 L1125,35991.19 L1126,35918.88 L1127,35852.06 L1128,35785.31 L1129,35718.56 L1130,35651.81 L1131,35585.06 L1132,35512.75 L1133,35446.00 L1134,35379.25 L1135,35306.88 L1136,35240.12 L1137,35172.94 L1138,35104.06 L1139,35031.75 L1140,34962.00 L1141,34898.38 L1142,34832.00 L1143,34759.38 L1144,34690.12 L1145,34620.94 L1146,34554.00 L1147,34481.69 L1148,34413.69 L1149,34344.12 L1150,34275.31 L1151,34205.69 L1152,34135.88 L1153,34067.12 L1154,33997.62 L1155,33927.75 L1156,33858.31 L1157,33788.44 L1158,33719.00 L1159,33649.56 L1160,33580.12 L1161,33510.19 L1162,33440.38 L1163,33370.69 L1164,33301.06 L1165,33231.50 L1166,33162.19 L1167,33092.31 L1168,33022.38 L1169,32952.94 L1170,32883.19 L1171,32813.25 L1172,32745.94 L1173,32676.50 L1174,32607.44 L1175,32537.06 L1176,32466.38 L1177,32396.19 L1178,32325.88 L1179,32256.19 L1180,32186.44 L1181,32118.25 L1182,32045.94 L1183,31976.62 L1184,31906.62 L1185,31836.81 L1186,31767.12 L1187,31696.94 L1188,31626.81 L1189,31556.69 L1190,31486.38 L1191,31416.50 L1192,31346.56 L1193,31277.50 L1194,31205.19 L1195,31135.12 L1196,31064.88 L1197,30995.12 L1198,30925.06 L1199,30855.31 L1200,30790.75 L1201,30716.38 L1202,30646.81 L1203,30579.75 L1204,30509.38 L1205,30445.62 L1206,30373.81 L1207,30304.31 L1208,30234.44 L1209,30170.50 L1210,30097.81 L1211,30028.12 L1212,29958.69 L1213,29893.38 L1214,29825.19 L1215,29750.94 L1216,29681.56 L1217,29617.12 L1218,29542.31 L1219,29478.31 L1220,29409.69 L1221,29335.19 L1222,29265.44 L1223,29195.62 L1224,29132.19 L1225,29057.88 L1226,28994.12 L1227,28925.94 L1228,28856.88 L1229,28782.62 L1230,28715.75 L1231,28649.94 L1232,28575.88 L1233,28511.00 L1234,28447.12 L1235,28372.88 L1236,28305.12 L1237,28234.50 L1238,28165.19 L1239,28096.06 L1240,28032.25 L1241,27963.31 L1242,27893.88 L1243,27826.75 L1244,27758.12 L1245,27689.12 L1246,27615.44 L1247,27551.25 L1248,27482.31 L1249,27408.75 L1250,27345.06 L1251,27271.00 L1252,27201.81 L1253,27135.44 L1254,27067.94 L1255,26999.38 L1256,26930.50 L1257,26862.56 L1258,26789.19 L1259,26720.06 L1260,26650.75 L1261,26581.62 L1262,26517.81 L1263,26445.25 L1264,26384.12 L1265,26311.81 L1266,26246.12 L1267,26177.44 L1268,26107.56 L1269,26039.31 L1270,25970.62 L1271,25902.19 L1272,25833.56 L1273,25766.31 L1274,25699.81 L1275,25631.69 L1276,25562.81 L1277,25494.25 L1278,25425.56 L1279,25356.19 L1280,25288.38 L1281,25221.06 L1282,25153.00 L1283,25084.56 L1284,25018.12 L1285,24950.44 L1286,24882.56 L1287,24813.69 L1288,24745.31 L1289,24676.69 L1290,24607.56 L1291,24539.38 L1292,24472.12 L1293,24403.50 L1294,24342.12 L1295,24276.50 L1296,24207.69 L1297,24140.81 L1298,24071.62 L1299,23999.31 L1300,23931.56 L1301,23862.38 L1302,23793.00 L1303,23725.00 L1304,23655.31 L1305,23586.62 L1306,23514.31 L1307,23447.94 L1308,23378.94 L1309,23309.94 L1310,23240.38 L1311,23171.31 L1312,23102.62 L1313,23036.06 L1314,22966.12 L1315,22897.31 L1316,22828.25 L1317,22759.69 L1318,22690.75 L1319,22623.44 L1320,22553.81 L1321,22485.19 L1322,22416.06 L1323,22347.75 L1324,22276.44 L1325,22215.25 L1326,22142.94 L1327,22078.50 L1328,22007.62 L1329,21938.69 L1330,21869.88 L1331,21801.62 L1332,21734.88 L1333,21662.56 L1334,21595.81 L1335,21529.06 L1336,21460.19 L1337,21389.88 L1338,21321.06 L1339,21252.19 L1340,21183.19 L1341,21114.31 L1342,21046.00 L1343,20976.88 L1344,20910.12 L1345,20837.75 L1346,20771.00 L1347,20698.69 L1348,20631.94 L1349,20565.19 L1350,20492.88 L1351,20426.12 L1352,20353.81 L1353,20288.50 L1354,20218.12 L1355,20155.38 L1356,20085.25 L1357,20017.62 L1358,19948.69 L1359,19879.94 L1360,19812.00 L1361,19742.50 L1362,19673.00 L1363,20865.94 L1364,33603.88 L1365,46827.25 L1366,60221.44 L1367,73319.75 L1368,81549.25 L1369,81549.25 L1370,81549.25 L1371,81549.19 L1372,81549.19 L1373,81550.62 L1374,81550.62 L1375,81550.62 L1376,81550.50 L1377,81550.50 L1378,81550.44 L1379,81550.56 L1380,81550.56 L1381,81550.56 L1382,81506.06 L1383,81294.69 L1384,81077.75 L1385,80863.12 L1386,80646.19 L1387,80430.94 L1388,80191.75 L1389,79919.19 L1390,79635.50 L1391,79413.00 L1392,79196.06 L1393,78979.12 L1394,78756.62 L1395,78534.12 L1396,78317.19 L1397,78094.69 L1398,77872.19 L1399,77655.25 L1400,77432.75 L1401,77210.25 L1402,76987.75 L1403,76765.25 L1404,76531.62 L1405,76303.56 L1406,76075.50 L1407,75853.00 L1408,75624.94 L1409,75402.44 L1410,75179.94 L1411,74956.44 L1412,74728.38 L1413,74506.50 L1414,74300.56 L1415,74055.75 L1416,73811.25 L1417,73570.69 L1418,73333.62 L1419,73094.44 L1420,72856.62 L1421,72610.38 L1422,72376.75 L1423,72132.00 L1424,71892.81 L1425,71653.62 L1426,71403.62 L1427,71164.44 L1428,70926.44 L1429,70687.25 L1430,70448.06 L1431,70208.88 L1432,69969.69 L1433,69724.94 L1434,69485.75 L1435,69246.56 L1436,69001.81 L1437,68762.62 L1438,68523.44 L1439,68278.69 L1440,68039.50 L1441,67833.69 L1442,67650.44 L1443,67413.31 L1444,67174.12 L1445,66951.62 L1446,66736.69 L1447,66510.19 L1448,66298.19 L1449,66086.31 L1450,65870.56 L1451,65658.19 L1452,65438.50 L1453,65227.19 L1454,65010.25 L1455,64798.88 L1456,64584.44 L1457,64368.62 L1458,64154.31 L1459,63935.56 L1460,63711.69 L1461,63494.00 L1462,63268.31 L1463,63046.81 L1464,62830.12 L1465,62590.69 L1466,62348.75 L1467,62094.06 L1468,61849.38 L1469,61603.06 L1470,61352.75 L1471,61096.94 L1472,60818.56 L1473,60557.31 L1474,60301.44 L1475,60045.88 L1476,59772.88 L1477,59517.38 L1478,59255.56 L1479,59000.50 L1480,58740.69 L1481,58474.50 L1482,58226.94 L1483,57958.25 L1484,57696.88 L1485,57428.94 L1486,57159.12 L1487,56903.75 L1488,56624.69 L1489,56352.12 L1490,56090.69 L1491,55834.81 L1492,55578.94 L1493,55345.31 L1494,55095.00 L1495,54822.44 L1496,54561.00 L1497,54299.56 L1498,54048.50 L1499,53810.00 L1500,53554.12 L1501,53303.81 L1502,53077.38 L1503,52832.00 L1504,52564.88 L1505,52297.88 L1506,52036.44 L1507,51769.44 L1508,51496.88 L1509,51229.88 L1510,50962.88 L1511,50695.88 L1512,50434.44 L1513,50167.44 L1514,49889.31 L1515,49622.31 L1516,49349.75 L1517,49082.75 L1518,48821.31 L1519,48559.88 L1520,48315.12 L1521,48075.94 L1522,47829.88 L1523,47574.00 L1524,47334.81 L1525,47090.06 L1526,46850.88 L1527,46606.12 L1528,46361.38 L1529,46105.50 L1530,45855.19 L1531,45604.88 L1532,45360.06 L1533,45113.12 L1534,44857.25 L1535,44568.00 L1536,44301.00 L1537,44039.56 L1538,43772.56 L1539,43488.88 L1540,43221.88 L1541,42949.31 L1542,42682.31 L1543,42432.00 L1544,42187.25 L1545,41925.81 L1546,41676.19 L1547,41401.50 L1548,41140.19 L1549,40867.50 L1550,40594.94 L1551,40339.06 L1552,40066.50 L1553,39799.50 L1554,39532.50 L1555,39271.06 L1556,39009.62 L1557,38748.19 L1558,38470.06 L1559,38197.50 L1560,37924.94 L1561,37657.94 L1562,37399.44 L1563,37134.06 L1564,36872.50 L1565,36622.19 L1566,36360.75 L1567,36099.31 L1568,35837.88 L1569,35582.00 L1570,35326.12 L1571,35070.25 L1572,34814.38 L1573,34558.50 L1574,34297.06 L1575,34041.19 L1576,33785.31 L1577,33529.44 L1578,33256.88 L1579,32995.44 L1580,32728.44 L1581,32467.00 L1582,32205.56 L1583,31949.69 L1584,31688.25 L1585,31460.19 L1586,31221.00 L1587,30981.81 L1588,30748.19 L1589,30509.00 L1590,30269.81 L1591,30052.88 L1592,29806.81 L1593,29573.19 L1594,29321.00 L1595,29081.81 L1596,28842.62 L1597,28603.44 L1598,28364.25 L1599,28091.69 L1600,27833.31 L1601,27567.06 L1602,27286.88 L1603,27008.75 L1604,26758.44 L1605,26508.12 L1606,26257.50 L1607,26007.00 L1608,25765.62 L1609,25520.75 L1610,25273.06 L1611,25026.88 L1612,24788.06 L1613,24546.81 L1614,24263.12 L1615,24004.81 L1616,23732.12 L1617,23465.12 L1618,23192.56 L1619,22920.00 L1620,22653.00 L1621,22374.88 L1622,22102.00 L1623,21829.44 L1624,21562.06 L1625,21283.88 L1626,21011.69 L1627,20722.44 L1628,20450.19 L1629,20172.06 L1630,19894.50 L1631,19616.31 L1632,32366.50 L1633,36964.06 L1634,36974.44 L1635,36976.94 L1636,36973.94" style="vector-effect: non-scaling-stroke; stroke: #00cc00; stroke-width: 1; fill-opacity: 0" transform="scale(0.440098,-0.002018)"/>
<path id="g13p1" d=" M1,99115.12 L2,99115.12 L3,99109.62 L4,99025.62 L5,99019.12 L6,99022.62 L7,99020.06 L8,99011.88 L9,99007.12 L10,99014.31 L11,99018.69 L12,99019.75 L13,99014.31 L14,99014.44 L15,99021.00 L16,99013.56 L17,99022.88 L18,99012.94 L19,99040.88 L20,99030.56 L21,99019.38 L22,99024.69 L23,99019.50 L24,99021.69 L25,99012.56 L26,99012.25 L27,99023.38 L28,99027.12 L29,99020.56 L30,99020.38 L31,99020.12 L32,99015.69 L33,99021.31 L34,99004.06 L35,99004.50 L36,99000.81 L37,99080.62 L38,99069.69 L39,99048.62 L40,99057.88 L41,99068.06 L42,99024.94 L43,99007.75 L44,99015.94 L45,99022.00 L46,99010.06 L47,99015.62 L48,99015.62 L49,99009.81 L50,99008.56 L51,98999.19 L52,99008.56 L53,99002.06 L54,99007.25 L55,99001.62 L56,98996.75 L57,98997.19 L58,99007.62 L59,99007.06 L60,99013.19 L61,99009.62 L62,98993.12 L63,99003.00 L64,99001.75 L65,98999.19 L66,98994.00 L67,98994.06 L68,99018.69 L69,98998.62 L70,98996.44 L71,99001.50 L72,99057.62 L73,99009.44 L74,99001.12 L75,99000.31 L76,98999.25 L77,98998.06 L78,99062.75 L79,99052.81 L80,99048.62 L81,98995.88 L82,98994.31 L83,98997.25 L84,99015.38 L85,98998.56 L86,98992.25 L87,98996.69 L88,99002.56 L89,98996.62 L90,98991.44 L91,98996.38 L92,99000.75 L93,98995.62 L94,99000.62 L95,98999.44 L96,98994.38 L97,98988.81 L98,98987.69 L99,98986.88 L100,98996.12 L101,98991.75 L102,99048.38 L103,98987.88 L104,98993.31 L105,98992.50 L106,99003.56 L107,98981.69 L108,99056.94 L109,99046.38 L110,99048.19 L111,98991.06 L112,98993.12 L113,98987.25 L114,98992.75 L115,98987.25 L116,98983.75 L117,98992.38 L118,98981.44 L119,98982.25 L120,98987.19 L121,98987.56 L122,98975.50 L123,98982.12 L124,98987.81 L125,98981.81 L126,98987.50 L127,98982.25 L128,98989.38 L129,98999.12 L130,98989.69 L131,98992.94 L132,99049.12 L133,99005.19 L134,98988.50 L135,98993.81 L136,99003.62 L137,98994.00 L138,99016.00 L139,99055.75 L140,99047.00 L141,99004.19 L142,98997.50 L143,98987.62 L144,98992.75 L145,98998.00 L146,99009.00 L147,98993.69 L148,99008.00 L149,98994.00 L150,98998.75 L151,99006.75 L152,98987.69 L153,99004.31 L154,99010.81 L155,98993.31 L156,98993.69 L157,98994.75 L158,98987.69 L159,98996.69 L160,98988.31 L161,98992.75 L162,98993.19 L163,98988.94 L164,98988.50 L165,98988.12 L166,99000.38 L167,98993.81 L168,99054.12 L169,99059.56 L170,99043.44 L171,99002.62 L172,99015.62 L173,98991.06 L174,99010.06 L175,98987.44 L176,98998.19 L177,98998.06 L178,98997.88 L179,98986.69 L180,99001.81 L181,99003.50 L182,98996.00 L183,98998.75 L184,98993.12 L185,98998.38 L186,98997.88 L187,98992.56 L188,98993.31 L189,98986.81 L190,98992.94 L191,98993.00 L192,98996.00 L193,99003.94 L194,98988.81 L195,98993.50 L196,98993.62 L197,98999.06 L198,99048.81 L199,99005.81 L200,99044.44 L201,98995.25 L202,98988.06 L203,98998.38 L204,99000.19 L205,98995.12 L206,98992.94 L207,98992.38 L208,98993.12 L209,98987.31 L210,98997.62 L211,98981.38 L212,98995.50 L213,98986.94 L214,98993.00 L215,98997.94 L216,98991.94 L217,98992.06 L218,98988.31 L219,98997.81 L220,98990.50 L221,98998.44 L222,98996.31 L223,98993.19 L224,99004.50 L225,99001.75 L226,98998.94 L227,98992.31 L228,99052.06 L229,98987.12 L230,99007.88 L231,98991.00 L232,99007.88 L233,99036.94 L234,99052.25 L235,99048.94 L236,99054.81 L237,98992.62 L238,98990.94 L239,99003.06 L240,98992.81 L241,99003.12 L242,98998.12 L243,98998.31 L244,98998.94 L245,98992.50 L246,98993.56 L247,98993.62 L248,99004.06 L249,98996.88 L250,99009.75 L251,99008.81 L252,98992.56 L253,98999.25 L254,98998.88 L255,98992.56 L256,99008.31 L257,98993.50 L258,99043.25 L259,98994.06 L260,98986.75 L261,98993.56 L262,98993.62 L263,98987.25 L264,99043.62 L265,99044.56 L266,98990.12 L267,98999.25 L268,98988.62 L269,98988.88 L270,98982.44 L271,99003.12 L272,98993.00 L273,98988.75 L274,98998.25 L275,98988.81 L276,98999.25 L277,98988.25 L278,99005.06 L279,98999.00 L280,98993.75 L281,98987.94 L282,98987.56 L283,99005.06 L284,98998.06 L285,98992.50 L286,99010.50 L287,98999.12 L288,98992.56 L289,98987.38 L290,99010.25 L291,99011.69 L292,99000.38 L293,99001.56 L294,99006.94 L295,98989.62 L296,99048.94 L297,99010.62 L298,99038.56 L299,98986.75 L300,98991.19 L301,99001.62 L302,98991.31 L303,98991.81 L304,98985.44 L305,98990.69 L306,98991.31 L307,99002.12 L308,98995.81 L309,98985.56 L310,98985.31 L311,98985.50 L312,98990.94 L313,98986.12 L314,98996.31 L315,98985.62 L316,98981.81 L317,98992.50 L318,98992.75 L319,98987.56 L320,99004.00 L321,99048.88 L322,99004.50 L323,98993.56 L324,99002.81 L325,98988.06 L326,98994.25 L327,99044.69 L328,99041.50 L329,98991.31 L330,98988.81 L331,99010.25 L332,98987.75 L333,98996.38 L334,98987.25 L335,98988.19 L336,98992.06 L337,98993.56 L338,98992.88 L339,98987.88 L340,98987.81 L341,98987.94 L342,99003.31 L343,98997.94 L344,98981.06 L345,98987.50 L346,99003.25 L347,99004.31 L348,99003.31 L349,98986.75 L350,98988.06 L351,99055.94 L352,98998.12 L353,98987.06 L354,98981.62 L355,99008.88 L356,99003.31 L357,99046.50 L358,99049.56 L359,99007.31 L360,98999.06 L361,98996.31 L362,99003.38 L363,98998.12 L364,98993.00 L365,99004.25 L366,99007.94 L367,98998.25 L368,98998.75 L369,98992.12 L370,98998.06 L371,98987.19 L372,98992.12 L373,98987.62 L374,99019.94 L375,98991.94 L376,98981.50 L377,98988.50 L378,99004.19 L379,99005.00 L380,98999.00 L381,99018.12 L382,98989.62 L383,98992.25 L384,98991.56 L385,98992.31 L386,98987.06 L387,99049.06 L388,99055.06 L389,98994.31 L390,98987.88 L391,98997.69 L392,98997.69 L393,99003.50 L394,98992.50 L395,99001.38 L396,98992.25 L397,98991.88 L398,98987.50 L399,98986.88 L400,98987.25 L401,99003.38 L402,98981.44 L403,99005.62 L404,98981.75 L405,98993.12 L406,98982.06 L407,98993.12 L408,99021.94 L409,98993.69 L410,98992.75 L411,99004.06 L412,98997.50 L413,99007.44 L414,99006.75 L415,99054.62 L416,98991.25 L417,99008.94 L418,98998.69 L419,99012.88 L420,99001.31 L421,98986.88 L422,98992.38 L423,98997.19 L424,98992.31 L425,98998.38 L426,98987.44 L427,98992.44 L428,98988.44 L429,98997.81 L430,98995.56 L431,98996.88 L432,98986.69 L433,98997.06 L434,98986.56 L435,98997.38 L436,98992.50 L437,98989.44 L438,99025.56 L439,98989.56 L440,99004.75 L441,99005.50 L442,98999.00 L443,98999.56 L444,99050.19 L445,99047.50 L446,98999.06 L447,99000.06 L448,99010.62 L449,98988.19 L450,98982.69 L451,98980.00 L452,98982.25 L453,98986.31 L454,98989.19 L455,98989.00 L456,98982.50 L457,98983.38 L458,98997.81 L459,98993.44 L460,98982.62 L461,98999.19 L462,98987.81 L463,98988.94 L464,98988.88 L465,98988.56 L466,98986.81 L467,98993.62 L468,98981.62 L469,98982.00 L470,98976.81 L471,98998.62 L472,99052.50 L473,98990.00 L474,98989.38 L475,98984.94 L476,98995.69 L477,98985.06 L478,99007.56 L479,99013.62 L480,98990.38 L481,98989.12 L482,98994.81 L483,98999.50 L484,98993.44 L485,99004.69 L486,98988.44 L487,98989.25 L488,98989.00 L489,98994.12 L490,98988.44 L491,98993.12 L492,98993.19 L493,98988.88 L494,98989.75 L495,98989.12 L496,98983.69 L497,98999.88 L498,98987.00 L499,99000.94 L500,99006.12 L501,99000.25 L502,98994.56 L503,99000.50 L504,99050.81 L505,99041.88 L506,98989.94 L507,98991.88 L508,98990.88 L509,98991.62 L510,98992.00 L511,98996.94 L512,98996.88 L513,98986.00 L514,98989.31 L515,98990.81 L516,99002.62 L517,98997.06 L518,98980.12 L519,98991.75 L520,98980.31 L521,98996.38 L522,98986.38 L523,98995.25 L524,98986.56 L525,98986.00 L526,98996.25 L527,98985.56 L528,99022.56 L529,98987.19 L530,98986.75 L531,98991.69 L532,99000.38 L533,98991.75 L534,99054.88 L535,99044.31 L536,98989.06 L537,98991.44 L538,98991.44 L539,98991.00 L540,98980.31 L541,98996.62 L542,98996.38 L543,98985.50 L544,98990.31 L545,98985.31 L546,98997.00 L547,98986.12 L548,98991.12 L549,98996.31 L550,98985.56 L551,98995.94 L552,98996.94 L553,98986.12 L554,98995.94 L555,98996.81 L556,98991.06 L557,98987.31 L558,98995.94 L559,98991.00 L560,98985.31 L561,98996.44 L562,99055.44 L563,98980.38 L564,98995.94 L565,98985.44 L566,99000.12 L567,98984.50 L568,99042.25 L569,99055.88 L570,98984.19 L571,98991.00 L572,98986.69 L573,98996.00 L574,99002.25 L575,98986.31 L576,98991.06 L577,98995.81 L578,98992.19 L579,98981.25 L580,98986.12 L581,98995.56 L582,98991.69 L583,98985.38 L584,98985.50 L585,98993.75 L586,98990.00 L587,98990.44 L588,99002.81 L589,98989.38 L590,98992.38 L591,98998.06 L592,99004.69 L593,98992.69 L594,99055.88 L595,99030.50 L596,99047.44 L597,99004.44 L598,98997.38 L599,98986.38 L600,98989.31 L601,98986.38 L602,98980.44 L603,98985.75 L604,98991.25 L605,98991.12 L606,99000.44 L607,98996.44 L608,98996.12 L609,98990.44 L610,98984.88 L611,98990.06 L612,98990.44 L613,98990.88 L614,98988.50 L615,98986.75 L616,98996.06 L617,98990.00 L618,98996.56 L619,98990.88 L620,98991.25 L621,99012.81 L622,98990.25 L623,99041.38 L624,98980.50 L625,98996.25 L626,99005.06 L627,99000.50 L628,98991.50 L629,99027.38 L630,99042.44 L631,98983.00 L632,98986.88 L633,98980.12 L634,99002.25 L635,98986.06 L636,98985.62 L637,99007.75 L638,98992.31 L639,98980.94 L640,98990.50 L641,98987.00 L642,98979.19 L643,98996.38 L644,98986.00 L645,99007.75 L646,98990.75 L647,99001.88 L648,98990.75 L649,98984.56 L650,98989.94 L651,98989.69 L652,99001.06 L653,99043.69 L654,98987.81 L655,98985.31 L656,98979.94 L657,98989.88 L658,98996.88 L659,99040.69 L660,99029.00 L661,98993.50 L662,98991.19 L663,98996.31 L664,98985.88 L665,98988.88 L666,98980.12 L667,98990.75 L668,98990.50 L669,98994.94 L670,98990.88 L671,98985.31 L672,98991.38 L673,98991.25 L674,98985.31 L675,98985.56 L676,98984.88 L677,98990.88 L678,99010.31 L679,99049.69 L680,98990.56 L681,98986.75 L682,98996.62 L683,98984.94 L684,98991.06 L685,99046.25 L686,99029.94 L687,98996.25 L688,98996.94 L689,98995.62 L690,98990.81 L691,98979.81 L692,98984.94 L693,98998.38 L694,98995.75 L695,98996.25 L696,98990.69 L697,98985.00 L698,98993.12 L699,98990.50 L700,98989.88 L701,98984.75 L702,98990.56 L703,98983.25 L704,98984.94 L705,98990.31 L706,99001.62 L707,98990.38 L708,98990.50 L709,99003.81 L710,98991.62 L711,98990.44 L712,99001.62 L713,98990.75 L714,98994.19 L715,99008.31 L716,99046.38 L717,98982.75 L718,98986.62 L719,98991.38 L720,98985.62 L721,99001.50 L722,98991.31 L723,98980.50 L724,98980.31 L725,98991.62 L726,98980.06 L727,98992.19 L728,98980.69 L729,98980.44 L730,98977.75 L731,98981.12 L732,98986.50 L733,98984.69 L734,99002.19 L735,98986.56 L736,98986.69 L737,98986.81 L738,98998.06 L739,99045.25 L740,98982.19 L741,98979.12 L742,98989.88 L743,99006.38 L744,98990.06 L745,99057.75 L746,99020.94 L747,98981.06 L748,98986.56 L749,99073.62 L750,99009.94 L751,99008.56 L752,99007.50 L753,99008.06 L754,99007.75 L755,99013.06 L756,99002.00 L757,99007.25 L758,99007.31 L759,99013.38 L760,99007.62 L761,99007.38 L762,99007.94 L763,99007.75 L764,99007.44 L765,99007.38 L766,99013.56 L767,99007.81 L768,99013.19 L769,99013.19 L770,99007.50 L771,99012.94 L772,99007.12 L773,99013.44 L774,99007.81 L775,99005.69 L776,98996.00 L777,99005.94 L778,99005.75 L779,99005.50 L780,98993.81 L781,99000.06 L782,99000.50 L783,98999.88 L784,99000.25 L785,99005.69 L786,99000.00 L787,98999.94 L788,99005.50 L789,99005.31 L790,98999.69 L791,98999.69 L792,99000.38 L793,99000.38 L794,99005.94 L795,99000.44 L796,99005.94 L797,99005.88 L798,99005.88 L799,99000.31 L800,99005.81 L801,98994.12 L802,99000.19 L803,99000.00 L804,99000.31 L805,99000.25 L806,99006.00 L807,98998.31 L808,99002.25 L809,98996.44 L810,98998.62 L811,99001.50 L812,98994.94 L813,99000.50 L814,98999.56 L815,99000.19 L816,99001.56 L817,99001.62 L818,99002.12 L819,99001.00 L820,99001.12 L821,98995.44 L822,99000.62 L823,98994.88 L824,99002.19 L825,98997.12 L826,99002.19 L827,99002.38 L828,99002.50 L829,99003.19 L830,98998.00 L831,98997.44 L832,99003.25 L833,99003.25 L834,99002.62 L835,98996.50 L836,99002.12 L837,98996.88 L838,98996.81 L839,98997.06 L840,98998.19 L841,98998.12 L842,98992.75 L843,98992.25 L844,98998.25 L845,98993.31 L846,98998.25 L847,98998.69 L848,98992.44 L849,98998.44 L850,98997.81 L851,98997.56 L852,98992.75 L853,98998.12 L854,98992.75 L855,98998.31 L856,98992.75 L857,98987.19 L858,98992.75 L859,98992.75 L860,98987.31 L861,98992.81 L862,98992.62 L863,98992.62 L864,98993.00 L865,98998.56 L866,98992.50 L867,98997.31 L868,98998.06 L869,98991.88 L870,98991.19 L871,98992.19 L872,98991.94 L873,98991.94 L874,98991.94 L875,98991.94 L876,98991.94 L877,98991.88 L878,98997.50 L879,98991.44 L880,98992.06 L881,98991.31 L882,98986.25 L883,98992.06 L884,98986.38 L885,98986.75 L886,98992.31 L887,98991.75 L888,98991.50 L889,98997.56 L890,98992.00 L891,98992.50 L892,98992.00 L893,98987.12 L894,98992.38 L895,98992.19 L896,98992.56 L897,98992.19 L898,98986.56 L899,98997.50 L900,98997.44 L901,98997.06 L902,98997.81 L903,98992.00 L904,98992.12 L905,98985.88 L906,98992.12 L907,98991.56 L908,98986.12 L909,98992.00 L910,98992.00 L911,98992.75 L912,98997.31 L913,98991.38 L914,98990.81 L915,98991.06 L916,98991.00 L917,98991.62 L918,98992.19 L919,98991.75 L920,98992.06 L921,98991.69 L922,98986.69 L923,98991.56 L924,98992.12 L925,98991.81 L926,98992.44 L927,98991.25 L928,98992.12 L929,98991.81 L930,98992.25 L931,98991.38 L932,98992.25 L933,98985.94 L934,98991.88 L935,98992.06 L936,98991.81 L937,98997.06 L938,98980.50 L939,98951.19 L940,98927.56 L941,98927.38 L942,98926.81 L943,98928.19 L944,98927.69 L945,98927.31 L946,98926.81 L947,98927.94 L948,98927.38 L949,98921.56 L950,98921.81 L951,98927.38 L952,98927.19 L953,98927.31 L954,98927.00 L955,98927.50 L956,98926.88 L957,98928.19 L958,98928.00 L959,98928.00 L960,98927.62 L961,98926.44 L962,98915.31 L963,98923.94 L964,98926.88 L965,98920.81 L966,98921.50 L967,98927.00 L968,98928.19 L969,98927.88 L970,98927.94 L971,98927.38 L972,98927.50 L973,98916.12 L974,98927.25 L975,98927.50 L976,98928.25 L977,98928.44 L978,98927.69 L979,98929.06 L980,99023.62 L981,99056.56 L982,99056.56 L983,99056.56 L984,99056.56 L985,99056.56 L986,99056.56 L987,99056.56 L988,99056.56 L989,99056.56 L990,99056.56 L991,99056.56 L992,99056.56 L993,99056.56 L994,99056.56 L995,99056.56 L996,99056.56 L997,99056.56 L998,99056.56 L999,99056.56 L1000,99054.50 L1001,99068.12 L1002,99068.12 L1003,99068.12 L1004,99068.12 L1005,99067.94 L1006,99070.06 L1007,99070.06 L1008,99070.06 L1009,99070.06 L1010,99070.06 L1011,99070.06 L1012,99070.06 L1013,99067.56 L1014,99067.56 L1015,99067.75 L1016,99067.75 L1017,99067.75 L1018,99067.75 L1019,99067.75 L1020,99067.75 L1021,99067.75 L1022,99067.75 L1023,99067.75 L1024,99067.75 L1025,99067.75 L1026,99067.75 L1027,99067.75 L1028,99067.75 L1029,99067.75 L1030,99067.75 L1031,99067.75 L1032,99067.75 L1033,99067.75 L1034,99067.75 L1035,99067.75 L1036,99067.75 L1037,99067.75 L1038,99067.75 L1039,99067.75 L1040,99067.75 L1041,99067.75 L1042,99067.75 L1043,99067.75 L1044,99067.75 L1045,99067.75 L1046,99067.75 L1047,99067.75 L1048,99067.75 L1049,99067.75 L1050,99068.62 L1051,99068.62 L1052,99068.62 L1053,99068.56 L1054,99068.44 L1055,99068.44 L1056,99068.44 L1057,99068.44 L1058,99068.44 L1059,99068.44 L1060,99068.44 L1061,99068.44 L1062,99068.31 L1063,99068.31 L1064,99069.31 L1065,99069.19 L1066,99070.31 L1067,99069.94 L1068,99069.94 L1069,99069.94 L1070,99069.94 L1071,99069.94 L1072,99069.94 L1073,99069.94 L1074,99069.94 L1075,99069.94 L1076,99069.94 L1077,99069.94 L1078,99069.94 L1079,99069.94 L1080,99069.94 L1081,99069.94 L1082,99069.94 L1083,99069.94 L1084,99069.94 L1085,99069.94 L1086,99069.94 L1087,99069.94 L1088,99069.94 L1089,99069.94 L1090,99069.94 L1091,99069.94 L1092,99069.94 L1093,99069.94 L1094,99069.94 L1095,99069.94 L1096,99069.94 L1097,99069.94 L1098,99069.94 L1099,99071.19 L1100,99071.19 L1101,99071.19 L1102,99071.19 L1103,99071.19 L1104,99071.19 L1105,99071.19 L1106,99071.19 L1107,99071.19 L1108,99071.19 L1109,99071.19 L1110,99071.19 L1111,99056.88 L1112,99056.44 L1113,99061.88 L1114,99056.31 L1115,99061.88 L1116,99056.31 L1117,99056.31 L1118,99061.75 L1119,99061.81 L1120,99056.19 L1121,99061.75 L1122,99061.75 L1123,99061.75 L1124,99056.19 L1125,99061.75 L1126,99056.19 L1127,99056.19 L1128,99061.75 L1129,99056.19 L1130,99056.19 L1131,99061.75 L1132,99056.19 L1133,99056.19 L1134,99056.19 L1135,99056.19 L1136,99056.19 L1137,99061.56 L1138,99060.88 L1139,99055.31 L1140,99055.38 L1141,99060.88 L1142,99055.38 L1143,99061.31 L1144,99061.19 L1145,99061.06 L1146,99060.94 L1147,99055.38 L1148,99060.94 L1149,99060.50 L1150,99060.75 L1151,99061.12 L1152,99060.44 L1153,99060.75 L1154,99060.38 L1155,99060.50 L1156,99061.00 L1157,99055.56 L1158,99060.75 L1159,99060.44 L1160,99061.00 L1161,99061.06 L1162,99060.38 L1163,99060.62 L1164,99061.00 L1165,99060.50 L1166,99060.31 L1167,99060.44 L1168,99060.50 L1169,99061.06 L1170,99060.38 L1171,99060.44 L1172,99060.44 L1173,99060.44 L1174,99060.50 L1175,99060.94 L1176,99061.19 L1177,99061.00 L1178,99060.69 L1179,99061.00 L1180,99061.19 L1181,99059.94 L1182,99054.38 L1183,99059.38 L1184,99059.44 L1185,99054.06 L1186,99059.88 L1187,99059.69 L1188,99059.56 L1189,99059.50 L1190,99060.00 L1191,99054.56 L1192,99059.38 L1193,99059.25 L1194,99053.69 L1195,99053.44 L1196,99053.19 L1197,99059.00 L1198,99053.31 L1199,99053.56 L1200,99059.12 L1201,99053.81 L1202,99053.38 L1203,99059.19 L1204,99053.81 L1205,99059.12 L1206,99053.75 L1207,99058.94 L1208,99053.56 L1209,99059.56 L1210,99054.19 L1211,99053.62 L1212,99054.12 L1213,99059.44 L1214,99059.75 L1215,99053.69 L1216,99053.50 L1217,99059.06 L1218,99054.19 L1219,99059.31 L1220,99058.94 L1221,99053.50 L1222,99053.75 L1223,99053.88 L1224,99059.06 L1225,99053.50 L1226,99058.88 L1227,99058.88 L1228,99058.94 L1229,99053.75 L1230,99059.38 L1231,99059.25 L1232,99053.44 L1233,99053.75 L1234,99059.31 L1235,99054.12 L1236,99059.12 L1237,99053.94 L1238,99053.75 L1239,99053.69 L1240,99059.12 L1241,99059.25 L1242,99059.25 L1243,99059.94 L1244,99059.88 L1245,99059.62 L1246,99059.56 L1247,99059.94 L1248,99059.25 L1249,99053.88 L1250,99059.31 L1251,99054.31 L1252,99054.19 L1253,99058.81 L1254,99059.50 L1255,99059.12 L1256,99059.38 L1257,99058.75 L1258,99053.56 L1259,99053.50 L1260,99053.38 L1261,99053.31 L1262,99059.50 L1263,99059.81 L1264,99059.50 L1265,99053.94 L1266,99059.81 L1267,99059.69 L1268,99059.75 L1269,99059.69 L1270,99059.31 L1271,99059.94 L1272,99059.56 L1273,99059.62 L1274,99059.50 L1275,99059.56 L1276,99059.75 L1277,99059.44 L1278,99059.88 L1279,99059.56 L1280,99060.00 L1281,99060.00 L1282,99060.12 L1283,99059.94 L1284,99059.88 L1285,99059.50 L1286,99059.81 L1287,99060.06 L1288,99059.94 L1289,99059.50 L1290,99059.56 L1291,99059.50 L1292,99059.50 L1293,99059.94 L1294,99060.25 L1295,99060.12 L1296,99060.44 L1297,99060.00 L1298,99060.19 L1299,99054.62 L1300,99060.44 L1301,99060.38 L1302,99054.50 L1303,99060.31 L1304,99059.81 L1305,99059.94 L1306,99054.38 L1307,99059.62 L1308,99059.69 L1309,99059.75 L1310,99060.19 L1311,99060.19 L1312,99059.88 L1313,99059.88 L1314,99059.75 L1315,99060.00 L1316,99060.00 L1317,99059.62 L1318,99059.81 L1319,99059.69 L1320,99060.25 L1321,99059.81 L1322,99059.81 L1323,99059.69 L1324,99058.25 L1325,99059.94 L1326,99054.38 L1327,99059.44 L1328,99058.81 L1329,99058.94 L1330,99059.19 L1331,99059.12 L1332,99059.12 L1333,99053.56 L1334,99053.56 L1335,99059.12 L1336,99059.50 L1337,99059.31 L1338,99058.75 L1339,99058.88 L1340,99058.94 L1341,99059.19 L1342,99059.12 L1343,99059.06 L1344,99059.06 L1345,99053.50 L1346,99053.50 L1347,99053.50 L1348,99053.50 L1349,99053.50 L1350,99059.06 L1351,99059.06 L1352,99053.50 L1353,99058.88 L1354,99058.69 L1355,99061.06 L1356,99054.12 L1357,99054.69 L1358,99054.88 L1359,99059.88 L1360,99060.19 L1361,99059.81 L1362,99054.75 L1363,99071.50 L1364,99066.00 L1365,99066.69 L1366,99066.69 L1367,99061.12 L1368,99071.38 L1369,99071.38 L1370,99071.38 L1371,99071.31 L1372,99071.31 L1373,99071.69 L1374,99071.69 L1375,99071.69 L1376,99071.56 L1377,99071.56 L1378,99071.50 L1379,99071.69 L1380,99071.69 L1381,99071.69 L1382,99066.12 L1383,99066.12 L1384,99066.12 L1385,99069.88 L1386,99069.88 L1387,99064.75 L1388,99064.75 L1389,99070.31 L1390,99070.31 L1391,99064.75 L1392,99064.75 L1393,99064.75 L1394,99064.75 L1395,99064.75 L1396,99070.31 L1397,99070.31 L1398,99064.75 L1399,99070.31 L1400,99070.31 L1401,99070.31 L1402,99070.31 L1403,99070.31 L1404,99064.75 L1405,99070.31 L1406,99064.75 L1407,99070.31 L1408,99064.75 L1409,99064.75 L1410,99070.31 L1411,99069.62 L1412,99069.62 L1413,99064.88 L1414,99064.75 L1415,99053.56 L1416,99048.25 L1417,99048.50 L1418,99056.25 L1419,99056.25 L1420,99058.62 L1421,99057.12 L1422,99057.12 L1423,99051.56 L1424,99057.12 L1425,99057.12 L1426,99053.44 L1427,99059.38 L1428,99060.56 L1429,99060.56 L1430,99055.00 L1431,99055.00 L1432,99060.56 L1433,99055.00 L1434,99055.00 L1435,99060.56 L1436,99055.00 L1437,99055.00 L1438,99055.00 L1439,99055.00 L1440,99060.56 L1441,99065.38 L1442,99059.94 L1443,99068.00 L1444,99062.44 L1445,99068.00 L1446,99059.56 L1447,99064.81 L1448,99067.31 L1449,99061.81 L1450,99066.81 L1451,99066.25 L1452,99068.94 L1453,99069.38 L1454,99063.81 L1455,99069.31 L1456,99069.31 L1457,99066.19 L1458,99071.75 L1459,99065.69 L1460,99064.31 L1461,99062.94 L1462,99061.56 L1463,99060.88 L1464,99063.81 L1465,99063.56 L1466,99065.44 L1467,99060.50 L1468,99066.06 L1469,99066.56 L1470,99066.56 L1471,99065.62 L1472,99064.50 L1473,99063.94 L1474,99063.25 L1475,99062.69 L1476,99063.44 L1477,99063.25 L1478,99063.88 L1479,99064.12 L1480,99063.75 L1481,99061.88 L1482,99070.00 L1483,99069.44 L1484,99069.88 L1485,99069.75 L1486,99069.19 L1487,99070.00 L1488,99057.94 L1489,99057.94 L1490,99057.94 L1491,99057.94 L1492,99063.50 L1493,99063.50 L1494,99063.50 L1495,99057.94 L1496,99057.94 L1497,99057.94 L1498,99064.00 L1499,99064.19 L1500,99064.19 L1501,99064.19 L1502,99062.12 L1503,99063.62 L1504,99063.50 L1505,99057.94 L1506,99063.50 L1507,99057.94 L1508,99063.50 L1509,99057.94 L1510,99063.50 L1511,99057.94 L1512,99057.94 L1513,99057.94 L1514,99063.50 L1515,99063.50 L1516,99057.94 L1517,99057.94 L1518,99063.50 L1519,99063.50 L1520,99063.50 L1521,99057.62 L1522,99063.31 L1523,99063.31 L1524,99063.31 L1525,99063.31 L1526,99063.31 L1527,99057.75 L1528,99057.75 L1529,99057.75 L1530,99057.75 L1531,99063.31 L1532,99059.31 L1533,99064.88 L1534,99064.88 L1535,99059.31 L1536,99059.31 L1537,99059.31 L1538,99064.88 L1539,99064.88 L1540,99059.31 L1541,99064.88 L1542,99059.31 L1543,99064.88 L1544,99059.31 L1545,99053.75 L1546,99066.69 L1547,99066.88 L1548,99067.00 L1549,99061.31 L1550,99061.31 L1551,99061.31 L1552,99066.88 L1553,99066.88 L1554,99061.31 L1555,99061.31 L1556,99061.31 L1557,99061.31 L1558,99066.88 L1559,99061.31 L1560,99066.88 L1561,99061.31 L1562,99061.75 L1563,99066.88 L1564,99066.75 L1565,99066.75 L1566,99066.75 L1567,99061.19 L1568,99061.19 L1569,99066.75 L1570,99066.75 L1571,99066.75 L1572,99066.75 L1573,99066.75 L1574,99061.19 L1575,99061.19 L1576,99061.19 L1577,99066.75 L1578,99061.19 L1579,99066.75 L1580,99061.19 L1581,99066.75 L1582,99066.75 L1583,99066.75 L1584,99061.19 L1585,99066.75 L1586,99066.75 L1587,99066.75 L1588,99066.75 L1589,99061.19 L1590,99061.19 L1591,99061.19 L1592,99061.75 L1593,99061.75 L1594,99066.62 L1595,99061.06 L1596,99061.06 L1597,99066.62 L1598,99061.06 L1599,99066.62 L1600,99068.00 L1601,99068.25 L1602,99060.69 L1603,99060.69 L1604,99060.69 L1605,99055.12 L1606,99057.94 L1607,99063.38 L1608,99063.88 L1609,99063.75 L1610,99058.94 L1611,99064.12 L1612,99064.50 L1613,99065.88 L1614,99060.31 L1615,99066.94 L1616,99066.81 L1617,99061.25 L1618,99061.25 L1619,99066.81 L1620,99066.81 L1621,99061.25 L1622,99059.69 L1623,99059.69 L1624,99066.31 L1625,99066.25 L1626,99060.50 L1627,99060.50 L1628,99064.62 L1629,99059.06 L1630,99059.19 L1631,99064.69 L1632,99065.12 L1633,99066.00 L1634,99076.12 L1635,99078.62 L1636,99075.62" style="vector-effect: non-scaling-stroke; stroke: #ff00bf; stroke-width: 1; fill-opacity: 0" transform="scale(0.440098,-0.002018)"/>
<path id="g13p2" d=" M1,1303.88 L2,1303.88 L3,1309.38 L4,1505.19 L5,1638.69 L6,1756.50 L7,1878.31 L8,1998.69 L9,2126.38 L10,2236.38 L11,2358.38 L12,2473.19 L13,2599.62 L14,2716.62 L15,2831.19 L16,2963.00 L17,3055.44 L18,3150.88 L19,3234.44 L20,3338.75 L21,3446.81 L22,3535.81 L23,3635.38 L24,3754.19 L25,3873.56 L26,3993.56 L27,4104.62 L28,4221.00 L29,4348.25 L30,4470.62 L31,4582.00 L32,4713.00 L33,4824.50 L34,4955.88 L35,5077.88 L36,5200.00 L37,5193.94 L38,5216.00 L39,5273.12 L40,5286.38 L41,5296.19 L42,5399.19 L43,5529.12 L44,5640.19 L45,5755.44 L46,5883.19 L47,6000.81 L48,6115.69 L49,6242.19 L50,6355.38 L51,6483.56 L52,6604.69 L53,6721.19 L54,6837.69 L55,6963.00 L56,7084.44 L57,7199.88 L58,7307.44 L59,7422.94 L60,7532.62 L61,7653.06 L62,7783.69 L63,7884.88 L64,8001.69 L65,8122.00 L66,8246.06 L67,8368.25 L68,8458.56 L69,8587.19 L70,8708.31 L71,8827.62 L72,8864.19 L73,8981.38 L74,9101.19 L75,9213.88 L76,9336.00 L77,9453.06 L78,9470.56 L79,9502.25 L80,9552.19 L81,9667.44 L82,9780.31 L83,9888.38 L84,9992.44 L85,10121.19 L86,10243.88 L87,10357.81 L88,10469.25 L89,10598.12 L90,10716.75 L91,10827.75 L92,10945.88 L93,11064.31 L94,11173.56 L95,11287.69 L96,11405.81 L97,11526.62 L98,11642.50 L99,11765.44 L100,11868.25 L101,11990.25 L102,12022.06 L103,12139.44 L104,12245.25 L105,12358.56 L106,12466.31 L107,12598.25 L108,12633.44 L109,12655.12 L110,12695.69 L111,12814.56 L112,12923.75 L113,13042.19 L114,13154.62 L115,13269.44 L116,13392.69 L117,13495.81 L118,13625.31 L119,13731.44 L120,13838.31 L121,13947.44 L122,14073.06 L123,14190.12 L124,14298.62 L125,14418.31 L126,14525.94 L127,14644.62 L128,14758.62 L129,14865.00 L130,14987.38 L131,15102.81 L132,15159.31 L133,15242.31 L134,15370.25 L135,15481.38 L136,15585.44 L137,15712.12 L138,15771.50 L139,15754.31 L140,15793.75 L141,15917.44 L142,16029.19 L143,16152.38 L144,16265.62 L145,16373.75 L146,16480.44 L147,16609.88 L148,16709.88 L149,16841.44 L150,16942.88 L151,17056.31 L152,17190.25 L153,17288.62 L154,17396.62 L155,17530.31 L156,17641.44 L157,17753.81 L158,17875.06 L159,17979.88 L160,18098.44 L161,18213.62 L162,18316.19 L163,18376.75 L164,18482.88 L165,18596.00 L166,18701.31 L167,18822.56 L168,18859.06 L169,18889.94 L170,18928.31 L171,19038.50 L172,19136.12 L173,19271.75 L174,19366.69 L175,19504.56 L176,19605.88 L177,19719.25 L178,19831.62 L179,19951.62 L180,20047.19 L181,20164.44 L182,20278.69 L183,20393.31 L184,20511.94 L185,20615.12 L186,20728.88 L187,20848.31 L188,20960.94 L189,21075.56 L190,21162.31 L191,21279.00 L192,21389.12 L193,21421.62 L194,21554.88 L195,21665.62 L196,21777.38 L197,21886.06 L198,21929.62 L199,22005.69 L200,21998.88 L201,22110.44 L202,22228.69 L203,22333.25 L204,22443.81 L205,22553.62 L206,22668.19 L207,22782.19 L208,22893.00 L209,23007.81 L210,23108.81 L211,23235.44 L212,23340.56 L213,23457.19 L214,23568.88 L215,23675.69 L216,23789.31 L217,23903.19 L218,24016.50 L219,24118.75 L220,24242.88 L221,24346.88 L222,24462.44 L223,24579.25 L224,24677.12 L225,24788.25 L226,24908.56 L227,25026.94 L228,25002.00 L229,25182.81 L230,25273.31 L231,25395.88 L232,25490.25 L233,25565.38 L234,25578.50 L235,25594.75 L236,25625.94 L237,25778.75 L238,25890.69 L239,25991.00 L240,26105.81 L241,26205.38 L242,26325.44 L243,26433.75 L244,26541.31 L245,26656.81 L246,26759.94 L247,26823.44 L248,26924.81 L249,27036.75 L250,27131.12 L251,27242.38 L252,27362.31 L253,27467.75 L254,27582.19 L255,27694.69 L256,27784.62 L257,27907.50 L258,27894.00 L259,28035.56 L260,28132.25 L261,28243.00 L262,28352.00 L263,28459.69 L264,28423.75 L265,28455.81 L266,28604.12 L267,28705.75 L268,28823.00 L269,28937.44 L270,29042.94 L271,29134.19 L272,29250.62 L273,29363.94 L274,29463.56 L275,29577.31 L276,29675.31 L277,29790.25 L278,29883.62 L279,30001.88 L280,30105.19 L281,30221.31 L282,30318.50 L283,30415.25 L284,30532.31 L285,30643.19 L286,30732.12 L287,30851.00 L288,30958.38 L289,31075.62 L290,31152.88 L291,31241.12 L292,31358.12 L293,31464.94 L294,31569.25 L295,31689.25 L296,31684.06 L297,31759.06 L298,31748.81 L299,31902.12 L300,32002.38 L301,32098.06 L302,32215.38 L303,32324.38 L304,32434.56 L305,32543.38 L306,32647.88 L307,32750.81 L308,32867.44 L309,32986.69 L310,33096.06 L311,33205.62 L312,33309.31 L313,33423.88 L314,33522.75 L315,33636.06 L316,33731.81 L317,33833.44 L318,33939.56 L319,34053.44 L320,34150.81 L321,34142.50 L322,34292.38 L323,34408.00 L324,34509.00 L325,34628.50 L326,34708.56 L327,34680.38 L328,34713.62 L329,34869.81 L330,34986.31 L331,35073.88 L332,35205.00 L333,35301.69 L334,35412.50 L335,35506.25 L336,35615.81 L337,35712.62 L338,35824.38 L339,35937.06 L340,36046.38 L341,36153.44 L342,36249.81 L343,36365.75 L344,36478.75 L345,36582.56 L346,36676.00 L347,36786.94 L348,36890.88 L349,37016.56 L350,37120.06 L351,37115.56 L352,37248.62 L353,37365.38 L354,37476.31 L355,37566.62 L356,37672.31 L357,37676.50 L358,37694.31 L359,37804.06 L360,37918.19 L361,38025.44 L362,38120.56 L363,38235.31 L364,38339.44 L365,38436.94 L366,38539.25 L367,38656.12 L368,38762.50 L369,38876.25 L370,38977.19 L371,39099.94 L372,39201.12 L373,39314.50 L374,39392.81 L375,39530.94 L376,39626.75 L377,39735.25 L378,39826.38 L379,39934.19 L380,40041.81 L381,40101.56 L382,40201.06 L383,40304.12 L384,40415.06 L385,40512.06 L386,40630.25 L387,40631.62 L388,40657.81 L389,40775.69 L390,40888.00 L391,40987.25 L392,41094.62 L393,41193.19 L394,41315.31 L395,41421.88 L396,41535.69 L397,41644.50 L398,41748.88 L399,41861.62 L400,41974.31 L401,42065.75 L402,42170.56 L403,42264.25 L404,42382.50 L405,42480.50 L406,42595.38 L407,42694.81 L408,42742.31 L409,42840.69 L410,42949.19 L411,43045.00 L412,43156.88 L413,43257.81 L414,43320.12 L415,43296.81 L416,43420.69 L417,43514.88 L418,43632.69 L419,43729.00 L420,43849.06 L421,43970.12 L422,44071.06 L423,44165.12 L424,44279.25 L425,44371.75 L426,44492.12 L427,44596.50 L428,44701.94 L429,44798.25 L430,44905.94 L431,45012.88 L432,45121.06 L433,45221.38 L434,45342.12 L435,45439.88 L436,45551.12 L437,45660.56 L438,45704.62 L439,45808.38 L440,45882.19 L441,45979.31 L442,46086.12 L443,46188.81 L444,46191.06 L445,46211.62 L446,46330.50 L447,46436.12 L448,46528.19 L449,46654.81 L450,46762.12 L451,46869.06 L452,46963.69 L453,47061.12 L454,47165.12 L455,47266.50 L456,47365.00 L457,47454.19 L458,47532.94 L459,47648.00 L460,47762.25 L461,47849.12 L462,47950.94 L463,48053.81 L464,48162.56 L465,48265.19 L466,48376.12 L467,48479.19 L468,48586.44 L469,48697.25 L470,48804.62 L471,48895.75 L472,48891.75 L473,49053.62 L474,49171.31 L475,49277.19 L476,49380.12 L477,49489.25 L478,49500.44 L479,49528.06 L480,49658.62 L481,49756.88 L482,49856.56 L483,49945.81 L484,50047.00 L485,50151.06 L486,50265.50 L487,50365.88 L488,50472.56 L489,50575.44 L490,50676.75 L491,50779.81 L492,50880.88 L493,50990.00 L494,51098.44 L495,51207.44 L496,51309.00 L497,51388.19 L498,51502.62 L499,51548.75 L500,51643.69 L501,51746.06 L502,51863.12 L503,51954.19 L504,51979.75 L505,52015.50 L506,52115.44 L507,52224.56 L508,52327.75 L509,52435.31 L510,52543.06 L511,52641.12 L512,52748.75 L513,52856.56 L514,52961.19 L515,53073.31 L516,53156.19 L517,53257.62 L518,53363.56 L519,53454.12 L520,53557.25 L521,53648.00 L522,53769.25 L523,53854.38 L524,53963.38 L525,54059.25 L526,54151.00 L527,54270.12 L528,54330.62 L529,54420.75 L530,54521.31 L531,54631.56 L532,54726.31 L533,54841.94 L534,54864.12 L535,54898.69 L536,54997.50 L537,55107.00 L538,55215.31 L539,55323.38 L540,55437.50 L541,55522.31 L542,55630.75 L543,55750.19 L544,55848.19 L545,55961.69 L546,56058.88 L547,56178.62 L548,56276.00 L549,56385.00 L550,56493.06 L551,56588.25 L552,56696.31 L553,56816.44 L554,56915.38 L555,57023.38 L556,57138.19 L557,57249.75 L558,57344.31 L559,57456.94 L560,57570.94 L561,57669.88 L562,57696.88 L563,57828.12 L564,57921.31 L565,58039.50 L566,58132.31 L567,58250.62 L568,58268.94 L569,58276.69 L570,58389.06 L571,58490.19 L572,58605.50 L573,58699.25 L574,58807.62 L575,58926.31 L576,59030.69 L577,59141.00 L578,59245.88 L579,59362.19 L580,59461.88 L581,59568.44 L582,59678.06 L583,59786.88 L584,59888.06 L585,59990.88 L586,60105.38 L587,60208.81 L588,60301.38 L589,60364.31 L590,60473.44 L591,60574.62 L592,60671.38 L593,60791.19 L594,60818.12 L595,60868.31 L596,60868.12 L597,61026.19 L598,61140.69 L599,61258.00 L600,61359.00 L601,61460.94 L602,61571.25 L603,61669.50 L604,61774.00 L605,61871.25 L606,61974.19 L607,62086.38 L608,62185.88 L609,62302.75 L610,62410.12 L611,62517.00 L612,62624.88 L613,62727.50 L614,62836.56 L615,62947.06 L616,63050.25 L617,63161.25 L618,63261.69 L619,63371.06 L620,63482.81 L621,63567.94 L622,63691.00 L623,63687.00 L624,63849.19 L625,63949.81 L626,64051.62 L627,64164.56 L628,64264.62 L629,64274.19 L630,64283.38 L631,64423.25 L632,64530.56 L633,64644.00 L634,64730.19 L635,64854.38 L636,64961.25 L637,65053.12 L638,65176.31 L639,65289.38 L640,65390.50 L641,65497.06 L642,65592.62 L643,65697.75 L644,65808.94 L645,65897.19 L646,66016.75 L647,66118.25 L648,66233.19 L649,66341.69 L650,66443.06 L651,66551.62 L652,66648.56 L653,66668.62 L654,66810.19 L655,66918.38 L656,67023.88 L657,67119.62 L658,67218.31 L659,67224.12 L660,67267.81 L661,67370.44 L662,67482.62 L663,67578.69 L664,67696.75 L665,67795.75 L666,67900.44 L667,67995.75 L668,68102.75 L669,68206.06 L670,68317.81 L671,68426.19 L672,68528.44 L673,68636.31 L674,68744.38 L675,68853.50 L676,68961.81 L677,69063.19 L678,69152.25 L679,69150.12 L680,69316.44 L681,69433.00 L682,69529.00 L683,69646.06 L684,69733.25 L685,69708.31 L686,69761.50 L687,69886.75 L688,69991.75 L689,70095.31 L690,70197.88 L691,70290.81 L692,70393.62 L693,70492.69 L694,70598.31 L695,70694.75 L696,70800.19 L697,70918.25 L698,71011.69 L699,71122.44 L700,71230.00 L701,71324.50 L702,71433.31 L703,71534.94 L704,71646.44 L705,71730.62 L706,71829.25 L707,71950.56 L708,72054.31 L709,72107.62 L710,72205.25 L711,72302.81 L712,72402.38 L713,72509.38 L714,72609.69 L715,72658.38 L716,72655.50 L717,72811.50 L718,72914.12 L719,73005.56 L720,73105.75 L721,73200.00 L722,73313.44 L723,73426.19 L724,73527.94 L725,73622.75 L726,73730.25 L727,73837.94 L728,73939.88 L729,74036.62 L730,74140.88 L731,74228.44 L732,74319.25 L733,74421.69 L734,74511.94 L735,74621.94 L736,74723.88 L737,74827.31 L738,74916.56 L739,74939.75 L740,75087.06 L741,75191.69 L742,75284.44 L743,75369.00 L744,75481.31 L745,75471.81 L746,75536.06 L747,75653.00 L748,75750.88 L749,15279.00 L750,15437.00 L751,15700.69 L752,15963.69 L753,16226.00 L754,16491.19 L755,16771.06 L756,17114.44 L757,17403.88 L758,17660.62 L759,17923.00 L760,18191.62 L761,18453.69 L762,18714.19 L763,18979.06 L764,19250.56 L765,19515.38 L766,19781.19 L767,20047.88 L768,20321.88 L769,20595.56 L770,20867.50 L771,21129.44 L772,21399.75 L773,21673.81 L774,21938.38 L775,22202.12 L776,22476.75 L777,22737.38 L778,23005.00 L779,23272.62 L780,23540.25 L781,23815.94 L782,24086.50 L783,24356.88 L784,24629.69 L785,24893.44 L786,25170.12 L787,25446.69 L788,25713.81 L789,25987.88 L790,26260.75 L791,26532.88 L792,26810.31 L793,27086.69 L794,27357.56 L795,27641.19 L796,27911.19 L797,28186.69 L798,28462.25 L799,28742.44 L800,29012.38 L801,29291.38 L802,29569.00 L803,29848.44 L804,30127.94 L805,30410.81 L806,30686.94 L807,30962.25 L808,31243.31 L809,31532.69 L810,31804.25 L811,32070.56 L812,32353.44 L813,32629.62 L814,32912.38 L815,33190.75 L816,33470.19 L817,33752.81 L818,34033.25 L819,34318.81 L820,34602.25 L821,34894.19 L822,35177.06 L823,35468.19 L824,35751.62 L825,36060.88 L826,36351.06 L827,36638.88 L828,36926.81 L829,37235.06 L830,37528.12 L831,37821.25 L832,38108.00 L833,38404.94 L834,38700.12 L835,39005.81 L836,39295.38 L837,39596.75 L838,39899.31 L839,40195.12 L840,40500.94 L841,40792.62 L842,41088.69 L843,41380.88 L844,41669.25 L845,41974.75 L846,42268.00 L847,42561.62 L848,42861.38 L849,43151.69 L850,43452.69 L851,43747.75 L852,44041.81 L853,44336.81 L854,44631.50 L855,44926.31 L856,45221.12 L857,45527.06 L858,45821.88 L859,46122.25 L860,46411.38 L861,46706.25 L862,47012.44 L863,47312.81 L864,47612.81 L865,47906.31 L866,48201.56 L867,48493.94 L868,48783.75 L869,49087.88 L870,49389.00 L871,49677.25 L872,49972.31 L873,50267.12 L874,50561.94 L875,50867.88 L876,51168.25 L877,51463.12 L878,51757.94 L879,52064.38 L880,52367.25 L881,52667.50 L882,52969.06 L883,53276.00 L884,53587.62 L885,53898.69 L886,54201.19 L887,54495.00 L888,54789.75 L889,55081.56 L890,55382.38 L891,55690.75 L892,55993.62 L893,56302.69 L894,56600.69 L895,56905.19 L896,57210.88 L897,57514.56 L898,57810.94 L899,58107.06 L900,58419.06 L901,58725.69 L902,59036.25 L903,59336.88 L904,59630.31 L905,59935.38 L906,60228.88 L907,60523.75 L908,60824.44 L909,61121.12 L910,61415.31 L911,61710.69 L912,62002.31 L913,62304.50 L914,62598.38 L915,62896.00 L916,63189.12 L917,63488.75 L918,63790.62 L919,64089.94 L920,64392.00 L921,64688.31 L922,64992.12 L923,65292.56 L924,65598.12 L925,65897.12 L926,66189.81 L927,66489.94 L928,66787.94 L929,67082.44 L930,67380.75 L931,67681.56 L932,67979.31 L933,68279.06 L934,68574.88 L935,68877.06 L936,69172.38 L937,69471.31 L938,69758.31 L939,70045.75 L940,70324.50 L941,70584.12 L942,70837.81 L943,71095.88 L944,71352.00 L945,71509.50 L946,71676.00 L947,71813.94 L948,71978.75 L949,72117.31 L950,72237.19 L951,72363.69 L952,72488.12 L953,72651.31 L954,72898.19 L955,73141.69 L956,73381.25 L957,73626.62 L958,73864.75 L959,74028.75 L960,74174.81 L961,74309.44 L962,74387.31 L963,74611.81 L964,74800.19 L965,75032.44 L966,75262.38 L967,75489.56 L968,75719.88 L969,75947.19 L970,76103.88 L971,76228.50 L972,76369.06 L973,76475.75 L974,76590.38 L975,76701.50 L976,76812.00 L977,76937.62 L978,77083.81 L979,77296.31 L980,67922.19 L981,63271.88 L982,63271.88 L983,63271.88 L984,63271.88 L985,63271.88 L986,63271.88 L987,63271.88 L988,63271.88 L989,63271.88 L990,63271.88 L991,63271.88 L992,63271.88 L993,63271.88 L994,63271.88 L995,63271.88 L996,63271.88 L997,63271.88 L998,63271.88 L999,63271.88 L1000,63273.38 L1001,63271.12 L1002,63271.12 L1003,63271.12 L1004,63271.12 L1005,63271.31 L1006,63269.19 L1007,63269.25 L1008,63269.25 L1009,63269.25 L1010,63269.25 L1011,63269.25 L1012,63269.25 L1013,63271.75 L1014,63271.75 L1015,63271.62 L1016,63271.62 L1017,63271.62 L1018,63271.62 L1019,63271.62 L1020,63271.62 L1021,63271.62 L1022,63271.62 L1023,63271.62 L1024,63271.62 L1025,63271.62 L1026,63271.62 L1027,63271.62 L1028,63271.62 L1029,63271.62 L1030,63271.62 L1031,63271.62 L1032,63271.62 L1033,63271.62 L1034,63271.62 L1035,63271.62 L1036,63271.62 L1037,63271.62 L1038,63271.62 L1039,63271.62 L1040,63271.62 L1041,63271.62 L1042,63271.62 L1043,63271.62 L1044,63271.62 L1045,63271.62 L1046,63271.62 L1047,63271.62 L1048,63271.62 L1049,63271.62 L1050,63271.00 L1051,63271.00 L1052,63271.00 L1053,63271.06 L1054,63271.19 L1055,63271.19 L1056,63271.19 L1057,63271.19 L1058,63271.19 L1059,63271.19 L1060,63271.19 L1061,63271.19 L1062,63271.38 L1063,63271.38 L1064,63270.44 L1065,63270.56 L1066,63269.44 L1067,63269.81 L1068,63269.81 L1069,63269.81 L1070,63269.81 L1071,63269.81 L1072,63269.81 L1073,63269.81 L1074,63269.81 L1075,63269.81 L1076,63269.81 L1077,63269.81 L1078,63269.81 L1079,63269.81 L1080,63269.81 L1081,63269.81 L1082,63269.81 L1083,63269.81 L1084,63269.81 L1085,63269.81 L1086,63269.81 L1087,63269.81 L1088,63269.81 L1089,63269.81 L1090,63269.81 L1091,63269.81 L1092,63269.81 L1093,63269.81 L1094,63269.81 L1095,63269.81 L1096,63269.81 L1097,63269.81 L1098,63269.81 L1099,63268.81 L1100,63268.81 L1101,63268.81 L1102,63268.81 L1103,63268.81 L1104,63268.81 L1105,63268.81 L1106,63268.81 L1107,63268.81 L1108,63268.81 L1109,63268.81 L1110,63268.81 L1111,63333.62 L1112,63400.81 L1113,63462.12 L1114,63528.88 L1115,63595.62 L1116,63662.38 L1117,63729.12 L1118,63790.44 L1119,63851.62 L1120,63918.44 L1121,63985.19 L1122,64051.94 L1123,64118.69 L1124,64185.44 L1125,64252.19 L1126,64324.50 L1127,64391.31 L1128,64458.06 L1129,64524.81 L1130,64591.56 L1131,64658.31 L1132,64730.62 L1133,64797.38 L1134,64864.12 L1135,64936.50 L1136,65003.25 L1137,65070.44 L1138,65139.31 L1139,65211.62 L1140,65281.38 L1141,65345.00 L1142,65411.38 L1143,65484.00 L1144,65553.25 L1145,65622.44 L1146,65689.38 L1147,65761.69 L1148,65829.69 L1149,65899.25 L1150,65968.06 L1151,66037.69 L1152,66107.50 L1153,66176.25 L1154,66245.75 L1155,66315.62 L1156,66385.06 L1157,66454.94 L1158,66524.38 L1159,66593.81 L1160,66663.25 L1161,66733.19 L1162,66803.00 L1163,66872.69 L1164,66942.31 L1165,67011.88 L1166,67081.19 L1167,67151.06 L1168,67221.00 L1169,67290.44 L1170,67360.19 L1171,67430.12 L1172,67497.44 L1173,67566.88 L1174,67635.94 L1175,67706.31 L1176,67777.00 L1177,67847.19 L1178,67917.50 L1179,67987.19 L1180,68056.94 L1181,68125.12 L1182,68197.44 L1183,68266.75 L1184,68336.75 L1185,68406.56 L1186,68476.25 L1187,68546.44 L1188,68616.56 L1189,68686.69 L1190,68757.00 L1191,68826.88 L1192,68896.81 L1193,68965.88 L1194,69038.19 L1195,69108.25 L1196,69178.50 L1197,69248.25 L1198,69318.31 L1199,69388.06 L1200,69452.62 L1201,69527.00 L1202,69596.56 L1203,69663.62 L1204,69734.00 L1205,69797.75 L1206,69869.56 L1207,69939.06 L1208,70008.94 L1209,70072.88 L1210,70145.56 L1211,70215.25 L1212,70284.69 L1213,70350.00 L1214,70418.19 L1215,70492.44 L1216,70561.81 L1217,70626.25 L1218,70701.06 L1219,70765.06 L1220,70833.69 L1221,70908.19 L1222,70977.94 L1223,71047.75 L1224,71111.19 L1225,71185.50 L1226,71249.25 L1227,71317.44 L1228,71386.50 L1229,71460.75 L1230,71527.62 L1231,71593.44 L1232,71667.50 L1233,71732.38 L1234,71796.25 L1235,71870.50 L1236,71938.25 L1237,72008.88 L1238,72078.19 L1239,72147.31 L1240,72211.12 L1241,72280.06 L1242,72349.50 L1243,72416.62 L1244,72485.25 L1245,72554.25 L1246,72627.94 L1247,72692.12 L1248,72761.06 L1249,72834.62 L1250,72898.31 L1251,72972.38 L1252,73041.56 L1253,73107.94 L1254,73175.44 L1255,73244.00 L1256,73312.88 L1257,73380.81 L1258,73454.19 L1259,73523.31 L1260,73592.62 L1261,73661.75 L1262,73725.56 L1263,73798.12 L1264,73859.25 L1265,73931.56 L1266,73997.25 L1267,74065.94 L1268,74135.81 L1269,74204.06 L1270,74272.75 L1271,74341.19 L1272,74409.81 L1273,74477.06 L1274,74543.56 L1275,74611.69 L1276,74680.56 L1277,74749.12 L1278,74817.81 L1279,74887.19 L1280,74955.00 L1281,75022.31 L1282,75090.38 L1283,75158.81 L1284,75225.25 L1285,75292.94 L1286,75360.81 L1287,75429.69 L1288,75498.06 L1289,75566.69 L1290,75635.81 L1291,75704.00 L1292,75771.25 L1293,75839.88 L1294,75901.25 L1295,75966.88 L1296,76035.69 L1297,76102.56 L1298,76171.75 L1299,76244.06 L1300,76311.81 L1301,76381.00 L1302,76450.38 L1303,76518.38 L1304,76588.06 L1305,76656.75 L1306,76729.06 L1307,76795.44 L1308,76864.44 L1309,76933.44 L1310,77003.00 L1311,77072.06 L1312,77140.75 L1313,77207.31 L1314,77277.25 L1315,77346.06 L1316,77415.12 L1317,77483.69 L1318,77552.62 L1319,77619.94 L1320,77689.56 L1321,77758.19 L1322,77827.31 L1323,77895.62 L1324,77966.94 L1325,78028.12 L1326,78100.44 L1327,78164.88 L1328,78235.75 L1329,78304.69 L1330,78373.50 L1331,78441.75 L1332,78508.50 L1333,78580.81 L1334,78647.56 L1335,78714.31 L1336,78783.19 L1337,78853.50 L1338,78922.31 L1339,78991.19 L1340,79060.19 L1341,79129.06 L1342,79197.38 L1343,79266.50 L1344,79333.25 L1345,79405.62 L1346,79472.38 L1347,79544.69 L1348,79611.44 L1349,79678.19 L1350,79750.50 L1351,79817.25 L1352,79889.56 L1353,79954.88 L1354,80025.25 L1355,80088.00 L1356,80158.12 L1357,80225.75 L1358,80294.69 L1359,80363.44 L1360,80431.38 L1361,80500.88 L1362,80570.38 L1363,79377.44 L1364,66639.50 L1365,53416.12 L1366,40021.94 L1367,26923.62 L1368,18694.12 L1369,18694.12 L1370,18694.12 L1371,18694.19 L1372,18694.19 L1373,18692.75 L1374,18692.75 L1375,18692.75 L1376,18692.88 L1377,18692.88 L1378,18692.94 L1379,18692.81 L1380,18692.81 L1381,18692.81 L1382,18737.31 L1383,18948.69 L1384,19165.62 L1385,19380.25 L1386,19597.19 L1387,19812.44 L1388,20051.62 L1389,20324.19 L1390,20607.88 L1391,20830.38 L1392,21047.31 L1393,21264.25 L1394,21486.75 L1395,21709.25 L1396,21926.19 L1397,22148.69 L1398,22371.19 L1399,22588.12 L1400,22810.62 L1401,23033.12 L1402,23255.62 L1403,23478.12 L1404,23711.75 L1405,23939.81 L1406,24167.88 L1407,24390.38 L1408,24618.44 L1409,24840.94 L1410,25063.44 L1411,25286.94 L1412,25515.00 L1413,25736.88 L1414,25942.81 L1415,26187.62 L1416,26432.12 L1417,26672.69 L1418,26909.75 L1419,27148.94 L1420,27386.75 L1421,27633.00 L1422,27866.62 L1423,28111.38 L1424,28350.56 L1425,28589.75 L1426,28839.75 L1427,29078.94 L1428,29316.94 L1429,29556.12 L1430,29795.31 L1431,30034.50 L1432,30273.69 L1433,30518.44 L1434,30757.62 L1435,30996.81 L1436,31241.56 L1437,31480.75 L1438,31719.94 L1439,31964.69 L1440,32203.88 L1441,32409.69 L1442,32592.94 L1443,32830.06 L1444,33069.25 L1445,33291.75 L1446,33506.69 L1447,33733.19 L1448,33945.19 L1449,34157.06 L1450,34372.81 L1451,34585.19 L1452,34804.88 L1453,35016.19 L1454,35233.12 L1455,35444.50 L1456,35658.94 L1457,35874.75 L1458,36089.06 L1459,36307.81 L1460,36531.69 L1461,36749.38 L1462,36975.06 L1463,37196.56 L1464,37413.25 L1465,37652.69 L1466,37894.62 L1467,38149.31 L1468,38394.00 L1469,38640.31 L1470,38890.62 L1471,39146.44 L1472,39424.81 L1473,39686.06 L1474,39941.94 L1475,40197.50 L1476,40470.50 L1477,40726.00 L1478,40987.81 L1479,41242.88 L1480,41502.69 L1481,41768.88 L1482,42016.44 L1483,42285.12 L1484,42546.50 L1485,42814.44 L1486,43084.25 L1487,43339.62 L1488,43618.69 L1489,43891.25 L1490,44152.69 L1491,44408.56 L1492,44664.44 L1493,44898.06 L1494,45148.38 L1495,45420.94 L1496,45682.38 L1497,45943.81 L1498,46194.88 L1499,46433.38 L1500,46689.25 L1501,46939.56 L1502,47166.00 L1503,47411.38 L1504,47678.50 L1505,47945.50 L1506,48206.94 L1507,48473.94 L1508,48746.50 L1509,49013.50 L1510,49280.50 L1511,49547.50 L1512,49808.94 L1513,50075.94 L1514,50354.06 L1515,50621.06 L1516,50893.62 L1517,51160.62 L1518,51422.06 L1519,51683.50 L1520,51928.25 L1521,52167.44 L1522,52413.50 L1523,52669.38 L1524,52908.56 L1525,53153.31 L1526,53392.50 L1527,53637.25 L1528,53882.00 L1529,54137.88 L1530,54388.19 L1531,54638.50 L1532,54883.31 L1533,55130.25 L1534,55386.12 L1535,55675.38 L1536,55942.38 L1537,56203.81 L1538,56470.81 L1539,56754.50 L1540,57021.50 L1541,57294.06 L1542,57561.06 L1543,57811.38 L1544,58056.12 L1545,58317.56 L1546,58567.19 L1547,58841.88 L1548,59103.19 L1549,59375.88 L1550,59648.44 L1551,59904.31 L1552,60176.88 L1553,60443.88 L1554,60710.88 L1555,60972.31 L1556,61233.75 L1557,61495.19 L1558,61773.31 L1559,62045.88 L1560,62318.44 L1561,62585.44 L1562,62843.94 L1563,63109.31 L1564,63370.88 L1565,63621.19 L1566,63882.62 L1567,64144.06 L1568,64405.50 L1569,64661.38 L1570,64917.25 L1571,65173.12 L1572,65429.00 L1573,65684.88 L1574,65946.31 L1575,66202.19 L1576,66458.06 L1577,66713.94 L1578,66986.50 L1579,67247.94 L1580,67514.94 L1581,67776.38 L1582,68037.81 L1583,68293.69 L1584,68555.12 L1585,68783.19 L1586,69022.38 L1587,69261.56 L1588,69495.19 L1589,69734.38 L1590,69973.56 L1591,70190.50 L1592,70436.56 L1593,70670.19 L1594,70922.38 L1595,71161.56 L1596,71400.75 L1597,71639.94 L1598,71879.12 L1599,72151.69 L1600,72410.06 L1601,72676.31 L1602,72956.50 L1603,73234.62 L1604,73484.94 L1605,73735.25 L1606,73985.88 L1607,74236.38 L1608,74477.75 L1609,74722.62 L1610,74970.31 L1611,75216.50 L1612,75455.31 L1613,75696.56 L1614,75980.25 L1615,76238.56 L1616,76511.25 L1617,76778.25 L1618,77050.81 L1619,77323.38 L1620,77590.38 L1621,77868.50 L1622,78141.38 L1623,78413.94 L1624,78681.31 L1625,78959.50 L1626,79231.69 L1627,79520.94 L1628,79793.19 L1629,80071.31 L1630,80348.88 L1631,80627.06 L1632,67876.88 L1633,63279.31 L1634,63268.94 L1635,63266.44 L1636,63269.44" style="vector-effect: non-scaling-stroke; stroke: #00ffff; stroke-width: 1; fill-opacity: 0" transform="scale(0.440098,-0.002018)"/>
</g>
</g>
</svg>
