<?xml version="1.0" encoding="UTF-8"?>
<!DOCTYPE svg PUBLIC "-//W3C//DTD SVG 1.1//EN" "http://www.w3.org/Graphics/SVG/1.1/DTD/svg11.dtd">
<svg xmlns="http://www.w3.org/2000/svg" width="1060" height="350" fill="black" stroke="gray" stroke-width="1">
<text x= "0" y="30" text-anchor="start" stroke="brown">Linux 3.10.0-693.el7.ppc64le (centos-compression-iv1-main) 	04/30/2018 	_ppc64le_	(10 CPU)
</text>
<g id="16" transform="translate(0,50)">
<rect x="0" y="0" height="300" width="1050"/>
<text x="0" y="20" style="fill: yellow; stroke: none">Memory utilization (3)
<tspan x="795" y="25" style="fill: yellow; stroke: none; font-size: 12px">(Min, Max, Average values)</tspan></text>
<polyline points="70,50 70,250 790,250" stroke="white" stroke-width="2"/>
<text x="795" y="50" style="fill: #e85f00; stroke: none; font-size: 12px">MBbuffers (2.56, 2.56, 2.560)</text><text x="795" y="65" style="fill: #0000ff; stroke: none; font-size: 12px">MBcached (273.56, 77602.19, 46824.101)</text><text x="795" y="80" style="fill: #006020; stroke: none; font-size: 12px">MBcommit (342.12, 501.50, 461.774)</text><g transform="translate(70,250)">
<text x="0" y="0" style="fill: white; stroke: none; font-size: 12px; text-anchor: end">0.</text>
<polyline points="0,20000.00 720,20000.00" style="vector-effect: non-scaling-stroke; stroke: #202020" transform="scale(1,-0.002577)"/>
<text x="0" y="-51" style="fill: white; stroke: none; font-size: 12px; text-anchor: end">20000.</text>
<polyline points="0,40000.00 720,40000.00" style="vector-effect: non-scaling-stroke; stroke: #202020" transform="scale(1,-0.002577)"/>
<text x="0" y="-103" style="fill: white; stroke: none; font-size: 12px; text-anchor: end">40000.</text>
<polyline points="0,60000.00 720,60000.00" style="vector-effect: non-scaling-stroke; stroke: #202020" transform="scale(1,-0.002577)"/>
<text x="0" y="-154" style="fill: white; stroke: none; font-size: 12px; text-anchor: end">60000.</text>
<polyline points="0,0 0,-200" style="vector-effect: non-scaling-stroke; stroke: #202020" transform="scale(0.440098,1)"/>
<text x="0" y="10" style="fill: white; stroke: none; font-size: 12px; text-anchor: start" transform="rotate(45,0,0)">00:53:14</text>
<polyline points="163,0 163,-200" style="vector-effect: non-scaling-stroke; stroke: #202020" transform="scale(0.440098,1)"/>
<text x="71" y="10" style="fill: white; stroke: none; font-size: 12px; text-anchor: start" transform="rotate(45,71,0)">00:55:57</text>
<polyline points="326,0 326,-200" style="vector-effect: non-scaling-stroke; stroke: #202020" transform="scale(0.440098,1)"/>
<text x="143" y="10" style="fill: white; stroke: none; font-size: 12px; text-anchor: start" transform="rotate(45,143,0)">00:58:40</text>
<polyline points="489,0 489,-200" style="vector-effect: non-scaling-stroke; stroke: #202020" transform="scale(0.440098,1)"/>
<text x="215" y="10" style="fill: white; stroke: none; font-size: 12px; text-anchor: start" transform="rotate(45,215,0)">01:01:23</text>
<polyline points="652,0 652,-200" style="vector-effect: non-scaling-stroke; stroke: #202020" transform="scale(0.440098,1)"/>
<text x="286" y="10" style="fill: white; stroke: none; font-size: 12px; text-anchor: start" transform="rotate(45,286,0)">01:04:06</text>
<polyline points="815,0 815,-200" style="vector-effect: non-scaling-stroke; stroke: #202020" transform="scale(0.440098,1)"/>
<text x="358" y="10" style="fill: white; stroke: none; font-size: 12px; text-anchor: start" transform="rotate(45,358,0)">01:06:49</text>
<polyline points="978,0 978,-200" style="vector-effect: non-scaling-stroke; stroke: #202020" transform="scale(0.440098,1)"/>
<text x="430" y="10" style="fill: white; stroke: none; font-size: 12px; text-anchor: start" transform="rotate(45,430,0)">01:09:32</text>
<polyline points="1141,0 1141,-200" style="vector-effect: non-scaling-stroke; stroke: #202020" transform="scale(0.440098,1)"/>
<text x="502" y="10" style="fill: white; stroke: none; font-size: 12px; text-anchor: start" transform="rotate(45,502,0)">01:12:15</text>
<polyline points="1304,0 1304,-200" style="vector-effect: non-scaling-stroke; stroke: #202020" transform="scale(0.440098,1)"/>
<text x="573" y="10" style="fill: white; stroke: none; font-size: 12px; text-anchor: start" transform="rotate(45,573,0)">01:14:58</text>
<polyline points="1467,0 1467,-200" style="vector-effect: non-scaling-stroke; stroke: #202020" transform="scale(0.440098,1)"/>
<text x="645" y="10" style="fill: white; stroke: none; font-size: 12px; text-anchor: start" transform="rotate(45,645,0)">01:17:41</text>
<polyline points="1630,0 1630,-200" style="vector-effect: non-scaling-stroke; stroke: #202020" transform="scale(0.440098,1)"/>
<text x="717" y="10" style="fill: white; stroke: none; font-size: 12px; text-anchor: start" transform="rotate(45,717,0)">01:20:24</text>
<text x="-10" y="30" style="fill: yellow; stroke: none; font-size: 12px; text-anchor: end">UTC</text>
<path id="g13p4" d=" M1,2.56 L2,2.56 L3,2.56 L4,2.56 L5,2.56 L6,2.56 L7,2.56 L8,2.56 L9,2.56 L10,2.56 L11,2.56 L12,2.56 L13,2.56 L14,2.56 L15,2.56 L16,2.56 L17,2.56 L18,2.56 L19,2.56 L20,2.56 L21,2.56 L22,2.56 L23,2.56 L24,2.56 L25,2.56 L26,2.56 L27,2.56 L28,2.56 L29,2.56 L30,2.56 L31,2.56 L32,2.56 L33,2.56 L34,2.56 L35,2.56 L36,2.56 L37,2.56 L38,2.56 L39,2.56 L40,2.56 L41,2.56 L42,2.56 L43,2.56 L44,2.56 L45,2.56 L46,2.56 L47,2.56 L48,2.56 L49,2.56 L50,2.56 L51,2.56 L52,2.56 L53,2.56 L54,2.56 L55,2.56 L56,2.56 L57,2.56 L58,2.56 L59,2.56 L60,2.56 L61,2.56 L62,2.56 L63,2.56 L64,2.56 L65,2.56 L66,2.56 L67,2.56 L68,2.56 L69,2.56 L70,2.56 L71,2.56 L72,2.56 L73,2.56 L74,2.56 L75,2.56 L76,2.56 L77,2.56 L78,2.56 L79,2.56 L80,2.56 L81,2.56 L82,2.56 L83,2.56 L84,2.56 L85,2.56 L86,2.56 L87,2.56 L88,2.56 L89,2.56 L90,2.56 L91,2.56 L92,2.56 L93,2.56 L94,2.56 L95,2.56 L96,2.56 L97,2.56 L98,2.56 L99,2.56 L100,2.56 L101,2.56 L102,2.56 L103,2.56 L104,2.56 L105,2.56 L106,2.56 L107,2.56 L108,2.56 L109,2.56 L110,2.56 L111,2.56 L112,2.56 L113,2.56 L114,2.56 L115,2.56 L116,2.56 L117,2.56 L118,2.56 L119,2.56 L120,2.56 L121,2.56 L122,2.56 L123,2.56 L124,2.56 L125,2.56 L126,2.56 L127,2.56 L128,2.56 L129,2.56 L130,2.56 L131,2.56 L132,2.56 L133,2.56 L134,2.56 L135,2.56 L136,2.56 L137,2.56 L138,2.56 L139,2.56 L140,2.56 L141,2.56 L142,2.56 L143,2.56 L144,2.56 L145,2.56 L146,2.56 L147,2.56 L148,2.56 L149,2.56 L150,2.56 L151,2.56 L152,2.56 L153,2.56 L154,2.56 L155,2.56 L156,2.56 L157,2.56 L158,2.56 L159,2.56 L160,2.56 L161,2.56 L162,2.56 L163,2.56 L164,2.56 L165,2.56 L166,2.56 L167,2.56 L168,2.56 L169,2.56 L170,2.56 L171,2.56 L172,2.56 L173,2.56 L174,2.56 L175,2.56 L176,2.56 L177,2.56 L178,2.56 L179,2.56 L180,2.56 L181,2.56 L182,2.56 L183,2.56 L184,2.56 L185,2.56 L186,2.56 L187,2.56 L188,2.56 L189,2.56 L190,2.56 L191,2.56 L192,2.56 L193,2.56 L194,2.56 L195,2.56 L196,2.56 L197,2.56 L198,2.56 L199,2.56 L200,2.56 L201,2.56 L202,2.56 L203,2.56 L204,2.56 L205,2.56 L206,2.56 L207,2.56 L208,2.56 L209,2.56 L210,2.56 L211,2.56 L212,2.56 L213,2.56 L214,2.56 L215,2.56 L216,2.56 L217,2.56 L218,2.56 L219,2.56 L220,2.56 L221,2.56 L222,2.56 L223,2.56 L224,2.56 L225,2.56 L226,2.56 L227,2.56 L228,2.56 L229,2.56 L230,2.56 L231,2.56 L232,2.56 L233,2.56 L234,2.56 L235,2.56 L236,2.56 L237,2.56 L238,2.56 L239,2.56 L240,2.56 L241,2.56 L242,2.56 L243,2.56 L244,2.56 L245,2.56 L246,2.56 L247,2.56 L248,2.56 L249,2.56 L250,2.56 L251,2.56 L252,2.56 L253,2.56 L254,2.56 L255,2.56 L256,2.56 L257,2.56 L258,2.56 L259,2.56 L260,2.56 L261,2.56 L262,2.56 L263,2.56 L264,2.56 L265,2.56 L266,2.56 L267,2.56 L268,2.56 L269,2.56 L270,2.56 L271,2.56 L272,2.56 L273,2.56 L274,2.56 L275,2.56 L276,2.56 L277,2.56 L278,2.56 L279,2.56 L280,2.56 L281,2.56 L282,2.56 L283,2.56 L284,2.56 L285,2.56 L286,2.56 L287,2.56 L288,2.56 L289,2.56 L290,2.56 L291,2.56 L292,2.56 L293,2.56 L294,2.56 L295,2.56 L296,2.56 L297,2.56 L298,2.56 L299,2.56 L300,2.56 L301,2.56 L302,2.56 L303,2.56 L304,2.56 L305,2.56 L306,2.56 L307,2.56 L308,2.56 L309,2.56 L310,2.56 L311,2.56 L312,2.56 L313,2.56 L314,2.56 L315,2.56 L316,2.56 L317,2.56 L318,2.56 L319,2.56 L320,2.56 L321,2.56 L322,2.56 L323,2.56 L324,2.56 L325,2.56 L326,2.56 L327,2.56 L328,2.56 L329,2.56 L330,2.56 L331,2.56 L332,2.56 L333,2.56 L334,2.56 L335,2.56 L336,2.56 L337,2.56 L338,2.56 L339,2.56 L340,2.56 L341,2.56 L342,2.56 L343,2.56 L344,2.56 L345,2.56 L346,2.56 L347,2.56 L348,2.56 L349,2.56 L350,2.56 L351,2.56 L352,2.56 L353,2.56 L354,2.56 L355,2.56 L356,2.56 L357,2.56 L358,2.56 L359,2.56 L360,2.56 L361,2.56 L362,2.56 L363,2.56 L364,2.56 L365,2.56 L366,2.56 L367,2.56 L368,2.56 L369,2.56 L370,2.56 L371,2.56 L372,2.56 L373,2.56 L374,2.56 L375,2.56 L376,2.56 L377,2.56 L378,2.56 L379,2.56 L380,2.56 L381,2.56 L382,2.56 L383,2.56 L384,2.56 L385,2.56 L386,2.56 L387,2.56 L388,2.56 L389,2.56 L390,2.56 L391,2.56 L392,2.56 L393,2.56 L394,2.56 L395,2.56 L396,2.56 L397,2.56 L398,2.56 L399,2.56 L400,2.56 L401,2.56 L402,2.56 L403,2.56 L404,2.56 L405,2.56 L406,2.56 L407,2.56 L408,2.56 L409,2.56 L410,2.56 L411,2.56 L412,2.56 L413,2.56 L414,2.56 L415,2.56 L416,2.56 L417,2.56 L418,2.56 L419,2.56 L420,2.56 L421,2.56 L422,2.56 L423,2.56 L424,2.56 L425,2.56 L426,2.56 L427,2.56 L428,2.56 L429,2.56 L430,2.56 L431,2.56 L432,2.56 L433,2.56 L434,2.56 L435,2.56 L436,2.56 L437,2.56 L438,2.56 L439,2.56 L440,2.56 L441,2.56 L442,2.56 L443,2.56 L444,2.56 L445,2.56 L446,2.56 L447,2.56 L448,2.56 L449,2.56 L450,2.56 L451,2.56 L452,2.56 L453,2.56 L454,2.56 L455,2.56 L456,2.56 L457,2.56 L458,2.56 L459,2.56 L460,2.56 L461,2.56 L462,2.56 L463,2.56 L464,2.56 L465,2.56 L466,2.56 L467,2.56 L468,2.56 L469,2.56 L470,2.56 L471,2.56 L472,2.56 L473,2.56 L474,2.56 L475,2.56 L476,2.56 L477,2.56 L478,2.56 L479,2.56 L480,2.56 L481,2.56 L482,2.56 L483,2.56 L484,2.56 L485,2.56 L486,2.56 L487,2.56 L488,2.56 L489,2.56 L490,2.56 L491,2.56 L492,2.56 L493,2.56 L494,2.56 L495,2.56 L496,2.56 L497,2.56 L498,2.56 L499,2.56 L500,2.56 L501,2.56 L502,2.56 L503,2.56 L504,2.56 L505,2.56 L506,2.56 L507,2.56 L508,2.56 L509,2.56 L510,2.56 L511,2.56 L512,2.56 L513,2.56 L514,2.56 L515,2.56 L516,2.56 L517,2.56 L518,2.56 L519,2.56 L520,2.56 L521,2.56 L522,2.56 L523,2.56 L524,2.56 L525,2.56 L526,2.56 L527,2.56 L528,2.56 L529,2.56 L530,2.56 L531,2.56 L532,2.56 L533,2.56 L534,2.56 L535,2.56 L536,2.56 L537,2.56 L538,2.56 L539,2.56 L540,2.56 L541,2.56 L542,2.56 L543,2.56 L544,2.56 L545,2.56 L546,2.56 L547,2.56 L548,2.56 L549,2.56 L550,2.56 L551,2.56 L552,2.56 L553,2.56 L554,2.56 L555,2.56 L556,2.56 L557,2.56 L558,2.56 L559,2.56 L560,2.56 L561,2.56 L562,2.56 L563,2.56 L564,2.56 L565,2.56 L566,2.56 L567,2.56 L568,2.56 L569,2.56 L570,2.56 L571,2.56 L572,2.56 L573,2.56 L574,2.56 L575,2.56 L576,2.56 L577,2.56 L578,2.56 L579,2.56 L580,2.56 L581,2.56 L582,2.56 L583,2.56 L584,2.56 L585,2.56 L586,2.56 L587,2.56 L588,2.56 L589,2.56 L590,2.56 L591,2.56 L592,2.56 L593,2.56 L594,2.56 L595,2.56 L596,2.56 L597,2.56 L598,2.56 L599,2.56 L600,2.56 L601,2.56 L602,2.56 L603,2.56 L604,2.56 L605,2.56 L606,2.56 L607,2.56 L608,2.56 L609,2.56 L610,2.56 L611,2.56 L612,2.56 L613,2.56 L614,2.56 L615,2.56 L616,2.56 L617,2.56 L618,2.56 L619,2.56 L620,2.56 L621,2.56 L622,2.56 L623,2.56 L624,2.56 L625,2.56 L626,2.56 L627,2.56 L628,2.56 L629,2.56 L630,2.56 L631,2.56 L632,2.56 L633,2.56 L634,2.56 L635,2.56 L636,2.56 L637,2.56 L638,2.56 L639,2.56 L640,2.56 L641,2.56 L642,2.56 L643,2.56 L644,2.56 L645,2.56 L646,2.56 L647,2.56 L648,2.56 L649,2.56 L650,2.56 L651,2.56 L652,2.56 L653,2.56 L654,2.56 L655,2.56 L656,2.56 L657,2.56 L658,2.56 L659,2.56 L660,2.56 L661,2.56 L662,2.56 L663,2.56 L664,2.56 L665,2.56 L666,2.56 L667,2.56 L668,2.56 L669,2.56 L670,2.56 L671,2.56 L672,2.56 L673,2.56 L674,2.56 L675,2.56 L676,2.56 L677,2.56 L678,2.56 L679,2.56 L680,2.56 L681,2.56 L682,2.56 L683,2.56 L684,2.56 L685,2.56 L686,2.56 L687,2.56 L688,2.56 L689,2.56 L690,2.56 L691,2.56 L692,2.56 L693,2.56 L694,2.56 L695,2.56 L696,2.56 L697,2.56 L698,2.56 L699,2.56 L700,2.56 L701,2.56 L702,2.56 L703,2.56 L704,2.56 L705,2.56 L706,2.56 L707,2.56 L708,2.56 L709,2.56 L710,2.56 L711,2.56 L712,2.56 L713,2.56 L714,2.56 L715,2.56 L716,2.56 L717,2.56 L718,2.56 L719,2.56 L720,2.56 L721,2.56 L722,2.56 L723,2.56 L724,2.56 L725,2.56 L726,2.56 L727,2.56 L728,2.56 L729,2.56 L730,2.56 L731,2.56 L732,2.56 L733,2.56 L734,2.56 L735,2.56 L736,2.56 L737,2.56 L738,2.56 L739,2.56 L740,2.56 L741,2.56 L742,2.56 L743,2.56 L744,2.56 L745,2.56 L746,2.56 L747,2.56 L748,2.56 L749,2.56 L750,2.56 L751,2.56 L752,2.56 L753,2.56 L754,2.56 L755,2.56 L756,2.56 L757,2.56 L758,2.56 L759,2.56 L760,2.56 L761,2.56 L762,2.56 L763,2.56 L764,2.56 L765,2.56 L766,2.56 L767,2.56 L768,2.56 L769,2.56 L770,2.56 L771,2.56 L772,2.56 L773,2.56 L774,2.56 L775,2.56 L776,2.56 L777,2.56 L778,2.56 L779,2.56 L780,2.56 L781,2.56 L782,2.56 L783,2.56 L784,2.56 L785,2.56 L786,2.56 L787,2.56 L788,2.56 L789,2.56 L790,2.56 L791,2.56 L792,2.56 L793,2.56 L794,2.56 L795,2.56 L796,2.56 L797,2.56 L798,2.56 L799,2.56 L800,2.56 L801,2.56 L802,2.56 L803,2.56 L804,2.56 L805,2.56 L806,2.56 L807,2.56 L808,2.56 L809,2.56 L810,2.56 L811,2.56 L812,2.56 L813,2.56 L814,2.56 L815,2.56 L816,2.56 L817,2.56 L818,2.56 L819,2.56 L820,2.56 L821,2.56 L822,2.56 L823,2.56 L824,2.56 L825,2.56 L826,2.56 L827,2.56 L828,2.56 L829,2.56 L830,2.56 L831,2.56 L832,2.56 L833,2.56 L834,2.56 L835,2.56 L836,2.56 L837,2.56 L838,2.56 L839,2.56 L840,2.56 L841,2.56 L842,2.56 L843,2.56 L844,2.56 L845,2.56 L846,2.56 L847,2.56 L848,2.56 L849,2.56 L850,2.56 L851,2.56 L852,2.56 L853,2.56 L854,2.56 L855,2.56 L856,2.56 L857,2.56 L858,2.56 L859,2.56 L860,2.56 L861,2.56 L862,2.56 L863,2.56 L864,2.56 L865,2.56 L866,2.56 L867,2.56 L868,2.56 L869,2.56 L870,2.56 L871,2.56 L872,2.56 L873,2.56 L874,2.56 L875,2.56 L876,2.56 L877,2.56 L878,2.56 L879,2.56 L880,2.56 L881,2.56 L882,2.56 L883,2.56 L884,2.56 L885,2.56 L886,2.56 L887,2.56 L888,2.56 L889,2.56 L890,2.56 L891,2.56 L892,2.56 L893,2.56 L894,2.56 L895,2.56 L896,2.56 L897,2.56 L898,2.56 L899,2.56 L900,2.56 L901,2.56 L902,2.56 L903,2.56 L904,2.56 L905,2.56 L906,2.56 L907,2.56 L908,2.56 L909,2.56 L910,2.56 L911,2.56 L912,2.56 L913,2.56 L914,2.56 L915,2.56 L916,2.56 L917,2.56 L918,2.56 L919,2.56 L920,2.56 L921,2.56 L922,2.56 L923,2.56 L924,2.56 L925,2.56 L926,2.56 L927,2.56 L928,2.56 L929,2.56 L930,2.56 L931,2.56 L932,2.56 L933,2.56 L934,2.56 L935,2.56 L936,2.56 L937,2.56 L938,2.56 L939,2.56 L940,2.56 L941,2.56 L942,2.56 L943,2.56 L944,2.56 L945,2.56 L946,2.56 L947,2.56 L948,2.56 L949,2.56 L950,2.56 L951,2.56 L952,2.56 L953,2.56 L954,2.56 L955,2.56 L956,2.56 L957,2.56 L958,2.56 L959,2.56 L960,2.56 L961,2.56 L962,2.56 L963,2.56 L964,2.56 L965,2.56 L966,2.56 L967,2.56 L968,2.56 L969,2.56 L970,2.56 L971,2.56 L972,2.56 L973,2.56 L974,2.56 L975,2.56 L976,2.56 L977,2.56 L978,2.56 L979,2.56 L980,2.56 L981,2.56 L982,2.56 L983,2.56 L984,2.56 L985,2.56 L986,2.56 L987,2.56 L988,2.56 L989,2.56 L990,2.56 L991,2.56 L992,2.56 L993,2.56 L994,2.56 L995,2.56 L996,2.56 L997,2.56 L998,2.56 L999,2.56 L1000,2.56 L1001,2.56 L1002,2.56 L1003,2.56 L1004,2.56 L1005,2.56 L1006,2.56 L1007,2.56 L1008,2.56 L1009,2.56 L1010,2.56 L1011,2.56 L1012,2.56 L1013,2.56 L1014,2.56 L1015,2.56 L1016,2.56 L1017,2.56 L1018,2.56 L1019,2.56 L1020,2.56 L1021,2.56 L1022,2.56 L1023,2.56 L1024,2.56 L1025,2.56 L1026,2.56 L1027,2.56 L1028,2.56 L1029,2.56 L1030,2.56 L1031,2.56 L1032,2.56 L1033,2.56 L1034,2.56 L1035,2.56 L1036,2.56 L1037,2.56 L1038,2.56 L1039,2.56 L1040,2.56 L1041,2.56 L1042,2.56 L1043,2.56 L1044,2.56 L1045,2.56 L1046,2.56 L1047,2.56 L1048,2.56 L1049,2.56 L1050,2.56 L1051,2.56 L1052,2.56 L1053,2.56 L1054,2.56 L1055,2.56 L1056,2.56 L1057,2.56 L1058,2.56 L1059,2.56 L1060,2.56 L1061,2.56 L1062,2.56 L1063,2.56 L1064,2.56 L1065,2.56 L1066,2.56 L1067,2.56 L1068,2.56 L1069,2.56 L1070,2.56 L1071,2.56 L1072,2.56 L1073,2.56 L1074,2.56 L1075,2.56 L1076,2.56 L1077,2.56 L1078,2.56 L1079,2.56 L1080,2.56 L1081,2.56 L1082,2.56 L1083,2.56 L1084,2.56 L1085,2.56 L1086,2.56 L1087,2.56 L1088,2.56 L1089,2.56 L1090,2.56 L1091,2.56 L1092,2.56 L1093,2.56 L1094,2.56 L1095,2.56 L1096,2.56 L1097,2.56 L1098,2.56 L1099,2.56 L1100,2.56 L1101,2.56 L1102,2.56 L1103,2.56 L1104,2.56 L1105,2.56 L1106,2.56 L1107,2.56 L1108,2.56 L1109,2.56 L1110,2.56 L1111,2.56 L1112,2.56 L1113,2.56 L1114,2.56 L1115,2.56 L1116,2.56 L1117,2.56 L1118,2.56 L1119,2.56 L1120,2.56 L1121,2.56 L1122,2.56 L1123,2.56 L1124,2.56 L1125,2.56 L1126,2.56 L1127,2.56 L1128,2.56 L1129,2.56 L1130,2.56 L1131,2.56 L1132,2.56 L1133,2.56 L1134,2.56 L1135,2.56 L1136,2.56 L1137,2.56 L1138,2.56 L1139,2.56 L1140,2.56 L1141,2.56 L1142,2.56 L1143,2.56 L1144,2.56 L1145,2.56 L1146,2.56 L1147,2.56 L1148,2.56 L1149,2.56 L1150,2.56 L1151,2.56 L1152,2.56 L1153,2.56 L1154,2.56 L1155,2.56 L1156,2.56 L1157,2.56 L1158,2.56 L1159,2.56 L1160,2.56 L1161,2.56 L1162,2.56 L1163,2.56 L1164,2.56 L1165,2.56 L1166,2.56 L1167,2.56 L1168,2.56 L1169,2.56 L1170,2.56 L1171,2.56 L1172,2.56 L1173,2.56 L1174,2.56 L1175,2.56 L1176,2.56 L1177,2.56 L1178,2.56 L1179,2.56 L1180,2.56 L1181,2.56 L1182,2.56 L1183,2.56 L1184,2.56 L1185,2.56 L1186,2.56 L1187,2.56 L1188,2.56 L1189,2.56 L1190,2.56 L1191,2.56 L1192,2.56 L1193,2.56 L1194,2.56 L1195,2.56 L1196,2.56 L1197,2.56 L1198,2.56 L1199,2.56 L1200,2.56 L1201,2.56 L1202,2.56 L1203,2.56 L1204,2.56 L1205,2.56 L1206,2.56 L1207,2.56 L1208,2.56 L1209,2.56 L1210,2.56 L1211,2.56 L1212,2.56 L1213,2.56 L1214,2.56 L1215,2.56 L1216,2.56 L1217,2.56 L1218,2.56 L1219,2.56 L1220,2.56 L1221,2.56 L1222,2.56 L1223,2.56 L1224,2.56 L1225,2.56 L1226,2.56 L1227,2.56 L1228,2.56 L1229,2.56 L1230,2.56 L1231,2.56 L1232,2.56 L1233,2.56 L1234,2.56 L1235,2.56 L1236,2.56 L1237,2.56 L1238,2.56 L1239,2.56 L1240,2.56 L1241,2.56 L1242,2.56 L1243,2.56 L1244,2.56 L1245,2.56 L1246,2.56 L1247,2.56 L1248,2.56 L1249,2.56 L1250,2.56 L1251,2.56 L1252,2.56 L1253,2.56 L1254,2.56 L1255,2.56 L1256,2.56 L1257,2.56 L1258,2.56 L1259,2.56 L1260,2.56 L1261,2.56 L1262,2.56 L1263,2.56 L1264,2.56 L1265,2.56 L1266,2.56 L1267,2.56 L1268,2.56 L1269,2.56 L1270,2.56 L1271,2.56 L1272,2.56 L1273,2.56 L1274,2.56 L1275,2.56 L1276,2.56 L1277,2.56 L1278,2.56 L1279,2.56 L1280,2.56 L1281,2.56 L1282,2.56 L1283,2.56 L1284,2.56 L1285,2.56 L1286,2.56 L1287,2.56 L1288,2.56 L1289,2.56 L1290,2.56 L1291,2.56 L1292,2.56 L1293,2.56 L1294,2.56 L1295,2.56 L1296,2.56 L1297,2.56 L1298,2.56 L1299,2.56 L1300,2.56 L1301,2.56 L1302,2.56 L1303,2.56 L1304,2.56 L1305,2.56 L1306,2.56 L1307,2.56 L1308,2.56 L1309,2.56 L1310,2.56 L1311,2.56 L1312,2.56 L1313,2.56 L1314,2.56 L1315,2.56 L1316,2.56 L1317,2.56 L1318,2.56 L1319,2.56 L1320,2.56 L1321,2.56 L1322,2.56 L1323,2.56 L1324,2.56 L1325,2.56 L1326,2.56 L1327,2.56 L1328,2.56 L1329,2.56 L1330,2.56 L1331,2.56 L1332,2.56 L1333,2.56 L1334,2.56 L1335,2.56 L1336,2.56 L1337,2.56 L1338,2.56 L1339,2.56 L1340,2.56 L1341,2.56 L1342,2.56 L1343,2.56 L1344,2.56 L1345,2.56 L1346,2.56 L1347,2.56 L1348,2.56 L1349,2.56 L1350,2.56 L1351,2.56 L1352,2.56 L1353,2.56 L1354,2.56 L1355,2.56 L1356,2.56 L1357,2.56 L1358,2.56 L1359,2.56 L1360,2.56 L1361,2.56 L1362,2.56 L1363,2.56 L1364,2.56 L1365,2.56 L1366,2.56 L1367,2.56 L1368,2.56 L1369,2.56 L1370,2.56 L1371,2.56 L1372,2.56 L1373,2.56 L1374,2.56 L1375,2.56 L1376,2.56 L1377,2.56 L1378,2.56 L1379,2.56 L1380,2.56 L1381,2.56 L1382,2.56 L1383,2.56 L1384,2.56 L1385,2.56 L1386,2.56 L1387,2.56 L1388,2.56 L1389,2.56 L1390,2.56 L1391,2.56 L1392,2.56 L1393,2.56 L1394,2.56 L1395,2.56 L1396,2.56 L1397,2.56 L1398,2.56 L1399,2.56 L1400,2.56 L1401,2.56 L1402,2.56 L1403,2.56 L1404,2.56 L1405,2.56 L1406,2.56 L1407,2.56 L1408,2.56 L1409,2.56 L1410,2.56 L1411,2.56 L1412,2.56 L1413,2.56 L1414,2.56 L1415,2.56 L1416,2.56 L1417,2.56 L1418,2.56 L1419,2.56 L1420,2.56 L1421,2.56 L1422,2.56 L1423,2.56 L1424,2.56 L1425,2.56 L1426,2.56 L1427,2.56 L1428,2.56 L1429,2.56 L1430,2.56 L1431,2.56 L1432,2.56 L1433,2.56 L1434,2.56 L1435,2.56 L1436,2.56 L1437,2.56 L1438,2.56 L1439,2.56 L1440,2.56 L1441,2.56 L1442,2.56 L1443,2.56 L1444,2.56 L1445,2.56 L1446,2.56 L1447,2.56 L1448,2.56 L1449,2.56 L1450,2.56 L1451,2.56 L1452,2.56 L1453,2.56 L1454,2.56 L1455,2.56 L1456,2.56 L1457,2.56 L1458,2.56 L1459,2.56 L1460,2.56 L1461,2.56 L1462,2.56 L1463,2.56 L1464,2.56 L1465,2.56 L1466,2.56 L1467,2.56 L1468,2.56 L1469,2.56 L1470,2.56 L1471,2.56 L1472,2.56 L1473,2.56 L1474,2.56 L1475,2.56 L1476,2.56 L1477,2.56 L1478,2.56 L1479,2.56 L1480,2.56 L1481,2.56 L1482,2.56 L1483,2.56 L1484,2.56 L1485,2.56 L1486,2.56 L1487,2.56 L1488,2.56 L1489,2.56 L1490,2.56 L1491,2.56 L1492,2.56 L1493,2.56 L1494,2.56 L1495,2.56 L1496,2.56 L1497,2.56 L1498,2.56 L1499,2.56 L1500,2.56 L1501,2.56 L1502,2.56 L1503,2.56 L1504,2.56 L1505,2.56 L1506,2.56 L1507,2.56 L1508,2.56 L1509,2.56 L1510,2.56 L1511,2.56 L1512,2.56 L1513,2.56 L1514,2.56 L1515,2.56 L1516,2.56 L1517,2.56 L1518,2.56 L1519,2.56 L1520,2.56 L1521,2.56 L1522,2.56 L1523,2.56 L1524,2.56 L1525,2.56 L1526,2.56 L1527,2.56 L1528,2.56 L1529,2.56 L1530,2.56 L1531,2.56 L1532,2.56 L1533,2.56 L1534,2.56 L1535,2.56 L1536,2.56 L1537,2.56 L1538,2.56 L1539,2.56 L1540,2.56 L1541,2.56 L1542,2.56 L1543,2.56 L1544,2.56 L1545,2.56 L1546,2.56 L1547,2.56 L1548,2.56 L1549,2.56 L1550,2.56 L1551,2.56 L1552,2.56 L1553,2.56 L1554,2.56 L1555,2.56 L1556,2.56 L1557,2.56 L1558,2.56 L1559,2.56 L1560,2.56 L1561,2.56 L1562,2.56 L1563,2.56 L1564,2.56 L1565,2.56 L1566,2.56 L1567,2.56 L1568,2.56 L1569,2.56 L1570,2.56 L1571,2.56 L1572,2.56 L1573,2.56 L1574,2.56 L1575,2.56 L1576,2.56 L1577,2.56 L1578,2.56 L1579,2.56 L1580,2.56 L1581,2.56 L1582,2.56 L1583,2.56 L1584,2.56 L1585,2.56 L1586,2.56 L1587,2.56 L1588,2.56 L1589,2.56 L1590,2.56 L1591,2.56 L1592,2.56 L1593,2.56 L1594,2.56 L1595,2.56 L1596,2.56 L1597,2.56 L1598,2.56 L1599,2.56 L1600,2.56 L1601,2.56 L1602,2.56 L1603,2.56 L1604,2.56 L1605,2.56 L1606,2.56 L1607,2.56 L1608,2.56 L1609,2.56 L1610,2.56 L1611,2.56 L1612,2.56 L1613,2.56 L1614,2.56 L1615,2.56 L1616,2.56 L1617,2.56 L1618,2.56 L1619,2.56 L1620,2.56 L1621,2.56 L1622,2.56 L1623,2.56 L1624,2.56 L1625,2.56 L1626,2.56 L1627,2.56 L1628,2.56 L1629,2.56 L1630,2.56 L1631,2.56 L1632,2.56 L1633,2.56 L1634,2.56 L1635,2.56 L1636,2.56" style="vector-effect: non-scaling-stroke; stroke: #e85f00; stroke-width: 1; fill-opacity: 0" transform="scale(0.440098,-0.002577)"/>
<path id="g13p5" d=" M1,273.56 L2,273.56 L3,273.56 L4,392.38 L5,515.69 L6,641.88 L7,752.81 L8,871.12 L9,990.56 L10,1110.75 L11,1236.62 L12,1355.19 L13,1473.62 L14,1593.06 L15,1711.50 L16,1830.00 L17,1940.81 L18,2023.00 L19,2137.19 L20,2228.75 L21,2322.81 L22,2422.69 L23,2513.50 L24,2626.88 L25,2745.31 L26,2862.12 L27,2981.44 L28,3100.88 L29,3219.31 L30,3337.75 L31,3457.19 L32,3575.69 L33,3703.44 L34,3812.69 L35,3940.31 L36,4058.88 L37,4119.69 L38,4136.81 L39,4169.50 L40,4191.88 L41,4209.00 L42,4269.06 L43,4384.19 L44,4506.12 L45,4624.81 L46,4743.88 L47,4863.31 L48,4980.88 L49,5099.50 L50,5211.38 L51,5335.62 L52,5454.06 L53,5572.62 L54,5683.62 L55,5808.75 L56,5927.19 L57,6045.81 L58,6160.88 L59,6279.31 L60,6397.50 L61,6506.25 L62,6623.06 L63,6734.06 L64,6846.62 L65,6969.19 L66,7085.12 L67,7204.44 L68,7314.56 L69,7431.38 L70,7547.25 L71,7671.75 L72,7759.81 L73,7825.94 L74,7939.94 L75,8054.50 L76,8170.50 L77,8289.94 L78,8367.31 L79,8402.50 L80,8439.38 L81,8496.81 L82,8610.50 L83,8724.38 L84,8839.75 L85,8956.94 L86,9073.69 L87,9190.88 L88,9308.75 L89,9425.75 L90,9544.12 L91,9659.69 L92,9777.00 L93,9895.69 L94,10009.56 L95,10118.69 L96,10234.50 L97,10348.88 L98,10464.06 L99,10580.56 L100,10688.62 L101,10809.88 L102,10896.81 L103,10953.50 L104,11069.88 L105,11188.69 L106,11304.62 L107,11413.88 L108,11513.31 L109,11529.94 L110,11574.94 L111,11628.81 L112,11745.19 L113,11863.25 L114,11978.31 L115,12087.56 L116,12196.06 L117,12318.56 L118,12434.50 L119,12540.44 L120,12654.56 L121,12765.88 L122,12872.62 L123,12995.94 L124,13111.50 L125,13227.31 L126,13334.12 L127,13449.12 L128,13564.81 L129,13687.75 L130,13801.12 L131,13909.81 L132,14018.00 L133,14056.75 L134,14173.12 L135,14289.31 L136,14403.38 L137,14511.00 L138,14596.88 L139,14616.38 L140,14647.25 L141,14727.38 L142,14837.88 L143,14948.88 L144,15068.56 L145,15182.44 L146,15289.62 L147,15411.81 L148,15517.62 L149,15633.94 L150,15754.06 L151,15860.94 L152,15975.56 L153,16089.69 L154,16203.25 L155,16319.44 L156,16429.62 L157,16543.50 L158,16656.62 L159,16769.88 L160,16884.25 L161,16997.81 L162,17103.50 L163,17159.75 L164,17276.12 L165,17379.81 L166,17490.31 L167,17605.19 L168,17703.56 L169,17740.56 L170,17773.81 L171,17834.44 L172,17944.44 L173,18053.94 L174,18170.50 L175,18276.94 L176,18388.81 L177,18501.56 L178,18613.44 L179,18726.88 L180,18836.38 L181,18949.44 L182,19061.25 L183,19175.19 L184,19287.56 L185,19395.69 L186,19508.94 L187,19622.00 L188,19734.62 L189,19848.12 L190,19948.12 L191,20057.12 L192,20161.00 L193,20211.12 L194,20321.06 L195,20435.69 L196,20547.12 L197,20660.69 L198,20753.00 L199,20786.81 L200,20820.38 L201,20883.12 L202,20993.56 L203,21105.12 L204,21216.19 L205,21326.25 L206,21438.44 L207,21545.94 L208,21656.69 L209,21770.75 L210,21881.94 L211,21991.69 L212,22104.94 L213,22217.75 L214,22329.19 L215,22440.19 L216,22552.56 L217,22661.75 L218,22775.12 L219,22887.19 L220,22996.56 L221,23108.94 L222,23221.69 L223,23334.06 L224,23448.06 L225,23556.50 L226,23667.31 L227,23778.25 L228,23813.00 L229,23928.81 L230,24036.88 L231,24153.25 L232,24261.31 L233,24358.69 L234,24390.06 L235,24405.75 L236,24439.44 L237,24526.88 L238,24645.81 L239,24749.06 L240,24858.56 L241,24968.12 L242,25077.06 L243,25185.19 L244,25297.81 L245,25407.25 L246,25507.12 L247,25579.12 L248,25685.44 L249,25789.62 L250,25895.88 L251,26000.94 L252,26109.75 L253,26220.06 L254,26328.31 L255,26432.12 L256,26545.31 L257,26652.00 L258,26688.25 L259,26780.12 L260,26874.56 L261,26981.44 L262,27092.19 L263,27193.69 L264,27215.81 L265,27245.88 L266,27340.12 L267,27450.00 L268,27558.88 L269,27667.31 L270,27769.06 L271,27883.38 L272,27989.44 L273,28097.75 L274,28198.69 L275,28309.69 L276,28408.94 L277,28521.12 L278,28622.50 L279,28737.12 L280,28845.44 L281,28942.25 L282,29050.00 L283,29160.38 L284,29263.56 L285,29374.12 L286,29480.56 L287,29588.19 L288,29693.38 L289,29800.69 L290,29897.44 L291,29983.75 L292,30091.81 L293,30201.31 L294,30310.56 L295,30418.81 L296,30466.31 L297,30497.62 L298,30514.94 L299,30627.12 L300,30725.75 L301,30833.50 L302,30934.19 L303,31045.88 L304,31148.94 L305,31259.38 L306,31371.56 L307,31481.88 L308,31585.62 L309,31696.88 L310,31808.25 L311,31911.19 L312,32022.50 L313,32133.75 L314,32237.12 L315,32346.56 L316,32449.12 L317,32549.69 L318,32658.00 L319,32760.06 L320,32870.19 L321,32907.88 L322,33015.44 L323,33122.88 L324,33227.38 L325,33337.25 L326,33419.69 L327,33444.50 L328,33472.06 L329,33588.44 L330,33690.50 L331,33801.75 L332,33910.38 L333,34013.25 L334,34113.81 L335,34218.75 L336,34321.25 L337,34424.00 L338,34532.50 L339,34638.69 L340,34747.62 L341,34854.38 L342,34960.94 L343,35070.50 L344,35177.81 L345,35282.12 L346,35391.12 L347,35495.94 L348,35605.00 L349,35707.88 L350,35817.50 L351,35871.25 L352,35952.75 L353,36060.81 L354,36171.50 L355,36277.88 L356,36377.62 L357,36428.69 L358,36449.31 L359,36522.56 L360,36619.81 L361,36720.56 L362,36828.69 L363,36929.19 L364,37032.88 L365,37135.69 L366,37250.00 L367,37356.69 L368,37462.56 L369,37569.62 L370,37675.75 L371,37781.38 L372,37892.81 L373,38000.44 L374,38106.00 L375,38214.69 L376,38313.81 L377,38411.56 L378,38520.88 L379,38631.00 L380,38732.56 L381,38808.69 L382,38882.94 L383,38982.69 L384,39095.25 L385,39197.38 L386,39306.81 L387,39372.62 L388,39399.44 L389,39456.69 L390,39558.88 L391,39673.44 L392,39780.94 L393,39884.00 L394,39995.44 L395,40104.44 L396,40214.31 L397,40322.44 L398,40426.56 L399,40533.31 L400,40640.38 L401,40747.44 L402,40837.94 L403,40944.19 L404,41057.81 L405,41160.94 L406,41263.81 L407,41368.25 L408,41440.75 L409,41510.62 L410,41620.19 L411,41721.50 L412,41835.38 L413,41937.25 L414,42006.50 L415,42028.56 L416,42085.44 L417,42197.81 L418,42309.50 L419,42419.19 L420,42527.06 L421,42625.62 L422,42740.00 L423,42836.25 L424,42939.31 L425,43042.19 L426,43154.44 L427,43254.94 L428,43360.69 L429,43461.69 L430,43566.44 L431,43674.12 L432,43776.44 L433,43890.12 L434,43991.12 L435,44099.38 L436,44204.81 L437,44318.75 L438,44393.12 L439,44461.31 L440,44552.75 L441,44655.25 L442,44750.75 L443,44853.31 L444,44904.81 L445,44922.56 L446,44992.50 L447,45101.69 L448,45204.94 L449,45309.06 L450,45410.69 L451,45515.00 L452,45617.38 L453,45718.12 L454,45819.75 L455,45920.50 L456,46010.31 L457,46096.75 L458,46190.62 L459,46292.88 L460,46404.56 L461,46507.81 L462,46601.12 L463,46699.25 L464,46810.06 L465,46912.44 L466,47015.81 L467,47137.50 L468,47235.19 L469,47340.44 L470,47441.50 L471,47551.38 L472,47593.69 L473,47704.56 L474,47812.38 L475,47913.19 L476,48023.38 L477,48126.50 L478,48154.38 L479,48191.56 L480,48295.88 L481,48397.69 L482,48497.12 L483,48596.31 L484,48696.19 L485,48801.81 L486,48905.44 L487,49005.12 L488,49105.44 L489,49215.88 L490,49316.12 L491,49417.06 L492,49517.44 L493,49624.94 L494,49727.25 L495,49837.62 L496,49938.50 L497,50039.12 L498,50128.19 L499,50187.12 L500,50286.88 L501,50388.25 L502,50496.12 L503,50597.69 L504,50669.06 L505,50695.44 L506,50740.75 L507,50854.00 L508,50956.00 L509,51065.62 L510,51167.31 L511,51269.69 L512,51379.56 L513,51480.94 L514,51590.12 L515,51698.75 L516,51798.12 L517,51890.81 L518,51976.69 L519,52080.69 L520,52177.94 L521,52282.25 L522,52386.44 L523,52483.56 L524,52582.50 L525,52678.19 L526,52782.94 L527,52885.00 L528,52978.12 L529,53030.00 L530,53138.06 L531,53250.00 L532,53352.12 L533,53453.25 L534,53541.38 L535,53567.81 L536,53609.31 L537,53723.56 L538,53834.06 L539,53935.31 L540,54045.81 L541,54146.56 L542,54248.25 L543,54358.81 L544,54460.75 L545,54563.12 L546,54673.69 L547,54784.25 L548,54886.00 L549,54996.44 L550,55098.75 L551,55206.75 L552,55309.25 L553,55420.19 L554,55530.69 L555,55633.75 L556,55744.25 L557,55854.44 L558,55956.94 L559,56058.00 L560,56168.69 L561,56280.12 L562,56361.62 L563,56426.88 L564,56526.56 L565,56636.38 L566,56737.56 L567,56847.75 L568,56915.12 L569,56939.12 L570,56980.56 L571,57088.19 L572,57201.19 L573,57301.12 L574,57418.31 L575,57517.62 L576,57626.75 L577,57742.75 L578,57840.88 L579,57954.31 L580,58055.62 L581,58168.00 L582,58265.62 L583,58373.69 L584,58480.44 L585,58592.19 L586,58697.31 L587,58797.88 L588,58902.62 L589,58957.19 L590,59063.62 L591,59172.69 L592,59274.69 L593,59384.44 L594,59468.75 L595,59496.81 L596,59513.50 L597,59625.12 L598,59735.06 L599,59841.50 L600,59941.75 L601,60045.56 L602,60149.50 L603,60253.00 L604,60357.06 L605,60459.12 L606,60568.44 L607,60675.81 L608,60772.00 L609,60885.00 L610,60992.19 L611,61090.56 L612,61206.62 L613,61305.62 L614,61412.19 L615,61519.94 L616,61635.50 L617,61740.31 L618,61845.75 L619,61946.44 L620,62060.62 L621,62158.75 L622,62264.94 L623,62313.06 L624,62422.62 L625,62530.44 L626,62642.44 L627,62744.75 L628,62846.00 L629,62881.06 L630,62907.75 L631,62988.44 L632,63095.88 L633,63211.12 L634,63310.69 L635,63418.12 L636,63524.12 L637,63632.44 L638,63747.44 L639,63853.81 L640,63959.75 L641,64057.94 L642,64157.88 L643,64262.50 L644,64368.25 L645,64480.56 L646,64580.19 L647,64695.19 L648,64797.88 L649,64899.56 L650,65008.50 L651,65110.38 L652,65220.75 L653,65283.31 L654,65369.31 L655,65477.38 L656,65577.12 L657,65676.88 L658,65793.25 L659,65833.31 L660,65863.44 L661,65932.19 L662,66041.50 L663,66142.06 L664,66251.50 L665,66352.75 L666,66453.50 L667,66553.88 L668,66662.62 L669,66763.62 L670,66873.31 L671,66975.31 L672,67085.38 L673,67186.75 L674,67296.62 L675,67399.31 L676,67509.31 L677,67618.62 L678,67720.75 L679,67759.62 L680,67869.44 L681,67976.19 L682,68085.19 L683,68190.50 L684,68285.50 L685,68309.25 L686,68346.19 L687,68437.50 L688,68545.56 L689,68647.25 L690,68749.56 L691,68830.88 L692,68935.38 L693,69044.31 L694,69146.81 L695,69248.31 L696,69347.38 L697,69456.38 L698,69557.50 L699,69667.31 L700,69768.50 L701,69863.94 L702,69974.00 L703,70070.75 L704,70181.38 L705,70278.12 L706,70382.12 L707,70486.88 L708,70590.06 L709,70656.12 L710,70744.31 L711,70848.50 L712,70955.56 L713,71048.81 L714,71151.94 L715,71210.88 L716,71256.88 L717,71341.81 L718,71444.94 L719,71545.94 L720,71645.19 L721,71743.31 L722,71845.75 L723,71955.19 L724,72056.00 L725,72155.88 L726,72257.06 L727,72361.56 L728,72465.75 L729,72559.00 L730,72659.62 L731,72747.62 L732,72846.19 L733,72950.38 L734,73051.88 L735,73147.94 L736,73249.38 L737,73352.06 L738,73452.31 L739,73516.12 L740,73603.50 L741,73710.31 L742,73804.88 L743,73914.31 L744,74006.81 L745,74058.62 L746,74085.94 L747,74166.38 L748,74271.69 L749,13887.69 L750,13987.00 L751,14243.00 L752,14498.75 L753,14754.56 L754,15007.75 L755,15289.31 L756,15615.19 L757,15898.19 L758,16153.62 L759,16409.44 L760,16666.06 L761,16927.00 L762,17181.06 L763,17439.38 L764,17698.69 L765,17965.31 L766,18224.50 L767,18484.62 L768,18754.69 L769,19013.31 L770,19278.50 L771,19539.44 L772,19803.00 L773,20064.81 L774,20328.31 L775,20577.75 L776,20839.25 L777,21094.75 L778,21355.69 L779,21616.62 L780,21885.62 L781,22150.06 L782,22407.75 L783,22672.62 L784,22937.38 L785,23200.00 L786,23464.38 L787,23737.00 L788,23999.94 L789,24270.06 L790,24527.88 L791,24794.75 L792,25066.62 L793,25336.12 L794,25605.62 L795,25876.81 L796,26145.50 L797,26414.19 L798,26682.88 L799,26950.62 L800,27219.31 L801,27486.31 L802,27756.62 L803,28030.25 L804,28301.62 L805,28580.38 L806,28846.69 L807,29114.31 L808,29391.56 L809,29667.94 L810,29929.75 L811,30192.38 L812,30470.19 L813,30736.62 L814,31011.25 L815,31283.38 L816,31557.12 L817,31832.69 L818,32107.31 L819,32384.56 L820,32660.94 L821,32948.25 L822,33220.62 L823,33507.00 L824,33782.81 L825,34087.25 L826,34367.31 L827,34648.00 L828,34928.62 L829,35233.12 L830,35518.94 L831,35804.75 L832,36081.44 L833,36370.69 L834,36661.38 L835,36958.31 L836,37238.44 L837,37535.19 L838,37830.44 L839,38118.81 L840,38410.06 L841,38694.19 L842,38985.69 L843,39270.69 L844,39549.06 L845,39850.12 L846,40135.94 L847,40419.44 L848,40714.44 L849,40997.62 L850,41288.56 L851,41579.50 L852,41862.12 L853,42153.12 L854,42444.06 L855,42726.69 L856,43017.62 L857,43308.56 L858,43599.50 L859,43890.44 L860,44173.06 L861,44464.06 L862,44763.31 L863,45054.25 L864,45345.19 L865,45628.00 L866,45921.00 L867,46206.00 L868,46486.06 L869,46785.38 L870,47076.31 L871,47358.94 L872,47649.88 L873,47932.50 L874,48223.44 L875,48514.38 L876,48813.62 L877,49104.62 L878,49387.25 L879,49686.50 L880,49983.56 L881,50276.25 L882,50570.62 L883,50870.19 L884,51177.75 L885,51483.31 L886,51765.88 L887,52049.38 L888,52339.25 L889,52629.38 L890,52926.06 L891,53221.31 L892,53516.56 L893,53812.75 L894,54105.69 L895,54405.81 L896,54703.69 L897,54999.81 L898,55288.19 L899,55582.62 L900,55878.19 L901,56176.94 L902,56488.25 L903,56770.88 L904,57062.38 L905,57354.19 L906,57646.00 L907,57933.56 L908,58221.06 L909,58518.69 L910,58803.06 L911,59091.44 L912,59380.69 L913,59672.25 L914,59955.75 L915,60245.88 L916,60537.12 L917,60827.62 L918,61122.00 L919,61413.81 L920,61708.25 L921,61994.31 L922,62285.25 L923,62586.25 L924,62878.94 L925,63176.00 L926,63458.62 L927,63753.62 L928,64044.62 L929,64329.00 L930,64619.94 L931,64915.75 L932,65203.56 L933,65490.31 L934,65787.00 L935,66081.44 L936,66366.62 L937,66662.12 L938,66923.62 L939,67178.00 L940,67424.44 L941,67677.00 L942,67924.50 L943,68177.00 L944,68423.69 L945,68577.44 L946,68739.94 L947,68874.94 L948,69035.44 L949,69164.94 L950,69287.25 L951,69410.75 L952,69529.50 L953,69696.94 L954,69930.88 L955,70168.38 L956,70404.69 L957,70644.62 L958,70876.62 L959,71033.69 L960,71173.62 L961,71307.06 L962,71381.88 L963,71606.75 L964,71787.88 L965,72008.44 L966,72233.44 L967,72460.69 L968,72685.69 L969,72907.31 L970,73057.31 L971,73181.44 L972,73315.50 L973,73421.62 L974,73531.25 L975,73639.62 L976,73748.00 L977,73874.25 L978,74015.56 L979,74223.81 L980,65177.44 L981,60679.06 L982,60679.06 L983,60679.06 L984,60679.06 L985,60679.06 L986,60679.06 L987,60679.06 L988,60679.06 L989,60679.06 L990,60679.06 L991,60679.06 L992,60679.06 L993,60679.06 L994,60679.06 L995,60679.06 L996,60679.06 L997,60679.06 L998,60679.06 L999,60679.06 L1000,60679.25 L1001,60677.88 L1002,60677.88 L1003,60677.88 L1004,60677.88 L1005,60677.88 L1006,60677.88 L1007,60677.94 L1008,60677.94 L1009,60677.94 L1010,60677.94 L1011,60677.94 L1012,60677.94 L1013,60677.94 L1014,60677.94 L1015,60678.00 L1016,60678.00 L1017,60678.00 L1018,60678.00 L1019,60678.00 L1020,60678.00 L1021,60678.00 L1022,60678.00 L1023,60678.00 L1024,60678.00 L1025,60678.00 L1026,60678.00 L1027,60678.00 L1028,60678.00 L1029,60678.00 L1030,60678.00 L1031,60678.00 L1032,60678.00 L1033,60678.00 L1034,60678.00 L1035,60678.00 L1036,60678.00 L1037,60678.00 L1038,60678.00 L1039,60678.00 L1040,60678.00 L1041,60678.00 L1042,60678.00 L1043,60678.00 L1044,60678.00 L1045,60678.00 L1046,60678.00 L1047,60678.00 L1048,60678.00 L1049,60678.00 L1050,60678.25 L1051,60678.25 L1052,60678.25 L1053,60678.25 L1054,60678.25 L1055,60678.25 L1056,60678.25 L1057,60678.25 L1058,60678.25 L1059,60678.25 L1060,60678.25 L1061,60678.25 L1062,60678.38 L1063,60678.38 L1064,60678.38 L1065,60678.38 L1066,60678.38 L1067,60678.38 L1068,60678.38 L1069,60678.38 L1070,60678.38 L1071,60678.38 L1072,60678.38 L1073,60678.38 L1074,60678.38 L1075,60678.38 L1076,60678.38 L1077,60678.38 L1078,60678.38 L1079,60678.38 L1080,60678.38 L1081,60678.38 L1082,60678.38 L1083,60678.38 L1084,60678.38 L1085,60678.38 L1086,60678.38 L1087,60678.38 L1088,60678.38 L1089,60678.38 L1090,60678.38 L1091,60678.38 L1092,60678.38 L1093,60678.38 L1094,60678.38 L1095,60678.38 L1096,60678.38 L1097,60678.38 L1098,60678.38 L1099,60678.62 L1100,60678.62 L1101,60678.62 L1102,60678.62 L1103,60678.62 L1104,60678.62 L1105,60678.62 L1106,60678.62 L1107,60678.62 L1108,60678.62 L1109,60678.62 L1110,60678.62 L1111,60737.19 L1112,60795.38 L1113,60861.88 L1114,60928.38 L1115,60986.56 L1116,61053.06 L1117,61119.56 L1118,61186.12 L1119,61244.31 L1120,61302.50 L1121,61369.00 L1122,61435.50 L1123,61502.00 L1124,61568.50 L1125,61635.00 L1126,61701.56 L1127,61768.06 L1128,61834.56 L1129,61892.75 L1130,61959.25 L1131,62025.75 L1132,62092.25 L1133,62158.75 L1134,62225.31 L1135,62291.81 L1136,62358.31 L1137,62427.06 L1138,62494.25 L1139,62560.75 L1140,62634.19 L1141,62701.62 L1142,62768.31 L1143,62828.88 L1144,62896.31 L1145,62963.81 L1146,63030.56 L1147,63097.06 L1148,63168.81 L1149,63236.62 L1150,63303.81 L1151,63371.69 L1152,63439.75 L1153,63506.81 L1154,63574.56 L1155,63642.69 L1156,63710.44 L1157,63778.56 L1158,63846.31 L1159,63914.06 L1160,63981.75 L1161,64049.94 L1162,64118.00 L1163,64186.00 L1164,64253.88 L1165,64321.75 L1166,64389.31 L1167,64457.50 L1168,64525.69 L1169,64593.38 L1170,64661.44 L1171,64729.62 L1172,64791.44 L1173,64862.75 L1174,64934.44 L1175,64998.81 L1176,65067.69 L1177,65136.12 L1178,65204.69 L1179,65272.62 L1180,65340.69 L1181,65405.81 L1182,65472.31 L1183,65542.50 L1184,65610.69 L1185,65678.75 L1186,65746.81 L1187,65815.19 L1188,65883.56 L1189,65951.81 L1190,66020.50 L1191,66088.62 L1192,66156.75 L1193,66225.56 L1194,66292.06 L1195,66365.81 L1196,66434.31 L1197,66502.31 L1198,66570.69 L1199,66638.75 L1200,66707.00 L1201,66774.12 L1202,66841.94 L1203,66906.19 L1204,66975.62 L1205,67034.94 L1206,67107.81 L1207,67175.62 L1208,67243.69 L1209,67303.19 L1210,67376.94 L1211,67444.88 L1212,67512.62 L1213,67575.88 L1214,67648.19 L1215,67715.25 L1216,67782.81 L1217,67851.06 L1218,67918.62 L1219,67986.50 L1220,68053.31 L1221,68120.56 L1222,68188.44 L1223,68256.62 L1224,68317.38 L1225,68390.88 L1226,68458.44 L1227,68524.94 L1228,68592.19 L1229,68659.19 L1230,68720.81 L1231,68794.06 L1232,68860.81 L1233,68920.81 L1234,68992.12 L1235,69059.12 L1236,69124.44 L1237,69194.06 L1238,69261.62 L1239,69329.12 L1240,69396.62 L1241,69463.88 L1242,69525.12 L1243,69597.06 L1244,69657.50 L1245,69731.25 L1246,69796.94 L1247,69865.75 L1248,69932.94 L1249,69999.25 L1250,70066.75 L1251,70133.56 L1252,70201.06 L1253,70265.00 L1254,70336.94 L1255,70403.88 L1256,70471.00 L1257,70537.25 L1258,70603.38 L1259,70670.81 L1260,70738.31 L1261,70805.75 L1262,70873.38 L1263,70937.25 L1264,70997.44 L1265,71063.94 L1266,71130.56 L1267,71199.00 L1268,71267.19 L1269,71333.75 L1270,71400.62 L1271,71467.44 L1272,71534.31 L1273,71599.88 L1274,71664.75 L1275,71731.19 L1276,71798.38 L1277,71865.19 L1278,71932.12 L1279,71999.88 L1280,72065.94 L1281,72131.56 L1282,72197.94 L1283,72264.62 L1284,72329.44 L1285,72395.44 L1286,72461.62 L1287,72528.81 L1288,72595.44 L1289,72662.38 L1290,72729.69 L1291,72796.00 L1292,72861.62 L1293,72928.56 L1294,72988.31 L1295,73052.38 L1296,73119.44 L1297,73184.69 L1298,73252.00 L1299,73318.50 L1300,73390.00 L1301,73457.44 L1302,73525.12 L1303,73591.44 L1304,73659.31 L1305,73724.81 L1306,73791.31 L1307,73858.56 L1308,73925.88 L1309,73993.19 L1310,74061.00 L1311,74128.44 L1312,74195.25 L1313,74265.25 L1314,74328.38 L1315,74395.50 L1316,74462.88 L1317,74529.75 L1318,74596.94 L1319,74670.19 L1320,74730.44 L1321,74797.38 L1322,74864.75 L1323,74931.38 L1324,75000.62 L1325,75061.69 L1326,75128.19 L1327,75196.12 L1328,75268.06 L1329,75335.31 L1330,75402.44 L1331,75469.00 L1332,75535.50 L1333,75602.00 L1334,75668.50 L1335,75735.06 L1336,75799.00 L1337,75870.50 L1338,75937.56 L1339,76004.62 L1340,76071.94 L1341,76139.06 L1342,76205.62 L1343,76273.06 L1344,76339.62 L1345,76406.12 L1346,76472.62 L1347,76539.12 L1348,76605.62 L1349,76672.12 L1350,76738.62 L1351,76813.44 L1352,76880.00 L1353,76941.44 L1354,77012.94 L1355,77073.06 L1356,77141.94 L1357,77207.88 L1358,77275.06 L1359,77342.12 L1360,77408.38 L1361,77476.12 L1362,77543.88 L1363,76374.81 L1364,63947.81 L1365,51063.88 L1366,37998.69 L1367,25222.56 L1368,17211.06 L1369,17211.06 L1370,17211.06 L1371,17211.06 L1372,17211.06 L1373,17211.06 L1374,17211.06 L1375,17211.06 L1376,17211.06 L1377,17211.06 L1378,17211.06 L1379,17211.12 L1380,17211.12 L1381,17211.12 L1382,17252.69 L1383,17460.50 L1384,17676.62 L1385,17884.25 L1386,18092.06 L1387,18301.62 L1388,18534.38 L1389,18800.38 L1390,19083.00 L1391,19290.81 L1392,19506.94 L1393,19723.06 L1394,19930.88 L1395,20155.31 L1396,20363.12 L1397,20579.25 L1398,20795.38 L1399,21011.50 L1400,21227.62 L1401,21443.75 L1402,21659.88 L1403,21884.31 L1404,22108.75 L1405,22333.19 L1406,22549.31 L1407,22765.44 L1408,22989.88 L1409,23206.00 L1410,23430.44 L1411,23647.81 L1412,23863.94 L1413,24079.25 L1414,24287.06 L1415,24511.50 L1416,24740.50 L1417,24972.56 L1418,25213.62 L1419,25446.38 L1420,25678.94 L1421,25920.00 L1422,26144.44 L1423,26385.50 L1424,26618.25 L1425,26851.00 L1426,27102.00 L1427,27331.75 L1428,27564.50 L1429,27797.25 L1430,28030.00 L1431,28262.75 L1432,28495.50 L1433,28736.56 L1434,28969.31 L1435,29202.06 L1436,29434.81 L1437,29675.88 L1438,29908.62 L1439,30141.38 L1440,30382.44 L1441,30580.44 L1442,30762.31 L1443,30992.19 L1444,31224.94 L1445,31441.06 L1446,31650.31 L1447,31875.50 L1448,32085.12 L1449,32287.62 L1450,32501.06 L1451,32708.12 L1452,32921.88 L1453,33127.94 L1454,33335.75 L1455,33548.44 L1456,33757.62 L1457,33965.50 L1458,34171.56 L1459,34387.00 L1460,34603.12 L1461,34815.00 L1462,35033.75 L1463,35248.81 L1464,35460.50 L1465,35701.56 L1466,35934.44 L1467,36182.31 L1468,36424.62 L1469,36665.50 L1470,36906.56 L1471,37149.38 L1472,37419.56 L1473,37673.88 L1474,37927.81 L1475,38171.88 L1476,38438.00 L1477,38689.75 L1478,38943.31 L1479,39194.62 L1480,39447.94 L1481,39703.00 L1482,39960.06 L1483,40219.19 L1484,40471.19 L1485,40729.88 L1486,41001.25 L1487,41249.81 L1488,41507.50 L1489,41773.50 L1490,42031.19 L1491,42280.56 L1492,42529.94 L1493,42762.69 L1494,43003.75 L1495,43269.75 L1496,43527.44 L1497,43785.12 L1498,44022.19 L1499,44254.81 L1500,44504.19 L1501,44753.56 L1502,44969.94 L1503,45213.69 L1504,45471.38 L1505,45729.06 L1506,45986.75 L1507,46244.44 L1508,46510.44 L1509,46768.12 L1510,47034.12 L1511,47291.81 L1512,47549.50 L1513,47807.19 L1514,48081.50 L1515,48339.19 L1516,48605.19 L1517,48862.88 L1518,49120.56 L1519,49378.25 L1520,49611.00 L1521,49851.12 L1522,50088.69 L1523,50338.06 L1524,50570.81 L1525,50811.88 L1526,51044.62 L1527,51277.38 L1528,51518.44 L1529,51767.81 L1530,52008.88 L1531,52258.25 L1532,52500.25 L1533,52733.44 L1534,52991.12 L1535,53265.44 L1536,53531.44 L1537,53789.12 L1538,54046.81 L1539,54321.12 L1540,54578.81 L1541,54853.12 L1542,55102.50 L1543,55351.88 L1544,55592.94 L1545,55850.62 L1546,56098.00 L1547,56357.69 L1548,56615.38 L1549,56881.38 L1550,57147.38 L1551,57396.75 L1552,57662.75 L1553,57920.44 L1554,58186.44 L1555,58435.81 L1556,58693.50 L1557,58942.88 L1558,59217.19 L1559,59483.19 L1560,59749.19 L1561,60015.19 L1562,60261.19 L1563,60519.19 L1564,60776.88 L1565,61026.25 L1566,61275.62 L1567,61533.31 L1568,61782.69 L1569,62040.38 L1570,62289.75 L1571,62539.12 L1572,62788.50 L1573,63037.88 L1574,63287.25 L1575,63536.62 L1576,63786.00 L1577,64035.38 L1578,64301.38 L1579,64559.06 L1580,64816.75 L1581,65074.44 L1582,65323.81 L1583,65581.50 L1584,65830.88 L1585,66063.62 L1586,66296.38 L1587,66529.12 L1588,66753.56 L1589,66986.31 L1590,67219.06 L1591,67435.19 L1592,67666.94 L1593,67899.69 L1594,68136.06 L1595,68368.81 L1596,68601.56 L1597,68842.62 L1598,69067.06 L1599,69341.38 L1600,69590.56 L1601,69856.56 L1602,70122.62 L1603,70396.94 L1604,70629.69 L1605,70879.06 L1606,71121.88 L1607,71368.75 L1608,71604.00 L1609,71845.06 L1610,72087.06 L1611,72325.44 L1612,72558.19 L1613,72796.19 L1614,73070.50 L1615,73323.88 L1616,73589.88 L1617,73847.56 L1618,74113.56 L1619,74379.56 L1620,74645.56 L1621,74911.56 L1622,75178.50 L1623,75444.50 L1624,75709.31 L1625,75975.31 L1626,76245.31 L1627,76519.62 L1628,76790.44 L1629,77056.44 L1630,77327.88 L1631,77602.19 L1632,65160.88 L1633,60683.12 L1634,60682.25 L1635,60682.69 L1636,60682.69" style="vector-effect: non-scaling-stroke; stroke: #0000ff; stroke-width: 1; fill-opacity: 0" transform="scale(0.440098,-0.002577)"/>
<path id="g13p6" d=" M1,342.12 L2,342.12 L3,458.94 L4,488.94 L5,488.94 L6,488.94 L7,488.94 L8,488.94 L9,488.94 L10,501.50 L11,501.50 L12,501.50 L13,501.50 L14,495.12 L15,495.12 L16,495.12 L17,495.12 L18,495.12 L19,495.12 L20,495.12 L21,495.12 L22,495.12 L23,495.12 L24,495.12 L25,495.12 L26,495.12 L27,495.12 L28,495.12 L29,495.12 L30,495.12 L31,495.12 L32,495.12 L33,495.12 L34,495.12 L35,495.12 L36,495.12 L37,481.38 L38,479.31 L39,481.94 L40,481.94 L41,481.94 L42,492.19 L43,492.19 L44,492.19 L45,492.19 L46,492.19 L47,492.19 L48,492.19 L49,492.19 L50,492.19 L51,492.19 L52,492.19 L53,492.19 L54,492.19 L55,492.19 L56,492.19 L57,492.19 L58,492.19 L59,492.19 L60,492.19 L61,492.19 L62,492.19 L63,492.19 L64,492.19 L65,492.19 L66,492.19 L67,492.19 L68,492.19 L69,492.19 L70,492.19 L71,492.19 L72,478.12 L73,491.00 L74,491.00 L75,491.00 L76,491.00 L77,491.00 L78,485.00 L79,485.00 L80,485.00 L81,490.19 L82,492.75 L83,492.75 L84,492.75 L85,492.75 L86,492.75 L87,492.75 L88,492.75 L89,492.75 L90,492.75 L91,492.75 L92,492.75 L93,492.75 L94,492.75 L95,492.75 L96,492.75 L97,492.75 L98,492.75 L99,492.75 L100,492.75 L101,492.75 L102,492.75 L103,492.38 L104,492.38 L105,492.38 L106,492.38 L107,492.38 L108,484.62 L109,484.62 L110,484.62 L111,492.38 L112,492.38 L113,492.38 L114,492.38 L115,492.38 L116,492.38 L117,492.38 L118,492.38 L119,492.38 L120,492.38 L121,492.38 L122,492.38 L123,492.38 L124,492.38 L125,492.38 L126,492.38 L127,492.38 L128,492.38 L129,492.38 L130,492.38 L131,492.38 L132,492.38 L133,492.38 L134,492.38 L135,492.38 L136,492.38 L137,492.38 L138,483.94 L139,483.94 L140,483.94 L141,491.62 L142,491.62 L143,491.62 L144,491.62 L145,491.62 L146,491.62 L147,491.62 L148,491.62 L149,491.62 L150,491.62 L151,491.62 L152,491.62 L153,491.62 L154,491.62 L155,491.62 L156,491.62 L157,491.62 L158,491.62 L159,491.62 L160,491.62 L161,491.62 L162,491.62 L163,491.56 L164,491.56 L165,491.56 L166,491.56 L167,491.56 L168,480.94 L169,480.94 L170,483.50 L171,492.12 L172,492.12 L173,492.12 L174,492.12 L175,492.12 L176,492.12 L177,492.12 L178,492.12 L179,492.12 L180,492.12 L181,492.12 L182,492.12 L183,492.12 L184,492.12 L185,492.12 L186,492.12 L187,492.12 L188,492.12 L189,492.12 L190,492.12 L191,492.12 L192,492.12 L193,490.38 L194,490.38 L195,490.38 L196,490.38 L197,490.38 L198,490.38 L199,481.81 L200,481.81 L201,492.12 L202,492.12 L203,492.12 L204,492.12 L205,492.12 L206,492.12 L207,492.12 L208,492.12 L209,492.12 L210,492.12 L211,492.12 L212,492.12 L213,492.12 L214,492.12 L215,492.12 L216,492.12 L217,492.12 L218,492.12 L219,492.12 L220,492.12 L221,492.12 L222,492.12 L223,492.12 L224,492.12 L225,492.12 L226,492.12 L227,492.12 L228,484.38 L229,492.12 L230,492.12 L231,492.12 L232,492.12 L233,492.12 L234,483.50 L235,483.50 L236,483.50 L237,491.25 L238,491.25 L239,491.25 L240,491.25 L241,491.25 L242,491.25 L243,491.25 L244,491.25 L245,491.25 L246,491.25 L247,491.25 L248,491.25 L249,491.25 L250,491.25 L251,491.25 L252,491.25 L253,491.25 L254,491.25 L255,491.25 L256,491.25 L257,491.25 L258,484.44 L259,492.12 L260,492.12 L261,492.12 L262,492.12 L263,492.12 L264,483.56 L265,483.56 L266,493.88 L267,493.88 L268,493.88 L269,493.88 L270,493.88 L271,493.88 L272,493.88 L273,493.88 L274,493.88 L275,493.88 L276,493.88 L277,493.88 L278,493.88 L279,493.88 L280,493.88 L281,493.88 L282,493.88 L283,493.88 L284,493.88 L285,493.88 L286,493.88 L287,493.88 L288,493.88 L289,493.88 L290,493.88 L291,493.88 L292,493.88 L293,493.88 L294,493.88 L295,493.88 L296,482.69 L297,485.25 L298,485.25 L299,493.00 L300,493.00 L301,493.00 L302,493.00 L303,493.00 L304,493.00 L305,493.00 L306,493.00 L307,493.00 L308,493.00 L309,493.00 L310,493.00 L311,493.00 L312,493.00 L313,493.00 L314,493.00 L315,493.00 L316,493.00 L317,493.00 L318,493.00 L319,493.00 L320,493.00 L321,482.69 L322,493.00 L323,493.00 L324,493.00 L325,493.00 L326,493.00 L327,486.12 L328,486.12 L329,493.88 L330,493.88 L331,493.88 L332,493.88 L333,493.88 L334,493.88 L335,493.88 L336,493.88 L337,493.88 L338,493.88 L339,493.88 L340,493.88 L341,493.88 L342,493.88 L343,493.88 L344,493.88 L345,493.88 L346,493.88 L347,493.88 L348,493.88 L349,493.88 L350,493.88 L351,479.25 L352,492.12 L353,492.12 L354,492.12 L355,492.12 L356,492.12 L357,484.44 L358,484.44 L359,492.12 L360,492.12 L361,492.12 L362,492.12 L363,492.12 L364,492.12 L365,492.12 L366,492.12 L367,492.12 L368,492.12 L369,492.12 L370,492.12 L371,492.12 L372,492.12 L373,492.12 L374,492.12 L375,492.12 L376,492.12 L377,492.12 L378,492.12 L379,492.12 L380,492.12 L381,492.12 L382,492.12 L383,492.12 L384,492.12 L385,492.12 L386,492.12 L387,482.69 L388,482.69 L389,490.38 L390,490.38 L391,490.38 L392,490.38 L393,490.38 L394,490.38 L395,490.38 L396,490.38 L397,490.38 L398,490.38 L399,490.38 L400,490.38 L401,490.38 L402,490.38 L403,490.38 L404,490.38 L405,490.38 L406,490.38 L407,490.38 L408,483.50 L409,488.62 L410,488.62 L411,488.62 L412,488.62 L413,488.69 L414,478.44 L415,481.00 L416,488.69 L417,488.69 L418,488.69 L419,488.69 L420,488.69 L421,488.69 L422,488.69 L423,488.69 L424,488.69 L425,488.69 L426,488.69 L427,488.69 L428,488.69 L429,488.69 L430,488.69 L431,488.69 L432,488.69 L433,488.69 L434,488.69 L435,488.69 L436,488.69 L437,488.69 L438,482.75 L439,490.50 L440,490.50 L441,490.50 L442,490.50 L443,490.50 L444,483.62 L445,483.62 L446,491.38 L447,491.38 L448,491.38 L449,491.38 L450,491.38 L451,491.38 L452,491.38 L453,491.38 L454,491.38 L455,491.38 L456,491.38 L457,491.38 L458,491.38 L459,491.38 L460,491.38 L461,491.38 L462,491.38 L463,491.38 L464,491.38 L465,491.38 L466,491.38 L467,493.88 L468,498.06 L469,498.06 L470,498.06 L471,498.06 L472,486.38 L473,496.56 L474,496.56 L475,496.56 L476,496.56 L477,496.56 L478,488.88 L479,491.31 L480,496.44 L481,496.44 L482,496.44 L483,496.44 L484,496.44 L485,496.44 L486,496.44 L487,496.44 L488,496.44 L489,496.44 L490,496.44 L491,496.44 L492,496.44 L493,496.44 L494,496.44 L495,496.44 L496,496.44 L497,496.44 L498,496.44 L499,496.44 L500,496.44 L501,496.44 L502,496.44 L503,496.44 L504,486.12 L505,486.12 L506,496.44 L507,496.44 L508,496.44 L509,496.44 L510,496.44 L511,496.44 L512,496.44 L513,496.44 L514,494.75 L515,497.31 L516,497.31 L517,497.31 L518,497.31 L519,497.31 L520,497.31 L521,497.31 L522,497.31 L523,497.31 L524,497.31 L525,497.31 L526,497.31 L527,497.31 L528,497.31 L529,497.31 L530,497.31 L531,497.31 L532,497.31 L533,497.31 L534,488.69 L535,488.69 L536,496.44 L537,496.44 L538,496.44 L539,496.44 L540,496.44 L541,496.44 L542,496.44 L543,496.44 L544,496.44 L545,496.44 L546,496.44 L547,496.44 L548,496.44 L549,496.44 L550,496.44 L551,496.44 L552,496.44 L553,496.44 L554,496.44 L555,496.44 L556,496.44 L557,496.44 L558,496.44 L559,496.44 L560,496.44 L561,496.44 L562,487.88 L563,495.56 L564,495.56 L565,495.56 L566,495.56 L567,495.56 L568,488.69 L569,488.69 L570,496.44 L571,496.44 L572,496.44 L573,496.44 L574,496.44 L575,496.44 L576,496.44 L577,496.44 L578,496.44 L579,496.44 L580,496.44 L581,496.44 L582,496.44 L583,496.44 L584,496.44 L585,496.44 L586,496.44 L587,496.44 L588,496.44 L589,497.31 L590,497.31 L591,497.31 L592,497.31 L593,497.31 L594,486.88 L595,486.88 L596,486.88 L597,494.56 L598,494.56 L599,494.56 L600,494.56 L601,494.56 L602,494.56 L603,494.56 L604,494.56 L605,494.56 L606,494.56 L607,494.56 L608,494.56 L609,494.56 L610,494.56 L611,494.56 L612,494.56 L613,494.56 L614,494.56 L615,494.56 L616,494.56 L617,494.56 L618,494.56 L619,494.56 L620,494.56 L621,494.56 L622,494.56 L623,484.25 L624,494.56 L625,494.56 L626,494.56 L627,494.56 L628,494.56 L629,486.00 L630,486.00 L631,496.31 L632,496.31 L633,496.31 L634,496.31 L635,496.31 L636,496.31 L637,496.31 L638,496.31 L639,496.31 L640,496.31 L641,496.31 L642,496.31 L643,496.31 L644,496.31 L645,496.31 L646,496.31 L647,496.31 L648,496.31 L649,496.31 L650,496.31 L651,496.31 L652,496.31 L653,487.69 L654,495.44 L655,495.44 L656,495.44 L657,495.44 L658,495.44 L659,484.06 L660,484.06 L661,494.38 L662,494.38 L663,494.38 L664,494.38 L665,494.38 L666,494.38 L667,494.38 L668,494.38 L669,494.38 L670,494.38 L671,494.38 L672,494.38 L673,494.38 L674,494.38 L675,494.38 L676,494.38 L677,494.38 L678,494.38 L679,486.62 L680,494.38 L681,494.38 L682,494.38 L683,494.38 L684,494.38 L685,485.88 L686,485.88 L687,496.19 L688,496.19 L689,496.19 L690,496.19 L691,496.19 L692,496.19 L693,496.19 L694,496.19 L695,496.19 L696,496.19 L697,496.19 L698,496.19 L699,496.19 L700,496.19 L701,496.19 L702,496.19 L703,496.19 L704,496.19 L705,496.19 L706,496.19 L707,496.19 L708,496.19 L709,485.00 L710,495.31 L711,495.31 L712,495.31 L713,495.31 L714,495.31 L715,487.56 L716,487.56 L717,495.31 L718,495.31 L719,495.31 L720,495.31 L721,495.31 L722,495.31 L723,495.31 L724,495.31 L725,495.31 L726,495.31 L727,495.31 L728,495.31 L729,495.31 L730,495.31 L731,495.31 L732,495.31 L733,495.31 L734,495.31 L735,495.31 L736,495.31 L737,495.31 L738,495.31 L739,485.88 L740,496.19 L741,496.19 L742,496.19 L743,496.19 L744,496.19 L745,484.19 L746,486.75 L747,494.44 L748,494.44 L749,371.88 L750,486.81 L751,486.81 L752,486.81 L753,486.81 L754,486.81 L755,486.81 L756,486.81 L757,486.81 L758,486.81 L759,486.81 L760,486.81 L761,486.81 L762,486.81 L763,486.81 L764,486.81 L765,486.81 L766,486.81 L767,486.81 L768,486.81 L769,486.81 L770,486.81 L771,486.81 L772,486.81 L773,486.81 L774,486.81 L775,486.81 L776,486.81 L777,486.81 L778,486.81 L779,486.81 L780,486.81 L781,486.81 L782,486.81 L783,486.81 L784,486.81 L785,486.81 L786,486.81 L787,486.81 L788,486.81 L789,486.81 L790,486.81 L791,486.81 L792,486.81 L793,486.81 L794,486.81 L795,486.81 L796,486.81 L797,486.81 L798,486.81 L799,486.81 L800,486.81 L801,486.81 L802,486.81 L803,486.81 L804,486.81 L805,486.81 L806,486.81 L807,486.81 L808,486.81 L809,486.81 L810,486.81 L811,486.81 L812,486.81 L813,486.81 L814,486.81 L815,486.81 L816,486.81 L817,486.81 L818,486.81 L819,486.81 L820,486.81 L821,486.81 L822,486.81 L823,486.81 L824,486.81 L825,486.81 L826,486.81 L827,486.81 L828,486.81 L829,486.81 L830,486.81 L831,486.81 L832,486.81 L833,486.81 L834,486.81 L835,486.81 L836,486.81 L837,486.81 L838,486.81 L839,486.81 L840,491.19 L841,491.19 L842,491.19 L843,491.19 L844,491.19 L845,491.19 L846,491.19 L847,491.19 L848,491.19 L849,491.19 L850,491.19 L851,491.19 L852,491.19 L853,491.19 L854,491.19 L855,491.19 L856,491.19 L857,491.19 L858,491.19 L859,491.19 L860,491.19 L861,491.19 L862,491.19 L863,491.19 L864,491.19 L865,491.19 L866,491.19 L867,491.19 L868,491.19 L869,491.19 L870,491.19 L871,491.19 L872,491.19 L873,491.19 L874,491.19 L875,491.19 L876,491.19 L877,491.19 L878,491.19 L879,491.19 L880,490.25 L881,490.25 L882,490.25 L883,490.25 L884,490.25 L885,490.25 L886,490.25 L887,490.25 L888,490.25 L889,490.25 L890,490.25 L891,490.25 L892,490.25 L893,490.25 L894,490.25 L895,490.25 L896,490.25 L897,490.25 L898,490.25 L899,490.25 L900,490.25 L901,490.25 L902,490.25 L903,490.25 L904,490.25 L905,490.25 L906,490.25 L907,490.25 L908,490.25 L909,490.25 L910,490.25 L911,490.25 L912,490.25 L913,490.25 L914,490.25 L915,490.25 L916,490.25 L917,490.25 L918,490.25 L919,490.25 L920,490.25 L921,490.25 L922,490.25 L923,490.25 L924,490.25 L925,490.25 L926,490.25 L927,490.25 L928,490.25 L929,490.25 L930,490.25 L931,490.25 L932,490.25 L933,490.25 L934,490.25 L935,490.25 L936,490.25 L937,490.25 L938,490.25 L939,490.25 L940,490.25 L941,490.25 L942,490.25 L943,490.25 L944,490.25 L945,490.25 L946,490.25 L947,490.25 L948,490.25 L949,490.25 L950,490.25 L951,490.25 L952,490.25 L953,490.25 L954,490.25 L955,490.25 L956,490.25 L957,490.25 L958,490.25 L959,490.25 L960,490.25 L961,490.25 L962,490.25 L963,490.25 L964,490.25 L965,490.25 L966,490.25 L967,490.25 L968,490.25 L969,490.25 L970,490.25 L971,490.25 L972,490.25 L973,490.25 L974,490.25 L975,490.25 L976,490.25 L977,490.25 L978,490.25 L979,490.25 L980,429.56 L981,372.12 L982,372.12 L983,372.12 L984,372.12 L985,372.12 L986,372.12 L987,372.12 L988,372.12 L989,372.12 L990,372.12 L991,372.12 L992,372.12 L993,372.12 L994,372.12 L995,372.12 L996,372.12 L997,372.12 L998,372.12 L999,372.12 L1000,372.12 L1001,372.12 L1002,372.12 L1003,372.12 L1004,372.12 L1005,372.12 L1006,372.12 L1007,372.12 L1008,372.12 L1009,372.12 L1010,372.12 L1011,372.12 L1012,372.12 L1013,373.31 L1014,373.31 L1015,373.31 L1016,373.31 L1017,373.31 L1018,373.31 L1019,373.31 L1020,373.31 L1021,373.31 L1022,373.31 L1023,373.31 L1024,373.31 L1025,373.31 L1026,373.31 L1027,373.31 L1028,373.31 L1029,373.31 L1030,373.31 L1031,373.31 L1032,373.31 L1033,373.31 L1034,373.31 L1035,373.31 L1036,373.31 L1037,373.31 L1038,373.31 L1039,373.31 L1040,373.31 L1041,373.31 L1042,373.31 L1043,373.31 L1044,373.31 L1045,373.31 L1046,373.31 L1047,373.31 L1048,373.31 L1049,373.31 L1050,373.31 L1051,373.31 L1052,373.31 L1053,373.31 L1054,373.31 L1055,373.31 L1056,373.31 L1057,373.31 L1058,373.31 L1059,373.31 L1060,373.31 L1061,373.31 L1062,373.31 L1063,373.31 L1064,373.31 L1065,373.31 L1066,373.31 L1067,373.31 L1068,373.31 L1069,373.31 L1070,373.31 L1071,373.31 L1072,373.31 L1073,373.31 L1074,373.31 L1075,373.31 L1076,373.31 L1077,373.31 L1078,373.31 L1079,373.31 L1080,373.31 L1081,373.31 L1082,373.31 L1083,373.31 L1084,373.31 L1085,373.31 L1086,373.31 L1087,373.31 L1088,373.31 L1089,373.31 L1090,373.31 L1091,373.31 L1092,373.31 L1093,373.31 L1094,373.31 L1095,373.31 L1096,373.31 L1097,373.31 L1098,373.31 L1099,373.31 L1100,373.31 L1101,373.31 L1102,373.31 L1103,373.31 L1104,373.31 L1105,373.31 L1106,373.31 L1107,373.31 L1108,373.31 L1109,373.31 L1110,373.31 L1111,464.88 L1112,464.88 L1113,464.88 L1114,464.88 L1115,464.88 L1116,464.88 L1117,464.88 L1118,464.88 L1119,464.88 L1120,464.88 L1121,464.88 L1122,464.88 L1123,464.88 L1124,464.88 L1125,464.88 L1126,464.88 L1127,464.88 L1128,464.88 L1129,464.88 L1130,464.88 L1131,464.88 L1132,464.88 L1133,464.88 L1134,464.88 L1135,464.88 L1136,464.88 L1137,464.88 L1138,464.88 L1139,464.88 L1140,464.88 L1141,464.88 L1142,464.88 L1143,464.88 L1144,464.88 L1145,464.88 L1146,464.88 L1147,464.88 L1148,464.88 L1149,464.88 L1150,464.88 L1151,464.88 L1152,464.88 L1153,464.88 L1154,464.88 L1155,464.88 L1156,464.88 L1157,464.88 L1158,464.88 L1159,464.88 L1160,464.88 L1161,464.88 L1162,464.88 L1163,464.88 L1164,464.88 L1165,464.88 L1166,464.88 L1167,464.88 L1168,464.88 L1169,464.88 L1170,464.88 L1171,464.88 L1172,464.88 L1173,464.88 L1174,464.88 L1175,464.88 L1176,464.88 L1177,464.88 L1178,464.88 L1179,464.88 L1180,464.88 L1181,464.88 L1182,464.88 L1183,464.88 L1184,464.88 L1185,464.88 L1186,464.88 L1187,464.88 L1188,464.88 L1189,464.88 L1190,464.88 L1191,464.88 L1192,464.88 L1193,464.88 L1194,464.88 L1195,464.88 L1196,464.88 L1197,464.88 L1198,464.88 L1199,464.88 L1200,464.88 L1201,464.88 L1202,464.88 L1203,464.88 L1204,464.88 L1205,464.88 L1206,464.88 L1207,464.88 L1208,464.88 L1209,464.88 L1210,464.88 L1211,464.88 L1212,464.88 L1213,464.88 L1214,464.88 L1215,464.88 L1216,464.88 L1217,464.88 L1218,464.88 L1219,464.88 L1220,464.88 L1221,464.88 L1222,464.88 L1223,464.88 L1224,464.88 L1225,464.88 L1226,464.88 L1227,464.88 L1228,464.88 L1229,464.88 L1230,464.88 L1231,464.88 L1232,464.88 L1233,464.88 L1234,464.88 L1235,464.88 L1236,464.88 L1237,464.88 L1238,464.88 L1239,464.88 L1240,464.88 L1241,464.88 L1242,464.88 L1243,464.88 L1244,464.88 L1245,464.88 L1246,464.88 L1247,464.88 L1248,464.88 L1249,464.88 L1250,464.88 L1251,464.88 L1252,464.88 L1253,464.88 L1254,464.88 L1255,464.88 L1256,464.88 L1257,464.88 L1258,464.88 L1259,464.88 L1260,464.88 L1261,464.88 L1262,464.88 L1263,464.88 L1264,464.88 L1265,464.88 L1266,464.88 L1267,464.88 L1268,464.88 L1269,464.88 L1270,464.88 L1271,464.88 L1272,464.88 L1273,464.88 L1274,464.88 L1275,464.88 L1276,464.88 L1277,464.88 L1278,464.88 L1279,464.88 L1280,464.88 L1281,464.88 L1282,464.88 L1283,464.88 L1284,464.88 L1285,464.88 L1286,464.88 L1287,464.88 L1288,464.88 L1289,464.88 L1290,464.88 L1291,464.88 L1292,464.88 L1293,464.88 L1294,464.88 L1295,464.88 L1296,464.88 L1297,464.88 L1298,464.88 L1299,464.88 L1300,464.88 L1301,464.88 L1302,464.88 L1303,464.88 L1304,464.88 L1305,464.88 L1306,464.88 L1307,464.88 L1308,464.88 L1309,464.88 L1310,464.88 L1311,464.88 L1312,464.88 L1313,464.88 L1314,464.88 L1315,464.88 L1316,464.88 L1317,464.88 L1318,464.88 L1319,464.88 L1320,464.88 L1321,464.88 L1322,464.88 L1323,464.88 L1324,464.88 L1325,464.88 L1326,464.88 L1327,464.88 L1328,464.88 L1329,464.88 L1330,464.88 L1331,464.88 L1332,464.88 L1333,464.88 L1334,464.88 L1335,464.88 L1336,464.88 L1337,464.88 L1338,464.88 L1339,464.88 L1340,464.88 L1341,464.88 L1342,464.88 L1343,464.88 L1344,464.88 L1345,464.88 L1346,464.88 L1347,464.88 L1348,464.88 L1349,464.88 L1350,464.88 L1351,464.88 L1352,464.88 L1353,464.88 L1354,464.88 L1355,464.88 L1356,464.88 L1357,464.88 L1358,464.88 L1359,464.88 L1360,464.88 L1361,464.88 L1362,464.88 L1363,464.88 L1364,464.88 L1365,464.88 L1366,464.88 L1367,464.88 L1368,368.00 L1369,368.00 L1370,368.00 L1371,368.00 L1372,368.00 L1373,368.00 L1374,368.00 L1375,368.00 L1376,368.00 L1377,368.00 L1378,368.00 L1379,368.00 L1380,368.00 L1381,368.00 L1382,392.62 L1383,392.62 L1384,392.62 L1385,392.62 L1386,392.62 L1387,392.62 L1388,392.62 L1389,392.62 L1390,392.62 L1391,392.62 L1392,392.62 L1393,392.62 L1394,392.62 L1395,392.62 L1396,392.62 L1397,392.62 L1398,392.62 L1399,392.62 L1400,392.62 L1401,392.62 L1402,392.62 L1403,392.62 L1404,392.62 L1405,392.62 L1406,392.62 L1407,392.62 L1408,392.62 L1409,392.62 L1410,392.62 L1411,392.62 L1412,392.62 L1413,392.62 L1414,392.62 L1415,392.62 L1416,392.62 L1417,392.62 L1418,392.62 L1419,392.62 L1420,392.62 L1421,392.62 L1422,392.62 L1423,392.62 L1424,392.62 L1425,392.62 L1426,392.62 L1427,392.62 L1428,392.62 L1429,392.62 L1430,392.62 L1431,392.62 L1432,392.62 L1433,392.62 L1434,392.62 L1435,392.62 L1436,392.62 L1437,392.62 L1438,392.62 L1439,392.62 L1440,392.62 L1441,392.62 L1442,392.62 L1443,392.62 L1444,392.62 L1445,392.62 L1446,392.62 L1447,392.62 L1448,392.62 L1449,392.62 L1450,392.62 L1451,392.62 L1452,392.62 L1453,392.62 L1454,392.62 L1455,392.62 L1456,392.62 L1457,392.62 L1458,392.62 L1459,392.62 L1460,392.62 L1461,392.62 L1462,392.62 L1463,392.62 L1464,392.62 L1465,392.62 L1466,392.62 L1467,392.62 L1468,392.62 L1469,392.62 L1470,392.62 L1471,392.62 L1472,392.62 L1473,392.62 L1474,392.62 L1475,392.62 L1476,392.62 L1477,392.62 L1478,392.62 L1479,392.62 L1480,392.62 L1481,392.62 L1482,392.62 L1483,392.62 L1484,392.62 L1485,392.62 L1486,392.62 L1487,417.62 L1488,417.62 L1489,417.62 L1490,417.62 L1491,417.62 L1492,417.62 L1493,417.62 L1494,417.62 L1495,417.62 L1496,417.62 L1497,417.62 L1498,397.00 L1499,397.00 L1500,397.00 L1501,397.00 L1502,397.00 L1503,397.00 L1504,397.00 L1505,397.00 L1506,397.00 L1507,397.00 L1508,397.00 L1509,397.00 L1510,397.00 L1511,397.00 L1512,397.00 L1513,397.00 L1514,397.00 L1515,397.00 L1516,397.00 L1517,397.00 L1518,397.00 L1519,397.00 L1520,397.00 L1521,397.00 L1522,397.00 L1523,397.00 L1524,397.00 L1525,397.00 L1526,397.00 L1527,397.00 L1528,397.00 L1529,397.00 L1530,397.00 L1531,397.00 L1532,397.00 L1533,397.00 L1534,397.00 L1535,397.00 L1536,397.00 L1537,397.00 L1538,397.00 L1539,397.00 L1540,397.00 L1541,397.00 L1542,397.00 L1543,397.00 L1544,397.00 L1545,397.00 L1546,397.00 L1547,397.00 L1548,397.00 L1549,397.00 L1550,397.00 L1551,397.00 L1552,397.00 L1553,397.00 L1554,397.00 L1555,397.00 L1556,397.00 L1557,397.00 L1558,397.00 L1559,397.00 L1560,397.00 L1561,397.00 L1562,397.00 L1563,397.00 L1564,397.00 L1565,397.00 L1566,397.00 L1567,397.00 L1568,397.00 L1569,397.00 L1570,397.00 L1571,397.00 L1572,397.00 L1573,397.00 L1574,397.00 L1575,397.00 L1576,397.00 L1577,397.00 L1578,397.00 L1579,397.00 L1580,397.00 L1581,397.00 L1582,397.00 L1583,397.00 L1584,397.00 L1585,397.00 L1586,397.00 L1587,397.00 L1588,397.00 L1589,397.00 L1590,397.00 L1591,397.00 L1592,397.00 L1593,397.00 L1594,397.00 L1595,397.00 L1596,397.00 L1597,397.00 L1598,397.00 L1599,397.00 L1600,397.00 L1601,397.00 L1602,397.00 L1603,397.00 L1604,397.00 L1605,397.00 L1606,397.00 L1607,397.00 L1608,397.00 L1609,397.00 L1610,397.00 L1611,397.00 L1612,397.00 L1613,395.94 L1614,395.94 L1615,395.94 L1616,395.94 L1617,395.94 L1618,395.94 L1619,395.94 L1620,395.94 L1621,395.94 L1622,395.94 L1623,395.94 L1624,395.94 L1625,395.94 L1626,395.94 L1627,395.94 L1628,395.94 L1629,395.94 L1630,395.94 L1631,395.94 L1632,395.94 L1633,370.56 L1634,357.81 L1635,361.31 L1636,361.31" style="vector-effect: non-scaling-stroke; stroke: #006020; stroke-width: 1; fill-opacity: 0" transform="scale(0.440098,-0.002577)"/>
</g>
</g>
</svg>
