<?xml version="1.0" encoding="UTF-8"?>
<!DOCTYPE svg PUBLIC "-//W3C//DTD SVG 1.1//EN" "http://www.w3.org/Graphics/SVG/1.1/DTD/svg11.dtd">
<svg xmlns="http://www.w3.org/2000/svg" width="1060" height="350" fill="black" stroke="gray" stroke-width="1">
<text x= "0" y="30" text-anchor="start" stroke="brown">Linux 3.10.0-693.el7.ppc64le (centos-compression-iv1-main) 	04/30/2018 	_ppc64le_	(10 CPU)
</text>
<g id="18" transform="translate(0,50)">
<rect x="0" y="0" height="300" width="1050"/>
<text x="0" y="20" style="fill: yellow; stroke: none">Memory utilization (5)
<tspan x="795" y="25" style="fill: yellow; stroke: none; font-size: 12px">(Min, Max, Average values)</tspan></text>
<polyline points="70,50 70,250 790,250" stroke="white" stroke-width="2"/>
<text x="795" y="50" style="fill: #ffff00; stroke: none; font-size: 12px">MBactive (306.12, 77643.00, 17041.370)</text><text x="795" y="65" style="fill: #666635; stroke: none; font-size: 12px">MBinact (128.88, 69720.88, 29997.518)</text><text x="795" y="80" style="fill: #d60093; stroke: none; font-size: 12px">MBdirty (0.00, 17257.12, 3047.438)</text><g transform="translate(70,250)">
<text x="0" y="0" style="fill: white; stroke: none; font-size: 12px; text-anchor: end">0.</text>
<polyline points="0,20000.00 720,20000.00" style="vector-effect: non-scaling-stroke; stroke: #202020" transform="scale(1,-0.002576)"/>
<text x="0" y="-51" style="fill: white; stroke: none; font-size: 12px; text-anchor: end">20000.</text>
<polyline points="0,40000.00 720,40000.00" style="vector-effect: non-scaling-stroke; stroke: #202020" transform="scale(1,-0.002576)"/>
<text x="0" y="-103" style="fill: white; stroke: none; font-size: 12px; text-anchor: end">40000.</text>
<polyline points="0,60000.00 720,60000.00" style="vector-effect: non-scaling-stroke; stroke: #202020" transform="scale(1,-0.002576)"/>
<text x="0" y="-154" style="fill: white; stroke: none; font-size: 12px; text-anchor: end">60000.</text>
<polyline points="0,0 0,-200" style="vector-effect: non-scaling-stroke; stroke: #202020" transform="scale(0.440098,1)"/>
<text x="0" y="10" style="fill: white; stroke: none; font-size: 12px; text-anchor: start" transform="rotate(45,0,0)">00:53:14</text>
<polyline points="163,0 163,-200" style="vector-effect: non-scaling-stroke; stroke: #202020" transform="scale(0.440098,1)"/>
<text x="71" y="10" style="fill: white; stroke: none; font-size: 12px; text-anchor: start" transform="rotate(45,71,0)">00:55:57</text>
<polyline points="326,0 326,-200" style="vector-effect: non-scaling-stroke; stroke: #202020" transform="scale(0.440098,1)"/>
<text x="143" y="10" style="fill: white; stroke: none; font-size: 12px; text-anchor: start" transform="rotate(45,143,0)">00:58:40</text>
<polyline points="489,0 489,-200" style="vector-effect: non-scaling-stroke; stroke: #202020" transform="scale(0.440098,1)"/>
<text x="215" y="10" style="fill: white; stroke: none; font-size: 12px; text-anchor: start" transform="rotate(45,215,0)">01:01:23</text>
<polyline points="652,0 652,-200" style="vector-effect: non-scaling-stroke; stroke: #202020" transform="scale(0.440098,1)"/>
<text x="286" y="10" style="fill: white; stroke: none; font-size: 12px; text-anchor: start" transform="rotate(45,286,0)">01:04:06</text>
<polyline points="815,0 815,-200" style="vector-effect: non-scaling-stroke; stroke: #202020" transform="scale(0.440098,1)"/>
<text x="358" y="10" style="fill: white; stroke: none; font-size: 12px; text-anchor: start" transform="rotate(45,358,0)">01:06:49</text>
<polyline points="978,0 978,-200" style="vector-effect: non-scaling-stroke; stroke: #202020" transform="scale(0.440098,1)"/>
<text x="430" y="10" style="fill: white; stroke: none; font-size: 12px; text-anchor: start" transform="rotate(45,430,0)">01:09:32</text>
<polyline points="1141,0 1141,-200" style="vector-effect: non-scaling-stroke; stroke: #202020" transform="scale(0.440098,1)"/>
<text x="502" y="10" style="fill: white; stroke: none; font-size: 12px; text-anchor: start" transform="rotate(45,502,0)">01:12:15</text>
<polyline points="1304,0 1304,-200" style="vector-effect: non-scaling-stroke; stroke: #202020" transform="scale(0.440098,1)"/>
<text x="573" y="10" style="fill: white; stroke: none; font-size: 12px; text-anchor: start" transform="rotate(45,573,0)">01:14:58</text>
<polyline points="1467,0 1467,-200" style="vector-effect: non-scaling-stroke; stroke: #202020" transform="scale(0.440098,1)"/>
<text x="645" y="10" style="fill: white; stroke: none; font-size: 12px; text-anchor: start" transform="rotate(45,645,0)">01:17:41</text>
<polyline points="1630,0 1630,-200" style="vector-effect: non-scaling-stroke; stroke: #202020" transform="scale(0.440098,1)"/>
<text x="717" y="10" style="fill: white; stroke: none; font-size: 12px; text-anchor: start" transform="rotate(45,717,0)">01:20:24</text>
<text x="-10" y="30" style="fill: yellow; stroke: none; font-size: 12px; text-anchor: end">UTC</text>
<path id="g13p8" d=" M1,306.12 L2,306.12 L3,311.69 L4,393.62 L5,412.62 L6,416.00 L7,424.56 L8,427.31 L9,443.44 L10,435.94 L11,454.50 L12,453.94 L13,454.19 L14,465.56 L15,469.81 L16,491.38 L17,480.75 L18,497.38 L19,464.00 L20,499.06 L21,503.19 L22,503.56 L23,498.56 L24,523.81 L25,541.50 L26,542.06 L27,542.06 L28,546.62 L29,558.75 L30,564.69 L31,571.06 L32,580.75 L33,586.62 L34,601.88 L35,608.06 L36,620.25 L37,553.88 L38,558.81 L39,586.00 L40,580.25 L41,564.12 L42,615.75 L43,627.44 L44,631.31 L45,630.19 L46,647.19 L47,648.31 L48,658.88 L49,674.50 L50,671.00 L51,680.62 L52,690.94 L53,703.44 L54,707.88 L55,714.56 L56,725.62 L57,724.94 L58,724.94 L59,731.38 L60,735.75 L61,753.06 L62,769.75 L63,759.81 L64,773.00 L65,780.94 L66,792.06 L67,803.12 L68,789.44 L69,797.94 L70,814.31 L71,826.00 L72,764.81 L73,826.69 L74,829.56 L75,847.38 L76,849.44 L77,858.38 L78,804.06 L79,804.19 L80,827.75 L81,876.38 L82,879.06 L83,881.62 L84,876.75 L85,894.81 L86,900.38 L87,898.56 L88,914.88 L89,922.00 L90,939.25 L91,940.44 L92,941.56 L93,953.31 L94,954.38 L95,966.88 L96,973.81 L97,985.56 L98,993.38 L99,994.62 L100,990.75 L101,1007.12 L102,958.25 L103,1020.25 L104,1015.38 L105,1026.38 L106,1010.25 L107,1043.19 L108,986.00 L109,985.38 L110,984.50 L111,1050.25 L112,1053.75 L113,1059.94 L114,1059.94 L115,1076.06 L116,1079.19 L117,1082.88 L118,1093.12 L119,1110.12 L120,1100.75 L121,1106.88 L122,1126.06 L123,1130.44 L124,1131.88 L125,1144.69 L126,1134.62 L127,1152.31 L128,1156.12 L129,1165.31 L130,1163.69 L131,1178.69 L132,1139.56 L133,1184.75 L134,1201.44 L135,1208.31 L136,1205.00 L137,1210.44 L138,1176.38 L139,1161.62 L140,1182.00 L141,1229.00 L142,1235.25 L143,1246.94 L144,1254.44 L145,1244.44 L146,1252.19 L147,1274.50 L148,1265.56 L149,1287.50 L150,1282.44 L151,1287.12 L152,1307.25 L153,1308.25 L154,1303.94 L155,1327.38 L156,1334.38 L157,1332.69 L158,1352.75 L159,1338.88 L160,1364.81 L161,1356.31 L162,1367.88 L163,1373.38 L164,1379.50 L165,1387.88 L166,1393.88 L167,1390.12 L168,1342.50 L169,1343.56 L170,1349.12 L171,1403.19 L172,1415.50 L173,1424.44 L174,1412.56 L175,1441.75 L176,1442.56 L177,1438.31 L178,1455.62 L179,1462.88 L180,1459.50 L181,1469.69 L182,1473.00 L183,1499.06 L184,1489.56 L185,1501.62 L186,1501.94 L187,1515.25 L188,1525.69 L189,1533.44 L190,1517.12 L191,1533.88 L192,1542.31 L193,1537.31 L194,1565.25 L195,1562.25 L196,1574.25 L197,1569.94 L198,1532.38 L199,1569.50 L200,1523.19 L201,1590.00 L202,1599.31 L203,1602.06 L204,1606.12 L205,1612.69 L206,1626.44 L207,1634.06 L208,1644.81 L209,1640.56 L210,1648.00 L211,1665.44 L212,1662.81 L213,1673.12 L214,1673.62 L215,1680.12 L216,1692.56 L217,1687.56 L218,1709.06 L219,1706.31 L220,1710.81 L221,1718.69 L222,1721.06 L223,1737.12 L224,1727.62 L225,1747.50 L226,1746.75 L227,1754.69 L228,1709.12 L229,1767.81 L230,1757.94 L231,1780.50 L232,1769.94 L233,1756.50 L234,1737.00 L235,1734.88 L236,1737.88 L237,1803.94 L238,1804.88 L239,1800.31 L240,1822.75 L241,1818.44 L242,1835.12 L243,1842.00 L244,1848.50 L245,1854.88 L246,1865.56 L247,1855.31 L248,1860.38 L249,1874.06 L250,1873.62 L251,1879.44 L252,1902.38 L253,1897.44 L254,1905.25 L255,1922.56 L256,1913.62 L257,1934.38 L258,1876.69 L259,1927.25 L260,1933.75 L261,1955.44 L262,1961.81 L263,1968.12 L264,1908.19 L265,1903.62 L266,1976.62 L267,1977.00 L268,1993.50 L269,2000.25 L270,2001.62 L271,1997.12 L272,2008.56 L273,2020.25 L274,2021.88 L275,2037.88 L276,2034.75 L277,2051.75 L278,2046.06 L279,2052.25 L280,2053.94 L281,2071.62 L282,2078.25 L283,2060.62 L284,2085.81 L285,2092.69 L286,2092.62 L287,2103.81 L288,2112.31 L289,2116.75 L290,2088.81 L291,2120.19 L292,2126.88 L293,2132.62 L294,2133.31 L295,2157.81 L296,2102.44 L297,2148.00 L298,2127.00 L299,2162.75 L300,2176.25 L301,2171.94 L302,2188.75 L303,2194.19 L304,2196.00 L305,2202.25 L306,2202.19 L307,2204.56 L308,2222.88 L309,2239.81 L310,2240.44 L311,2247.44 L312,2247.62 L313,2264.56 L314,2266.56 L315,2273.12 L316,2276.56 L317,2289.31 L318,2289.62 L319,2301.88 L320,2291.50 L321,2255.62 L322,2299.69 L323,2316.25 L324,2318.88 L325,2334.56 L326,2335.75 L327,2280.50 L328,2278.62 L329,2336.81 L330,2356.81 L331,2345.75 L332,2375.50 L333,2366.62 L334,2382.50 L335,2387.44 L336,2378.50 L337,2395.69 L338,2396.50 L339,2413.56 L340,2420.38 L341,2421.12 L342,2422.50 L343,2433.44 L344,2440.25 L345,2456.25 L346,2435.81 L347,2453.12 L348,2454.50 L349,2483.00 L350,2477.31 L351,2419.62 L352,2477.06 L353,2493.75 L354,2494.38 L355,2494.75 L356,2505.88 L357,2456.19 L358,2460.44 L359,2512.75 L360,2523.44 L361,2538.94 L362,2538.19 L363,2538.69 L364,2556.06 L365,2562.00 L366,2552.81 L367,2574.81 L368,2581.50 L369,2588.44 L370,2582.38 L371,2601.06 L372,2602.19 L373,2612.44 L374,2586.88 L375,2622.12 L376,2622.31 L377,2638.69 L378,2634.31 L379,2645.25 L380,2655.94 L381,2622.75 L382,2670.88 L383,2668.31 L384,2676.00 L385,2687.50 L386,2692.50 L387,2636.25 L388,2631.88 L389,2700.81 L390,2707.38 L391,2710.75 L392,2720.81 L393,2715.00 L394,2734.06 L395,2732.19 L396,2751.94 L397,2748.88 L398,2766.25 L399,2766.81 L400,2772.81 L401,2762.56 L402,2780.38 L403,2777.25 L404,2791.44 L405,2797.44 L406,2814.75 L407,2804.38 L408,2780.38 L409,2824.06 L410,2825.75 L411,2826.62 L412,2833.25 L413,2829.50 L414,2830.19 L415,2795.50 L416,2854.81 L417,2848.38 L418,2861.81 L419,2854.19 L420,2871.00 L421,2898.19 L422,2893.50 L423,2898.69 L424,2905.50 L425,2911.12 L426,2928.50 L427,2924.50 L428,2929.88 L429,2930.81 L430,2939.31 L431,2950.75 L432,2961.31 L433,2956.88 L434,2974.31 L435,2976.06 L436,2981.38 L437,2984.75 L438,2948.56 L439,3005.88 L440,2994.12 L441,3001.06 L442,3012.38 L443,3018.50 L444,2968.12 L445,2966.00 L446,3032.81 L447,3027.12 L448,3026.56 L449,3049.38 L450,3060.50 L451,3062.94 L452,3060.88 L453,3062.88 L454,3081.69 L455,3087.50 L456,3093.62 L457,3105.06 L458,3095.12 L459,3110.94 L460,3121.81 L461,3110.44 L462,3127.69 L463,3132.06 L464,3138.50 L465,3144.31 L466,3157.19 L467,3159.75 L468,3156.19 L469,3178.69 L470,3179.50 L471,3169.44 L472,3127.06 L473,3190.62 L474,3202.00 L475,3212.62 L476,3208.31 L477,3230.62 L478,3215.75 L479,3204.69 L480,3234.44 L481,3231.50 L482,3242.25 L483,3232.25 L484,3249.62 L485,3249.88 L486,3261.69 L487,3273.06 L488,3279.38 L489,3285.94 L490,3286.69 L491,3294.00 L492,3305.31 L493,3315.75 L494,3316.44 L495,3323.81 L496,3335.12 L497,3330.62 L498,3339.44 L499,3340.06 L500,3335.69 L501,3348.19 L502,3365.31 L503,3360.50 L504,3314.38 L505,3319.00 L506,3383.19 L507,3389.75 L508,3401.25 L509,3402.31 L510,3408.44 L511,3409.81 L512,3416.38 L513,3427.88 L514,3423.19 L515,3433.94 L516,3430.00 L517,3446.56 L518,3458.31 L519,3464.56 L520,3465.00 L521,3464.75 L522,3481.25 L523,3483.50 L524,3500.00 L525,3505.81 L526,3500.88 L527,3512.56 L528,3487.88 L529,3514.38 L530,3521.19 L531,3533.88 L532,3531.31 L533,3546.50 L534,3490.12 L535,3490.38 L536,3551.44 L537,3556.31 L538,3563.06 L539,3575.31 L540,3587.56 L541,3565.56 L542,3583.62 L543,3600.38 L544,3600.75 L545,3607.94 L546,3608.44 L547,3630.62 L548,3632.19 L549,3628.69 L550,3645.75 L551,3635.12 L552,3645.75 L553,3663.44 L554,3655.00 L555,3664.19 L556,3678.56 L557,3693.06 L558,3674.88 L559,3702.62 L560,3709.12 L561,3710.25 L562,3658.31 L563,3728.25 L564,3715.44 L565,3737.31 L566,3739.69 L567,3744.88 L568,3693.44 L569,3692.62 L570,3752.50 L571,3753.12 L572,3770.12 L573,3772.44 L574,3766.06 L575,3789.31 L576,3796.25 L577,3799.06 L578,3809.19 L579,3815.31 L580,3826.75 L581,3819.56 L582,3840.00 L583,3841.38 L584,3847.25 L585,3846.00 L586,3861.62 L587,3866.56 L588,3867.69 L589,3871.88 L590,3887.00 L591,3882.06 L592,3893.69 L593,3894.81 L594,3845.12 L595,3870.94 L596,3848.75 L597,3904.62 L598,3917.06 L599,3934.62 L600,3933.00 L601,3942.94 L602,3943.81 L603,3950.12 L604,3961.62 L605,3968.38 L606,3962.44 L607,3969.56 L608,3986.50 L609,3987.88 L610,4000.12 L611,4012.00 L612,4012.44 L613,4024.88 L614,4021.81 L615,4029.06 L616,4043.25 L617,4044.94 L618,4051.38 L619,4052.19 L620,4052.38 L621,4047.69 L622,4075.81 L623,4018.62 L624,4074.19 L625,4085.50 L626,4078.94 L627,4093.94 L628,4104.75 L629,4077.75 L630,4047.06 L631,4118.69 L632,4130.56 L633,4138.00 L634,4132.75 L635,4144.44 L636,4157.19 L637,4146.94 L638,4163.06 L639,4175.94 L640,4166.31 L641,4188.25 L642,4184.62 L643,4195.44 L644,4202.31 L645,4186.06 L646,4214.81 L647,4210.06 L648,4222.81 L649,4229.00 L650,4234.94 L651,4247.38 L652,4236.75 L653,4194.12 L654,4255.88 L655,4264.31 L656,4274.56 L657,4281.38 L658,4274.69 L659,4230.06 L660,4252.38 L661,4286.06 L662,4297.44 L663,4303.00 L664,4314.94 L665,4318.31 L666,4333.31 L667,4327.62 L668,4334.62 L669,4335.56 L670,4351.94 L671,4364.62 L672,4359.81 L673,4371.50 L674,4383.75 L675,4389.44 L676,4386.06 L677,4391.62 L678,4390.00 L679,4343.31 L680,4403.31 L681,4423.50 L682,4419.94 L683,4431.88 L684,4432.94 L685,4378.81 L686,4396.50 L687,4442.69 L688,4441.81 L689,4443.88 L690,4455.56 L691,4466.56 L692,4477.00 L693,4470.56 L694,4485.19 L695,4490.62 L696,4491.69 L697,4509.00 L698,4511.94 L699,4516.00 L700,4523.75 L701,4528.25 L702,4530.25 L703,4548.06 L704,4552.94 L705,4548.38 L706,4560.00 L707,4566.31 L708,4566.81 L709,4561.81 L710,4560.38 L711,4588.56 L712,4595.00 L713,4600.31 L714,4597.12 L715,4596.38 L716,4550.94 L717,4621.62 L718,4627.00 L719,4628.69 L720,4623.56 L721,4640.50 L722,4641.94 L723,4658.75 L724,4660.25 L725,4676.19 L726,4677.75 L727,4683.12 L728,4695.62 L729,4695.88 L730,4699.44 L731,4708.19 L732,4714.12 L733,4720.62 L734,4714.81 L735,4726.44 L736,4743.75 L737,4733.62 L738,4739.06 L739,4694.06 L740,4759.12 L741,4760.12 L742,4771.94 L743,4756.31 L744,4784.06 L745,4720.81 L746,4758.62 L747,4787.75 L748,4797.38 L749,4718.81 L750,4798.00 L751,4873.19 L752,4944.69 L753,5015.31 L754,5085.94 L755,5154.25 L756,5197.75 L757,5265.50 L758,5330.12 L759,5409.62 L760,5473.19 L761,5542.56 L762,5616.44 L763,5685.62 L764,5754.00 L765,5823.25 L766,5897.50 L767,5961.25 L768,6035.44 L769,6105.25 L770,6174.12 L771,6243.44 L772,6307.50 L773,6381.94 L774,6446.00 L775,6515.75 L776,6589.88 L777,6664.38 L778,6733.75 L779,6802.31 L780,6862.44 L781,6933.69 L782,7004.44 L783,7071.62 L784,7142.88 L785,7212.38 L786,7282.06 L787,7345.25 L788,7415.44 L789,7484.00 L790,7553.88 L791,7614.62 L792,7687.00 L793,7757.06 L794,7826.19 L795,7890.81 L796,7959.88 L797,8029.88 L798,8094.25 L799,8163.31 L800,8233.25 L801,8293.56 L802,8366.75 L803,8430.94 L804,8500.75 L805,8565.31 L806,8630.19 L807,8693.94 L808,8764.62 L809,8829.75 L810,8891.62 L811,8956.44 L812,9020.69 L813,9086.19 L814,9156.81 L815,9222.50 L816,9289.06 L817,9355.00 L818,9421.44 L819,9491.81 L820,9557.75 L821,9621.31 L822,9687.62 L823,9751.06 L824,9816.44 L825,9876.88 L826,9939.12 L827,10002.75 L828,10065.56 L829,10125.69 L830,10188.88 L831,10252.69 L832,10317.56 L833,10379.19 L834,10441.88 L835,10503.12 L836,10568.00 L837,10627.81 L838,10690.62 L839,10753.06 L840,10817.00 L841,10880.00 L842,10943.81 L843,11007.56 L844,11070.81 L845,11131.81 L846,11193.94 L847,11258.38 L848,11319.56 L849,11382.56 L850,11445.06 L851,11509.31 L852,11568.88 L853,11632.25 L854,11696.56 L855,11761.69 L856,11818.62 L857,11881.12 L858,11944.50 L859,12007.88 L860,12067.44 L861,12130.81 L862,12192.50 L863,12255.88 L864,12318.38 L865,12381.81 L866,12443.44 L867,12506.25 L868,12569.62 L869,12631.19 L870,12694.62 L871,12753.31 L872,12817.56 L873,12882.69 L874,12946.06 L875,13002.12 L876,13065.50 L877,13128.00 L878,13192.31 L879,13253.06 L880,13309.00 L881,13369.25 L882,13431.06 L883,13490.88 L884,13550.75 L885,13606.12 L886,13674.12 L887,13737.44 L888,13797.69 L889,13859.38 L890,13920.69 L891,13980.12 L892,14041.12 L893,14100.62 L894,14163.88 L895,14223.75 L896,14283.38 L897,14345.31 L898,14406.56 L899,14470.62 L900,14530.50 L901,14590.56 L902,14650.94 L903,14714.31 L904,14772.44 L905,14833.19 L906,14895.88 L907,14960.56 L908,15020.69 L909,15081.06 L910,15147.00 L911,15206.44 L912,15272.12 L913,15332.00 L914,15397.81 L915,15457.38 L916,15522.50 L917,15583.00 L918,15642.94 L919,15708.75 L920,15769.44 L921,15829.88 L922,15889.50 L923,15955.38 L924,16016.00 L925,16076.69 L926,16141.81 L927,16201.75 L928,16262.25 L929,16327.31 L930,16390.19 L931,16449.75 L932,16513.56 L933,16574.88 L934,16636.44 L935,16698.38 L936,16761.94 L937,16826.56 L938,16892.12 L939,16978.75 L940,17061.94 L941,17115.62 L942,17164.81 L943,17220.25 L944,17273.25 L945,17304.56 L946,17340.81 L947,17368.88 L948,17403.50 L949,17430.69 L950,17457.12 L951,17482.06 L952,17501.56 L953,17524.69 L954,17586.56 L955,17635.75 L956,17682.62 L957,17731.81 L958,17781.94 L959,17814.94 L960,17835.75 L961,17870.19 L962,17881.31 L963,17927.56 L964,17967.88 L965,18010.88 L966,18055.88 L967,18102.38 L968,18150.69 L969,18194.44 L970,18224.19 L971,18247.62 L972,18276.81 L973,18288.62 L974,18322.38 L975,18345.88 L976,18368.94 L977,18392.56 L978,18421.25 L979,18457.75 L980,9251.69 L981,4719.38 L982,4719.38 L983,4719.38 L984,4719.38 L985,4719.38 L986,4719.38 L987,4719.38 L988,4719.38 L989,4719.38 L990,4719.38 L991,4719.38 L992,4719.38 L993,4719.38 L994,4719.38 L995,4719.38 L996,4719.38 L997,4719.38 L998,4719.38 L999,4719.38 L1000,4717.38 L1001,4720.81 L1002,4720.81 L1003,4720.81 L1004,4720.81 L1005,4720.81 L1006,4720.81 L1007,4720.88 L1008,4720.88 L1009,4720.88 L1010,4720.88 L1011,4720.88 L1012,4720.88 L1013,4721.94 L1014,4721.94 L1015,4721.25 L1016,4721.25 L1017,4721.25 L1018,4721.25 L1019,4721.25 L1020,4721.25 L1021,4721.25 L1022,4721.25 L1023,4721.25 L1024,4721.25 L1025,4721.25 L1026,4721.25 L1027,4721.25 L1028,4721.25 L1029,4721.25 L1030,4721.25 L1031,4721.25 L1032,4721.25 L1033,4721.25 L1034,4721.25 L1035,4721.25 L1036,4721.25 L1037,4721.25 L1038,4721.25 L1039,4721.25 L1040,4721.25 L1041,4721.25 L1042,4721.25 L1043,4721.25 L1044,4721.25 L1045,4721.25 L1046,4721.25 L1047,4721.25 L1048,4721.25 L1049,4721.25 L1050,4721.50 L1051,4721.50 L1052,4721.50 L1053,4721.50 L1054,4721.50 L1055,4721.50 L1056,4721.50 L1057,4721.50 L1058,4721.50 L1059,4721.50 L1060,4721.50 L1061,4721.50 L1062,4721.56 L1063,4721.56 L1064,4721.62 L1065,4721.62 L1066,4721.62 L1067,4721.62 L1068,4721.62 L1069,4721.62 L1070,4721.62 L1071,4721.62 L1072,4721.62 L1073,4721.62 L1074,4721.62 L1075,4721.62 L1076,4721.62 L1077,4721.62 L1078,4721.62 L1079,4721.62 L1080,4721.62 L1081,4721.62 L1082,4721.62 L1083,4721.62 L1084,4721.62 L1085,4721.62 L1086,4721.62 L1087,4721.62 L1088,4721.62 L1089,4721.62 L1090,4721.62 L1091,4721.62 L1092,4721.62 L1093,4721.62 L1094,4721.62 L1095,4721.62 L1096,4721.62 L1097,4721.62 L1098,4721.62 L1099,4721.88 L1100,4721.88 L1101,4721.88 L1102,4721.88 L1103,4721.88 L1104,4721.88 L1105,4721.88 L1106,4721.88 L1107,4721.88 L1108,4721.88 L1109,4721.88 L1110,4721.88 L1111,4926.44 L1112,5166.50 L1113,5405.62 L1114,5637.06 L1115,5876.56 L1116,6110.19 L1117,6366.06 L1118,6657.75 L1119,6978.38 L1120,7223.81 L1121,7467.31 L1122,7711.69 L1123,7956.94 L1124,8201.25 L1125,8447.12 L1126,8695.88 L1127,8946.25 L1128,9191.00 L1129,9435.75 L1130,9691.62 L1131,9943.12 L1132,10196.88 L1133,10452.62 L1134,10708.38 L1135,10972.31 L1136,11239.19 L1137,11495.06 L1138,11756.75 L1139,12012.62 L1140,12269.69 L1141,12531.31 L1142,12774.62 L1143,13045.50 L1144,13304.31 L1145,13563.44 L1146,13817.31 L1147,14076.88 L1148,14344.50 L1149,14613.56 L1150,14870.38 L1151,15136.06 L1152,15401.31 L1153,15664.19 L1154,15919.62 L1155,16184.25 L1156,16448.88 L1157,16708.06 L1158,16985.38 L1159,17246.50 L1160,17510.19 L1161,17779.25 L1162,18038.38 L1163,18306.38 L1164,18575.25 L1165,18844.25 L1166,19112.12 L1167,19382.19 L1168,19650.94 L1169,19916.38 L1170,20187.25 L1171,20457.06 L1172,20713.31 L1173,20981.94 L1174,21252.56 L1175,21525.19 L1176,21796.56 L1177,22065.38 L1178,22343.44 L1179,22617.44 L1180,22886.38 L1181,23161.00 L1182,23436.88 L1183,23720.81 L1184,23992.25 L1185,24272.19 L1186,24556.56 L1187,24831.50 L1188,25106.38 L1189,25385.38 L1190,25658.12 L1191,25934.62 L1192,26215.25 L1193,26485.69 L1194,26767.44 L1195,27043.31 L1196,27320.94 L1197,27607.06 L1198,27882.56 L1199,28161.62 L1200,28444.62 L1201,28728.56 L1202,29010.31 L1203,29290.81 L1204,29575.44 L1205,29883.81 L1206,30177.62 L1207,30470.50 L1208,30756.62 L1209,31063.88 L1210,31354.88 L1211,31647.38 L1212,31941.50 L1213,32234.12 L1214,32532.50 L1215,32825.88 L1216,33125.12 L1217,33429.88 L1218,33726.31 L1219,34031.06 L1220,34332.31 L1221,34628.69 L1222,34950.50 L1223,35242.75 L1224,35532.25 L1225,35823.94 L1226,36113.19 L1227,36406.50 L1228,36712.81 L1229,37004.56 L1230,37308.69 L1231,37605.31 L1232,37891.12 L1233,38175.06 L1234,38482.94 L1235,38777.00 L1236,39073.81 L1237,39368.75 L1238,39666.00 L1239,39961.25 L1240,40256.81 L1241,40557.62 L1242,40857.31 L1243,41158.06 L1244,41456.19 L1245,41751.25 L1246,42048.94 L1247,42354.75 L1248,42654.88 L1249,42956.25 L1250,43256.81 L1251,43557.69 L1252,43847.62 L1253,44142.62 L1254,44444.38 L1255,44735.88 L1256,45036.06 L1257,45335.06 L1258,45628.44 L1259,45926.50 L1260,46215.81 L1261,46513.25 L1262,46818.94 L1263,47125.25 L1264,47412.50 L1265,47715.50 L1266,48012.94 L1267,48307.94 L1268,48633.56 L1269,48939.31 L1270,49248.06 L1271,49555.19 L1272,49870.81 L1273,50193.38 L1274,50502.81 L1275,50806.19 L1276,51099.75 L1277,51396.06 L1278,51701.19 L1279,51994.19 L1280,52298.50 L1281,52612.00 L1282,52923.12 L1283,53231.81 L1284,53529.19 L1285,53834.00 L1286,54144.38 L1287,54453.62 L1288,54759.88 L1289,55063.56 L1290,55364.31 L1291,55676.31 L1292,55998.31 L1293,56305.75 L1294,56595.88 L1295,56886.62 L1296,57185.44 L1297,57488.44 L1298,57790.88 L1299,58087.75 L1300,58392.25 L1301,58697.19 L1302,58987.38 L1303,59293.62 L1304,59594.81 L1305,59890.69 L1306,60195.44 L1307,60497.12 L1308,60800.31 L1309,61097.75 L1310,61393.44 L1311,61704.38 L1312,62008.31 L1313,62312.00 L1314,62618.12 L1315,62922.75 L1316,63226.62 L1317,63530.31 L1318,63838.31 L1319,64148.44 L1320,64452.19 L1321,64748.19 L1322,65053.75 L1323,65355.00 L1324,65654.31 L1325,65939.19 L1326,66238.06 L1327,66547.75 L1328,66849.62 L1329,67148.88 L1330,67454.12 L1331,67759.19 L1332,68062.06 L1333,68361.06 L1334,68666.31 L1335,68972.62 L1336,69285.88 L1337,69592.81 L1338,69905.75 L1339,70216.38 L1340,70521.12 L1341,70827.25 L1342,71128.88 L1343,71433.31 L1344,71740.44 L1345,72045.44 L1346,72371.75 L1347,72676.56 L1348,72990.38 L1349,73304.31 L1350,73619.62 L1351,73928.81 L1352,74239.56 L1353,74553.75 L1354,74864.38 L1355,75158.06 L1356,75470.44 L1357,75776.25 L1358,76093.31 L1359,76421.69 L1360,76732.06 L1361,77047.06 L1362,77361.69 L1363,76430.50 L1364,64004.31 L1365,51114.38 L1366,38049.19 L1367,25276.12 L1368,17251.75 L1369,17251.75 L1370,17251.75 L1371,17251.75 L1372,17251.75 L1373,17251.75 L1374,17251.81 L1375,17251.81 L1376,17251.81 L1377,17251.81 L1378,17251.81 L1379,17251.88 L1380,17251.88 L1381,17251.88 L1382,17290.81 L1383,17502.19 L1384,17713.56 L1385,17921.94 L1386,18133.31 L1387,18342.81 L1388,18576.44 L1389,18843.44 L1390,19121.56 L1391,19332.94 L1392,19544.31 L1393,19755.69 L1394,19972.62 L1395,20189.56 L1396,20406.50 L1397,20623.44 L1398,20834.81 L1399,21051.75 L1400,21268.69 L1401,21485.62 L1402,21702.56 L1403,21919.50 L1404,22142.00 L1405,22370.06 L1406,22587.00 L1407,22809.50 L1408,23026.44 L1409,23243.38 L1410,23465.88 L1411,23682.56 L1412,23905.06 L1413,24121.25 L1414,24321.50 L1415,24549.56 L1416,24778.50 L1417,25013.38 L1418,25252.62 L1419,25486.25 L1420,25719.88 L1421,25959.06 L1422,26187.12 L1423,26420.75 L1424,26659.94 L1425,26893.56 L1426,27135.12 L1427,27370.75 L1428,27604.38 L1429,27838.00 L1430,28066.06 L1431,28299.69 L1432,28538.88 L1433,28772.50 L1434,29006.12 L1435,29245.31 L1436,29478.94 L1437,29712.56 L1438,29946.19 L1439,30185.38 L1440,30419.00 L1441,30624.38 L1442,30800.81 L1443,31036.19 L1444,31264.25 L1445,31486.75 L1446,31689.44 L1447,31913.75 L1448,32122.88 L1449,32329.00 L1450,32539.38 L1451,32746.00 L1452,32962.56 L1453,33169.19 L1454,33380.56 L1455,33587.19 L1456,33796.25 L1457,34003.69 L1458,34217.69 L1459,34425.12 L1460,34642.06 L1461,34853.06 L1462,35071.94 L1463,35287.56 L1464,35501.69 L1465,35735.31 L1466,35972.81 L1467,36216.38 L1468,36460.19 L1469,36701.12 L1470,36945.88 L1471,37193.56 L1472,37463.88 L1473,37718.75 L1474,37966.31 L1475,38215.25 L1476,38482.31 L1477,38730.88 L1478,38987.00 L1479,39236.44 L1480,39488.75 L1481,39746.56 L1482,39996.50 L1483,40257.12 L1484,40512.94 L1485,40773.94 L1486,41036.94 L1487,41286.88 L1488,41549.12 L1489,41816.12 L1490,42072.00 L1491,42322.31 L1492,42572.62 L1493,42800.69 L1494,43045.44 L1495,43306.88 L1496,43562.75 L1497,43818.62 L1498,44064.19 L1499,44296.94 L1500,44547.25 L1501,44792.00 L1502,45014.38 L1503,45250.31 L1504,45511.75 L1505,45767.62 L1506,46029.06 L1507,46284.94 L1508,46551.94 L1509,46807.81 L1510,47074.81 L1511,47330.69 L1512,47586.56 L1513,47848.00 L1514,48120.56 L1515,48382.00 L1516,48643.44 L1517,48904.88 L1518,49160.75 L1519,49416.62 L1520,49655.81 L1521,49887.19 L1522,50127.81 L1523,50378.12 L1524,50611.75 L1525,50850.94 L1526,51084.56 L1527,51318.19 L1528,51557.38 L1529,51807.69 L1530,52052.44 L1531,52297.19 L1532,52537.00 L1533,52778.62 L1534,53028.94 L1535,53307.06 L1536,53568.50 L1537,53824.38 L1538,54085.81 L1539,54363.94 L1540,54619.81 L1541,54892.38 L1542,55148.25 L1543,55393.00 L1544,55632.19 L1545,55882.50 L1546,56137.31 L1547,56402.19 L1548,56658.06 L1549,56919.50 L1550,57186.50 L1551,57436.81 L1552,57703.81 L1553,57965.25 L1554,58221.12 L1555,58477.00 L1556,58732.88 L1557,58988.75 L1558,59261.31 L1559,59522.75 L1560,59795.31 L1561,60051.19 L1562,60304.12 L1563,60564.06 L1564,60819.94 L1565,61064.69 L1566,61320.56 L1567,61570.88 L1568,61826.75 L1569,62077.06 L1570,62327.38 L1571,62577.69 L1572,62828.00 L1573,63078.31 L1574,63328.62 L1575,63578.94 L1576,63823.69 L1577,64079.56 L1578,64341.00 L1579,64602.44 L1580,64858.31 L1581,65114.19 L1582,65370.06 L1583,65620.38 L1584,65870.69 L1585,66098.75 L1586,66332.38 L1587,66566.00 L1588,66794.06 L1589,67022.12 L1590,67255.75 L1591,67467.12 L1592,67707.25 L1593,67935.31 L1594,68181.38 L1595,68409.44 L1596,68643.06 L1597,68882.25 L1598,69110.31 L1599,69382.88 L1600,69633.50 L1601,69894.06 L1602,70161.12 L1603,70433.69 L1604,70678.44 L1605,70917.62 L1606,71163.00 L1607,71409.25 L1608,71645.31 L1609,71884.50 L1610,72122.56 L1611,72365.62 L1612,72599.25 L1613,72838.25 L1614,73110.81 L1615,73366.19 L1616,73633.19 L1617,73889.06 L1618,74156.06 L1619,74423.06 L1620,74684.50 L1621,74951.50 L1622,75217.94 L1623,75484.94 L1624,75751.25 L1625,76018.25 L1626,76282.31 L1627,76560.44 L1628,76832.31 L1629,77099.31 L1630,77370.44 L1631,77643.00 L1632,65205.06 L1633,60724.56 L1634,60716.62 L1635,60714.00 L1636,60716.44" style="vector-effect: non-scaling-stroke; stroke: #ffff00; stroke-width: 1; fill-opacity: 0" transform="scale(0.440098,-0.002576)"/>
<path id="g13p9" d=" M1,128.88 L2,128.88 L3,128.88 L4,235.19 L5,355.81 L6,469.94 L7,581.81 L8,688.38 L9,805.75 L10,917.31 L11,1032.56 L12,1142.88 L13,1258.31 L14,1369.88 L15,1485.44 L16,1595.81 L17,1692.00 L18,1771.94 L19,1877.88 L20,1966.31 L21,2057.62 L22,2146.38 L23,2235.19 L24,2345.06 L25,2449.62 L26,2563.75 L27,2680.38 L28,2792.19 L29,2901.75 L30,3018.31 L31,3123.88 L32,3244.88 L33,3350.81 L34,3459.38 L35,3576.25 L36,3686.31 L37,3751.25 L38,3762.38 L39,3796.50 L40,3816.94 L41,3836.69 L42,3892.75 L43,3999.12 L44,4112.81 L45,4228.56 L46,4338.81 L47,4450.81 L48,4560.12 L49,4675.19 L50,4781.56 L51,4894.81 L52,5011.38 L53,5115.81 L54,5231.94 L55,5346.06 L56,5457.06 L57,5561.75 L58,5674.19 L59,5783.56 L60,5893.81 L61,5996.75 L62,6105.31 L63,6210.81 L64,6320.81 L65,6432.94 L66,6546.19 L67,6657.31 L68,6766.69 L69,6869.69 L70,6980.31 L71,7093.56 L72,7179.69 L73,7244.94 L74,7350.25 L75,7455.25 L76,7569.12 L77,7677.69 L78,7754.06 L79,7775.00 L80,7817.12 L81,7876.94 L82,7981.69 L83,8086.00 L84,8200.94 L85,8306.06 L86,8415.44 L87,8526.50 L88,8637.12 L89,8752.62 L90,8859.00 L91,8967.94 L92,9083.44 L93,9189.62 L94,9296.94 L95,9403.00 L96,9509.44 L97,9617.50 L98,9725.25 L99,9840.50 L100,9945.50 L101,10056.44 L102,10137.94 L103,10192.31 L104,10298.00 L105,10404.88 L106,10518.12 L107,10622.62 L108,10718.31 L109,10729.44 L110,10770.69 L111,10827.94 L112,10933.62 L113,11040.56 L114,11152.94 L115,11256.69 L116,11365.25 L117,11471.44 L118,11584.44 L119,11685.06 L120,11789.88 L121,11892.44 L122,11998.69 L123,12115.38 L124,12222.06 L125,12328.38 L126,12434.50 L127,12540.50 L128,12654.56 L129,12763.00 L130,12868.88 L131,12980.19 L132,13077.81 L133,13115.50 L134,13221.19 L135,13329.44 L136,13436.12 L137,13545.88 L138,13620.75 L139,13642.06 L140,13670.62 L141,13747.25 L142,13846.75 L143,13952.19 L144,14063.19 L145,14169.44 L146,14279.56 L147,14386.56 L148,14493.50 L149,14603.81 L150,14708.62 L151,14816.75 L152,14924.69 L153,15032.31 L154,15139.56 L155,15248.44 L156,15352.94 L157,15459.31 L158,15566.19 L159,15672.94 L160,15775.88 L161,15888.44 L162,15984.00 L163,16036.88 L164,16137.00 L165,16242.00 L166,16352.06 L167,16459.62 L168,16548.56 L169,16582.75 L170,16605.00 L171,16671.81 L172,16773.69 L173,16877.31 L174,16984.38 L175,17092.44 L176,17197.38 L177,17303.44 L178,17408.50 L179,17510.12 L180,17613.69 L181,17725.62 L182,17825.25 L183,17935.38 L184,18041.38 L185,18142.94 L186,18248.88 L187,18355.50 L188,18462.00 L189,18563.00 L190,18654.38 L191,18759.31 L192,18865.25 L193,18903.94 L194,19013.69 L195,19122.19 L196,19226.56 L197,19333.75 L198,19419.62 L199,19452.00 L200,19481.12 L201,19542.12 L202,19644.25 L203,19752.06 L204,19857.06 L205,19954.75 L206,20060.25 L207,20166.69 L208,20271.12 L209,20373.12 L210,20477.12 L211,20580.56 L212,20692.75 L213,20793.44 L214,20904.19 L215,21008.50 L216,21109.25 L217,21216.44 L218,21318.56 L219,21423.44 L220,21532.75 L221,21637.81 L222,21743.94 L223,21850.50 L224,21952.19 L225,22053.62 L226,22164.12 L227,22268.69 L228,22299.81 L229,22409.56 L230,22509.69 L231,22615.38 L232,22721.06 L233,22813.31 L234,22839.69 L235,22852.56 L236,22886.38 L237,22972.50 L238,23077.19 L239,23182.12 L240,23279.81 L241,23382.31 L242,23490.50 L243,23592.06 L244,23693.19 L245,23795.06 L246,23892.38 L247,23955.00 L248,24056.56 L249,24154.44 L250,24254.75 L251,24358.38 L252,24455.31 L253,24560.12 L254,24667.31 L255,24766.50 L256,24865.12 L257,24966.25 L258,24999.25 L259,25090.06 L260,25174.44 L261,25280.19 L262,25382.44 L263,25476.62 L264,25495.25 L265,25526.25 L266,25616.81 L267,25718.50 L268,25818.44 L269,25926.00 L270,26018.25 L271,26123.25 L272,26222.62 L273,26324.81 L274,26427.12 L275,26524.81 L276,26625.94 L277,26723.31 L278,26826.62 L279,26931.50 L280,27022.88 L281,27126.62 L282,27216.31 L283,27323.88 L284,27427.00 L285,27525.50 L286,27625.69 L287,27726.19 L288,27819.94 L289,27925.31 L290,28019.56 L291,28102.12 L292,28202.25 L293,28302.25 L294,28405.25 L295,28500.88 L296,28551.44 L297,28585.19 L298,28602.62 L299,28702.25 L300,28795.06 L301,28894.62 L302,28995.00 L303,29097.38 L304,29194.44 L305,29301.50 L306,29404.81 L307,29506.50 L308,29609.44 L309,29711.50 L310,29813.94 L311,29916.44 L312,30018.75 L313,30121.44 L314,30223.50 L315,30319.31 L316,30410.00 L317,30510.25 L318,30610.06 L319,30711.62 L320,30818.88 L321,30851.06 L322,30950.56 L323,31049.62 L324,31152.06 L325,31250.12 L326,31334.81 L327,31350.62 L328,31379.69 L329,31483.44 L330,31585.38 L331,31687.50 L332,31789.19 L333,31887.75 L334,31982.56 L335,32076.06 L336,32177.50 L337,32274.44 L338,32373.56 L339,32474.25 L340,32576.75 L341,32676.81 L342,32781.75 L343,32885.56 L344,32975.25 L345,33078.69 L346,33181.19 L347,33286.06 L348,33382.06 L349,33484.38 L350,33582.19 L351,33640.50 L352,33714.25 L353,33814.38 L354,33914.19 L355,34020.62 L356,34115.19 L357,34156.56 L358,34175.81 L359,34241.38 L360,34339.44 L361,34437.19 L362,34532.62 L363,34635.50 L364,34727.56 L365,34829.62 L366,34928.88 L367,35029.19 L368,35129.00 L369,35229.25 L370,35329.19 L371,35434.06 L372,35533.25 L373,35635.19 L374,35739.00 L375,35842.00 L376,35920.56 L377,36029.56 L378,36130.00 L379,36231.44 L380,36326.50 L381,36398.44 L382,36465.44 L383,36565.56 L384,36668.31 L385,36759.19 L386,36865.25 L387,36923.88 L388,36954.12 L389,37007.69 L390,37108.00 L391,37209.06 L392,37309.62 L393,37408.56 L394,37511.44 L395,37619.81 L396,37717.44 L397,37819.00 L398,37911.94 L399,38017.50 L400,38123.50 L401,38224.06 L402,38305.50 L403,38412.31 L404,38504.56 L405,38601.75 L406,38698.88 L407,38802.75 L408,38873.06 L409,38939.44 L410,39040.56 L411,39140.88 L412,39239.06 L413,39343.06 L414,39399.69 L415,39422.12 L416,39480.06 L417,39585.44 L418,39685.56 L419,39788.88 L420,39890.50 L421,39990.25 L422,40089.75 L423,40182.50 L424,40285.25 L425,40376.81 L426,40479.00 L427,40581.38 L428,40676.12 L429,40775.50 L430,40874.06 L431,40975.25 L432,41066.69 L433,41170.44 L434,41273.62 L435,41375.19 L436,41474.75 L437,41574.19 L438,41648.38 L439,41712.81 L440,41796.25 L441,41888.50 L442,41983.25 L443,42080.88 L444,42126.06 L445,42143.25 L446,42209.50 L447,42310.56 L448,42407.56 L449,42506.19 L450,42602.44 L451,42701.06 L452,42792.38 L453,42888.25 L454,42984.00 L455,43079.62 L456,43166.06 L457,43250.56 L458,43338.12 L459,43437.62 L460,43535.50 L461,43633.38 L462,43718.25 L463,43816.69 L464,43919.75 L465,44016.50 L466,44114.56 L467,44218.81 L468,44313.94 L469,44412.19 L470,44507.69 L471,44613.88 L472,44654.50 L473,44752.62 L474,44858.31 L475,44953.38 L476,45060.12 L477,45151.56 L478,45183.25 L479,45214.94 L480,45315.25 L481,45405.56 L482,45504.38 L483,45592.06 L484,45686.19 L485,45790.38 L486,45881.12 L487,45975.88 L488,46075.50 L489,46176.69 L490,46265.69 L491,46366.50 L492,46460.88 L493,46559.44 L494,46661.62 L495,46763.12 L496,46852.62 L497,46941.38 L498,47035.94 L499,47092.50 L500,47187.06 L501,47276.69 L502,47381.56 L503,47471.81 L504,47541.56 L505,47567.56 L506,47613.56 L507,47717.25 L508,47812.62 L509,47913.81 L510,48015.12 L511,48111.25 L512,48212.06 L513,48302.12 L514,48404.69 L515,48510.00 L516,48598.12 L517,48687.62 L518,48775.50 L519,48866.19 L520,48957.00 L521,49052.50 L522,49156.81 L523,49244.00 L524,49337.62 L525,49426.81 L526,49522.75 L527,49624.50 L528,49713.81 L529,49766.19 L530,49860.75 L531,49968.62 L532,50065.12 L533,50165.50 L534,50243.00 L535,50266.38 L536,50308.50 L537,50412.75 L538,50514.19 L539,50615.12 L540,50711.44 L541,50806.12 L542,50907.62 L543,51009.25 L544,51105.31 L545,51207.06 L546,51308.81 L547,51410.62 L548,51506.31 L549,51613.69 L550,51704.00 L551,51803.31 L552,51905.44 L553,52007.69 L554,52109.44 L555,52211.50 L556,52313.56 L557,52414.62 L558,52510.94 L559,52611.94 L560,52713.38 L561,52816.19 L562,52894.75 L563,52950.19 L564,53050.31 L565,53151.38 L566,53252.19 L567,53348.12 L568,53417.69 L569,53437.69 L570,53477.81 L571,53578.50 L572,53682.31 L573,53778.56 L574,53886.06 L575,53981.94 L576,54084.12 L577,54191.88 L578,54286.38 L579,54384.94 L580,54482.69 L581,54591.62 L582,54690.44 L583,54786.25 L584,54880.62 L585,54984.62 L586,55088.75 L587,55185.69 L588,55283.69 L589,55330.94 L590,55435.25 L591,55535.56 L592,55631.81 L593,55732.88 L594,55815.12 L595,55838.75 L596,55855.44 L597,55963.00 L598,56064.88 L599,56163.69 L600,56260.88 L601,56353.00 L602,56450.56 L603,56547.56 L604,56650.69 L605,56741.25 L606,56847.00 L607,56947.94 L608,57040.38 L609,57145.00 L610,57240.12 L611,57345.19 L612,57446.62 L613,57542.38 L614,57642.50 L615,57744.12 L616,57849.75 L617,57947.88 L618,58047.94 L619,58144.88 L620,58249.88 L621,58349.81 L622,58443.62 L623,58486.38 L624,58586.69 L625,58691.69 L626,58795.06 L627,58896.56 L628,58980.81 L629,59022.50 L630,59046.06 L631,59124.81 L632,59225.75 L633,59325.88 L634,59427.31 L635,59528.12 L636,59627.75 L637,59734.75 L638,59835.38 L639,59930.31 L640,60034.38 L641,60129.75 L642,60216.69 L643,60327.06 L644,60421.00 L645,60524.56 L646,60620.12 L647,60725.88 L648,60822.69 L649,60918.31 L650,61018.50 L651,61119.94 L652,61221.44 L653,61278.12 L654,61362.56 L655,61462.69 L656,61557.25 L657,61651.81 L658,61751.94 L659,61795.25 L660,61826.31 L661,61891.19 L662,61992.12 L663,62086.81 L664,62187.38 L665,62282.69 L666,62371.88 L667,62471.75 L668,62571.62 L669,62672.44 L670,62773.38 L671,62869.38 L672,62970.81 L673,63071.69 L674,63167.25 L675,63269.38 L676,63370.12 L677,63470.81 L678,63572.38 L679,63605.31 L680,63706.25 L681,63812.56 L682,63911.62 L683,64010.56 L684,64096.69 L685,64125.38 L686,64160.25 L687,64244.94 L688,64345.06 L689,64440.50 L690,64531.12 L691,64612.62 L692,64709.00 L693,64814.88 L694,64911.06 L695,65001.25 L696,65094.62 L697,65200.50 L698,65295.44 L699,65396.69 L700,65496.69 L701,65579.19 L702,65687.31 L703,65774.94 L704,65881.62 L705,65969.81 L706,66067.56 L707,66170.88 L708,66267.94 L709,66330.06 L710,66413.44 L711,66504.81 L712,66603.50 L713,66693.06 L714,66790.31 L715,66849.75 L716,66882.25 L717,66972.06 L718,67068.62 L719,67158.12 L720,67251.75 L721,67350.44 L722,67446.38 L723,67541.50 L724,67636.31 L725,67736.06 L726,67825.31 L727,67932.81 L728,68022.31 L729,68112.25 L730,68207.12 L731,68297.06 L732,68381.94 L733,68476.31 L734,68577.75 L735,68665.31 L736,68760.56 L737,68857.38 L738,68951.50 L739,69017.50 L740,69099.25 L741,69191.44 L742,69288.62 L743,69382.88 L744,69472.12 L745,69525.50 L746,69551.31 L747,69628.38 L748,69720.88 L749,9339.69 L750,9405.81 L751,9590.56 L752,9775.44 L753,9961.19 L754,10149.00 L755,10359.31 L756,10644.38 L757,10859.44 L758,11044.69 L759,11227.12 L760,11419.94 L761,11605.75 L762,11786.50 L763,11975.44 L764,12171.62 L765,12360.56 L766,12551.75 L767,12742.31 L768,12940.88 L769,13137.94 L770,13328.62 L771,13520.06 L772,13713.81 L773,13913.06 L774,14101.25 L775,14287.25 L776,14476.81 L777,14667.75 L778,14859.12 L779,15051.31 L780,15246.31 L781,15446.00 L782,15638.81 L783,15835.12 L784,16029.75 L785,16222.75 L786,16417.31 L787,16623.94 L788,16819.44 L789,17018.06 L790,17208.69 L791,17414.12 L792,17612.25 L793,17811.69 L794,18012.06 L795,18218.69 L796,18418.25 L797,18616.88 L798,18821.19 L799,19019.88 L800,19218.56 L801,19421.50 L802,19622.31 L803,19834.06 L804,20033.44 L805,20244.81 L806,20454.75 L807,20651.44 L808,20858.62 L809,21070.81 L810,21276.12 L811,21474.62 L812,21679.88 L813,21889.12 L814,22093.31 L815,22299.75 L816,22507.06 L817,22716.75 L818,22924.19 L819,23132.44 L820,23343.00 L821,23558.56 L822,23773.19 L823,23988.00 L824,24206.12 L825,24442.31 L826,24667.94 L827,24885.19 L828,25103.25 L829,25344.44 L830,25561.88 L831,25783.31 L832,26003.69 L833,26231.69 L834,26456.31 L835,26687.00 L836,26910.00 L837,27138.94 L838,27371.06 L839,27597.38 L840,27837.06 L841,28058.44 L842,28278.12 L843,28498.75 L844,28722.50 L845,28954.62 L846,29183.38 L847,29405.62 L848,29630.56 L849,29856.62 L850,30088.94 L851,30313.94 L852,30532.50 L853,30763.94 L854,30983.38 L855,31207.50 L856,31434.25 L857,31666.56 L858,31892.44 L859,32123.88 L860,32342.44 L861,32568.31 L862,32807.06 L863,33038.50 L864,33265.25 L865,33493.50 L866,33713.94 L867,33941.06 L868,34160.88 L869,34389.81 L870,34621.25 L871,34846.25 L872,35065.69 L873,35289.81 L874,35515.69 L875,35754.44 L876,35985.88 L877,36212.62 L878,36437.62 L879,36671.69 L880,36912.69 L881,37144.44 L882,37371.56 L883,37617.38 L884,37857.88 L885,38105.44 L886,38334.62 L887,38557.12 L888,38784.19 L889,39013.00 L890,39239.56 L891,39481.44 L892,39715.31 L893,39952.44 L894,40184.69 L895,40421.75 L896,40660.50 L897,40894.31 L898,41118.00 L899,41350.69 L900,41595.00 L901,41833.56 L902,42077.19 L903,42303.06 L904,42530.69 L905,42761.31 L906,42990.88 L907,43213.19 L908,43440.94 L909,43675.75 L910,43896.56 L911,44125.88 L912,44348.94 L913,44578.12 L914,44798.12 L915,45029.06 L916,45251.56 L917,45482.12 L918,45717.12 L919,45942.69 L920,46176.88 L921,46404.88 L922,46636.62 L923,46868.56 L924,47106.62 L925,47337.00 L926,47557.75 L927,47789.50 L928,48020.38 L929,48242.00 L930,48470.50 L931,48703.50 L932,48930.75 L933,49155.62 L934,49388.38 L935,49621.31 L936,49845.31 L937,50078.06 L938,50281.75 L939,50475.31 L940,50669.88 L941,50869.94 L942,51067.56 L943,51265.88 L944,51461.94 L945,51584.62 L946,51710.25 L947,51817.81 L948,51944.06 L949,52046.38 L950,52142.50 L951,52240.94 L952,52342.81 L953,52478.94 L954,52657.19 L955,52846.00 L956,53032.19 L957,53223.62 L958,53405.44 L959,53532.25 L960,53653.81 L961,53749.12 L962,53804.75 L963,53978.88 L964,54127.88 L965,54305.44 L966,54485.31 L967,54666.31 L968,54844.31 L969,55021.88 L970,55145.44 L971,55243.06 L972,55350.94 L973,55434.25 L974,55521.50 L975,55607.06 L976,55692.50 L977,55791.69 L978,55905.44 L979,56077.06 L980,56124.06 L981,56123.88 L982,56123.88 L983,56123.88 L984,56123.88 L985,56123.88 L986,56123.88 L987,56123.88 L988,56123.88 L989,56123.88 L990,56123.88 L991,56123.88 L992,56123.88 L993,56123.88 L994,56123.88 L995,56123.88 L996,56123.88 L997,56123.88 L998,56123.88 L999,56123.88 L1000,56123.75 L1001,56128.50 L1002,56128.50 L1003,56128.50 L1004,56128.50 L1005,56128.50 L1006,56128.50 L1007,56128.50 L1008,56128.50 L1009,56128.50 L1010,56128.50 L1011,56128.50 L1012,56128.50 L1013,56128.50 L1014,56128.50 L1015,56128.50 L1016,56128.50 L1017,56128.50 L1018,56128.50 L1019,56128.50 L1020,56128.50 L1021,56128.50 L1022,56128.50 L1023,56128.50 L1024,56128.50 L1025,56128.50 L1026,56128.50 L1027,56128.50 L1028,56128.50 L1029,56128.50 L1030,56128.50 L1031,56128.50 L1032,56128.50 L1033,56128.50 L1034,56128.50 L1035,56128.50 L1036,56128.50 L1037,56128.50 L1038,56128.50 L1039,56128.50 L1040,56128.50 L1041,56128.50 L1042,56128.50 L1043,56128.50 L1044,56128.50 L1045,56128.50 L1046,56128.50 L1047,56128.50 L1048,56128.50 L1049,56128.50 L1050,56128.50 L1051,56128.50 L1052,56128.50 L1053,56128.50 L1054,56128.50 L1055,56128.50 L1056,56128.50 L1057,56128.50 L1058,56128.50 L1059,56128.50 L1060,56128.50 L1061,56128.50 L1062,56128.50 L1063,56128.50 L1064,56128.50 L1065,56128.50 L1066,56128.50 L1067,56128.50 L1068,56128.50 L1069,56128.50 L1070,56128.50 L1071,56128.50 L1072,56128.50 L1073,56128.50 L1074,56128.50 L1075,56128.50 L1076,56128.50 L1077,56128.50 L1078,56128.50 L1079,56128.50 L1080,56128.50 L1081,56128.50 L1082,56128.50 L1083,56128.50 L1084,56128.50 L1085,56128.50 L1086,56128.50 L1087,56128.50 L1088,56128.50 L1089,56128.50 L1090,56128.50 L1091,56128.50 L1092,56128.50 L1093,56128.50 L1094,56128.50 L1095,56128.50 L1096,56128.50 L1097,56128.50 L1098,56128.50 L1099,56128.50 L1100,56128.50 L1101,56128.50 L1102,56128.50 L1103,56128.50 L1104,56128.50 L1105,56128.50 L1106,56128.50 L1107,56128.50 L1108,56128.50 L1109,56128.50 L1110,56128.50 L1111,55980.75 L1112,55807.94 L1113,55635.56 L1114,55465.31 L1115,55292.56 L1116,55120.12 L1117,54931.00 L1118,54701.00 L1119,54441.62 L1120,54257.94 L1121,54081.19 L1122,53903.56 L1123,53725.06 L1124,53541.94 L1125,53362.81 L1126,53180.81 L1127,52997.25 L1128,52819.25 L1129,52635.69 L1130,52446.56 L1131,52261.81 L1132,52074.81 L1133,51885.81 L1134,51696.81 L1135,51499.69 L1136,51299.56 L1137,51112.12 L1138,50916.94 L1139,50727.81 L1140,50538.69 L1141,50344.44 L1142,50160.12 L1143,49966.81 L1144,49775.38 L1145,49583.62 L1146,49393.69 L1147,49200.88 L1148,49005.00 L1149,48803.31 L1150,48613.88 L1151,48416.50 L1152,48218.62 L1153,48023.12 L1154,47835.06 L1155,47638.69 L1156,47442.31 L1157,47245.81 L1158,47041.44 L1159,46847.69 L1160,46652.31 L1161,46451.50 L1162,46259.75 L1163,46060.00 L1164,45859.38 L1165,45657.75 L1166,45457.25 L1167,45255.44 L1168,45055.00 L1169,44857.81 L1170,44654.31 L1171,44452.75 L1172,44261.19 L1173,44061.25 L1174,43856.62 L1175,43654.50 L1176,43452.31 L1177,43251.75 L1178,43041.94 L1179,42836.19 L1180,42635.50 L1181,42424.44 L1182,42215.31 L1183,42003.69 L1184,41800.56 L1185,41583.31 L1186,41372.75 L1187,41166.06 L1188,40959.44 L1189,40748.69 L1190,40545.06 L1191,40331.25 L1192,40123.62 L1193,39918.88 L1194,39703.88 L1195,39495.94 L1196,39286.56 L1197,39074.25 L1198,38861.44 L1199,38650.62 L1200,38435.94 L1201,38219.38 L1202,38005.00 L1203,37795.38 L1204,37574.38 L1205,37333.38 L1206,37104.31 L1207,36884.38 L1208,36661.00 L1209,36422.00 L1210,36196.62 L1211,35971.50 L1212,35745.62 L1213,35521.50 L1214,35290.25 L1215,35063.38 L1216,34831.56 L1217,34595.06 L1218,34366.88 L1219,34129.50 L1220,33894.75 L1221,33665.75 L1222,33412.19 L1223,33188.19 L1224,32964.50 L1225,32740.94 L1226,32519.06 L1227,32292.25 L1228,32053.38 L1229,31829.00 L1230,31594.75 L1231,31363.00 L1232,31143.75 L1233,30922.38 L1234,30683.19 L1235,30456.50 L1236,30229.88 L1237,29999.50 L1238,29769.62 L1239,29541.75 L1240,29313.62 L1241,29080.19 L1242,28847.12 L1243,28613.62 L1244,28381.25 L1245,28154.31 L1246,27927.69 L1247,27685.56 L1248,27452.00 L1249,27217.12 L1250,26983.94 L1251,26750.44 L1252,26527.88 L1253,26301.31 L1254,26066.75 L1255,25841.75 L1256,25609.00 L1257,25375.62 L1258,25148.75 L1259,24918.06 L1260,24696.12 L1261,24466.06 L1262,24228.62 L1263,23991.88 L1264,23764.38 L1265,23528.12 L1266,23300.38 L1267,23071.06 L1268,22813.69 L1269,22574.44 L1270,22332.19 L1271,22092.44 L1272,21843.38 L1273,21586.44 L1274,21341.75 L1275,21104.88 L1276,20878.69 L1277,20648.88 L1278,20411.12 L1279,20185.50 L1280,19947.75 L1281,19699.88 L1282,19455.25 L1283,19213.06 L1284,18980.44 L1285,18741.25 L1286,18497.38 L1287,18255.50 L1288,18015.81 L1289,17778.62 L1290,17545.25 L1291,17299.75 L1292,17043.38 L1293,16803.31 L1294,16573.31 L1295,16346.44 L1296,16115.06 L1297,15876.81 L1298,15642.25 L1299,15412.12 L1300,15179.38 L1301,14941.81 L1302,14713.44 L1303,14479.25 L1304,14245.50 L1305,14015.00 L1306,13777.00 L1307,13545.00 L1308,13309.19 L1309,13079.12 L1310,12851.69 L1311,12608.12 L1312,12370.75 L1313,12131.44 L1314,11893.94 L1315,11656.69 L1316,11420.19 L1317,11183.00 L1318,10942.38 L1319,10696.88 L1320,10462.44 L1321,10232.94 L1322,9994.75 L1323,9760.00 L1324,9527.38 L1325,9303.75 L1326,9071.62 L1327,8829.06 L1328,8595.81 L1329,8363.94 L1330,8126.06 L1331,7887.50 L1332,7651.38 L1333,7419.12 L1334,7180.62 L1335,6941.06 L1336,6693.94 L1337,6455.56 L1338,6209.12 L1339,5965.88 L1340,5728.50 L1341,5489.75 L1342,5254.62 L1343,5017.56 L1344,4777.19 L1345,4539.00 L1346,4279.44 L1347,4041.38 L1348,3794.31 L1349,3547.12 L1350,3304.12 L1351,3061.69 L1352,2817.69 L1353,2568.06 L1354,2326.00 L1355,2095.69 L1356,1846.50 L1357,1607.19 L1358,1357.50 L1359,1101.19 L1360,857.31 L1361,609.75 L1362,357.81 L1363,137.38 L1364,137.19 L1365,131.94 L1366,131.81 L1367,131.81 L1368,130.62 L1369,130.62 L1370,130.62 L1371,130.62 L1372,130.62 L1373,130.62 L1374,130.62 L1375,130.62 L1376,130.62 L1377,130.62 L1378,130.62 L1379,130.62 L1380,130.62 L1381,130.62 L1382,130.62 L1383,130.62 L1384,130.62 L1385,130.81 L1386,130.81 L1387,131.25 L1388,131.25 L1389,131.25 L1390,131.25 L1391,131.25 L1392,131.25 L1393,131.25 L1394,131.25 L1395,131.25 L1396,131.25 L1397,131.25 L1398,131.25 L1399,131.25 L1400,131.25 L1401,131.25 L1402,131.25 L1403,131.25 L1404,131.25 L1405,131.25 L1406,131.25 L1407,131.25 L1408,131.25 L1409,131.25 L1410,131.25 L1411,131.19 L1412,131.19 L1413,130.94 L1414,130.94 L1415,130.94 L1416,131.06 L1417,131.31 L1418,131.31 L1419,131.31 L1420,131.00 L1421,131.00 L1422,131.00 L1423,131.00 L1424,131.00 L1425,131.00 L1426,131.25 L1427,130.69 L1428,130.69 L1429,130.69 L1430,130.69 L1431,130.69 L1432,130.69 L1433,130.69 L1434,130.69 L1435,130.69 L1436,130.69 L1437,130.69 L1438,130.69 L1439,130.69 L1440,130.69 L1441,130.81 L1442,131.38 L1443,131.44 L1444,131.44 L1445,131.44 L1446,130.88 L1447,131.25 L1448,131.31 L1449,131.25 L1450,131.31 L1451,131.19 L1452,131.31 L1453,131.19 L1454,131.19 L1455,130.88 L1456,130.94 L1457,130.88 L1458,131.31 L1459,131.25 L1460,131.25 L1461,131.19 L1462,131.06 L1463,130.69 L1464,130.62 L1465,130.62 L1466,130.62 L1467,130.88 L1468,130.94 L1469,130.62 L1470,130.62 L1471,130.81 L1472,130.88 L1473,130.62 L1474,131.31 L1475,131.19 L1476,131.00 L1477,131.19 L1478,131.19 L1479,130.50 L1480,131.06 L1481,131.19 L1482,130.62 L1483,131.31 L1484,130.69 L1485,131.06 L1486,130.56 L1487,130.88 L1488,130.88 L1489,130.88 L1490,130.88 L1491,130.88 L1492,130.88 L1493,130.88 L1494,130.88 L1495,130.88 L1496,130.88 L1497,130.88 L1498,131.19 L1499,131.19 L1500,131.19 L1501,131.19 L1502,130.94 L1503,131.19 L1504,131.19 L1505,131.19 L1506,131.19 L1507,131.19 L1508,131.19 L1509,131.19 L1510,131.19 L1511,131.19 L1512,131.19 L1513,131.19 L1514,131.19 L1515,131.19 L1516,131.19 L1517,131.19 L1518,131.19 L1519,131.19 L1520,131.19 L1521,131.06 L1522,130.81 L1523,130.81 L1524,130.81 L1525,130.81 L1526,130.81 L1527,130.81 L1528,130.81 L1529,130.81 L1530,130.81 L1531,130.81 L1532,130.75 L1533,130.75 L1534,130.75 L1535,130.75 L1536,130.75 L1537,130.75 L1538,130.75 L1539,130.75 L1540,130.75 L1541,130.75 L1542,130.75 L1543,130.75 L1544,130.75 L1545,130.75 L1546,130.50 L1547,130.56 L1548,130.56 L1549,130.56 L1550,130.56 L1551,130.56 L1552,130.56 L1553,130.56 L1554,130.56 L1555,130.56 L1556,130.56 L1557,130.56 L1558,130.56 L1559,130.56 L1560,130.56 L1561,130.56 L1562,130.38 L1563,130.31 L1564,130.31 L1565,130.31 L1566,130.31 L1567,130.31 L1568,130.31 L1569,130.31 L1570,130.31 L1571,130.31 L1572,130.31 L1573,130.31 L1574,130.31 L1575,130.31 L1576,130.31 L1577,130.31 L1578,130.31 L1579,130.31 L1580,130.31 L1581,130.31 L1582,130.31 L1583,130.31 L1584,130.31 L1585,130.31 L1586,130.31 L1587,130.31 L1588,130.31 L1589,130.31 L1590,130.31 L1591,130.31 L1592,130.12 L1593,130.12 L1594,130.88 L1595,130.88 L1596,130.88 L1597,130.88 L1598,130.88 L1599,130.88 L1600,130.44 L1601,130.44 L1602,130.44 L1603,130.44 L1604,130.44 L1605,130.44 L1606,131.06 L1607,131.06 L1608,131.25 L1609,131.25 L1610,130.94 L1611,131.12 L1612,131.12 L1613,131.00 L1614,131.00 L1615,130.56 L1616,130.56 L1617,130.56 L1618,130.56 L1619,130.56 L1620,130.56 L1621,130.56 L1622,130.44 L1623,130.44 L1624,130.69 L1625,130.69 L1626,130.50 L1627,130.50 L1628,131.00 L1629,131.00 L1630,130.25 L1631,130.25 L1632,129.94 L1633,129.88 L1634,129.75 L1635,129.75 L1636,129.75" style="vector-effect: non-scaling-stroke; stroke: #666635; stroke-width: 1; fill-opacity: 0" transform="scale(0.440098,-0.002576)"/>
<path id="g13p10" d=" M1,14.50 L2,14.50 L3,14.50 L4,39.69 L5,63.31 L6,89.75 L7,113.56 L8,138.56 L9,163.50 L10,188.44 L11,221.69 L12,246.62 L13,271.56 L14,296.50 L15,321.44 L16,346.44 L17,371.38 L18,379.62 L19,404.56 L20,412.88 L21,421.19 L22,437.81 L23,442.62 L24,467.62 L25,492.56 L26,517.50 L27,542.44 L28,565.31 L29,590.25 L30,615.19 L31,640.12 L32,656.81 L33,689.31 L34,705.94 L35,739.19 L36,764.12 L37,606.19 L38,206.31 L39,2.56 L40,8.31 L41,9.12 L42,23.06 L43,46.75 L44,71.69 L45,96.62 L46,121.56 L47,146.50 L48,171.44 L49,196.44 L50,221.38 L51,246.31 L52,271.25 L53,296.19 L54,321.12 L55,346.06 L56,371.00 L57,396.00 L58,420.94 L59,445.88 L60,470.81 L61,495.75 L62,520.69 L63,537.31 L64,562.25 L65,587.06 L66,612.00 L67,636.94 L68,661.88 L69,13.50 L70,38.06 L71,63.00 L72,82.94 L73,96.00 L74,118.56 L75,141.06 L76,166.06 L77,191.12 L78,210.75 L79,221.31 L80,225.56 L81,235.62 L82,257.88 L83,279.69 L84,304.94 L85,329.38 L86,354.25 L87,378.81 L88,403.06 L89,428.31 L90,453.06 L91,477.62 L92,502.31 L93,526.62 L94,550.38 L95,572.31 L96,594.19 L97,618.44 L98,642.62 L99,10.62 L100,32.62 L101,56.31 L102,77.88 L103,86.44 L104,111.38 L105,136.38 L106,161.31 L107,177.94 L108,206.50 L109,206.50 L110,218.88 L111,225.38 L112,250.31 L113,275.31 L114,300.25 L115,316.88 L116,341.81 L117,366.75 L118,391.69 L119,411.50 L120,434.19 L121,454.06 L122,477.69 L123,501.25 L124,525.38 L125,549.75 L126,573.44 L127,596.50 L128,620.31 L129,4.75 L130,25.00 L131,48.50 L132,74.25 L133,78.62 L134,103.25 L135,121.31 L136,144.50 L137,167.69 L138,188.56 L139,192.50 L140,199.38 L141,213.00 L142,237.94 L143,255.31 L144,278.31 L145,301.19 L146,324.06 L147,346.94 L148,370.06 L149,392.88 L150,416.19 L151,439.62 L152,462.38 L153,485.50 L154,508.94 L155,531.62 L156,554.19 L157,577.06 L158,599.31 L159,173.56 L160,17.88 L161,40.44 L162,64.31 L163,76.31 L164,101.25 L165,117.81 L166,140.75 L167,163.75 L168,188.88 L169,196.12 L170,204.44 L171,211.75 L172,230.31 L173,252.56 L174,273.69 L175,296.19 L176,317.94 L177,340.56 L178,362.31 L179,384.75 L180,405.88 L181,427.94 L182,449.62 L183,471.25 L184,492.62 L185,512.88 L186,535.38 L187,558.31 L188,580.06 L189,602.56 L190,14.81 L191,32.31 L192,54.38 L193,66.94 L194,84.25 L195,106.25 L196,129.31 L197,151.00 L198,174.06 L199,176.12 L200,184.19 L201,197.06 L202,216.06 L203,238.06 L204,259.88 L205,281.56 L206,302.75 L207,323.62 L208,345.12 L209,367.31 L210,389.25 L211,411.12 L212,432.88 L213,455.56 L214,476.88 L215,499.38 L216,520.00 L217,541.56 L218,563.19 L219,585.12 L220,606.88 L221,628.25 L222,650.88 L223,673.25 L224,695.38 L225,7.94 L226,29.50 L227,51.19 L228,61.31 L229,80.88 L230,97.50 L231,122.44 L232,139.06 L233,163.75 L234,170.19 L235,170.19 L236,179.25 L237,193.12 L238,218.06 L239,232.06 L240,252.31 L241,273.50 L242,293.19 L243,313.69 L244,334.44 L245,355.50 L246,375.31 L247,384.44 L248,400.31 L249,419.50 L250,438.12 L251,456.56 L252,476.12 L253,496.31 L254,516.94 L255,2.56 L256,21.12 L257,40.81 L258,49.19 L259,61.62 L260,81.25 L261,97.12 L262,116.44 L263,136.69 L264,140.75 L265,146.50 L266,163.94 L267,182.38 L268,201.81 L269,221.75 L270,240.94 L271,260.25 L272,280.44 L273,300.50 L274,319.50 L275,337.19 L276,357.25 L277,375.62 L278,394.81 L279,415.38 L280,434.44 L281,451.94 L282,471.31 L283,488.38 L284,506.56 L285,2.56 L286,21.44 L287,41.56 L288,60.00 L289,78.06 L290,94.75 L291,106.81 L292,123.44 L293,145.00 L294,164.12 L295,184.88 L296,192.00 L297,200.19 L298,200.62 L299,222.31 L300,237.81 L301,253.88 L302,271.44 L303,291.69 L304,311.62 L305,330.62 L306,351.38 L307,370.25 L308,390.88 L309,410.69 L310,430.62 L311,450.44 L312,470.31 L313,490.12 L314,510.38 L315,528.38 L316,13.19 L317,30.69 L318,47.56 L319,66.50 L320,85.19 L321,95.75 L322,111.88 L323,128.50 L324,149.75 L325,168.75 L326,180.19 L327,187.75 L328,191.00 L329,213.12 L330,232.06 L331,252.12 L332,273.19 L333,292.62 L334,309.94 L335,328.12 L336,345.62 L337,364.25 L338,381.19 L339,399.88 L340,419.56 L341,439.56 L342,458.62 L343,478.06 L344,497.00 L345,514.56 L346,9.75 L347,28.88 L348,49.44 L349,67.44 L350,86.94 L351,97.06 L352,109.75 L353,126.38 L354,151.38 L355,168.00 L356,184.62 L357,195.06 L358,199.69 L359,212.88 L360,227.00 L361,244.19 L362,263.06 L363,282.62 L364,300.44 L365,318.38 L366,337.31 L367,356.56 L368,374.81 L369,394.38 L370,412.12 L371,432.75 L372,452.31 L373,472.44 L374,491.25 L375,510.69 L376,6.06 L377,23.00 L378,40.88 L379,59.56 L380,78.00 L381,91.94 L382,103.25 L383,119.88 L384,141.00 L385,160.00 L386,178.00 L387,189.38 L388,194.56 L389,204.69 L390,221.31 L391,243.12 L392,263.12 L393,277.69 L394,301.62 L395,321.38 L396,341.12 L397,360.88 L398,380.00 L399,397.50 L400,417.81 L401,437.38 L402,447.75 L403,468.31 L404,490.88 L405,509.00 L406,3.19 L407,22.00 L408,37.19 L409,48.19 L410,66.31 L411,84.75 L412,104.44 L413,123.62 L414,138.50 L415,144.88 L416,152.19 L417,171.81 L418,191.75 L419,212.06 L420,230.69 L421,250.06 L422,269.38 L423,285.56 L424,303.62 L425,320.62 L426,339.69 L427,359.25 L428,377.38 L429,394.25 L430,412.38 L431,431.56 L432,449.00 L433,468.50 L434,487.69 L435,507.56 L436,119.81 L437,19.56 L438,33.00 L439,40.94 L440,57.56 L441,74.19 L442,90.81 L443,107.50 L444,116.38 L445,118.12 L446,129.19 L447,145.81 L448,162.25 L449,187.19 L450,203.81 L451,220.50 L452,237.12 L453,253.75 L454,270.38 L455,287.00 L456,303.62 L457,311.94 L458,328.56 L459,345.25 L460,370.19 L461,386.81 L462,395.12 L463,411.75 L464,436.69 L465,453.31 L466,469.94 L467,21.12 L468,35.06 L469,56.81 L470,74.75 L471,93.19 L472,99.31 L473,119.31 L474,135.69 L475,153.38 L476,172.12 L477,192.12 L478,196.38 L479,202.50 L480,223.12 L481,241.81 L482,258.12 L483,274.19 L484,290.94 L485,305.12 L486,325.62 L487,342.19 L488,359.38 L489,378.38 L490,395.50 L491,413.31 L492,430.56 L493,446.62 L494,465.81 L495,484.75 L496,502.50 L497,12.94 L498,24.50 L499,33.69 L500,50.31 L501,68.56 L502,85.00 L503,102.94 L504,116.56 L505,118.31 L506,123.31 L507,145.12 L508,164.00 L509,182.19 L510,200.75 L511,220.00 L512,238.44 L513,256.69 L514,277.56 L515,293.75 L516,312.12 L517,328.38 L518,336.25 L519,358.62 L520,375.25 L521,389.75 L522,407.19 L523,425.88 L524,443.31 L525,460.00 L526,474.06 L527,8.25 L528,25.94 L529,32.88 L530,49.50 L531,70.00 L532,89.00 L533,107.00 L534,125.19 L535,126.69 L536,130.88 L537,153.69 L538,172.50 L539,190.62 L540,209.69 L541,227.31 L542,245.88 L543,265.00 L544,283.81 L545,303.06 L546,322.19 L547,341.31 L548,359.94 L549,378.94 L550,398.12 L551,414.69 L552,434.06 L553,453.56 L554,472.62 L555,492.56 L556,511.62 L557,0.00 L558,17.12 L559,35.06 L560,54.31 L561,74.31 L562,92.94 L563,103.31 L564,119.88 L565,138.25 L566,156.31 L567,175.06 L568,190.56 L569,194.31 L570,196.00 L571,218.00 L572,237.31 L573,256.44 L574,275.94 L575,296.06 L576,315.06 L577,335.12 L578,354.06 L579,372.44 L580,390.31 L581,408.50 L582,426.94 L583,445.75 L584,464.88 L585,482.56 L586,500.94 L587,519.69 L588,15.56 L589,27.19 L590,42.19 L591,59.81 L592,78.69 L593,97.00 L594,116.56 L595,120.06 L596,120.12 L597,140.94 L598,157.56 L599,177.38 L600,195.81 L601,214.62 L602,231.94 L603,249.56 L604,267.25 L605,284.69 L606,300.69 L607,320.44 L608,339.19 L609,357.12 L610,375.94 L611,395.12 L612,414.38 L613,433.81 L614,452.38 L615,471.75 L616,490.50 L617,508.69 L618,12.00 L619,29.75 L620,49.00 L621,67.81 L622,86.50 L623,96.19 L624,115.69 L625,132.06 L626,152.62 L627,171.81 L628,189.94 L629,196.62 L630,198.38 L631,211.75 L632,232.56 L633,251.88 L634,270.50 L635,289.94 L636,308.81 L637,327.88 L638,347.06 L639,365.50 L640,383.94 L641,401.19 L642,420.50 L643,436.62 L644,455.75 L645,473.88 L646,492.56 L647,511.75 L648,7.62 L649,26.50 L650,44.00 L651,62.75 L652,81.69 L653,95.12 L654,106.81 L655,123.44 L656,140.06 L657,156.69 L658,181.62 L659,188.25 L660,190.94 L661,204.56 L662,222.44 L663,239.88 L664,257.88 L665,276.00 L666,293.62 L667,310.88 L668,328.19 L669,346.06 L670,364.31 L671,383.19 L672,401.81 L673,420.06 L674,438.25 L675,457.81 L676,476.38 L677,494.25 L678,6.19 L679,12.75 L680,31.00 L681,48.50 L682,66.81 L683,84.50 L684,103.69 L685,106.06 L686,111.62 L687,129.56 L688,146.19 L689,164.75 L690,183.94 L691,190.44 L692,211.81 L693,229.31 L694,248.69 L695,267.06 L696,283.00 L697,300.56 L698,318.56 L699,336.94 L700,355.06 L701,373.25 L702,389.12 L703,407.56 L704,424.00 L705,443.19 L706,461.44 L707,478.56 L708,0.00 L709,9.94 L710,23.50 L711,45.31 L712,62.56 L713,78.25 L714,95.50 L715,102.25 L716,117.31 L717,124.31 L718,144.31 L719,162.19 L720,178.31 L721,193.31 L722,212.62 L723,230.62 L724,248.31 L725,265.06 L726,283.12 L727,300.12 L728,317.88 L729,335.31 L730,351.81 L731,360.81 L732,383.00 L733,398.25 L734,414.75 L735,432.38 L736,450.56 L737,467.50 L738,484.50 L739,6.88 L740,22.06 L741,40.81 L742,56.94 L743,74.81 L744,92.38 L745,102.19 L746,105.50 L747,113.81 L748,136.00 L749,5.56 L750,102.44 L751,358.44 L752,614.19 L753,870.00 L754,1123.19 L755,1404.75 L756,1730.62 L757,2013.62 L758,2269.06 L759,2524.88 L760,2781.50 L761,3042.44 L762,3296.50 L763,3554.81 L764,3814.12 L765,4080.75 L766,4339.94 L767,4600.06 L768,4870.12 L769,5128.75 L770,5165.75 L771,5426.75 L772,5690.31 L773,5952.12 L774,6215.62 L775,4192.38 L776,657.56 L777,216.56 L778,477.56 L779,738.50 L780,1007.50 L781,1271.94 L782,1529.62 L783,1794.50 L784,2059.25 L785,2321.88 L786,2586.25 L787,2858.88 L788,3121.81 L789,3391.94 L790,3649.75 L791,3916.62 L792,4188.50 L793,4458.00 L794,4727.50 L795,4998.69 L796,5267.38 L797,5536.06 L798,5804.75 L799,6072.50 L800,6341.19 L801,6608.19 L802,6878.19 L803,7151.88 L804,7423.25 L805,7702.00 L806,7968.31 L807,5211.25 L808,5120.56 L809,4886.25 L810,4083.31 L811,1376.00 L812,1143.12 L813,740.81 L814,910.38 L815,1006.44 L816,1194.69 L817,1421.50 L818,1660.25 L819,1856.12 L820,2067.81 L821,2254.38 L822,2427.44 L823,2531.31 L824,2735.38 L825,2952.50 L826,3138.25 L827,3256.62 L828,3410.06 L829,3710.75 L830,3996.56 L831,4282.38 L832,4559.06 L833,4689.94 L834,4698.06 L835,4670.38 L836,4741.31 L837,4887.19 L838,5024.81 L839,5151.69 L840,5177.88 L841,5331.31 L842,5450.44 L843,5601.31 L844,5708.44 L845,5859.62 L846,5996.75 L847,6119.12 L848,6255.44 L849,6311.81 L850,6372.38 L851,6492.12 L852,6570.69 L853,6738.25 L854,6849.75 L855,7007.69 L856,7124.06 L857,7282.00 L858,7415.00 L859,7539.69 L860,7648.25 L861,7797.94 L862,7913.25 L863,8047.44 L864,8194.19 L865,8307.56 L866,8294.44 L867,8318.69 L868,8458.69 L869,8462.00 L870,8595.75 L871,8773.88 L872,8907.31 L873,9015.38 L874,9306.31 L875,9597.25 L876,9788.44 L877,9904.88 L878,9613.94 L879,9769.94 L880,9928.75 L881,10080.00 L882,10251.38 L883,10427.94 L884,10550.31 L885,10722.56 L886,10660.88 L887,10783.25 L888,10708.00 L889,10870.69 L890,11033.69 L891,11224.44 L892,11376.38 L893,11576.38 L894,11765.31 L895,11945.12 L896,12138.19 L897,12309.69 L898,12456.75 L899,12642.69 L900,12793.88 L901,12970.25 L902,13150.25 L903,13281.25 L904,13441.38 L905,13544.81 L906,13638.75 L907,13746.19 L908,13812.94 L909,13922.00 L910,13993.88 L911,13926.75 L912,13499.62 L913,13614.88 L914,13698.56 L915,13893.25 L916,14060.25 L917,14204.44 L918,14320.88 L919,14447.38 L920,14570.50 L921,14670.25 L922,14816.94 L923,14931.69 L924,15002.31 L925,15126.75 L926,15251.50 L927,15422.75 L928,15576.69 L929,15686.12 L930,15809.25 L931,15945.38 L932,16082.31 L933,16194.06 L934,16214.19 L935,16270.62 L936,16428.94 L937,16617.56 L938,16736.00 L939,16678.62 L940,16800.12 L941,16822.19 L942,16917.88 L943,17050.19 L944,17182.56 L945,17198.62 L946,17221.50 L947,17235.56 L948,17256.31 L949,17257.06 L950,17257.12 L951,17250.56 L952,17252.94 L953,16960.12 L954,16731.19 L955,16809.94 L956,16971.06 L957,17100.88 L958,17188.25 L959,17225.00 L960,17243.62 L961,17175.81 L962,17025.50 L963,17123.25 L964,16738.00 L965,16731.81 L966,16856.69 L967,16983.38 L968,17100.38 L969,17215.56 L970,17238.50 L971,17242.19 L972,17244.06 L973,17242.19 L974,17233.06 L975,17229.25 L976,17205.69 L977,17147.62 L978,17012.19 L979,16397.81 L980,16372.94 L981,16268.19 L982,16143.50 L983,15993.88 L984,15835.94 L985,15678.00 L986,15520.06 L987,15345.50 L988,15170.94 L989,15062.88 L990,14946.50 L991,14796.88 L992,14655.56 L993,14530.88 L994,14389.56 L995,14215.00 L996,14090.31 L997,13965.62 L998,13849.25 L999,13666.38 L1000,13454.19 L1001,13257.75 L1002,13083.19 L1003,12883.69 L1004,12642.62 L1005,12147.12 L1006,11838.25 L1007,11638.81 L1008,11422.69 L1009,11173.31 L1010,10907.31 L1011,10724.44 L1012,10516.62 L1013,10344.62 L1014,10153.44 L1015,9985.25 L1016,9802.38 L1017,9611.19 L1018,9444.94 L1019,9220.50 L1020,9037.62 L1021,8829.81 L1022,8630.31 L1023,8439.12 L1024,8247.94 L1025,8114.94 L1026,7923.75 L1027,7740.88 L1028,7574.62 L1029,7408.38 L1030,7242.12 L1031,7075.88 L1032,6926.25 L1033,6760.00 L1034,6627.00 L1035,6485.69 L1036,6302.81 L1037,6128.25 L1038,5945.38 L1039,5720.94 L1040,5504.81 L1041,5222.19 L1042,4956.19 L1043,4806.56 L1044,4632.00 L1045,4482.38 L1046,4332.75 L1047,4174.81 L1048,4008.56 L1049,3842.31 L1050,3686.19 L1051,3528.25 L1052,3340.31 L1053,3174.12 L1054,2991.25 L1055,2772.44 L1056,2614.50 L1057,2473.19 L1058,2315.25 L1059,2124.06 L1060,1932.88 L1061,1791.56 L1062,1616.44 L1063,1408.62 L1064,1182.75 L1065,958.31 L1066,805.12 L1067,582.88 L1068,358.44 L1069,125.69 L1070,9.31 L1071,9.31 L1072,9.31 L1073,9.31 L1074,9.31 L1075,9.31 L1076,9.31 L1077,9.31 L1078,9.31 L1079,9.31 L1080,9.31 L1081,9.31 L1082,9.31 L1083,9.31 L1084,9.31 L1085,9.31 L1086,9.31 L1087,9.31 L1088,9.31 L1089,9.31 L1090,9.31 L1091,9.31 L1092,9.31 L1093,9.31 L1094,9.31 L1095,9.31 L1096,9.31 L1097,9.31 L1098,9.31 L1099,0.25 L1100,0.25 L1101,0.25 L1102,0.25 L1103,0.25 L1104,0.25 L1105,0.25 L1106,0.25 L1107,0.25 L1108,0.25 L1109,0.25 L1110,0.25 L1111,58.44 L1112,59.06 L1113,125.62 L1114,192.12 L1115,250.31 L1116,316.81 L1117,383.31 L1118,449.88 L1119,508.06 L1120,566.25 L1121,632.75 L1122,699.25 L1123,765.75 L1124,832.25 L1125,898.75 L1126,965.31 L1127,1031.81 L1128,1098.31 L1129,1156.50 L1130,1223.00 L1131,1289.50 L1132,1356.00 L1133,1422.50 L1134,1489.06 L1135,1555.56 L1136,1630.38 L1137,1586.62 L1138,1653.88 L1139,1720.38 L1140,1793.81 L1141,1861.25 L1142,44.19 L1143,102.75 L1144,170.19 L1145,237.69 L1146,304.44 L1147,370.94 L1148,442.69 L1149,510.50 L1150,577.69 L1151,645.56 L1152,713.62 L1153,780.69 L1154,848.44 L1155,916.56 L1156,984.31 L1157,1052.44 L1158,1120.19 L1159,1187.94 L1160,1255.62 L1161,1323.81 L1162,1391.88 L1163,1459.88 L1164,1527.75 L1165,1595.62 L1166,1663.19 L1167,1731.38 L1168,1799.56 L1169,1867.25 L1170,1935.31 L1171,2003.50 L1172,2.19 L1173,73.56 L1174,145.25 L1175,209.62 L1176,278.50 L1177,346.94 L1178,415.50 L1179,483.44 L1180,551.50 L1181,616.62 L1182,683.12 L1183,753.31 L1184,821.50 L1185,889.56 L1186,957.62 L1187,1026.00 L1188,1094.38 L1189,1162.62 L1190,1231.31 L1191,1299.44 L1192,1367.56 L1193,1436.38 L1194,1502.88 L1195,1576.62 L1196,1645.12 L1197,1713.12 L1198,1781.50 L1199,1849.56 L1200,1917.81 L1201,1984.94 L1202,1820.00 L1203,45.81 L1204,112.25 L1205,171.56 L1206,244.44 L1207,312.25 L1208,380.31 L1209,439.81 L1210,513.56 L1211,581.50 L1212,649.25 L1213,712.50 L1214,784.81 L1215,851.88 L1216,919.44 L1217,987.69 L1218,1055.25 L1219,1123.12 L1220,1189.94 L1221,1257.19 L1222,1325.06 L1223,1393.25 L1224,1454.00 L1225,1527.50 L1226,1595.06 L1227,1661.56 L1228,1728.81 L1229,1795.81 L1230,1857.44 L1231,1930.69 L1232,1997.44 L1233,5.88 L1234,77.25 L1235,144.25 L1236,209.56 L1237,279.19 L1238,346.75 L1239,414.00 L1240,481.50 L1241,548.75 L1242,610.00 L1243,681.94 L1244,742.38 L1245,816.12 L1246,881.81 L1247,950.62 L1248,1017.81 L1249,1084.12 L1250,1151.62 L1251,1218.44 L1252,1285.94 L1253,1349.88 L1254,1421.81 L1255,1488.75 L1256,1555.88 L1257,1622.12 L1258,1688.25 L1259,1755.69 L1260,1823.19 L1261,1890.62 L1262,1958.25 L1263,1676.19 L1264,38.56 L1265,105.06 L1266,171.69 L1267,240.12 L1268,308.31 L1269,374.56 L1270,441.50 L1271,508.31 L1272,575.19 L1273,640.75 L1274,705.62 L1275,772.06 L1276,839.25 L1277,906.06 L1278,973.00 L1279,1040.75 L1280,1106.81 L1281,1172.44 L1282,1238.81 L1283,1305.50 L1284,1370.31 L1285,1436.31 L1286,1502.50 L1287,1569.69 L1288,1636.31 L1289,1703.25 L1290,1770.56 L1291,1836.88 L1292,1902.50 L1293,1969.44 L1294,9.00 L1295,73.06 L1296,140.12 L1297,205.38 L1298,272.69 L1299,339.19 L1300,410.69 L1301,478.12 L1302,545.81 L1303,612.12 L1304,679.62 L1305,745.19 L1306,811.69 L1307,878.94 L1308,946.25 L1309,1013.56 L1310,1081.38 L1311,1148.81 L1312,1215.62 L1313,1285.62 L1314,1348.75 L1315,1415.88 L1316,1483.25 L1317,1550.12 L1318,1617.31 L1319,1690.56 L1320,1750.81 L1321,1817.75 L1322,1885.12 L1323,1951.75 L1324,1523.44 L1325,39.12 L1326,105.62 L1327,173.56 L1328,245.50 L1329,312.75 L1330,379.88 L1331,446.44 L1332,512.94 L1333,579.44 L1334,645.94 L1335,712.19 L1336,776.19 L1337,847.69 L1338,914.75 L1339,981.81 L1340,1049.12 L1341,1116.25 L1342,1182.81 L1343,1250.25 L1344,1316.81 L1345,1383.31 L1346,1449.81 L1347,1516.31 L1348,1582.81 L1349,1649.31 L1350,1715.81 L1351,1790.62 L1352,1857.19 L1353,1918.62 L1354,1990.12 L1355,4.88 L1356,70.69 L1357,136.62 L1358,203.81 L1359,270.88 L1360,337.12 L1361,404.88 L1362,472.62 L1363,533.81 L1364,534.00 L1365,534.00 L1366,534.00 L1367,534.00 L1368,0.00 L1369,0.00 L1370,0.00 L1371,0.00 L1372,0.00 L1373,0.06 L1374,0.06 L1375,0.06 L1376,0.06 L1377,0.06 L1378,0.06 L1379,0.12 L1380,0.12 L1381,0.12 L1382,41.69 L1383,249.50 L1384,465.62 L1385,673.25 L1386,881.06 L1387,1090.62 L1388,1323.38 L1389,1589.38 L1390,1872.00 L1391,2079.81 L1392,2295.94 L1393,2512.06 L1394,2719.88 L1395,2944.31 L1396,3152.12 L1397,3368.25 L1398,3584.38 L1399,3800.50 L1400,4016.62 L1401,4232.75 L1402,4448.88 L1403,4673.31 L1404,4897.75 L1405,5122.19 L1406,5338.31 L1407,5554.44 L1408,5778.88 L1409,5995.00 L1410,6219.44 L1411,6436.62 L1412,6652.75 L1413,6868.06 L1414,2445.81 L1415,1032.69 L1416,891.12 L1417,774.06 L1418,701.75 L1419,726.69 L1420,743.50 L1421,743.88 L1422,735.56 L1423,768.81 L1424,768.81 L1425,802.06 L1426,823.00 L1427,853.25 L1428,858.38 L1429,1091.12 L1430,1323.88 L1431,1556.62 L1432,1789.38 L1433,1797.69 L1434,1132.69 L1435,1174.25 L1436,1107.75 L1437,1141.00 L1438,1116.06 L1439,1082.81 L1440,1066.19 L1441,1098.38 L1442,1022.56 L1443,1108.88 L1444,1175.38 L1445,1158.75 L1446,1254.69 L1447,1230.50 L1448,1299.38 L1449,1368.88 L1450,1415.50 L1451,1446.94 L1452,1590.38 L1453,1796.44 L1454,2004.25 L1455,2216.94 L1456,2426.12 L1457,2128.44 L1458,2168.00 L1459,2221.94 L1460,2260.06 L1461,2311.44 L1462,2365.69 L1463,2386.75 L1464,2381.62 L1465,2406.88 L1466,2355.06 L1467,2378.50 L1468,2346.50 L1469,2335.19 L1470,2393.38 L1471,2469.56 L1472,2549.25 L1473,2637.31 L1474,2716.50 L1475,2741.56 L1476,2838.69 L1477,2932.50 L1478,3001.00 L1479,3094.31 L1480,3198.00 L1481,3285.19 L1482,3516.31 L1483,3775.44 L1484,4027.44 L1485,4286.12 L1486,4557.50 L1487,4465.25 L1488,4540.06 L1489,4623.19 L1490,4689.69 L1491,4731.25 L1492,4764.50 L1493,4614.88 L1494,4573.31 L1495,4639.81 L1496,4706.31 L1497,4722.94 L1498,4733.38 L1499,4749.88 L1500,4774.81 L1501,4799.75 L1502,4789.81 L1503,4686.50 L1504,4844.44 L1505,4960.81 L1506,5035.62 L1507,5093.81 L1508,5185.25 L1509,5260.06 L1510,5351.50 L1511,5442.94 L1512,5542.69 L1513,5659.06 L1514,5758.81 L1515,5841.94 L1516,5916.75 L1517,6016.50 L1518,6083.00 L1519,6149.50 L1520,6232.62 L1521,6307.62 L1522,6447.12 L1523,6696.50 L1524,6929.25 L1525,7170.31 L1526,7403.06 L1527,7461.25 L1528,7486.19 L1529,7511.12 L1530,7552.69 L1531,7627.50 L1532,7657.50 L1533,7691.19 L1534,7732.75 L1535,7790.94 L1536,7799.25 L1537,7849.12 L1538,7865.75 L1539,7973.81 L1540,7998.75 L1541,8073.56 L1542,8015.38 L1543,7957.19 L1544,7957.19 L1545,8032.00 L1546,8116.69 L1547,8235.06 L1548,8278.94 L1549,8345.44 L1550,8445.19 L1551,8520.00 L1552,8628.06 L1553,8727.81 L1554,8810.94 L1555,8894.06 L1556,9002.12 L1557,9085.25 L1558,9151.75 L1559,9234.88 L1560,9334.62 L1561,9442.69 L1562,9508.81 L1563,9598.00 L1564,9711.19 L1565,9761.06 L1566,9827.56 L1567,9910.69 L1568,10018.75 L1569,10151.75 L1570,10259.81 L1571,10359.56 L1572,10467.62 L1573,10567.38 L1574,10667.12 L1575,10741.94 L1576,10858.31 L1577,10933.12 L1578,11016.25 L1579,11124.31 L1580,11240.69 L1581,11357.06 L1582,11473.44 L1583,11589.81 L1584,11681.25 L1585,11556.56 L1586,11639.69 L1587,11747.75 L1588,11847.50 L1589,11947.25 L1590,12030.38 L1591,12038.69 L1592,12118.75 L1593,11844.44 L1594,11941.94 L1595,12025.06 L1596,12116.50 L1597,12224.56 L1598,12241.19 L1599,12365.88 L1600,12421.69 L1601,12544.00 L1602,12652.31 L1603,12785.31 L1604,12851.81 L1605,12943.25 L1606,13017.25 L1607,13081.25 L1608,13113.06 L1609,13138.00 L1610,13190.75 L1611,13204.69 L1612,13200.44 L1613,13136.12 L1614,13136.12 L1615,13163.62 L1616,13163.62 L1617,13196.88 L1618,13180.25 L1619,13263.38 L1620,13346.50 L1621,13413.00 L1622,13511.25 L1623,13577.75 L1624,13666.31 L1625,13778.38 L1626,13866.62 L1627,13983.00 L1628,14057.69 L1629,14140.81 L1630,14236.44 L1631,14369.44 L1632,14156.19 L1633,13972.19 L1634,13803.25 L1635,13623.31 L1636,13436.69" style="vector-effect: non-scaling-stroke; stroke: #d60093; stroke-width: 1; fill-opacity: 0" transform="scale(0.440098,-0.002576)"/>
</g>
</g>
</svg>
