<?xml version="1.0" encoding="UTF-8"?>
<!DOCTYPE svg PUBLIC "-//W3C//DTD SVG 1.1//EN" "http://www.w3.org/Graphics/SVG/1.1/DTD/svg11.dtd">
<svg xmlns="http://www.w3.org/2000/svg" width="1060" height="350" fill="black" stroke="gray" stroke-width="1">
<text x= "0" y="30" text-anchor="start" stroke="brown">Linux 3.10.0-693.el7.ppc64le (centos-compression-iv1-main) 	04/30/2018 	_ppc64le_	(10 CPU)
</text>
<g id="12" transform="translate(0,50)">
<rect x="0" y="0" height="300" width="1050"/>
<text x="0" y="20" style="fill: yellow; stroke: none">I/O and transfer rate statistics (1)
<tspan x="795" y="25" style="fill: yellow; stroke: none; font-size: 12px">(Min, Max, Average values)</tspan></text>
<polyline points="70,50 70,250 790,250" stroke="white" stroke-width="2"/>
<text x="795" y="50" style="fill: #00cc00; stroke: none; font-size: 12px">tps (0.00, 9139.00, 464.345)</text><text x="795" y="65" style="fill: #ff00bf; stroke: none; font-size: 12px">rtps (0.00, 824.00, 295.512)</text><text x="795" y="80" style="fill: #00ffff; stroke: none; font-size: 12px">wtps (0.00, 9139.00, 168.833)</text><g transform="translate(70,250)">
<text x="0" y="10" style="fill: white; stroke: none; font-size: 12px; text-anchor: start" transform="rotate(45,0,0)">00:53:14</text>
<polyline points="163,0 163,-200" style="vector-effect: non-scaling-stroke; stroke: #202020" transform="scale(0.440367,1)"/>
<text x="71" y="10" style="fill: white; stroke: none; font-size: 12px; text-anchor: start" transform="rotate(45,71,0)">00:55:57</text>
<polyline points="326,0 326,-200" style="vector-effect: non-scaling-stroke; stroke: #202020" transform="scale(0.440367,1)"/>
<text x="143" y="10" style="fill: white; stroke: none; font-size: 12px; text-anchor: start" transform="rotate(45,143,0)">00:58:40</text>
<polyline points="489,0 489,-200" style="vector-effect: non-scaling-stroke; stroke: #202020" transform="scale(0.440367,1)"/>
<text x="215" y="10" style="fill: white; stroke: none; font-size: 12px; text-anchor: start" transform="rotate(45,215,0)">01:01:23</text>
<polyline points="652,0 652,-200" style="vector-effect: non-scaling-stroke; stroke: #202020" transform="scale(0.440367,1)"/>
<text x="287" y="10" style="fill: white; stroke: none; font-size: 12px; text-anchor: start" transform="rotate(45,287,0)">01:04:06</text>
<polyline points="815,0 815,-200" style="vector-effect: non-scaling-stroke; stroke: #202020" transform="scale(0.440367,1)"/>
<text x="358" y="10" style="fill: white; stroke: none; font-size: 12px; text-anchor: start" transform="rotate(45,358,0)">01:06:49</text>
<polyline points="978,0 978,-200" style="vector-effect: non-scaling-stroke; stroke: #202020" transform="scale(0.440367,1)"/>
<text x="430" y="10" style="fill: white; stroke: none; font-size: 12px; text-anchor: start" transform="rotate(45,430,0)">01:09:32</text>
<polyline points="1141,0 1141,-200" style="vector-effect: non-scaling-stroke; stroke: #202020" transform="scale(0.440367,1)"/>
<text x="502" y="10" style="fill: white; stroke: none; font-size: 12px; text-anchor: start" transform="rotate(45,502,0)">01:12:15</text>
<polyline points="1304,0 1304,-200" style="vector-effect: non-scaling-stroke; stroke: #202020" transform="scale(0.440367,1)"/>
<text x="574" y="10" style="fill: white; stroke: none; font-size: 12px; text-anchor: start" transform="rotate(45,574,0)">01:14:58</text>
<polyline points="1467,0 1467,-200" style="vector-effect: non-scaling-stroke; stroke: #202020" transform="scale(0.440367,1)"/>
<text x="646" y="10" style="fill: white; stroke: none; font-size: 12px; text-anchor: start" transform="rotate(45,646,0)">01:17:41</text>
<polyline points="1630,0 1630,-200" style="vector-effect: non-scaling-stroke; stroke: #202020" transform="scale(0.440367,1)"/>
<text x="717" y="10" style="fill: white; stroke: none; font-size: 12px; text-anchor: start" transform="rotate(45,717,0)">01:20:24</text>
<text x="-10" y="30" style="fill: yellow; stroke: none; font-size: 12px; text-anchor: end">UTC</text>
<path id="g11p0" d="M1,0.0 L2,0.0 L3,1.2041199826559248 L4,2.9159272116971158 L5,2.8744818176994666 L6,2.8739015978644615 L7,2.963787827345555 L8,2.877371345869774 L9,2.8779469516291885 L10,2.8779469516291885 L11,2.870403905279027 L12,2.8819549713396007 L13,2.8744818176994666 L14,2.869818207979328 L15,2.8779469516291885 L16,2.870403905279027 L17,2.842609239610562 L18,2.7708520116421442 L19,2.862131379313037 L20,2.8188854145940097 L21,2.823474229170301 L22,2.858537197569639 L23,2.81424759573192 L24,2.862131379313037 L25,2.870403905279027 L26,2.8779469516291885 L27,2.8785217955012063 L28,2.8779469516291885 L29,2.8739015978644615 L30,2.8785217955012063 L31,2.869818207979328 L32,2.9439888750737717 L33,2.869818207979328 L34,2.870403905279027 L35,2.8779469516291885 L36,2.870403905279027 L37,2.7671558660821804 L38,2.9800033715837464 L39,2.864511081058392 L40,2.1072099696478683 L41,2.1789769472931693 L42,2.558708570533166 L43,2.8744818176994666 L44,2.8744818176994666 L45,2.8819549713396007 L46,2.8739015978644615 L47,2.870403905279027 L48,2.869818207979328 L49,2.870403905279027 L50,2.8779469516291885 L51,2.8744818176994666 L52,2.8739015978644615 L53,2.8656960599160706 L54,2.8744818176994666 L55,2.8744818176994666 L56,2.869818207979328 L57,2.8744818176994666 L58,2.869818207979328 L59,2.862131379313037 L60,2.8744818176994666 L61,2.8615344108590377 L62,2.862131379313037 L63,2.850033257689769 L64,2.866877814337499 L65,2.8744818176994666 L66,2.857935264719429 L67,2.893206753059848 L68,2.8715729355458786 L69,3.3188977146274867 L70,2.862131379313037 L71,2.8744818176994666 L72,2.7371926427047373 L73,2.6522463410033232 L74,2.8494194137968996 L75,2.8662873390841948 L76,2.8779469516291885 L77,2.870403905279027 L78,2.6627578316815743 L79,2.2648178230095364 L80,2.4082399653118496 L81,2.5921767573958667 L82,2.862131379313037 L83,2.857935264719429 L84,2.8739015978644615 L85,2.862131379313037 L86,2.873320601815399 L87,2.866877814337499 L88,2.870403905279027 L89,2.8739015978644615 L90,2.8662873390841948 L91,2.8662873390841948 L92,2.8739015978644615 L93,2.8662873390841948 L94,2.8656960599160706 L95,2.850033257689769 L96,2.862131379313037 L97,2.862131379313037 L98,2.8627275283179747 L99,3.3124883624467305 L100,2.8543971429758166 L101,2.8739015978644615 L102,2.7101173651118162 L103,2.60959440922522 L104,2.8543060418010806 L105,2.8656960599160706 L106,2.8744818176994666 L107,2.8536982117761744 L108,2.7664128471123997 L109,2.1072099696478683 L110,2.4082399653118496 L111,2.6074550232146687 L112,2.857935264719429 L113,2.862131379313037 L114,2.8660804829326763 L115,2.8658971851683774 L116,2.850033257689769 L117,2.869818207979328 L118,2.870403905279027 L119,2.8494194137968996 L120,2.845098040014257 L121,2.8543060418010806 L122,2.8573324964312685 L123,2.8785217955012063 L124,2.8662873390841948 L125,2.8615344108590377 L126,2.8662873390841948 L127,2.860188224027035 L128,2.8739015978644615 L129,3.305136318943639 L130,2.862131379313037 L131,2.857935264719429 L132,2.7693773260761385 L133,2.4742162640762553 L134,2.8674674878590514 L135,2.869818207979328 L136,2.862131379313037 L137,2.862131379313037 L138,2.6830470382388496 L139,2.103803720955957 L140,2.2833012287035497 L141,2.741151598851785 L142,2.8457180179666586 L143,2.8662873390841948 L144,2.8656960599160706 L145,2.862131379313037 L146,2.8662873390841948 L147,2.8662873390841948 L148,2.857935264719429 L149,2.8656960599160706 L150,2.870403905279027 L151,2.8494194137968996 L152,2.8662873390841948 L153,2.8656960599160706 L154,2.8524799936368566 L155,2.8674674878590514 L156,2.857935264719429 L157,2.8615344108590377 L158,2.8662873390841948 L159,3.171433900943008 L160,3.0813473078041325 L161,2.8739015978644615 L162,2.8068580295188172 L163,2.525044807036845 L164,2.8494194137968996 L165,2.8662873390841948 L166,2.857935264719429 L167,2.862131379313037 L168,2.765668554759014 L169,2.322219294733919 L170,2.2405492482825995 L171,2.6646419755561257 L172,2.8536982117761744 L173,2.857935264719429 L174,2.8615344108590377 L175,2.8543060418010806 L176,2.8615344108590377 L177,2.857935264719429 L178,2.862131379313037 L179,2.8494194137968996 L180,2.850033257689769 L181,2.869818207979328 L182,2.8536982117761744 L183,2.857935264719429 L184,2.862131379313037 L185,2.8494194137968996 L186,2.8656960599160706 L187,2.857935264719429 L188,2.862131379313037 L189,2.8494194137968996 L190,3.271841606536499 L191,2.857935264719429 L192,2.8363241157067516 L193,2.4683473304121573 L194,2.8627275283179747 L195,2.870403905279027 L196,2.8494194137968996 L197,2.8662873390841948 L198,2.7299742856995555 L199,2.4082399653118496 L200,2.285557309007774 L201,2.6190933306267428 L202,2.8656960599160706 L203,2.8543060418010806 L204,2.8536982117761744 L205,2.845098040014257 L206,2.8494194137968996 L207,2.857935264719429 L208,2.857935264719429 L209,2.8536982117761744 L210,2.857935264719429 L211,2.850033257689769 L212,2.869818207979328 L213,2.8457180179666586 L214,2.8739015978644615 L215,2.8407332346118066 L216,2.857935264719429 L217,2.8555191556678 L218,2.859138297294531 L219,2.8615344108590377 L220,2.850033257689769 L221,2.869818207979328 L222,2.8494194137968996 L223,2.862131379313037 L224,2.857935264719429 L225,3.3261309567107946 L226,2.862131379313037 L227,2.8494194137968996 L228,2.296665190261531 L229,2.905256048748451 L230,2.8494194137968996 L231,2.857935264719429 L232,2.8543060418010806 L233,2.7693773260761385 L234,2.2833012287035497 L235,2.110589710299249 L236,2.287801729930226 L237,2.79309160017658 L238,2.8744818176994666 L239,2.845098040014257 L240,2.845098040014257 L241,2.850033257689769 L242,2.8573324964312685 L243,2.8543060418010806 L244,2.857935264719429 L245,2.8363241157067516 L246,2.828015064223977 L247,2.694605198933569 L248,2.851869600729766 L249,2.832508912706236 L250,2.845098040014257 L251,2.8536982117761744 L252,2.841359470454855 L253,2.8656960599160706 L254,2.8494194137968996 L255,3.245265839457461 L256,2.8494194137968996 L257,2.8536982117761744 L258,2.3324384599156054 L259,2.8182258936139557 L260,2.790988475088816 L261,2.8573324964312685 L262,2.8457180179666586 L263,2.821513528404773 L264,2.1072099696478683 L265,2.2833012287035497 L266,2.8182258936139557 L267,2.847572659142112 L268,2.8512583487190755 L269,2.8543060418010806 L270,2.833147111912785 L271,2.857935264719429 L272,2.8457180179666586 L273,2.8494194137968996 L274,2.828015064223977 L275,2.8494194137968996 L276,2.838849090737255 L277,2.851869600729766 L278,2.8488047010518036 L279,2.8662873390841948 L280,2.8369567370595505 L281,2.8318697742805017 L282,2.8369567370595505 L283,2.8536982117761744 L284,2.8494194137968996 L285,3.2427898094786767 L286,2.845098040014257 L287,2.8457180179666586 L288,2.845098040014257 L289,2.8494194137968996 L290,2.8129133566428557 L291,2.7730546933642626 L292,2.8536982117761744 L293,2.841359470454855 L294,2.862131379313037 L295,2.8407332346118066 L296,2.507855871695831 L297,2.2833012287035497 L298,2.230448921378274 L299,2.859738566197147 L300,2.814913181275074 L301,2.8494194137968996 L302,2.8369567370595505 L303,2.8536982117761744 L304,2.845098040014257 L305,2.862131379313037 L306,2.8369567370595505 L307,2.8662873390841948 L308,2.8561244442423 L309,2.845098040014257 L310,2.8536982117761744 L311,2.8536982117761744 L312,2.850033257689769 L313,2.8615344108590377 L314,2.832508912706236 L315,2.841359470454855 L316,3.2412973871099933 L317,2.8318697742805017 L318,2.8536982117761744 L319,2.832508912706236 L320,2.8662873390841948 L321,2.303196057420489 L322,2.873320601815399 L323,2.845098040014257 L324,2.845098040014257 L325,2.8457180179666586 L326,2.760422483423212 L327,2.1072099696478683 L328,2.2833012287035497 L329,2.8721562727482928 L330,2.8407332346118066 L331,2.8627275283179747 L332,2.841359470454855 L333,2.8363241157067516 L334,2.832508912706236 L335,2.828015064223977 L336,2.8494194137968996 L337,2.823474229170301 L338,2.848189116991399 L339,2.8407332346118066 L340,2.857935264719429 L341,2.8457180179666586 L342,2.845098040014257 L343,2.862131379313037 L344,2.8407332346118066 L345,2.841359470454855 L346,3.24699069924155 L347,2.8494194137968996 L348,2.8369567370595505 L349,2.845098040014257 L350,2.841359470454855 L351,2.577491799837225 L352,2.7505083948513462 L353,2.841359470454855 L354,2.8369567370595505 L355,2.8615344108590377 L356,2.828015064223977 L357,2.4712917110589387 L358,2.1072099696478683 L359,2.6711728427150834 L360,2.828015064223977 L361,2.8407332346118066 L362,2.8369567370595505 L363,2.8369567370595505 L364,2.832508912706236 L365,2.845098040014257 L366,2.8543060418010806 L367,2.8369567370595505 L368,2.8561244442423 L369,2.8363241157067516 L370,2.857935264719429 L371,2.8457180179666586 L372,2.8536982117761744 L373,2.845098040014257 L374,2.850033257689769 L375,2.8536982117761744 L376,3.230704313612569 L377,2.832508912706236 L378,2.8573324964312685 L379,2.841359470454855 L380,2.8369567370595505 L381,2.694605198933569 L382,2.6875289612146345 L383,2.8363241157067516 L384,2.8543060418010806 L385,2.8407332346118066 L386,2.841359470454855 L387,2.6127838567197355 L388,2.2833012287035497 L389,2.60959440922522 L390,2.8369567370595505 L391,2.857935264719429 L392,2.8494194137968996 L393,2.8494194137968996 L394,2.845098040014257 L395,2.8543060418010806 L396,2.8536982117761744 L397,2.845098040014257 L398,2.8349545004839753 L399,2.857935264719429 L400,2.8494194137968996 L401,2.8543060418010806 L402,2.790988475088816 L403,2.8536982117761744 L404,2.8369567370595505 L405,2.8407332346118066 L406,3.2327191911393434 L407,2.845724213278845 L408,2.6434526764861874 L409,2.710963118995276 L410,2.841359470454855 L411,2.8363241157067516 L412,2.857935264719429 L413,2.841359470454855 L414,2.6053050461411096 L415,2.1072099696478683 L416,2.6190933306267428 L417,2.870403905279027 L418,2.8494194137968996 L419,2.8536982117761744 L420,2.8494194137968996 L421,2.832508912706236 L422,2.857935264719429 L423,2.823474229170301 L424,2.841359470454855 L425,2.828015064223977 L426,2.8536982117761744 L427,2.8494194137968996 L428,2.8305886686851442 L429,2.8369567370595505 L430,2.8494194137968996 L431,2.8369567370595505 L432,2.8318697742805017 L433,2.8536982117761744 L434,2.850033257689769 L435,2.8407332346118066 L436,3.14674801363064 L437,3.0310042813635367 L438,2.678518379040114 L439,2.6848453616444123 L440,2.7958800173440754 L441,2.81424759573192 L442,2.823474229170301 L443,2.8457180179666586 L444,2.4712917110589387 L445,2.12057393120585 L446,2.6794278966121188 L447,2.859738566197147 L448,2.8369567370595505 L449,2.8273692730538253 L450,2.841359470454855 L451,2.8407332346118066 L452,2.828015064223977 L453,2.8326366275967034 L454,2.828015064223977 L455,2.823474229170301 L456,2.7810369386211318 L457,2.786041210242554 L458,2.803457115648414 L459,2.8369567370595505 L460,2.845098040014257 L461,2.832508912706236 L462,2.8048206787211623 L463,2.8369567370595505 L464,2.845098040014257 L465,2.8369567370595505 L466,2.845098040014257 L467,3.2229764498933915 L468,2.8549130223078554 L469,2.832508912706236 L470,2.828015064223977 L471,2.862131379313037 L472,2.3384564936046046 L473,2.8785217955012063 L474,2.841359470454855 L475,2.832508912706236 L476,2.863322860120456 L477,2.8175653695597807 L478,2.2833012287035497 L479,2.361727836017593 L480,2.8561244442423 L481,2.8318697742805017 L482,2.823474229170301 L483,2.8102325179950842 L484,2.823474229170301 L485,2.845098040014257 L486,2.8188854145940097 L487,2.828015064223977 L488,2.850033257689769 L489,2.8407332346118066 L490,2.8369567370595505 L491,2.832508912706236 L492,2.823474229170301 L493,2.8494194137968996 L494,2.8419848045901137 L495,2.840106094456758 L496,2.832508912706236 L497,3.2214142378423385 L498,2.780317312140151 L499,2.637489729512511 L500,2.824776462475546 L501,2.8175653695597807 L502,2.8494194137968996 L503,2.8318697742805017 L504,2.6483600109809315 L505,2.2833012287035497 L506,2.5327543789924976 L507,2.8567288903828825 L508,2.8318697742805017 L509,2.8494194137968996 L510,2.841359470454855 L511,2.8369567370595505 L512,2.845098040014257 L513,2.841359470454855 L514,2.8407332346118066 L515,2.8494194137968996 L516,2.814913181275074 L517,2.8188854145940097 L518,2.8020892578817325 L519,2.8129133566428557 L520,2.8020892578817325 L521,2.832508912706236 L522,2.845098040014257 L523,2.828015064223977 L524,2.8188854145940097 L525,2.800717078282385 L526,2.823474229170301 L527,3.2187979981117376 L528,2.7795964912578244 L529,2.603144372620182 L530,2.8369567370595505 L531,2.857935264719429 L532,2.8363241157067516 L533,2.8457180179666586 L534,2.7126497016272113 L535,2.287801729930226 L536,2.531478917042255 L537,2.8549130223078554 L538,2.8536982117761744 L539,2.841359470454855 L540,2.8407332346118066 L541,2.823474229170301 L542,2.8457180179666586 L543,2.845098040014257 L544,2.832508912706236 L545,2.8407332346118066 L546,2.8662873390841948 L547,2.8457180179666586 L548,2.835056101720116 L549,2.8651039746411278 L550,2.821513528404773 L551,2.847572659142112 L552,2.8536982117761744 L553,2.845098040014257 L554,2.8536982117761744 L555,2.8494194137968996 L556,2.8457180179666586 L557,3.2242740142942576 L558,2.890421018800914 L559,2.8369567370595505 L560,2.8536982117761744 L561,2.8536982117761744 L562,2.716003343634799 L563,2.6646419755561257 L564,2.8363241157067516 L565,2.8369567370595505 L566,2.8407332346118066 L567,2.8457180179666586 L568,2.6541765418779604 L569,2.1072099696478683 L570,2.525044807036845 L571,2.841359470454855 L572,2.8536982117761744 L573,2.8407332346118066 L574,2.8662873390841948 L575,2.8369567370595505 L576,2.8536982117761744 L577,2.857935264719429 L578,2.835056101720116 L579,2.8506462351830666 L580,2.8494194137968996 L581,2.857935264719429 L582,2.8369567370595505 L583,2.845098040014257 L584,2.8407332346118066 L585,2.8543060418010806 L586,2.845098040014257 L587,2.8407332346118066 L588,3.241048150671644 L589,2.5185139398778875 L590,2.8494194137968996 L591,2.857935264719429 L592,2.8407332346118066 L593,2.8457180179666586 L594,2.722633922533812 L595,2.250420002308894 L596,2.1522883443830563 L597,2.887617300335736 L598,2.8494194137968996 L599,2.8369567370595505 L600,2.841359470454855 L601,2.8407332346118066 L602,2.8369567370595505 L603,2.841359470454855 L604,2.8369567370595505 L605,2.828015064223977 L606,2.8494194137968996 L607,2.8369567370595505 L608,2.828015064223977 L609,2.851869600729766 L610,2.8494194137968996 L611,2.841359470454855 L612,2.857935264719429 L613,2.8363241157067516 L614,2.8494194137968996 L615,2.850033257689769 L616,2.862131379313037 L617,2.8407332346118066 L618,3.2340108175871793 L619,2.8494194137968996 L620,2.8536982117761744 L621,2.8369567370595505 L622,2.832508912706236 L623,2.450249108319361 L624,2.8739015978644615 L625,2.8494194137968996 L626,2.857935264719429 L627,2.8363241157067516 L628,2.8055008581584002 L629,2.383815365980431 L630,2.2833012287035497 L631,2.7558748556724915 L632,2.8530895298518657 L633,2.8494194137968996 L634,2.8494194137968996 L635,2.8494194137968996 L636,2.841359470454855 L637,2.8536982117761744 L638,2.850033257689769 L639,2.850033257689769 L640,2.8494194137968996 L641,2.828015064223977 L642,2.823474229170301 L643,2.8536982117761744 L644,2.8369567370595505 L645,2.8536982117761744 L646,2.8363241157067516 L647,2.8536982117761744 L648,3.2425414282983844 L649,2.823474229170301 L650,2.8407332346118066 L651,2.8536982117761744 L652,2.841359470454855 L653,2.598790506763115 L654,2.801403710017355 L655,2.8369567370595505 L656,2.828015064223977 L657,2.8369567370595505 L658,2.8536982117761744 L659,2.4183012913197452 L660,2.3909351071033793 L661,2.6627578316815743 L662,2.8369567370595505 L663,2.841359470454855 L664,2.8363241157067516 L665,2.841359470454855 L666,2.823474229170301 L667,2.8363241157067516 L668,2.8369567370595505 L669,2.847572659142112 L670,2.8457180179666586 L671,2.8369567370595505 L672,2.8536982117761744 L673,2.8407332346118066 L674,2.8419848045901137 L675,2.8536982117761744 L676,2.845098040014257 L677,2.8494194137968996 L678,3.2362852774480286 L679,2.3364597338485296 L680,2.887617300335736 L681,2.8363241157067516 L682,2.8457180179666586 L683,2.845098040014257 L684,2.82020145948564 L685,2.1522883443830563 L686,2.383815365980431 L687,2.780317312140151 L688,2.850033257689769 L689,2.8407332346118066 L690,2.8095597146352675 L691,2.7715874808812555 L692,2.8407332346118066 L693,2.857935264719429 L694,2.8369567370595505 L695,2.8048206787211623 L696,2.8369567370595505 L697,2.8407332346118066 L698,2.845098040014257 L699,2.848189116991399 L700,2.828015064223977 L701,2.8102325179950842 L702,2.857935264719429 L703,2.8273692730538253 L704,2.841359470454855 L705,2.832508912706236 L706,2.832508912706236 L707,2.8407332346118066 L708,3.2271150825891253 L709,2.6148972160331345 L710,2.795184589682424 L711,2.8195439355418688 L712,2.8273692730538253 L713,2.828015064223977 L714,2.8369567370595505 L715,2.5599066250361124 L716,2.428134794028789 L717,2.781755374652469 L718,2.832508912706236 L719,2.815577748324267 L720,2.826722520168992 L721,2.828015064223977 L722,2.8369567370595505 L723,2.8407332346118066 L724,2.828015064223977 L725,2.8369567370595505 L726,2.823474229170301 L727,2.8363241157067516 L728,2.828015064223977 L729,2.8273692730538253 L730,2.828015064223977 L731,2.776701183988411 L732,2.8095597146352675 L733,2.81424759573192 L734,2.8369567370595505 L735,2.832508912706236 L736,2.8188854145940097 L737,2.832508912706236 L738,2.832508912706236 L739,3.141763230275788 L740,2.765668554759014 L741,2.832508912706236 L742,2.81424759573192 L743,2.841359470454855 L744,2.8095597146352675 L745,2.4871383754771865 L746,2.2833012287035497 L747,2.788168371141168 L748,2.8195439355418688 L749,2.44870631990508 L750,0.3010299956639812 L751,0.0 L752,0.0 L753,0.0 L754,0.0 L755,0.0 L756,0.0 L757,0.0 L758,0.0 L759,1.146128035678238 L760,0.0 L761,0.0 L762,0.0 L763,0.0 L764,0.0 L765,0.0 L766,0.0 L767,0.0 L768,0.0 L769,0.0 L770,2.6599162000698504 L771,0.0 L772,0.0 L773,0.0 L774,0.0 L775,3.6461095219788477 L776,3.8825074618204103 L777,3.1458177144918276 L778,0.0 L779,0.0 L780,0.0 L781,0.0 L782,0.0 L783,0.0 L784,0.0 L785,0.0 L786,0.0 L787,0.0 L788,0.0 L789,0.6020599913279624 L790,0.0 L791,0.0 L792,0.0 L793,0.0 L794,0.0 L795,0.0 L796,0.0 L797,0.0 L798,0.0 L799,0.0 L800,0.0 L801,0.0 L802,0.0 L803,0.0 L804,0.0 L805,0.0 L806,0.0 L807,3.77342072329061 L808,2.8567288903828825 L809,3.0115704435972783 L810,3.327767489902729 L811,3.7742979384992776 L812,3.0051805125037805 L813,3.1264561134318045 L814,2.359835482339888 L815,2.5390760987927767 L816,2.2095150145426308 L817,2.0211892990699383 L818,1.8864907251724818 L819,2.1818435879447726 L820,2.123851640967086 L821,2.290034611362518 L822,2.305351369446624 L823,2.5646660642520893 L824,2.1702617153949575 L825,2.230448921378274 L826,2.2600713879850747 L827,2.5289167002776547 L828,2.577491799837225 L829,0.0 L830,0.0 L831,0.0 L832,0.0 L833,2.2695129442179165 L834,2.765668554759014 L835,2.808210972924222 L836,2.617000341120899 L837,2.4756711883244296 L838,2.509202522331103 L839,2.496929648073215 L840,2.7234556720351857 L841,2.416640507338281 L842,2.5428254269591797 L843,2.4313637641589874 L844,2.5403294747908736 L845,2.462397997898956 L846,2.481442628502305 L847,2.507855871695831 L848,2.496929648073215 L849,2.6570558528571038 L850,2.677606952720493 L851,2.530199698203082 L852,2.597695185925512 L853,2.399673721481038 L854,2.552668216112193 L855,2.3944516808262164 L856,2.5477747053878224 L857,2.419955748489758 L858,2.514547752660286 L859,2.5171958979499744 L860,2.531478917042255 L861,2.456366033129043 L862,2.569373909615046 L863,2.496929648073215 L864,2.4683473304121573 L865,2.514547752660286 L866,2.788875115775417 L867,2.7134905430939424 L868,2.44870631990508 L869,2.7701152947871015 L870,2.513217600067939 L871,2.311753861055754 L872,2.531478917042255 L873,2.513217600067939 L874,2.0644579892269186 L875,0.0 L876,1.9822712330395684 L877,2.545307116465824 L878,3.059941888061955 L879,2.4608978427565478 L880,2.439332693830263 L881,2.439332693830263 L882,2.3909351071033793 L883,2.3909351071033793 L884,2.582063362911709 L885,2.429752280002408 L886,2.8407332346118066 L887,2.509202522331103 L888,2.8573324964312685 L889,2.4082399653118496 L890,2.428134794028789 L891,2.3180633349627615 L892,2.4578818967339924 L893,2.2695129442179165 L894,2.3324384599156054 L895,2.380211241711606 L896,2.330413773349191 L897,2.383815365980431 L898,2.481442628502305 L899,2.320146286111054 L900,2.444044795918076 L901,2.3909351071033793 L902,2.4313637641589874 L903,2.48572142648158 L904,2.4265112613645754 L905,2.5646660642520893 L906,2.59659709562646 L907,2.56702636615906 L908,2.630427875025024 L909,2.5921767573958667 L910,2.6283889300503116 L911,2.846955325019824 L912,3.1583624920952498 L913,2.5415792439465807 L914,2.606381365110605 L915,2.255272505103306 L916,2.3873898263387296 L917,2.48572142648158 L918,2.5390760987927767 L919,2.5211380837040362 L920,2.5440680443502757 L921,2.5634810853944106 L922,2.469822015978163 L923,2.5575072019056577 L924,2.649334858712142 L925,2.5440680443502757 L926,2.494154594018443 L927,2.41161970596323 L928,2.4409090820652177 L929,2.5352941200427703 L930,2.526339277389844 L931,2.505149978319906 L932,2.4771212547196626 L933,2.5538830266438746 L934,2.741151598851785 L935,2.6711728427150834 L936,2.41161970596323 L937,2.3263358609287517 L938,2.4653828514484184 L939,2.788168371141168 L940,2.404833716619938 L941,2.661812685537261 L942,2.4871383754771865 L943,2.374748346010104 L944,2.3783979009481375 L945,2.423245873936808 L946,2.4638929889859074 L947,2.3783979009481375 L948,2.437750562820388 L949,2.4216039268698313 L950,2.3783979009481375 L951,2.416640507338281 L952,2.383815365980431 L953,2.9647309210536292 L954,2.962369335670021 L955,2.5024271199844326 L956,2.1903316981702914 L957,2.3364597338485296 L958,2.4608978427565478 L959,2.383815365980431 L960,2.399673721481038 L961,2.6148972160331345 L962,2.647920614581567 L963,2.3729120029701067 L964,3.055378331375 L965,2.66838591669 L966,2.2810333672477277 L967,2.3242824552976926 L968,2.3180633349627615 L969,2.3283796034387376 L970,2.413299764081252 L971,2.376576957056512 L972,2.4216039268698313 L973,2.3344537511509307 L974,2.3979400086720375 L975,2.3364597338485296 L976,2.419955748489758 L977,2.5705429398818973 L978,2.741151598851785 L979,3.216165902285993 L980,2.2278867046136734 L981,2.330413773349191 L982,2.3944516808262164 L983,2.4800069429571505 L984,2.506505032404872 L985,2.4885507165004443 L986,2.507855871695831 L987,2.550228353055094 L988,2.5224442335063197 L989,2.3521825181113627 L990,2.3654879848909 L991,2.4683473304121573 L992,2.456366033129043 L993,2.4082399653118496 L994,2.444044795918076 L995,2.5415792439465807 L996,2.3944516808262164 L997,2.401400540781544 L998,2.3502480183341627 L999,2.578639209968072 L1000,2.6148972160331345 L1001,2.5899496013257077 L1002,2.552668216112193 L1003,2.5943925503754266 L1004,2.693726948923647 L1005,2.9947569445876283 L1006,2.785329835010767 L1007,2.6053050461411096 L1008,2.6364878963533656 L1009,2.69284691927723 L1010,2.7259116322950483 L1011,2.576341350205793 L1012,2.6138418218760693 L1013,2.526339277389844 L1014,2.577491799837225 L1015,2.530199698203082 L1016,2.5658478186735176 L1017,2.577491799837225 L1018,2.5390760987927767 L1019,2.7193312869837265 L1020,2.4668676203541096 L1021,2.6127838567197355 L1022,2.6138418218760693 L1023,2.5622928644564746 L1024,2.6085260335771943 L1025,2.4265112613645754 L1026,2.5599066250361124 L1027,2.5622928644564746 L1028,2.531478917042255 L1029,2.503790683057181 L1030,2.525044807036845 L1031,2.5211380837040362 L1032,2.4927603890268375 L1033,2.509202522331103 L1034,2.439332693830263 L1035,2.4456042032735974 L1036,2.5550944485783194 L1037,2.5352941200427703 L1038,2.575187844927661 L1039,2.6599162000698504 L1040,2.6384892569546374 L1041,2.737987326333431 L1042,2.737987326333431 L1043,2.4712917110589387 L1044,2.531478917042255 L1045,2.478566495593843 L1046,2.4653828514484184 L1047,2.5171958979499744 L1048,2.534026106056135 L1049,2.510545010206612 L1050,2.509202522331103 L1051,2.4955443375464483 L1052,2.5705429398818973 L1053,2.509202522331103 L1054,2.577491799837225 L1055,2.6334684555795866 L1056,2.4983105537896004 L1057,2.4424797690644486 L1058,2.530199698203082 L1059,2.574031267727719 L1060,2.5888317255942073 L1061,2.4424797690644486 L1062,2.5276299008713385 L1063,2.6201360549737576 L1064,2.6589648426644352 L1065,2.6541765418779604 L1066,2.484299839346786 L1067,2.6364878963533656 L1068,2.6580113966571126 L1069,2.661812685537261 L1070,2.5809249756756194 L1071,0.0 L1072,0.0 L1073,0.0 L1074,0.0 L1075,0.0 L1076,0.0 L1077,0.0 L1078,0.0 L1079,0.0 L1080,0.0 L1081,0.0 L1082,0.0 L1083,0.0 L1084,0.0 L1085,0.0 L1086,0.0 L1087,0.0 L1088,0.0 L1089,0.0 L1090,0.0 L1091,0.0 L1092,0.6989700043360189 L1093,0.0 L1094,0.0 L1095,0.0 L1096,0.0 L1097,0.0 L1098,0.0 L1099,0.0 L1100,0.0 L1101,0.0 L1102,0.0 L1103,0.0 L1104,0.0 L1105,0.0 L1106,0.0 L1107,0.0 L1108,0.0 L1109,0.0 L1110,0.0 L1111,1.255272505103306 L1112,2.0644579892269186 L1113,0.0 L1114,0.0 L1115,0.0 L1116,0.0 L1117,0.0 L1118,0.0 L1119,0.0 L1120,0.0 L1121,0.0 L1122,0.0 L1123,0.0 L1124,0.0 L1125,0.0 L1126,0.0 L1127,0.0 L1128,0.0 L1129,0.0 L1130,0.0 L1131,0.0 L1132,0.0 L1133,0.0 L1134,0.0 L1135,0.0 L1136,0.0 L1137,2.322219294733919 L1138,0.0 L1139,0.0 L1140,0.0 L1141,1.2787536009528289 L1142,3.5766868052009957 L1143,0.0 L1144,0.0 L1145,0.0 L1146,0.0 L1147,0.0 L1148,0.0 L1149,0.0 L1150,0.0 L1151,0.0 L1152,0.0 L1153,0.0 L1154,0.0 L1155,0.0 L1156,0.0 L1157,0.0 L1158,0.0 L1159,0.0 L1160,0.0 L1161,0.0 L1162,0.0 L1163,0.0 L1164,0.0 L1165,0.0 L1166,0.0 L1167,0.0 L1168,0.0 L1169,0.0 L1170,0.0 L1171,0.7781512503836436 L1172,3.615950051656401 L1173,0.0 L1174,0.0 L1175,0.0 L1176,0.0 L1177,0.0 L1178,0.0 L1179,0.0 L1180,0.0 L1181,0.0 L1182,0.0 L1183,0.0 L1184,0.0 L1185,0.0 L1186,0.0 L1187,0.0 L1188,0.0 L1189,0.0 L1190,0.0 L1191,0.0 L1192,0.0 L1193,0.0 L1194,0.0 L1195,0.0 L1196,0.0 L1197,0.0 L1198,0.0 L1199,0.0 L1200,0.0 L1201,0.0 L1202,2.5276299008713385 L1203,3.5816083660320577 L1204,0.0 L1205,0.0 L1206,0.0 L1207,0.0 L1208,0.0 L1209,0.0 L1210,0.0 L1211,0.0 L1212,0.0 L1213,0.0 L1214,0.0 L1215,0.0 L1216,0.0 L1217,0.0 L1218,0.0 L1219,0.0 L1220,0.0 L1221,0.0 L1222,0.0 L1223,0.0 L1224,0.0 L1225,0.0 L1226,0.0 L1227,0.0 L1228,0.0 L1229,0.0 L1230,0.0 L1231,0.6989700043360189 L1232,0.0 L1233,3.6133131614554594 L1234,0.0 L1235,0.0 L1236,0.0 L1237,0.0 L1238,0.0 L1239,0.0 L1240,0.0 L1241,0.0 L1242,0.0 L1243,0.0 L1244,0.47712125471966244 L1245,0.0 L1246,0.0 L1247,0.0 L1248,0.0 L1249,0.0 L1250,0.0 L1251,0.0 L1252,0.0 L1253,0.0 L1254,0.0 L1255,0.0 L1256,0.0 L1257,0.0 L1258,0.0 L1259,0.0 L1260,0.0 L1261,0.6020599913279624 L1262,0.0 L1263,2.754348335711019 L1264,3.546542663478131 L1265,0.0 L1266,0.0 L1267,0.0 L1268,0.0 L1269,0.0 L1270,0.0 L1271,0.0 L1272,0.0 L1273,0.0 L1274,0.0 L1275,0.0 L1276,0.0 L1277,0.0 L1278,0.0 L1279,0.0 L1280,0.0 L1281,0.0 L1282,0.0 L1283,0.0 L1284,0.0 L1285,0.0 L1286,0.0 L1287,0.0 L1288,0.0 L1289,0.0 L1290,0.0 L1291,0.7781512503836436 L1292,0.0 L1293,0.0 L1294,3.6065963091792854 L1295,0.0 L1296,0.0 L1297,0.0 L1298,0.0 L1299,0.0 L1300,0.0 L1301,0.0 L1302,0.0 L1303,0.0 L1304,0.0 L1305,0.0 L1306,0.0 L1307,0.0 L1308,0.0 L1309,0.0 L1310,0.0 L1311,0.0 L1312,0.0 L1313,0.0 L1314,0.0 L1315,0.0 L1316,0.0 L1317,0.0 L1318,0.0 L1319,0.0 L1320,0.0 L1321,0.6020599913279624 L1322,0.0 L1323,0.0 L1324,2.9722028383790646 L1325,3.498034723687027 L1326,0.0 L1327,0.0 L1328,0.0 L1329,0.0 L1330,0.0 L1331,0.0 L1332,0.0 L1333,0.0 L1334,0.0 L1335,0.0 L1336,0.0 L1337,0.0 L1338,0.0 L1339,0.0 L1340,0.0 L1341,0.0 L1342,0.0 L1343,0.0 L1344,0.0 L1345,0.0 L1346,0.0 L1347,0.0 L1348,0.0 L1349,0.0 L1350,0.0 L1351,0.3010299956639812 L1352,0.6020599913279624 L1353,0.0 L1354,0.0 L1355,3.6124659639531425 L1356,0.0 L1357,0.0 L1358,0.0 L1359,0.0 L1360,0.0 L1361,0.0 L1362,0.0 L1363,0.0 L1364,0.0 L1365,0.0 L1366,0.0 L1367,0.0 L1368,3.028977705208778 L1369,0.0 L1370,0.0 L1371,0.0 L1372,0.0 L1373,0.0 L1374,0.0 L1375,0.0 L1376,0.0 L1377,0.0 L1378,0.0 L1379,0.0 L1380,0.0 L1381,0.0 L1382,0.6020599913279624 L1383,0.0 L1384,0.0 L1385,0.0 L1386,0.0 L1387,0.0 L1388,0.0 L1389,0.0 L1390,0.0 L1391,0.0 L1392,0.0 L1393,0.0 L1394,0.0 L1395,0.0 L1396,0.0 L1397,0.0 L1398,0.0 L1399,0.0 L1400,0.0 L1401,0.0 L1402,0.0 L1403,0.0 L1404,0.0 L1405,0.0 L1406,0.0 L1407,0.0 L1408,0.0 L1409,0.0 L1410,0.0 L1411,1.0791812460476249 L1412,0.0 L1413,0.0 L1414,3.960898677326661 L1415,3.514547752660286 L1416,2.8692317197309762 L1417,2.8506462351830666 L1418,2.788875115775417 L1419,2.6283889300503116 L1420,2.635483746814912 L1421,2.682145076373832 L1422,2.6720978579357175 L1423,2.60422605308447 L1424,2.673020907128896 L1425,2.5943925503754266 L1426,2.667452952889954 L1427,2.6074550232146687 L1428,2.7737864449811935 L1429,0.0 L1430,0.0 L1431,0.0 L1432,0.0 L1433,2.530199698203082 L1434,3.25478968739721 L1435,2.5877109650189114 L1436,2.7573960287930244 L1437,2.6180480967120925 L1438,2.7134905430939424 L1439,2.741939077729199 L1440,2.7024305364455254 L1441,2.513217600067939 L1442,2.710963118995276 L1443,2.481442628502305 L1444,2.525044807036845 L1445,2.661812685537261 L1446,2.3502480183341627 L1447,2.7024305364455254 L1448,2.432969290874406 L1449,2.437750562820388 L1450,2.537819095073274 L1451,2.530199698203082 L1452,2.416640507338281 L1453,0.0 L1454,0.0 L1455,0.0 L1456,0.0 L1457,2.9542425094393248 L1458,2.514547752660286 L1459,2.5171958979499744 L1460,2.5477747053878224 L1461,2.5118833609788744 L1462,2.515873843711679 L1463,2.584331224367531 L1464,2.635483746814912 L1465,2.622214022966295 L1466,2.7671558660821804 L1467,2.649334858712142 L1468,2.738780558484369 L1469,2.708420900134713 L1470,2.5440680443502757 L1471,2.530199698203082 L1472,2.593286067020457 L1473,2.5118833609788744 L1474,2.5327543789924976 L1475,2.6473829701146196 L1476,2.5289167002776547 L1477,2.4927603890268375 L1478,2.577491799837225 L1479,2.4871383754771865 L1480,2.48572142648158 L1481,2.5327543789924976 L1482,2.220108088040055 L1483,0.0 L1484,0.0 L1485,0.0 L1486,0.0 L1487,2.741151598851785 L1488,2.578639209968072 L1489,2.5634810853944106 L1490,2.578639209968072 L1491,2.6180480967120925 L1492,2.6541765418779604 L1493,2.8836614351536176 L1494,2.747411807886423 L1495,2.6020599913279625 L1496,2.584331224367531 L1497,2.690196080028514 L1498,2.6334684555795866 L1499,2.6434526764861874 L1500,2.6522463410033232 L1501,2.6464037262230695 L1502,2.651278013998144 L1503,2.8419848045901137 L1504,2.3180633349627615 L1505,2.45178643552429 L1506,2.558708570533166 L1507,2.6020599913279625 L1508,2.5514499979728753 L1509,2.550228353055094 L1510,2.550228353055094 L1511,2.514547752660286 L1512,2.503790683057181 L1513,2.462397997898956 L1514,2.530199698203082 L1515,2.552668216112193 L1516,2.5705429398818973 L1517,2.507855871695831 L1518,2.583198773968623 L1519,2.5888317255942073 L1520,2.4668676203541096 L1521,2.5118833609788744 L1522,2.5185139398778875 L1523,0.0 L1524,0.0 L1525,0.0 L1526,0.0 L1527,2.3654879848909 L1528,2.632457292184724 L1529,2.6444385894678386 L1530,2.606381365110605 L1531,2.5514499979728753 L1532,2.6180480967120925 L1533,2.6148972160331345 L1534,2.629409599102719 L1535,2.6283889300503116 L1536,2.7032913781186614 L1537,2.6434526764861874 L1538,2.66838591669 L1539,2.526339277389844 L1540,2.6655809910179533 L1541,2.60959440922522 L1542,2.788168371141168 L1543,2.7965743332104296 L1544,2.6766936096248664 L1545,2.57978359661681 L1546,2.4913616938342726 L1547,2.459392487759231 L1548,2.6344772701607315 L1549,2.6020599913279625 L1550,2.5289167002776547 L1551,2.5390760987927767 L1552,2.507855871695831 L1553,2.4927603890268375 L1554,2.5705429398818973 L1555,2.494154594018443 L1556,2.484299839346786 L1557,2.5224442335063197 L1558,2.625312450961674 L1559,2.5575072019056577 L1560,2.503790683057181 L1561,2.5224442335063197 L1562,2.5415792439465807 L1563,2.530199698203082 L1564,2.459392487759231 L1565,2.598790506763115 L1566,2.586587304671755 L1567,2.5403294747908736 L1568,2.456366033129043 L1569,2.3979400086720375 L1570,2.45178643552429 L1571,2.4533183400470375 L1572,2.450249108319361 L1573,2.484299839346786 L1574,2.4712917110589387 L1575,2.5403294747908736 L1576,2.4471580313422194 L1577,2.5477747053878224 L1578,2.5563025007672873 L1579,2.4742162640762553 L1580,2.4456042032735974 L1581,2.456366033129043 L1582,2.436162647040756 L1583,2.4608978427565478 L1584,2.4638929889859074 L1585,2.863322860120456 L1586,2.462397997898956 L1587,2.423245873936808 L1588,2.401400540781544 L1589,2.399673721481038 L1590,2.459392487759231 L1591,2.6178910944273546 L1592,2.4871383754771865 L1593,3.0034605321095067 L1594,2.4668676203541096 L1595,2.459392487759231 L1596,2.45484486000851 L1597,2.4424797690644486 L1598,2.6242820958356683 L1599,2.482873583608754 L1600,2.571708831808688 L1601,2.4742162640762553 L1602,2.4927603890268375 L1603,2.4424797690644486 L1604,2.5289167002776547 L1605,2.4983105537896004 L1606,2.537819095073274 L1607,2.5728716022004803 L1608,2.582063362911709 L1609,2.6570558528571038 L1610,2.5563025007672873 L1611,2.673941998634088 L1612,2.6580113966571126 L1613,2.7831886910752575 L1614,2.745855195173729 L1615,2.656098202012832 L1616,2.7259116322950483 L1617,2.6655809910179533 L1618,2.7641761323903307 L1619,2.5575072019056577 L1620,2.5490032620257876 L1621,2.6148972160331345 L1622,2.505149978319906 L1623,2.6020599913279625 L1624,2.5563025007672873 L1625,2.484299839346786 L1626,2.5538830266438746 L1627,2.4913616938342726 L1628,2.5943925503754266 L1629,2.571708831808688 L1630,2.550228353055094 L1631,2.4742162640762553 L1632,2.611723308007342 L1633,2.6009728956867484 L1634,2.499687082618404 L1635,2.5622928644564746 " style="vector-effect: non-scaling-stroke; stroke: #00cc00; stroke-width: 1; fill-opacity: 0" transform="scale(0.440367,-50.0)"/><path id="g11p1" d="M1,0.0 L2,0.0 L3,0.47712125471966244 L4,2.9159272116971158 L5,2.8744818176994666 L6,2.8739015978644615 L7,2.8573324964312685 L8,2.8767949762007006 L9,2.8779469516291885 L10,2.8779469516291885 L11,2.870403905279027 L12,2.8819549713396007 L13,2.8744818176994666 L14,2.869818207979328 L15,2.8779469516291885 L16,2.870403905279027 L17,2.841359470454855 L18,2.7708520116421442 L19,2.862131379313037 L20,2.8188854145940097 L21,2.823474229170301 L22,2.832508912706236 L23,2.81424759573192 L24,2.862131379313037 L25,2.870403905279027 L26,2.8779469516291885 L27,2.870403905279027 L28,2.8779469516291885 L29,2.8739015978644615 L30,2.8785217955012063 L31,2.869818207979328 L32,2.8785217955012063 L33,2.869818207979328 L34,2.870403905279027 L35,2.8779469516291885 L36,2.870403905279027 L37,2.5575072019056577 L38,2.1522883443830563 L39,2.278753600952829 L40,2.1072099696478683 L41,2.1760912590556813 L42,2.5563025007672873 L43,2.8744818176994666 L44,2.8744818176994666 L45,2.8819549713396007 L46,2.8739015978644615 L47,2.870403905279027 L48,2.869818207979328 L49,2.870403905279027 L50,2.8779469516291885 L51,2.8744818176994666 L52,2.8739015978644615 L53,2.8656960599160706 L54,2.8744818176994666 L55,2.8744818176994666 L56,2.869818207979328 L57,2.8744818176994666 L58,2.869818207979328 L59,2.862131379313037 L60,2.8744818176994666 L61,2.8615344108590377 L62,2.862131379313037 L63,2.850033257689769 L64,2.8656960599160706 L65,2.8744818176994666 L66,2.857935264719429 L67,2.8779469516291885 L68,2.870403905279027 L69,2.8656960599160706 L70,2.862131379313037 L71,2.8744818176994666 L72,2.7371926427047373 L73,2.6522463410033232 L74,2.8494194137968996 L75,2.8662873390841948 L76,2.8779469516291885 L77,2.870403905279027 L78,2.6627578316815743 L79,2.2648178230095364 L80,2.4082399653118496 L81,2.5921767573958667 L82,2.862131379313037 L83,2.857935264719429 L84,2.8739015978644615 L85,2.862131379313037 L86,2.873320601815399 L87,2.866877814337499 L88,2.870403905279027 L89,2.8739015978644615 L90,2.8662873390841948 L91,2.8662873390841948 L92,2.8739015978644615 L93,2.8662873390841948 L94,2.8656960599160706 L95,2.850033257689769 L96,2.862131379313037 L97,2.857935264719429 L98,2.8615344108590377 L99,2.8741976068377997 L100,2.8543971429758166 L101,2.8739015978644615 L102,2.7101173651118162 L103,2.60959440922522 L104,2.8543060418010806 L105,2.8656960599160706 L106,2.8744818176994666 L107,2.8536982117761744 L108,2.7664128471123997 L109,2.1072099696478683 L110,2.4082399653118496 L111,2.6074550232146687 L112,2.857935264719429 L113,2.862131379313037 L114,2.8660804829326763 L115,2.8658971851683774 L116,2.850033257689769 L117,2.869818207979328 L118,2.870403905279027 L119,2.8494194137968996 L120,2.845098040014257 L121,2.8543060418010806 L122,2.8573324964312685 L123,2.8785217955012063 L124,2.8662873390841948 L125,2.8615344108590377 L126,2.8662873390841948 L127,2.8578087527560436 L128,2.8739015978644615 L129,2.862131379313037 L130,2.862131379313037 L131,2.857935264719429 L132,2.7693773260761385 L133,2.4742162640762553 L134,2.8662873390841948 L135,2.869818207979328 L136,2.862131379313037 L137,2.862131379313037 L138,2.6830470382388496 L139,2.103803720955957 L140,2.2833012287035497 L141,2.741151598851785 L142,2.8457180179666586 L143,2.8662873390841948 L144,2.8656960599160706 L145,2.862131379313037 L146,2.8662873390841948 L147,2.8662873390841948 L148,2.857935264719429 L149,2.8656960599160706 L150,2.870403905279027 L151,2.8494194137968996 L152,2.8662873390841948 L153,2.8656960599160706 L154,2.8524799936368566 L155,2.8674674878590514 L156,2.857935264719429 L157,2.857935264719429 L158,2.8662873390841948 L159,2.8536982117761744 L160,2.857935264719429 L161,2.8739015978644615 L162,2.8068580295188172 L163,2.525044807036845 L164,2.8494194137968996 L165,2.8656960599160706 L166,2.857935264719429 L167,2.862131379313037 L168,2.765668554759014 L169,2.322219294733919 L170,2.2405492482825995 L171,2.6646419755561257 L172,2.8536982117761744 L173,2.857935264719429 L174,2.8615344108590377 L175,2.8543060418010806 L176,2.8615344108590377 L177,2.857935264719429 L178,2.862131379313037 L179,2.8494194137968996 L180,2.850033257689769 L181,2.869818207979328 L182,2.8536982117761744 L183,2.857935264719429 L184,2.862131379313037 L185,2.8494194137968996 L186,2.8656960599160706 L187,2.8543060418010806 L188,2.862131379313037 L189,2.8494194137968996 L190,2.814913181275074 L191,2.857935264719429 L192,2.8363241157067516 L193,2.4683473304121573 L194,2.8627275283179747 L195,2.870403905279027 L196,2.8494194137968996 L197,2.8662873390841948 L198,2.7299742856995555 L199,2.4082399653118496 L200,2.2833012287035497 L201,2.6190933306267428 L202,2.8656960599160706 L203,2.8543060418010806 L204,2.8536982117761744 L205,2.845098040014257 L206,2.8494194137968996 L207,2.857935264719429 L208,2.857935264719429 L209,2.8536982117761744 L210,2.857935264719429 L211,2.850033257689769 L212,2.869818207979328 L213,2.8457180179666586 L214,2.8739015978644615 L215,2.8407332346118066 L216,2.857935264719429 L217,2.8543060418010806 L218,2.857935264719429 L219,2.8615344108590377 L220,2.850033257689769 L221,2.869818207979328 L222,2.8494194137968996 L223,2.862131379313037 L224,2.857935264719429 L225,2.8457180179666586 L226,2.862131379313037 L227,2.8494194137968996 L228,2.296665190261531 L229,2.905256048748451 L230,2.8494194137968996 L231,2.857935264719429 L232,2.8543060418010806 L233,2.7693773260761385 L234,2.2833012287035497 L235,2.1072099696478683 L236,2.287801729930226 L237,2.79309160017658 L238,2.8744818176994666 L239,2.845098040014257 L240,2.845098040014257 L241,2.850033257689769 L242,2.8573324964312685 L243,2.8543060418010806 L244,2.857935264719429 L245,2.8363241157067516 L246,2.828015064223977 L247,2.694605198933569 L248,2.8494194137968996 L249,2.832508912706236 L250,2.845098040014257 L251,2.8536982117761744 L252,2.841359470454855 L253,2.8656960599160706 L254,2.8494194137968996 L255,2.8369567370595505 L256,2.8494194137968996 L257,2.8536982117761744 L258,2.3324384599156054 L259,2.8182258936139557 L260,2.790988475088816 L261,2.8573324964312685 L262,2.8457180179666586 L263,2.821513528404773 L264,2.1072099696478683 L265,2.2833012287035497 L266,2.8182258936139557 L267,2.847572659142112 L268,2.8512583487190755 L269,2.8543060418010806 L270,2.8318697742805017 L271,2.857935264719429 L272,2.8457180179666586 L273,2.8494194137968996 L274,2.828015064223977 L275,2.8494194137968996 L276,2.838849090737255 L277,2.851869600729766 L278,2.845098040014257 L279,2.8662873390841948 L280,2.8369567370595505 L281,2.8318697742805017 L282,2.8369567370595505 L283,2.8536982117761744 L284,2.8494194137968996 L285,2.841359470454855 L286,2.845098040014257 L287,2.8457180179666586 L288,2.845098040014257 L289,2.8494194137968996 L290,2.8129133566428557 L291,2.7730546933642626 L292,2.8536982117761744 L293,2.841359470454855 L294,2.862131379313037 L295,2.8407332346118066 L296,2.507855871695831 L297,2.2833012287035497 L298,2.230448921378274 L299,2.859738566197147 L300,2.81424759573192 L301,2.8494194137968996 L302,2.8369567370595505 L303,2.8536982117761744 L304,2.845098040014257 L305,2.862131379313037 L306,2.8369567370595505 L307,2.8662873390841948 L308,2.8536982117761744 L309,2.845098040014257 L310,2.8536982117761744 L311,2.8536982117761744 L312,2.850033257689769 L313,2.8615344108590377 L314,2.832508912706236 L315,2.841359470454855 L316,2.828015064223977 L317,2.8318697742805017 L318,2.8536982117761744 L319,2.832508912706236 L320,2.8662873390841948 L321,2.303196057420489 L322,2.873320601815399 L323,2.845098040014257 L324,2.845098040014257 L325,2.8457180179666586 L326,2.760422483423212 L327,2.1072099696478683 L328,2.2833012287035497 L329,2.8721562727482928 L330,2.8407332346118066 L331,2.862131379313037 L332,2.841359470454855 L333,2.8363241157067516 L334,2.832508912706236 L335,2.828015064223977 L336,2.8494194137968996 L337,2.823474229170301 L338,2.841359470454855 L339,2.8407332346118066 L340,2.857935264719429 L341,2.8457180179666586 L342,2.845098040014257 L343,2.862131379313037 L344,2.8407332346118066 L345,2.841359470454855 L346,2.8536982117761744 L347,2.8494194137968996 L348,2.8369567370595505 L349,2.845098040014257 L350,2.841359470454855 L351,2.577491799837225 L352,2.7505083948513462 L353,2.841359470454855 L354,2.8369567370595505 L355,2.8615344108590377 L356,2.828015064223977 L357,2.4712917110589387 L358,2.1072099696478683 L359,2.6711728427150834 L360,2.828015064223977 L361,2.8407332346118066 L362,2.8369567370595505 L363,2.8369567370595505 L364,2.832508912706236 L365,2.845098040014257 L366,2.8536982117761744 L367,2.8369567370595505 L368,2.8536982117761744 L369,2.8363241157067516 L370,2.857935264719429 L371,2.8457180179666586 L372,2.8536982117761744 L373,2.845098040014257 L374,2.850033257689769 L375,2.8536982117761744 L376,2.81424759573192 L377,2.832508912706236 L378,2.8573324964312685 L379,2.841359470454855 L380,2.8369567370595505 L381,2.694605198933569 L382,2.6875289612146345 L383,2.8363241157067516 L384,2.8543060418010806 L385,2.8407332346118066 L386,2.841359470454855 L387,2.6127838567197355 L388,2.2833012287035497 L389,2.60959440922522 L390,2.8369567370595505 L391,2.857935264719429 L392,2.8494194137968996 L393,2.8494194137968996 L394,2.845098040014257 L395,2.8543060418010806 L396,2.8536982117761744 L397,2.845098040014257 L398,2.832381160247041 L399,2.857935264719429 L400,2.8494194137968996 L401,2.8536982117761744 L402,2.790988475088816 L403,2.8536982117761744 L404,2.8369567370595505 L405,2.8407332346118066 L406,2.828189263324731 L407,2.845724213278845 L408,2.6434526764861874 L409,2.710963118995276 L410,2.841359470454855 L411,2.8363241157067516 L412,2.857935264719429 L413,2.841359470454855 L414,2.6053050461411096 L415,2.1072099696478683 L416,2.6190933306267428 L417,2.870403905279027 L418,2.8494194137968996 L419,2.8536982117761744 L420,2.8494194137968996 L421,2.832508912706236 L422,2.857935264719429 L423,2.823474229170301 L424,2.841359470454855 L425,2.828015064223977 L426,2.8536982117761744 L427,2.8494194137968996 L428,2.828015064223977 L429,2.8369567370595505 L430,2.8494194137968996 L431,2.8369567370595505 L432,2.8318697742805017 L433,2.8536982117761744 L434,2.850033257689769 L435,2.8407332346118066 L436,2.847572659142112 L437,2.851869600729766 L438,2.678518379040114 L439,2.6848453616444123 L440,2.7958800173440754 L441,2.81424759573192 L442,2.823474229170301 L443,2.8457180179666586 L444,2.4712917110589387 L445,2.12057393120585 L446,2.6794278966121188 L447,2.857935264719429 L448,2.8369567370595505 L449,2.8273692730538253 L450,2.841359470454855 L451,2.8407332346118066 L452,2.828015064223977 L453,2.8326366275967034 L454,2.828015064223977 L455,2.823474229170301 L456,2.7810369386211318 L457,2.786041210242554 L458,2.800717078282385 L459,2.8369567370595505 L460,2.845098040014257 L461,2.832508912706236 L462,2.8048206787211623 L463,2.8369567370595505 L464,2.845098040014257 L465,2.8369567370595505 L466,2.845098040014257 L467,2.8549130223078554 L468,2.8549130223078554 L469,2.832508912706236 L470,2.828015064223977 L471,2.862131379313037 L472,2.3384564936046046 L473,2.8785217955012063 L474,2.841359470454855 L475,2.832508912706236 L476,2.863322860120456 L477,2.8175653695597807 L478,2.2833012287035497 L479,2.361727836017593 L480,2.8561244442423 L481,2.8318697742805017 L482,2.823474229170301 L483,2.8102325179950842 L484,2.823474229170301 L485,2.845098040014257 L486,2.8188854145940097 L487,2.828015064223977 L488,2.8457180179666586 L489,2.8407332346118066 L490,2.8369567370595505 L491,2.832508912706236 L492,2.823474229170301 L493,2.8494194137968996 L494,2.8419848045901137 L495,2.840106094456758 L496,2.832508912706236 L497,2.8095597146352675 L498,2.780317312140151 L499,2.637489729512511 L500,2.824776462475546 L501,2.8175653695597807 L502,2.8457180179666586 L503,2.8318697742805017 L504,2.6483600109809315 L505,2.2833012287035497 L506,2.5327543789924976 L507,2.8567288903828825 L508,2.8318697742805017 L509,2.8494194137968996 L510,2.841359470454855 L511,2.8369567370595505 L512,2.845098040014257 L513,2.841359470454855 L514,2.8407332346118066 L515,2.8494194137968996 L516,2.814913181275074 L517,2.8188854145940097 L518,2.790988475088816 L519,2.8129133566428557 L520,2.8020892578817325 L521,2.832508912706236 L522,2.845098040014257 L523,2.828015064223977 L524,2.8188854145940097 L525,2.800717078282385 L526,2.823474229170301 L527,2.8363241157067516 L528,2.7795964912578244 L529,2.603144372620182 L530,2.8369567370595505 L531,2.857935264719429 L532,2.8363241157067516 L533,2.8457180179666586 L534,2.7126497016272113 L535,2.287801729930226 L536,2.531478917042255 L537,2.8536982117761744 L538,2.8536982117761744 L539,2.841359470454855 L540,2.8407332346118066 L541,2.823474229170301 L542,2.8457180179666586 L543,2.845098040014257 L544,2.832508912706236 L545,2.8407332346118066 L546,2.8662873390841948 L547,2.8457180179666586 L548,2.82865989653532 L549,2.8651039746411278 L550,2.821513528404773 L551,2.847572659142112 L552,2.8536982117761744 L553,2.845098040014257 L554,2.8536982117761744 L555,2.8494194137968996 L556,2.8457180179666586 L557,2.8494194137968996 L558,2.832508912706236 L559,2.8369567370595505 L560,2.8536982117761744 L561,2.8536982117761744 L562,2.716003343634799 L563,2.6646419755561257 L564,2.8363241157067516 L565,2.8369567370595505 L566,2.8407332346118066 L567,2.8457180179666586 L568,2.6532125137753435 L569,2.1072099696478683 L570,2.525044807036845 L571,2.841359470454855 L572,2.8536982117761744 L573,2.8407332346118066 L574,2.8662873390841948 L575,2.8369567370595505 L576,2.8536982117761744 L577,2.857935264719429 L578,2.8318697742805017 L579,2.850033257689769 L580,2.8494194137968996 L581,2.857935264719429 L582,2.8369567370595505 L583,2.845098040014257 L584,2.8407332346118066 L585,2.8543060418010806 L586,2.845098040014257 L587,2.8407332346118066 L588,2.841359470454855 L589,2.5185139398778875 L590,2.8494194137968996 L591,2.857935264719429 L592,2.8407332346118066 L593,2.8457180179666586 L594,2.722633922533812 L595,2.250420002308894 L596,2.1522883443830563 L597,2.887617300335736 L598,2.8494194137968996 L599,2.8369567370595505 L600,2.841359470454855 L601,2.8407332346118066 L602,2.8369567370595505 L603,2.8407332346118066 L604,2.8369567370595505 L605,2.828015064223977 L606,2.8494194137968996 L607,2.8369567370595505 L608,2.828015064223977 L609,2.8494194137968996 L610,2.8494194137968996 L611,2.841359470454855 L612,2.857935264719429 L613,2.8363241157067516 L614,2.8494194137968996 L615,2.850033257689769 L616,2.862131379313037 L617,2.8407332346118066 L618,2.832508912706236 L619,2.8494194137968996 L620,2.8536982117761744 L621,2.8369567370595505 L622,2.832508912706236 L623,2.450249108319361 L624,2.8739015978644615 L625,2.8494194137968996 L626,2.857935264719429 L627,2.8363241157067516 L628,2.8055008581584002 L629,2.383815365980431 L630,2.2833012287035497 L631,2.7558748556724915 L632,2.8530895298518657 L633,2.8494194137968996 L634,2.8494194137968996 L635,2.8494194137968996 L636,2.841359470454855 L637,2.8536982117761744 L638,2.8494194137968996 L639,2.8457180179666586 L640,2.8494194137968996 L641,2.828015064223977 L642,2.823474229170301 L643,2.8536982117761744 L644,2.8369567370595505 L645,2.8536982117761744 L646,2.8363241157067516 L647,2.8536982117761744 L648,2.8457180179666586 L649,2.823474229170301 L650,2.8407332346118066 L651,2.8536982117761744 L652,2.841359470454855 L653,2.598790506763115 L654,2.801403710017355 L655,2.8369567370595505 L656,2.828015064223977 L657,2.8369567370595505 L658,2.8536982117761744 L659,2.4183012913197452 L660,2.3909351071033793 L661,2.6627578316815743 L662,2.8369567370595505 L663,2.841359470454855 L664,2.8363241157067516 L665,2.841359470454855 L666,2.823474229170301 L667,2.8363241157067516 L668,2.8369567370595505 L669,2.845098040014257 L670,2.8457180179666586 L671,2.8369567370595505 L672,2.8536982117761744 L673,2.840106094456758 L674,2.8419848045901137 L675,2.8536982117761744 L676,2.845098040014257 L677,2.8494194137968996 L678,2.8457180179666586 L679,2.3364597338485296 L680,2.887617300335736 L681,2.8363241157067516 L682,2.8457180179666586 L683,2.845098040014257 L684,2.82020145948564 L685,2.1522883443830563 L686,2.383815365980431 L687,2.780317312140151 L688,2.850033257689769 L689,2.8407332346118066 L690,2.8095597146352675 L691,2.7715874808812555 L692,2.8407332346118066 L693,2.857935264719429 L694,2.8369567370595505 L695,2.8048206787211623 L696,2.8369567370595505 L697,2.8407332346118066 L698,2.845098040014257 L699,2.8457180179666586 L700,2.828015064223977 L701,2.8102325179950842 L702,2.857935264719429 L703,2.8273692730538253 L704,2.841359470454855 L705,2.832508912706236 L706,2.832508912706236 L707,2.8407332346118066 L708,2.841359470454855 L709,2.6148972160331345 L710,2.795184589682424 L711,2.8195439355418688 L712,2.8273692730538253 L713,2.828015064223977 L714,2.8369567370595505 L715,2.5599066250361124 L716,2.428134794028789 L717,2.781755374652469 L718,2.832508912706236 L719,2.815577748324267 L720,2.826722520168992 L721,2.828015064223977 L722,2.8369567370595505 L723,2.8407332346118066 L724,2.828015064223977 L725,2.8369567370595505 L726,2.823474229170301 L727,2.8363241157067516 L728,2.828015064223977 L729,2.823474229170301 L730,2.828015064223977 L731,2.776701183988411 L732,2.8095597146352675 L733,2.81424759573192 L734,2.8369567370595505 L735,2.832508912706236 L736,2.8188854145940097 L737,2.832508912706236 L738,2.832508912706236 L739,2.6148972160331345 L740,2.765668554759014 L741,2.832508912706236 L742,2.81424759573192 L743,2.841359470454855 L744,2.8095597146352675 L745,2.4871383754771865 L746,2.2833012287035497 L747,2.788168371141168 L748,2.8195439355418688 L749,0.0 L750,0.0 L751,0.0 L752,0.0 L753,0.0 L754,0.0 L755,0.0 L756,0.0 L757,0.0 L758,0.0 L759,0.0 L760,0.0 L761,0.0 L762,0.0 L763,0.0 L764,0.0 L765,0.0 L766,0.0 L767,0.0 L768,0.0 L769,0.0 L770,0.0 L771,0.0 L772,0.0 L773,0.0 L774,0.0 L775,0.0 L776,0.0 L777,0.0 L778,0.0 L779,0.0 L780,0.0 L781,0.0 L782,0.0 L783,0.0 L784,0.0 L785,0.0 L786,0.0 L787,0.0 L788,0.0 L789,0.0 L790,0.0 L791,0.0 L792,0.0 L793,0.0 L794,0.0 L795,0.0 L796,0.0 L797,0.0 L798,0.0 L799,0.0 L800,0.0 L801,0.0 L802,0.0 L803,0.0 L804,0.0 L805,0.0 L806,0.0 L807,0.0 L808,0.0 L809,0.0 L810,0.0 L811,0.0 L812,0.0 L813,0.0 L814,0.0 L815,0.0 L816,0.0 L817,0.0 L818,0.0 L819,0.0 L820,0.0 L821,0.0 L822,0.0 L823,0.0 L824,0.0 L825,0.0 L826,0.0 L827,0.0 L828,0.0 L829,0.0 L830,0.0 L831,0.0 L832,0.0 L833,0.0 L834,0.0 L835,0.0 L836,0.0 L837,0.0 L838,0.0 L839,0.0 L840,0.0 L841,0.0 L842,0.0 L843,0.0 L844,0.0 L845,0.0 L846,0.0 L847,0.0 L848,0.0 L849,0.0 L850,0.0 L851,0.0 L852,0.0 L853,0.0 L854,0.0 L855,0.0 L856,0.0 L857,0.0 L858,0.0 L859,0.0 L860,0.0 L861,0.0 L862,0.0 L863,0.0 L864,0.0 L865,0.0 L866,0.0 L867,0.0 L868,0.0 L869,0.0 L870,0.0 L871,0.0 L872,0.0 L873,0.0 L874,0.0 L875,0.0 L876,0.0 L877,0.0 L878,0.0 L879,0.0 L880,0.0 L881,0.0 L882,0.0 L883,0.0 L884,0.0 L885,0.0 L886,0.0 L887,0.0 L888,0.0 L889,0.0 L890,0.0 L891,0.0 L892,0.0 L893,0.0 L894,0.0 L895,0.0 L896,0.0 L897,0.0 L898,0.0 L899,0.0 L900,0.0 L901,0.0 L902,0.0 L903,0.0 L904,0.0 L905,0.0 L906,0.0 L907,0.0 L908,0.0 L909,0.0 L910,0.0 L911,0.0 L912,0.0 L913,0.0 L914,0.0 L915,0.0 L916,0.0 L917,0.0 L918,0.0 L919,0.0 L920,0.0 L921,0.0 L922,0.0 L923,0.0 L924,0.0 L925,0.0 L926,0.0 L927,0.0 L928,0.0 L929,0.0 L930,0.0 L931,0.0 L932,0.0 L933,0.0 L934,0.0 L935,0.0 L936,0.0 L937,0.0 L938,0.0 L939,0.0 L940,0.0 L941,0.0 L942,0.0 L943,0.0 L944,0.0 L945,0.0 L946,0.0 L947,0.0 L948,0.0 L949,0.0 L950,0.0 L951,0.0 L952,0.0 L953,0.0 L954,0.0 L955,0.0 L956,0.0 L957,0.0 L958,0.0 L959,0.0 L960,0.0 L961,0.0 L962,0.0 L963,0.0 L964,0.0 L965,0.0 L966,0.0 L967,0.0 L968,0.0 L969,0.0 L970,0.0 L971,0.0 L972,0.0 L973,0.0 L974,0.0 L975,0.0 L976,0.0 L977,0.0 L978,0.0 L979,0.0 L980,0.0 L981,0.0 L982,0.0 L983,0.0 L984,0.0 L985,0.0 L986,0.0 L987,0.0 L988,0.0 L989,0.0 L990,0.0 L991,0.0 L992,0.0 L993,0.0 L994,0.0 L995,0.0 L996,0.0 L997,0.0 L998,0.0 L999,0.0 L1000,0.0 L1001,0.0 L1002,0.0 L1003,0.0 L1004,0.0 L1005,0.0 L1006,0.0 L1007,0.0 L1008,0.0 L1009,0.0 L1010,0.0 L1011,0.0 L1012,0.0 L1013,0.0 L1014,0.0 L1015,0.0 L1016,0.0 L1017,0.0 L1018,0.0 L1019,0.0 L1020,0.0 L1021,0.0 L1022,0.0 L1023,0.0 L1024,0.0 L1025,0.0 L1026,0.0 L1027,0.0 L1028,0.0 L1029,0.0 L1030,0.0 L1031,0.0 L1032,0.0 L1033,0.0 L1034,0.0 L1035,0.0 L1036,0.0 L1037,0.0 L1038,0.0 L1039,0.0 L1040,0.0 L1041,0.0 L1042,0.0 L1043,0.0 L1044,0.0 L1045,0.0 L1046,0.0 L1047,0.0 L1048,0.0 L1049,0.0 L1050,0.0 L1051,0.0 L1052,0.0 L1053,0.0 L1054,0.0 L1055,0.0 L1056,0.0 L1057,0.0 L1058,0.0 L1059,0.0 L1060,0.0 L1061,0.0 L1062,0.0 L1063,0.0 L1064,0.0 L1065,0.0 L1066,0.0 L1067,0.0 L1068,0.0 L1069,0.0 L1070,0.0 L1071,0.0 L1072,0.0 L1073,0.0 L1074,0.0 L1075,0.0 L1076,0.0 L1077,0.0 L1078,0.0 L1079,0.0 L1080,0.0 L1081,0.0 L1082,0.0 L1083,0.0 L1084,0.0 L1085,0.0 L1086,0.0 L1087,0.0 L1088,0.0 L1089,0.0 L1090,0.0 L1091,0.0 L1092,0.0 L1093,0.0 L1094,0.0 L1095,0.0 L1096,0.0 L1097,0.0 L1098,0.0 L1099,0.0 L1100,0.0 L1101,0.0 L1102,0.0 L1103,0.0 L1104,0.0 L1105,0.0 L1106,0.0 L1107,0.0 L1108,0.0 L1109,0.0 L1110,0.0 L1111,0.3010299956639812 L1112,0.0 L1113,0.0 L1114,0.0 L1115,0.0 L1116,0.0 L1117,0.0 L1118,0.0 L1119,0.0 L1120,0.0 L1121,0.0 L1122,0.0 L1123,0.0 L1124,0.0 L1125,0.0 L1126,0.0 L1127,0.0 L1128,0.0 L1129,0.0 L1130,0.0 L1131,0.0 L1132,0.0 L1133,0.0 L1134,0.0 L1135,0.0 L1136,0.0 L1137,0.0 L1138,0.0 L1139,0.0 L1140,0.0 L1141,0.0 L1142,0.0 L1143,0.0 L1144,0.0 L1145,0.0 L1146,0.0 L1147,0.0 L1148,0.0 L1149,0.0 L1150,0.0 L1151,0.0 L1152,0.0 L1153,0.0 L1154,0.0 L1155,0.0 L1156,0.0 L1157,0.0 L1158,0.0 L1159,0.0 L1160,0.0 L1161,0.0 L1162,0.0 L1163,0.0 L1164,0.0 L1165,0.0 L1166,0.0 L1167,0.0 L1168,0.0 L1169,0.0 L1170,0.0 L1171,0.0 L1172,0.0 L1173,0.0 L1174,0.0 L1175,0.0 L1176,0.0 L1177,0.0 L1178,0.0 L1179,0.0 L1180,0.0 L1181,0.0 L1182,0.0 L1183,0.0 L1184,0.0 L1185,0.0 L1186,0.0 L1187,0.0 L1188,0.0 L1189,0.0 L1190,0.0 L1191,0.0 L1192,0.0 L1193,0.0 L1194,0.0 L1195,0.0 L1196,0.0 L1197,0.0 L1198,0.0 L1199,0.0 L1200,0.0 L1201,0.0 L1202,0.0 L1203,0.0 L1204,0.0 L1205,0.0 L1206,0.0 L1207,0.0 L1208,0.0 L1209,0.0 L1210,0.0 L1211,0.0 L1212,0.0 L1213,0.0 L1214,0.0 L1215,0.0 L1216,0.0 L1217,0.0 L1218,0.0 L1219,0.0 L1220,0.0 L1221,0.0 L1222,0.0 L1223,0.0 L1224,0.0 L1225,0.0 L1226,0.0 L1227,0.0 L1228,0.0 L1229,0.0 L1230,0.0 L1231,0.0 L1232,0.0 L1233,0.0 L1234,0.0 L1235,0.0 L1236,0.0 L1237,0.0 L1238,0.0 L1239,0.0 L1240,0.0 L1241,0.0 L1242,0.0 L1243,0.0 L1244,0.0 L1245,0.0 L1246,0.0 L1247,0.0 L1248,0.0 L1249,0.0 L1250,0.0 L1251,0.0 L1252,0.0 L1253,0.0 L1254,0.0 L1255,0.0 L1256,0.0 L1257,0.0 L1258,0.0 L1259,0.0 L1260,0.0 L1261,0.0 L1262,0.0 L1263,0.0 L1264,0.0 L1265,0.0 L1266,0.0 L1267,0.0 L1268,0.0 L1269,0.0 L1270,0.0 L1271,0.0 L1272,0.0 L1273,0.0 L1274,0.0 L1275,0.0 L1276,0.0 L1277,0.0 L1278,0.0 L1279,0.0 L1280,0.0 L1281,0.0 L1282,0.0 L1283,0.0 L1284,0.0 L1285,0.0 L1286,0.0 L1287,0.0 L1288,0.0 L1289,0.0 L1290,0.0 L1291,0.0 L1292,0.0 L1293,0.0 L1294,0.0 L1295,0.0 L1296,0.0 L1297,0.0 L1298,0.0 L1299,0.0 L1300,0.0 L1301,0.0 L1302,0.0 L1303,0.0 L1304,0.0 L1305,0.0 L1306,0.0 L1307,0.0 L1308,0.0 L1309,0.0 L1310,0.0 L1311,0.0 L1312,0.0 L1313,0.0 L1314,0.0 L1315,0.0 L1316,0.0 L1317,0.0 L1318,0.0 L1319,0.0 L1320,0.0 L1321,0.0 L1322,0.0 L1323,0.0 L1324,0.0 L1325,0.0 L1326,0.0 L1327,0.0 L1328,0.0 L1329,0.0 L1330,0.0 L1331,0.0 L1332,0.0 L1333,0.0 L1334,0.0 L1335,0.0 L1336,0.0 L1337,0.0 L1338,0.0 L1339,0.0 L1340,0.0 L1341,0.0 L1342,0.0 L1343,0.0 L1344,0.0 L1345,0.0 L1346,0.0 L1347,0.0 L1348,0.0 L1349,0.0 L1350,0.0 L1351,0.0 L1352,0.0 L1353,0.0 L1354,0.0 L1355,0.0 L1356,0.0 L1357,0.0 L1358,0.0 L1359,0.0 L1360,0.0 L1361,0.0 L1362,0.0 L1363,0.0 L1364,0.0 L1365,0.0 L1366,0.0 L1367,0.0 L1368,0.0 L1369,0.0 L1370,0.0 L1371,0.0 L1372,0.0 L1373,0.0 L1374,0.0 L1375,0.0 L1376,0.0 L1377,0.0 L1378,0.0 L1379,0.0 L1380,0.0 L1381,0.0 L1382,0.0 L1383,0.0 L1384,0.0 L1385,0.0 L1386,0.0 L1387,0.0 L1388,0.0 L1389,0.0 L1390,0.0 L1391,0.0 L1392,0.0 L1393,0.0 L1394,0.0 L1395,0.0 L1396,0.0 L1397,0.0 L1398,0.0 L1399,0.0 L1400,0.0 L1401,0.0 L1402,0.0 L1403,0.0 L1404,0.0 L1405,0.0 L1406,0.0 L1407,0.0 L1408,0.0 L1409,0.0 L1410,0.0 L1411,0.0 L1412,0.0 L1413,0.0 L1414,0.0 L1415,0.0 L1416,0.0 L1417,0.0 L1418,0.0 L1419,0.0 L1420,0.0 L1421,0.0 L1422,0.0 L1423,0.0 L1424,0.0 L1425,0.0 L1426,0.0 L1427,0.0 L1428,0.0 L1429,0.0 L1430,0.0 L1431,0.0 L1432,0.0 L1433,0.0 L1434,0.0 L1435,0.0 L1436,0.0 L1437,0.0 L1438,0.0 L1439,0.0 L1440,0.0 L1441,0.0 L1442,0.0 L1443,0.0 L1444,0.0 L1445,0.0 L1446,0.0 L1447,0.0 L1448,0.0 L1449,0.0 L1450,0.0 L1451,0.0 L1452,0.0 L1453,0.0 L1454,0.0 L1455,0.0 L1456,0.0 L1457,0.0 L1458,0.0 L1459,0.0 L1460,0.0 L1461,0.0 L1462,0.0 L1463,0.0 L1464,0.0 L1465,0.0 L1466,0.0 L1467,0.0 L1468,0.0 L1469,0.0 L1470,0.0 L1471,0.0 L1472,0.0 L1473,0.0 L1474,0.0 L1475,0.0 L1476,0.0 L1477,0.0 L1478,0.0 L1479,0.0 L1480,0.0 L1481,0.0 L1482,0.0 L1483,0.0 L1484,0.0 L1485,0.0 L1486,0.0 L1487,0.0 L1488,0.0 L1489,0.0 L1490,0.0 L1491,0.0 L1492,0.0 L1493,0.0 L1494,0.0 L1495,0.0 L1496,0.0 L1497,0.0 L1498,0.0 L1499,0.0 L1500,0.0 L1501,0.0 L1502,0.0 L1503,0.0 L1504,0.0 L1505,0.0 L1506,0.0 L1507,0.0 L1508,0.0 L1509,0.0 L1510,0.0 L1511,0.0 L1512,0.0 L1513,0.0 L1514,0.0 L1515,0.0 L1516,0.0 L1517,0.0 L1518,0.0 L1519,0.0 L1520,0.0 L1521,0.0 L1522,0.0 L1523,0.0 L1524,0.0 L1525,0.0 L1526,0.0 L1527,0.0 L1528,0.0 L1529,0.0 L1530,0.0 L1531,0.0 L1532,0.0 L1533,0.0 L1534,0.0 L1535,0.0 L1536,0.0 L1537,0.0 L1538,0.0 L1539,0.0 L1540,0.0 L1541,0.0 L1542,0.0 L1543,0.0 L1544,0.0 L1545,0.0 L1546,0.0 L1547,0.0 L1548,0.0 L1549,0.0 L1550,0.0 L1551,0.0 L1552,0.0 L1553,0.0 L1554,0.0 L1555,0.0 L1556,0.0 L1557,0.0 L1558,0.0 L1559,0.0 L1560,0.0 L1561,0.0 L1562,0.0 L1563,0.0 L1564,0.0 L1565,0.0 L1566,0.0 L1567,0.0 L1568,0.0 L1569,0.0 L1570,0.0 L1571,0.0 L1572,0.0 L1573,0.0 L1574,0.0 L1575,0.0 L1576,0.0 L1577,0.0 L1578,0.0 L1579,0.0 L1580,0.0 L1581,0.0 L1582,0.0 L1583,0.0 L1584,0.0 L1585,0.0 L1586,0.0 L1587,0.0 L1588,0.0 L1589,0.0 L1590,0.0 L1591,0.0 L1592,0.0 L1593,0.0 L1594,0.0 L1595,0.0 L1596,0.0 L1597,0.0 L1598,0.0 L1599,0.0 L1600,0.0 L1601,0.0 L1602,0.0 L1603,0.0 L1604,0.0 L1605,0.0 L1606,0.0 L1607,0.0 L1608,0.0 L1609,0.0 L1610,0.0 L1611,0.0 L1612,0.0 L1613,0.0 L1614,0.0 L1615,0.0 L1616,0.0 L1617,0.0 L1618,0.0 L1619,0.0 L1620,0.0 L1621,0.0 L1622,0.0 L1623,0.0 L1624,0.0 L1625,0.0 L1626,0.0 L1627,0.0 L1628,0.0 L1629,0.0 L1630,0.0 L1631,0.0 L1632,0.0 L1633,0.0 L1634,0.0 L1635,0.0 " style="vector-effect: non-scaling-stroke; stroke: #ff00bf; stroke-width: 1; fill-opacity: 0" transform="scale(0.440367,-50.0)"/><path id="g11p2" d="M1,0.0 L2,0.0 L3,1.1139433523068367 L4,0.0 L5,0.0 L6,0.0 L7,2.3010299956639813 L8,0.0 L9,0.0 L10,0.0 L11,0.0 L12,0.0 L13,0.0 L14,0.0 L15,0.0 L16,0.0 L17,0.3010299956639812 L18,0.0 L19,0.0 L20,0.0 L21,0.0 L22,1.6232492903979006 L23,0.0 L24,0.0 L25,0.0 L26,0.0 L27,1.146128035678238 L28,0.0 L29,0.0 L30,0.0 L31,0.0 L32,2.089905111439398 L33,0.0 L34,0.0 L35,0.0 L36,0.0 L37,2.3502480183341627 L38,2.910090545594068 L39,2.733999286538387 L40,0.0 L41,0.0 L42,0.3010299956639812 L43,0.0 L44,0.0 L45,0.0 L46,0.0 L47,0.0 L48,0.0 L49,0.0 L50,0.0 L51,0.0 L52,0.0 L53,0.0 L54,0.0 L55,0.0 L56,0.0 L57,0.0 L58,0.0 L59,0.0 L60,0.0 L61,0.0 L62,0.0 L63,0.0 L64,0.3010299956639812 L65,0.0 L66,0.0 L67,1.4313637641589874 L68,0.3010299956639812 L69,3.130333768495006 L70,0.0 L71,0.0 L72,0.0 L73,0.0 L74,0.0 L75,0.0 L76,0.0 L77,0.0 L78,0.0 L79,0.0 L80,0.0 L81,0.0 L82,0.0 L83,0.0 L84,0.0 L85,0.0 L86,0.0 L87,0.0 L88,0.0 L89,0.0 L90,0.0 L91,0.0 L92,0.0 L93,0.0 L94,0.0 L95,0.0 L96,0.0 L97,0.8450980400142568 L98,0.3010299956639812 L99,3.1155938717202027 L100,0.0 L101,0.0 L102,0.0 L103,0.0 L104,0.0 L105,0.0 L106,0.0 L107,0.0 L108,0.0 L109,0.0 L110,0.0 L111,0.0 L112,0.0 L113,0.0 L114,0.0 L115,0.0 L116,0.0 L117,0.0 L118,0.0 L119,0.0 L120,0.0 L121,0.0 L122,0.0 L123,0.0 L124,0.0 L125,0.0 L126,0.0 L127,0.5976951859255123 L128,0.0 L129,3.1109262422664203 L130,0.0 L131,0.0 L132,0.0 L133,0.0 L134,0.3010299956639812 L135,0.0 L136,0.0 L137,0.0 L138,0.0 L139,0.0 L140,0.0 L141,0.0 L142,0.0 L143,0.0 L144,0.0 L145,0.0 L146,0.0 L147,0.0 L148,0.0 L149,0.0 L150,0.0 L151,0.0 L152,0.0 L153,0.0 L154,0.0 L155,0.0 L156,0.0 L157,0.7781512503836436 L158,0.0 L159,2.886490725172482 L160,2.6857417386022635 L161,0.0 L162,0.0 L163,0.0 L164,0.0 L165,0.0 L166,0.0 L167,0.0 L168,0.0 L169,0.0 L170,0.0 L171,0.0 L172,0.0 L173,0.0 L174,0.0 L175,0.0 L176,0.0 L177,0.0 L178,0.0 L179,0.0 L180,0.0 L181,0.0 L182,0.0 L183,0.0 L184,0.0 L185,0.0 L186,0.0 L187,0.7781512503836436 L188,0.0 L189,0.0 L190,3.085290578230065 L191,0.0 L192,0.0 L193,0.0 L194,0.0 L195,0.0 L196,0.0 L197,0.0 L198,0.0 L199,0.0 L200,0.0 L201,0.0 L202,0.0 L203,0.0 L204,0.0 L205,0.0 L206,0.0 L207,0.0 L208,0.0 L209,0.0 L210,0.0 L211,0.0 L212,0.0 L213,0.0 L214,0.0 L215,0.0 L216,0.0 L217,0.3010299956639812 L218,0.3010299956639812 L219,0.0 L220,0.0 L221,0.0 L222,0.0 L223,0.0 L224,0.0 L225,3.151676230847048 L226,0.0 L227,0.0 L228,0.0 L229,0.0 L230,0.0 L231,0.0 L232,0.0 L233,0.0 L234,0.0 L235,0.0 L236,0.0 L237,0.0 L238,0.0 L239,0.0 L240,0.0 L241,0.0 L242,0.0 L243,0.0 L244,0.0 L245,0.0 L246,0.0 L247,0.0 L248,0.6020599913279624 L249,0.0 L250,0.0 L251,0.0 L252,0.0 L253,0.0 L254,0.0 L255,3.030194785356751 L256,0.0 L257,0.0 L258,0.0 L259,0.0 L260,0.0 L261,0.0 L262,0.0 L263,0.0 L264,0.0 L265,0.0 L266,0.0 L267,0.0 L268,0.0 L269,0.0 L270,0.3010299956639812 L271,0.0 L272,0.0 L273,0.0 L274,0.0 L275,0.0 L276,0.0 L277,0.0 L278,0.7781512503836436 L279,0.0 L280,0.0 L281,0.0 L282,0.0 L283,0.0 L284,0.0 L285,3.0232524596337114 L286,0.0 L287,0.0 L288,0.0 L289,0.0 L290,0.0 L291,0.0 L292,0.0 L293,0.0 L294,0.0 L295,0.0 L296,0.0 L297,0.0 L298,0.0 L299,0.0 L300,0.0 L301,0.0 L302,0.0 L303,0.0 L304,0.0 L305,0.0 L306,0.0 L307,0.0 L308,0.6020599913279624 L309,0.0 L310,0.0 L311,0.0 L312,0.0 L313,0.0 L314,0.0 L315,0.0 L316,3.0293837776852097 L317,0.0 L318,0.0 L319,0.0 L320,0.0 L321,0.0 L322,0.0 L323,0.0 L324,0.0 L325,0.0 L326,0.0 L327,0.0 L328,0.0 L329,0.0 L330,0.0 L331,0.0 L332,0.0 L333,0.0 L334,0.0 L335,0.0 L336,0.0 L337,0.0 L338,1.041392685158225 L339,0.0 L340,0.0 L341,0.0 L342,0.0 L343,0.0 L344,0.0 L345,0.0 L346,3.02201573981772 L347,0.0 L348,0.0 L349,0.0 L350,0.0 L351,0.0 L352,0.0 L353,0.0 L354,0.0 L355,0.0 L356,0.0 L357,0.0 L358,0.0 L359,0.0 L360,0.0 L361,0.0 L362,0.0 L363,0.0 L364,0.0 L365,0.0 L366,0.0 L367,0.0 L368,0.6020599913279624 L369,0.0 L370,0.0 L371,0.0 L372,0.0 L373,0.0 L374,0.0 L375,0.0 L376,3.020775488193558 L377,0.0 L378,0.0 L379,0.0 L380,0.0 L381,0.0 L382,0.0 L383,0.0 L384,0.0 L385,0.0 L386,0.0 L387,0.0 L388,0.0 L389,0.0 L390,0.0 L391,0.0 L392,0.0 L393,0.0 L394,0.0 L395,0.0 L396,0.0 L397,0.0 L398,0.6063813651106049 L399,0.0 L400,0.0 L401,0.0 L402,0.0 L403,0.0 L404,0.0 L405,0.0 L406,3.015208816042279 L407,0.0 L408,0.0 L409,0.0 L410,0.0 L411,0.0 L412,0.0 L413,0.0 L414,0.0 L415,0.0 L416,0.0 L417,0.0 L418,0.0 L419,0.0 L420,0.0 L421,0.0 L422,0.0 L423,0.0 L424,0.0 L425,0.0 L426,0.0 L427,0.0 L428,0.6020599913279624 L429,0.0 L430,0.0 L431,0.0 L432,0.0 L433,0.0 L434,0.0 L435,0.0 L436,2.843855422623161 L437,2.5599066250361124 L438,0.0 L439,0.0 L440,0.0 L441,0.0 L442,0.0 L443,0.0 L444,0.0 L445,0.0 L446,0.0 L447,0.47712125471966244 L448,0.0 L449,0.0 L450,0.0 L451,0.0 L452,0.0 L453,0.0 L454,0.0 L455,0.0 L456,0.0 L457,0.0 L458,0.6020599913279624 L459,0.0 L460,0.0 L461,0.0 L462,0.0 L463,0.0 L464,0.0 L465,0.0 L466,0.0 L467,2.9800033715837464 L468,0.0 L469,0.0 L470,0.0 L471,0.0 L472,0.0 L473,0.0 L474,0.0 L475,0.0 L476,0.0 L477,0.0 L478,0.0 L479,0.0 L480,0.0 L481,0.0 L482,0.0 L483,0.0 L484,0.0 L485,0.0 L486,0.0 L487,0.0 L488,0.8450980400142568 L489,0.0 L490,0.0 L491,0.0 L492,0.0 L493,0.0 L494,0.0 L495,0.0 L496,0.0 L497,3.0086001717619175 L498,0.0 L499,0.0 L500,0.0 L501,0.0 L502,0.7781512503836436 L503,0.0 L504,0.0 L505,0.0 L506,0.0 L507,0.0 L508,0.0 L509,0.0 L510,0.0 L511,0.0 L512,0.0 L513,0.0 L514,0.0 L515,0.0 L516,0.0 L517,0.0 L518,1.2041199826559248 L519,0.0 L520,0.0 L521,0.0 L522,0.0 L523,0.0 L524,0.0 L525,0.0 L526,0.0 L527,2.9863237770507656 L528,0.0 L529,0.0 L530,0.0 L531,0.0 L532,0.0 L533,0.0 L534,0.0 L535,0.0 L536,0.0 L537,0.3010299956639812 L538,0.0 L539,0.0 L540,0.0 L541,0.0 L542,0.0 L543,0.0 L544,0.0 L545,0.0 L546,0.0 L547,0.0 L548,1.0 L549,0.0 L550,0.0 L551,0.0 L552,0.0 L553,0.0 L554,0.0 L555,0.0 L556,0.0 L557,2.9863237770507656 L558,1.9867717342662448 L559,0.0 L560,0.0 L561,0.0 L562,0.0 L563,0.0 L564,0.0 L565,0.0 L566,0.0 L567,0.0 L568,0.0 L569,0.0 L570,0.0 L571,0.0 L572,0.0 L573,0.0 L574,0.0 L575,0.0 L576,0.0 L577,0.0 L578,0.6989700043360189 L579,0.0 L580,0.0 L581,0.0 L582,0.0 L583,0.0 L584,0.0 L585,0.0 L586,0.0 L587,0.0 L588,3.0203612826477078 L589,0.0 L590,0.0 L591,0.0 L592,0.0 L593,0.0 L594,0.0 L595,0.0 L596,0.0 L597,0.0 L598,0.0 L599,0.0 L600,0.0 L601,0.0 L602,0.0 L603,0.0 L604,0.0 L605,0.0 L606,0.0 L607,0.0 L608,0.0 L609,0.6020599913279624 L610,0.0 L611,0.0 L612,0.0 L613,0.0 L614,0.0 L615,0.0 L616,0.0 L617,0.0 L618,3.0145205387579237 L619,0.0 L620,0.0 L621,0.0 L622,0.0 L623,0.0 L624,0.0 L625,0.0 L626,0.0 L627,0.0 L628,0.0 L629,0.0 L630,0.0 L631,0.0 L632,0.0 L633,0.0 L634,0.0 L635,0.0 L636,0.0 L637,0.0 L638,0.0 L639,0.8450980400142568 L640,0.0 L641,0.0 L642,0.0 L643,0.0 L644,0.0 L645,0.0 L646,0.0 L647,0.0 L648,3.0199466816788423 L649,0.0 L650,0.0 L651,0.0 L652,0.0 L653,0.0 L654,0.0 L655,0.0 L656,0.0 L657,0.0 L658,0.0 L659,0.0 L660,0.0 L661,0.0 L662,0.0 L663,0.0 L664,0.0 L665,0.0 L666,0.0 L667,0.0 L668,0.0 L669,0.6020599913279624 L670,0.0 L671,0.0 L672,0.0 L673,0.0 L674,0.0 L675,0.0 L676,0.0 L677,0.0 L678,3.009450895798694 L679,0.0 L680,0.0 L681,0.0 L682,0.0 L683,0.0 L684,0.0 L685,0.0 L686,0.0 L687,0.0 L688,0.0 L689,0.0 L690,0.0 L691,0.0 L692,0.0 L693,0.0 L694,0.0 L695,0.0 L696,0.0 L697,0.0 L698,0.0 L699,0.6020599913279624 L700,0.0 L701,0.0 L702,0.0 L703,0.0 L704,0.0 L705,0.0 L706,0.0 L707,0.0 L708,2.996949248495381 L709,0.0 L710,0.0 L711,0.0 L712,0.0 L713,0.0 L714,0.0 L715,0.0 L716,0.0 L717,0.0 L718,0.0 L719,0.0 L720,0.0 L721,0.0 L722,0.0 L723,0.0 L724,0.0 L725,0.0 L726,0.0 L727,0.0 L728,0.0 L729,0.7781512503836436 L730,0.0 L731,0.0 L732,0.0 L733,0.0 L734,0.0 L735,0.0 L736,0.0 L737,0.0 L738,0.0 L739,2.9885589568786157 L740,0.0 L741,0.0 L742,0.0 L743,0.0 L744,0.0 L745,0.0 L746,0.0 L747,0.0 L748,0.0 L749,2.4471580313422194 L750,0.3010299956639812 L751,0.0 L752,0.0 L753,0.0 L754,0.0 L755,0.0 L756,0.0 L757,0.0 L758,0.0 L759,1.146128035678238 L760,0.0 L761,0.0 L762,0.0 L763,0.0 L764,0.0 L765,0.0 L766,0.0 L767,0.0 L768,0.0 L769,0.0 L770,2.6599162000698504 L771,0.0 L772,0.0 L773,0.0 L774,0.0 L775,3.6461095219788477 L776,3.8825074618204103 L777,3.1458177144918276 L778,0.0 L779,0.0 L780,0.0 L781,0.0 L782,0.0 L783,0.0 L784,0.0 L785,0.0 L786,0.0 L787,0.0 L788,0.0 L789,0.6020599913279624 L790,0.0 L791,0.0 L792,0.0 L793,0.0 L794,0.0 L795,0.0 L796,0.0 L797,0.0 L798,0.0 L799,0.0 L800,0.0 L801,0.0 L802,0.0 L803,0.0 L804,0.0 L805,0.0 L806,0.0 L807,3.77342072329061 L808,2.8567288903828825 L809,3.0115704435972783 L810,3.327767489902729 L811,3.7742979384992776 L812,3.0051805125037805 L813,3.1264561134318045 L814,2.359835482339888 L815,2.5390760987927767 L816,2.2095150145426308 L817,2.0211892990699383 L818,1.8864907251724818 L819,2.1818435879447726 L820,2.123851640967086 L821,2.290034611362518 L822,2.305351369446624 L823,2.5646660642520893 L824,2.1702617153949575 L825,2.230448921378274 L826,2.2600713879850747 L827,2.5289167002776547 L828,2.577491799837225 L829,0.0 L830,0.0 L831,0.0 L832,0.0 L833,2.2695129442179165 L834,2.765668554759014 L835,2.808210972924222 L836,2.617000341120899 L837,2.4756711883244296 L838,2.509202522331103 L839,2.496929648073215 L840,2.7234556720351857 L841,2.416640507338281 L842,2.5428254269591797 L843,2.4313637641589874 L844,2.5403294747908736 L845,2.462397997898956 L846,2.481442628502305 L847,2.507855871695831 L848,2.496929648073215 L849,2.6570558528571038 L850,2.677606952720493 L851,2.530199698203082 L852,2.597695185925512 L853,2.399673721481038 L854,2.552668216112193 L855,2.3944516808262164 L856,2.5477747053878224 L857,2.419955748489758 L858,2.514547752660286 L859,2.5171958979499744 L860,2.531478917042255 L861,2.456366033129043 L862,2.569373909615046 L863,2.496929648073215 L864,2.4683473304121573 L865,2.514547752660286 L866,2.788875115775417 L867,2.7134905430939424 L868,2.44870631990508 L869,2.7701152947871015 L870,2.513217600067939 L871,2.311753861055754 L872,2.531478917042255 L873,2.513217600067939 L874,2.0644579892269186 L875,0.0 L876,1.9822712330395684 L877,2.545307116465824 L878,3.059941888061955 L879,2.4608978427565478 L880,2.439332693830263 L881,2.439332693830263 L882,2.3909351071033793 L883,2.3909351071033793 L884,2.582063362911709 L885,2.429752280002408 L886,2.8407332346118066 L887,2.509202522331103 L888,2.8573324964312685 L889,2.4082399653118496 L890,2.428134794028789 L891,2.3180633349627615 L892,2.4578818967339924 L893,2.2695129442179165 L894,2.3324384599156054 L895,2.380211241711606 L896,2.330413773349191 L897,2.383815365980431 L898,2.481442628502305 L899,2.320146286111054 L900,2.444044795918076 L901,2.3909351071033793 L902,2.4313637641589874 L903,2.48572142648158 L904,2.4265112613645754 L905,2.5646660642520893 L906,2.59659709562646 L907,2.56702636615906 L908,2.630427875025024 L909,2.5921767573958667 L910,2.6283889300503116 L911,2.846955325019824 L912,3.1583624920952498 L913,2.5415792439465807 L914,2.606381365110605 L915,2.255272505103306 L916,2.3873898263387296 L917,2.48572142648158 L918,2.5390760987927767 L919,2.5211380837040362 L920,2.5440680443502757 L921,2.5634810853944106 L922,2.469822015978163 L923,2.5575072019056577 L924,2.649334858712142 L925,2.5440680443502757 L926,2.494154594018443 L927,2.41161970596323 L928,2.4409090820652177 L929,2.5352941200427703 L930,2.526339277389844 L931,2.505149978319906 L932,2.4771212547196626 L933,2.5538830266438746 L934,2.741151598851785 L935,2.6711728427150834 L936,2.41161970596323 L937,2.3263358609287517 L938,2.4653828514484184 L939,2.788168371141168 L940,2.404833716619938 L941,2.661812685537261 L942,2.4871383754771865 L943,2.374748346010104 L944,2.3783979009481375 L945,2.423245873936808 L946,2.4638929889859074 L947,2.3783979009481375 L948,2.437750562820388 L949,2.4216039268698313 L950,2.3783979009481375 L951,2.416640507338281 L952,2.383815365980431 L953,2.9647309210536292 L954,2.962369335670021 L955,2.5024271199844326 L956,2.1903316981702914 L957,2.3364597338485296 L958,2.4608978427565478 L959,2.383815365980431 L960,2.399673721481038 L961,2.6148972160331345 L962,2.647920614581567 L963,2.3729120029701067 L964,3.055378331375 L965,2.66838591669 L966,2.2810333672477277 L967,2.3242824552976926 L968,2.3180633349627615 L969,2.3283796034387376 L970,2.413299764081252 L971,2.376576957056512 L972,2.4216039268698313 L973,2.3344537511509307 L974,2.3979400086720375 L975,2.3364597338485296 L976,2.419955748489758 L977,2.5705429398818973 L978,2.741151598851785 L979,3.216165902285993 L980,2.2278867046136734 L981,2.330413773349191 L982,2.3944516808262164 L983,2.4800069429571505 L984,2.506505032404872 L985,2.4885507165004443 L986,2.507855871695831 L987,2.550228353055094 L988,2.5224442335063197 L989,2.3521825181113627 L990,2.3654879848909 L991,2.4683473304121573 L992,2.456366033129043 L993,2.4082399653118496 L994,2.444044795918076 L995,2.5415792439465807 L996,2.3944516808262164 L997,2.401400540781544 L998,2.3502480183341627 L999,2.578639209968072 L1000,2.6148972160331345 L1001,2.5899496013257077 L1002,2.552668216112193 L1003,2.5943925503754266 L1004,2.693726948923647 L1005,2.9947569445876283 L1006,2.785329835010767 L1007,2.6053050461411096 L1008,2.6364878963533656 L1009,2.69284691927723 L1010,2.7259116322950483 L1011,2.576341350205793 L1012,2.6138418218760693 L1013,2.526339277389844 L1014,2.577491799837225 L1015,2.530199698203082 L1016,2.5658478186735176 L1017,2.577491799837225 L1018,2.5390760987927767 L1019,2.7193312869837265 L1020,2.4668676203541096 L1021,2.6127838567197355 L1022,2.6138418218760693 L1023,2.5622928644564746 L1024,2.6085260335771943 L1025,2.4265112613645754 L1026,2.5599066250361124 L1027,2.5622928644564746 L1028,2.531478917042255 L1029,2.503790683057181 L1030,2.525044807036845 L1031,2.5211380837040362 L1032,2.4927603890268375 L1033,2.509202522331103 L1034,2.439332693830263 L1035,2.4456042032735974 L1036,2.5550944485783194 L1037,2.5352941200427703 L1038,2.575187844927661 L1039,2.6599162000698504 L1040,2.6384892569546374 L1041,2.737987326333431 L1042,2.737987326333431 L1043,2.4712917110589387 L1044,2.531478917042255 L1045,2.478566495593843 L1046,2.4653828514484184 L1047,2.5171958979499744 L1048,2.534026106056135 L1049,2.510545010206612 L1050,2.509202522331103 L1051,2.4955443375464483 L1052,2.5705429398818973 L1053,2.509202522331103 L1054,2.577491799837225 L1055,2.6334684555795866 L1056,2.4983105537896004 L1057,2.4424797690644486 L1058,2.530199698203082 L1059,2.574031267727719 L1060,2.5888317255942073 L1061,2.4424797690644486 L1062,2.5276299008713385 L1063,2.6201360549737576 L1064,2.6589648426644352 L1065,2.6541765418779604 L1066,2.484299839346786 L1067,2.6364878963533656 L1068,2.6580113966571126 L1069,2.661812685537261 L1070,2.5809249756756194 L1071,0.0 L1072,0.0 L1073,0.0 L1074,0.0 L1075,0.0 L1076,0.0 L1077,0.0 L1078,0.0 L1079,0.0 L1080,0.0 L1081,0.0 L1082,0.0 L1083,0.0 L1084,0.0 L1085,0.0 L1086,0.0 L1087,0.0 L1088,0.0 L1089,0.0 L1090,0.0 L1091,0.0 L1092,0.6989700043360189 L1093,0.0 L1094,0.0 L1095,0.0 L1096,0.0 L1097,0.0 L1098,0.0 L1099,0.0 L1100,0.0 L1101,0.0 L1102,0.0 L1103,0.0 L1104,0.0 L1105,0.0 L1106,0.0 L1107,0.0 L1108,0.0 L1109,0.0 L1110,0.0 L1111,1.2041199826559248 L1112,2.0644579892269186 L1113,0.0 L1114,0.0 L1115,0.0 L1116,0.0 L1117,0.0 L1118,0.0 L1119,0.0 L1120,0.0 L1121,0.0 L1122,0.0 L1123,0.0 L1124,0.0 L1125,0.0 L1126,0.0 L1127,0.0 L1128,0.0 L1129,0.0 L1130,0.0 L1131,0.0 L1132,0.0 L1133,0.0 L1134,0.0 L1135,0.0 L1136,0.0 L1137,2.322219294733919 L1138,0.0 L1139,0.0 L1140,0.0 L1141,1.2787536009528289 L1142,3.5766868052009957 L1143,0.0 L1144,0.0 L1145,0.0 L1146,0.0 L1147,0.0 L1148,0.0 L1149,0.0 L1150,0.0 L1151,0.0 L1152,0.0 L1153,0.0 L1154,0.0 L1155,0.0 L1156,0.0 L1157,0.0 L1158,0.0 L1159,0.0 L1160,0.0 L1161,0.0 L1162,0.0 L1163,0.0 L1164,0.0 L1165,0.0 L1166,0.0 L1167,0.0 L1168,0.0 L1169,0.0 L1170,0.0 L1171,0.7781512503836436 L1172,3.615950051656401 L1173,0.0 L1174,0.0 L1175,0.0 L1176,0.0 L1177,0.0 L1178,0.0 L1179,0.0 L1180,0.0 L1181,0.0 L1182,0.0 L1183,0.0 L1184,0.0 L1185,0.0 L1186,0.0 L1187,0.0 L1188,0.0 L1189,0.0 L1190,0.0 L1191,0.0 L1192,0.0 L1193,0.0 L1194,0.0 L1195,0.0 L1196,0.0 L1197,0.0 L1198,0.0 L1199,0.0 L1200,0.0 L1201,0.0 L1202,2.5276299008713385 L1203,3.5816083660320577 L1204,0.0 L1205,0.0 L1206,0.0 L1207,0.0 L1208,0.0 L1209,0.0 L1210,0.0 L1211,0.0 L1212,0.0 L1213,0.0 L1214,0.0 L1215,0.0 L1216,0.0 L1217,0.0 L1218,0.0 L1219,0.0 L1220,0.0 L1221,0.0 L1222,0.0 L1223,0.0 L1224,0.0 L1225,0.0 L1226,0.0 L1227,0.0 L1228,0.0 L1229,0.0 L1230,0.0 L1231,0.6989700043360189 L1232,0.0 L1233,3.6133131614554594 L1234,0.0 L1235,0.0 L1236,0.0 L1237,0.0 L1238,0.0 L1239,0.0 L1240,0.0 L1241,0.0 L1242,0.0 L1243,0.0 L1244,0.47712125471966244 L1245,0.0 L1246,0.0 L1247,0.0 L1248,0.0 L1249,0.0 L1250,0.0 L1251,0.0 L1252,0.0 L1253,0.0 L1254,0.0 L1255,0.0 L1256,0.0 L1257,0.0 L1258,0.0 L1259,0.0 L1260,0.0 L1261,0.6020599913279624 L1262,0.0 L1263,2.754348335711019 L1264,3.546542663478131 L1265,0.0 L1266,0.0 L1267,0.0 L1268,0.0 L1269,0.0 L1270,0.0 L1271,0.0 L1272,0.0 L1273,0.0 L1274,0.0 L1275,0.0 L1276,0.0 L1277,0.0 L1278,0.0 L1279,0.0 L1280,0.0 L1281,0.0 L1282,0.0 L1283,0.0 L1284,0.0 L1285,0.0 L1286,0.0 L1287,0.0 L1288,0.0 L1289,0.0 L1290,0.0 L1291,0.7781512503836436 L1292,0.0 L1293,0.0 L1294,3.6065963091792854 L1295,0.0 L1296,0.0 L1297,0.0 L1298,0.0 L1299,0.0 L1300,0.0 L1301,0.0 L1302,0.0 L1303,0.0 L1304,0.0 L1305,0.0 L1306,0.0 L1307,0.0 L1308,0.0 L1309,0.0 L1310,0.0 L1311,0.0 L1312,0.0 L1313,0.0 L1314,0.0 L1315,0.0 L1316,0.0 L1317,0.0 L1318,0.0 L1319,0.0 L1320,0.0 L1321,0.6020599913279624 L1322,0.0 L1323,0.0 L1324,2.9722028383790646 L1325,3.498034723687027 L1326,0.0 L1327,0.0 L1328,0.0 L1329,0.0 L1330,0.0 L1331,0.0 L1332,0.0 L1333,0.0 L1334,0.0 L1335,0.0 L1336,0.0 L1337,0.0 L1338,0.0 L1339,0.0 L1340,0.0 L1341,0.0 L1342,0.0 L1343,0.0 L1344,0.0 L1345,0.0 L1346,0.0 L1347,0.0 L1348,0.0 L1349,0.0 L1350,0.0 L1351,0.3010299956639812 L1352,0.6020599913279624 L1353,0.0 L1354,0.0 L1355,3.6124659639531425 L1356,0.0 L1357,0.0 L1358,0.0 L1359,0.0 L1360,0.0 L1361,0.0 L1362,0.0 L1363,0.0 L1364,0.0 L1365,0.0 L1366,0.0 L1367,0.0 L1368,3.028977705208778 L1369,0.0 L1370,0.0 L1371,0.0 L1372,0.0 L1373,0.0 L1374,0.0 L1375,0.0 L1376,0.0 L1377,0.0 L1378,0.0 L1379,0.0 L1380,0.0 L1381,0.0 L1382,0.6020599913279624 L1383,0.0 L1384,0.0 L1385,0.0 L1386,0.0 L1387,0.0 L1388,0.0 L1389,0.0 L1390,0.0 L1391,0.0 L1392,0.0 L1393,0.0 L1394,0.0 L1395,0.0 L1396,0.0 L1397,0.0 L1398,0.0 L1399,0.0 L1400,0.0 L1401,0.0 L1402,0.0 L1403,0.0 L1404,0.0 L1405,0.0 L1406,0.0 L1407,0.0 L1408,0.0 L1409,0.0 L1410,0.0 L1411,1.0791812460476249 L1412,0.0 L1413,0.0 L1414,3.960898677326661 L1415,3.514547752660286 L1416,2.8692317197309762 L1417,2.8506462351830666 L1418,2.788875115775417 L1419,2.6283889300503116 L1420,2.635483746814912 L1421,2.682145076373832 L1422,2.6720978579357175 L1423,2.60422605308447 L1424,2.673020907128896 L1425,2.5943925503754266 L1426,2.667452952889954 L1427,2.6074550232146687 L1428,2.7737864449811935 L1429,0.0 L1430,0.0 L1431,0.0 L1432,0.0 L1433,2.530199698203082 L1434,3.25478968739721 L1435,2.5877109650189114 L1436,2.7573960287930244 L1437,2.6180480967120925 L1438,2.7134905430939424 L1439,2.741939077729199 L1440,2.7024305364455254 L1441,2.513217600067939 L1442,2.710963118995276 L1443,2.481442628502305 L1444,2.525044807036845 L1445,2.661812685537261 L1446,2.3502480183341627 L1447,2.7024305364455254 L1448,2.432969290874406 L1449,2.437750562820388 L1450,2.537819095073274 L1451,2.530199698203082 L1452,2.416640507338281 L1453,0.0 L1454,0.0 L1455,0.0 L1456,0.0 L1457,2.9542425094393248 L1458,2.514547752660286 L1459,2.5171958979499744 L1460,2.5477747053878224 L1461,2.5118833609788744 L1462,2.515873843711679 L1463,2.584331224367531 L1464,2.635483746814912 L1465,2.622214022966295 L1466,2.7671558660821804 L1467,2.649334858712142 L1468,2.738780558484369 L1469,2.708420900134713 L1470,2.5440680443502757 L1471,2.530199698203082 L1472,2.593286067020457 L1473,2.5118833609788744 L1474,2.5327543789924976 L1475,2.6473829701146196 L1476,2.5289167002776547 L1477,2.4927603890268375 L1478,2.577491799837225 L1479,2.4871383754771865 L1480,2.48572142648158 L1481,2.5327543789924976 L1482,2.220108088040055 L1483,0.0 L1484,0.0 L1485,0.0 L1486,0.0 L1487,2.741151598851785 L1488,2.578639209968072 L1489,2.5634810853944106 L1490,2.578639209968072 L1491,2.6180480967120925 L1492,2.6541765418779604 L1493,2.8836614351536176 L1494,2.747411807886423 L1495,2.6020599913279625 L1496,2.584331224367531 L1497,2.690196080028514 L1498,2.6334684555795866 L1499,2.6434526764861874 L1500,2.6522463410033232 L1501,2.6464037262230695 L1502,2.651278013998144 L1503,2.8419848045901137 L1504,2.3180633349627615 L1505,2.45178643552429 L1506,2.558708570533166 L1507,2.6020599913279625 L1508,2.5514499979728753 L1509,2.550228353055094 L1510,2.550228353055094 L1511,2.514547752660286 L1512,2.503790683057181 L1513,2.462397997898956 L1514,2.530199698203082 L1515,2.552668216112193 L1516,2.5705429398818973 L1517,2.507855871695831 L1518,2.583198773968623 L1519,2.5888317255942073 L1520,2.4668676203541096 L1521,2.5118833609788744 L1522,2.5185139398778875 L1523,0.0 L1524,0.0 L1525,0.0 L1526,0.0 L1527,2.3654879848909 L1528,2.632457292184724 L1529,2.6444385894678386 L1530,2.606381365110605 L1531,2.5514499979728753 L1532,2.6180480967120925 L1533,2.6148972160331345 L1534,2.629409599102719 L1535,2.6283889300503116 L1536,2.7032913781186614 L1537,2.6434526764861874 L1538,2.66838591669 L1539,2.526339277389844 L1540,2.6655809910179533 L1541,2.60959440922522 L1542,2.788168371141168 L1543,2.7965743332104296 L1544,2.6766936096248664 L1545,2.57978359661681 L1546,2.4913616938342726 L1547,2.459392487759231 L1548,2.6344772701607315 L1549,2.6020599913279625 L1550,2.5289167002776547 L1551,2.5390760987927767 L1552,2.507855871695831 L1553,2.4927603890268375 L1554,2.5705429398818973 L1555,2.494154594018443 L1556,2.484299839346786 L1557,2.5224442335063197 L1558,2.625312450961674 L1559,2.5575072019056577 L1560,2.503790683057181 L1561,2.5224442335063197 L1562,2.5415792439465807 L1563,2.530199698203082 L1564,2.459392487759231 L1565,2.598790506763115 L1566,2.586587304671755 L1567,2.5403294747908736 L1568,2.456366033129043 L1569,2.3979400086720375 L1570,2.45178643552429 L1571,2.4533183400470375 L1572,2.450249108319361 L1573,2.484299839346786 L1574,2.4712917110589387 L1575,2.5403294747908736 L1576,2.4471580313422194 L1577,2.5477747053878224 L1578,2.5563025007672873 L1579,2.4742162640762553 L1580,2.4456042032735974 L1581,2.456366033129043 L1582,2.436162647040756 L1583,2.4608978427565478 L1584,2.4638929889859074 L1585,2.863322860120456 L1586,2.462397997898956 L1587,2.423245873936808 L1588,2.401400540781544 L1589,2.399673721481038 L1590,2.459392487759231 L1591,2.6178910944273546 L1592,2.4871383754771865 L1593,3.0034605321095067 L1594,2.4668676203541096 L1595,2.459392487759231 L1596,2.45484486000851 L1597,2.4424797690644486 L1598,2.6242820958356683 L1599,2.482873583608754 L1600,2.571708831808688 L1601,2.4742162640762553 L1602,2.4927603890268375 L1603,2.4424797690644486 L1604,2.5289167002776547 L1605,2.4983105537896004 L1606,2.537819095073274 L1607,2.5728716022004803 L1608,2.582063362911709 L1609,2.6570558528571038 L1610,2.5563025007672873 L1611,2.673941998634088 L1612,2.6580113966571126 L1613,2.7831886910752575 L1614,2.745855195173729 L1615,2.656098202012832 L1616,2.7259116322950483 L1617,2.6655809910179533 L1618,2.7641761323903307 L1619,2.5575072019056577 L1620,2.5490032620257876 L1621,2.6148972160331345 L1622,2.505149978319906 L1623,2.6020599913279625 L1624,2.5563025007672873 L1625,2.484299839346786 L1626,2.5538830266438746 L1627,2.4913616938342726 L1628,2.5943925503754266 L1629,2.571708831808688 L1630,2.550228353055094 L1631,2.4742162640762553 L1632,2.611723308007342 L1633,2.5998830720736876 L1634,2.499687082618404 L1635,2.5622928644564746 " style="vector-effect: non-scaling-stroke; stroke: #00ffff; stroke-width: 1; fill-opacity: 0" transform="scale(0.440367,-50.0)"/><polyline points="0,0.0 720,0.0" style="vector-effect: non-scaling-stroke; stroke: #202020" transform="scale(1,-1)"/><text x="0" y="-0.0" style="fill: white; stroke: none; font-size: 12px; text-anchor: end">10^0&#160;</text><polyline points="0,50.0 720,50.0" style="vector-effect: non-scaling-stroke; stroke: #202020" transform="scale(1,-1)"/><text x="0" y="-50.0" style="fill: white; stroke: none; font-size: 12px; text-anchor: end">10^1&#160;</text><polyline points="0,100.0 720,100.0" style="vector-effect: non-scaling-stroke; stroke: #202020" transform="scale(1,-1)"/><text x="0" y="-100.0" style="fill: white; stroke: none; font-size: 12px; text-anchor: end">10^2&#160;</text><polyline points="0,150.0 720,150.0" style="vector-effect: non-scaling-stroke; stroke: #202020" transform="scale(1,-1)"/><text x="0" y="-150.0" style="fill: white; stroke: none; font-size: 12px; text-anchor: end">10^3&#160;</text></g>
</g>
</svg>
